<svg width="414" height="139" viewBox="0 0 414 139" fill="none" xmlns="http://www.w3.org/2000/svg">
<path fill-rule="evenodd" clip-rule="evenodd" d="M-73.3999 78.7813C-70.3504 87.2274 -68.8557 91.3673 -61.9844 92.6003C-61.0905 92.7608 -52.0261 95.1854 -48.4048 97.1197C-47.7708 97.7084 -45.9157 98.1065 -43.5781 98.6081C-39.2401 99.539 -33.2402 100.827 -30.2986 104.351C-29.1075 105.2 -27.7072 106.149 -26.2064 107.166C-19.7227 111.56 -11.3638 117.225 -9.8935 121.628C-8.23566 121.558 -4.9195 124.312 -1.62397 127.049C1.59039 129.718 4.78503 132.371 6.40203 132.371C8.52569 132.371 10.7382 132.277 13.0239 132.18C20.4819 131.864 28.7179 131.515 37.1826 134.283C39.3112 134.979 67.9725 140.055 69.7737 138.802C76.1109 136.994 92.4311 132.788 99.6358 132.371C110.443 131.814 117.647 126.804 123.542 119.705C129.003 113.123 135.139 111.512 141.257 109.905C147.428 108.284 153.582 106.668 159.009 99.9579C166.378 90.7717 176.202 84.7868 190.448 85.9003C193.722 86.1787 196.997 86.0859 200.272 85.9931C201.91 85.9467 203.547 85.9003 205.184 85.9003C216.974 85.9003 226.143 81.7248 233.675 74.0696C236.82 70.7917 241.49 66.8926 246.371 63.2527H288.65C305.588 73.8412 328.439 87.4334 344.692 86.3178C350.675 85.9266 359.389 84.7108 367.45 83.5859C376.598 82.3096 384.905 81.1504 387.429 81.4464C395.683 82.3559 399.728 79.657 403.326 77.2561C407.437 74.513 410.965 72.1588 419.522 76.0182C423.779 77.8276 428.364 77.8276 432.949 77.6884C437.534 77.5492 442.282 77.41 447.031 77.41C447.031 77.41 583.755 6.8435 580.48 4.75573C577.783 2.98074 566.302 5.01774 551.342 7.67176C538.149 10.0124 522.251 12.8331 507.288 13.9419C491.139 15.1596 475.094 11.5348 467.061 9.72005C464.994 9.25311 463.457 8.90601 462.586 8.79207C461.321 8.60768 460.057 8.4199 458.795 8.23228C454.671 7.61932 450.559 7.00813 446.428 6.52278V-29.8791H280.734C279.165 -30.7135 277.616 -31.6011 276.084 -32.5457C273.268 -34.2711 270.472 -36.0322 267.673 -37.7951C259.409 -43.0003 251.119 -48.2215 242.19 -52.5883C241.069 -53.126 239.937 -53.6422 238.81 -54.1566C233.517 -56.5714 228.314 -58.9452 224.67 -63.3055C223.851 -64.2798 222.705 -64.6973 221.559 -64.1406C220.463 -63.6492 219.334 -63.1819 218.2 -62.7127C213.233 -60.6567 208.178 -58.5648 205.512 -54.2585C200.436 -45.9074 193.231 -39.7833 182.752 -36.5821C179.313 -35.6078 176.53 -33.52 174.237 -31.293C173.742 -30.8051 173.233 -30.334 172.713 -29.8791H37.751C35.2132 -32.579 32.542 -35.9442 29.9224 -39.2446C25.2156 -45.1744 20.675 -50.8948 17.3727 -52.1707C13.1129 -53.9141 10.2592 -61.5371 7.3836 -69.2189C4.29034 -77.4818 1.17169 -85.8128 -3.74994 -86.9668C-7.47565 -87.8428 -3.44935 -71.2339 0.841792 -53.5328C2.82775 -45.3405 4.87048 -36.9143 6.22766 -29.8791H-27.9235V-3.668C-30.5808 -3.06923 -33.1907 -2.32928 -35.6796 -1.22919C-48.4514 4.3382 -61.7144 8.65291 -75.305 12.6893C-76.6149 13.1068 -77.5974 12.9676 -78.5798 12.4109C-79.3516 12.0232 -80.1384 11.642 -80.929 11.2589C-83.8284 9.85389 -86.7784 8.42437 -89.223 6.56516C-96.1002 1.27614 -104.615 0.858566 -111.328 6.14758C-114.786 8.86628 -118.301 11.5462 -121.818 14.2283C-131.627 21.7071 -141.458 29.2028 -150.135 37.6033C-152.235 39.6856 -155.784 42.6817 -159.233 45.594C-162.239 48.1322 -165.17 50.6068 -167 52.3568C-154.72 55.1405 -145.059 53.192 -137.527 45.5368C-132.123 39.9694 -120.334 29.3914 -112.802 26.1901C-104.942 22.9889 -102.814 23.6848 -100.03 30.7832C-98.4609 34.7311 -98.6986 38.4933 -98.8969 41.632C-99.2159 46.6819 -99.433 50.1182 -91.8597 50.1182C-91.1644 50.1182 -90.4833 50.1103 -89.8198 50.1026C-83.3683 50.0282 -78.5798 49.9729 -78.5798 57.3492C-77.929 60.2814 -77.692 62.3536 -77.4783 64.2233C-77.1543 67.0573 -76.8835 69.426 -75.305 73.6189C-74.5867 75.4944 -73.9664 77.2122 -73.3999 78.7813Z" fill="#154945"/>
</svg>
