<svg width="127" height="36" viewBox="0 0 127 36" fill="none" xmlns="http://www.w3.org/2000/svg">
<g clip-path="url(#clip0)">
<path d="M-0.000169385 0.8C-0.100169 7.2 0.499831 13.8 2.19983 20C3.39983 24.3 4.69983 32 8.89983 34.4C9.59983 34.8 10.4998 34.8 11.1998 34.4C15.6998 31.5 18.3998 26.2 20.0998 21.3C18.7998 21.5 17.4998 21.6 16.1998 21.8C18.6998 26.3 24.6998 41.7 31.3998 32.8C37.9998 23.9 32.1998 12.7 34.7998 3C33.8998 3.4 32.9998 3.7 32.0998 4.1C32.2998 4.3 32.4998 4.4 32.6998 4.6C33.0998 5 33.7998 5 34.1998 4.6C34.2998 4.5 34.4998 4.3 34.5998 4.2C34.9998 3.8 35.1998 3.2 34.9998 2.6C34.9998 2.4 34.8998 2.2 34.7998 2C34.3998 0.8 32.5998 0 31.6998 1.2C27.7998 6.1 29.9998 12.3 30.2998 18C30.3998 19.4 30.1998 32.3 25.9998 30.5C24.8998 30 23.7998 26.9 23.1998 25.7C22.0998 23.7 20.9998 21.6 19.8998 19.5C18.9998 17.7 16.5998 18.4 15.9998 20C15.3998 21.6 12.2998 29.1 10.2998 29.3C9.29983 29.4 8.89983 28 8.19983 26.7C7.19983 24.8 6.39983 22.8 5.69983 20.7C3.39983 14.2 2.09983 7.6 1.49983 0.7C1.49983 -0.2 -0.000169385 -0.3 -0.000169385 0.8Z" fill="white"/>
<path d="M34.0997 27.2C37.8997 26.4 45.6997 26.1 44.7997 20.1C44.1997 16.2 39.1997 15.4 36.2997 17.2C33.1997 19.1 29.8997 26.2 32.1997 29.5C33.6997 31.6 36.6997 32.7 38.9997 33.6C41.7997 34.8 44.6997 35.8 47.6997 35.3C49.5997 34.9 49.7997 32.1 48.1997 31.3C45.8997 30.1 43.1997 29.8 40.6997 29C39.4997 28.6 37.8997 28.1 36.7997 27.3C35.4997 26.3 35.9997 25.2 36.4997 23.8C36.8997 22.6 37.3997 21.2 38.4997 20.4C38.9997 20 40.7997 19.5 41.3997 20.1C42.0997 20.9 41.4997 22.7 40.7997 23.4C39.8997 24.2 38.7997 24.4 37.6997 24.7C36.3997 25 34.9997 25.3 33.6997 25.8C32.8997 26.1 33.1997 27.4 34.0997 27.2Z" fill="white"/>
<path d="M53.3998 21.2999C57.0998 19.4999 59.6998 16.2999 60.2998 12.0999C60.7998 8.89988 59.7998 3.79988 55.7998 3.69988C51.8998 3.59988 50.5998 8.09988 50.3998 11.1999C49.7998 18.2999 53.2998 24.8999 52.1998 32.0999C51.7998 34.7999 55.7998 35.9999 56.3998 33.1999C57.3998 28.1999 56.0998 23.5999 54.9998 18.5999C54.5998 16.8999 54.2998 15.1999 54.1998 13.4999C54.0998 11.2999 53.0998 8.59988 56.1998 9.99988C58.5998 10.9999 58.0998 12.1999 57.3998 14.3999C56.5998 16.7999 54.9998 18.6999 52.9998 20.1999C52.1998 20.6999 52.6998 21.5999 53.3998 21.2999Z" fill="white"/>
<path d="M71.6005 16.3005C68.9005 15.1005 65.7005 17.8005 63.7005 19.4005C61.4005 21.3005 57.7005 24.7005 57.6005 27.9005C57.4005 31.6005 61.7005 32.8005 64.6005 33.6005C67.6005 34.4005 73.7005 36.2005 76.0005 33.2005C76.8005 32.1005 77.0005 31.1005 76.4005 29.9005C76.3005 29.8005 76.3005 29.6005 76.2005 29.5005C75.1005 27.1005 71.0005 28.3005 71.2005 30.9005C71.2005 31.0005 71.2005 31.2005 71.2005 31.3005C71.7005 30.5005 72.1005 29.7005 72.6005 28.9005C71.3005 29.8005 66.8005 28.6005 65.4005 28.3005C64.2005 28.0005 62.7005 28.1005 62.7005 26.7005C62.7005 26.1005 63.8005 24.8005 64.1005 24.3005C65.3005 22.5005 67.0005 21.0005 68.8005 19.8005C70.1005 18.9005 71.3005 18.5005 71.9005 17.0005C71.9005 16.7005 71.8005 16.4005 71.6005 16.3005Z" fill="white"/>
<path d="M84.2003 18.7003C84.4003 18.2003 84.6003 17.8003 84.9003 17.5003C85.7003 16.4003 84.0003 15.2003 83.0003 16.1003C79.4003 19.3003 76.1003 24.3003 78.2003 29.3003C80.1003 33.9003 86.3003 35.1003 90.7003 33.8003C95.4003 32.3003 97.4003 27.5003 95.9003 22.9003C94.4003 18.6003 88.1003 14.1003 83.5003 16.0003C81.9003 16.6003 81.6003 18.6003 83.0003 19.6003C85.2003 21.2003 88.2003 20.9003 90.2003 23.1003C92.2003 25.3003 91.8003 28.6003 88.7003 29.4003C86.1003 30.0003 82.4003 29.5003 81.7003 26.5003C80.9003 23.3003 83.5003 20.2003 85.0003 17.6003C84.3003 17.4003 83.5003 17.2003 82.8003 17.0003C82.8003 17.4003 82.7003 17.8003 82.7003 18.2003C82.5003 18.9003 83.8003 19.6003 84.2003 18.7003Z" fill="white"/>
<path d="M100.3 32.2999C101 27.4999 100.9 22.4999 101.1 17.5999C101.2 15.6999 98.4 15.7999 98.2 17.5999C97.9 20.7999 100.4 23.4999 103.6 23.5999C107 23.6999 109.5 20.8999 110.4 17.7999C109.4 17.7999 108.4 17.7999 107.4 17.7999C108.2 21.4999 108.9 25.1999 109.7 28.8999C110.2 31.2999 110.2 33.6999 112.8 34.6999C113.4 34.8999 114.3 34.6999 114.6 34.1999C115.2 33.4999 115.4 33.1999 115.8 32.2999C116.4 30.8999 115.1 29.1999 113.6 30.0999C112.8 30.5999 112.5 30.7999 111.9 31.4999C112.5 31.2999 113.1 31.1999 113.7 30.9999C113.2 30.8999 112.3 24.9999 112.1 24.4999C111.5 21.9999 110.8 19.4999 110.3 16.9999C110 15.4999 107.7 15.5999 107.3 16.9999C106.9 18.3999 106.2 19.5999 104.8 20.1999C102.9 20.9999 100.9 19.7999 100.9 17.5999C99.9 17.5999 99 17.5999 98 17.5999C98.1 22.3999 98 27.2999 98.6 32.0999C98.9 32.8999 100.2 33.2999 100.3 32.2999Z" fill="white"/>
<path d="M118.4 24.3002C120.7 23.7002 126.5 21.6002 126.6 18.5002C126.6 15.7002 121.7 13.5002 119.5 14.7002C118 15.5002 117.5 17.1002 117.2 18.7002C116.7 21.1002 116 23.9002 116.2 26.3002C116.6 30.1002 121.5 33.2002 125.1 33.3002C126 33.3002 126.6 32.2002 126.1 31.5002C125.3 30.1002 124.2 29.4002 122.8 28.6002C122.1 28.2002 121.1 27.9002 120.6 27.4002C119.2 26.0002 119.6 24.4002 119.8 22.8002C119.9 21.8002 119.8 20.7002 120.1 19.8002C120.5 18.4002 122.3 16.0002 123.6 17.8002C125.4 20.3002 119.5 22.4002 118 22.8002C117.1 23.1002 117.4 24.6002 118.4 24.3002Z" fill="white"/>
</g>
<defs>
<clipPath id="clip0">
<rect width="126.6" height="35.5" fill="white"/>
</clipPath>
</defs>
</svg>
