<svg width="414" height="896" viewBox="0 0 414 896" fill="none" xmlns="http://www.w3.org/2000/svg">
<path d="M-2.30889 -471.556C-10.0497 -449.527 -18.3964 -428.06 -28.4313 -407.308C-32.7878 -398.149 -34.8066 -388.185 -36.8036 -378.455C-41.7302 -356.03 -48.5397 -334.584 -57.4923 -313.679C-64.7322 -297.062 -95.1496 -263.48 -90.8509 -245.95C-85.6017 -224.473 -45.3763 -219.489 -36.9439 -199.231C-30.1332 -182.778 -11.0071 -182.555 -8.48375 -164.799C-6.90953 -153.375 4.48029 -153.043 8.1117 -142.52C13.6569 -147.935 10.6962 -146.063 18.9211 -142.52C28.4013 -138.323 26.6917 -132.271 21.3168 -121.588C11.8455 -102.186 16.9022 -94.3221 4.35789 -77.2608C5.1559 -71.6661 7.26178 -41.9386 4.35788 -36.6275C-5.37218 -19.1694 28.7399 -15.8821 15.9587 -0.999422C5.88534 10.6898 -2.91218 25.1806 -14.3702 35.2444C-23.3855 52.0883 -33.9801 67.0408 -51.3523 84.1364C-56.6592 89.347 -66.1562 116.134 -71.2646 114.46C-77.8051 118.782 -94.8825 111.368 -101.461 106.627C-109.433 114.561 -113.618 126.603 -118.732 136.846C-120.076 139.517 -118.995 142.053 -116.744 143.801C-103.89 154.194 -98.2913 169.523 -90.8517 183.92C-76.7294 211.416 -58.8604 236.341 -42.3774 262.024C-27.4303 285.345 0.160736 387.677 12.2937 410.601C17.3111 420.366 19.4629 444.505 18.9211 445.621C3.44986 470.612 39.4874 566.983 45.7741 591.467C46.4005 594.177 48.2527 612.077 50.1253 632.124C39.6178 646.136 30.1272 661.006 22.8655 677.859C20.3292 683.937 16.0611 689.771 10.1496 692.036C-1.88995 696.535 -3.38867 705.62 -1.4686 718.047C1.44418 736.334 5.46113 754.539 15.4549 769.773C31.765 794.955 37.0321 823.347 40.242 852.64C41.4704 863.063 42.2658 873.424 43.9272 883.908C47.3561 908.465 58.1261 929.529 76.8021 943.365C96.4952 958.06 106.097 977.529 110.89 1001.56C120.606 1050.6 134.414 1098.08 160.046 1141.02C168.417 1154.83 171.98 1170.83 172.62 1187.6C172.725 1193.58 173.069 1199.35 173.39 1205.35C179.189 1211.41 180.937 1220.96 178.833 1229.48L323.936 1213.71C318.267 1168.34 328.377 1127.81 352.341 1091.62C369.393 1066.14 385.817 1040.33 404.081 1015.97C433.589 976.751 438.592 932.169 427.967 883.476C421.964 855.934 414.401 828.648 408.181 801.075C398.181 757.476 404.848 718.611 431.279 684.201C446.228 664.857 462.583 646.902 479.739 629.776C477.512 623.027 476.434 615.724 477.109 608.43C485.689 515.728 495.763 423.474 512.114 332.106C510.795 329.775 509.497 327.208 508.178 324.877C482.181 276.4 450.662 233.104 413.445 194.487C384.841 164.711 358.857 132.682 336.967 96.7027C334.869 93.3083 333.855 87.6832 329.416 88.2491C325 88.5798 324.694 94.2568 323.479 97.8992C317.776 114.495 314.411 131.897 314.294 149.758C314.45 181.243 302.205 204.543 280.61 224.619C251.607 251.277 223.426 278.528 194.812 305.718C176.966 278.174 161.456 256.204 161.459 249.053C161.465 239.52 195.392 195.203 217.333 176.13C235.939 159.923 246.168 139.436 246.204 112.984C246.34 102.039 247.363 90.9802 246.417 79.8824C243.685 47.7958 258.396 26.2732 280.726 10.1149C313.148 -13.2011 344.791 -37.5802 377.018 -61.162C394.409 -73.7262 406.628 -89.6418 408.2 -113.732C409.248 -129.793 414.149 -144.834 423.421 -157.351C426.433 -161.455 426.587 -165.485 424.814 -170.025C410.698 -209.437 405.503 -250.452 405.634 -292.146C405.638 -299.296 406.313 -306.59 406.749 -313.679C407.579 -327.387 406 -329.278 393.466 -331.284C375.975 -334.227 358.289 -337.436 340.776 -340.144C313.327 -344.491 294.738 -359.268 288.845 -390.37C282.519 -423.917 262.505 -444.616 233.479 -455.621C216.531 -462.062 202.379 -475.022 184.347 -479.233C168.242 -482.934 158.935 -486.631 153.44 -493.603C136.838 -499.042 121.731 -508.8 107.493 -520.818C93.1781 -513.064 12.7191 -477.541 -2.30889 -471.556Z" fill="#F0F4F3" fill-opacity="0.1"/>
<path d="M643.074 859.747C638.43 855.853 633.137 853.133 627.516 851.101C618.938 847.946 610.369 844.591 601.679 841.732C595.558 839.679 590.282 836.559 585.658 832.166C579.877 826.724 573.023 823.039 565.515 820.629C553.165 816.718 540.603 813.099 529.476 806.236C519.519 800.122 508.822 797.381 497.207 797.504C477.882 797.71 459.45 793.249 441.4 786.803C437.157 785.327 432.881 784.651 428.348 785.365C418.178 786.849 408.005 788.432 397.847 789.616C388.897 790.649 380.41 792.603 373.261 798.514C371.813 799.655 370.078 800.485 368.259 800.91C360.383 802.588 354.898 806.967 351.002 814.113C348.294 819.106 343.559 822.314 338.018 823.187C329.955 824.557 322.626 827.559 315.284 830.86C312.533 832.048 309.873 833.44 306.764 833.612C299.841 834.028 293.022 834.349 286.132 833.965C274.354 833.181 262.389 832.089 251.13 828.423C236.411 823.715 172.759 848.021 164.876 852.301C152.591 859.002 128.248 835.182 114.526 833.016C110.15 832.336 106.015 830.665 101.764 829.389C93.5573 826.95 85.6434 827.125 77.9444 831.813C68.7055 837.438 58.3745 840.417 47.7013 841.98C39.3426 843.237 30.9963 844.195 22.6334 845.553C19.3075 846.117 15.5107 845.961 13.5561 849.684C13.0196 850.562 12.0327 850.222 11.8616 849.514C11.2649 846.987 9.72102 848.025 8.30578 848.367C5.47528 849.051 2.91987 850.347 0.272775 851.44C-11.7391 856.35 -23.9302 860.753 -37.3066 859.903C-46.4906 859.326 -53.5367 862.739 -56.8244 872.112C-57.9632 875.468 -60.4721 878.067 -62.7811 880.675C-70.9729 890.046 -80.5977 897.757 -91.5516 903.712C-96.8745 906.596 -102.202 909.58 -106.866 913.492C-112.875 918.449 -119.442 922.383 -126.388 925.8C-127.512 926.355 -134.294 933.082 -136.034 934.011C-125.337 936.753 -118.017 938.855 -107.805 938.774C-102.502 938.792 -88.1027 936.682 -82.9441 937.795C-74.313 939.651 -66.484 936.67 -57.8091 935.025C-45.7084 932.82 -34.1633 934.395 -22.862 939.464C-15.7872 942.657 -8.39618 945.463 -0.880624 947.673C4.95279 949.414 10.6398 949.848 16.6334 947.693C24.5623 944.716 32.8334 943.154 41.1169 941.293C49.8041 939.348 57.6728 940.272 64.9693 945.376C66.0396 946.121 67.214 946.769 68.3883 947.418C77.1918 952.384 85.883 957.645 95.9047 959.759C106.917 962.113 117.469 965.95 127.8 970.277C130.261 971.279 132.613 972.477 135.299 972.888C144.746 974.377 154.076 976.262 163.386 978.646C178.833 982.684 193.399 988.687 207.728 995.582C209.493 996.455 210.597 996.4 211.765 994.747C213.787 991.827 216.579 989.64 219.272 987.449C251.837 962.165 288.225 943.744 325.637 927.166C356.32 913.615 388.703 904.938 420.366 894.329C440.053 887.732 460.713 884.278 480.83 879.4C501.047 874.526 521.474 871.863 542.214 871.314C546.722 871.199 551.223 871.284 555.731 871.169C560.643 870.971 565.576 870.273 570.48 870.274C585.792 870.303 601.112 870.132 616.479 871.264C630.946 872.36 645.276 874.35 659.574 877.139C663.246 877.891 666.926 878.442 670.499 879.19C666.85 875.437 663.072 872.379 658.662 870.096C653.174 867.268 647.91 863.849 643.074 859.747Z" fill="#91B7AC" stroke="#91B7AC" stroke-width="3" stroke-miterlimit="10"/>
<path d="M80.1613 865.532C80.6828 860.149 79.3388 861.195 75.7022 857.142C72.3448 853.601 58.6714 842.93 53.8878 842.433C45.9151 841.605 29.522 843.534 22.8331 845.561C20.2983 846.357 16.2962 843.891 15.761 847.172C15.6282 847.967 24.273 851.925 27.1349 855.346C30.5676 859.49 37.6438 857.779 42.7819 859.392C47.92 861.004 51.1104 871.043 56.1281 873.151C66.3674 877.275 56.05 882.356 63.9515 889.787C64.3347 890.203 79.8053 883.933 82.2936 881.833C92.9751 872.764 102.901 882.08 110.852 881.006C112.962 880.792 92.303 869.634 89.0004 867.196C85.1187 864.235 79.9546 868.126 80.1613 865.532Z" fill="#679289" stroke="#679289" stroke-width="3" stroke-miterlimit="10"/>
<path d="M333.678 909.282C332.371 909.429 333.71 891.469 332.323 891.111C308.628 885.634 289.754 894.366 268.158 884.07C256.869 878.702 237.33 867.09 226.032 861.921C214.931 856.861 222.705 845.471 210.1 845.353C203.597 845.286 186.459 848.284 186.968 843.201C175.993 847.254 167.686 852.117 164.78 852.197C137.817 853.191 129.803 831.443 118.723 835.592C122.82 850.372 161.379 881.382 175.504 895.674C196.319 903.036 229.508 928.32 240.853 937.193C262.478 954.096 255.552 920.483 276.224 938.647C299.737 924.201 300.257 938.334 325.641 927.067C334.814 923.041 344.175 919.322 353.619 916.007C347.223 913.342 340.519 910.865 333.678 909.282Z" fill="#679289" stroke="#679289" stroke-width="3" stroke-miterlimit="10"/>
<g clip-path="url(#clip0)">
<path d="M412.52 767.89C409.996 768.67 407.409 769.314 404.886 770.095C404.516 770.187 404.11 770.379 403.866 770.743C403.621 771.107 403.475 771.507 403.626 772.015C403.803 772.759 404.646 773.519 405.521 773.271C408.045 772.491 410.631 771.847 413.155 771.066C413.524 770.974 413.93 770.782 414.175 770.418C414.419 770.054 414.565 769.654 414.414 769.146C414.138 768.366 413.394 767.642 412.52 767.89Z" fill="white"/>
<path d="M393.962 768.722C390.559 768.843 387.192 768.863 383.789 768.983C382.987 769.031 382.139 769.515 382.144 770.423C382.087 771.196 382.722 772.22 383.56 772.072C386.963 771.952 390.33 771.931 393.734 771.811C394.535 771.763 395.383 771.279 395.378 770.371C395.498 769.735 394.863 768.71 393.962 768.722Z" fill="white"/>
<path d="M366.756 775.469C365.658 777.562 364.56 779.655 363.499 781.647C363.254 782.011 363.108 782.411 363.259 782.919C363.348 783.292 363.535 783.7 363.894 783.944C364.514 784.396 365.648 784.356 366.038 783.592C367.136 781.499 368.234 779.406 369.296 777.414C369.54 777.05 369.686 776.65 369.535 776.141C369.446 775.769 369.259 775.361 368.9 775.117C368.281 774.665 367.183 774.605 366.756 775.469Z" fill="white"/>
<path d="M357.255 806.79C357.713 809.222 358.073 811.619 358.531 814.052C358.671 814.896 359.551 815.556 360.425 815.308C361.263 815.16 361.887 814.368 361.684 813.387C361.226 810.955 360.867 808.558 360.409 806.126C360.268 805.281 359.389 804.621 358.515 804.869C357.739 805.153 357.115 805.946 357.255 806.79Z" fill="white"/>
<path d="M355.191 833.681C354.983 833.946 354.775 834.21 354.468 834.438C354.296 834.602 354.639 834.274 354.468 834.438C354.431 834.538 354.332 834.502 354.296 834.602C354.124 834.766 354.088 834.866 353.916 835.03C353.401 835.522 352.886 836.014 352.272 836.47C351.965 836.698 351.658 836.926 351.387 837.054C351.252 837.119 351.08 837.283 350.945 837.347C351.215 837.219 350.809 837.411 350.773 837.511C350.195 837.867 349.483 838.287 348.842 838.507C348.067 838.791 347.666 839.891 348.078 840.608C348.452 841.424 349.342 841.748 350.154 841.364C353.094 840.055 355.759 837.966 357.804 835.426C358.355 834.834 358.126 833.617 357.47 833.265C356.617 832.841 355.779 832.989 355.191 833.681Z" fill="white"/>
<path d="M335.853 844.653C334.833 845.301 333.886 845.749 332.741 846.126C332.876 846.062 333.012 845.998 333.111 846.034C332.606 846.19 332.101 846.346 331.633 846.402C331.263 846.494 330.857 846.686 330.613 847.05C330.368 847.414 330.223 847.814 330.373 848.322C330.462 848.694 330.649 849.102 331.008 849.347C331.368 849.591 331.763 849.735 332.268 849.579C333.98 849.182 335.666 848.55 337.227 847.646C337.362 847.582 337.534 847.418 337.706 847.254C337.878 847.09 337.95 846.89 338.023 846.69C338.169 846.289 338.117 845.817 338.028 845.445C337.841 845.037 337.518 844.693 337.086 844.649C336.691 844.505 336.259 844.461 335.853 844.653Z" fill="white"/>
<path d="M312.872 854.864C311.061 855.224 309.115 855.648 307.304 856.009C306.466 856.157 305.806 857.049 306.045 857.929C306.186 858.773 306.966 859.397 307.939 859.185C309.75 858.825 311.697 858.401 313.508 858.041C314.345 857.893 315.006 857 314.767 856.12C314.59 855.376 313.809 854.752 312.872 854.864Z" fill="white"/>
<path d="M290.397 860.615C287.644 860.179 284.735 860.479 282.039 861.424C281.67 861.516 281.389 861.98 281.243 862.38C281.097 862.78 281.149 863.252 281.238 863.624C281.425 864.032 281.748 864.376 282.18 864.42C282.575 864.564 282.945 864.472 283.413 864.416C283.044 864.508 283.549 864.352 283.549 864.352C283.684 864.288 283.819 864.224 284.053 864.196C284.324 864.068 284.657 864.076 285.026 863.984C285.63 863.864 286.234 863.744 286.801 863.724C286.936 863.66 287.035 863.696 287.269 863.668C286.837 863.624 287.368 863.704 287.504 863.64C287.837 863.648 288.17 863.656 288.404 863.628C289.07 863.644 289.601 863.724 290.23 863.84C291.094 863.928 291.916 863.208 291.875 862.399C291.906 861.391 291.261 860.703 290.397 860.615Z" fill="white"/>
<path d="M270.107 866.822C268.192 866.238 265.923 866.318 264.154 867.486C263.748 867.678 263.54 867.942 263.358 868.442C263.212 868.843 263.264 869.315 263.353 869.687C263.54 870.095 263.863 870.439 264.295 870.483C264.69 870.627 265.122 870.671 265.528 870.479C265.934 870.287 266.376 869.995 266.746 869.903C266.61 869.967 266.475 870.031 266.376 869.995C266.881 869.839 267.349 869.783 267.818 869.727C267.682 869.791 267.584 869.755 267.349 869.783C267.818 869.727 268.349 869.807 268.879 869.886C268.78 869.85 268.583 869.778 268.447 869.843C268.645 869.915 268.744 869.951 268.942 870.023C269.337 870.167 269.806 870.111 270.175 870.018C270.581 869.826 270.925 869.498 270.971 869.062C271.237 868.026 270.898 867.11 270.107 866.822Z" fill="white"/>
<path d="M253.605 871.236C252.731 871.484 251.956 871.768 251.081 872.016C250.847 872.044 250.712 872.108 250.54 872.272C250.405 872.336 250.233 872.5 250.061 872.664C249.89 872.828 249.817 873.028 249.843 873.264C249.77 873.464 249.796 873.7 249.822 873.936C249.91 874.309 250.098 874.717 250.457 874.961C250.556 874.997 250.754 875.069 250.816 875.205C251.113 875.313 251.347 875.285 251.68 875.293C252.554 875.045 253.33 874.76 254.204 874.512C254.438 874.484 254.573 874.42 254.745 874.256C254.88 874.192 255.052 874.028 255.224 873.864C255.395 873.7 255.468 873.5 255.442 873.264C255.515 873.064 255.489 872.828 255.463 872.592C255.375 872.22 255.187 871.812 254.828 871.568C254.729 871.532 254.531 871.46 254.469 871.324C254.074 871.18 253.839 871.208 253.605 871.236Z" fill="white"/>
<path d="M236.183 889.249C231.125 888.993 226.155 889.109 221.039 889.625C220.238 889.674 219.639 890.702 219.78 891.546C219.884 892.49 220.738 892.914 221.674 892.802C226.42 892.378 231.192 892.19 236.017 892.473C237.916 892.485 238.28 889.333 236.183 889.249Z" fill="#EE2E30"/>
<path d="M226.088 885.913C226.166 888.774 226.343 891.67 226.421 894.531C226.473 895.003 226.463 895.339 226.785 895.683C227.009 895.991 227.467 896.271 227.899 896.315C228.664 896.367 229.684 895.719 229.544 894.875C229.465 892.014 229.288 889.117 229.21 886.257C229.158 885.785 229.168 885.449 228.846 885.104C228.622 884.796 228.164 884.516 227.732 884.472C226.967 884.42 226.082 885.005 226.088 885.913Z" fill="#EE2E30"/>
</g>
<defs>
<clipPath id="clip0">
<rect width="297" height="165" fill="white" transform="translate(475.659 670.454) rotate(110.008)"/>
</clipPath>
</defs>
</svg>
