<svg width="158" height="110" viewBox="0 0 158 110" fill="none" xmlns="http://www.w3.org/2000/svg">
<path d="M5.09195 94.9988C6.60123 95.2557 8.13776 95.3129 9.66195 95.1688C11.432 95.1688 13.212 95.1688 14.972 95.0088C15.0595 95.0088 15.1434 94.9741 15.2053 94.9122C15.2672 94.8503 15.302 94.7663 15.302 94.6788C15.302 94.5913 15.2672 94.5074 15.2053 94.4455C15.1434 94.3836 15.0595 94.3488 14.972 94.3488C13.212 94.2788 11.432 94.3488 9.66195 94.4388C8.12838 94.3538 6.59043 94.4817 5.09195 94.8188C5.06808 94.8188 5.04519 94.8283 5.02831 94.8452C5.01143 94.8621 5.00195 94.885 5.00195 94.9088C5.00195 94.9327 5.01143 94.9556 5.02831 94.9725C5.04519 94.9893 5.06808 94.9988 5.09195 94.9988V94.9988Z" fill="white"/>
<path d="M14.8423 94.9985C15.6361 93.9966 16.4876 93.0417 17.3923 92.1385C18.3023 91.2385 19.3423 90.4885 20.2623 89.5985C20.3215 89.5358 20.3563 89.4539 20.3603 89.3676C20.3642 89.2814 20.337 89.1967 20.2837 89.1288C20.2304 89.0609 20.1545 89.0145 20.0698 88.9979C19.9851 88.9813 19.8972 88.9958 19.8223 89.0385C17.622 90.4844 15.7955 92.4308 14.4923 94.7185C14.3623 94.9385 14.6823 95.1985 14.8423 94.9985Z" fill="white"/>
<path d="M18.1522 89.3093C22.2522 89.3793 26.4422 89.6693 30.5422 89.3993C30.6112 89.3866 30.6735 89.3501 30.7183 89.2962C30.7631 89.2423 30.7877 89.1744 30.7877 89.1043C30.7877 89.0342 30.7631 88.9663 30.7183 88.9124C30.6735 88.8585 30.6112 88.822 30.5422 88.8093C26.4422 88.5393 22.2522 88.8093 18.1522 88.8993C18.1056 88.9097 18.0639 88.9356 18.034 88.9729C18.0041 89.0102 17.9878 89.0565 17.9878 89.1043C17.9878 89.1521 18.0041 89.1984 18.034 89.2357C18.0639 89.273 18.1056 89.2989 18.1522 89.3093V89.3093Z" fill="white"/>
<path d="M30.1924 89.9292C30.8082 91.2652 31.6242 92.4994 32.6124 93.5892C33.4739 94.6745 34.5763 95.5442 35.8324 96.1292C35.9013 96.1434 35.973 96.1357 36.0374 96.1074C36.1018 96.0791 36.1559 96.0314 36.1921 95.9711C36.2283 95.9107 36.2449 95.8406 36.2396 95.7704C36.2343 95.7002 36.2073 95.6335 36.1624 95.5792C35.2424 94.6592 34.0424 94.0292 33.1624 93.0792C32.1775 92.0656 31.3363 90.9216 30.6624 89.6792C30.5024 89.3992 30.1024 89.6792 30.2324 89.9292H30.1924Z" fill="white"/>
<path d="M36.5823 94.6493C47.0423 95.3993 57.7023 94.9093 68.1923 94.9293C78.6823 94.9493 89.2723 94.9293 99.8123 94.6793C99.8516 94.6699 99.8865 94.6475 99.9116 94.6157C99.9366 94.584 99.9502 94.5447 99.9502 94.5043C99.9502 94.4639 99.9366 94.4247 99.9116 94.3929C99.8865 94.3612 99.8516 94.3388 99.8123 94.3293C89.2723 94.1093 78.7323 94.0593 68.1923 94.0793C57.6523 94.0993 47.0423 93.6093 36.5823 94.3593C36.5503 94.3678 36.522 94.3866 36.5018 94.4128C36.4816 94.4391 36.4707 94.4712 36.4707 94.5043C36.4707 94.5374 36.4816 94.5696 36.5018 94.5958C36.522 94.622 36.5503 94.6408 36.5823 94.6493Z" fill="white"/>
<path d="M100.482 93.9094C101.972 92.6894 103.332 91.2594 104.712 89.9094C106.039 88.7433 107.269 87.4725 108.392 86.1094C108.602 85.8094 108.172 85.3794 107.882 85.5994C106.514 86.7206 105.243 87.9549 104.082 89.2894C102.742 90.6694 101.322 92.0294 100.082 93.5194C100.031 93.5698 100.001 93.6387 100 93.7109C99.9991 93.7831 100.027 93.8527 100.077 93.9044C100.128 93.9561 100.197 93.9857 100.269 93.9867C100.341 93.9876 100.411 93.9598 100.462 93.9094H100.482Z" fill="white"/>
<path d="M107.762 86.7392C112.512 86.9892 117.292 87.3792 122.052 87.5692C122.122 87.5679 122.189 87.5414 122.241 87.4946C122.293 87.4479 122.326 87.3839 122.335 87.3146C122.343 87.2452 122.326 87.1751 122.287 87.1172C122.248 87.0592 122.189 87.0173 122.122 86.9992C117.38 86.1947 112.558 85.973 107.762 86.3392C107.709 86.3392 107.658 86.3602 107.621 86.3977C107.583 86.4353 107.562 86.4861 107.562 86.5392C107.562 86.5922 107.583 86.6431 107.621 86.6806C107.658 86.7181 107.709 86.7392 107.762 86.7392V86.7392Z" fill="white"/>
<path d="M117.522 86.9992C120.302 89.9992 123.192 92.7692 126.102 95.5792C126.132 95.6048 126.171 95.6183 126.211 95.6172C126.25 95.616 126.288 95.6002 126.316 95.5729C126.345 95.5455 126.362 95.5085 126.365 95.4691C126.368 95.4296 126.357 95.3905 126.332 95.3592C123.512 92.4492 120.702 89.5492 117.752 86.7792C117.722 86.7536 117.684 86.7401 117.644 86.7413C117.604 86.7425 117.567 86.7582 117.538 86.7856C117.51 86.8129 117.492 86.8499 117.489 86.8894C117.486 86.9288 117.498 86.968 117.522 86.9992V86.9992Z" fill="white"/>
<path d="M124.952 94.6789C132.222 94.7489 139.612 95.2089 146.872 94.7689C146.941 94.7689 147.007 94.7415 147.056 94.6928C147.105 94.644 147.132 94.5779 147.132 94.5089C147.132 94.44 147.105 94.3738 147.056 94.3251C147.007 94.2763 146.941 94.2489 146.872 94.2489C139.612 93.7989 132.222 94.2489 124.952 94.3289C124.913 94.3384 124.878 94.3608 124.853 94.3925C124.828 94.4243 124.814 94.4635 124.814 94.5039C124.814 94.5443 124.828 94.5836 124.853 94.6153C124.878 94.6471 124.913 94.6695 124.952 94.6789V94.6789Z" fill="white"/>
<path d="M8.9519 94.8087C-2.4481 95.3387 1.0719 76.3187 1.1319 69.3987C1.2019 60.8387 1.1319 52.2187 0.551903 43.6687C0.551903 43.3487 0.041903 43.3487 0.051903 43.6687C0.421903 56.4987 0.551903 69.2287 0.231903 82.0587C0.101903 87.6287 1.5019 96.3087 9.0419 95.1387C9.2219 95.1387 9.1819 94.7987 8.9919 94.8087H8.9519Z" fill="white"/>
<path d="M0.662052 43.6587C0.603985 41.4076 0.894074 39.1611 1.52205 36.9987C2.60205 33.6987 4.95205 32.4487 8.14205 31.8287C12.6121 30.9387 16.8521 31.2587 21.3321 31.1987C21.4086 31.2019 21.4836 31.1766 21.5426 31.1278C21.6016 31.0789 21.6405 31.01 21.6517 30.9342C21.6629 30.8584 21.6456 30.7812 21.6032 30.7174C21.5608 30.6535 21.4963 30.6077 21.4221 30.5887C16.5421 29.4487 8.99205 29.6587 4.42205 31.8487C0.282052 33.8487 -0.317948 39.6487 0.122052 43.6587C0.134797 43.7276 0.171282 43.7899 0.22517 43.8347C0.279059 43.8796 0.346949 43.9041 0.417052 43.9041C0.487155 43.9041 0.555044 43.8796 0.608933 43.8347C0.662822 43.7899 0.699306 43.7276 0.712052 43.6587H0.662052Z" fill="white"/>
<path d="M143.333 97.3692L142.673 95.1592C142.673 95.1592 142.623 95.1592 142.673 95.1592L143.343 97.3692H143.333Z" fill="white"/>
<path d="M14.3323 30.699C23.4723 31.699 32.9423 31.089 42.1223 31.089H70.9523C89.7923 31.089 108.672 31.419 127.512 30.969C127.597 30.969 127.679 30.9353 127.739 30.8753C127.799 30.8153 127.832 30.7339 127.832 30.649C127.832 30.5642 127.799 30.4828 127.739 30.4227C127.679 30.3627 127.597 30.329 127.512 30.329C108.672 29.869 89.7923 30.199 70.9523 30.199H43.1123C33.6123 30.199 23.7923 29.599 14.3323 30.599C14.2623 30.599 14.2623 30.709 14.3323 30.719V30.699Z" fill="white"/>
<path d="M127.122 30.3591C129.428 30.7416 131.575 31.7836 133.302 33.3591C133.512 33.5391 133.812 33.2591 133.612 33.0491C131.864 31.3527 129.58 30.3169 127.152 30.1191C127.022 30.1191 126.982 30.3291 127.152 30.3491L127.122 30.3591Z" fill="white"/>
<path d="M125.482 30.4792C131.062 32.0992 133.432 37.4192 136.072 42.0792C137.272 44.1892 138.622 46.2492 139.682 48.4392C141.072 51.2992 141.192 54.0992 141.742 57.1692C142.552 61.6292 145.452 65.3492 146.742 69.7092C148.473 75.4645 149.586 81.388 150.062 87.3792C150.062 87.7492 150.642 87.8692 150.732 87.4692C151.982 81.8892 149.672 75.4692 148.212 70.1492C147.482 67.5301 146.514 64.9829 145.322 62.5392C143.582 58.8292 143.602 55.2092 142.652 51.3392C141.372 46.0692 137.382 40.5192 134.322 36.1092C132.132 32.9492 129.592 30.2992 125.612 29.9092C125.282 29.9092 125.232 30.3892 125.532 30.4792H125.482Z" fill="white"/>
<path d="M145.722 95.1094C146.872 93.8494 148.482 93.4094 149.522 91.9494C149.972 91.2676 150.309 90.5181 150.522 89.7294C150.672 89.2294 151.232 85.8594 151.612 85.7894C151.694 85.7643 151.766 85.7142 151.818 85.646C151.87 85.5779 151.899 85.4951 151.902 85.4094V85.3294C151.901 85.243 151.878 85.1582 151.835 85.0836C151.791 85.0091 151.729 84.9473 151.654 84.9047C151.578 84.862 151.493 84.84 151.407 84.8408C151.321 84.8417 151.236 84.8653 151.162 84.9094C149.782 85.6294 149.852 88.9894 149.332 90.2994C148.807 91.5842 147.913 92.6841 146.762 93.4594C146.162 93.7703 145.66 94.241 145.312 94.8194C145.192 95.0494 145.492 95.3194 145.682 95.1094H145.722Z" fill="white"/>
<path d="M148.892 89.1286C149.892 89.4386 150.772 89.3786 151.122 90.5986C151.432 91.5165 151.49 92.5005 151.292 93.4486C150.572 95.6886 146.402 94.1586 144.762 94.1386C144.635 94.1208 144.507 94.1501 144.4 94.2209C144.294 94.2917 144.218 94.3991 144.186 94.5227C144.154 94.6462 144.168 94.7773 144.226 94.8909C144.285 95.0045 144.383 95.0927 144.502 95.1386C146.13 95.8111 147.912 96.0221 149.652 95.7486C150.198 95.7644 150.736 95.6129 151.193 95.3144C151.651 95.0159 152.006 94.5847 152.212 94.0786C152.533 92.856 152.438 91.5613 151.942 90.3986C151.382 88.9786 150.262 89.1486 148.942 88.8886C148.907 88.8829 148.872 88.8902 148.842 88.9093C148.813 88.9283 148.792 88.9577 148.783 88.9916C148.774 89.0255 148.778 89.0614 148.795 89.0923C148.811 89.1233 148.839 89.1469 148.872 89.1586L148.892 89.1286Z" fill="white"/>
<path d="M19.2219 107.689C16.9119 107.059 15.4319 102.979 15.3719 100.939C15.2619 97.089 17.4319 93.279 21.2619 92.269C24.0398 91.646 26.934 91.7807 29.6419 92.659C33.8719 94.079 34.5119 100.209 32.7919 103.779C31.1819 107.109 26.8919 107.779 23.4419 107.459C20.7219 107.209 16.9419 106.379 16.1919 103.379C15.7019 101.379 16.1319 95.969 17.5419 94.379C17.9919 93.859 17.4019 92.919 16.7619 93.379C14.9519 94.599 14.8319 97.999 14.5819 99.939C14.2819 102.329 14.1719 105.029 16.1219 106.769C19.3019 109.619 25.5819 109.659 29.3519 108.389C31.0901 107.89 32.673 106.958 33.9519 105.679C35.4519 103.899 34.9019 101.619 34.7719 99.479C34.4819 94.709 33.7719 92.479 28.7719 91.329C25.4219 90.549 20.9819 90.439 18.0519 92.559C15.1219 94.679 13.6019 99.799 14.8119 103.339C15.3819 104.999 17.1119 108.049 19.1619 107.989C19.2017 107.989 19.2399 107.973 19.268 107.945C19.2961 107.917 19.3119 107.879 19.3119 107.839C19.3119 107.799 19.2961 107.761 19.268 107.733C19.2399 107.705 19.2017 107.689 19.1619 107.689H19.2219Z" fill="white"/>
<path d="M22.9522 100.409C22.4622 99.1594 24.5922 98.2894 25.4922 98.3494C26.3922 98.4094 28.1622 99.6894 26.7022 100.479C25.9325 100.814 25.071 100.874 24.2622 100.649C23.8878 100.549 23.5637 100.314 23.3522 99.9894C23.0022 99.3194 23.4922 98.9894 23.9822 98.6594C24.0365 98.6218 24.0804 98.5711 24.1097 98.5119C24.139 98.4527 24.1527 98.3871 24.1497 98.3211C24.1468 98.2552 24.1271 98.1911 24.0925 98.1348C24.058 98.0785 24.0097 98.0319 23.9522 97.9994C23.6287 97.9397 23.2945 98.003 23.0151 98.1769C22.7358 98.3508 22.5315 98.6227 22.4422 98.9394C22.3127 99.2946 22.292 99.6803 22.3828 100.047C22.4737 100.414 22.6719 100.746 22.9522 100.999C24.0822 102.079 26.8422 101.999 27.8322 100.739C28.8222 99.4794 26.9622 97.7994 25.6822 97.7394C24.4022 97.6794 22.1122 98.8994 22.8822 100.519C22.8822 100.589 23.0322 100.519 23.0022 100.519L22.9522 100.409Z" fill="white"/>
<path d="M106.952 105.809C104.642 105.179 103.162 101.109 103.102 99.0586C102.992 95.2186 105.162 91.4086 108.992 90.3886C111.77 89.7639 114.666 89.9021 117.372 90.7886C121.602 92.1986 122.242 98.3286 120.522 101.899C118.912 105.229 114.622 105.899 111.172 105.589C108.452 105.339 104.672 104.499 103.922 101.509C103.432 99.5086 103.862 94.0886 105.272 92.4486C105.722 91.9386 105.132 90.9886 104.492 91.4486C102.702 92.7386 102.572 96.1286 102.312 98.0786C102.012 100.459 101.902 103.159 103.852 104.899C107.042 107.749 113.312 107.789 117.082 106.519C118.826 106.025 120.416 105.096 121.702 103.819C123.202 102.029 122.652 99.7586 122.522 97.6086C122.232 92.8486 121.522 90.6086 116.522 89.4686C113.172 88.6886 108.732 88.5686 105.802 90.6986C102.872 92.8286 101.362 97.9386 102.562 101.469C103.132 103.129 104.862 106.189 106.912 106.119C106.952 106.119 106.99 106.103 107.018 106.075C107.046 106.047 107.062 106.008 107.062 105.969C107.062 105.929 107.046 105.891 107.018 105.863C106.99 105.834 106.952 105.819 106.912 105.819L106.952 105.809Z" fill="white"/>
<path d="M110.732 98.5393C110.242 97.2893 112.372 96.4093 113.272 96.4793C114.172 96.5493 115.942 97.8192 114.482 98.5992C113.712 98.934 112.851 98.9941 112.042 98.7692C111.668 98.6751 111.345 98.4383 111.142 98.1093C110.782 97.4393 111.272 97.1092 111.762 96.7792C111.825 96.7395 111.874 96.6827 111.906 96.6157C111.937 96.5487 111.949 96.4741 111.939 96.4007C111.93 96.3273 111.9 96.2581 111.853 96.2012C111.805 96.1443 111.743 96.102 111.672 96.0793C111.349 96.0196 111.014 96.0828 110.735 96.2567C110.456 96.4306 110.252 96.7026 110.162 97.0192C110.032 97.3767 110.011 97.7651 110.104 98.1342C110.197 98.5032 110.398 98.836 110.682 99.0892C111.812 100.179 114.582 100.089 115.562 98.8293C116.542 97.5693 114.702 95.8893 113.412 95.8293C112.122 95.7693 109.852 96.9993 110.622 98.6193C110.622 98.6793 110.762 98.6193 110.732 98.6193V98.5393Z" fill="white"/>
<path d="M7.75229 58.1195C14.5723 58.3995 21.4123 58.3095 28.2323 58.5395C35.0523 58.7695 41.9323 59.7295 48.7023 59.5395C49.4723 59.5395 49.7023 58.2595 48.8923 58.1195C42.4723 57.1195 35.7023 57.3195 29.2123 57.2295C22.0723 57.1195 14.8723 57.0195 7.75229 57.5595C7.68336 57.5722 7.62106 57.6087 7.57622 57.6626C7.53139 57.7165 7.50684 57.7844 7.50684 57.8545C7.50684 57.9246 7.53139 57.9925 7.57622 58.0463C7.62106 58.1002 7.68336 58.1367 7.75229 58.1495V58.1195Z" fill="white"/>
<path d="M48.5921 58.7387C49.2821 53.8687 48.9321 48.7387 48.7621 43.8487C48.7506 43.7922 48.72 43.7414 48.6753 43.7049C48.6307 43.6684 48.5748 43.6484 48.5171 43.6484C48.4595 43.6484 48.4036 43.6684 48.3589 43.7049C48.3143 43.7414 48.2836 43.7922 48.2721 43.8487C48.1021 48.7387 47.7521 53.8487 48.4421 58.7387C48.4421 58.8087 48.5821 58.8087 48.5921 58.7387Z" fill="white"/>
<path d="M8.05227 57.7595C8.75227 52.4395 8.45227 46.7595 8.18227 41.4495C8.18227 41.3805 8.15488 41.3144 8.10612 41.2656C8.05736 41.2168 7.99123 41.1895 7.92227 41.1895C7.85332 41.1895 7.78719 41.2168 7.73843 41.2656C7.68967 41.3144 7.66227 41.3805 7.66227 41.4495C7.22542 46.8793 7.26892 52.3372 7.79227 57.7595C7.79227 57.7939 7.80597 57.827 7.83035 57.8514C7.85473 57.8758 7.8878 57.8895 7.92227 57.8895C7.95675 57.8895 7.98982 57.8758 8.0142 57.8514C8.03858 57.827 8.05227 57.7939 8.05227 57.7595V57.7595Z" fill="white"/>
<path d="M6.72199 43.5089C20.722 44.2689 34.882 44.2489 48.862 43.7589C48.976 43.7589 49.0854 43.7136 49.166 43.633C49.2467 43.5523 49.292 43.443 49.292 43.3289C49.292 43.2149 49.2467 43.1055 49.166 43.0249C49.0854 42.9442 48.976 42.8989 48.862 42.8989C34.862 42.4189 20.692 42.3989 6.72199 43.1489C6.67425 43.1489 6.62847 43.1679 6.59471 43.2016C6.56096 43.2354 6.54199 43.2812 6.54199 43.3289C6.54199 43.3766 6.56096 43.4224 6.59471 43.4562C6.62847 43.4899 6.67425 43.5089 6.72199 43.5089V43.5089Z" fill="white"/>
<path d="M54.8822 58.1195C61.7022 58.3995 68.5422 58.3095 75.3622 58.5395C82.1822 58.7695 89.0622 59.7295 95.8322 59.5395C96.6022 59.5395 96.8322 58.2595 96.0222 58.1195C89.6122 57.1195 82.8322 57.3195 76.3422 57.2295C69.2022 57.1195 62.0022 57.0195 54.8822 57.5595C54.8132 57.5722 54.7509 57.6087 54.7061 57.6626C54.6613 57.7165 54.6367 57.7844 54.6367 57.8545C54.6367 57.9246 54.6613 57.9925 54.7061 58.0463C54.7509 58.1002 54.8132 58.1367 54.8822 58.1495V58.1195Z" fill="white"/>
<path d="M95.722 58.7387C96.412 53.8687 96.062 48.7387 95.892 43.8487C95.8805 43.7922 95.8499 43.7414 95.8052 43.7049C95.7606 43.6684 95.7047 43.6484 95.647 43.6484C95.5893 43.6484 95.5334 43.6684 95.4888 43.7049C95.4441 43.7414 95.4135 43.7922 95.402 43.8487C95.232 48.7387 94.882 53.8487 95.572 58.7387C95.572 58.8087 95.712 58.8087 95.722 58.7387V58.7387Z" fill="white"/>
<path d="M55.1821 57.7595C55.8821 52.4395 55.5821 46.7595 55.3121 41.4495C55.3004 41.3905 55.2685 41.3374 55.222 41.2992C55.1755 41.2611 55.1172 41.2402 55.0571 41.2402C54.9969 41.2402 54.9387 41.2611 54.8922 41.2992C54.8457 41.3374 54.8138 41.3905 54.8021 41.4495C54.5321 46.7995 54.2321 52.4495 54.9221 57.7595C54.9221 57.794 54.9358 57.827 54.9602 57.8514C54.9845 57.8758 55.0176 57.8895 55.0521 57.8895C55.0866 57.8895 55.1196 57.8758 55.144 57.8514C55.1684 57.827 55.1821 57.794 55.1821 57.7595V57.7595Z" fill="white"/>
<path d="M53.8524 43.5089C67.8524 44.2689 82.0124 44.2489 95.9924 43.7589C96.1064 43.7589 96.2158 43.7136 96.2964 43.633C96.3771 43.5523 96.4224 43.443 96.4224 43.3289C96.4224 43.2149 96.3771 43.1055 96.2964 43.0249C96.2158 42.9442 96.1064 42.8989 95.9924 42.8989C81.9924 42.4189 67.8224 42.3989 53.8524 43.1489C53.8046 43.1489 53.7588 43.1679 53.7251 43.2016C53.6913 43.2354 53.6724 43.2812 53.6724 43.3289C53.6724 43.3766 53.6913 43.4224 53.7251 43.4562C53.7588 43.4899 53.8046 43.5089 53.8524 43.5089V43.5089Z" fill="white"/>
<path d="M104.772 58.2086C112.092 58.5186 119.382 58.8286 126.692 59.3586C127.932 59.4486 127.922 57.5186 126.692 57.4286C119.397 56.8954 112.076 56.8219 104.772 57.2086C104.639 57.2086 104.512 57.2613 104.418 57.3551C104.325 57.4488 104.272 57.576 104.272 57.7086C104.272 57.8412 104.325 57.9684 104.418 58.0622C104.512 58.1559 104.639 58.2086 104.772 58.2086Z" fill="white"/>
<path d="M103.822 44.6995C103.742 49.0395 103.592 53.3795 103.552 57.6995C103.552 57.84 103.608 57.9748 103.707 58.0742C103.807 58.1736 103.942 58.2295 104.082 58.2295C104.223 58.2295 104.358 58.1736 104.457 58.0742C104.556 57.9748 104.612 57.84 104.612 57.6995C104.612 53.3595 104.422 49.0195 104.342 44.6995C104.342 44.6305 104.315 44.5644 104.266 44.5156C104.217 44.4668 104.151 44.4395 104.082 44.4395C104.013 44.4395 103.947 44.4668 103.898 44.5156C103.85 44.5644 103.822 44.6305 103.822 44.6995V44.6995Z" fill="white"/>
<path d="M103.952 44.5388L103.382 44.3688C103.333 44.3518 103.282 44.3457 103.23 44.351C103.179 44.3564 103.129 44.373 103.085 44.3997C103.041 44.4264 103.004 44.4625 102.975 44.5055C102.946 44.5484 102.928 44.5972 102.92 44.6482C102.913 44.6993 102.917 44.7513 102.932 44.8007C102.947 44.8501 102.972 44.8955 103.007 44.9338C103.041 44.9721 103.084 45.0022 103.132 45.0221C103.179 45.042 103.231 45.0511 103.282 45.0488C109.682 45.3288 116.162 45.5388 122.572 45.3688C122.75 45.3688 122.92 45.2982 123.046 45.1726C123.172 45.0469 123.242 44.8765 123.242 44.6988C123.242 44.5211 123.172 44.3507 123.046 44.225C122.92 44.0994 122.75 44.0288 122.572 44.0288C116.162 43.8588 109.682 44.0288 103.282 44.3588C102.772 44.3588 102.892 45.1788 103.382 45.0388L103.952 44.8688C103.989 44.8597 104.022 44.8384 104.045 44.8085C104.068 44.7786 104.081 44.7418 104.081 44.7038C104.081 44.6658 104.068 44.629 104.045 44.5991C104.022 44.5692 103.989 44.5479 103.952 44.5388V44.5388Z" fill="white"/>
<path d="M122.952 44.9992C122.402 47.0592 123.372 49.2092 124.042 51.1592C125.042 54.0192 125.932 56.9292 127.042 59.7392C127.322 60.4292 128.432 60.1692 128.202 59.4192C127.352 56.6992 126.282 54.0392 125.302 51.3592C124.532 49.2592 124.072 46.9992 123.212 44.9692C123.201 44.9409 123.182 44.9166 123.157 44.8994C123.132 44.8822 123.103 44.873 123.072 44.873C123.042 44.873 123.012 44.8822 122.987 44.8994C122.962 44.9166 122.943 44.9409 122.932 44.9692L122.952 44.9992Z" fill="white"/>
<path d="M119.782 47.439C119.507 50.5141 119.417 53.603 119.512 56.689C119.512 56.8216 119.565 56.9488 119.659 57.0425C119.752 57.1363 119.88 57.189 120.012 57.189C120.145 57.189 120.272 57.1363 120.366 57.0425C120.46 56.9488 120.512 56.8216 120.512 56.689C120.607 53.603 120.517 50.5141 120.242 47.439C120.242 47.378 120.218 47.3195 120.175 47.2764C120.132 47.2332 120.073 47.209 120.012 47.209C119.951 47.209 119.893 47.2332 119.85 47.2764C119.806 47.3195 119.782 47.378 119.782 47.439V47.439Z" fill="white"/>
<path d="M73.622 45.5387C73.2088 48.8964 73.1451 52.2879 73.432 55.6587C73.432 55.7277 73.4594 55.7938 73.5082 55.8426C73.5569 55.8914 73.6231 55.9187 73.692 55.9187C73.761 55.9187 73.8271 55.8914 73.8759 55.8426C73.9246 55.7938 73.952 55.7277 73.952 55.6587C74.2389 52.2879 74.1752 48.8964 73.762 45.5387C73.762 45.5202 73.7546 45.5024 73.7415 45.4893C73.7284 45.4761 73.7106 45.4688 73.692 45.4688C73.6735 45.4688 73.6557 45.4761 73.6425 45.4893C73.6294 45.5024 73.622 45.5202 73.622 45.5387Z" fill="white"/>
<path d="M26.202 54.4992C26.932 51.3392 26.352 47.5792 26.282 44.3592C26.282 44.3061 26.2609 44.2553 26.2234 44.2178C26.1859 44.1803 26.135 44.1592 26.082 44.1592C26.0289 44.1592 25.9781 44.1803 25.9406 44.2178C25.9031 44.2553 25.882 44.3061 25.882 44.3592C25.802 47.5792 25.232 51.3592 25.962 54.4992C25.962 54.531 25.9746 54.5615 25.9971 54.584C26.0196 54.6065 26.0502 54.6192 26.082 54.6192C26.1138 54.6192 26.1443 54.6065 26.1668 54.584C26.1893 54.5615 26.202 54.531 26.202 54.4992Z" fill="white"/>
<path d="M31.6924 45.5586V46.4086H31.7724V45.5586H31.6924Z" fill="white"/>
<path d="M130.142 31.409C129.866 31.3097 129.569 31.2889 129.282 31.3491C129.21 31.3708 129.147 31.4151 129.102 31.4755C129.057 31.5358 129.033 31.6089 129.033 31.684C129.033 31.7592 129.057 31.8323 129.102 31.8926C129.147 31.953 129.21 31.9973 129.282 32.0191C129.569 32.0792 129.866 32.0584 130.142 31.959C130.2 31.9397 130.25 31.9028 130.285 31.8535C130.321 31.8041 130.34 31.7449 130.34 31.684C130.34 31.6232 130.321 31.564 130.285 31.5146C130.25 31.4653 130.2 31.4284 130.142 31.409V31.409Z" fill="white"/>
<path d="M150.612 69.5488C150.762 69.2184 150.965 68.9145 151.212 68.6488L150.562 68.3888C150.442 69.2988 150.412 70.2188 150.352 71.1388C150.352 71.7188 150.442 73.9588 149.892 74.2888C149.838 74.321 149.791 74.365 149.757 74.4175C149.722 74.47 149.699 74.5297 149.69 74.5921C149.682 74.6546 149.687 74.7181 149.707 74.7782C149.726 74.8382 149.758 74.8931 149.802 74.9388L149.932 75.0888C150.023 75.1772 150.141 75.2338 150.267 75.25C150.393 75.2662 150.521 75.2412 150.632 75.1788C151.462 74.5988 151.332 73.6788 151.342 72.7488C151.342 71.2988 151.412 69.8288 151.342 68.3888C151.342 68.288 151.302 68.1914 151.231 68.1201C151.159 68.0488 151.063 68.0088 150.962 68.0088C150.861 68.0088 150.764 68.0488 150.693 68.1201C150.622 68.1914 150.582 68.288 150.582 68.3888C150.62 68.7558 150.583 69.1268 150.472 69.4788C150.468 69.4986 150.472 69.5189 150.481 69.5366C150.491 69.5543 150.506 69.5682 150.524 69.5763C150.543 69.5843 150.563 69.586 150.583 69.581C150.602 69.576 150.62 69.5647 150.632 69.5488H150.612Z" fill="#FFE500"/>
<path d="M146.852 75.0685C147.746 75.104 148.641 75.0436 149.522 74.8885C149.612 74.8676 149.69 74.8139 149.743 74.738C149.795 74.6621 149.817 74.5693 149.805 74.478C149.792 74.3866 149.746 74.3033 149.675 74.2442C149.604 74.1851 149.514 74.1546 149.422 74.1586C148.53 74.2214 147.646 74.3687 146.782 74.5985C146.522 74.6485 146.582 75.0785 146.852 75.0685V75.0685Z" fill="white"/>
<path d="M148.272 71.8591C148.158 71.5793 148.126 71.2731 148.179 70.9758C148.232 70.6785 148.369 70.4023 148.572 70.1791C148.983 69.8351 149.507 69.6568 150.042 69.6791C150.532 69.6191 150.422 68.9291 150.042 68.7991C149.628 68.7038 149.195 68.7426 148.805 68.9098C148.415 69.0769 148.088 69.3639 147.872 69.7291C147.669 70.0761 147.568 70.4738 147.582 70.8757C147.597 71.2777 147.725 71.6673 147.952 71.9991C148.062 72.1591 148.362 71.9991 148.282 71.8591H148.272Z" fill="#FFE500"/>
<path d="M151.752 74.5288C151.812 75.2388 152.462 75.5288 153.042 75.7888C154.08 76.3643 155.168 76.8462 156.292 77.2288C156.404 77.2653 156.525 77.2588 156.632 77.2105C156.739 77.1622 156.824 77.0757 156.87 76.9679C156.916 76.8601 156.921 76.7388 156.882 76.6279C156.844 76.5171 156.765 76.4246 156.662 76.3688C155.909 75.9854 155.122 75.6708 154.312 75.4288C153.517 75.2412 152.775 74.8753 152.142 74.3588C152.109 74.327 152.068 74.3058 152.023 74.2976C151.978 74.2895 151.932 74.2949 151.89 74.3131C151.848 74.3313 151.813 74.3616 151.788 74.4C151.764 74.4383 151.751 74.4832 151.752 74.5288V74.5288Z" fill="#FFE500"/>
<path d="M153.772 68.2693C153.652 67.5093 154.942 67.2693 155.452 67.1593L157.452 66.5793C158.072 66.4093 157.762 65.4093 157.202 65.6493C156.174 65.999 155.172 66.42 154.202 66.9093C153.662 67.2293 153.202 67.7193 153.392 68.3793C153.413 68.4269 153.451 68.4655 153.498 68.4881C153.545 68.5106 153.598 68.5158 153.649 68.5026C153.699 68.4894 153.744 68.4586 153.773 68.4159C153.803 68.3732 153.817 68.3212 153.812 68.2693H153.772Z" fill="#FFE500"/>
<path d="M153.702 71.9988C154.592 71.9643 155.481 72.0621 156.342 72.2888C156.762 72.3788 157.082 71.7688 156.652 71.5488C155.724 71.1461 154.703 71.011 153.702 71.1588C153.172 71.2188 153.162 72.0388 153.702 71.9988V71.9988Z" fill="#FFE500"/>
<path d="M127.732 35.2092C129.642 35.2992 131.552 35.4192 133.462 35.6692C134.192 35.7592 134.232 34.5292 133.462 34.4892C131.553 34.3575 129.637 34.3809 127.732 34.5592C127.655 34.5726 127.586 34.6126 127.536 34.672C127.486 34.7315 127.459 34.8066 127.459 34.8842C127.459 34.9618 127.486 35.0369 127.536 35.0963C127.586 35.1558 127.655 35.1957 127.732 35.2092Z" fill="white"/>
<path d="M126.952 34.869C128.892 40.149 129.822 45.639 131.182 51.089C131.422 52.039 135.642 64.639 136.452 64.229C136.395 64.2628 136.349 64.3127 136.319 64.3725C136.29 64.4323 136.279 64.4994 136.288 64.5654C136.296 64.6314 136.324 64.6935 136.367 64.7439C136.411 64.7943 136.468 64.8309 136.532 64.849L136.952 64.999C137.037 65.0253 137.127 65.028 137.214 65.0069C137.3 64.9858 137.379 64.9416 137.442 64.879L137.742 64.519C137.816 64.4439 137.868 64.3509 137.895 64.2491C137.921 64.1473 137.92 64.0403 137.892 63.939C137.192 62.119 135.952 60.599 135.092 58.839C133.719 55.7518 132.667 52.5315 131.952 49.229C130.712 44.279 129.592 39.339 127.402 34.699C127.302 34.489 126.932 34.639 127.012 34.869H126.952Z" fill="white"/>
<path d="M135.122 64.0895C138.272 64.3995 141.572 64.3795 144.742 64.5095C145.302 64.5095 145.442 63.6095 144.872 63.5095C141.623 62.9125 138.295 62.8753 135.032 63.3995C134.622 63.4895 134.762 64.0495 135.122 64.0795V64.0895Z" fill="white"/>
<path d="M34.2023 106.249C38.8023 106.569 42.8223 107.539 46.5023 104.179C49.0823 101.839 51.3023 98.3792 49.9623 94.8292C49.9385 94.7417 49.8808 94.6672 49.802 94.6222C49.7233 94.5772 49.6298 94.5653 49.5423 94.5892C49.4548 94.6131 49.3803 94.6707 49.3353 94.7495C49.2903 94.8283 49.2785 94.9217 49.3023 95.0092C50.1823 98.8092 47.9423 102.179 44.9723 104.409C41.7723 106.809 37.9123 105.959 34.2023 105.849C33.9423 105.849 33.9423 106.229 34.2023 106.249V106.249Z" fill="white"/>
<path d="M122.952 104.069C126.032 104.439 130.452 104.369 132.952 102.249C133.9 101.374 134.643 100.299 135.127 99.103C135.611 97.9066 135.825 96.618 135.752 95.3294C135.752 94.8594 134.982 94.6994 134.892 95.2094C134.482 97.6994 134.062 100.329 131.782 101.839C129.242 103.519 125.842 103.419 122.912 103.569C122.846 103.569 122.782 103.596 122.735 103.643C122.688 103.69 122.662 103.753 122.662 103.819C122.662 103.886 122.688 103.949 122.735 103.996C122.782 104.043 122.846 104.069 122.912 104.069H122.952Z" fill="white"/>
<path d="M40.5223 106.089C38.1823 105.679 36.8023 103.439 34.8123 102.309C34.5623 102.169 34.3623 102.489 34.5223 102.689C35.1694 103.557 36.0661 104.206 37.0923 104.549C37.3723 104.659 37.6023 104.249 37.3823 104.049C36.133 102.915 34.7955 101.882 33.3823 100.959L33.0423 101.529C35.117 102.832 37.3021 103.949 39.5723 104.869C39.9823 105.039 40.1723 104.429 39.8523 104.209C38.0423 102.909 36.1823 101.699 34.2723 100.549C34.1821 100.496 34.0746 100.481 33.9733 100.507C33.872 100.534 33.7853 100.599 33.7323 100.689C33.6792 100.779 33.6642 100.887 33.6905 100.988C33.7167 101.09 33.7821 101.176 33.8723 101.229C35.7863 102.421 37.7927 103.458 39.8723 104.329C40.2623 104.499 40.7323 104.039 40.3623 103.699C38.6204 102.044 36.6707 100.622 34.5623 99.4693C34.4681 99.429 34.3625 99.4245 34.2653 99.4567C34.1681 99.4888 34.086 99.5554 34.0344 99.6438C33.9828 99.7323 33.9653 99.8365 33.9852 99.937C34.005 100.037 34.0609 100.127 34.1423 100.189C36.7723 101.739 39.4423 103.809 42.5423 104.189C42.9123 104.189 43.1123 103.679 42.8523 103.449C40.9201 101.728 38.8461 100.172 36.6523 98.7993C36.1723 98.4893 35.7323 99.2493 36.2123 99.5593C37.6023 100.449 41.1123 103.989 42.8323 102.739C42.8905 102.704 42.94 102.657 42.9771 102.6C43.0142 102.543 43.038 102.478 43.0467 102.411C43.0553 102.344 43.0486 102.275 43.0271 102.211C43.0056 102.147 42.9697 102.088 42.9223 102.039C41.0023 100.499 39.0423 99.0393 37.0123 97.6293L36.5623 98.4093C39.2766 100.073 42.1635 101.438 45.1723 102.479C45.2679 102.501 45.368 102.491 45.4578 102.452C45.5477 102.413 45.6226 102.346 45.6717 102.261C45.7209 102.176 45.7416 102.078 45.7309 101.98C45.7202 101.883 45.6786 101.791 45.6123 101.719C43.6098 99.9906 41.4543 98.4476 39.1723 97.1093C38.6523 96.8093 38.2523 97.5593 38.7123 97.8993C41.2594 99.8249 44.108 101.315 47.1423 102.309C47.6023 102.469 47.8823 101.859 47.5923 101.539C46.0884 99.8946 44.3124 98.5212 42.3423 97.4793C42.2358 97.4293 42.1145 97.421 42.0022 97.4561C41.89 97.4911 41.7949 97.567 41.7359 97.6688C41.6769 97.7705 41.6581 97.8907 41.6834 98.0056C41.7086 98.1204 41.776 98.2217 41.8723 98.2893C43.533 99.4469 45.3517 100.36 47.2723 100.999C47.8123 101.179 48.0423 100.429 47.6323 100.139C45.7308 98.7671 43.7544 97.5018 41.7123 96.3493C41.6054 96.3058 41.4864 96.3023 41.3771 96.3394C41.2678 96.3765 41.1755 96.4518 41.1172 96.5514C41.0589 96.651 41.0384 96.7683 41.0596 96.8818C41.0807 96.9953 41.142 97.0973 41.2323 97.1693C43.0456 98.4394 45.0465 99.4179 47.1623 100.069C47.6523 100.219 47.9223 99.6093 47.6323 99.2593C46.5646 98.0054 45.3258 96.908 43.9523 95.9993L43.4623 96.8393L45.4623 97.7793C45.5474 97.8244 45.6438 97.844 45.7398 97.8356C45.8358 97.8273 45.9274 97.7914 46.0034 97.7322C46.0795 97.673 46.1369 97.5931 46.1686 97.5021C46.2003 97.4111 46.2051 97.3129 46.1823 97.2193C46.1419 96.614 45.9822 96.0226 45.7123 95.4793L45.1123 96.0893C46.5821 96.4454 48.031 96.8827 49.4523 97.3993C49.9723 97.5793 50.2123 96.9093 49.9423 96.5693C49.3786 95.7794 48.5469 95.2214 47.6023 94.9993C47.479 94.9648 47.347 94.9807 47.2354 95.0435C47.1238 95.1064 47.0418 95.2109 47.0073 95.3343C46.9728 95.4576 46.9887 95.5896 47.0516 95.7012C47.1144 95.8127 47.219 95.8948 47.3423 95.9293L49.3423 97.2893L49.8223 96.4593C48.3955 95.9519 46.9436 95.518 45.4723 95.1593C45.1323 95.0793 44.7223 95.3893 44.8623 95.7593C45.1307 96.3038 45.2935 96.8942 45.3423 97.4993L46.0623 96.9493L43.9523 95.9993C43.8425 95.9523 43.7192 95.9471 43.6058 95.9846C43.4924 96.0221 43.3966 96.0997 43.3364 96.2029C43.2762 96.3061 43.2558 96.4277 43.279 96.5449C43.3022 96.6621 43.3673 96.7668 43.4623 96.8393C44.7429 97.6784 45.9035 98.6876 46.9123 99.8393L47.3723 99.0393C45.3384 98.4122 43.4152 97.4708 41.6723 96.2493L41.1923 97.0693C43.2411 98.2124 45.2211 99.4746 47.1223 100.849L47.4823 99.9893C45.6485 99.3832 43.9109 98.5177 42.3223 97.4193L41.8523 98.2293C43.768 99.2495 45.4933 100.592 46.9523 102.199L47.4023 101.429C44.4472 100.454 41.6733 98.9977 39.1923 97.1193L38.7323 97.9093C40.9387 99.2048 43.0209 100.701 44.9523 102.379L45.4023 101.619C42.4652 100.595 39.6485 99.2541 37.0023 97.6193C36.5023 97.3293 36.0823 98.0693 36.5523 98.3993C37.2123 98.8593 37.8823 99.3193 38.5523 99.7893C39.0123 100.119 42.5523 102.579 41.0523 101.649C39.5523 100.719 38.1323 99.7293 36.6623 98.7893L36.2223 99.5493C38.3426 100.882 40.3494 102.387 42.2223 104.049L42.5323 103.309C39.7023 102.959 36.9523 100.849 34.5323 99.4493L34.1123 100.169C36.1618 101.283 38.0606 102.654 39.7623 104.249L40.1523 103.579C38.1185 102.731 36.1527 101.728 34.2723 100.579L33.8723 101.259C35.7923 102.386 37.6656 103.589 39.4923 104.869L39.7723 104.199C37.5705 103.318 35.4492 102.247 33.4323 100.999C33.0623 100.769 32.7323 101.339 33.0923 101.569C33.6523 101.939 38.0923 105.169 35.3623 102.979C35.3623 102.979 36.6923 104.259 37.0923 104.579C38.0111 105.494 39.1802 106.117 40.4523 106.369C40.6123 106.369 40.6823 106.159 40.5223 106.129V106.089Z" fill="white"/>
<path d="M123.792 102.829C123.627 102.176 123.255 101.594 122.732 101.169C122.452 100.849 122.032 101.169 122.092 101.539C122.222 102.329 122.202 102.289 122.912 102.699C122.987 102.737 123.071 102.753 123.154 102.746C123.238 102.738 123.317 102.706 123.383 102.655C123.45 102.603 123.5 102.534 123.528 102.455C123.556 102.376 123.561 102.291 123.542 102.209C123.492 101.478 123.219 100.781 122.762 100.209L122.102 100.869C123.485 101.624 124.931 102.26 126.422 102.769C126.519 102.795 126.621 102.793 126.717 102.761C126.812 102.729 126.896 102.671 126.958 102.591C127.02 102.512 127.057 102.417 127.065 102.317C127.073 102.217 127.051 102.117 127.002 102.029C126.294 101.002 125.519 100.024 124.682 99.0989L124.172 99.9789L127.952 101.539C128.502 101.759 128.772 101.009 128.472 100.649C127.643 99.6172 126.594 98.7835 125.402 98.2089C124.882 97.9489 124.282 98.6189 124.752 99.0489C125.666 99.9221 126.757 100.587 127.952 100.999C128.472 101.189 128.832 100.469 128.472 100.109C127.543 99.1639 126.518 98.3193 125.412 97.5889L124.862 98.5089L127.672 100.189C127.783 100.25 127.912 100.27 128.037 100.245C128.161 100.219 128.272 100.15 128.349 100.049C128.427 99.9487 128.465 99.8238 128.459 99.6971C128.452 99.5705 128.4 99.4505 128.312 99.3589C127.178 98.1147 125.867 97.0433 124.422 96.1789L123.922 97.0489C125.634 98.1732 127.54 98.97 129.542 99.3989C129.962 99.4789 130.392 98.9489 130.002 98.6189C128.786 97.5678 127.409 96.7202 125.922 96.1089C125.502 95.9289 125.192 96.5589 125.492 96.8489C126.753 98.0732 128.279 98.9903 129.952 99.5289C130.372 99.6589 130.612 99.1189 130.352 98.8289C129.462 97.8186 128.428 96.9457 127.282 96.2389L126.952 96.9989C129.01 98.0966 131.188 98.9523 133.442 99.5489C133.531 99.5733 133.626 99.5676 133.712 99.5328C133.797 99.4979 133.869 99.4358 133.915 99.3561C133.962 99.2763 133.981 99.1834 133.97 99.0917C133.958 99 133.917 98.9147 133.852 98.8489C132.452 97.3107 130.703 96.131 128.752 95.4089C128.302 95.2389 128.002 95.9489 128.422 96.1789L132.042 98.1189C132.392 98.3089 132.872 97.9089 132.622 97.5389C131.955 96.4758 130.983 95.6391 129.832 95.1389C129.735 95.0945 129.625 95.0879 129.523 95.1203C129.421 95.1527 129.335 95.2217 129.282 95.314C129.228 95.4063 129.211 95.5152 129.233 95.6197C129.255 95.7241 129.316 95.8165 129.402 95.8789C130.836 96.8766 132.465 97.5583 134.182 97.8789C134.562 97.9489 134.972 97.4589 134.602 97.1589C133.684 96.4108 132.703 95.7417 131.672 95.1589L131.232 95.9089C132.472 96.559 133.771 97.0881 135.112 97.4889C135.462 97.5989 135.872 97.1489 135.622 96.8289C135.145 96.1641 134.523 95.6169 133.802 95.2289L133.442 96.0789C135.182 96.7789 136.932 97.3789 138.732 97.9089C138.848 97.9262 138.967 97.9002 139.065 97.8359C139.164 97.7716 139.235 97.6734 139.266 97.56C139.297 97.4465 139.285 97.3257 139.233 97.2205C139.18 97.1152 139.091 97.0328 138.982 96.9889C137.192 96.4589 135.432 95.8689 133.692 95.1889C133.192 94.9889 132.872 95.7889 133.332 96.0389C133.989 96.3037 134.544 96.7737 134.912 97.3789L135.352 96.6189C134.084 96.2438 132.852 95.7551 131.672 95.1589C131.172 94.9089 130.742 95.6389 131.232 95.9089C132.21 96.3817 133.124 96.9764 133.952 97.6789L134.372 96.9589C132.731 96.663 131.171 96.0259 129.792 95.0889L129.362 95.8289C130.417 96.2017 131.302 96.9441 131.852 97.9189L132.432 97.3389L128.812 95.3989L128.482 96.1689C130.299 96.8437 131.925 97.9485 133.222 99.3889L133.622 98.6889C131.435 98.1182 129.32 97.296 127.322 96.2389C127.221 96.1898 127.105 96.1828 126.999 96.2194C126.893 96.2559 126.806 96.3331 126.757 96.4339C126.708 96.5347 126.701 96.6508 126.738 96.7568C126.774 96.8627 126.851 96.9498 126.952 96.9989C128.032 97.6746 129.006 98.507 129.842 99.4689L130.252 98.7689C128.694 98.2562 127.279 97.3824 126.122 96.2189L125.582 96.9189C126.952 97.4972 128.218 98.2942 129.332 99.2789L129.792 98.4989C127.877 98.0567 126.057 97.2707 124.422 96.1789C123.872 95.8489 123.372 96.7089 123.922 97.0489C125.27 97.8739 126.495 98.8837 127.562 100.049L128.202 99.2189L125.412 97.5389C125.292 97.4856 125.156 97.4783 125.03 97.5182C124.905 97.5582 124.798 97.6426 124.73 97.7557C124.663 97.8688 124.639 98.0027 124.663 98.1322C124.687 98.2617 124.758 98.3779 124.862 98.4589C125.893 99.1387 126.848 99.9265 127.712 100.809L128.232 99.9189C127.21 99.6228 126.285 99.0602 125.552 98.2889L124.902 99.1189C126.004 99.6665 126.979 100.44 127.762 101.389L128.282 100.499L124.452 98.9989C123.932 98.7889 123.622 99.5289 123.942 99.8689C124.761 100.69 125.492 101.595 126.122 102.569L126.692 101.829C125.281 101.352 123.91 100.764 122.592 100.069C122.182 99.8489 121.592 100.299 121.922 100.729L122.712 102.479L123.342 101.999L122.832 101.379L122.262 101.809L123.552 103.009C123.573 103.036 123.603 103.055 123.636 103.061C123.67 103.068 123.704 103.062 123.734 103.045C123.763 103.028 123.786 103 123.796 102.968C123.807 102.935 123.806 102.9 123.792 102.869V102.829Z" fill="white"/>
<path d="M39.0423 21.1291C57.8123 22.8691 77.0423 22.2491 95.8323 22.8191L95.2523 20.6491C94.4623 21.0591 93.6723 21.4491 92.8823 21.8291C92.0923 22.2091 92.6123 23.7091 93.5623 23.4491C94.5123 23.1891 95.2823 22.9891 96.1423 22.7791C96.4089 22.6988 96.6381 22.5261 96.7888 22.292C96.9395 22.0579 97.0018 21.7777 96.9644 21.5018C96.9271 21.2259 96.7926 20.9724 96.5851 20.7867C96.3776 20.6011 96.1107 20.4956 95.8323 20.4891C77.0023 20.4891 57.8323 19.1791 39.0423 20.3091C38.9336 20.3091 38.8293 20.3523 38.7524 20.4292C38.6755 20.506 38.6323 20.6103 38.6323 20.7191C38.6323 20.8278 38.6755 20.9321 38.7524 21.009C38.8293 21.0859 38.9336 21.1291 39.0423 21.1291V21.1291Z" fill="#FFE500"/>
<path d="M93.7121 19.3195C94.1621 19.3995 94.1421 19.4195 94.4621 19.0495C94.5282 18.979 94.565 18.8861 94.565 18.7895C94.565 18.6929 94.5282 18.5999 94.4621 18.5295C92.7321 16.5995 89.4621 15.6495 87.1521 14.5295C83.7788 12.8628 80.4021 11.1961 77.0221 9.52948C70.2421 6.27614 63.4155 3.11948 56.5421 0.0594764C55.8221 -0.260524 55.1921 0.799476 55.9521 1.12948C62.5321 4.12948 69.0921 7.12948 75.6121 10.1295C78.7421 11.5995 81.8621 13.0595 84.9721 14.5495L90.0221 16.9995C90.6321 17.2995 93.6121 18.9995 93.7121 18.9995C93.5821 18.9995 93.5521 19.2595 93.7121 19.2895V19.3195Z" fill="#FFE500"/>
<path d="M41.2922 18.1288C46.3922 17.1288 52.6722 15.2288 58.1222 13.6488C58.8822 13.4288 58.5522 12.2388 57.8022 12.4688L46.6522 15.8788C45.2222 16.3188 41.6522 16.6288 40.8722 17.9388C40.8429 17.9796 40.8271 18.0286 40.8271 18.0788C40.8271 18.129 40.8429 18.178 40.8722 18.2188L41.0522 18.3888C41.0644 18.4018 41.0791 18.4122 41.0954 18.4193C41.1118 18.4264 41.1294 18.4301 41.1472 18.4301C41.165 18.4301 41.1827 18.4264 41.199 18.4193C41.2153 18.4122 41.2301 18.4018 41.2422 18.3888L41.3322 18.2788C41.3449 18.2651 41.353 18.2478 41.3554 18.2292C41.3578 18.2107 41.3543 18.1919 41.3455 18.1754C41.3367 18.1589 41.323 18.1455 41.3063 18.1372C41.2896 18.1289 41.2707 18.1259 41.2522 18.1288H41.2922Z" fill="#FFE500"/>
<path d="M53.6123 0.888672C54.5023 5.88867 57.2723 10.9787 59.2223 15.6287C59.2492 15.6943 59.2888 15.754 59.3388 15.8044C59.3888 15.8548 59.4482 15.8948 59.5137 15.9222C59.5792 15.9496 59.6494 15.9638 59.7204 15.9641C59.7913 15.9643 59.8616 15.9506 59.9273 15.9237C59.993 15.8968 60.0527 15.8572 60.103 15.8072C60.1534 15.7572 60.1934 15.6977 60.2208 15.6323C60.2482 15.5668 60.2624 15.4966 60.2627 15.4256C60.263 15.3547 60.2492 15.2843 60.2223 15.2187C58.2423 10.5687 56.5323 4.99867 53.6123 0.888672Z" fill="#FFE500"/>
</svg>
