<svg width="187" height="136" viewBox="0 0 187 136" fill="none" xmlns="http://www.w3.org/2000/svg">
<g clip-path="url(#clip0)">
<path d="M90.3099 36.0003C88.9099 42.5903 89.7899 50.3003 90.0299 57.0003C90.0455 57.1018 90.097 57.1944 90.1749 57.2612C90.2529 57.3281 90.3522 57.3649 90.4549 57.3649C90.5576 57.3649 90.6569 57.3281 90.7349 57.2612C90.8128 57.1944 90.8643 57.1018 90.8799 57.0003C91.1199 50.3003 92.0099 42.5803 90.5999 36.0003C90.5914 35.9683 90.5726 35.94 90.5464 35.9198C90.5202 35.8996 90.488 35.8887 90.4549 35.8887C90.4218 35.8887 90.3896 35.8996 90.3634 35.9198C90.3372 35.94 90.3184 35.9683 90.3099 36.0003V36.0003Z" fill="white"/>
<path d="M95.8501 36.2506C94.9601 42.9406 95.2601 50.0506 95.4701 56.7906H96.5301V56.0106C96.5301 55.878 96.4774 55.7508 96.3837 55.657C96.2899 55.5633 96.1627 55.5106 96.0301 55.5106C95.8975 55.5106 95.7703 55.5633 95.6766 55.657C95.5828 55.7508 95.5301 55.878 95.5301 56.0106V56.7906C95.5301 57.4706 96.5301 57.4806 96.5901 56.7906C96.7901 50.0606 97.1001 42.9406 96.2101 36.2506C96.2101 36.2108 96.1943 36.1727 96.1662 36.1445C96.1381 36.1164 96.0999 36.1006 96.0601 36.1006C96.0203 36.1006 95.9822 36.1164 95.9541 36.1445C95.9259 36.1727 95.9101 36.2108 95.9101 36.2506H95.8501Z" fill="white"/>
<path d="M29.3802 121.6C30.8918 121.867 32.433 121.924 33.9602 121.77C35.7202 121.77 37.5002 121.77 39.2702 121.62C39.3577 121.62 39.4417 121.585 39.5036 121.524C39.5654 121.462 39.6002 121.378 39.6002 121.29C39.6002 121.203 39.5654 121.119 39.5036 121.057C39.4417 120.995 39.3577 120.96 39.2702 120.96C37.5002 120.89 35.7202 120.96 33.9602 121.05C32.4238 120.966 30.8832 121.091 29.3802 121.42C29.3002 121.42 29.2902 121.58 29.3802 121.6V121.6Z" fill="white"/>
<path d="M39.1403 121.59C39.9333 120.594 40.7813 119.642 41.6803 118.74C42.5903 117.83 43.6803 117.09 44.5503 116.2C44.6127 116.139 44.6508 116.057 44.6573 115.97C44.6638 115.883 44.6383 115.796 44.5857 115.726C44.533 115.656 44.4567 115.608 44.3711 115.59C44.2855 115.573 44.1963 115.587 44.1203 115.63C41.9167 117.079 40.0869 119.029 38.7803 121.32C38.6503 121.53 38.9703 121.8 39.1403 121.59Z" fill="white"/>
<path d="M42.4398 115.9C46.5498 115.96 50.7298 116.26 54.8298 115.99C54.9094 115.99 54.9857 115.958 55.042 115.902C55.0982 115.846 55.1298 115.77 55.1298 115.69C55.1298 115.61 55.0982 115.534 55.042 115.478C54.9857 115.422 54.9094 115.39 54.8298 115.39C50.7298 115.12 46.5498 115.39 42.4398 115.49C42.3932 115.5 42.3515 115.526 42.3216 115.564C42.2917 115.601 42.2754 115.647 42.2754 115.695C42.2754 115.743 42.2917 115.789 42.3216 115.826C42.3515 115.864 42.3932 115.89 42.4398 115.9Z" fill="white"/>
<path d="M54.4805 116.52C55.0963 117.856 55.9123 119.09 56.9005 120.18C57.762 121.265 58.8644 122.135 60.1205 122.72C60.1912 122.737 60.2655 122.731 60.3324 122.702C60.3994 122.674 60.4554 122.625 60.4923 122.562C60.5293 122.499 60.5451 122.426 60.5376 122.354C60.5301 122.282 60.4995 122.214 60.4505 122.16C59.5305 121.24 58.3405 120.62 57.4505 119.67C56.4678 118.654 55.6269 117.511 54.9505 116.27C54.7905 115.99 54.3905 116.27 54.5205 116.52H54.4805Z" fill="white"/>
<path d="M60.8704 121.24C71.3404 121.99 81.9904 121.49 92.4904 121.52C102.99 121.55 113.57 121.52 124.1 121.27C124.14 121.26 124.175 121.238 124.2 121.206C124.225 121.175 124.238 121.135 124.238 121.095C124.238 121.054 124.225 121.015 124.2 120.983C124.175 120.952 124.14 120.929 124.1 120.92C113.57 120.7 103.03 120.64 92.4904 120.67C81.9504 120.7 71.3404 120.2 60.8704 120.95C60.8384 120.958 60.8101 120.977 60.7899 121.003C60.7697 121.03 60.7588 121.062 60.7588 121.095C60.7588 121.128 60.7697 121.16 60.7899 121.186C60.8101 121.213 60.8384 121.231 60.8704 121.24V121.24Z" fill="white"/>
<path d="M124.78 120.49C126.27 119.27 127.62 117.85 129 116.49C130.329 115.323 131.56 114.049 132.68 112.68C132.89 112.39 132.47 111.96 132.17 112.17C130.807 113.297 129.536 114.531 128.37 115.86C127.03 117.24 125.61 118.61 124.37 120.1C124.32 120.152 124.292 120.221 124.293 120.294C124.294 120.366 124.324 120.435 124.375 120.485C124.427 120.535 124.497 120.563 124.569 120.562C124.641 120.561 124.71 120.532 124.76 120.48L124.78 120.49Z" fill="white"/>
<path d="M132.051 113.33C136.801 113.58 141.581 113.96 146.341 114.16C146.661 114.16 146.741 113.65 146.421 113.59C141.675 112.786 136.85 112.564 132.051 112.93C131.998 112.93 131.947 112.951 131.909 112.988C131.872 113.026 131.851 113.077 131.851 113.13C131.851 113.183 131.872 113.234 131.909 113.271C131.947 113.309 131.998 113.33 132.051 113.33V113.33Z" fill="white"/>
<path d="M141.81 113.55C144.59 116.55 147.48 119.32 150.39 122.13C150.54 122.27 150.76 122.05 150.62 121.91C147.81 118.99 145 116.1 142.04 113.33C142.01 113.304 141.971 113.291 141.932 113.292C141.892 113.293 141.854 113.309 141.826 113.336C141.797 113.364 141.78 113.401 141.777 113.44C141.774 113.48 141.786 113.519 141.81 113.55Z" fill="white"/>
<path d="M149.21 121.27C156.48 121.34 163.87 121.8 171.13 121.35C171.199 121.35 171.265 121.323 171.314 121.274C171.363 121.225 171.39 121.159 171.39 121.09C171.39 121.021 171.363 120.955 171.314 120.906C171.265 120.857 171.199 120.83 171.13 120.83C163.87 120.39 156.48 120.83 149.21 120.92C149.171 120.93 149.136 120.952 149.111 120.984C149.086 121.015 149.072 121.055 149.072 121.095C149.072 121.135 149.086 121.175 149.111 121.206C149.136 121.238 149.171 121.261 149.21 121.27V121.27Z" fill="white"/>
<path d="M33.29 121.4C21.88 121.93 25.4 102.91 25.46 95.9904C25.53 87.4204 25.46 78.8104 24.88 70.2604C24.88 69.9404 24.37 69.9304 24.38 70.2604C24.71 83.0804 24.84 95.8204 24.53 108.65C24.39 114.21 25.79 122.89 33.33 121.72C33.52 121.72 33.47 121.39 33.33 121.4H33.29Z" fill="white"/>
<path d="M24.9999 70.2502C24.941 67.9893 25.2311 65.7328 25.8599 63.5602C26.9399 60.2802 29.3299 59.0402 32.4799 58.4102C36.9499 57.5302 41.1899 57.8502 45.6799 57.7902C45.7526 57.7839 45.8209 57.7528 45.8736 57.7023C45.9262 57.6518 45.96 57.5848 45.9693 57.5124C45.9787 57.4401 45.963 57.3667 45.9249 57.3044C45.8868 57.2422 45.8286 57.1949 45.7599 57.1702C40.8799 56.0402 33.3299 56.2402 28.7599 58.4302C24.6199 60.4302 24.0199 66.2302 24.4599 70.2502C24.5099 70.6102 25.0499 70.6302 25.0499 70.2502H24.9999Z" fill="white"/>
<path d="M167.631 124L166.961 121.78C166.961 121.78 166.911 121.78 166.961 121.78L167.631 124Z" fill="white"/>
<path d="M38.6303 57.2802C47.7603 58.2802 57.2303 57.6702 66.4103 57.6702H95.1903C114.03 57.6702 132.91 58.0002 151.75 57.5402C151.835 57.5402 151.917 57.5064 151.977 57.4464C152.037 57.3864 152.07 57.305 152.07 57.2202C152.07 57.1353 152.037 57.0539 151.977 56.9939C151.917 56.9339 151.835 56.9002 151.75 56.9002C132.91 56.4502 114.03 56.7802 95.1903 56.7702H67.4003C57.9003 56.7702 48.0803 56.1602 38.6303 57.1602C38.6144 57.1602 38.5991 57.1665 38.5879 57.1777C38.5766 57.189 38.5703 57.2042 38.5703 57.2202C38.5703 57.2361 38.5766 57.2513 38.5879 57.2626C38.5991 57.2738 38.6144 57.2802 38.6303 57.2802V57.2802Z" fill="white"/>
<path d="M151.41 57C153.718 57.3764 155.867 58.4191 157.59 60C157.632 60.0355 157.686 60.0539 157.741 60.0516C157.796 60.0492 157.849 60.0263 157.887 59.9873C157.926 59.9484 157.949 59.8962 157.952 59.8411C157.954 59.7861 157.936 59.7321 157.9 59.69C156.153 57.9906 153.869 56.9513 151.44 56.75C151.31 56.75 151.27 56.97 151.44 56.99L151.41 57Z" fill="white"/>
<path d="M149.78 57.0703C155.36 58.6803 157.73 64.0103 160.37 68.6703C161.56 70.7803 162.91 72.8403 163.97 75.0203C165.36 77.8903 165.48 80.6803 166.04 83.7603C166.84 88.2203 169.74 91.9403 171.04 96.3003C172.75 102.068 173.843 108.002 174.3 114C174.3 114.37 174.89 114.5 174.98 114.1C176.23 108.52 173.91 102.1 172.46 96.7803C171.722 94.1591 170.752 91.6091 169.56 89.1603C167.82 85.4503 167.84 81.8403 166.9 77.9703C165.61 72.7003 161.62 67.1503 158.56 62.7403C156.37 59.5703 153.83 56.9203 149.85 56.5303C149.52 56.5303 149.47 57.0203 149.78 57.1103V57.0703Z" fill="white"/>
<path d="M170.001 121.69C171.141 120.44 172.751 120 173.791 118.54C174.241 117.855 174.578 117.102 174.791 116.31C174.941 115.82 175.501 112.45 175.881 112.38C175.965 112.36 176.04 112.311 176.093 112.241C176.146 112.172 176.173 112.087 176.171 112V111.92C176.169 111.834 176.146 111.75 176.102 111.676C176.058 111.601 175.996 111.54 175.922 111.496C175.848 111.453 175.763 111.43 175.677 111.429C175.591 111.428 175.506 111.449 175.431 111.49C174.061 112.22 174.121 115.57 173.601 116.88C173.097 118.146 172.226 119.232 171.101 120C170.5 120.314 169.996 120.784 169.641 121.36C169.521 121.59 169.821 121.86 170.021 121.65L170.001 121.69Z" fill="white"/>
<path d="M173.181 115.71C174.181 116.02 175.061 115.97 175.411 117.18C175.723 118.097 175.786 119.081 175.591 120.03C174.861 122.28 170.691 120.75 169.051 120.73C168.924 120.713 168.796 120.742 168.69 120.813C168.583 120.883 168.507 120.991 168.475 121.114C168.443 121.238 168.457 121.369 168.515 121.483C168.574 121.596 168.672 121.684 168.791 121.73C170.419 122.401 172.2 122.615 173.941 122.35C174.487 122.365 175.024 122.213 175.481 121.914C175.938 121.616 176.294 121.186 176.501 120.68C176.823 119.458 176.728 118.163 176.231 117C175.671 115.58 174.551 115.75 173.231 115.48C173.196 115.475 173.161 115.482 173.131 115.501C173.102 115.52 173.081 115.549 173.072 115.583C173.063 115.617 173.068 115.653 173.084 115.684C173.1 115.715 173.128 115.739 173.161 115.75L173.181 115.71Z" fill="white"/>
<path d="M43.5104 134.27C41.2004 133.64 39.7204 129.57 39.6604 127.52C39.5504 123.68 41.7204 119.87 45.5504 118.85C48.3287 118.225 51.2242 118.363 53.9304 119.25C58.1604 120.66 58.8004 126.79 57.0804 130.36C55.4704 133.7 51.1804 134.36 47.7304 134.05C45.0004 133.8 41.2304 133 40.4904 130C39.9904 128 40.4204 122.58 41.8304 121C42.2804 120.48 41.6904 119.53 41.0604 120C39.2604 121.28 39.1304 124.67 38.8804 126.62C38.5704 129 38.4604 131.7 40.4104 133.44C43.6004 136.29 49.8704 136.34 53.6404 135.06C55.3859 134.57 56.9766 133.64 58.2604 132.36C59.7604 130.58 59.2604 128.3 59.0804 126.15C58.8004 121.39 58.0804 119.15 53.0804 118.01C49.7304 117.23 45.2904 117.11 42.3604 119.24C39.4304 121.37 37.9204 126.48 39.1304 130.01C39.6904 131.68 41.4204 134.73 43.4704 134.67C43.5048 134.661 43.5353 134.641 43.5571 134.613C43.5788 134.585 43.5907 134.55 43.5907 134.515C43.5907 134.479 43.5788 134.445 43.5571 134.417C43.5353 134.388 43.5048 134.368 43.4704 134.36L43.5104 134.27Z" fill="white"/>
<path d="M47.2506 127C46.7606 125.75 48.8906 124.87 49.7906 124.94C50.6906 125.01 52.4606 126.28 51.0006 127.07C50.2287 127.398 49.3686 127.454 48.5606 127.23C48.1873 127.133 47.8653 126.897 47.6606 126.57C47.3006 125.91 47.7906 125.57 48.2906 125.24C48.3536 125.201 48.4039 125.145 48.4352 125.078C48.4666 125.011 48.4776 124.936 48.467 124.862C48.4564 124.789 48.4245 124.72 48.3754 124.665C48.3263 124.61 48.2621 124.57 48.1906 124.55C47.8681 124.488 47.534 124.549 47.2543 124.721C46.9746 124.893 46.7699 125.164 46.6806 125.48C46.5486 125.837 46.5276 126.226 46.6204 126.596C46.7132 126.965 46.9154 127.298 47.2006 127.55C48.3306 128.64 51.1006 128.55 52.0806 127.29C53.0606 126.03 51.2206 124.35 49.9306 124.29C48.6406 124.23 46.3706 125.46 47.1406 127.08C47.1406 127.14 47.2806 127.08 47.2506 127.08V127Z" fill="white"/>
<path d="M131.29 132.4C128.97 131.77 127.5 127.69 127.43 125.65C127.32 121.8 129.49 117.99 133.32 116.98C136.098 116.357 138.992 116.491 141.7 117.37C145.93 118.79 146.57 124.92 144.85 128.49C143.24 131.82 138.95 132.49 135.5 132.18C132.78 131.92 129.01 131.09 128.26 128.1C127.76 126.1 128.19 120.68 129.61 119.04C130.05 118.53 129.46 117.58 128.83 118.04C127.04 119.32 126.9 122.72 126.65 124.67C126.34 127.05 126.23 129.75 128.18 131.49C131.37 134.34 137.64 134.38 141.41 133.11C143.156 132.616 144.747 131.683 146.03 130.4C147.53 128.62 146.98 126.4 146.85 124.2C146.57 119.43 145.85 117.2 140.85 116.05C137.5 115.27 133.06 115.16 130.13 117.28C127.2 119.4 125.69 124.52 126.9 128.06C127.47 129.72 129.19 132.77 131.25 132.71C131.29 132.71 131.328 132.694 131.356 132.666C131.384 132.638 131.4 132.6 131.4 132.56C131.4 132.52 131.384 132.482 131.356 132.454C131.328 132.426 131.29 132.41 131.25 132.41L131.29 132.4Z" fill="white"/>
<path d="M135.001 125.12C134.511 123.87 136.641 123 137.541 123.06C138.441 123.12 140.211 124.4 138.751 125.19C137.981 125.526 137.119 125.586 136.311 125.36C135.94 125.257 135.62 125.022 135.411 124.7C135.051 124.03 135.541 123.7 136.041 123.37C136.103 123.33 136.153 123.274 136.184 123.207C136.215 123.14 136.227 123.065 136.218 122.992C136.208 122.918 136.178 122.849 136.131 122.792C136.084 122.735 136.021 122.693 135.951 122.67C135.625 122.608 135.289 122.67 135.007 122.844C134.726 123.018 134.52 123.291 134.431 123.61C134.303 123.969 134.285 124.357 134.379 124.726C134.473 125.095 134.676 125.427 134.961 125.68C136.081 126.76 138.851 126.68 139.831 125.42C140.811 124.16 138.971 122.48 137.681 122.42C136.391 122.36 134.121 123.58 134.891 125.2C134.891 125.27 135.031 125.2 135.001 125.2V125.12Z" fill="white"/>
<path d="M32.0003 84.7104C38.8203 84.9904 45.6603 84.8904 52.4803 85.1304C59.3003 85.3704 66.1803 86.3204 72.9503 86.1304C73.7303 86.1304 73.9503 84.8404 73.1403 84.7104C66.7303 83.6604 59.9503 83.9104 53.4603 83.8104C46.3203 83.7104 39.1203 83.6004 32.0003 84.1504C31.9314 84.1632 31.8691 84.1997 31.8243 84.2536C31.7794 84.3074 31.7549 84.3753 31.7549 84.4454C31.7549 84.5155 31.7794 84.5834 31.8243 84.6373C31.8691 84.6912 31.9314 84.7277 32.0003 84.7404V84.7104Z" fill="white"/>
<path d="M72.8802 85.3297C73.5702 80.4597 73.2202 75.3297 73.0502 70.4297C73.0387 70.3732 73.0081 70.3224 72.9634 70.2859C72.9188 70.2494 72.8629 70.2295 72.8052 70.2295C72.7475 70.2295 72.6916 70.2494 72.647 70.2859C72.6023 70.3224 72.5717 70.3732 72.5602 70.4297C72.3902 75.3297 72.0402 80.4297 72.7302 85.3297C72.7302 85.3997 72.8702 85.3997 72.8802 85.3297V85.3297Z" fill="white"/>
<path d="M32.3503 84.3502C33.0403 79.0202 32.7403 73.3502 32.4703 68.0302C32.4523 67.9842 32.4215 67.9443 32.3815 67.9152C32.3416 67.8861 32.2942 67.8689 32.2449 67.8658C32.1955 67.8626 32.1463 67.8736 32.103 67.8974C32.0597 67.9212 32.0241 67.9569 32.0003 68.0002C31.7303 73.3502 31.4303 79.0002 32.1203 84.3202C32.1285 84.3498 32.1461 84.3759 32.1705 84.3945C32.1948 84.4131 32.2247 84.4232 32.2553 84.4232C32.286 84.4232 32.3158 84.4131 32.3402 84.3945C32.3646 84.3759 32.3822 84.3498 32.3903 84.3202L32.3503 84.3502Z" fill="white"/>
<path d="M31.0003 70.1005C45.0003 70.8505 59.1703 70.8305 73.1403 70.3505C73.2544 70.3505 73.3637 70.3052 73.4444 70.2245C73.525 70.1439 73.5703 70.0345 73.5703 69.9205C73.5703 69.8064 73.525 69.697 73.4444 69.6164C73.3637 69.5358 73.2544 69.4905 73.1403 69.4905C59.1803 69.0005 45.0003 69.0005 31.0003 69.7405C30.9526 69.7405 30.9068 69.7594 30.873 69.7932C30.8393 69.8269 30.8203 69.8727 30.8203 69.9205C30.8203 69.9682 30.8393 70.014 30.873 70.0477C30.9068 70.0815 30.9526 70.1005 31.0003 70.1005V70.1005Z" fill="white"/>
<path d="M79.1703 84.7104C85.9903 84.9904 92.8303 84.8904 99.6503 85.1304C106.47 85.3704 113.35 86.3204 120.12 86.1304C120.9 86.1304 121.12 84.8404 120.31 84.7104C113.9 83.6604 107.12 83.9104 100.63 83.8104C93.4903 83.7104 86.2903 83.6004 79.1703 84.1504C79.1013 84.1632 79.039 84.1997 78.9942 84.2536C78.9494 84.3074 78.9248 84.3753 78.9248 84.4454C78.9248 84.5155 78.9494 84.5834 78.9942 84.6373C79.039 84.6912 79.1013 84.7277 79.1703 84.7404V84.7104Z" fill="white"/>
<path d="M120 85.3297C120.69 80.4597 120.34 75.3297 120.17 70.4297C120.159 70.3732 120.128 70.3224 120.083 70.2859C120.039 70.2494 119.983 70.2295 119.925 70.2295C119.867 70.2295 119.812 70.2494 119.767 70.2859C119.722 70.3224 119.692 70.3732 119.68 70.4297C119.51 75.3297 119.17 80.4297 119.85 85.3297C119.85 85.3997 119.99 85.3997 120 85.3297V85.3297Z" fill="white"/>
<path d="M79.4802 84.3505C80.1702 79.0205 79.8702 73.3505 79.6002 68.0305C79.5884 67.9715 79.5566 67.9185 79.5101 67.8803C79.4636 67.8421 79.4053 67.8213 79.3452 67.8213C79.285 67.8213 79.2267 67.8421 79.1802 67.8803C79.1337 67.9185 79.1019 67.9715 79.0902 68.0305C78.8202 73.3805 78.5202 79.0305 79.2102 84.3505C79.2183 84.3801 79.2359 84.4062 79.2603 84.4248C79.2847 84.4434 79.3145 84.4535 79.3452 84.4535C79.3758 84.4535 79.4057 84.4434 79.4301 84.4248C79.4544 84.4062 79.4721 84.3801 79.4802 84.3505V84.3505Z" fill="white"/>
<path d="M78.1507 70.1003C92.1507 70.8503 106.311 70.8303 120.281 70.3503C120.395 70.3503 120.504 70.305 120.585 70.2244C120.665 70.1437 120.711 70.0344 120.711 69.9203C120.711 69.8063 120.665 69.6969 120.585 69.6163C120.504 69.5356 120.395 69.4903 120.281 69.4903C106.281 69.0003 92.1107 68.9803 78.1507 69.7403C78.103 69.7403 78.0572 69.7593 78.0234 69.793C77.9897 69.8268 77.9707 69.8726 77.9707 69.9203C77.9707 69.9681 77.9897 70.0139 78.0234 70.0476C78.0572 70.0814 78.103 70.1003 78.1507 70.1003V70.1003Z" fill="white"/>
<path d="M129.061 84.8002C136.381 85.1102 143.671 85.4102 150.981 85.9502C152.221 86.0402 152.221 84.1002 150.981 84.0202C143.686 83.4819 136.364 83.4084 129.061 83.8002C128.928 83.8002 128.801 83.8528 128.707 83.9466C128.613 84.0404 128.561 84.1676 128.561 84.3002C128.561 84.4328 128.613 84.56 128.707 84.6537C128.801 84.7475 128.928 84.8002 129.061 84.8002Z" fill="white"/>
<path d="M128.11 71.2903C128.03 75.6303 127.88 79.9703 127.84 84.2903C127.84 84.4308 127.896 84.5656 127.995 84.665C128.094 84.7644 128.229 84.8203 128.37 84.8203C128.51 84.8203 128.645 84.7644 128.745 84.665C128.844 84.5656 128.9 84.4308 128.9 84.2903C128.9 79.9503 128.72 75.6103 128.63 71.2903C128.63 71.2213 128.602 71.1552 128.554 71.1064C128.505 71.0577 128.439 71.0303 128.37 71.0303C128.301 71.0303 128.235 71.0577 128.186 71.1064C128.137 71.1552 128.11 71.2213 128.11 71.2903V71.2903Z" fill="white"/>
<path d="M128.25 71.1198L127.68 70.9498C127.2 70.8098 127.07 71.6098 127.59 71.6398C133.99 71.9198 140.47 72.1298 146.87 71.9598C147.048 71.9598 147.218 71.8892 147.344 71.7636C147.47 71.6379 147.54 71.4675 147.54 71.2898C147.54 71.1121 147.47 70.9417 147.344 70.8161C147.218 70.6904 147.048 70.6198 146.87 70.6198C140.47 70.4498 133.99 70.6198 127.59 70.9398C127.07 70.9398 127.2 71.7598 127.68 71.6198L128.25 71.4498C128.287 71.4407 128.32 71.4195 128.343 71.3896C128.367 71.3596 128.379 71.3228 128.379 71.2848C128.379 71.2469 128.367 71.21 128.343 71.1801C128.32 71.1502 128.287 71.129 128.25 71.1198V71.1198Z" fill="white"/>
<path d="M147.2 71.5903C146.65 73.6503 147.62 75.8003 148.29 77.7503C149.29 80.6103 150.19 83.5203 151.29 86.3303C151.57 87.0203 152.67 86.7603 152.44 86.0103C151.59 83.2903 150.52 80.6303 149.54 77.9503C148.77 75.8503 148.32 73.5903 147.45 71.5503C147.437 71.5253 147.416 71.5045 147.392 71.4899C147.367 71.4754 147.339 71.4678 147.31 71.4678C147.282 71.4678 147.254 71.4754 147.229 71.4899C147.205 71.5045 147.184 71.5253 147.17 71.5503L147.2 71.5903Z" fill="white"/>
<path d="M144.071 74.0005C143.806 77.0763 143.715 80.1646 143.801 83.2505C143.824 83.366 143.886 83.4699 143.977 83.5446C144.069 83.6192 144.183 83.66 144.301 83.66C144.418 83.66 144.533 83.6192 144.624 83.5446C144.715 83.4699 144.777 83.366 144.801 83.2505C144.887 80.1644 144.794 77.0758 144.521 74.0005C144.521 73.9395 144.496 73.881 144.453 73.8379C144.41 73.7947 144.352 73.7705 144.291 73.7705C144.23 73.7705 144.171 73.7947 144.128 73.8379C144.085 73.881 144.061 73.9395 144.061 74.0005H144.071Z" fill="white"/>
<path d="M97.9101 72.1305C97.4969 75.4882 97.4332 78.8797 97.7201 82.2505C97.7201 82.3195 97.7475 82.3856 97.7963 82.4344C97.845 82.4832 97.9112 82.5106 97.9801 82.5106C98.0491 82.5106 98.1152 82.4832 98.164 82.4344C98.2127 82.3856 98.2401 82.3195 98.2401 82.2505C98.527 78.8797 98.4633 75.4882 98.0501 72.1305C98.0501 72.112 98.0427 72.0942 98.0296 72.0811C98.0165 72.0679 97.9987 72.0605 97.9801 72.0605C97.9615 72.0605 97.9437 72.0679 97.9306 72.0811C97.9175 72.0942 97.9101 72.112 97.9101 72.1305Z" fill="white"/>
<path d="M50.4901 81.08C51.2201 77.93 50.6401 74.16 50.5701 70.95C50.5701 70.897 50.549 70.8461 50.5115 70.8086C50.474 70.7711 50.4231 70.75 50.3701 70.75C50.317 70.75 50.2662 70.7711 50.2287 70.8086C50.1911 70.8461 50.1701 70.897 50.1701 70.95C50.0901 74.17 49.5201 77.95 50.2501 81.08C50.2501 81.1118 50.2627 81.1424 50.2852 81.1649C50.3077 81.1874 50.3382 81.2 50.3701 81.2C50.4019 81.2 50.4324 81.1874 50.4549 81.1649C50.4774 81.1424 50.4901 81.1118 50.4901 81.08V81.08Z" fill="white"/>
<path d="M56 72.1396V72.9996H56.08V72.1396H56Z" fill="white"/>
<path d="M154.43 58.0001C154.158 57.9022 153.865 57.878 153.58 57.9301C153.504 57.9487 153.437 57.9923 153.388 58.0539C153.34 58.1156 153.313 58.1917 153.313 58.2701C153.313 58.3485 153.34 58.4246 153.388 58.4862C153.437 58.5479 153.504 58.5915 153.58 58.6101C153.864 58.6653 154.157 58.6446 154.43 58.5501C154.488 58.5308 154.538 58.4938 154.574 58.4445C154.609 58.3951 154.628 58.3359 154.628 58.2751C154.628 58.2143 154.609 58.155 154.574 58.1057C154.538 58.0563 154.488 58.0194 154.43 58.0001V58.0001Z" fill="white"/>
<path d="M174.9 96.1402C175.05 95.8099 175.253 95.5059 175.5 95.2402L174.85 94.9702C174.74 95.8902 174.71 96.8102 174.65 97.7302C174.65 98.3102 174.74 100.54 174.18 100.88C174.127 100.912 174.082 100.956 174.048 101.008C174.014 101.06 173.992 101.119 173.985 101.181C173.977 101.242 173.983 101.305 174.003 101.364C174.023 101.423 174.057 101.476 174.1 101.52L174.22 101.68C174.312 101.769 174.429 101.825 174.555 101.841C174.681 101.858 174.809 101.833 174.92 101.77C175.75 101.18 175.62 100.27 175.63 99.3402C175.63 97.8902 175.7 96.4202 175.63 94.9702C175.63 94.4902 174.86 94.4802 174.87 94.9702C174.909 95.3405 174.871 95.7148 174.76 96.0702C174.76 96.1602 174.87 96.2302 174.92 96.1402H174.9Z" fill="white"/>
<path d="M171.14 101.66C172.034 101.686 172.928 101.625 173.81 101.48C173.9 101.459 173.979 101.406 174.031 101.33C174.083 101.254 174.105 101.161 174.093 101.07C174.08 100.978 174.034 100.895 173.963 100.836C173.892 100.777 173.802 100.746 173.71 100.75C172.818 100.808 171.933 100.956 171.07 101.19C170.81 101.19 170.87 101.67 171.14 101.66V101.66Z" fill="white"/>
<path d="M172.561 98.44C172.449 98.1615 172.418 97.8573 172.471 97.562C172.524 97.2667 172.659 96.9923 172.861 96.77C173.273 96.4219 173.802 96.2432 174.341 96.27C174.831 96.2 174.711 95.52 174.341 95.39C173.925 95.2924 173.49 95.33 173.098 95.4973C172.706 95.6646 172.377 95.9529 172.161 96.32C171.954 96.6643 171.852 97.0608 171.867 97.4618C171.881 97.8628 172.011 98.2512 172.241 98.58C172.341 98.74 172.641 98.64 172.561 98.44V98.44Z" fill="white"/>
<path d="M152 61.7999C153.91 61.8899 155.83 62.0099 157.73 62.2499C158.46 62.3499 158.5 61.1199 157.73 61.0699C155.821 60.9415 153.905 60.9683 152 61.15C151.924 61.1634 151.855 61.2034 151.805 61.2628C151.755 61.3222 151.728 61.3974 151.728 61.4749C151.728 61.5525 151.755 61.6277 151.805 61.6871C151.855 61.7465 151.924 61.7865 152 61.7999V61.7999Z" fill="white"/>
<path d="M151.25 61.4501C153.19 66.7301 154.12 72.2301 155.48 77.6701C155.72 78.6701 159.94 91.2301 160.75 90.8201C160.693 90.8539 160.647 90.9038 160.618 90.9636C160.589 91.0234 160.577 91.0905 160.586 91.1565C160.594 91.2225 160.622 91.2846 160.666 91.335C160.709 91.3854 160.766 91.422 160.83 91.4401L161.22 91.5501C161.306 91.5752 161.397 91.5763 161.484 91.5534C161.57 91.5305 161.648 91.4844 161.71 91.4201L162.01 91.0601C162.084 90.9872 162.137 90.8958 162.163 90.7956C162.19 90.6953 162.189 90.5899 162.16 90.4901C161.46 88.6701 160.22 87.1501 159.37 85.3901C157.988 82.3166 156.922 79.11 156.19 75.8201C154.95 70.8201 153.83 65.9301 151.64 61.2901C151.54 61.0701 151.17 61.2201 151.25 61.4501V61.4501Z" fill="white"/>
<path d="M159.41 90.6804C162.56 90.9904 165.86 90.9704 169.03 91.0904C169.59 91.0904 169.73 90.2004 169.17 90.0904C165.917 89.4924 162.585 89.4586 159.32 89.9904C158.91 90.0704 159.05 90.6304 159.41 90.6704V90.6804Z" fill="white"/>
<path d="M58.4901 132.84C63.0901 133.15 67.1101 134.12 70.8001 130.77C73.3701 128.42 75.6001 124.96 74.2501 121.41C74.2181 121.334 74.1594 121.272 74.085 121.236C74.0106 121.2 73.9256 121.192 73.8459 121.214C73.7662 121.237 73.6973 121.287 73.6521 121.356C73.6068 121.425 73.5884 121.509 73.6001 121.59C74.4701 125.4 72.2301 128.77 69.2701 131C66.0601 133.4 62.2101 132.54 58.4901 132.44C58.2301 132.44 58.2401 132.82 58.4901 132.84V132.84Z" fill="white"/>
<path d="M147.21 130.66C150.3 131.03 154.71 130.95 157.21 128.83C158.157 127.954 158.897 126.879 159.38 125.683C159.862 124.486 160.074 123.198 160 121.91C160 121.44 159.23 121.29 159.14 121.8C158.73 124.28 158.31 126.92 156.03 128.42C153.49 130.1 150.09 130.01 147.16 130.16C147.094 130.16 147.03 130.187 146.983 130.234C146.936 130.28 146.91 130.344 146.91 130.41C146.91 130.477 146.936 130.54 146.983 130.587C147.03 130.634 147.094 130.66 147.16 130.66H147.21Z" fill="white"/>
<path d="M64.8104 132.68C62.4704 132.26 61.0904 130.03 59.1104 128.9C58.8504 128.75 58.6504 129.07 58.8104 129.28C59.4624 130.143 60.3574 130.791 61.3804 131.14C61.4446 131.16 61.5137 131.158 61.5766 131.134C61.6394 131.11 61.6924 131.066 61.727 131.008C61.7616 130.951 61.7759 130.883 61.7674 130.816C61.759 130.75 61.7283 130.688 61.6804 130.64C60.4284 129.506 59.0911 128.47 57.6804 127.54L57.3504 128.12C59.4228 129.421 61.6044 130.538 63.8704 131.46C64.2804 131.63 64.4704 131.02 64.1604 130.79C62.3404 129.504 60.4771 128.284 58.5704 127.13C58.4802 127.077 58.3727 127.062 58.2714 127.089C58.1702 127.115 58.0835 127.18 58.0304 127.27C57.9774 127.361 57.9623 127.468 57.9886 127.569C58.0148 127.671 58.0802 127.757 58.1704 127.81C60.0842 129.005 62.0907 130.045 64.1704 130.92C64.5604 131.09 65.0304 130.63 64.6704 130.29C62.9257 128.634 60.9726 127.212 58.8604 126.06C58.7663 126.02 58.6607 126.016 58.5634 126.048C58.4662 126.08 58.3841 126.146 58.3325 126.235C58.2809 126.323 58.2634 126.428 58.2833 126.528C58.3032 126.628 58.359 126.718 58.4404 126.78C61.0704 128.33 63.7404 130.39 66.8404 130.78C67.2204 130.83 67.4104 130.28 67.1504 130.04C65.23 128.326 63.1732 126.771 61.0004 125.39C60.5104 125.09 60.0704 125.85 60.5504 126.15C61.9404 127.05 65.4504 130.58 67.1804 129.34C67.3804 129.19 67.5104 128.83 67.2704 128.64C65.3404 127.1 63.3804 125.64 61.3604 124.23L60.9004 125.01C63.6168 126.671 66.5033 128.035 69.5104 129.08C69.6061 129.102 69.7061 129.092 69.7959 129.053C69.8858 129.014 69.9607 128.947 70.0099 128.862C70.059 128.777 70.0797 128.679 70.069 128.581C70.0583 128.484 70.0168 128.393 69.9504 128.32C67.9479 126.592 65.7924 125.049 63.5104 123.71C62.9904 123.4 62.5904 124.16 63.0504 124.5C65.6011 126.42 68.4487 127.91 71.4804 128.91C71.9404 129.06 72.2304 128.46 71.9304 128.13C70.4237 126.509 68.6516 125.156 66.6904 124.13C66.5843 124.068 66.4578 124.05 66.3387 124.081C66.2197 124.112 66.1177 124.189 66.0554 124.295C65.9931 124.401 65.9755 124.528 66.0064 124.647C66.0374 124.766 66.1143 124.868 66.2204 124.93C67.8727 126.074 69.6813 126.973 71.5904 127.6C72.1304 127.78 72.3604 127.04 71.9504 126.75C70.0444 125.354 68.0576 124.072 66.0004 122.91C65.8935 122.867 65.7745 122.863 65.6652 122.9C65.5559 122.938 65.4636 123.013 65.4053 123.112C65.347 123.212 65.3266 123.329 65.3477 123.443C65.3688 123.556 65.4301 123.658 65.5204 123.73C67.3352 124.995 69.3358 125.97 71.4504 126.62C71.9404 126.78 72.2104 126.16 71.9204 125.82C70.8625 124.592 69.6372 123.518 68.2804 122.63L67.7904 123.47L69.7904 124.4C69.8741 124.446 69.9692 124.466 70.0643 124.459C70.1593 124.451 70.25 124.416 70.3254 124.358C70.4008 124.299 70.4575 124.22 70.4886 124.13C70.5196 124.04 70.5238 123.943 70.5004 123.85C70.46 123.245 70.3003 122.654 70.0304 122.11L69.4304 122.71C70.9104 123.08 72.3404 123.51 73.7804 124.02C74.3004 124.21 74.5304 123.54 74.2604 123.19C73.679 122.383 72.8214 121.817 71.8504 121.6C71.7319 121.584 71.6116 121.611 71.512 121.678C71.4124 121.744 71.3404 121.844 71.3097 121.96C71.2789 122.075 71.2915 122.198 71.3451 122.305C71.3986 122.412 71.4894 122.496 71.6004 122.54L73.6004 123.9L74.0804 123.07C72.6557 122.554 71.2035 122.116 69.7304 121.76C69.4004 121.68 68.9904 122 69.1304 122.37C69.3912 122.917 69.5504 123.507 69.6004 124.11L70.3204 123.56L68.3204 122.63C68.2106 122.583 68.0874 122.578 67.974 122.616C67.8605 122.653 67.7647 122.731 67.7045 122.834C67.6443 122.937 67.6239 123.059 67.6471 123.176C67.6703 123.293 67.7355 123.398 67.8304 123.47C69.1132 124.307 70.2742 125.316 71.2804 126.47L71.7504 125.67C69.7005 125.059 67.7599 124.127 66.0004 122.91L65.5204 123.73C67.5692 124.873 69.5492 126.136 71.4504 127.51L71.8104 126.65C69.9815 126.04 68.2478 125.175 66.6604 124.08L66.1904 124.88C68.0622 125.898 69.7518 127.219 71.1904 128.79L71.6404 128.01C68.6858 127.039 65.9118 125.586 63.4304 123.71L62.9704 124.5C65.2053 125.807 67.3173 127.313 69.2804 129L69.7204 128.24C66.7856 127.219 63.972 125.877 61.3304 124.24C61.227 124.179 61.1036 124.162 60.9873 124.192C60.871 124.222 60.7714 124.297 60.7104 124.4C60.6494 124.504 60.632 124.627 60.662 124.743C60.692 124.86 60.767 124.959 60.8704 125.02C61.5404 125.48 62.2004 125.93 62.8704 126.41C63.3304 126.73 66.8704 129.19 65.3704 128.27C63.8704 127.35 62.4504 126.34 60.9904 125.4L60.5404 126.16C62.6609 127.496 64.6677 129.005 66.5404 130.67L66.8504 129.93C64.0304 129.58 61.2704 127.46 58.8504 126.07L58.4304 126.79C60.4843 127.897 62.3839 129.269 64.0804 130.87L64.4804 130.19C62.4371 129.336 60.4671 128.316 58.5904 127.14L58.1904 127.82C60.1104 128.96 61.9838 130.164 63.8104 131.43L64.0904 130.77C61.8727 129.881 59.7349 128.803 57.7004 127.55C57.3304 127.32 57.0104 127.9 57.3704 128.13C57.9304 128.5 62.3704 131.73 59.6404 129.53C59.6404 129.53 60.9704 130.82 61.3604 131.14C62.282 132.052 63.4499 132.674 64.7204 132.93C64.8804 132.93 64.9504 132.71 64.7904 132.69L64.8104 132.68Z" fill="white"/>
<path d="M148.08 129.41C147.914 128.758 147.542 128.176 147.02 127.75C146.74 127.44 146.32 127.75 146.38 128.13C146.51 128.92 146.5 128.88 147.2 129.28C147.273 129.322 147.358 129.342 147.442 129.336C147.526 129.33 147.607 129.3 147.674 129.249C147.741 129.198 147.792 129.128 147.82 129.048C147.847 128.968 147.851 128.882 147.83 128.8C147.783 128.071 147.514 127.373 147.06 126.8L146.39 127.46C147.776 128.217 149.225 128.853 150.72 129.36C150.817 129.381 150.917 129.374 151.01 129.34C151.103 129.305 151.184 129.245 151.244 129.167C151.304 129.088 151.34 128.994 151.348 128.895C151.356 128.797 151.336 128.698 151.29 128.61C150.582 127.587 149.807 126.612 148.97 125.69L148.46 126.56C149.72 127.09 150.98 127.56 152.25 128.12C152.79 128.35 153.06 127.59 152.76 127.24C151.936 126.203 150.886 125.369 149.69 124.8C149.17 124.54 148.58 125.2 149.04 125.64C149.948 126.491 151.025 127.141 152.2 127.55C152.72 127.73 153.08 127.01 152.72 126.65C151.791 125.706 150.765 124.861 149.66 124.13L149.12 125.06C150.05 125.62 150.98 126.18 151.92 126.73C152.031 126.792 152.16 126.812 152.285 126.786C152.409 126.76 152.52 126.691 152.597 126.591C152.675 126.49 152.713 126.365 152.707 126.239C152.7 126.112 152.648 125.992 152.56 125.9C151.425 124.66 150.114 123.592 148.67 122.73L148.17 123.6C149.887 124.716 151.791 125.512 153.79 125.95C154.21 126.03 154.64 125.5 154.25 125.17C153.034 124.117 151.656 123.266 150.17 122.65C149.75 122.47 149.44 123.11 149.74 123.4C151.023 124.645 152.577 125.576 154.28 126.12C154.7 126.26 154.95 125.72 154.69 125.42C153.796 124.415 152.762 123.542 151.62 122.83L151.2 123.55C153.26 124.641 155.437 125.493 157.69 126.09C157.779 126.115 157.874 126.109 157.96 126.074C158.045 126.039 158.117 125.977 158.164 125.897C158.21 125.818 158.229 125.725 158.218 125.633C158.206 125.541 158.165 125.456 158.1 125.39C156.698 123.854 154.95 122.675 153 121.95C152.55 121.78 152.26 122.5 152.67 122.72L156.29 124.72C156.65 124.91 157.13 124.51 156.88 124.14C156.207 123.079 155.232 122.243 154.08 121.74C153.983 121.683 153.868 121.667 153.759 121.695C153.65 121.723 153.557 121.793 153.5 121.89C153.443 121.987 153.427 122.103 153.455 122.211C153.483 122.32 153.553 122.413 153.65 122.47C155.088 123.468 156.72 124.149 158.44 124.47C158.81 124.54 159.22 124.04 158.85 123.75C157.932 123.002 156.951 122.333 155.92 121.75L155.48 122.5C156.722 123.146 158.021 123.675 159.36 124.08C159.71 124.19 160.12 123.74 159.87 123.41C159.398 122.744 158.774 122.199 158.05 121.82L157.69 122.67C159.43 123.37 161.18 123.97 162.98 124.5C163.041 124.517 163.105 124.522 163.168 124.515C163.231 124.507 163.292 124.487 163.347 124.456C163.402 124.425 163.451 124.383 163.49 124.333C163.529 124.283 163.558 124.226 163.575 124.165C163.592 124.104 163.597 124.04 163.589 123.977C163.582 123.914 163.562 123.854 163.531 123.798C163.5 123.743 163.458 123.695 163.408 123.655C163.358 123.616 163.301 123.587 163.24 123.57C161.44 123.05 159.68 122.45 157.94 121.77C157.45 121.58 157.12 122.38 157.58 122.62C158.235 122.889 158.788 123.358 159.16 123.96L159.6 123.2C158.331 122.833 157.099 122.347 155.92 121.75C155.42 121.5 154.99 122.23 155.48 122.5C156.479 123 157.409 123.625 158.25 124.36L158.66 123.64C157.021 123.34 155.461 122.703 154.08 121.77L153.65 122.5C154.706 122.877 155.59 123.623 156.14 124.6L156.72 124.02L153.1 122L152.77 122.77C154.59 123.44 156.217 124.545 157.51 125.99L157.91 125.29C155.727 124.712 153.617 123.886 151.62 122.83C151.526 122.79 151.42 122.786 151.323 122.818C151.226 122.85 151.144 122.916 151.092 123.005C151.041 123.093 151.023 123.198 151.043 123.298C151.063 123.398 151.119 123.488 151.2 123.55C152.281 124.225 153.258 125.054 154.1 126.01L154.5 125.32C152.944 124.804 151.529 123.931 150.37 122.77L149.83 123.47C151.207 124.041 152.478 124.839 153.59 125.83L154 125C152.087 124.557 150.268 123.775 148.63 122.69C148.08 122.36 147.63 123.22 148.13 123.56C149.482 124.38 150.708 125.39 151.77 126.56L152.42 125.73L149.62 124.04C149.498 123.984 149.359 123.975 149.231 124.015C149.102 124.056 148.994 124.143 148.926 124.259C148.859 124.375 148.837 124.513 148.865 124.644C148.894 124.776 148.97 124.892 149.08 124.97C150.137 125.674 151.116 126.488 152 127.4L152.52 126.5C151.491 126.213 150.561 125.649 149.83 124.87L149.18 125.71C150.273 126.263 151.235 127.044 152 128L152.52 127.11L148.73 125.57C148.21 125.36 147.9 126.09 148.22 126.44C149.041 127.26 149.772 128.165 150.4 129.14L150.98 128.39C149.565 127.916 148.19 127.327 146.87 126.63C146.46 126.42 145.93 126.87 146.21 127.3L147 129L147.62 128.52L147.11 127.89L146.55 128.33L147.83 129.53C147.85 129.562 147.882 129.585 147.918 129.593C147.955 129.602 147.993 129.595 148.025 129.575C148.057 129.555 148.08 129.524 148.088 129.487C148.096 129.451 148.09 129.412 148.07 129.38L148.08 129.41Z" fill="white"/>
<path d="M177.92 93.6198C179.07 93.4798 180.2 93.1798 181.35 92.9998C182.665 92.9192 183.969 92.7048 185.24 92.3598C185.313 92.3408 185.377 92.2957 185.419 92.233C185.461 92.1704 185.479 92.0944 185.47 92.0195C185.46 91.9446 185.423 91.8758 185.366 91.8262C185.309 91.7765 185.236 91.7494 185.16 91.7498C183.98 91.7051 182.801 91.8572 181.67 92.1998C180.38 92.4356 179.109 92.7699 177.87 93.1998C177.69 93.2798 177.68 93.6098 177.87 93.5798L177.92 93.6198Z" fill="white"/>
<path d="M178.89 98.6402C180.89 98.7002 182.89 99.1202 184.89 99.3002C185.22 99.3002 185.24 98.8502 184.96 98.7502C182.986 98.144 180.924 97.8736 178.86 97.9502C178.779 97.9641 178.705 98.0064 178.652 98.0695C178.599 98.1327 178.569 98.2126 178.569 98.2952C178.569 98.3778 178.599 98.4577 178.652 98.5209C178.705 98.584 178.779 98.6263 178.86 98.6402H178.89Z" fill="white"/>
<path d="M178.051 102.61C180.513 104.021 183.105 105.193 185.791 106.11C186.241 106.27 186.441 105.53 185.981 105.39C183.297 104.622 180.694 103.594 178.211 102.32C178.174 102.309 178.134 102.312 178.099 102.327C178.063 102.341 178.034 102.368 178.015 102.401C177.997 102.435 177.99 102.474 177.997 102.512C178.003 102.55 178.022 102.584 178.051 102.61V102.61Z" fill="white"/>
<path d="M87.7602 14.7003C87.71 14.1848 87.71 13.6657 87.7602 13.1503C87.7801 12.9766 87.7302 12.8021 87.6214 12.6652C87.5126 12.5283 87.3539 12.4402 87.1802 12.4203C87.0065 12.4004 86.832 12.4503 86.6951 12.5591C86.5582 12.6679 86.4701 12.8266 86.4502 13.0003C86.0818 15.3149 85.9112 17.6567 85.9402 20.0003C85.7424 22.6624 85.7089 25.3341 85.8402 28.0003C85.8683 28.3164 86.0138 28.6105 86.2479 28.8247C86.482 29.0389 86.7879 29.1577 87.1052 29.1577C87.4225 29.1577 87.7284 29.0389 87.9625 28.8247C88.1966 28.6105 88.3421 28.3164 88.3702 28.0003C88.4798 25.333 88.4297 22.6616 88.2202 20.0003C88.2413 17.6566 88.0673 15.3152 87.7002 13.0003L86.4502 13.3403C86.6472 13.8259 86.8011 14.3278 86.9102 14.8403C86.932 14.9476 86.994 15.0426 87.0835 15.1058C87.173 15.169 87.2832 15.1957 87.3917 15.1803C87.5002 15.165 87.5987 15.1089 87.6672 15.0234C87.7357 14.9379 87.7689 14.8295 87.7602 14.7203V14.7003Z" fill="#FFE500"/>
<path d="M89.05 28.3999L89 28.2699C88.9161 28.1247 88.795 28.0045 88.649 27.9218C88.5031 27.8392 88.3377 27.7971 88.17 27.7999C86.1467 28.1593 84.3485 29.3065 83.17 30.9899C82.17 32.4499 81.56 35.1999 83.34 36.2999C83.4711 36.3737 83.6172 36.417 83.7674 36.4265C83.9175 36.436 84.0679 36.4114 84.2073 36.3547C84.3467 36.298 84.4714 36.2106 84.5723 36.0989C84.6732 35.9873 84.7476 35.8543 84.79 35.7099C85.05 34.4299 84.56 33.2499 85.32 32.0299C86.1074 30.9048 87.242 30.0688 88.55 29.6499C88.6748 29.6139 88.7898 29.5501 88.8865 29.4633C88.9831 29.3764 89.0588 29.2688 89.1079 29.1485C89.1569 29.0282 89.1781 28.8984 89.1698 28.7687C89.1615 28.6391 89.124 28.513 89.06 28.3999H89.05Z" fill="#FFE500"/>
<path d="M84.9099 36.4203C87.9099 36.6303 90.7899 36.6603 93.7299 36.9603C96.6699 37.2603 99.6299 38.0303 102.52 37.7403C102.787 37.726 103.042 37.6186 103.238 37.4368C103.435 37.255 103.563 37.0102 103.598 36.7446C103.634 36.479 103.575 36.2094 103.433 35.9822C103.291 35.755 103.074 35.5846 102.82 35.5003C100.16 34.5903 97.1999 34.7403 94.4099 34.7103C91.2414 34.6269 88.0707 34.7037 84.9099 34.9403C84.7137 34.9403 84.5254 35.0183 84.3867 35.1571C84.2479 35.2958 84.1699 35.4841 84.1699 35.6803C84.1699 35.8766 84.2479 36.0648 84.3867 36.2036C84.5254 36.3424 84.7137 36.4203 84.9099 36.4203Z" fill="#FFE500"/>
<path d="M104.081 34.0705C103.851 32.4117 103.159 30.851 102.084 29.5671C101.008 28.2832 99.5933 27.3279 98.0006 26.8105C96.5106 26.3905 95.8806 28.8105 97.3706 29.1005C98.6798 29.3981 99.8803 30.0543 100.838 30.9957C101.795 31.9371 102.471 33.1265 102.791 34.4305C102.854 34.5811 102.97 34.7032 103.117 34.7741C103.264 34.845 103.432 34.8598 103.589 34.8156C103.747 34.7713 103.882 34.6712 103.971 34.534C104.06 34.3968 104.095 34.232 104.071 34.0705H104.081Z" fill="#FFE500"/>
<path d="M100 27.3297C100.456 25.2788 100.657 23.1798 100.6 21.0797C100.67 18.9897 101.07 16.7097 100.46 14.6997C100.393 14.472 100.254 14.2722 100.064 14.1301C99.8738 13.9879 99.6427 13.9111 99.4053 13.9111C99.1679 13.9111 98.9369 13.9879 98.7468 14.1301C98.5566 14.2722 98.4175 14.472 98.3503 14.6997C97.7303 16.6997 98.1403 18.9897 98.2103 21.0797C98.1437 23.1801 98.3453 25.2804 98.8103 27.3297C98.848 27.4583 98.9264 27.5713 99.0336 27.6517C99.1409 27.732 99.2713 27.7754 99.4053 27.7754C99.5394 27.7754 99.6698 27.732 99.7771 27.6517C99.8843 27.5713 99.9627 27.4583 100 27.3297V27.3297Z" fill="#FFE500"/>
<path d="M88.0004 13.5602C87.5161 12.9012 87.194 12.1371 87.0604 11.3302C86.9204 10.5102 87.1405 9.71023 86.5505 9.04023C86.4014 8.89663 86.2024 8.81641 85.9955 8.81641C85.7885 8.81641 85.5895 8.89663 85.4405 9.04023C84.5805 9.78023 85.0405 11.1502 85.4405 12.0402C85.8227 12.9597 86.4838 13.7361 87.3305 14.2602C87.7405 14.5202 88.3304 13.9802 88.0304 13.5602H88.0004Z" fill="#FFE500"/>
<path d="M85.6301 10.4802C88.4601 10.4802 91.2401 10.3602 94.0601 10.5502C96.5901 10.7102 99.1401 11.4102 101.63 10.8902C102.97 10.6102 102.63 8.89019 101.63 8.48019C99.1801 7.48019 96.0701 7.90019 93.4601 8.09019C90.774 8.24378 88.1013 8.57787 85.4601 9.09019C84.6701 9.25019 84.8601 10.4902 85.6501 10.4802H85.6301Z" fill="#FFE500"/>
<path d="M102.11 10.0797V9.9997C102.108 9.88999 102.08 9.78228 102.03 9.68459C101.98 9.58689 101.909 9.50172 101.822 9.43542C101.734 9.36911 101.633 9.32338 101.525 9.30161C101.418 9.27985 101.307 9.28261 101.2 9.3097C100.1 9.4697 100.2 11.1997 99.7703 11.9797C99.4856 12.5826 99.0885 13.1257 98.6003 13.5797C98.0855 13.9332 97.5975 14.3243 97.1403 14.7497C96.4703 15.5797 96.7903 17.2897 98.1403 17.1497C98.8865 16.9992 99.5798 16.6547 100.15 16.1508C100.721 15.6469 101.149 15.0015 101.39 14.2797C101.668 13.6425 101.853 12.9691 101.94 12.2797C102 11.8097 101.8 10.7597 102.02 10.4097L101.4 10.7597H101.49C101.654 10.7571 101.81 10.691 101.926 10.5753C102.042 10.4595 102.108 10.3033 102.11 10.1397V10.0797Z" fill="#FFE500"/>
<path d="M48.6807 5.13033C54.9007 22.8203 62.5807 40.1303 69.8807 57.4003C70.1107 57.9303 71.0507 57.5403 70.8807 57.0003C63.8807 39.6003 57.1707 21.9003 49.1207 5.00033C49.0207 4.78033 48.6507 4.94033 48.7307 5.17033L48.6807 5.13033Z" fill="white"/>
<path d="M3.73069 18.0001C3.03383 18.3125 2.28373 18.489 1.52069 18.5201L1.93069 19.5201C10.0007 15.4301 18.7307 18.2801 27.1507 16.0001C35.0007 13.8901 41.3107 8.3701 49.3007 6.6001C50.3007 6.3701 49.8907 4.8301 48.8607 5.0201C40.3407 6.6401 33.6707 12.9101 25.2307 14.6901C17.3407 16.3501 8.35069 13.5701 1.40069 18.6101C0.840688 19.0101 1.40069 19.9301 1.93069 19.5201C2.49414 19.0065 3.14874 18.6029 3.86069 18.3301C3.88926 18.3067 3.90943 18.2746 3.91812 18.2386C3.92682 18.2027 3.92357 18.165 3.90888 18.131C3.89419 18.0971 3.86885 18.0689 3.83669 18.0507C3.80454 18.0325 3.76733 18.0253 3.73069 18.0301V18.0001Z" fill="white"/>
<path d="M5.76043 19.2597V18.7797C5.76537 18.7646 5.76667 18.7487 5.76424 18.733C5.7618 18.7174 5.7557 18.7026 5.74643 18.6898C5.73716 18.677 5.72499 18.6666 5.7109 18.6594C5.69682 18.6522 5.68124 18.6484 5.66543 18.6484C5.64962 18.6484 5.63404 18.6522 5.61996 18.6594C5.60587 18.6666 5.5937 18.677 5.58443 18.6898C5.57516 18.7026 5.56905 18.7174 5.56662 18.733C5.56419 18.7487 5.56549 18.7646 5.57043 18.7797V19.2597C5.57043 19.2888 5.58202 19.3168 5.60265 19.3374C5.62328 19.3581 5.65126 19.3697 5.68043 19.3697C5.7096 19.3697 5.73758 19.3581 5.75821 19.3374C5.77884 19.3168 5.79043 19.2888 5.79043 19.2597H5.76043Z" fill="white"/>
<path d="M0.0503281 19.6799C4.80033 27.3999 13.4203 30.1599 12.7503 40.6799C12.4703 45.2199 14.1303 48.8699 19.3003 48.5099C23.2403 48.2299 26.3803 45.6099 30.4403 45.4399C34.5003 45.2699 38.4403 46.3299 42.4403 45.8299C50.0403 44.8899 55.3903 39.1199 62.7403 37.7199C63.8703 37.4999 63.3903 35.7899 62.2603 35.9899C56.0703 37.1099 51.4603 41.6299 45.4803 43.3199C38.4203 45.3199 31.3003 42.2499 24.3903 44.9499C20.7303 46.3799 21.1003 46.9499 17.3903 44.2899C13.6803 41.6299 14.5503 42.2899 14.5603 38.5499C14.5869 36.5031 14.1023 34.482 13.1503 32.6699C10.3503 27.2199 4.73033 23.5299 0.580328 19.2699C0.52122 19.2158 0.444897 19.1843 0.364828 19.181C0.28476 19.1776 0.206091 19.2027 0.142706 19.2517C0.0793209 19.3008 0.0352927 19.3706 0.0183909 19.449C0.00148907 19.5273 0.0128001 19.6091 0.0503281 19.6799V19.6799Z" fill="white"/>
<path d="M22.46 29.8102C22.6918 29.8625 22.9318 29.8673 23.1656 29.8243C23.3993 29.7814 23.6219 29.6915 23.82 29.5602C24.03 29.4202 23.82 29.0902 23.63 29.2202C23.4763 29.324 23.3026 29.3945 23.1201 29.4272C22.9375 29.46 22.7502 29.4542 22.57 29.4102C22.31 29.3602 22.2 29.7602 22.46 29.8102Z" fill="white"/>
<path d="M18.4205 40.8602L19.6205 41.0002C20.0005 41.0002 20.0005 40.3802 19.6205 40.4102L18.4205 40.5602C18.3807 40.5602 18.3426 40.576 18.3144 40.6042C18.2863 40.6323 18.2705 40.6705 18.2705 40.7102C18.2705 40.75 18.2863 40.7882 18.3144 40.8163C18.3426 40.8444 18.3807 40.8602 18.4205 40.8602V40.8602Z" fill="white"/>
<path d="M18.4201 40.8803C18.4594 40.8708 18.4943 40.8484 18.5194 40.8167C18.5444 40.7849 18.558 40.7457 18.558 40.7053C18.558 40.6649 18.5444 40.6256 18.5194 40.5939C18.4943 40.5621 18.4594 40.5397 18.4201 40.5303C18.3808 40.5397 18.3458 40.5621 18.3208 40.5939C18.2958 40.6256 18.2822 40.6649 18.2822 40.7053C18.2822 40.7457 18.2958 40.7849 18.3208 40.8167C18.3458 40.8484 18.3808 40.8708 18.4201 40.8803V40.8803Z" fill="white"/>
<path d="M15.0003 42.4999C18.9372 40.6979 23.1368 39.5366 27.4403 39.0599C31.9803 38.6899 36.4403 39.9799 40.9503 39.6199C48.2003 38.9999 55.5703 34.9999 62.1403 32.1899C63.0403 31.7999 62.4003 30.2499 61.4703 30.5999C53.0003 33.7399 44.6003 38.6899 35.3003 37.7799C27.9703 37.0699 21.0603 37.7799 14.7403 41.7799C14.4103 41.9999 14.6203 42.6199 15.0203 42.4599L15.0003 42.4999Z" fill="white"/>
<path d="M14.2006 37.78C17.9106 36.78 20.6806 34.07 24.3406 33.01C28.7506 31.74 33.4306 33.01 37.8306 33.55C41.0416 34.0899 44.3276 33.9913 47.5006 33.26C51.4506 32.19 55.0006 30 59.0006 29.07C60.4506 28.74 59.8306 26.52 58.3806 26.84C54.3106 27.72 50.9206 30.04 46.9506 31.18C42.3006 32.51 37.9506 31.59 33.2606 31.06C29.6106 30.65 25.9306 30.42 22.4606 31.85C19.3606 33.13 16.9306 35.58 13.8906 36.99C13.4406 37.2 13.7606 37.9 14.2206 37.78H14.2006Z" fill="white"/>
<path d="M11.4 32.1701C14.83 30.1701 17.74 27.9001 21.71 26.9201C26.66 25.6901 30.71 26.8401 35.49 27.9201C42.26 29.3901 49.9 25.7601 56.28 23.7701C57.28 23.4601 57.14 21.7701 56.02 21.8901L54.81 22.0001C54.594 22.0232 54.3943 22.1254 54.2491 22.2869C54.104 22.4484 54.0237 22.6579 54.0237 22.8751C54.0237 23.0923 54.104 23.3018 54.2491 23.4633C54.3943 23.6248 54.594 23.727 54.81 23.7501H56.02L55.77 21.8701C51.4 23.1501 47.08 24.7301 42.68 25.8701C37.43 27.2301 33.16 25.0001 28 24.7601C22 24.4901 14.66 26.7601 11.08 31.8701C10.95 32.0601 11.2 32.2801 11.38 32.1701H11.4Z" fill="white"/>
<path d="M7.00065 25.0806C10.0707 24.7906 12.2707 22.7406 15.1907 21.9306C19.7107 20.6906 24.8007 21.9306 29.4107 21.8806C37.4896 21.7937 45.4746 20.1363 52.9207 17.0006C54.1707 16.4806 53.6207 14.4106 52.3507 14.9406C44.273 18.3967 35.5766 20.1727 26.7907 20.1606C23.3907 20.1606 19.7907 19.5206 16.4507 20.1606C12.8507 20.8906 10.3507 23.4106 6.99065 24.7006C6.81065 24.7706 6.82065 25.0806 6.99065 25.0606L7.00065 25.0806Z" fill="white"/>
<path d="M24.6904 45.5C24.3604 40.18 20.8404 34.37 18.0004 30C14.9083 25.1887 11.0391 20.9241 6.5504 17.38C5.9604 16.93 5.2304 17.91 5.7604 18.38C10.1074 22.2273 13.9663 26.5932 17.2504 31.38C20.1704 35.88 21.6004 41.08 24.3604 45.58C24.3813 45.6116 24.4116 45.6359 24.4471 45.6492C24.4826 45.6626 24.5214 45.6645 24.558 45.6545C24.5946 45.6445 24.6271 45.6232 24.6509 45.5937C24.6746 45.5641 24.6885 45.5278 24.6904 45.49V45.5Z" fill="white"/>
<path d="M17.7606 16.8398C19.7006 21.3998 23.1506 25.2698 25.6606 29.5398C28.4479 34.3359 30.8811 39.3292 32.9406 44.4798C32.9923 44.6404 33.0787 44.7877 33.1937 44.9111C33.3087 45.0346 33.4494 45.1312 33.6059 45.1942C33.7624 45.2572 33.9309 45.285 34.0993 45.2756C34.2678 45.2662 34.4321 45.2198 34.5806 45.1398L35.0006 44.9998C35.1662 44.9054 35.3035 44.7685 35.3985 44.6033C35.4934 44.438 35.5425 44.2504 35.5406 44.0598V43.6598C35.5221 43.4565 35.4418 43.2637 35.3105 43.1074C35.1792 42.951 35.0031 42.8386 34.8061 42.7853C34.609 42.7319 34.4003 42.7402 34.208 42.8089C34.0158 42.8777 33.8492 43.0036 33.7306 43.1698L35.1006 43.9498C33.1757 39.1442 30.8334 34.5165 28.1006 30.1198C25.1006 25.3698 21.3806 21.2198 18.3206 16.5498C18.2742 16.4716 18.1986 16.415 18.1105 16.3925C18.0223 16.37 17.9289 16.3834 17.8506 16.4298C17.7724 16.4763 17.7158 16.5518 17.6933 16.64C17.6708 16.7281 17.6842 16.8216 17.7306 16.8998L17.7606 16.8398Z" fill="white"/>
<path d="M43.5105 43.6799C43.3405 39.3899 39.5105 34.1199 37.5105 30.4899C34.6086 25.3041 31.2876 20.3643 27.5805 15.7199C27.0005 15.0099 25.7505 15.9599 26.2905 16.7199C29.6905 21.5199 33.0805 26.2599 36.1105 31.3099C38.3305 35.0299 40.1805 40.8199 43.3005 43.7799C43.3905 43.8499 43.5405 43.7799 43.5305 43.6799H43.5105Z" fill="white"/>
<path d="M36.0706 11.6499C38.8106 17.1299 42.1306 22.3299 45.3406 27.5399C46.6006 29.5399 47.8306 31.6599 49.2506 33.5899C50.9306 35.8699 53.1806 37.6799 54.6906 40.0899C54.7975 40.2888 54.9687 40.4456 55.1761 40.5348C55.3836 40.624 55.6151 40.6404 55.833 40.5813C56.051 40.5222 56.2425 40.391 56.3764 40.2092C56.5103 40.0274 56.5787 39.8056 56.5706 39.5799V38.7799C56.6306 37.7099 55.2006 37.7199 54.8506 38.5499L54.5406 39.3099L56.3806 39.0699C53.7406 34.3399 49.6506 30.2499 46.6006 25.7099C43.3306 20.8399 40.1306 15.8899 36.4506 11.3299C36.2506 11.0799 35.9006 11.3999 36.0206 11.6499H36.0706Z" fill="white"/>
<path d="M7.64984 22.7804C6.88223 22.2586 6.20641 21.6132 5.64984 20.8704C5.581 20.7617 5.48315 20.6745 5.36735 20.6185C5.25155 20.5625 5.1224 20.54 4.99449 20.5535C4.86657 20.567 4.74498 20.616 4.64345 20.695C4.54191 20.774 4.46446 20.8797 4.41984 21.0004C4.23188 21.5529 4.2407 22.1534 4.44482 22.7001C4.64893 23.2469 5.03579 23.7062 5.53984 24.0004C6.37984 24.5904 7.10984 23.2504 6.32984 22.6504C5.54984 22.0504 4.59984 21.3604 3.72984 20.7204C2.85984 20.0804 2.32984 21.1904 2.61984 21.8404C3.01439 22.7327 3.72751 23.4458 4.61984 23.8404C4.74568 23.9086 4.88686 23.9436 5.03 23.9419C5.17314 23.9403 5.31349 23.9021 5.43771 23.8309C5.56194 23.7598 5.66593 23.6581 5.73981 23.5355C5.81369 23.4129 5.85501 23.2734 5.85984 23.1304C5.95761 22.3646 5.87192 21.5865 5.60984 20.8604L4.22984 21.6704C4.88268 22.3463 5.64723 22.9044 6.48984 23.3204C7.13984 23.6404 8.09984 22.9304 7.58984 22.2304C6.74015 21.0357 5.66704 20.0169 4.42984 19.2304C3.56984 18.6904 2.83984 20.0004 3.63984 20.5704C5.43441 21.8465 7.37478 22.9039 9.41984 23.7204C10.1198 24.0104 10.7398 22.9104 10.1598 22.4404C8.97041 21.4667 7.72131 20.5683 6.41984 19.7504L5.63984 21.1004L8.63984 22.8004C9.20984 23.1104 10.0298 22.5804 9.79984 21.9104C9.65202 21.4327 9.39399 20.9965 9.04658 20.637C8.69917 20.2774 8.27211 20.0045 7.79984 19.8404C6.88984 19.4804 6.53984 20.8404 7.18984 21.2904C7.86239 21.7955 8.60307 22.2029 9.38984 22.5004C10.0798 22.7704 10.5898 21.8904 10.2898 21.3304C9.91104 20.6217 9.40218 19.9907 8.78984 19.4704C8.63441 19.3428 8.43708 19.2776 8.23624 19.2875C8.03539 19.2973 7.8454 19.3816 7.70321 19.5237C7.56102 19.6659 7.47681 19.8559 7.46694 20.0568C7.45708 20.2576 7.52227 20.4549 7.64984 20.6104C8.14622 21.2138 8.80581 21.6617 9.54984 21.9004C10.3998 22.1604 10.7498 21.0204 10.1198 20.5504C9.65162 20.2421 9.21604 19.887 8.81984 19.4904L7.67984 20.6304C8.19219 21.0528 8.61975 21.5686 8.93984 22.1504L9.83984 21.0004C9.19054 20.7513 8.57824 20.4149 8.01984 20.0004L7.40984 21.4504C7.6315 21.525 7.82956 21.6567 7.98406 21.8323C8.13856 22.0078 8.24403 22.221 8.28984 22.4504L9.44984 21.5604L6.44984 19.8704C6.27134 19.775 6.06277 19.7528 5.86818 19.8083C5.67359 19.8639 5.50821 19.9929 5.40697 20.1682C5.30572 20.3434 5.27655 20.5511 5.3256 20.7474C5.37465 20.9438 5.49809 21.1134 5.66984 21.2204C6.87099 21.9467 8.0204 22.7553 9.10984 23.6404L9.84984 22.3604C7.94192 21.5749 6.13286 20.568 4.45984 19.3604L3.66984 20.7004C4.6556 21.294 5.51519 22.0755 6.19984 23.0004L7.28984 21.9104C6.57575 21.5475 5.93229 21.0598 5.38984 20.4704C5.26 20.3341 5.08767 20.246 4.90115 20.2205C4.71463 20.195 4.525 20.2337 4.36337 20.3303C4.20174 20.4268 4.07772 20.5754 4.01166 20.7516C3.94561 20.9279 3.94144 21.1214 3.99984 21.3004C4.20238 21.8878 4.26738 22.5139 4.18984 23.1304L5.42984 22.4104C5.10875 22.2839 4.81655 22.0938 4.57081 21.8515C4.32507 21.6091 4.13085 21.3197 3.99984 21.0004L2.90984 22.0904C3.77984 22.7204 4.64984 23.3504 5.53984 23.9604L6.32984 22.6104C6.10418 22.4618 5.92828 22.249 5.82488 21.9994C5.72148 21.7498 5.69534 21.475 5.74984 21.2104L4.58984 21.6904C5.44043 22.3832 6.39126 22.9429 7.40984 23.3504C7.75984 23.4904 7.91984 22.9704 7.64984 22.7804Z" fill="white"/>
<path d="M20.1803 26.0004C18.5603 25.3804 16.9803 24.5804 15.3903 23.8704C15.0503 23.7204 14.5103 23.8004 14.3903 24.2604C14.3086 24.5584 14.3111 24.8732 14.3976 25.1698C14.4841 25.4663 14.6512 25.7331 14.8803 25.9404C15.5403 26.6304 16.4503 25.6304 15.8803 24.9404L14.7903 23.5504L14.0603 24.7904C15.5937 25.3371 17.1436 25.8171 18.7103 26.2304C19.3103 26.3904 20.0003 25.6704 19.5803 25.1004C18.8644 24.1179 18.0087 23.2453 17.0403 22.5104L16.2503 23.8604C17.3027 24.487 18.4416 24.9553 19.6303 25.2504C19.7794 25.2851 19.9354 25.2762 20.0796 25.2249C20.2239 25.1736 20.3504 25.0819 20.4441 24.9608C20.5378 24.8397 20.5948 24.6943 20.6083 24.5418C20.6218 24.3893 20.5913 24.2361 20.5203 24.1004C20.0551 23.171 19.3195 22.404 18.4103 21.9004L17.6103 23.2704L20.8603 24.7404C21.5403 25.0504 22.3603 24.4004 21.9303 23.6704C21.3587 22.646 20.4662 21.8379 19.3903 21.3704C19.2118 21.2884 19.0091 21.2758 18.8218 21.3352C18.6345 21.3945 18.476 21.5216 18.3773 21.6915C18.2787 21.8614 18.2468 22.0619 18.288 22.254C18.3293 22.4461 18.4406 22.616 18.6003 22.7304C19.466 23.3016 20.4 23.7619 21.3803 24.1004C22.0903 24.3504 22.7603 23.2804 22.1403 22.8004L20.1403 21.2604C19.6103 20.8404 18.5203 21.2004 18.8403 22.0204C18.9518 22.39 19.1792 22.714 19.489 22.9445C19.7987 23.1749 20.1743 23.2997 20.5603 23.3004C21.5603 23.3704 21.5603 21.8104 20.5603 21.7504L20.3403 21.6004L19.0403 22.3604L21.0403 23.9004L21.8003 22.5904C20.9469 22.2913 20.1366 21.8811 19.3903 21.3704L18.6003 22.7304C19.4438 23.0637 20.1491 23.6737 20.6003 24.4604L21.6703 23.3904L18.4303 21.9004C17.5203 21.4904 16.7303 22.7504 17.6303 23.2704C18.3029 23.6361 18.8447 24.2023 19.1803 24.8904L20.0703 23.7404C19.0143 23.4831 18.003 23.0685 17.0703 22.5104C16.1803 21.9804 15.5103 23.2604 16.2803 23.8604C17.0378 24.4297 17.7111 25.103 18.2803 25.8604L19.1503 24.7204C17.577 24.3071 16.0236 23.8471 14.4903 23.3404C13.7203 23.0804 13.3303 24.0604 13.7703 24.5804L14.8903 25.9404L15.8903 24.9404L15.6503 24.4504L14.8303 25.0704C16.5603 25.4804 18.3403 25.8004 20.0503 26.3004C20.0687 26.305 20.0878 26.306 20.1066 26.3032C20.1253 26.3004 20.1433 26.2939 20.1596 26.2842C20.1758 26.2744 20.19 26.2616 20.2013 26.2463C20.2125 26.2311 20.2207 26.2138 20.2253 26.1954C20.2299 26.177 20.2308 26.1579 20.2281 26.1392C20.2253 26.1204 20.2188 26.1024 20.2091 26.0862C20.1993 26.0699 20.1865 26.0558 20.1712 26.0445C20.156 26.0332 20.1387 26.025 20.1203 26.0204L20.1803 26.0004Z" fill="white"/>
<path d="M21.5603 18.0004L19.9403 17.4404C19.4103 16.9504 18.6103 17.7504 19.1503 18.2304C20.2812 19.2422 21.6623 19.9328 23.1503 20.2304C23.2901 20.2656 23.4372 20.2597 23.5738 20.2134C23.7103 20.1672 23.8307 20.0825 23.9204 19.9696C24.0101 19.8567 24.0653 19.7203 24.0795 19.5768C24.0937 19.4333 24.0662 19.2887 24.0003 19.1604L22.8803 17.3604L21.6803 18.2904C22.8026 19.1679 24.0541 19.8662 25.3903 20.3604C25.5433 20.3977 25.7038 20.3896 25.8522 20.3371C26.0007 20.2845 26.1306 20.1899 26.2261 20.0647C26.3216 19.9395 26.3785 19.7892 26.3899 19.6321C26.4013 19.4751 26.3667 19.3181 26.2903 19.1804C25.6893 18.1621 24.7468 17.3897 23.6303 17.0004C22.8203 16.6704 22.2803 17.8304 22.8203 18.3804C23.4899 19.1083 24.391 19.5818 25.3703 19.7204C26.0303 19.8304 26.7903 19.1504 26.3703 18.4704L25.6703 17.4704L24.4903 18.6604C25.9873 19.4266 27.5462 20.0655 29.1503 20.5704C30.1503 20.8804 30.5703 19.5204 29.8103 18.9904C29.0503 18.4604 27.4403 16.7204 26.3403 17.4404C26.2021 17.5265 26.0947 17.6542 26.0336 17.8051C25.9725 17.9561 25.9609 18.1225 26.0003 18.2804L26.0603 18.4404C26.1116 18.6154 26.2291 18.7634 26.3878 18.8531C26.5466 18.9427 26.734 18.9669 26.9103 18.9204H27.0303C27.1646 18.8785 27.2819 18.7948 27.3653 18.6814C27.4486 18.5681 27.4936 18.4311 27.4936 18.2904C27.4936 18.1498 27.4486 18.0128 27.3653 17.8994C27.2819 17.7861 27.1646 17.7024 27.0303 17.6604L26.9103 17.6104L27.3903 18.4604V18.3004L26.4803 18.8204C27.3475 19.2877 28.1593 19.8513 28.9003 20.5004L29.5603 18.9304C28.1078 18.4508 26.691 17.8694 25.3203 17.1904C24.6203 16.8404 23.6003 17.6004 24.1403 18.3704L24.8603 19.3704L25.8603 18.1204C25.143 18.0413 24.4804 17.6993 24.0003 17.1604L23.1903 18.5404C23.5584 18.6572 23.8994 18.8466 24.1931 19.0973C24.4868 19.3481 24.7273 19.6552 24.9003 20.0004L25.8003 18.8204C24.651 18.4162 23.5715 17.8359 22.6003 17.1004C21.9703 16.6304 21.1503 17.5304 21.5503 18.1504C21.9503 18.7704 22.3203 19.3304 22.7103 19.9104L23.3503 18.8004C22.067 18.6392 20.851 18.1349 19.8303 17.3404L19.2603 18.3404C19.6104 18.5663 20.0038 18.7167 20.4153 18.7821C20.8268 18.8476 21.2474 18.8265 21.6503 18.7204C21.729 18.6937 21.796 18.6406 21.84 18.5701C21.884 18.4996 21.9023 18.4161 21.8917 18.3336C21.8811 18.2512 21.8423 18.175 21.7819 18.1179C21.7215 18.0608 21.6432 18.0264 21.5603 18.0204V18.0004Z" fill="white"/>
<path d="M12.0606 34.9999C13.0606 35.2099 14.0606 35.4499 15.1406 35.7499C15.2448 35.7775 15.3544 35.7774 15.4586 35.7497C15.5627 35.722 15.6579 35.6676 15.7346 35.5919C15.8114 35.5161 15.867 35.4217 15.8961 35.3179C15.9252 35.2141 15.9267 35.1045 15.9006 34.9999C15.6709 34.2332 15.2391 33.5424 14.6506 32.9999L14.1206 34.2699C14.7783 34.336 15.4223 34.5012 16.0306 34.7599C16.9106 35.1199 17.3506 33.7599 16.6506 33.3099C15.9506 32.8599 15.2506 32.3099 14.5406 31.8999L13.9006 33.4199L16.4106 34.2099C17.4106 34.5299 17.7706 33.2099 17.0606 32.6699C16.1944 32.002 15.2746 31.4066 14.3106 30.8899L13.6506 32.4699L16.5906 33.3499C17.5906 33.6599 18.0306 32.2999 17.2606 31.7499L14.7406 29.9799L14.2906 31.6399C14.7716 31.6999 15.233 31.8674 15.6406 32.1299C15.7935 32.2145 15.9678 32.2527 16.1421 32.2398C16.3164 32.227 16.4831 32.1637 16.6221 32.0577C16.761 31.9516 16.866 31.8074 16.9243 31.6427C16.9827 31.4779 16.9918 31.2998 16.9506 31.1299L16.8006 30.2599L15.6906 31.3699L17.8506 31.9899C18.0426 32.0362 18.2445 32.0194 18.4262 31.942C18.608 31.8647 18.7601 31.7309 18.8599 31.5604C18.9597 31.3899 19.002 31.1918 18.9805 30.9954C18.959 30.799 18.8749 30.6148 18.7406 30.4699C18.3505 29.9882 17.904 29.5551 17.4106 29.1799C16.7006 28.6899 15.8906 29.6299 16.2706 30.3199C16.6071 30.8438 17.003 31.327 17.4506 31.7599L18.3406 30.2299L16.1706 29.6299C16.017 29.5899 15.8557 29.5908 15.7026 29.6324C15.5495 29.674 15.4099 29.7549 15.2977 29.8671C15.1855 29.9793 15.1046 30.1188 15.063 30.272C15.0214 30.4251 15.0206 30.5864 15.0606 30.7399L15.2206 31.5999L16.5406 30.5999C15.8553 30.1915 15.0856 29.9452 14.2906 29.8799C13.3406 29.7799 13.2006 31.0899 13.8506 31.5399L16.3806 33.2899L17.0506 31.6899L14.0506 30.8299C13.8501 30.7771 13.6374 30.7985 13.4515 30.8901C13.2656 30.9816 13.119 31.1372 13.0387 31.3283C12.9584 31.5193 12.9497 31.733 13.0144 31.9299C13.079 32.1268 13.2126 32.2937 13.3906 32.3999C14.3604 32.9061 15.2869 33.4914 16.1606 34.1499L16.8106 32.5999L14.2906 31.8299C14.0997 31.7899 13.9008 31.8175 13.7281 31.908C13.5554 31.9985 13.4195 32.1463 13.3438 32.3261C13.2682 32.5058 13.2574 32.7063 13.3133 32.8931C13.3693 33.0799 13.4885 33.2414 13.6506 33.3499C14.3606 33.8099 15.0806 34.2499 15.7906 34.6999L16.4106 33.2499C15.661 32.971 14.8701 32.8189 14.0706 32.7999C13.908 32.8023 13.7506 32.8574 13.6221 32.957C13.4935 33.0566 13.4009 33.1952 13.358 33.3521C13.3151 33.5089 13.3244 33.6754 13.3843 33.8265C13.4443 33.9777 13.5518 34.1052 13.6906 34.1899C14.1389 34.5422 14.4843 35.0084 14.6906 35.5399L15.2206 34.6099C14.1606 34.6099 13.1306 34.4899 12.0806 34.3599C11.6706 34.3599 11.5806 34.9999 11.9806 35.0799L12.0606 34.9999Z" fill="white"/>
<path d="M30.7801 28.8204C30.3407 27.8771 29.6484 27.074 28.7801 26.5004C28.0901 26.0204 27.2601 27.1104 27.8901 27.6704C28.9308 28.6166 30.1071 29.402 31.3801 30.0004C31.5193 30.0762 31.6775 30.1101 31.8355 30.0979C31.9935 30.0857 32.1446 30.0279 32.2705 29.9317C32.3964 29.8354 32.4917 29.7047 32.5449 29.5554C32.5981 29.4061 32.6068 29.2446 32.5701 29.0904C32.3607 28.0862 31.8516 27.1692 31.1101 26.4604L29.9301 27.6404C30.7841 28.3471 31.7292 28.9357 32.7401 29.3904C33.4401 29.7104 34.4501 29.0004 33.9101 28.2104C33.5269 27.6219 33.0137 27.1293 32.4101 26.7704C32.2271 26.675 32.0164 26.6469 31.8148 26.6911C31.6133 26.7353 31.4336 26.849 31.3073 27.0122C31.1811 27.1754 31.1162 27.3778 31.124 27.584C31.1318 27.7903 31.2118 27.9872 31.3501 28.1404C32.1733 28.9402 33.1101 29.6142 34.1301 30.1404L34.8201 28.5004C33.5888 28.0516 32.2514 27.982 30.9801 28.3004C29.8101 28.5304 28.7501 27.5704 27.5601 27.5004C27.372 27.5319 27.1968 27.6167 27.0552 27.7445C26.9137 27.8724 26.8117 28.0381 26.7612 28.2221C26.7107 28.406 26.714 28.6006 26.7705 28.7828C26.827 28.965 26.9344 29.1272 27.0801 29.2504C28.081 29.8618 29.1478 30.3583 30.2601 30.7304C30.4401 30.7635 30.6257 30.7465 30.7967 30.6814C30.9677 30.6164 31.1176 30.5056 31.23 30.3612C31.3424 30.2168 31.4131 30.0443 31.4343 29.8626C31.4554 29.6808 31.4263 29.4967 31.3501 29.3304C31.1028 28.8893 30.7208 28.5389 30.2601 28.3304C29.3401 27.9104 28.2601 29.0504 29.1001 29.8504C29.9262 30.6582 30.9679 31.2103 32.1001 31.4404C32.3333 31.4858 32.5752 31.4413 32.7769 31.3157C32.9786 31.1901 33.1252 30.9927 33.1873 30.7634C33.2494 30.534 33.2224 30.2896 33.1116 30.0794C33.0007 29.8692 32.8144 29.7088 32.5901 29.6304C31.7798 29.4379 31.0305 29.046 30.4101 28.4904L29.2901 30.0004L29.6901 30.3004L30.7701 28.9004C29.8031 28.5968 28.8738 28.1842 28.0001 27.6704L27.5301 29.4204C28.5301 29.4804 29.3301 30.2604 30.3501 30.3004C30.8905 30.2668 31.4246 30.166 31.9401 30.0004C32.7552 29.8997 33.5824 30.0134 34.3401 30.3304C34.4511 30.3737 34.5695 30.3948 34.6886 30.3923C34.8077 30.3899 34.9252 30.364 35.0343 30.3162C35.1434 30.2684 35.242 30.1996 35.3245 30.1136C35.407 30.0277 35.4718 29.9263 35.5151 29.8154C35.5585 29.7044 35.5795 29.586 35.5771 29.4669C35.5747 29.3478 35.5488 29.2303 35.501 29.1212C35.4531 29.0121 35.3843 28.9135 35.2984 28.831C35.2124 28.7485 35.1111 28.6837 35.0001 28.6404C34.1061 28.1869 33.2839 27.6039 32.5601 26.9104L31.4901 28.2904C31.8623 28.4666 32.1776 28.7438 32.4001 29.0904L33.5801 27.9104C32.6867 27.5432 31.846 27.0589 31.0801 26.4704C30.2601 25.8304 29.0801 26.8904 29.9001 27.6504C30.4585 28.1432 30.8441 28.8021 31.0001 29.5304L32.1901 28.6204C31.0222 28.102 29.9292 27.4293 28.9401 26.6204L28.0501 27.7804C28.7496 28.1701 29.3355 28.7353 29.7501 29.4204C29.8402 29.5287 29.966 29.6012 30.1049 29.6248C30.2438 29.6485 30.3866 29.6216 30.5074 29.5491C30.6282 29.4766 30.719 29.3633 30.7636 29.2297C30.8081 29.096 30.8033 28.9508 30.7501 28.8204H30.7801Z" fill="white"/>
<path d="M22.7503 37.5201L22.5603 37.6001C22.6625 37.6195 22.7681 37.6066 22.8626 37.5631C22.9571 37.5196 23.0357 37.4478 23.0874 37.3575C23.1391 37.2673 23.1614 37.1632 23.1512 37.0597C23.1409 36.9562 23.0987 36.8585 23.0303 36.7801C22.4155 36.1701 21.746 35.6178 21.0303 35.1301L20.3403 36.3201C21.7303 36.7701 23.1403 37.1901 24.5403 37.6201C25.1603 37.8101 25.8703 37.0101 25.4403 36.4401C24.9058 35.7037 24.2457 35.0673 23.4903 34.5601L22.8403 36.1101L25.5403 37.1801C26.3503 37.5001 27.0903 36.2401 26.4103 35.7001L23.8203 33.6201L23.0003 35.1701L27.3503 36.9401C28.1403 37.2601 28.8403 36.1901 28.4303 35.5301C28.2403 35.2401 26.9803 34.4301 26.9703 34.2701L25.6403 35.0001C25.8629 35.1688 26.1194 35.2873 26.3921 35.3477C26.6647 35.4081 26.9473 35.4089 27.2203 35.3501C27.8303 35.2401 27.8703 34.4801 27.5503 34.0901C27.2303 33.7001 27.1003 33.5301 26.8603 33.2501L25.8603 34.5201C26.6427 34.8943 27.4437 35.2281 28.2603 35.5201C28.4347 35.5642 28.6191 35.5441 28.78 35.4635C28.9408 35.3829 29.0673 35.2471 29.1364 35.0811C29.2055 34.915 29.2126 34.7296 29.1564 34.5587C29.1002 34.3878 28.9845 34.2428 28.8303 34.1501C28.1203 33.7901 27.4003 33.4401 26.6703 33.1501C25.9403 32.8601 25.0103 33.7101 25.6703 34.4101C25.9203 34.6701 26.1803 34.9301 26.4403 35.1701L26.6403 34.0001L26.9003 34.0601C26.8003 33.3001 25.6503 33.2501 25.3303 33.8501C25.1486 34.0887 25.0502 34.3803 25.0502 34.6801C25.0502 34.98 25.1486 35.2715 25.3303 35.5101C25.6703 35.9801 26.4403 36.0801 26.7203 36.5101L27.7903 35.1101L23.4303 33.3901C22.3803 33.0001 22.0003 34.5001 22.7403 35.0701L25.3703 37.0701L26.0503 35.4501C25.1503 35.1101 24.2403 34.7801 23.3303 34.4501C22.4203 34.1201 21.8903 35.5001 22.6703 35.9901C23.2633 36.3606 23.7877 36.8308 24.2203 37.3801L25.0003 36.0701C23.5903 35.6901 22.1803 35.3001 20.7603 34.9501C20.5964 34.9091 20.4232 34.9279 20.2719 35.0031C20.1206 35.0783 20.0011 35.205 19.9348 35.3604C19.8685 35.5158 19.8599 35.6898 19.9104 35.8511C19.9609 36.0123 20.0672 36.1502 20.2103 36.2401C20.9517 36.7623 21.7381 37.2175 22.5603 37.6001L22.3403 36.7801C22.2086 36.8974 22.1285 37.0618 22.1172 37.2378C22.106 37.4138 22.1646 37.5871 22.2803 37.7201C22.4503 37.9401 22.8403 37.8201 22.7503 37.5201V37.5201Z" fill="white"/>
<path d="M22.7901 45.0497C21.4101 44.4297 20.1401 43.6597 18.7901 43.0497L18.1001 44.6797C19.3801 45.0697 20.6601 45.4097 21.9501 45.7697C22.1401 45.7871 22.331 45.7498 22.5005 45.6622C22.67 45.5746 22.8109 45.4404 22.9065 45.2753C23.0022 45.1103 23.0487 44.9213 23.0404 44.7307C23.0322 44.5401 22.9696 44.3559 22.8601 44.1997C22.1853 43.5609 21.4077 43.0403 20.5601 42.6597C19.4601 42.1797 18.4801 43.7297 19.5601 44.3097C20.3811 44.7487 21.29 44.9982 22.2201 45.0397C22.4044 45.0254 22.5812 44.9602 22.7308 44.8515C22.8804 44.7427 22.9968 44.5947 23.0673 44.4237C23.1377 44.2527 23.1594 44.0656 23.1299 43.883C23.1004 43.7005 23.0208 43.5297 22.9001 43.3897C22.1402 42.5195 21.2372 41.7856 20.2301 41.2197L19.4601 42.9997L24.6501 44.4997C24.8864 44.5726 25.1414 44.5554 25.3658 44.4514C25.5901 44.3473 25.768 44.1638 25.865 43.9363C25.9619 43.7087 25.9712 43.4533 25.8908 43.2194C25.8105 42.9855 25.6464 42.7896 25.4301 42.6697C24.1588 41.8115 22.8212 41.0557 21.4301 40.4097L20.6701 42.2197L22.5801 42.6797C22.791 42.7399 23.0158 42.7292 23.22 42.6491C23.4242 42.569 23.5964 42.424 23.71 42.2365C23.8237 42.0489 23.8726 41.8292 23.8491 41.6111C23.8256 41.393 23.7311 41.1887 23.5801 41.0297C22.8781 40.3649 22.066 39.8269 21.1801 39.4397C20.0501 38.9597 19.0601 40.6197 20.1801 41.1097C20.7626 41.3797 21.3832 41.5584 22.0201 41.6397C22.6701 41.7097 23.0201 40.7897 22.5501 40.3797C22.1341 39.9967 21.662 39.6797 21.1501 39.4397L20.1501 41.1097C20.88 41.4454 21.5544 41.8905 22.1501 42.4297L23.1501 40.7697L21.2301 40.3097C20.2301 40.0497 19.4101 41.6197 20.4701 42.1197C21.8621 42.7718 23.1997 43.5342 24.4701 44.3997L25.2501 42.5697C23.5101 42.0697 21.7801 41.5697 20.0401 41.0897C19.8129 41.0424 19.5764 41.0756 19.371 41.1836C19.1657 41.2916 19.0042 41.4676 18.9144 41.6816C18.8246 41.8955 18.8119 42.134 18.8786 42.3562C18.9454 42.5785 19.0873 42.7706 19.2801 42.8997C20.1474 43.3711 20.9258 43.9904 21.5801 44.7297L22.2701 43.0697C21.6797 43.06 21.1002 42.9091 20.5801 42.6297L19.5801 44.2797C20.2927 44.5706 20.9491 44.9835 21.5201 45.4997L22.4001 43.9997C21.1201 43.6597 19.8301 43.3097 18.5401 42.9997C18.312 42.936 18.068 42.9656 17.8617 43.0819C17.6554 43.1981 17.5037 43.3916 17.4401 43.6197C17.3764 43.8478 17.406 44.0918 17.5223 44.2981C17.6385 44.5044 17.832 44.656 18.0601 44.7197C19.4901 45.2497 20.9401 45.5797 22.3701 46.0997C22.9501 46.3097 23.3701 45.3497 22.7901 45.0997V45.0497Z" fill="white"/>
<path d="M35.58 41.6603C34.77 41.0703 33.93 40.5103 33.1 39.9303C32.51 39.5203 31.74 40.4903 32.32 40.9303C33.7175 42.0211 35.2338 42.9503 36.84 43.7003C37.0113 43.7995 37.2126 43.8334 37.4069 43.7957C37.6011 43.7581 37.7752 43.6515 37.8971 43.4955C38.0189 43.3396 38.0802 43.1449 38.0697 42.9473C38.0593 42.7497 37.9777 42.5625 37.84 42.4203C37.0461 41.6047 36.2046 40.8367 35.32 40.1203L34.24 41.5103C35.4169 42.198 36.6557 42.7738 37.94 43.2303C38.76 43.5203 39.35 42.5203 39 41.8403C38.5335 40.9213 37.8914 40.1025 37.11 39.4303L35.92 41.0003C36.9146 41.6809 37.9937 42.2289 39.13 42.6303C40.13 42.9903 40.74 41.6303 40.13 40.9403C39.4617 40.2092 38.7287 39.5398 37.94 38.9403L36.94 40.7403C38.5141 41.6319 40.2233 42.2602 42 42.6003C43.29 42.8103 43.87 40.9403 42.55 40.6003C40.9581 40.2316 39.4168 39.6708 37.96 38.9303C37.8418 38.8647 37.7119 38.8229 37.5776 38.8075C37.4432 38.7921 37.3072 38.8033 37.1772 38.8404C37.0472 38.8775 36.9258 38.9399 36.8199 39.024C36.714 39.1081 36.6257 39.2122 36.56 39.3303C36.4944 39.4485 36.4526 39.5785 36.4372 39.7128C36.4218 39.8471 36.4329 39.9832 36.4701 40.1132C36.5072 40.2432 36.5696 40.3646 36.6537 40.4705C36.7378 40.5764 36.8418 40.6647 36.96 40.7303C37.6117 41.2138 38.2175 41.7561 38.77 42.3503L39.77 40.6603C38.7568 40.3375 37.7915 39.8801 36.9 39.3003C35.99 38.7003 34.9 40.1103 35.72 40.8303C36.395 41.3806 36.9526 42.0607 37.36 42.8303L38.43 41.4503C37.2921 41.0584 36.1884 40.5734 35.13 40.0003C34.9285 39.9012 34.697 39.8819 34.4818 39.9463C34.2667 40.0107 34.0838 40.154 33.9699 40.3476C33.8561 40.5412 33.8196 40.7707 33.8678 40.99C33.9161 41.2094 34.0455 41.4024 34.23 41.5303C35.0828 42.1729 35.9006 42.8606 36.68 43.5903L37.47 42.2303C35.9552 41.5797 34.494 40.8106 33.1 39.9303L32.45 41.0503C33.37 41.4603 34.25 41.9403 35.13 42.4303C35.2306 42.4722 35.3429 42.4761 35.4461 42.4415C35.5493 42.4068 35.6365 42.3359 35.6914 42.2419C35.7463 42.1479 35.7653 42.0372 35.7449 41.9302C35.7244 41.8233 35.6658 41.7274 35.58 41.6603V41.6603Z" fill="white"/>
<path d="M43.7205 34.8406C42.1331 34.8204 40.5836 34.3525 39.2505 33.4906C38.5605 33.0306 37.9005 34.1606 38.6005 34.5906C39.8005 35.3206 42.7505 37.2306 44.1805 36.2106C45.6105 35.1906 44.4105 33.8206 43.4405 33.2106C42.4705 32.6006 41.4405 33.9806 42.2905 34.7006C43.1541 35.4655 44.1328 36.0898 45.1905 36.5506C45.9105 36.8606 46.9905 36.3306 46.6705 35.4106C46.3276 34.3508 45.7181 33.397 44.9005 32.6406L43.6305 34.3006C44.6305 34.9606 46.4205 36.7706 47.8105 36.0506C48.9205 35.4806 48.6305 34.2006 48.2005 33.3106L46.7005 34.8106C48.2718 35.5388 49.8808 36.183 51.5205 36.7406C52.7105 37.1406 53.2705 35.6406 52.6305 34.8406C52.3309 34.3828 51.9475 33.9859 51.5005 33.6706C51.2809 33.4609 50.9891 33.3439 50.6855 33.3439C50.3819 33.3439 50.09 33.4609 49.8705 33.6706L49.4305 34.1306C48.6005 34.9906 49.7205 36.6306 50.7605 35.8606L51.2605 35.4806L49.8705 35.3006C50.3179 35.6073 50.7016 35.9979 51.0005 36.4506L52.1105 34.5506C50.6365 34.0887 49.1907 33.5411 47.7805 32.9106C47.5712 32.7957 47.3303 32.7521 47.094 32.7862C46.8578 32.8203 46.639 32.9303 46.4708 33.0997C46.3026 33.269 46.194 33.4885 46.1615 33.725C46.129 33.9614 46.1742 34.2021 46.2905 34.4106C47.4205 34.1706 47.4305 33.8606 46.2905 33.5006L44.6405 32.5006C43.6405 31.8906 42.4605 33.3506 43.3605 34.1606C44.0003 34.6113 44.4774 35.2567 44.7205 36.0006L46.0005 34.7206C45.1512 34.416 44.3649 33.9584 43.6805 33.3706L42.5305 34.8606C41.6705 34.4106 40.2605 33.9806 39.2905 33.4906L38.7905 34.6506C40.3808 35.276 42.0825 35.5687 43.7905 35.5106C43.8694 35.4969 43.941 35.4558 43.9925 35.3945C44.0441 35.3332 44.0724 35.2557 44.0724 35.1756C44.0724 35.0955 44.0441 35.0179 43.9925 34.9567C43.941 34.8954 43.8694 34.8543 43.7905 34.8406H43.7205Z" fill="white"/>
<path d="M49.7201 27.4704V28.1204L50.8701 27.8004C50.2901 26.9704 49.6301 26.2004 48.9801 25.4204L47.8001 26.6104C48.7535 27.5771 49.7909 28.4572 50.9001 29.2404C51.6401 29.7704 52.4901 28.9004 52.3301 28.1404L52.0001 26.4904L50.3001 27.4904C50.9944 28.1154 51.7676 28.6466 52.6001 29.0704C52.7608 29.1576 52.9412 29.2022 53.124 29.1999C53.3069 29.1976 53.4861 29.1485 53.6445 29.0572C53.803 28.9659 53.9354 28.8356 54.0292 28.6786C54.1229 28.5216 54.1749 28.3432 54.1801 28.1604C54.254 27.4675 54.2066 26.767 54.0401 26.0904L52.7301 27.4004C53.9301 27.7904 55.1301 28.1504 56.3201 28.5304C56.5054 28.5782 56.7 28.5769 56.8846 28.5265C57.0692 28.4761 57.2375 28.3784 57.3728 28.2431C57.5081 28.1078 57.6058 27.9395 57.6562 27.7549C57.7066 27.5703 57.7079 27.3757 57.6601 27.1904C57.2569 25.8974 56.5427 24.7231 55.5801 23.7704L54.5201 25.6004L56.7601 26.3304C57.5901 26.6004 58.5401 25.5204 57.9701 24.7604C57.4001 24.0004 56.1801 23.4204 55.3501 24.3704C55.2302 24.4991 55.1503 24.6598 55.1198 24.833C55.0894 25.0062 55.1097 25.1845 55.1785 25.3464C55.2473 25.5082 55.3615 25.6467 55.5073 25.745C55.6531 25.8433 55.8242 25.8973 56.0001 25.9004L56.1401 25.8404L57.3501 24.2704L55.1201 23.4904C54.0001 23.1104 53.3001 24.5804 54.0001 25.3204C54.6981 25.9995 55.2229 26.8363 55.5301 27.7604L56.8701 26.4204L53.2701 25.3304C53.0908 25.2926 52.9049 25.3011 52.7298 25.355C52.5548 25.4089 52.3963 25.5064 52.2693 25.6384C52.1422 25.7704 52.0509 25.9326 52.0038 26.1096C51.9567 26.2866 51.9554 26.4727 52.0001 26.6504C52.1572 27.1344 52.1916 27.6498 52.1001 28.1504L53.6801 27.2504C52.978 26.9268 52.3249 26.506 51.7401 26.0004C51.586 25.8265 51.3762 25.7117 51.1467 25.6757C50.9172 25.6397 50.6824 25.6847 50.4824 25.803C50.2825 25.9213 50.13 26.1055 50.0511 26.324C49.9722 26.5425 49.9719 26.7817 50.0501 27.0004C50.1901 27.5504 50.3401 28.0904 50.4901 28.6304L51.9201 27.5304C50.9016 26.8918 49.9261 26.187 49.0001 25.4204C48.1901 24.7404 47.0001 25.8504 47.8201 26.6104C48.6401 27.3704 49.1801 27.9504 49.9201 28.5604C50.4301 28.9804 51.3101 28.4404 50.9201 27.8004L50.5701 27.2504C50.5208 27.1648 50.4448 27.0978 50.3537 27.0597C50.2626 27.0216 50.1616 27.0145 50.0661 27.0395C49.9705 27.0646 49.8859 27.1203 49.8252 27.1981C49.7645 27.276 49.7311 27.3717 49.7301 27.4704H49.7201Z" fill="white"/>
<path d="M56.5806 35.0004C55.8206 34.5404 54.6506 34.3404 54.4406 35.4704L55.6206 35.3204C55.3279 34.6464 54.922 34.0275 54.4206 33.4904L53.5006 34.6704C54.5006 35.1904 55.4106 35.6704 56.3606 36.1504C57.0506 36.5004 57.9706 35.7604 57.4906 35.0204C57.1179 34.4491 56.6891 33.9165 56.2106 33.4304L55.6106 34.8904C56.8006 34.8304 57.5006 36.1004 58.7906 35.8304C59.1243 35.7846 59.4348 35.6341 59.6775 35.4005C59.9201 35.1668 60.0822 34.8621 60.1406 34.5304L59.0006 35.1304C60.2744 35.6545 61.5845 36.0856 62.9206 36.4204C63.1105 36.4378 63.3015 36.4005 63.471 36.3129C63.6404 36.2253 63.7813 36.0911 63.877 35.926C63.9727 35.761 64.0191 35.572 64.0109 35.3814C64.0027 35.1909 63.9401 35.0066 63.8306 34.8504C63.1143 34.1789 62.3339 33.5794 61.5006 33.0604C60.5006 32.4504 59.7006 33.7704 60.3406 34.5704C60.114 34.5696 59.891 34.6271 59.6931 34.7375C59.4952 34.8478 59.329 35.0072 59.2106 35.2004H57.4806C57.0577 35.0104 56.6236 34.8467 56.1806 34.7104C55.8168 34.6337 55.4392 34.6564 55.0873 34.7761C54.7354 34.8957 54.4222 35.1079 54.1806 35.3904C54.0436 35.5835 53.9796 35.819 54 36.0548C54.0203 36.2907 54.1237 36.5117 54.2917 36.6785C54.4597 36.8453 54.6814 36.9471 54.9174 36.9657C55.1534 36.9844 55.3884 36.9187 55.5806 36.7804C55.9006 36.5304 57.9406 37.5504 58.5806 37.4904C59.3984 37.3777 60.166 37.0304 60.7906 36.4904C61.8806 35.6404 62.7106 34.4904 61.6906 33.2504L60.5306 34.7604C61.2471 35.1708 61.9176 35.657 62.5306 36.2104L63.4406 34.6504C62.1019 34.3426 60.7882 33.9348 59.5106 33.4304C59.28 33.3714 59.0355 33.4041 58.8285 33.5216C58.6216 33.6391 58.4682 33.8322 58.4006 34.0604C58.4006 34.2704 57.1006 33.4504 56.9606 33.3904C56.5424 33.1964 56.0772 33.127 55.6206 33.1904C55.4606 33.2001 55.3064 33.2539 55.175 33.3457C55.0436 33.4375 54.9402 33.5638 54.876 33.7107C54.8119 33.8576 54.7896 34.0193 54.8115 34.1781C54.8335 34.3368 54.8989 34.4865 55.0006 34.6104C55.4138 34.9638 55.7741 35.3746 56.0706 35.8304L57.2006 34.7004C56.2006 34.2404 55.2006 33.7704 54.2706 33.3404C53.5506 33.0304 52.6506 33.9104 53.3506 34.5204C53.8144 34.9251 54.2065 35.4052 54.5106 35.9404C54.5879 36.0777 54.7133 36.1817 54.8626 36.2323C55.0119 36.2829 55.1747 36.2767 55.3196 36.2147C55.4646 36.1528 55.5816 36.0395 55.6482 35.8966C55.7148 35.7537 55.7263 35.5913 55.6806 35.4404L56.3406 35.5404C56.6706 35.6804 56.8606 35.1504 56.5806 34.9704V35.0004Z" fill="white"/>
<path d="M37.6202 23.3805C36.9689 23.0699 36.4104 22.5941 36.0002 22.0005C35.907 21.861 35.7643 21.7623 35.6009 21.7243C35.4376 21.6863 35.2659 21.712 35.1208 21.796C34.9757 21.88 34.868 22.0161 34.8196 22.1767C34.7712 22.3373 34.7857 22.5102 34.8602 22.6605C35.3951 23.8351 36.0664 24.9427 36.8602 25.9605L38.0802 25.0005C36.8157 23.8381 35.4798 22.756 34.0802 21.7605C33.9296 21.6733 33.7562 21.6333 33.5825 21.6456C33.4089 21.658 33.243 21.7222 33.1062 21.8299C32.9694 21.9376 32.8681 22.0838 32.8153 22.2497C32.7626 22.4156 32.7608 22.5935 32.8102 22.7605C33.1028 23.6282 33.5575 24.4324 34.1502 25.1305C34.7402 25.8305 35.9002 25.0805 35.6602 24.2505L35.2502 22.8905L33.9002 23.8905C35.5402 24.6405 37.2102 25.3605 38.9002 26.0905C39.0874 26.1326 39.2827 26.12 39.463 26.0542C39.6432 25.9884 39.8007 25.8721 39.9166 25.7193C40.0326 25.5664 40.1021 25.3834 40.1169 25.1921C40.1318 25.0009 40.0912 24.8093 40.0002 24.6405C39.1516 23.6852 38.2251 22.8022 37.2302 22.0005L36.0802 23.5005L39.1702 25.0805C39.3535 25.1577 39.5556 25.1786 39.7508 25.1404C39.9459 25.1023 40.1253 25.0068 40.2659 24.8661C40.4065 24.7255 40.502 24.5462 40.5402 24.351C40.5784 24.1558 40.5575 23.9537 40.4802 23.7705C39.9784 22.6813 39.2527 21.7102 38.3502 20.9205L37.1802 22.4305C39.0196 23.6501 41.0009 24.6408 43.0802 25.3805C43.2584 25.4135 43.4423 25.3974 43.6121 25.334C43.7819 25.2706 43.9313 25.1622 44.0442 25.0205C44.1572 24.8787 44.2296 24.709 44.2535 24.5293C44.2775 24.3496 44.2521 24.1668 44.1802 24.0005C43.6872 23.1713 43.0507 22.4365 42.3002 21.8305L41.1102 23.3805C42.0915 24.0087 43.1254 24.5507 44.2002 25.0005C45.0202 25.3605 46.2002 24.5505 45.5702 23.6305C44.9783 22.7312 44.1793 21.987 43.2402 21.4605C42.4302 21.0005 41.2402 22.0005 41.8602 22.8405L41.9902 23.0205C42.1089 23.2061 42.2824 23.3501 42.4867 23.4326C42.691 23.515 42.916 23.5318 43.1302 23.4805C43.351 23.4466 43.5593 23.356 43.7346 23.2176C43.9099 23.0791 44.0462 22.8975 44.1302 22.6905C44.2305 22.5002 44.2717 22.2844 44.2485 22.0706C44.2253 21.8568 44.1389 21.6548 44.0002 21.4905C43.7021 21.0971 43.2728 20.8239 42.7902 20.7205C41.5502 20.3005 41.0102 22.2705 42.2502 22.7205L42.5702 22.9705L42.4102 21.7405L42.6202 21.6005L43.6202 21.8605L43.4802 21.6905L42.2602 23.2705C42.9375 23.5693 43.5041 24.0729 43.8802 24.7105L45.2502 23.3405C44.1679 22.8734 43.1274 22.3147 42.1402 21.6705C41.2202 21.0705 40.0602 22.5205 40.9502 23.2205C41.5893 23.6915 42.1267 24.2868 42.5302 24.9705L43.6002 23.5005C41.6771 22.8164 39.8464 21.896 38.1502 20.7605C37.9501 20.6897 37.7326 20.6844 37.5293 20.7454C37.326 20.8065 37.1474 20.9306 37.0193 21.0999C36.8913 21.2692 36.8204 21.4748 36.8169 21.687C36.8135 21.8993 36.8777 22.1071 37.0002 22.2805C37.7782 22.9633 38.405 23.8012 38.8402 24.7405L40.1502 23.4305L37.0002 21.8605C36.1002 21.4005 35.0002 22.6405 35.8502 23.3505C36.866 24.1531 37.8126 25.0396 38.6802 26.0005L39.8202 24.5205C38.0902 23.7605 36.3602 23.0005 34.6202 22.2705C33.9702 22.0005 33.2802 22.7905 33.4802 23.4005L33.9302 24.7505L35.4402 23.8805C34.9806 23.4531 34.6366 22.9165 34.4402 22.3205L33.1802 23.3205C34.5035 24.18 35.7788 25.1114 37.0002 26.1105C37.1474 26.2537 37.3455 26.3325 37.5508 26.3297C37.7562 26.3269 37.952 26.2426 38.0952 26.0955C38.2384 25.9483 38.3173 25.7502 38.3145 25.5448C38.3117 25.3395 38.2274 25.1437 38.0802 25.0005C37.3061 24.0589 36.6105 23.0556 36.0002 22.0005L35.0002 22.7905C35.6495 23.4437 36.4717 23.8982 37.3702 24.1005C37.4595 24.1159 37.5514 24.1005 37.6309 24.0568C37.7103 24.0131 37.7725 23.9438 37.8074 23.8601C37.8423 23.7764 37.8477 23.6834 37.8228 23.5963C37.7978 23.5091 37.744 23.433 37.6702 23.3805H37.6202Z" fill="white"/>
<path d="M43.8403 15.3806C41.9421 14.9751 40.1835 14.0786 38.7403 12.7806L37.9803 13.7806C40.2509 15.4678 42.6709 16.944 45.2103 18.1906C45.3798 18.3067 45.5872 18.3541 45.7904 18.3231C45.9936 18.2921 46.1774 18.185 46.3046 18.0235C46.4317 17.862 46.4927 17.6582 46.4752 17.4534C46.4577 17.2486 46.363 17.0581 46.2103 16.9206C45.0076 15.5272 43.7112 14.2175 42.3303 13.0006L41.2503 14.4006C42.4009 15.2158 43.6468 15.8874 44.9603 16.4006C45.6903 16.6906 46.5203 15.6506 46.0303 15.0106L44.4303 12.9206L43.0903 14.2706C44.3775 15.246 45.836 15.9718 47.3903 16.4106C47.6031 16.4746 47.8311 16.466 48.0384 16.386C48.2457 16.3061 48.4205 16.1594 48.5351 15.969C48.6498 15.7787 48.6978 15.5556 48.6716 15.335C48.6453 15.1143 48.5464 14.9087 48.3903 14.7506C47.267 13.6017 46.0077 12.5942 44.6403 11.7506C43.6403 11.1606 42.5003 12.6006 43.4203 13.3306C44.8058 14.4544 46.3279 15.3986 47.9503 16.1406C48.9503 16.6006 50.0603 15.4106 49.1903 14.5406C47.547 12.8654 45.6076 11.5092 43.4703 10.5406C42.4703 10.1006 41.2503 11.3406 42.2203 12.1706C43.5898 13.3684 45.1746 14.2948 46.8903 14.9006C47.7103 15.1906 48.6203 14.0906 48.0803 13.3606C46.9433 11.7824 45.4265 10.5167 43.6703 9.68056C42.4303 9.10056 41.3503 10.9306 42.5903 11.5306C44.4354 12.4123 46.3283 13.1902 48.2603 13.8606C49.3403 14.2406 49.9703 12.8106 49.2603 12.0606C48.1774 10.8311 46.8753 9.81378 45.4203 9.06056C45.1811 8.9478 44.9084 8.92853 44.6557 9.00653C44.403 9.08453 44.1886 9.25417 44.0545 9.48215C43.9205 9.71013 43.8765 9.97997 43.9313 10.2387C43.986 10.4974 44.1354 10.7264 44.3503 10.8806C46.0256 12.1555 47.8613 13.2045 49.8103 14.0006C50.8103 14.3906 51.5403 12.9506 50.8103 12.2806C49.0354 10.6371 47.01 9.28688 44.8103 8.28056C44.5729 8.14795 44.2926 8.11507 44.031 8.18915C43.7694 8.26322 43.5479 8.43819 43.4153 8.67556C43.2827 8.91293 43.2498 9.19326 43.3239 9.45487C43.398 9.71648 43.5729 9.93795 43.8103 10.0706C45.3149 11.2186 47.0632 12.0056 48.9203 12.3706C49.1488 12.4901 49.4147 12.5167 49.6624 12.4449C49.9101 12.373 50.1205 12.2082 50.2496 11.9849C50.3787 11.7616 50.4165 11.4971 50.3551 11.2466C50.2937 10.996 50.138 10.7789 49.9203 10.6406C48.7791 9.16291 47.2921 7.98845 45.5903 7.22056L44.5503 9.00056C45.7303 9.53056 46.9203 10.0006 48.1403 10.4206C49.3603 10.8406 49.7703 9.42056 49.1403 8.69056L47.3803 6.59056L45.8803 8.09056C46.4531 8.56219 47.077 8.96806 47.7403 9.30056C47.9048 9.39443 48.091 9.4438 48.2804 9.4438C48.4699 9.44379 48.656 9.39442 48.8206 9.30054C48.9851 9.20666 49.1224 9.07152 49.2188 8.90844C49.3152 8.74536 49.3674 8.55998 49.3703 8.37056C49.4164 7.75637 49.2658 7.14343 48.9403 6.62056C48.8275 6.44076 48.6654 6.29709 48.4734 6.20657C48.2814 6.11605 48.0675 6.08248 47.857 6.10985C47.6465 6.13721 47.4483 6.22436 47.2858 6.36096C47.1233 6.49756 47.0034 6.67789 46.9403 6.88056C46.734 7.53559 46.7587 8.24156 47.0103 8.88056C47.2303 9.64056 48.5103 9.77056 48.6703 8.88056C48.7118 8.39165 48.8405 7.91411 49.0503 7.47056L47.0503 7.73056L47.2103 8.37056L48.8403 7.43056C48.3153 7.22084 47.8261 6.9307 47.3903 6.57056C47.1914 6.37165 46.9216 6.2599 46.6403 6.2599C46.359 6.2599 46.0892 6.37165 45.8903 6.57056C45.6914 6.76947 45.5796 7.03926 45.5796 7.32056C45.5796 7.60187 45.6914 7.87165 45.8903 8.07056L47.6903 10.1306L48.6903 8.40056C47.6203 8.04056 46.6103 7.65056 45.5803 7.19056C44.3803 6.65056 43.3203 8.42056 44.5803 8.98056C46.118 9.67321 47.461 10.7346 48.4903 12.0706L49.4903 10.3406C47.8085 10.0132 46.2265 9.29752 44.8703 8.25056L43.8003 10.0006C45.8361 10.9305 47.7125 12.1758 49.3603 13.6906L50.3603 11.9706C48.6451 11.3243 47.0524 10.391 45.6503 9.21056L44.3603 10.8706C45.637 11.5734 46.7836 12.49 47.7503 13.5806L48.7503 11.7806C46.9959 11.1645 45.2737 10.4603 43.5903 9.67056L42.5103 11.5206C43.9578 12.1543 45.2206 13.1453 46.1803 14.4006L47.3703 12.8606C45.9842 12.3945 44.7033 11.6606 43.6003 10.7006L42.4003 12.3606C44.3835 13.2344 46.1874 14.4686 47.7203 16.0006L49.0003 14.4106C47.5222 13.76 46.1313 12.9268 44.8603 11.9306L43.6403 13.5206C44.8654 14.2501 45.9942 15.1302 47.0003 16.1406L48.0003 14.4706C46.6148 14.0678 45.3138 13.4173 44.1603 12.5506C43.1603 11.8306 42.3303 13.3006 42.9703 14.0906L44.6203 16.1406L45.5403 14.5606C44.3714 14.1403 43.2595 13.576 42.2303 12.8806C41.4003 12.3306 40.3703 13.6306 41.1503 14.2806C42.565 15.448 43.9013 16.7074 45.1503 18.0506L45.9403 16.7006C43.4114 15.6008 40.9937 14.2614 38.7203 12.7006C38.0503 12.2506 37.3803 13.3806 38.0803 13.7906C39.7853 14.8705 41.6782 15.6202 43.6603 16.0006C44.0803 16.0706 44.2803 15.4506 43.8403 15.3406V15.3806Z" fill="white"/>
<path d="M133.21 57.3601C132.65 47.1401 127.09 38.2301 126.38 27.9501C125.89 20.7701 127.38 13.3001 132.92 8.28011C138.07 3.61011 145.3 1.92011 152.07 1.73011C158.35 1.56011 168.07 2.73011 168.35 10.9501C168.57 18.2201 161.15 26.5801 156.65 31.6301C149.6 39.5401 141.84 46.4401 137.9 56.5601C137.49 57.6301 139.32 58.4201 139.78 57.3501C145.97 43.0701 159.24 34.3501 166.69 20.8901C169.33 16.1301 171.87 9.89011 168.02 5.08011C164.7 0.890109 158.54 0.0501089 153.56 0.000108947C140.49 -0.129891 127.33 5.88011 125.09 19.9401C122.97 33.2701 130.35 44.7901 132.71 57.4201C132.718 57.4864 132.752 57.5468 132.804 57.5881C132.857 57.6294 132.924 57.6481 132.99 57.6401C133.056 57.6322 133.117 57.5982 133.158 57.5457C133.199 57.4932 133.218 57.4264 133.21 57.3601Z" fill="white"/>
<path d="M143.9 22.5904C142.9 19.5204 145.1 15.4504 148.63 15.5904C151.55 15.6804 151.37 18.9704 149.09 20.0204C148.593 20.2767 148.048 20.4261 147.49 20.4588C146.932 20.4915 146.373 20.4069 145.85 20.2104C144.62 19.6704 143.96 17.6004 145.85 17.3004C146.67 17.1704 146.45 15.8804 145.65 15.8804C142.03 15.8804 142.22 20.5104 145.07 21.7304C147.92 22.9504 152.44 20.8304 152.22 17.4204C152.01 14.2504 148.11 13.9604 145.94 15.2804C144.711 16.0511 143.777 17.2125 143.287 18.5781C142.797 19.9438 142.781 21.4343 143.24 22.8104C143.39 23.2304 144.06 23.0604 143.92 22.6204L143.9 22.5904Z" fill="white"/>
</g>
<defs>
<clipPath id="clip0">
<rect width="186.24" height="135.77" fill="white"/>
</clipPath>
</defs>
</svg>
