<svg width="269" height="77" viewBox="0 0 269 77" fill="none" xmlns="http://www.w3.org/2000/svg">
<g clip-path="url(#clip0)">
<path d="M118.89 26.4699C124.443 23.2232 129.99 19.9632 135.53 16.6899C137.07 15.7899 143.14 13.5999 143.12 11.5799C143.116 11.4939 143.081 11.4121 143.023 11.3486C142.965 11.2851 142.887 11.2439 142.801 11.232C142.716 11.2202 142.629 11.2385 142.556 11.2837C142.483 11.3289 142.427 11.3983 142.4 11.4799C142.05 12.6899 137.02 14.8099 135.89 15.4799L130.37 18.7799C126.37 21.1299 122.48 23.5099 118.55 25.8799C118.487 25.9311 118.444 26.0032 118.429 26.0833C118.415 26.1633 118.429 26.2459 118.471 26.3161C118.512 26.3862 118.577 26.4393 118.654 26.4657C118.73 26.4921 118.814 26.49 118.89 26.4599V26.4699Z" fill="white"/>
<path d="M141.89 12.4295C145.405 14.8415 148.568 17.729 151.29 21.0095C153.4 23.4095 155.79 26.6595 158.95 27.6795C159.017 27.6961 159.088 27.6906 159.151 27.6637C159.215 27.6369 159.268 27.5901 159.303 27.5304C159.338 27.4708 159.353 27.4014 159.345 27.3328C159.337 27.2641 159.307 27.1998 159.26 27.1495C157.83 25.6795 156.03 24.5995 154.54 23.1495C153.05 21.6995 151.68 20.1495 150.26 18.6195C147.9 16.0995 145.26 13.4495 141.98 12.2095C141.85 12.1595 141.79 12.3495 141.89 12.4095V12.4295Z" fill="white"/>
<path d="M142.54 11.8798C151.276 14.3554 160.348 15.4321 169.42 15.0698C169.514 15.0548 169.6 15.0068 169.662 14.9344C169.723 14.862 169.757 14.77 169.757 14.6748C169.757 14.5796 169.723 14.4876 169.662 14.4152C169.6 14.3428 169.514 14.2948 169.42 14.2798C160.445 13.9354 151.5 13.0235 142.64 11.5498C142.42 11.5498 142.32 11.8198 142.54 11.8798Z" fill="white"/>
<path d="M157.45 27.14C164.1 27.58 171.09 28.14 177.74 27.83C177.822 27.83 177.901 27.7973 177.959 27.7392C178.018 27.6811 178.05 27.6022 178.05 27.52C178.05 27.4378 178.018 27.3589 177.959 27.3008C177.901 27.2427 177.822 27.21 177.74 27.21C171.17 26.35 164.07 26.51 157.45 26.72C157.395 26.72 157.341 26.7421 157.302 26.7815C157.262 26.8209 157.24 26.8743 157.24 26.93C157.24 26.9857 157.262 27.0391 157.302 27.0785C157.341 27.1179 157.395 27.14 157.45 27.14V27.14Z" fill="white"/>
<path d="M169.63 14.56C171.08 19.31 175.14 23.87 179.3 26.44C179.71 26.7 180.04 26.09 179.67 25.81C177.594 24.3322 175.683 22.6358 173.97 20.75C172.402 18.7869 171 16.6963 169.78 14.5C169.776 14.4901 169.77 14.4812 169.763 14.4736C169.755 14.466 169.746 14.4599 169.737 14.4557C169.727 14.4516 169.716 14.4494 169.706 14.4492C169.695 14.4491 169.685 14.4511 169.675 14.455C169.665 14.4589 169.656 14.4648 169.648 14.4722C169.641 14.4796 169.635 14.4884 169.631 14.4982C169.626 14.5079 169.624 14.5184 169.624 14.529C169.624 14.5396 169.626 14.5501 169.63 14.56V14.56Z" fill="white"/>
<path d="M156.83 25.9995C156.93 28.0595 156.97 30.1395 157.12 32.1995C157.12 32.5495 157.68 32.5495 157.66 32.1995C157.54 30.1295 157.31 28.0595 157.14 25.9995C157.14 25.7995 156.82 25.7895 156.83 25.9995V25.9995Z" fill="white"/>
<path d="M122 25.12C121.83 26.57 121.81 28.01 121.58 29.46C121.329 30.1824 121.217 30.9458 121.25 31.71C121.45 32.45 122.49 32.71 122.71 31.85C122.721 31.7887 122.711 31.7254 122.682 31.6707C122.652 31.6159 122.604 31.5732 122.547 31.5496C122.489 31.5261 122.425 31.5232 122.365 31.5415C122.306 31.5598 122.254 31.5981 122.22 31.65C122.064 31.541 121.957 31.3745 121.923 31.1871C121.89 30.9997 121.931 30.8066 122.04 30.65C122.04 30.46 122.04 30.27 122.11 30.08C122.18 29.51 122.24 28.94 122.26 28.37C122.347 27.2971 122.323 26.2181 122.19 25.15C122.19 25.03 122.01 25.07 122 25.15V25.12Z" fill="white"/>
<path d="M155.27 28.4003H155.89V28.3203H155.27V28.3803V28.4003Z" fill="white"/>
<path d="M159.06 27.9398C160.191 29.3785 161.128 30.9585 161.85 32.6398C162.133 33.5153 162.695 34.2739 163.45 34.7998C163.73 34.9798 163.98 34.5498 163.71 34.3698C162.53 33.5898 162.13 32.0598 161.46 30.8798C160.811 29.7814 160.047 28.7556 159.18 27.8198C159.11 27.7298 158.99 27.8198 159.06 27.9398V27.9398Z" fill="white"/>
<path d="M110.76 29.8296C113.76 28.5296 116.86 27.5596 119.97 26.5296C120.032 26.5124 120.085 26.4711 120.117 26.4148C120.149 26.3586 120.157 26.2919 120.14 26.2296C120.123 26.1673 120.081 26.1144 120.025 26.0825C119.969 26.0506 119.902 26.0424 119.84 26.0596C116.64 26.8916 113.532 28.0406 110.56 29.4896C110.33 29.5996 110.56 29.9296 110.76 29.8296Z" fill="white"/>
<path d="M132.85 33.6701C136.97 29.2101 141.54 23.4201 141.52 17.0401C141.52 16.6201 140.83 16.4901 140.76 16.9401C139.7 23.6501 136.36 28.0501 132.52 33.4101C132.38 33.6101 132.69 33.8401 132.85 33.6701V33.6701Z" fill="white"/>
<path d="M141.6 17.2097H141.68C141.708 17.1817 141.723 17.144 141.723 17.1047C141.723 17.0654 141.708 17.0277 141.68 16.9997L141.62 16.8897C141.602 16.8629 141.577 16.841 141.548 16.8258C141.52 16.8107 141.488 16.8027 141.455 16.8027C141.423 16.8027 141.391 16.8107 141.362 16.8258C141.333 16.841 141.309 16.8629 141.29 16.8897C140.24 18.7897 142.16 23.4997 142.93 25.2997C143.468 26.5387 144.138 27.7157 144.93 28.8097C145.56 29.6897 148.26 31.8797 148.11 32.8097C148.11 33.1597 148.52 33.5797 148.8 33.2097C149.93 31.7597 147.99 30.6797 147.03 29.6797C145.705 28.2842 144.614 26.6835 143.8 24.9397C143.195 23.5879 142.719 22.1816 142.38 20.7397C141.959 19.5455 141.624 18.3223 141.38 17.0797C141.31 17.1997 141.44 17.2897 141.55 17.2497L141.6 17.2097Z" fill="white"/>
<path d="M179.409 27.6795C179.409 28.7395 179.259 29.7995 179.199 30.8595C179.199 31.4295 178.839 32.4495 179.299 32.8595C179.334 32.8938 179.375 32.9199 179.421 32.9358C179.467 32.9517 179.516 32.9569 179.564 32.9511C179.612 32.9454 179.658 32.9287 179.699 32.9024C179.74 32.8762 179.774 32.841 179.799 32.7995V32.7995C179.838 32.7296 179.849 32.6478 179.831 32.5701C179.812 32.4924 179.766 32.4244 179.699 32.3795V32.3795C179.489 32.2295 179.229 32.4795 179.289 32.6995L179.489 32.3295H179.439L179.849 32.6395C179.779 30.9795 179.659 29.3095 179.619 27.6395C179.619 27.5095 179.419 27.5095 179.409 27.6395V27.6795Z" fill="white"/>
<path d="M121.05 54.4695C123.11 54.6295 125.23 53.8995 127.23 53.4695C129.593 52.9854 131.93 52.3779 134.23 51.6495C134.331 51.5876 134.408 51.4943 134.451 51.384C134.493 51.2738 134.499 51.1526 134.466 51.039C134.433 50.9255 134.363 50.8259 134.269 50.7555C134.174 50.6851 134.058 50.6479 133.94 50.6495C131.581 51.0423 129.244 51.5597 126.94 52.1995C124.94 52.6995 122.77 52.9995 121 54.0795C120.953 54.1054 120.916 54.1462 120.895 54.1955C120.874 54.2447 120.87 54.2996 120.884 54.3513C120.898 54.4031 120.929 54.4487 120.971 54.481C121.014 54.5133 121.066 54.5303 121.12 54.5295L121.05 54.4695Z" fill="#FFE500"/>
<path d="M128 51.7803C132.91 52.4703 137.82 53.2903 142.75 53.7803C143.32 53.8303 143.46 52.8603 142.89 52.7803C137.98 52.0503 133.02 51.6103 128.1 51.0503C127.68 51.0003 127.58 51.7203 128 51.7703V51.7803Z" fill="#FFE500"/>
<path d="M131.999 51.7502C131.949 52.5902 131.899 53.4302 131.869 54.2802C131.869 54.6002 131.979 56.2802 131.589 56.2802C131.494 56.2816 131.4 56.3048 131.315 56.3479C131.229 56.391 131.155 56.453 131.097 56.5291C131.039 56.6052 130.999 56.6935 130.981 56.7873C130.962 56.881 130.965 56.9778 130.989 57.0702V57.2002C131.041 57.3494 131.137 57.4797 131.263 57.5741C131.39 57.6686 131.542 57.723 131.699 57.7302C132.629 57.8302 133.019 56.9702 132.999 56.1702C132.999 54.7002 132.859 53.2302 132.759 51.7602C132.744 51.6637 132.695 51.5759 132.621 51.5124C132.547 51.4489 132.452 51.4141 132.354 51.4141C132.257 51.4141 132.162 51.4489 132.088 51.5124C132.014 51.5759 131.965 51.6637 131.949 51.7602L131.999 51.7502Z" fill="#FFE500"/>
<path d="M127.49 52.0003C131.95 53.4603 136.98 55.6003 141.67 56.0003C142.24 56.0003 142.25 55.2603 141.8 55.0803C137.38 53.3503 132.24 52.7503 127.65 51.4203C127.27 51.3103 127.12 51.8803 127.49 52.0103V52.0003Z" fill="#FFE500"/>
<path d="M130.37 51.7396C130.361 52.3736 130.214 52.9981 129.94 53.5697C129.665 54.1413 129.27 54.6463 128.78 55.0496C128.29 55.4519 127.716 55.739 127.1 55.8896C126.662 55.9217 126.244 56.0856 125.9 56.3596C125.825 56.4394 125.783 56.5449 125.783 56.6546C125.783 56.7643 125.825 56.8698 125.9 56.9496C127 57.8196 128.7 56.5696 129.48 55.7496C129.989 55.2252 130.374 54.5941 130.607 53.9021C130.841 53.2101 130.917 52.4748 130.83 51.7496C130.83 51.4596 130.36 51.4496 130.37 51.7496V51.7396Z" fill="#FFE500"/>
<path d="M125.27 52.5698C123.273 51.4251 121.394 50.0852 119.66 48.5698L119.26 49.2498C121.76 49.7798 124.26 50.3398 126.72 50.9498C126.8 50.975 126.887 50.9698 126.964 50.935C127.04 50.9001 127.101 50.8383 127.134 50.7613C127.168 50.6843 127.172 50.5976 127.145 50.5179C127.119 50.4382 127.063 50.3712 126.99 50.3298C125.14 49.0998 123.32 47.8198 121.49 46.5798L121.56 47.1498C121.7 46.9662 121.876 46.8135 122.077 46.7016C122.278 46.5897 122.501 46.521 122.73 46.4998C122.777 46.4854 122.819 46.4563 122.848 46.4167C122.877 46.377 122.893 46.3291 122.893 46.2798C122.893 46.2305 122.877 46.1825 122.848 46.1429C122.819 46.1033 122.777 46.0742 122.73 46.0598C122.424 45.9854 122.102 45.9994 121.803 46.1003C121.504 46.2012 121.239 46.3848 121.04 46.6298C121.003 46.671 120.974 46.72 120.958 46.7734C120.941 46.8268 120.936 46.8832 120.944 46.9386C120.952 46.994 120.971 47.047 121.002 47.0939C121.032 47.1408 121.073 47.1803 121.12 47.2098C122.96 48.4498 124.82 49.6598 126.64 50.9198L126.91 50.2898C124.44 49.6398 121.97 49.0298 119.48 48.4598C119.12 48.3798 118.75 48.8698 119.08 49.1498C120.926 50.6487 122.908 51.9712 125 53.0998C125.34 53.2798 125.65 52.7598 125.31 52.5698H125.27Z" fill="#FFE500"/>
<path d="M126.999 46.8897C125.637 45.2594 124.723 43.3015 124.349 41.2097L123.749 41.8097C126.864 42.4136 129.845 43.5719 132.549 45.2297C132.626 45.2728 132.712 45.2954 132.8 45.2953C132.888 45.2952 132.974 45.2724 133.051 45.2292C133.127 45.1859 133.191 45.1237 133.237 45.0484C133.282 44.9732 133.307 44.8875 133.309 44.7997C133.549 41.6097 131.369 38.7997 131.979 35.5597C132.049 35.1697 131.479 34.9997 131.379 35.3997C130.479 38.6397 132.649 41.5497 132.299 44.7997L133.059 44.3597C130.279 42.6498 127.208 41.4667 123.999 40.8697C123.916 40.8475 123.829 40.8475 123.746 40.8698C123.663 40.892 123.587 40.9358 123.526 40.9966C123.466 41.0574 123.422 41.1331 123.4 41.2161C123.377 41.2992 123.377 41.3866 123.399 41.4697C123.934 43.6557 125.034 45.6628 126.589 47.2897C126.839 47.5697 127.229 47.1697 126.989 46.8897H126.999Z" fill="#FFE500"/>
<path d="M133.37 35.8996C130.52 33.1096 127.46 30.5596 124.53 27.8996C124.444 27.8247 124.334 27.7818 124.219 27.778C124.105 27.7743 123.993 27.8099 123.901 27.879C123.81 27.9481 123.745 28.0464 123.718 28.1575C123.69 28.2687 123.702 28.3859 123.75 28.4896C124.394 29.8658 125.492 30.9782 126.86 31.6396C127.24 31.8196 127.86 31.5096 127.66 31.0196C127.2 29.8096 126.76 28.5896 126.26 27.3896L125.75 27.9096C128.096 28.5922 130.357 29.5382 132.49 30.7296C132.59 30.7793 132.706 30.789 132.813 30.7567C132.92 30.7245 133.011 30.6526 133.067 30.5559C133.123 30.4591 133.14 30.3447 133.114 30.2358C133.089 30.1269 133.023 30.0317 132.93 29.9696C130.815 28.5497 128.434 27.5734 125.93 27.0996C125.859 27.0796 125.784 27.0788 125.712 27.0971C125.641 27.1155 125.575 27.1524 125.523 27.2041C125.47 27.2559 125.432 27.3206 125.412 27.3918C125.392 27.463 125.392 27.5381 125.41 27.6096C125.77 28.8496 126.18 30.0796 126.57 31.3096L127.37 30.6996C126.212 30.0777 125.252 29.1419 124.6 27.9996L123.93 28.6696C127.167 30.9516 130.229 33.4719 133.09 36.2096C133.28 36.3796 133.55 36.1096 133.37 35.9296V35.8996Z" fill="#FFE500"/>
<path d="M136.07 34.1101C136.056 34.9028 136.223 35.6884 136.557 36.4074C136.891 37.1263 137.385 37.7599 138 38.26C138.062 38.3178 138.139 38.3565 138.223 38.3715C138.306 38.3864 138.392 38.3769 138.47 38.3442C138.548 38.3114 138.615 38.2568 138.663 38.1869C138.711 38.117 138.738 38.0347 138.74 37.9501C138.75 37.3337 138.912 36.7293 139.21 36.19H138.4C139.195 38.0899 139.596 40.1309 139.58 42.19C139.582 42.2767 139.607 42.3613 139.652 42.4355C139.697 42.5097 139.76 42.571 139.836 42.6134C139.911 42.6557 139.997 42.6777 140.083 42.6771C140.17 42.6765 140.255 42.6534 140.33 42.6101C140.774 42.3773 141.15 42.0326 141.42 41.6101C141.58 41.3701 141.26 41.0301 141.01 41.2001C140.708 41.4587 140.342 41.6313 139.95 41.7001L140.55 42.3101C140.775 40.0319 140.308 37.7387 139.21 35.73C139.167 35.6619 139.107 35.6058 139.036 35.5669C138.965 35.5281 138.886 35.5077 138.805 35.5077C138.724 35.5077 138.645 35.5281 138.574 35.5669C138.503 35.6058 138.443 35.6619 138.4 35.73C138.075 36.4337 137.895 37.1954 137.87 37.9701L138.52 37.6C137.924 37.2271 137.425 36.7183 137.063 36.1151C136.701 35.5119 136.488 34.8317 136.44 34.1301C136.431 34.0932 136.41 34.0605 136.38 34.0371C136.35 34.0137 136.313 34.001 136.275 34.001C136.237 34.001 136.2 34.0137 136.17 34.0371C136.14 34.0605 136.119 34.0932 136.11 34.1301L136.07 34.1101Z" fill="#FFE500"/>
<path d="M140.56 46.0001C140.562 45.6646 140.532 45.3297 140.47 45.0001C140.42 44.7301 140.09 44.7301 139.92 44.8601C137.83 46.4901 135.75 48.1601 133.57 49.6701C133.471 49.7334 133.393 49.8232 133.343 49.9292C133.294 50.0352 133.275 50.1531 133.29 50.2692C133.305 50.3853 133.352 50.4949 133.426 50.5853C133.5 50.6757 133.599 50.7432 133.71 50.7801C134.904 51.1143 136.121 51.3649 137.35 51.5301C137.96 51.5901 137.98 50.7101 137.49 50.5301C136.365 50.1349 135.212 49.8273 134.04 49.6101L134.18 50.7201C136.401 49.1052 138.475 47.2982 140.38 45.3201L139.83 45.1801C139.927 45.4807 140.044 45.7746 140.18 46.0601C140.205 46.0952 140.241 46.1217 140.282 46.1358C140.323 46.15 140.367 46.1511 140.409 46.139C140.45 46.127 140.487 46.1024 140.514 46.0685C140.541 46.0347 140.557 45.9933 140.56 45.9501V46.0001Z" fill="#FFE500"/>
<path d="M138.49 43.2596C137.43 41.9596 136.16 40.8096 135.06 39.5296L134.62 40.2896C135.285 40.4921 135.926 40.7671 136.53 41.1096C136.636 41.1637 136.757 41.1826 136.874 41.1637C136.992 41.1447 137.1 41.0889 137.184 41.0042C137.267 40.9195 137.322 40.8104 137.339 40.6927C137.356 40.575 137.336 40.4548 137.28 40.3496C136.77 39.5796 136.28 38.8096 135.72 38.0396L135.52 38.8096C135.947 38.5714 136.41 38.4058 136.89 38.3196C136.979 38.2952 137.057 38.2424 137.113 38.1692C137.169 38.096 137.199 38.0066 137.199 37.9146C137.199 37.8226 137.169 37.7331 137.113 37.6599C137.057 37.5868 136.979 37.5339 136.89 37.5096C136.566 37.401 136.221 37.3744 135.884 37.432C135.547 37.4895 135.23 37.6296 134.96 37.8396C134.832 37.913 134.738 38.034 134.699 38.1764C134.66 38.3187 134.678 38.4708 134.75 38.5996C135.28 39.3696 135.75 40.1496 136.33 40.9096L137.08 40.1496C136.382 39.7932 135.633 39.5438 134.86 39.4096C134.45 39.3496 134.06 39.8296 134.42 40.1696C135.605 41.4021 136.886 42.5389 138.25 43.5696C138.45 43.7096 138.62 43.4196 138.49 43.2596V43.2596Z" fill="#FFE500"/>
<path d="M125.79 41.8995C124.566 39.5817 122.945 37.4967 121 35.7395C120.62 35.3995 119.82 35.7395 120 36.2895L120.07 36.4695C120.107 36.5867 120.18 36.6892 120.279 36.7627C120.378 36.8362 120.497 36.8771 120.62 36.8795C120.744 36.9123 120.875 36.9146 121.001 36.886C121.126 36.8574 121.243 36.7989 121.341 36.7154C121.44 36.632 121.516 36.526 121.565 36.4066C121.613 36.2872 121.632 36.1578 121.62 36.0295C121.62 34.8995 119.84 33.7195 119.13 32.9795L118.87 33.9795C120.785 33.6757 122.745 33.8125 124.6 34.3795C125.37 34.6095 125.67 33.4495 124.93 33.1995C124.377 32.9964 123.78 32.9412 123.2 33.0395C123.056 33.0395 122.919 33.0964 122.818 33.1977C122.717 33.299 122.66 33.4363 122.66 33.5795C122.66 33.7228 122.717 33.8601 122.818 33.9614C122.919 34.0626 123.056 34.1195 123.2 34.1195C123.68 34.1049 124.157 34.1935 124.6 34.3795L124.93 33.1995C122.861 32.601 120.683 32.4779 118.56 32.8395C118.459 32.8683 118.368 32.9227 118.296 32.9973C118.223 33.072 118.171 33.1644 118.144 33.2653C118.118 33.3663 118.119 33.4724 118.146 33.573C118.173 33.6737 118.226 33.7656 118.3 33.8395L119.54 35.0995L119.95 35.5195C120.14 35.9795 120.37 36.0595 120.66 35.7695L121.21 36.1795L121.14 36.0095L120.3 36.6495C122.429 38.0417 124.236 39.8725 125.6 42.0195C125.605 42.0331 125.613 42.0454 125.623 42.0555C125.634 42.0657 125.646 42.0734 125.66 42.0782C125.674 42.083 125.688 42.0848 125.703 42.0834C125.717 42.0819 125.731 42.0774 125.744 42.07C125.756 42.0627 125.767 42.0526 125.775 42.0407C125.784 42.0287 125.789 42.0151 125.792 42.0008C125.794 41.9865 125.793 41.9718 125.79 41.9577C125.786 41.9437 125.779 41.9307 125.77 41.9195L125.79 41.8995Z" fill="#FFE500"/>
<path d="M123.12 23.8902C123.26 22.8402 123.41 21.7902 123.55 20.7302L122.89 21.2302C124.08 21.5602 125.27 21.9002 126.45 22.2302C126.57 22.2611 126.698 22.2518 126.812 22.2037C126.927 22.1556 127.023 22.0713 127.085 21.9637C127.147 21.8561 127.173 21.731 127.157 21.6076C127.142 21.4842 127.087 21.3692 127 21.2802C125.877 20.084 124.595 19.0477 123.19 18.2002C122.7 17.9202 122.1 18.6202 122.57 19.0102C123.8 20.0102 125.07 20.9402 126.2 22.0802L126.75 21.0802L123.16 20.1602C123.083 20.1404 123.003 20.1383 122.926 20.1542C122.848 20.17 122.775 20.2033 122.713 20.2515C122.65 20.2997 122.599 20.3616 122.564 20.4324C122.529 20.5032 122.51 20.5811 122.51 20.6602C122.51 21.6602 122.51 22.7102 122.51 23.7402C122.51 24.0802 123.08 24.1802 123.13 23.8202L123.12 23.8902Z" fill="#FFE500"/>
<path d="M3.75984 55.3106C4.86842 55.5093 5.99923 55.553 7.11984 55.4405C8.40984 55.4405 9.70984 55.4406 10.9998 55.3306C11.0564 55.3191 11.1072 55.2884 11.1437 55.2438C11.1802 55.1991 11.2001 55.1432 11.2001 55.0855C11.2001 55.0279 11.1802 54.972 11.1437 54.9273C11.1072 54.8827 11.0564 54.852 10.9998 54.8405C9.70984 54.7905 8.40984 54.8405 7.11984 54.9105C5.9928 54.849 4.86261 54.9399 3.75984 55.1805C3.69984 55.1805 3.69984 55.3006 3.75984 55.3106V55.3106Z" fill="white"/>
<path d="M10.9108 55.3098C11.4909 54.5786 12.1119 53.8808 12.7708 53.2198C13.4408 52.5498 14.2008 52.0098 14.8808 51.3598C14.921 51.3129 14.9439 51.2536 14.9456 51.1918C14.9474 51.1301 14.928 51.0696 14.8905 51.0204C14.8531 50.9713 14.7999 50.9365 14.7399 50.9218C14.6799 50.9071 14.6166 50.9135 14.5608 50.9398C12.9456 52.0005 11.6054 53.4297 10.6508 55.1098C10.5508 55.2598 10.7908 55.4598 10.9108 55.3098V55.3098Z" fill="white"/>
<path d="M13.3303 51.1404C16.3303 51.1404 19.4003 51.4004 22.4103 51.2004C22.4594 51.1898 22.5034 51.1626 22.5349 51.1235C22.5664 51.0844 22.5836 51.0357 22.5836 50.9854C22.5836 50.9352 22.5664 50.8864 22.5349 50.8473C22.5034 50.8082 22.4594 50.7811 22.4103 50.7704C19.4103 50.5704 16.3403 50.7704 13.3303 50.8304C13.2959 50.8392 13.2654 50.8592 13.2436 50.8873C13.2218 50.9154 13.21 50.9499 13.21 50.9854C13.21 51.0209 13.2218 51.0555 13.2436 51.0835C13.2654 51.1116 13.2959 51.1316 13.3303 51.1404V51.1404Z" fill="white"/>
<path d="M22.15 51.59C22.6012 52.5676 23.198 53.4712 23.92 54.27C24.5492 55.0672 25.3579 55.7045 26.28 56.13C26.3314 56.1461 26.3866 56.1444 26.4369 56.1252C26.4872 56.106 26.5296 56.0705 26.5573 56.0244C26.585 55.9783 26.5963 55.9241 26.5896 55.8708C26.5828 55.8174 26.5583 55.7678 26.52 55.73C25.85 55.05 24.97 54.59 24.3 53.9C23.5768 53.1571 22.9579 52.3194 22.46 51.41C22.35 51.2 22.05 51.41 22.15 51.59Z" fill="white"/>
<path d="M26.8307 55.05C42.1507 55.98 57.8307 55.39 73.1407 55.05C73.1752 55.05 73.2082 55.0363 73.2326 55.0119C73.257 54.9876 73.2707 54.9545 73.2707 54.92C73.2707 54.8855 73.257 54.8525 73.2326 54.8281C73.2082 54.8037 73.1752 54.79 73.1407 54.79C57.8007 54.47 42.1407 53.88 26.8307 54.79C26.8015 54.79 26.7736 54.8016 26.7529 54.8222C26.7323 54.8429 26.7207 54.8708 26.7207 54.9C26.7207 54.9292 26.7323 54.9572 26.7529 54.9778C26.7736 54.9984 26.8015 55.01 26.8307 55.01V55.05Z" fill="white"/>
<path d="M73.6405 54.5006C74.7305 53.6106 75.7205 52.5606 76.7305 51.5806C77.7022 50.726 78.6019 49.7929 79.4205 48.7906C79.4511 48.7391 79.4637 48.6787 79.4562 48.6192C79.4488 48.5597 79.4217 48.5043 79.3793 48.4619C79.3368 48.4195 79.2815 48.3924 79.2219 48.3849C79.1624 48.3774 79.1021 48.39 79.0505 48.4206C78.0491 49.2403 77.119 50.1435 76.2705 51.1206C75.2705 52.1206 74.2705 53.1206 73.3505 54.2206C73.3134 54.2591 73.293 54.3107 73.294 54.3642C73.2949 54.4176 73.3171 54.4685 73.3555 54.5056C73.394 54.5428 73.4456 54.5631 73.499 54.5622C73.5525 54.5612 73.6034 54.5391 73.6405 54.5006V54.5006Z" fill="white"/>
<path d="M79.0003 49.2505C82.4903 49.4405 86.0003 49.7205 89.4703 49.8605C89.526 49.8684 89.5825 49.8539 89.6275 49.8202C89.6726 49.7864 89.7023 49.7362 89.7103 49.6805C89.7182 49.6248 89.7037 49.5682 89.67 49.5232C89.6362 49.4782 89.586 49.4484 89.5303 49.4405C86.0514 48.8644 82.5151 48.7166 79.0003 49.0005C78.9683 49.0089 78.94 49.0278 78.9198 49.054C78.8996 49.0802 78.8887 49.1124 78.8887 49.1455C78.8887 49.1786 78.8996 49.2107 78.9198 49.237C78.94 49.2632 78.9683 49.282 79.0003 49.2905V49.2505Z" fill="white"/>
<path d="M86.1203 49.4203C88.1203 51.5803 90.2703 53.6403 92.4003 55.7003C92.5103 55.8103 92.6703 55.6403 92.5703 55.5403C90.5003 53.4003 88.4503 51.2803 86.2803 49.2503C86.2569 49.2369 86.2297 49.2317 86.203 49.2357C86.1763 49.2396 86.1517 49.2525 86.1332 49.2721C86.1147 49.2918 86.1034 49.3171 86.101 49.344C86.0987 49.3709 86.1055 49.3977 86.1203 49.4203V49.4203Z" fill="white"/>
<path d="M91.5302 55.0704C96.8602 55.0704 102.27 55.4604 107.59 55.1304C107.641 55.1304 107.689 55.1104 107.725 55.0748C107.76 55.0392 107.78 54.9908 107.78 54.9404C107.78 54.8901 107.76 54.8417 107.725 54.8061C107.689 54.7705 107.641 54.7504 107.59 54.7504C102.27 54.4304 96.8602 54.7504 91.5302 54.8104C91.3702 54.8104 91.3702 55.0704 91.5302 55.0704Z" fill="white"/>
<path d="M6.62078 55.1703L0.69078 48.7103L0.65078 47.0003C0.607622 45.7659 0.644366 44.5299 0.76078 43.3003C0.854113 40.3336 0.90078 37.3769 0.90078 34.4303C0.90078 28.8603 0.82078 23.2703 0.47078 17.7103C0.47078 17.4703 0.0907799 17.4703 0.10078 17.7103C0.38078 27.2003 0.30078 36.6203 0.20078 46.1103C0.20078 50.4003 1.20078 55.9203 6.62078 55.4103C6.78078 55.4103 6.78078 55.1603 6.62078 55.1703V55.1703Z" fill="white"/>
<path d="M0.520323 17.7002C0.474397 16.0441 0.686949 14.3909 1.15032 12.8002C1.94032 10.4002 3.69032 9.49021 6.00032 9.00021C9.27032 8.35021 12.3803 8.59021 15.6603 8.54021C15.7149 8.53861 15.7671 8.51767 15.8076 8.48112C15.8481 8.44457 15.8743 8.3948 15.8815 8.34071C15.8888 8.28662 15.8765 8.23172 15.847 8.18583C15.8174 8.13995 15.7725 8.10605 15.7203 8.09021C12.1503 7.26021 6.62032 7.41021 3.24032 9.02021C0.210323 10.4802 -0.229677 14.7602 0.0903234 17.7002C0.0903234 17.9702 0.520323 17.9802 0.520323 17.7002Z" fill="white"/>
<path d="M105.001 56.9999L104.511 55.3799L104.991 57.0099L105.001 56.9999Z" fill="white"/>
<path d="M10.54 8.19974C24.18 9.42974 38.27 8.48974 51.96 8.48974C65.65 8.48974 79.59 8.69974 93.39 8.38974C93.451 8.38974 93.5095 8.36551 93.5527 8.32238C93.5958 8.27924 93.62 8.22074 93.62 8.15974C93.62 8.09874 93.5958 8.04024 93.5527 7.99711C93.5095 7.95397 93.451 7.92974 93.39 7.92974C79.59 7.60974 65.77 7.83974 51.96 7.82974C38.15 7.81974 24.18 6.88974 10.54 8.11974V8.19974Z" fill="white"/>
<path d="M93.1406 8.00031C94.8325 8.27726 96.4068 9.04183 97.6706 10.2003C97.7007 10.2259 97.7393 10.2394 97.7789 10.2383C97.8184 10.2371 97.8561 10.2213 97.8847 10.194C97.9133 10.1666 97.9307 10.1296 97.9337 10.0902C97.9366 10.0507 97.9248 10.0116 97.9006 9.98031C96.6211 8.73501 94.9496 7.97169 93.1706 7.82031C93.0706 7.82031 93.0506 7.98031 93.1706 8.00031H93.1406Z" fill="white"/>
<path d="M92.0007 8.00012C96.3507 9.45012 98.0007 13.3901 100.061 17.0001C100.801 18.3101 101.651 19.6001 102.311 21.0001C103.451 23.3501 103.401 25.5601 104.021 28.0001C104.821 31.1701 106.691 33.8801 107.611 37.0501C108.865 41.1655 109.653 45.4088 109.961 49.7001C109.961 49.9701 110.411 50.0601 110.461 49.7701C111.101 45.6701 109.821 41.6101 108.761 37.6601C108.131 35.4353 107.315 33.2676 106.321 31.1801C105.041 28.3401 105.221 25.4901 104.321 22.6001C103.171 18.9501 100.561 15.1501 98.3207 12.0301C96.6607 9.73012 94.8707 8.00012 92.0007 7.62012C91.7507 7.62012 91.7307 7.97012 92.0007 8.04012V8.00012Z" fill="white"/>
<path d="M106.77 55.3805C107.61 54.4605 108.77 54.1405 109.55 53.0705C109.896 52.574 110.157 52.023 110.32 51.4405C110.43 51.0805 110.83 48.6105 111.12 48.5605C111.18 48.5417 111.233 48.5046 111.271 48.4543C111.308 48.4041 111.329 48.3433 111.33 48.2805V48.2205C111.33 48.1575 111.313 48.0956 111.282 48.0412C111.25 47.9867 111.204 47.9415 111.15 47.9101C111.095 47.8787 111.033 47.8622 110.97 47.8623C110.907 47.8624 110.845 47.879 110.79 47.9105C109.79 48.4405 109.79 50.9105 109.44 51.9105C109.066 52.8556 108.41 53.6623 107.56 54.2205C107.122 54.45 106.755 54.796 106.5 55.2205C106.41 55.3905 106.63 55.5805 106.77 55.4305V55.3805Z" fill="white"/>
<path d="M109.09 50.9998C109.85 51.2298 110.47 51.1898 110.73 52.0798C110.955 52.7535 110.996 53.4748 110.85 54.1698C110.32 55.8098 107.27 54.6898 106.07 54.6698C105.986 54.6695 105.904 54.6969 105.838 54.7479C105.771 54.7989 105.723 54.8705 105.701 54.9516C105.68 55.0327 105.685 55.1187 105.718 55.1961C105.75 55.2736 105.807 55.3382 105.88 55.3798C107.071 55.8743 108.376 56.03 109.65 55.8298C110.048 55.8354 110.438 55.7224 110.771 55.505C111.104 55.2877 111.365 54.976 111.52 54.6098C111.758 53.7136 111.691 52.7638 111.33 51.9098C110.91 50.9098 110.09 50.9998 109.14 50.7998C109.114 50.7998 109.088 50.8103 109.069 50.8291C109.051 50.8478 109.04 50.8733 109.04 50.8998C109.04 50.9263 109.051 50.9518 109.069 50.9705C109.088 50.9893 109.114 50.9998 109.14 50.9998H109.09Z" fill="white"/>
<path d="M14.12 64.6004C12.42 64.1304 11.34 61.1504 11.3 59.6504C11.1976 58.2611 11.5676 56.8779 12.3499 55.7253C13.1322 54.5726 14.2811 53.7181 15.61 53.3004C17.6457 52.8451 19.7663 52.9453 21.75 53.5904C24.84 54.5904 25.31 59.1204 24.05 61.7304C22.87 64.1704 19.73 64.6704 17.21 64.4304C15.21 64.2504 12.45 63.6404 11.9 61.4304C11.53 59.9804 11.85 56.0004 12.9 54.8004C13.22 54.4204 12.79 53.7304 12.32 54.0604C11 55.0004 10.9 57.5004 10.72 58.9204C10.49 60.6704 10.41 62.6504 11.84 63.9204C14.18 66.0004 18.77 66.0004 21.53 65.1104C22.8105 64.74 23.9766 64.052 24.92 63.1104C26.02 61.8004 25.61 60.1104 25.52 58.5604C25.31 55.0704 24.81 53.4504 21.12 52.5604C18.67 51.9904 15.42 51.9004 13.27 53.4604C12.1522 54.4039 11.333 55.6521 10.9122 57.0531C10.4914 58.454 10.4872 59.9471 10.9 61.3504C11.32 62.5704 12.58 64.8004 14.09 64.7604C14.21 64.7604 14.24 64.5704 14.09 64.5404L14.12 64.6004Z" fill="white"/>
<path d="M16.8505 59.27C16.4905 58.35 18.0505 57.71 18.7105 57.76C19.3705 57.81 20.7105 58.76 19.6005 59.32C19.034 59.559 18.4038 59.6013 17.8105 59.44C17.5392 59.3661 17.3044 59.1953 17.1505 58.96C16.8905 58.47 17.2505 58.21 17.6105 57.96C17.6575 57.9318 17.6951 57.8904 17.7188 57.841C17.7425 57.7915 17.7511 57.7363 17.7437 57.682C17.7362 57.6276 17.713 57.5767 17.6769 57.5355C17.6408 57.4943 17.5933 57.4646 17.5405 57.45C17.3035 57.4128 17.0609 57.4619 16.8572 57.5886C16.6534 57.7153 16.502 57.911 16.4305 58.14C16.337 58.4019 16.3243 58.6857 16.3938 58.9549C16.4633 59.2241 16.6119 59.4662 16.8205 59.65C17.3413 60.0471 17.9864 60.246 18.6404 60.2112C19.2944 60.1764 19.9147 59.9101 20.3905 59.46C21.1705 58.46 19.7605 57.31 18.8205 57.24C17.8805 57.17 16.2005 58.1 16.7705 59.24C16.7705 59.29 16.8705 59.24 16.8505 59.24V59.27Z" fill="white"/>
<path d="M78.4106 63.2203C76.7106 62.7603 75.6306 59.7803 75.5806 58.2803C75.4806 56.8901 75.8527 55.5068 76.6367 54.3543C77.4207 53.2019 78.5708 52.3478 79.9006 51.9303C81.9325 51.4699 84.0513 51.5702 86.0306 52.2203C89.1306 53.2203 89.6006 57.7403 88.3406 60.3603C87.1606 62.8003 84.0206 63.2903 81.4906 63.0603C79.4906 62.8703 76.7306 62.2603 76.1906 60.0603C75.8206 58.6103 76.1906 54.6303 77.1906 53.4303C77.5206 53.0503 77.0906 52.3603 76.6206 52.6903C75.3106 53.6303 75.2106 56.1103 75.0306 57.5403C74.8006 59.2903 74.7206 61.2603 76.1506 62.5403C78.4806 64.6303 83.0806 64.6603 85.8406 63.7303C87.1225 63.3632 88.2893 62.6747 89.2306 61.7303C90.3306 60.4303 89.9206 58.7303 89.8306 57.1903C89.6206 53.7003 89.1206 52.0803 85.4306 51.1903C82.9806 50.6203 79.7306 50.5403 77.5806 52.0903C76.4545 53.0322 75.6283 54.2828 75.2037 55.6882C74.7791 57.0936 74.7745 58.5924 75.1906 60.0003C75.6106 61.2203 76.8706 63.4603 78.3806 63.4103C78.4098 63.4103 78.4378 63.3987 78.4584 63.3781C78.479 63.3575 78.4906 63.3295 78.4906 63.3003C78.4906 63.2711 78.479 63.2432 78.4584 63.2225C78.4378 63.2019 78.4098 63.1903 78.3806 63.1903L78.4106 63.2203Z" fill="white"/>
<path d="M81.1406 57.8902C80.7806 56.9802 82.3406 56.3402 83.0006 56.3902C83.6606 56.4402 85.0006 57.3902 83.8906 57.9402C83.3264 58.1872 82.6945 58.233 82.1006 58.0702C81.8264 57.9964 81.5905 57.8213 81.4406 57.5802C81.1806 57.0902 81.5406 56.8402 81.9006 56.5802C81.9476 56.552 81.9852 56.5106 82.0089 56.4611C82.0326 56.4117 82.0412 56.3564 82.0338 56.3021C82.0263 56.2478 82.0031 56.1969 81.967 56.1557C81.9308 56.1144 81.8834 56.0847 81.8306 56.0702C81.5948 56.0324 81.3534 56.0801 81.1498 56.2049C80.9462 56.3296 80.794 56.523 80.7206 56.7502C80.6263 57.0135 80.6131 57.2991 80.6826 57.57C80.7521 57.8409 80.9012 58.0848 81.1106 58.2702C81.6314 58.6672 82.2765 58.8661 82.9305 58.8313C83.5845 58.7965 84.2048 58.5303 84.6806 58.0802C85.4606 57.0802 84.0506 55.9302 83.1006 55.8602C82.1506 55.7902 80.4906 56.7102 81.1006 57.8602C81.1006 57.8602 81.2006 57.8602 81.1806 57.8602L81.1406 57.8902Z" fill="white"/>
<path d="M5.71047 28.29C15.7105 28.61 25.7705 29.37 35.7105 29.29C36.4105 29.29 36.3605 28.29 35.7105 28.23C26.0005 26.93 15.4705 27.23 5.71047 27.84C5.66137 27.8507 5.61739 27.8778 5.58585 27.9169C5.55431 27.956 5.53711 28.0048 5.53711 28.055C5.53711 28.1053 5.55431 28.154 5.58585 28.1931C5.61739 28.2322 5.66137 28.2594 5.71047 28.27V28.29Z" fill="white"/>
<path d="M35.6205 28.7402C35.9838 25.1177 36.0273 21.4703 35.7505 17.8402C35.7505 17.7924 35.7316 17.7466 35.6978 17.7129C35.664 17.6791 35.6183 17.6602 35.5705 17.6602C35.5228 17.6602 35.477 17.6791 35.4432 17.7129C35.4095 17.7466 35.3905 17.7924 35.3905 17.8402C35.1188 21.4704 35.1623 25.1174 35.5205 28.7402C35.5205 28.7534 35.5258 28.7661 35.5352 28.7755C35.5445 28.7849 35.5573 28.7902 35.5705 28.7902C35.5838 28.7902 35.5965 28.7849 35.6059 28.7755C35.6152 28.7661 35.6205 28.7534 35.6205 28.7402V28.7402Z" fill="white"/>
<path d="M5.94039 28.0005C6.32335 24.011 6.35346 19.9954 6.03039 16.0005C6.03039 15.9502 6.01037 15.9018 5.97474 15.8662C5.93911 15.8306 5.89078 15.8105 5.84039 15.8105C5.79 15.8105 5.74167 15.8306 5.70604 15.8662C5.67041 15.9018 5.65039 15.9502 5.65039 16.0005C5.32731 19.9954 5.35743 24.011 5.74039 28.0005C5.74039 28.0271 5.75092 28.0525 5.76968 28.0713C5.78843 28.09 5.81387 28.1005 5.84039 28.1005C5.86691 28.1005 5.89235 28.09 5.9111 28.0713C5.92985 28.0525 5.94039 28.0271 5.94039 28.0005V28.0005Z" fill="white"/>
<path d="M5.00012 17.5898C15.2401 18.0898 25.6201 18.1298 35.8601 17.7698C35.934 17.7565 36.001 17.7177 36.0492 17.6602C36.0974 17.6026 36.1238 17.5299 36.1238 17.4548C36.1238 17.3797 36.0974 17.307 36.0492 17.2494C36.001 17.1918 35.934 17.153 35.8601 17.1398C25.6201 16.7898 15.2401 16.8298 5.00012 17.3298C4.96564 17.3298 4.93257 17.3435 4.90819 17.3678C4.88381 17.3922 4.87012 17.4253 4.87012 17.4598C4.87012 17.4942 4.88381 17.5273 4.90819 17.5517C4.93257 17.5761 4.96564 17.5898 5.00012 17.5898V17.5898Z" fill="white"/>
<path d="M40.2407 28.29C50.1807 28.61 60.2407 29.37 70.2407 29.29C70.9407 29.29 70.8907 28.29 70.2407 28.23C60.5407 26.93 50.0007 27.23 40.2407 27.84C40.1916 27.8507 40.1477 27.8778 40.1161 27.9169C40.0846 27.956 40.0674 28.0048 40.0674 28.055C40.0674 28.1053 40.0846 28.154 40.1161 28.1931C40.1477 28.2322 40.1916 28.2594 40.2407 28.27V28.29Z" fill="white"/>
<path d="M70.1501 28.7402C70.505 25.1171 70.5451 21.4701 70.2701 17.8402C70.2701 17.7924 70.2512 17.7466 70.2174 17.7129C70.1836 17.6791 70.1379 17.6602 70.0901 17.6602C70.0424 17.6602 69.9966 17.6791 69.9628 17.7129C69.9291 17.7466 69.9101 17.7924 69.9101 17.8402C69.6252 21.4693 69.6553 25.1162 70.0001 28.7402C70.0048 28.7509 70.0125 28.76 70.0223 28.7664C70.032 28.7728 70.0434 28.7762 70.0551 28.7762C70.0668 28.7762 70.0782 28.7728 70.088 28.7664C70.0978 28.76 70.1055 28.7509 70.1101 28.7402H70.1501Z" fill="white"/>
<path d="M40.4599 28.0005C40.8429 24.011 40.873 19.9954 40.5499 16.0005C40.5499 15.9502 40.5299 15.9018 40.4943 15.8662C40.4586 15.8306 40.4103 15.8105 40.3599 15.8105C40.3095 15.8105 40.2612 15.8306 40.2256 15.8662C40.1899 15.9018 40.1699 15.9502 40.1699 16.0005C39.8468 19.9954 39.877 24.011 40.2599 28.0005C40.2599 28.0271 40.2705 28.0525 40.2892 28.0713C40.308 28.09 40.3334 28.1005 40.3599 28.1005C40.3864 28.1005 40.4119 28.09 40.4306 28.0713C40.4494 28.0525 40.4599 28.0271 40.4599 28.0005V28.0005Z" fill="white"/>
<path d="M39.4806 17.5898C49.7206 18.0898 60.1006 18.1298 70.3406 17.7698C70.4145 17.7565 70.4814 17.7177 70.5296 17.6602C70.5778 17.6026 70.6042 17.5299 70.6042 17.4548C70.6042 17.3797 70.5778 17.307 70.5296 17.2494C70.4814 17.1918 70.4145 17.153 70.3406 17.1398C60.1006 16.7898 49.7206 16.8298 39.4806 17.3298C39.4461 17.3298 39.413 17.3435 39.3887 17.3678C39.3643 17.3922 39.3506 17.4253 39.3506 17.4598C39.3506 17.4942 39.3643 17.5273 39.3887 17.5517C39.413 17.5761 39.4461 17.5898 39.4806 17.5898V17.5898Z" fill="white"/>
<path d="M76.7703 28.3603C82.1403 28.5803 87.4803 28.8103 92.8303 29.2003C93.7403 29.2603 93.7303 27.8503 92.8303 27.7903C87.486 27.392 82.1215 27.3385 76.7703 27.6303C76.6839 27.6446 76.6053 27.6892 76.5487 27.756C76.492 27.8229 76.4609 27.9076 76.4609 27.9953C76.4609 28.0829 76.492 28.1677 76.5487 28.2345C76.6053 28.3013 76.6839 28.3459 76.7703 28.3603V28.3603Z" fill="white"/>
<path d="M76.0799 18.4605C76.0199 21.6405 75.9099 24.8205 75.8799 28.0005C75.8799 28.1039 75.921 28.2031 75.9941 28.2763C76.0672 28.3494 76.1664 28.3905 76.2699 28.3905C76.3733 28.3905 76.4725 28.3494 76.5457 28.2763C76.6188 28.2031 76.6599 28.1039 76.6599 28.0005C76.6599 24.8205 76.5199 21.6405 76.4599 18.4605C76.4599 18.4101 76.4399 18.3618 76.4042 18.3262C76.3686 18.2905 76.3203 18.2705 76.2699 18.2705C76.2195 18.2705 76.1712 18.2905 76.1355 18.3262C76.0999 18.3618 76.0799 18.4101 76.0799 18.4605V18.4605Z" fill="white"/>
<path d="M76.1807 18.3398L75.7607 18.2198C75.4107 18.1098 75.3107 18.6998 75.6907 18.7198C80.3807 18.9198 85.1307 19.0798 89.8207 18.9498C89.9533 18.9498 90.0804 18.8971 90.1742 18.8034C90.268 18.7096 90.3207 18.5824 90.3207 18.4498C90.3207 18.3172 90.268 18.19 90.1742 18.0963C90.0804 18.0025 89.9533 17.9498 89.8207 17.9498C85.1307 17.8198 80.3807 17.9498 75.6907 18.1898C75.3207 18.1898 75.4107 18.7898 75.7607 18.6898L76.1807 18.5598C76.2125 18.5598 76.243 18.5472 76.2655 18.5247C76.288 18.5022 76.3007 18.4717 76.3007 18.4398C76.3007 18.408 76.288 18.3775 76.2655 18.355C76.243 18.3325 76.2125 18.3198 76.1807 18.3198V18.3398Z" fill="white"/>
<path d="M90.0599 18.6804C89.6599 20.1904 90.3699 21.7704 90.8599 23.1904C91.5799 25.2904 92.2499 27.4204 93.0799 29.4804C93.2799 29.9804 94.0799 29.7904 93.9199 29.2404C93.2999 27.2404 92.5099 25.3004 91.7999 23.3404C91.2399 21.8004 90.8999 20.1504 90.2599 18.6504C90.2599 18.5604 90.0799 18.6504 90.0599 18.6504V18.6804Z" fill="white"/>
<path d="M87.77 20.4698C87.5734 22.7208 87.5066 24.9812 87.57 27.2398C87.57 27.3379 87.609 27.432 87.6784 27.5014C87.7478 27.5708 87.8419 27.6098 87.9401 27.6098C88.0382 27.6098 88.1323 27.5708 88.2017 27.5014C88.2711 27.432 88.31 27.3379 88.31 27.2398C88.3735 24.9812 88.3067 22.7208 88.1101 20.4698C88.1101 20.4247 88.0921 20.3815 88.0603 20.3496C88.0284 20.3177 87.9851 20.2998 87.9401 20.2998C87.895 20.2998 87.8517 20.3177 87.8198 20.3496C87.788 20.3815 87.77 20.4247 87.77 20.4698V20.4698Z" fill="white"/>
<path d="M54.0001 19.0697C53.6986 21.5317 53.6516 24.0182 53.8601 26.4897C53.8601 26.5401 53.8801 26.5884 53.9157 26.6241C53.9514 26.6597 53.9997 26.6797 54.0501 26.6797C54.1005 26.6797 54.1488 26.6597 54.1844 26.6241C54.2201 26.5884 54.2401 26.5401 54.2401 26.4897C54.4537 24.0183 54.4067 21.5313 54.1001 19.0697C54.1001 19.0197 54.0101 19.0197 54.0001 19.0697Z" fill="white"/>
<path d="M19.2305 25.6402C19.7605 23.3302 19.3405 20.5702 19.2805 18.2102C19.272 18.1782 19.2532 18.1499 19.227 18.1298C19.2007 18.1096 19.1686 18.0986 19.1355 18.0986C19.1024 18.0986 19.0702 18.1096 19.044 18.1298C19.0178 18.1499 18.999 18.1782 18.9905 18.2102C18.9305 20.5702 18.5105 23.3302 19.0505 25.6402C19.0587 25.6571 19.0715 25.6714 19.0874 25.6814C19.1033 25.6913 19.1217 25.6966 19.1405 25.6966C19.1593 25.6966 19.1777 25.6913 19.1936 25.6814C19.2095 25.6714 19.2223 25.6571 19.2305 25.6402Z" fill="white"/>
<path d="M23.25 19.0898V19.7198H23.31V19.0898H23.25Z" fill="white"/>
<path d="M95.3606 8.73033C95.1595 8.65462 94.9411 8.63729 94.7306 8.68033C94.6763 8.69585 94.6285 8.72865 94.5944 8.77375C94.5604 8.81886 94.542 8.87383 94.542 8.93033C94.542 8.98683 94.5604 9.0418 94.5944 9.08691C94.6285 9.13201 94.6763 9.16481 94.7306 9.18033C94.9376 9.23002 95.1535 9.23002 95.3606 9.18033C95.403 9.16676 95.4399 9.14008 95.4662 9.10413C95.4924 9.06818 95.5065 9.02483 95.5065 8.98033C95.5065 8.93583 95.4924 8.89248 95.4662 8.85653C95.4399 8.82058 95.403 8.7939 95.3606 8.78033V8.73033Z" fill="white"/>
<path d="M110.35 36.6605C110.46 36.4212 110.609 36.2016 110.79 36.0105L110.32 35.8105C110.23 36.4805 110.21 37.1505 110.16 37.8105C110.16 38.2305 110.23 39.8705 109.82 40.1105C109.781 40.1348 109.747 40.1677 109.722 40.2068C109.697 40.2458 109.681 40.29 109.675 40.3361C109.669 40.3822 109.674 40.429 109.689 40.473C109.704 40.517 109.728 40.5572 109.76 40.5905L109.86 40.7005C109.925 40.7648 110.009 40.8064 110.099 40.819C110.189 40.8316 110.281 40.8146 110.36 40.7705C110.98 40.3405 110.88 39.6705 110.88 38.9905C110.88 37.9205 110.94 36.8505 110.88 35.7905C110.88 35.4305 110.31 35.4305 110.33 35.7905C110.355 36.0605 110.324 36.3327 110.24 36.5905C110.24 36.6605 110.32 36.7105 110.36 36.5905L110.35 36.6605Z" fill="#FFE500"/>
<path d="M107.59 40.71C108.259 40.73 108.929 40.6865 109.59 40.58C109.649 40.5576 109.698 40.5161 109.731 40.4621C109.763 40.4081 109.776 40.3448 109.768 40.2824C109.76 40.2201 109.731 40.1622 109.686 40.1183C109.641 40.0743 109.583 40.0467 109.52 40.04C108.868 40.0873 108.222 40.1944 107.59 40.36C107.551 40.3695 107.516 40.3919 107.491 40.4236C107.466 40.4554 107.452 40.4946 107.452 40.535C107.452 40.5754 107.466 40.6147 107.491 40.6464C107.516 40.6782 107.551 40.7006 107.59 40.71V40.71Z" fill="white"/>
<path d="M108.64 38.3498C108.556 38.1452 108.531 37.9206 108.57 37.7027C108.609 37.4847 108.71 37.2825 108.86 37.1198C109.161 36.8663 109.547 36.7375 109.94 36.7598C110.3 36.7598 110.21 36.2098 109.94 36.1098C109.636 36.0445 109.319 36.0748 109.033 36.1965C108.746 36.3182 108.504 36.5254 108.34 36.7898C108.193 37.0441 108.12 37.3348 108.131 37.6285C108.142 37.9222 108.235 38.2069 108.4 38.4498C108.47 38.5698 108.7 38.4498 108.64 38.3498Z" fill="#FFE500"/>
<path d="M111.181 40.3102C111.181 40.8302 111.711 41.0302 112.131 41.2302C112.893 41.6488 113.689 42.0033 114.511 42.2902C114.59 42.3062 114.672 42.2946 114.743 42.2572C114.814 42.2199 114.87 42.1591 114.902 42.0851C114.934 42.0111 114.939 41.9285 114.917 41.8511C114.895 41.7737 114.847 41.7063 114.781 41.6602C114.23 41.3764 113.654 41.1454 113.061 40.9702C112.481 40.8276 111.938 40.5616 111.471 40.1902C111.447 40.1665 111.417 40.1504 111.384 40.1439C111.351 40.1373 111.317 40.1407 111.286 40.1535C111.255 40.1664 111.228 40.1881 111.209 40.216C111.191 40.2439 111.181 40.2767 111.181 40.3102V40.3102Z" fill="#FFE500"/>
<path d="M112.67 35.7199C112.58 35.1699 113.53 35.0199 113.89 34.9099L115.34 34.4899C115.79 34.3599 115.57 33.6299 115.15 33.7999C114.398 34.0643 113.663 34.3749 112.95 34.7299C112.745 34.8184 112.576 34.9728 112.469 35.1684C112.362 35.3641 112.324 35.5899 112.36 35.8099C112.42 36.0099 112.7 35.9199 112.67 35.7199V35.7199Z" fill="#FFE500"/>
<path d="M112.61 38.4704C113.264 38.4428 113.919 38.517 114.55 38.6904C114.86 38.7504 115.09 38.3004 114.77 38.1404C114.09 37.8491 113.342 37.7522 112.61 37.8604C112.23 37.8604 112.22 38.5004 112.61 38.4704Z" fill="#FFE500"/>
<path d="M93.5906 11.51C94.9906 11.57 96.3906 11.66 97.7906 11.84C98.3306 11.91 98.3506 11.01 97.7906 10.98C96.3928 10.87 94.9884 10.87 93.5906 10.98C93.5269 10.98 93.4659 11.0053 93.4209 11.0503C93.3759 11.0953 93.3506 11.1563 93.3506 11.22C93.3506 11.2836 93.3759 11.3447 93.4209 11.3897C93.4659 11.4347 93.5269 11.46 93.5906 11.46V11.51Z" fill="white"/>
<path d="M93 11.2605C93.56 12.8105 98.86 33.3205 100 32.7705C99.9597 32.7961 99.9275 32.8326 99.9073 32.8759C99.8871 32.9192 99.8797 32.9673 99.886 33.0147C99.8923 33.062 99.9121 33.1066 99.9429 33.143C99.9737 33.1795 100.014 33.2064 100.06 33.2205L100.34 33.3005C100.402 33.322 100.469 33.3249 100.533 33.3089C100.597 33.2929 100.655 33.2587 100.7 33.2105L100.92 32.9405C100.974 32.8865 101.013 32.8192 101.032 32.7454C101.051 32.6716 101.051 32.594 101.03 32.5205C99.62 28.8505 97.65 25.7005 96.66 21.7805C95.889 18.1365 94.774 14.5739 93.33 11.1405C93.3094 11.1097 93.2788 11.087 93.2434 11.0762C93.208 11.0655 93.17 11.0673 93.1358 11.0815C93.1016 11.0956 93.0733 11.1212 93.0559 11.1539C93.0384 11.1865 93.0328 11.2242 93.04 11.2605H93Z" fill="white"/>
<path d="M99.0004 32.6599C101.3 32.8899 103.72 32.8699 106 32.9699C106.41 32.9699 106.52 32.3099 106.1 32.2399C103.719 31.8068 101.28 31.7832 98.8904 32.1699C98.5904 32.2299 98.6904 32.6399 98.9604 32.6599H99.0004Z" fill="white"/>
<path d="M25.09 63.5404C28.45 63.7704 31.4 64.4804 34.09 62.0304C35.98 60.3104 37.6 57.7704 36.62 55.1804C36.5977 55.1228 36.5549 55.0754 36.4998 55.0475C36.4446 55.0196 36.3811 55.013 36.3214 55.0292C36.2618 55.0454 36.2102 55.083 36.1767 55.135C36.1432 55.1869 36.1301 55.2494 36.14 55.3104C36.78 58.0904 35.14 60.5604 32.97 62.1904C30.62 63.9604 27.8 63.3304 25.08 63.2504C24.89 63.2504 24.89 63.5304 25.08 63.5404H25.09Z" fill="white"/>
<path d="M90.0707 62.0002C92.3307 62.2702 95.5607 62.2102 97.4307 60.6602C98.1139 60.0124 98.647 59.2227 98.9925 58.3469C99.3381 57.471 99.4876 56.5301 99.4307 55.5902C99.4307 55.2502 98.8607 55.1402 98.8007 55.5102C98.4907 57.3302 98.1907 59.2602 96.5207 60.3602C94.6507 61.5902 92.1707 61.5202 90.0207 61.6302C89.979 61.64 89.9418 61.6636 89.9152 61.6972C89.8885 61.7308 89.874 61.7724 89.874 61.8152C89.874 61.8581 89.8885 61.8997 89.9152 61.9333C89.9418 61.9669 89.979 61.9905 90.0207 62.0002H90.0707Z" fill="white"/>
<path d="M29.7105 63.43C28.0005 63.12 26.9905 61.43 25.5405 60.66C25.3505 60.55 25.2005 60.79 25.3205 60.94C25.799 61.5691 26.4532 62.0424 27.2005 62.3C27.4105 62.38 27.5705 62.07 27.4205 61.93C26.5119 61.1019 25.5425 60.3431 24.5205 59.66L24.2805 60.09C25.8004 61.0425 27.3997 61.8622 29.0605 62.54C29.3605 62.66 29.4905 62.21 29.2605 62.05C27.9271 61.1033 26.5638 60.21 25.1705 59.37C24.8505 59.17 24.5705 59.67 24.8805 59.86C26.2783 60.7339 27.7429 61.4962 29.2605 62.14C29.5405 62.26 29.8805 61.93 29.6205 61.67C28.3384 60.4621 26.9067 59.4237 25.3605 58.58C25.2902 58.5402 25.207 58.53 25.1292 58.5516C25.0513 58.5731 24.9853 58.6247 24.9455 58.695C24.9057 58.7653 24.8955 58.8485 24.917 58.9263C24.9386 59.0042 24.9902 59.0702 25.0605 59.11C27.0005 60.24 28.9405 61.75 31.2105 62C31.272 61.9977 31.3315 61.9777 31.3819 61.9424C31.4323 61.9071 31.4714 61.858 31.4947 61.801C31.5179 61.744 31.5242 61.6815 31.5128 61.621C31.5014 61.5606 31.4728 61.5047 31.4305 61.46C30.0175 60.1999 28.5023 59.0593 26.9005 58.05C26.5405 57.83 26.2205 58.38 26.5705 58.61C27.5705 59.26 30.1605 61.85 31.4305 60.94C31.4721 60.9138 31.5074 60.8785 31.5337 60.8369C31.56 60.7952 31.5766 60.7483 31.5823 60.6994C31.5881 60.6505 31.5828 60.6009 31.5669 60.5543C31.551 60.5077 31.5249 60.4652 31.4905 60.43C30.0805 59.3 28.6505 58.23 27.1605 57.2L26.8305 57.77C28.8153 58.9958 30.9278 60.0018 33.1305 60.77C33.2012 60.7869 33.2755 60.7807 33.3424 60.7522C33.4094 60.7238 33.4654 60.6746 33.5024 60.6119C33.5393 60.5493 33.5551 60.4764 33.5476 60.4041C33.5401 60.3317 33.5095 60.2637 33.4605 60.21C31.9927 58.9457 30.4129 57.8177 28.7405 56.84C28.3605 56.61 28.0605 57.16 28.4005 57.42C30.2718 58.8246 32.359 59.9155 34.5805 60.65C34.9105 60.76 35.1205 60.31 34.9105 60.08C33.8125 58.8667 32.5134 57.8518 31.0705 57.08C30.9922 57.0336 30.8988 57.0202 30.8106 57.0427C30.7225 57.0652 30.6469 57.1218 30.6005 57.2C30.5541 57.2783 30.5406 57.3717 30.5631 57.4599C30.5856 57.548 30.6422 57.6236 30.7205 57.67C31.9285 58.5265 33.2561 59.2004 34.6605 59.67C35.0505 59.8 35.2205 59.26 34.9305 59.04C33.5333 58.0414 32.0846 57.1168 30.5905 56.27C30.512 56.2365 30.424 56.2327 30.343 56.2595C30.262 56.2863 30.1935 56.3418 30.1506 56.4155C30.1076 56.4892 30.093 56.5761 30.1095 56.6598C30.1261 56.7435 30.1727 56.8182 30.2405 56.87C31.5656 57.8048 33.0304 58.5237 34.5805 59C34.9405 59.12 35.1405 58.66 34.9205 58.41C34.1456 57.5143 33.2504 56.7302 32.2605 56.08L31.9005 56.69L33.3905 57.38C33.4524 57.4138 33.5229 57.4287 33.5932 57.4228C33.6635 57.4168 33.7305 57.3904 33.7859 57.3467C33.8413 57.3031 33.8826 57.2441 33.9048 57.1771C33.9269 57.1101 33.9289 57.0381 33.9105 56.97C33.8777 56.5259 33.7624 56.0918 33.5705 55.69L33.1305 56.14C34.2083 56.4137 35.27 56.7476 36.3105 57.14C36.6905 57.27 36.8605 56.78 36.6605 56.53C36.2405 55.9339 35.6127 55.5166 34.9005 55.36C34.8129 55.346 34.7233 55.3647 34.6487 55.4127C34.5741 55.4606 34.5199 55.5344 34.4964 55.6199C34.4728 55.7054 34.4816 55.7965 34.5212 55.8759C34.5607 55.9553 34.6281 56.0173 34.7105 56.05L36.1505 57.05L36.5005 56.45C35.4584 56.0622 34.397 55.7284 33.3205 55.45C33.0705 55.39 32.7705 55.63 32.8705 55.9C33.0713 56.2955 33.1904 56.7275 33.2205 57.17L33.7505 56.77L32.2605 56.09C32.2204 56.0664 32.1761 56.0509 32.1301 56.0444C32.084 56.0378 32.0371 56.0405 31.9921 56.0521C31.9471 56.0637 31.9047 56.084 31.8676 56.112C31.8304 56.14 31.7991 56.175 31.7755 56.215C31.7518 56.2551 31.7363 56.2994 31.7298 56.3454C31.7233 56.3915 31.7259 56.4384 31.7375 56.4834C31.7491 56.5284 31.7695 56.5707 31.7975 56.6079C31.8254 56.6451 31.8604 56.6764 31.9005 56.7C32.837 57.3226 33.6848 58.0694 34.4205 58.92L34.7705 58.33C33.2797 57.8898 31.8686 57.2147 30.5905 56.33L30.2405 56.93C31.739 57.7695 33.188 58.6944 34.5805 59.7L34.8405 59.07C33.5013 58.6246 32.232 57.9916 31.0705 57.19L30.7205 57.78C32.1073 58.5208 33.3612 59.4873 34.4305 60.64L34.7605 60.07C32.6013 59.3561 30.5743 58.2919 28.7605 56.92L28.4205 57.5C30.0397 58.4315 31.5725 59.5057 33.0005 60.71L33.3205 60.15C31.1721 59.4032 29.1103 58.4276 27.1705 57.24C26.8005 57.03 26.5005 57.57 26.8405 57.81C27.3305 58.14 27.8405 58.48 28.2905 58.81C28.6205 59.05 31.1905 60.81 30.1205 60.17C29.0505 59.53 28.0005 58.78 26.9005 58.09L26.5705 58.65C28.1407 59.6373 29.6228 60.7581 31.0005 62L31.2305 61.45C29.1605 61.2 27.1405 59.65 25.3805 58.63L25.0805 59.16C26.5823 59.9801 27.9735 60.9882 29.2205 62.16L29.5005 61.67C28.0075 61.041 26.5664 60.2954 25.1905 59.44L24.9005 59.93C26.3005 60.7167 27.6671 61.5767 29.0005 62.51L29.2005 62C27.5731 61.3547 26.0069 60.5649 24.5205 59.64C24.2505 59.48 24.0105 59.9 24.2805 60.07C24.5505 60.24 27.9105 62.7 25.9405 61.07C25.9405 61.07 26.9405 62.01 27.2005 62.24C27.8732 62.9099 28.7292 63.3657 29.6605 63.55C29.7805 63.55 29.8305 63.4 29.7105 63.38V63.43Z" fill="white"/>
<path d="M90.7099 61.0002C90.5836 60.5221 90.3108 60.0955 89.9299 59.7802C89.7299 59.5502 89.4199 59.7802 89.4599 60.0502C89.5599 60.6302 89.5499 60.6002 90.0599 60.9002C90.1137 60.928 90.1742 60.9399 90.2345 60.9347C90.2948 60.9294 90.3523 60.9072 90.4005 60.8705C90.4487 60.8339 90.4854 60.7843 90.5066 60.7276C90.5277 60.6709 90.5323 60.6094 90.5199 60.5502C90.4909 60.0297 90.3101 59.5291 89.9999 59.1102L89.5099 59.6002C90.5131 60.152 91.5599 60.6203 92.6399 61.0002C92.7111 61.0166 92.7854 61.0121 92.8541 60.9873C92.9227 60.9625 92.9828 60.9185 93.0271 60.8605C93.0714 60.8025 93.098 60.7329 93.1039 60.6602C93.1097 60.5874 93.0944 60.5145 93.0599 60.4502C92.5384 59.7021 91.9707 58.9874 91.3599 58.3102L90.9899 58.9502C91.9099 59.3302 92.8299 59.7202 93.7599 60.0902C94.1599 60.2602 94.3499 59.7002 94.1399 59.4402C93.527 58.6916 92.7595 58.0844 91.8899 57.6602C91.5099 57.4702 91.0699 57.9602 91.4099 58.2702C92.071 58.8966 92.8587 59.374 93.7199 59.6702C94.1099 59.8102 94.3699 59.2802 94.1099 59.0202C93.4275 58.3257 92.6733 57.7055 91.8599 57.1702L91.4599 57.8502L93.5199 59.0802C93.6014 59.1244 93.6959 59.1381 93.7866 59.1189C93.8773 59.0996 93.9581 59.0488 94.0147 58.9754C94.0713 58.9019 94.0999 58.8108 94.0953 58.7182C94.0908 58.6256 94.0534 58.5377 93.9899 58.4702C93.1598 57.5575 92.1995 56.7723 91.1399 56.1402L90.7699 56.7802C92.0261 57.6015 93.4227 58.1845 94.8899 58.5002C95.1999 58.5602 95.5099 58.1702 95.2299 57.9302C94.3352 57.1598 93.3222 56.5385 92.2299 56.0902C91.9199 55.9602 91.6899 56.4202 91.9099 56.6302C92.8473 57.5494 93.9881 58.2346 95.2399 58.6302C95.5399 58.7302 95.7299 58.3302 95.5299 58.1202C94.8791 57.3818 94.1246 56.7418 93.2899 56.2202L92.9799 56.7402C94.4901 57.543 96.0872 58.1704 97.7399 58.6102C97.8054 58.6252 97.8739 58.6186 97.9353 58.5914C97.9966 58.5641 98.0475 58.5177 98.0802 58.4591C98.1129 58.4004 98.1256 58.3328 98.1166 58.2663C98.1075 58.1997 98.0771 58.138 98.0299 58.0902C97.0054 56.9647 95.7265 56.1006 94.2999 55.5702C93.9699 55.4502 93.7599 55.9802 94.0599 56.1402L96.7099 57.5602C96.9699 57.7002 97.3199 57.4102 97.1399 57.1402C96.6496 56.3603 95.935 55.7468 95.0899 55.3802C95.0545 55.3598 95.0154 55.3467 94.9748 55.3414C94.9343 55.3362 94.8931 55.339 94.8536 55.3497C94.8141 55.3604 94.7772 55.3787 94.7448 55.4037C94.7124 55.4286 94.6853 55.4597 94.6649 55.4952C94.6446 55.5307 94.6314 55.5698 94.6262 55.6103C94.6209 55.6509 94.6237 55.692 94.6344 55.7315C94.6451 55.771 94.6634 55.808 94.6884 55.8403C94.7134 55.8727 94.7445 55.8998 94.7799 55.9202C95.8335 56.6389 97.0257 57.1294 98.2799 57.3602C98.5599 57.3602 98.8599 57.0502 98.5899 56.8302C97.915 56.2847 97.1959 55.7964 96.4399 55.3702L96.1199 55.9202C97.0414 56.3911 98.0058 56.7728 98.9999 57.0602C99.2499 57.1402 99.5499 56.8102 99.3699 56.5702C99.0122 56.0799 98.5425 55.6822 97.9999 55.4102L97.7399 56.0302C99.0099 56.5402 100.29 56.9802 101.61 57.3702C101.7 57.3954 101.797 57.3837 101.878 57.3378C101.96 57.2918 102.02 57.2154 102.045 57.1252C102.07 57.035 102.058 56.9385 102.013 56.857C101.967 56.7754 101.89 56.7154 101.8 56.6902C100.48 56.3102 99.1899 55.8702 97.9199 55.3702C97.5599 55.2302 97.3199 55.8202 97.6499 56.0002C98.1382 56.1933 98.547 56.5457 98.8099 57.0002L99.1299 56.4402C98.2037 56.167 97.3035 55.8123 96.4399 55.3802C96.0699 55.1902 95.7599 55.7302 96.1199 55.9302C96.8423 56.2957 97.5145 56.7528 98.1199 57.2902L98.4299 56.7602C97.2271 56.5413 96.0829 56.0748 95.0699 55.3902L94.7599 55.9302C95.5292 56.2077 96.1744 56.7501 96.5799 57.4602L96.9999 57.0002L94.3799 55.6002L94.1399 56.1602C95.4718 56.6519 96.6632 57.4622 97.6099 58.5202L97.9099 58.0102C96.3097 57.5877 94.763 56.9838 93.2999 56.2102C93.231 56.1691 93.1485 56.1571 93.0707 56.1767C92.9929 56.1964 92.926 56.2462 92.8849 56.3152C92.8438 56.3842 92.8318 56.4666 92.8515 56.5444C92.8712 56.6223 92.921 56.6891 92.9899 56.7302C93.7824 57.2251 94.4969 57.8351 95.1099 58.5402L95.4099 58.0302C94.2789 57.647 93.2521 57.0069 92.4099 56.1602L92.0199 56.6702C93.0238 57.095 93.9524 57.6792 94.7699 58.4002L95.0999 57.8302C93.699 57.5025 92.368 56.9267 91.1699 56.1302C91.0854 56.0863 90.9872 56.0766 90.8957 56.1033C90.8043 56.1299 90.7266 56.1908 90.679 56.2733C90.6313 56.3558 90.6172 56.4535 90.6398 56.546C90.6623 56.6386 90.7197 56.7189 90.7999 56.7702C91.7829 57.3823 92.6721 58.1334 93.4399 59.0002L93.9099 58.3902L91.9099 57.1502C91.8198 57.0972 91.7122 57.0821 91.6109 57.1084C91.5097 57.1346 91.423 57.2 91.3699 57.2902C91.3169 57.3804 91.3018 57.4879 91.3281 57.5892C91.3543 57.6905 91.4198 57.7772 91.5099 57.8302C92.2652 58.3283 92.9658 58.9048 93.5999 59.5502L93.9799 58.9002C93.2163 58.6902 92.5246 58.2752 91.9799 57.7002L91.4999 58.3102C92.3089 58.7141 93.019 59.291 93.5799 60.0002L93.9599 59.3502L91.1899 58.2002C90.8099 58.0502 90.5799 58.5902 90.8199 58.8402C91.4216 59.4492 91.9578 60.1195 92.4199 60.8402L92.8299 60.2902C91.7954 59.9454 90.7918 59.5139 89.8299 59.0002C89.5299 58.8502 89.1399 59.1802 89.3399 59.4902L89.9199 60.7702L90.3799 60.4202L89.9999 59.9402L89.5899 60.2602L90.5299 61.1402C90.5432 61.1641 90.5654 61.1817 90.5916 61.1892C90.6179 61.1967 90.6461 61.1935 90.6699 61.1802C90.6938 61.1669 90.7114 61.1447 90.7189 61.1185C90.7264 61.0922 90.7232 61.0641 90.7099 61.0402V61.0002Z" fill="white"/>
<path d="M265.33 38C264.452 37.8017 263.55 37.7276 262.65 37.78C261.65 37.78 260.58 37.69 259.55 37.73C259.5 37.73 259.452 37.75 259.416 37.7856C259.38 37.8213 259.36 37.8696 259.36 37.92C259.36 37.9704 259.38 38.0187 259.416 38.0543C259.452 38.09 259.5 38.11 259.55 38.11C260.55 38.2 261.62 38.18 262.65 38.2C263.544 38.2922 264.446 38.2585 265.33 38.1C265.344 38.1 265.356 38.0947 265.366 38.0853C265.375 38.076 265.38 38.0632 265.38 38.05C265.38 38.0367 265.375 38.024 265.366 38.0146C265.356 38.0052 265.344 38 265.33 38Z" fill="white"/>
<path d="M259.83 38.0001C259.065 36.6611 257.996 35.5205 256.71 34.6701C256.666 34.6356 256.611 34.6199 256.555 34.6265C256.5 34.633 256.45 34.6613 256.415 34.7051C256.381 34.7488 256.365 34.8045 256.372 34.8598C256.378 34.9151 256.406 34.9656 256.45 35.0001C256.99 35.5201 257.6 36.0001 258.13 36.4901C258.658 37.0181 259.156 37.5756 259.62 38.1601C259.72 38.2701 259.91 38.1601 259.83 38.0001V38.0001Z" fill="white"/>
<path d="M257.691 34.5597C255.291 34.5597 252.841 34.3397 250.441 34.4997C250.401 34.5092 250.366 34.5316 250.341 34.5633C250.316 34.5951 250.303 34.6343 250.303 34.6747C250.303 34.7151 250.316 34.7544 250.341 34.7861C250.366 34.8179 250.401 34.8403 250.441 34.8497C252.841 35.0097 255.291 34.8497 257.691 34.7997C257.722 34.7997 257.753 34.7871 257.775 34.7646C257.798 34.7421 257.811 34.7115 257.811 34.6797C257.811 34.6479 257.798 34.6174 257.775 34.5949C257.753 34.5724 257.722 34.5597 257.691 34.5597V34.5597Z" fill="white"/>
<path d="M250.4 34.9998C250.005 35.7312 249.51 36.4042 248.93 36.9998C248.39 37.5598 247.7 37.9198 247.16 38.4598C247.132 38.4912 247.114 38.5307 247.11 38.5728C247.105 38.6149 247.114 38.6574 247.135 38.694C247.156 38.7307 247.188 38.7598 247.227 38.777C247.266 38.7942 247.309 38.7987 247.35 38.7898C248.084 38.4455 248.728 37.9354 249.23 37.2998C249.81 36.6627 250.288 35.9411 250.65 35.1598C250.72 34.9898 250.49 34.8498 250.4 35.0098V34.9998Z" fill="white"/>
<path d="M246.91 37.7501C234.65 37.1301 222.2 37.4801 209.91 37.7501C209.888 37.7571 209.868 37.771 209.854 37.7899C209.84 37.8088 209.833 37.8316 209.833 37.8551C209.833 37.8785 209.84 37.9014 209.854 37.9203C209.868 37.9391 209.888 37.9531 209.91 37.9601C222.18 38.2101 234.63 38.5601 246.91 37.9601C246.928 37.954 246.943 37.9425 246.954 37.9272C246.965 37.912 246.971 37.8938 246.971 37.8751C246.971 37.8564 246.965 37.8382 246.954 37.823C246.943 37.8077 246.928 37.7962 246.91 37.7901V37.7501Z" fill="white"/>
<path d="M209.76 37.2603C209.05 36.3903 208.22 35.5903 207.43 34.7803C206.753 33.9983 206.011 33.2756 205.21 32.6203C205.04 32.5003 204.79 32.7503 204.91 32.9203C205.566 33.7238 206.288 34.4699 207.07 35.1503C207.87 35.9403 208.67 36.7703 209.54 37.4803C209.553 37.501 209.57 37.5185 209.591 37.5315C209.611 37.5446 209.634 37.5528 209.658 37.5557C209.682 37.5585 209.706 37.5559 209.729 37.548C209.752 37.54 209.773 37.527 209.79 37.5099C209.807 37.4928 209.82 37.4721 209.828 37.4492C209.836 37.4263 209.839 37.402 209.836 37.378C209.833 37.3539 209.825 37.3309 209.812 37.3105C209.799 37.2901 209.781 37.273 209.76 37.2603V37.2603Z" fill="white"/>
<path d="M205.28 33.0605C202.475 32.8467 199.655 32.9743 196.88 33.4405C196.858 33.4438 196.836 33.4514 196.817 33.463C196.798 33.4746 196.781 33.4898 196.767 33.5079C196.754 33.526 196.744 33.5466 196.739 33.5685C196.733 33.5904 196.732 33.6131 196.735 33.6355C196.739 33.6578 196.746 33.6793 196.758 33.6986C196.769 33.718 196.785 33.7349 196.803 33.7484C196.821 33.7618 196.841 33.7716 196.863 33.7771C196.885 33.7826 196.908 33.7838 196.93 33.7805C199.71 33.6705 202.5 33.4405 205.28 33.2905C205.305 33.2831 205.327 33.2679 205.342 33.2472C205.358 33.2265 205.366 33.2013 205.366 33.1755C205.366 33.1496 205.358 33.1245 205.342 33.1038C205.327 33.083 205.305 33.0679 205.28 33.0605V33.0605Z" fill="white"/>
<path d="M199.44 33.2906C197.71 34.9106 196.07 36.6106 194.44 38.2906C194.36 38.3806 194.49 38.5106 194.57 38.4206C196.28 36.7806 197.97 35.1306 199.57 33.4206C199.587 33.4034 199.597 33.38 199.597 33.3556C199.597 33.3312 199.587 33.3078 199.57 33.2906C199.553 33.2734 199.529 33.2637 199.505 33.2637C199.481 33.2637 199.457 33.2734 199.44 33.2906V33.2906Z" fill="white"/>
<path d="M195.25 37.7306C190.99 37.7306 186.67 37.4206 182.42 37.7306C182.386 37.7394 182.355 37.7594 182.333 37.7874C182.312 37.8155 182.3 37.85 182.3 37.8855C182.3 37.9211 182.312 37.9556 182.333 37.9837C182.355 38.0117 182.386 38.0317 182.42 38.0406C186.67 38.3006 190.99 38.0406 195.25 37.9906C195.273 37.9836 195.292 37.9696 195.306 37.9507C195.32 37.9318 195.327 37.909 195.327 37.8855C195.327 37.8621 195.32 37.8393 195.306 37.8204C195.292 37.8015 195.273 37.7875 195.25 37.7806V37.7306Z" fill="white"/>
<path d="M263 38.2103C267 38.3903 268.08 34.9303 268.15 31.4803C268.31 23.6903 267.97 15.9103 268.21 8.11027C268.21 7.92027 267.93 7.92027 267.92 8.11027C267.64 12.6803 267.56 17.2703 267.58 21.8503C267.58 25.5803 269.74 37.7703 263 38.0103C262.974 38.0103 262.948 38.0208 262.93 38.0396C262.911 38.0583 262.9 38.0838 262.9 38.1103C262.9 38.1368 262.911 38.1622 262.93 38.181C262.948 38.1997 262.974 38.2103 263 38.2103V38.2103Z" fill="white"/>
<path d="M268.26 8.10042C268.52 5.76042 268.16 2.33042 265.75 1.19042C263.04 -0.0895835 258.62 -0.209584 255.75 0.450416C255.703 0.457047 255.66 0.48237 255.631 0.520815C255.601 0.55926 255.589 0.607677 255.595 0.655416C255.602 0.703155 255.627 0.746305 255.666 0.775373C255.704 0.804441 255.753 0.817047 255.8 0.810416C258.376 0.693782 260.958 0.817652 263.51 1.18042C265.36 1.54042 266.75 2.27042 267.38 4.18042C267.754 5.44901 267.926 6.76842 267.89 8.09042C267.89 8.31042 268.21 8.30042 268.23 8.09042L268.26 8.10042Z" fill="white"/>
<path d="M184.5 39.5197L184.89 38.2197L184.5 39.5197Z" fill="white"/>
<path d="M259.92 0.450197C249 -0.399803 237.81 0.220197 226.84 0.220197C215.87 0.220197 204.78 0.0601972 193.76 0.300197C193.718 0.309966 193.681 0.333559 193.654 0.367145C193.628 0.40073 193.613 0.442334 193.613 0.485197C193.613 0.52806 193.628 0.569664 193.654 0.60325C193.681 0.636835 193.718 0.660429 193.76 0.670197C204.76 0.910197 215.82 0.740197 226.84 0.740197C237.86 0.740197 249 1.3602 259.92 0.520197C259.97 0.520197 259.97 0.450197 259.92 0.450197Z" fill="white"/>
<path d="M193.94 0.180166C192.519 0.300303 191.184 0.907966 190.16 1.90017C190.144 1.92516 190.136 1.95503 190.139 1.98476C190.142 2.01448 190.156 2.04225 190.177 2.06338C190.198 2.08451 190.226 2.09772 190.255 2.10078C190.285 2.10383 190.315 2.09655 190.34 2.08017C191.363 1.15062 192.635 0.539076 194 0.320166C194.08 0.320166 194.06 0.170166 194 0.180166H193.94Z" fill="white"/>
<path d="M194.83 0.0605469C189.49 0.910547 185.57 9.32055 184.7 14.0005C183.51 20.3405 179.11 27.0005 180.18 33.7305C180.18 33.9605 180.56 33.8905 180.57 33.7305C180.92 27.5305 183.35 22.9005 185.16 17.1505C186.07 14.2705 186.16 11.9505 187.67 9.07055C189.42 5.83055 191.19 1.75055 194.92 0.450547C194.964 0.438612 195.001 0.409782 195.023 0.3704C195.046 0.331017 195.052 0.284308 195.04 0.240547C195.028 0.196786 194.999 0.159559 194.96 0.137054C194.92 0.11455 194.874 0.108612 194.83 0.120547V0.0605469Z" fill="white"/>
<path d="M183.3 38.0001C183.095 37.6611 182.801 37.3846 182.45 37.2001C181.774 36.7501 181.251 36.1048 180.95 35.3501C180.63 34.5701 180.68 32.6301 179.87 32.2001C179.827 32.1759 179.777 32.1635 179.727 32.1641C179.677 32.1647 179.628 32.1782 179.585 32.2034C179.541 32.2285 179.505 32.2645 179.48 32.3077C179.455 32.351 179.441 32.4 179.44 32.4501V32.5001C179.444 32.5495 179.462 32.5968 179.492 32.6359C179.522 32.6751 179.563 32.7044 179.61 32.7201C179.86 32.7201 180.11 34.5401 180.19 34.8301C180.326 35.3616 180.553 35.8657 180.86 36.3201C181.46 37.1701 182.41 37.4301 183.08 38.1701C183.19 38.2901 183.37 38.1701 183.3 38.0001V38.0001Z" fill="white"/>
<path d="M181.181 34.5303C180.421 34.6903 179.781 34.5903 179.441 35.4203C179.152 36.1001 179.099 36.8569 179.291 37.5703C179.408 37.8709 179.614 38.1281 179.883 38.307C180.151 38.486 180.468 38.5779 180.791 38.5703C181.804 38.7321 182.842 38.611 183.791 38.2203C183.846 38.1848 183.888 38.1329 183.912 38.072C183.935 38.011 183.939 37.9441 183.922 37.8809C183.906 37.8176 183.87 37.7613 183.819 37.7198C183.768 37.6784 183.706 37.6541 183.641 37.6503C182.641 37.6503 180.241 38.5603 179.821 37.2503C179.712 36.7321 179.739 36.1946 179.901 35.6903C180.101 34.8903 180.531 34.9303 181.231 34.6903C181.252 34.6903 181.272 34.6818 181.287 34.6668C181.302 34.6518 181.311 34.6315 181.311 34.6103C181.311 34.5891 181.302 34.5687 181.287 34.5537C181.272 34.5387 181.252 34.5303 181.231 34.5303H181.181Z" fill="white"/>
<path d="M257.08 45.7206C258.3 45.7206 259.29 43.9806 259.63 43.0006C259.963 41.8806 259.961 40.6877 259.625 39.5686C259.289 38.4494 258.634 37.4527 257.74 36.7006C256.01 35.4506 253.44 35.5306 251.47 35.9806C248.54 36.6406 248.12 37.9806 247.96 40.7406C247.88 41.9806 247.57 43.3406 248.44 44.3706C249.189 45.1209 250.119 45.6651 251.14 45.9506C253.34 46.6906 257.01 46.6706 258.88 45.0106C260.02 44.0106 259.95 42.4106 259.77 41.0106C259.63 39.8906 259.53 37.8706 258.5 37.1306C258.13 36.8706 257.78 37.4206 258.04 37.7206C258.85 38.6606 259.04 41.6406 258.9 42.7906C258.67 44.5106 256.72 45.0906 255.22 45.3506C253.08 45.7106 250.14 45.3506 249.13 43.2506C248.25 41.4206 248.46 38.0406 250.38 37.0006C251.931 36.3133 253.654 36.1145 255.32 36.4306C256.401 36.5958 257.389 37.1383 258.108 37.9619C258.827 38.7856 259.232 39.8373 259.25 40.9306C259.36 42.2606 258.73 45.0806 257.06 45.5306C257.036 45.5306 257.013 45.5401 256.996 45.557C256.98 45.5739 256.97 45.5968 256.97 45.6206C256.97 45.6445 256.98 45.6674 256.996 45.6843C257.013 45.7012 257.036 45.7106 257.06 45.7106L257.08 45.7206Z" fill="white"/>
<path d="M254.94 41.3198C255.38 40.4098 254.18 39.6698 253.39 39.6798C252.6 39.6898 251.39 40.6198 252.05 41.4598C252.423 41.8089 252.905 42.0192 253.415 42.0556C253.925 42.092 254.431 41.9523 254.85 41.6598C255.026 41.5225 255.156 41.3356 255.224 41.1233C255.291 40.9111 255.294 40.6834 255.23 40.4698C255.189 40.2683 255.071 40.0909 254.901 39.9751C254.731 39.8594 254.523 39.8144 254.32 39.8498C254.282 39.869 254.251 39.8984 254.228 39.9345C254.206 39.9707 254.195 40.0123 254.195 40.0548C254.195 40.0972 254.206 40.1388 254.228 40.175C254.251 40.2112 254.282 40.2405 254.32 40.2598C254.61 40.4498 254.9 40.6498 254.69 41.0398C254.566 41.2294 254.378 41.3679 254.16 41.4298C253.686 41.5627 253.181 41.5273 252.73 41.3298C251.87 40.8598 252.92 40.1198 253.44 40.0798C253.96 40.0398 255.21 40.5598 254.93 41.2898C254.93 41.2898 254.98 41.3598 254.99 41.2898L254.94 41.3198Z" fill="white"/>
<path d="M205.75 44.6201C206.97 44.6201 207.96 42.8901 208.3 41.9001C208.633 40.78 208.631 39.5872 208.296 38.468C207.96 37.3489 207.305 36.3521 206.41 35.6001C204.68 34.3501 202.11 34.4301 200.13 34.8801C197.2 35.5501 196.79 36.8801 196.63 39.6501C196.55 40.8901 196.23 42.2401 197.1 43.2701C197.851 44.025 198.785 44.5728 199.81 44.8601C202.01 45.5901 205.68 45.5701 207.55 43.8601C208.68 42.8601 208.62 41.2601 208.44 39.8601C208.3 38.7501 208.2 36.7201 207.17 35.9801C206.8 35.7201 206.45 36.2701 206.71 36.5701C207.52 37.5101 207.71 40.4901 207.57 41.6401C207.34 43.3701 205.39 43.9501 203.89 44.2001C201.75 44.5601 198.81 44.2001 197.8 42.1001C196.91 40.2701 197.13 36.9001 199.05 35.8601C200.599 35.1644 202.323 34.9619 203.99 35.2801C205.071 35.4452 206.059 35.9877 206.778 36.8114C207.498 37.635 207.902 38.6867 207.92 39.7801C208.03 41.1101 207.39 43.9301 205.73 44.3901C205.713 44.3962 205.697 44.4077 205.687 44.4229C205.676 44.4381 205.67 44.4564 205.67 44.4751C205.67 44.4937 205.676 44.512 205.687 44.5272C205.697 44.5424 205.713 44.5539 205.73 44.5601L205.75 44.6201Z" fill="white"/>
<path d="M203.61 40.2202C204.05 39.3102 202.85 38.5702 202.06 38.5902C201.27 38.6102 200.06 39.5202 200.72 40.3602C201.091 40.7102 201.571 40.9214 202.08 40.9578C202.588 40.9943 203.093 40.8538 203.51 40.5602C203.687 40.4258 203.818 40.2412 203.888 40.0306C203.957 39.82 203.962 39.5933 203.9 39.3802C203.861 39.1775 203.744 38.9985 203.573 38.8822C203.403 38.766 203.193 38.7222 202.99 38.7602C202.95 38.7744 202.914 38.7996 202.887 38.8331C202.86 38.8666 202.843 38.9069 202.837 38.9497C202.832 38.9924 202.839 39.0357 202.857 39.0747C202.875 39.1136 202.904 39.1468 202.94 39.1702C203.23 39.3502 203.51 39.5502 203.31 39.9402C203.189 40.1325 203 40.2718 202.78 40.3302C202.306 40.4631 201.801 40.4278 201.35 40.2302C200.48 39.7602 201.54 39.0302 202.06 38.9902C202.58 38.9502 203.83 39.4602 203.54 40.1902C203.54 40.1902 203.59 40.2602 203.61 40.1902V40.2202Z" fill="white"/>
<path d="M263.77 16.2099C255.793 15.6179 247.779 15.7217 239.82 16.5199C239.3 16.5799 239.26 17.3699 239.82 17.3699C247.82 17.2899 255.82 16.7699 263.77 16.5599C263.809 16.5504 263.844 16.528 263.869 16.4963C263.894 16.4645 263.908 16.4253 263.908 16.3849C263.908 16.3445 263.894 16.3052 263.869 16.2735C263.844 16.2418 263.809 16.2193 263.77 16.2099Z" fill="white"/>
<path d="M240 16.9203C240.289 14.0255 240.322 11.111 240.1 8.21031C240.1 8.17318 240.086 8.13757 240.059 8.11132C240.033 8.08506 239.997 8.07031 239.96 8.07031C239.923 8.07031 239.888 8.08506 239.861 8.11132C239.835 8.13757 239.82 8.17318 239.82 8.21031C239.599 11.111 239.632 14.0255 239.92 16.9203C239.92 16.9203 240 16.9203 240 16.9203Z" fill="white"/>
<path d="M263.75 16.3404C264.054 13.1686 264.077 9.97628 263.82 6.80039C263.82 6.76061 263.804 6.72245 263.776 6.69432C263.748 6.66619 263.71 6.65039 263.67 6.65039C263.63 6.65039 263.592 6.66619 263.564 6.69432C263.536 6.72245 263.52 6.76061 263.52 6.80039C263.263 9.97628 263.287 13.1686 263.59 16.3404C263.59 16.3616 263.599 16.382 263.614 16.397C263.629 16.412 263.649 16.4204 263.67 16.4204C263.691 16.4204 263.712 16.412 263.727 16.397C263.742 16.382 263.75 16.3616 263.75 16.3404V16.3404Z" fill="white"/>
<path d="M264.371 7.79986C256.191 7.41986 247.911 7.36986 239.731 7.64986C239.672 7.6616 239.619 7.69343 239.58 7.73993C239.542 7.78642 239.521 7.84471 239.521 7.90486C239.521 7.96501 239.542 8.0233 239.58 8.0698C239.619 8.11629 239.672 8.14812 239.731 8.15986C247.911 8.43986 256.191 8.38986 264.371 8.00986C264.387 8.015 264.405 8.0162 264.422 8.01335C264.439 8.01051 264.455 8.0037 264.469 7.99348C264.483 7.98326 264.494 7.96991 264.502 7.95452C264.509 7.93912 264.514 7.92211 264.514 7.90486C264.514 7.88761 264.509 7.8706 264.502 7.8552C264.494 7.83981 264.483 7.82646 264.469 7.81624C264.455 7.80602 264.439 7.79921 264.422 7.79637C264.405 7.79352 264.387 7.79472 264.371 7.79986V7.79986Z" fill="white"/>
<path d="M236.211 16.2101C228.217 15.6152 220.186 15.7189 212.211 16.5201C211.681 16.5801 211.651 17.3701 212.211 17.3701C220.211 17.2901 228.211 16.7701 236.211 16.5601C236.25 16.5506 236.285 16.5282 236.31 16.4965C236.335 16.4647 236.348 16.4255 236.348 16.3851C236.348 16.3447 236.335 16.3054 236.31 16.2737C236.285 16.2419 236.25 16.2195 236.211 16.2101Z" fill="white"/>
<path d="M212.41 16.9202C212.693 14.0251 212.727 11.111 212.51 8.21023C212.501 8.17824 212.483 8.14995 212.456 8.12976C212.43 8.10958 212.398 8.09863 212.365 8.09863C212.332 8.09863 212.3 8.10958 212.273 8.12976C212.247 8.14995 212.228 8.17824 212.22 8.21023C212.003 11.111 212.037 14.0251 212.32 16.9202H212.41Z" fill="white"/>
<path d="M236.18 16.3404C236.487 13.1689 236.514 9.97657 236.26 6.80039C236.26 6.76061 236.245 6.72245 236.217 6.69432C236.188 6.66619 236.15 6.65039 236.111 6.65039C236.071 6.65039 236.033 6.66619 236.004 6.69432C235.976 6.72245 235.961 6.76061 235.961 6.80039C235.699 9.97609 235.722 13.1689 236.031 16.3404C236.031 16.3603 236.038 16.3794 236.052 16.3934C236.067 16.4075 236.086 16.4154 236.105 16.4154C236.125 16.4154 236.144 16.4075 236.159 16.3934C236.173 16.3794 236.18 16.3603 236.18 16.3404V16.3404Z" fill="white"/>
<path d="M236.81 7.79986C228.63 7.41986 220.35 7.36986 212.17 7.64986C212.111 7.6616 212.058 7.69343 212.02 7.73993C211.982 7.78642 211.961 7.84471 211.961 7.90486C211.961 7.96501 211.982 8.0233 212.02 8.0698C212.058 8.11629 212.111 8.14812 212.17 8.15986C220.35 8.43986 228.63 8.38986 236.81 8.00986C236.94 8.00986 236.94 7.80986 236.81 7.79986Z" fill="white"/>
<path d="M207.001 16.0002C202.729 15.7652 198.447 15.8053 194.181 16.1202C193.461 16.1702 193.461 17.3002 194.181 17.2502C198.451 16.9402 202.721 16.7602 207.001 16.5802C207.078 16.5802 207.151 16.5497 207.206 16.4953C207.26 16.4409 207.291 16.3671 207.291 16.2902C207.291 16.2133 207.26 16.1395 207.206 16.0852C207.151 16.0308 207.078 16.0002 207.001 16.0002V16.0002Z" fill="white"/>
<path d="M207.28 8.71055C207.23 11.2405 207.15 13.7805 207.12 16.3205C207.12 16.4028 207.153 16.4816 207.211 16.5398C207.269 16.5979 207.348 16.6305 207.43 16.6305C207.512 16.6305 207.591 16.5979 207.649 16.5398C207.707 16.4816 207.74 16.4028 207.74 16.3205C207.74 13.7805 207.63 11.2405 207.58 8.71055C207.58 8.67076 207.564 8.63261 207.536 8.60448C207.508 8.57635 207.47 8.56055 207.43 8.56055C207.39 8.56055 207.352 8.57635 207.324 8.60448C207.296 8.63261 207.28 8.67076 207.28 8.71055Z" fill="white"/>
<path d="M207.511 8.80987C206.794 8.57437 206.045 8.44632 205.291 8.42987L202.291 8.35987C200.421 8.35987 198.531 8.25987 196.651 8.35987C196.547 8.35987 196.448 8.40096 196.375 8.4741C196.302 8.54724 196.261 8.64644 196.261 8.74987C196.261 8.85331 196.302 8.95251 196.375 9.02565C196.448 9.09879 196.547 9.13987 196.651 9.13987C200.401 9.23987 204.191 9.13987 207.931 8.94987C208.231 8.94987 208.161 8.46987 207.931 8.54987L207.601 8.64987C207.574 8.64987 207.549 8.66041 207.53 8.67916C207.511 8.69792 207.501 8.72335 207.501 8.74987C207.501 8.7764 207.511 8.80183 207.53 8.82059C207.549 8.83934 207.574 8.84987 207.601 8.84987L207.511 8.80987Z" fill="white"/>
<path d="M196.26 8.85981C195.75 10.0498 195.48 11.3698 195.04 12.5998C194.46 14.1698 193.84 15.7198 193.34 17.3198C193.2 17.7598 193.85 17.9098 194.01 17.4998C194.68 15.8598 195.21 14.1598 195.78 12.4998C196.18 11.3498 196.78 10.0998 196.42 8.88981C196.42 8.82981 196.29 8.79981 196.26 8.88981V8.85981Z" fill="white"/>
<path d="M198 10.31C197.842 12.1087 197.789 13.915 197.84 15.72C197.853 15.7889 197.89 15.8512 197.943 15.896C197.997 15.9409 198.065 15.9654 198.135 15.9654C198.205 15.9654 198.273 15.9409 198.327 15.896C198.381 15.8512 198.418 15.7889 198.43 15.72C198.482 13.915 198.429 12.1087 198.27 10.31C198.262 10.2804 198.245 10.2543 198.22 10.2357C198.196 10.2171 198.166 10.207 198.135 10.207C198.105 10.207 198.075 10.2171 198.05 10.2357C198.026 10.2543 198.008 10.2804 198 10.31Z" fill="white"/>
<path d="M225.16 9.2002C224.924 11.1647 224.887 13.1482 225.05 15.1202C225.059 15.1546 225.079 15.1851 225.107 15.2069C225.135 15.2287 225.17 15.2405 225.205 15.2405C225.241 15.2405 225.275 15.2287 225.303 15.2069C225.331 15.1851 225.352 15.1546 225.36 15.1202C225.524 13.1482 225.487 11.1647 225.25 9.2002H225.16V9.2002Z" fill="white"/>
<path d="M253.12 14.4405C253.55 12.5905 253.21 10.4405 253.12 8.51053C253.113 8.48576 253.098 8.46404 253.077 8.44859C253.056 8.43315 253.031 8.4248 253.005 8.4248C252.979 8.4248 252.954 8.43315 252.933 8.44859C252.913 8.46404 252.897 8.48576 252.89 8.51053C252.84 10.3905 252.5 12.5905 252.89 14.4405C252.89 14.5105 253.02 14.5105 253.03 14.4405H253.12Z" fill="white"/>
<path d="M249.721 9.20996V9.70996H249.771V9.20996H249.721Z" fill="white"/>
<path d="M192.191 1.26062C192.355 1.30296 192.527 1.30296 192.691 1.26062C192.735 1.25055 192.774 1.22577 192.803 1.19034C192.831 1.15492 192.846 1.11094 192.846 1.06562C192.846 1.0203 192.831 0.976326 192.803 0.940898C192.774 0.90547 192.735 0.880692 192.691 0.870621C192.527 0.828282 192.355 0.828282 192.191 0.870621C192.154 0.879762 192.121 0.900974 192.098 0.930878C192.074 0.960781 192.062 0.997655 192.062 1.03562C192.062 1.07359 192.074 1.11046 192.098 1.14036C192.121 1.17027 192.154 1.19148 192.191 1.20062V1.26062Z" fill="white"/>
<path d="M182.461 26.1904C181.956 26.0586 181.441 25.9749 180.921 25.9404C180.869 25.9417 180.819 25.9615 180.78 25.9962C180.741 26.0309 180.715 26.0783 180.708 26.13C180.701 26.1816 180.712 26.2342 180.74 26.2782C180.768 26.3222 180.811 26.3549 180.861 26.3704C181.376 26.4538 181.899 26.4873 182.421 26.4704C182.581 26.4704 182.621 26.2204 182.421 26.1904H182.461Z" fill="white"/>
<path d="M181.781 24.6704C181.912 24.4774 181.987 24.2512 181.996 24.0176C182.005 23.7841 181.947 23.5528 181.831 23.3504C181.7 23.138 181.507 22.9712 181.278 22.8727C181.049 22.7742 180.795 22.749 180.551 22.8004C180.331 22.8804 180.261 23.2804 180.551 23.3204C180.864 23.3008 181.173 23.4049 181.411 23.6104C181.534 23.7417 181.617 23.9061 181.649 24.0836C181.681 24.2612 181.661 24.4442 181.591 24.6104C181.541 24.7204 181.721 24.7904 181.781 24.6904V24.6704Z" fill="#FFE500"/>
<path d="M193.6 2.78048C192.485 2.69036 191.365 2.69036 190.25 2.78048C189.8 2.78048 189.82 3.53048 190.25 3.47048C191.37 3.33048 192.48 3.26048 193.6 3.21048C193.65 3.21048 193.699 3.19046 193.734 3.15483C193.77 3.11919 193.79 3.07087 193.79 3.02048C193.79 2.97008 193.77 2.92176 193.734 2.88613C193.699 2.85049 193.65 2.83048 193.6 2.83048V2.78048Z" fill="white"/>
<path d="M193.82 2.86026C192.669 5.60375 191.778 8.44966 191.16 11.3603C190.38 14.4803 188.8 17.0003 187.67 19.9403C187.653 19.9981 187.652 20.0599 187.668 20.1183C187.683 20.1767 187.716 20.2294 187.76 20.2703L187.94 20.4803C187.976 20.5171 188.02 20.5439 188.07 20.558C188.119 20.572 188.171 20.5728 188.22 20.5603L188.45 20.4903C188.487 20.4792 188.52 20.4579 188.545 20.4288C188.569 20.3998 188.585 20.3642 188.591 20.3263C188.596 20.2884 188.59 20.2498 188.574 20.215C188.558 20.1803 188.533 20.1509 188.5 20.1303C189.38 20.5803 193.62 4.13026 194.05 2.95026C194.05 2.82026 193.88 2.73026 193.82 2.86026V2.86026Z" fill="white"/>
<path d="M189.331 19.65C187.425 19.3399 185.48 19.3602 183.581 19.71C183.251 19.76 183.32 20.3 183.65 20.29C185.51 20.22 187.44 20.23 189.28 20.05C189.49 20.05 189.571 19.7 189.331 19.65Z" fill="white"/>
<path d="M248.3 44.4699C246.13 44.5299 243.88 45.0399 242 43.6299C240.27 42.3199 239 40.3599 239.47 38.1299C239.477 38.0824 239.466 38.0342 239.44 37.9941C239.413 37.9539 239.374 37.9245 239.328 37.9112C239.282 37.8979 239.232 37.9015 239.189 37.9215C239.145 37.9414 239.11 37.9764 239.09 38.0199C238.3 40.0999 239.6 42.1199 241.09 43.4899C243.24 45.4899 245.59 44.8899 248.28 44.6999C248.305 44.6925 248.327 44.6773 248.342 44.6566C248.358 44.6359 248.366 44.6107 248.366 44.5849C248.366 44.5591 248.358 44.5339 248.342 44.5132C248.327 44.4925 248.305 44.4773 248.28 44.4699H248.3Z" fill="white"/>
<path d="M196.421 43.1406C194.721 43.0506 192.691 43.1406 191.231 42.1406C189.771 41.1406 189.651 39.7306 189.411 38.2706C189.411 37.9706 188.911 38.0606 188.901 38.3406C188.868 39.0863 188.997 39.8303 189.28 40.521C189.564 41.2117 189.994 41.8325 190.541 42.3406C192.041 43.5806 194.601 43.6306 196.421 43.4106C196.452 43.4021 196.481 43.3833 196.501 43.357C196.521 43.3308 196.532 43.2987 196.532 43.2656C196.532 43.2325 196.521 43.2003 196.501 43.1741C196.481 43.1478 196.452 43.129 196.421 43.1206V43.1406Z" fill="white"/>
<path d="M244.65 44.7506C245.402 44.6272 246.1 44.2786 246.65 43.7506C246.95 43.5106 247.49 42.9506 247.65 42.8106C246.07 44.0906 248.65 42.2106 248.98 42.0006C249.31 41.7906 248.98 41.5206 248.78 41.6606C247.574 42.3774 246.31 42.9896 245 43.4906L245.16 43.8806C246.23 43.1306 247.32 42.4306 248.44 41.7606L248.21 41.3706C247.115 42.0583 245.964 42.6537 244.77 43.1506L245 43.5506C245.994 42.6122 247.107 41.8087 248.31 41.1606L248.06 40.7406C246.65 41.5606 245.06 42.7406 243.39 43.0006L243.57 43.4306C244.674 42.4576 245.855 41.5747 247.1 40.7906L246.84 40.3506C245.98 40.9006 245.13 41.4906 244.27 42.0306C243.78 42.3406 245.27 41.3006 245.45 41.1506C245.92 40.8006 246.4 40.4606 246.89 40.1506C246.95 40.1148 246.993 40.0568 247.009 39.9893C247.026 39.9218 247.016 39.8503 246.98 39.7906C246.944 39.731 246.886 39.688 246.819 39.6711C246.751 39.6542 246.68 39.6648 246.62 39.7006C245.076 40.6493 243.433 41.4272 241.72 42.0206L241.97 42.4706C243.109 41.4884 244.338 40.6146 245.64 39.8606L245.36 39.3906C243.91 40.4902 242.288 41.3417 240.56 41.9106L240.82 42.3706C241.685 41.4452 242.699 40.6712 243.82 40.0806L243.55 39.6106C242.626 40.2506 241.616 40.7557 240.55 41.1106L240.76 41.6206C241.872 40.8167 243.031 40.0788 244.23 39.4106L243.95 38.9306C242.927 39.6416 241.8 40.1914 240.61 40.5606L240.89 41.0306C241.472 40.351 242.145 39.7553 242.89 39.2606C242.944 39.2179 242.982 39.1572 242.995 39.0894C243.009 39.0216 242.998 38.9511 242.964 38.8908C242.93 38.8305 242.876 38.7842 242.811 38.7603C242.746 38.7364 242.675 38.7366 242.61 38.7606L241.41 39.3106L241.83 39.6306C241.864 39.2836 241.959 38.9452 242.11 38.6306C242.19 38.4206 241.96 38.2306 241.76 38.2806C240.897 38.4884 240.046 38.7421 239.21 39.0406L239.5 39.5206L240.64 38.7306C240.701 38.7011 240.749 38.6513 240.777 38.5897C240.805 38.5281 240.811 38.4587 240.793 38.3934C240.775 38.3281 240.735 38.2711 240.68 38.2323C240.625 38.1934 240.557 38.1752 240.49 38.1806C239.926 38.3109 239.429 38.6414 239.09 39.1106C238.93 39.3206 239.09 39.7106 239.37 39.6006C240.203 39.3002 241.051 39.0431 241.91 38.8306L241.56 38.4806C241.404 38.7933 241.309 39.1326 241.28 39.4806C241.268 39.5349 241.271 39.5916 241.29 39.644C241.309 39.6963 241.343 39.7421 241.387 39.7759C241.431 39.8096 241.484 39.8299 241.54 39.8343C241.595 39.8387 241.651 39.827 241.7 39.8006L242.89 39.2606L242.61 38.7606C241.815 39.2797 241.098 39.9093 240.48 40.6306C240.31 40.8306 240.48 41.1906 240.75 41.1006C241.988 40.7217 243.158 40.1515 244.22 39.4106C244.274 39.3692 244.311 39.3094 244.325 39.2424C244.338 39.1755 244.326 39.106 244.292 39.047C244.257 38.988 244.203 38.9437 244.138 38.9223C244.073 38.9008 244.003 38.9038 243.94 38.9306C242.745 39.6001 241.59 40.338 240.48 41.1406C240.24 41.3106 240.37 41.7506 240.69 41.6406C241.807 41.2772 242.865 40.7516 243.83 40.0806C243.892 40.0448 243.938 39.9857 243.957 39.9164C243.975 39.847 243.966 39.773 243.93 39.7106C243.894 39.6483 243.835 39.6028 243.766 39.584C243.696 39.5653 243.622 39.5748 243.56 39.6106C242.397 40.2231 241.348 41.0316 240.46 42.0006C240.29 42.1906 240.46 42.5506 240.72 42.4606C242.496 41.8761 244.165 41.0045 245.66 39.8806C245.92 39.6806 245.66 39.2406 245.38 39.4106C244.047 40.195 242.789 41.0987 241.62 42.1106C241.579 42.1528 241.553 42.2072 241.545 42.2656C241.538 42.3239 241.55 42.3831 241.58 42.434C241.609 42.485 241.654 42.5249 241.709 42.5478C241.763 42.5706 241.823 42.5751 241.88 42.5606C243.629 41.9482 245.305 41.1468 246.88 40.1706L246.61 39.7206C245.43 40.5406 244.28 41.4006 243.16 42.3006C243.01 42.4106 243.09 42.6206 243.21 42.7106C244.21 43.4306 246.3 41.3506 247.09 40.8406C247.36 40.6706 247.09 40.2206 246.83 40.4006C245.545 41.2033 244.331 42.1132 243.2 43.1206C243.05 43.2606 243.2 43.5806 243.38 43.5506C245.19 43.3206 246.76 42.1206 248.3 41.2106C248.328 41.1942 248.352 41.1725 248.371 41.1468C248.39 41.1211 248.404 41.0919 248.412 41.0607C248.42 41.0296 248.421 40.9973 248.417 40.9655C248.412 40.9338 248.401 40.9032 248.385 40.8756C248.369 40.8481 248.347 40.824 248.321 40.8048C248.295 40.7856 248.266 40.7717 248.235 40.7638C248.204 40.7559 248.172 40.7542 248.14 40.7588C248.108 40.7634 248.078 40.7742 248.05 40.7906C246.818 41.4634 245.678 42.2937 244.66 43.2606C244.44 43.4606 244.71 43.7306 244.94 43.6306C246.153 43.1242 247.32 42.5153 248.43 41.8106C248.471 41.7755 248.498 41.727 248.507 41.6738C248.516 41.6205 248.505 41.5659 248.478 41.5194C248.451 41.473 248.408 41.4376 248.357 41.4195C248.306 41.4015 248.251 41.4019 248.2 41.4206C247.08 42.0906 246 42.8006 244.94 43.5606C244.75 43.6906 244.86 44.0506 245.1 43.9506C246.452 43.4114 247.757 42.7591 249 42.0006L248.8 41.6606C247.985 42.2041 247.213 42.8092 246.49 43.4706C246.37 43.5806 246.49 43.8206 246.66 43.7606C247.259 43.5571 247.782 43.1771 248.16 42.6706C248.184 42.6466 248.199 42.6145 248.201 42.5803C248.204 42.5461 248.194 42.5123 248.173 42.4852C248.152 42.4581 248.121 42.4396 248.088 42.4332C248.054 42.4269 248.019 42.4331 247.99 42.4506C246.83 43.1106 245.99 44.4506 244.66 44.6606C244.56 44.6606 244.6 44.8206 244.66 44.8006L244.65 44.7506Z" fill="white"/>
<path d="M196.05 42.7797L196.8 42.0797L196.47 41.8297L196.17 42.1897L196.54 42.4797L197 41.4797C197.16 41.2297 196.85 40.9697 196.61 41.0897C195.838 41.4862 195.035 41.8206 194.21 42.0897L194.54 42.5297C194.913 41.9772 195.342 41.4645 195.82 40.9997C196.01 40.7997 195.82 40.3697 195.52 40.4897L193.31 41.3897L193.61 41.9097C194.066 41.355 194.635 40.9048 195.28 40.5897L194.9 40.0997C194.477 40.569 193.934 40.9147 193.33 41.0997L193.64 41.6197C194.142 41.1041 194.699 40.6448 195.3 40.2497C195.372 40.2073 195.424 40.1381 195.444 40.0575C195.465 39.9769 195.453 39.8913 195.41 39.8197C195.389 39.7843 195.361 39.7533 195.328 39.7286C195.295 39.7039 195.258 39.6859 195.218 39.6757C195.137 39.655 195.052 39.6673 194.98 39.7097L193.35 40.7097L193.72 41.1997C194.346 40.5053 195.066 39.9027 195.86 39.4097C195.893 39.39 195.922 39.3641 195.944 39.3333C195.967 39.3025 195.984 39.2676 195.993 39.2304C196.002 39.1933 196.004 39.1547 195.999 39.1168C195.993 39.0789 195.98 39.0426 195.96 39.0097C195.94 38.9769 195.915 38.9483 195.884 38.9255C195.853 38.9027 195.818 38.8862 195.781 38.8769C195.706 38.8581 195.626 38.8699 195.56 38.9097C194.6 39.5396 193.538 39.9965 192.42 40.2597L192.69 40.7197C193.339 40.1419 194.079 39.6755 194.88 39.3397L194.57 38.9297C193.892 39.6094 193.063 40.1198 192.15 40.4197L192.39 40.8297C192.881 40.2682 193.45 39.7799 194.08 39.3797C194.125 39.3438 194.156 39.2927 194.167 39.236C194.177 39.1793 194.167 39.1206 194.138 39.0708C194.109 39.021 194.062 38.9834 194.008 38.9648C193.953 38.9462 193.894 38.948 193.84 38.9697C192.671 39.5834 191.437 40.0631 190.16 40.3997L190.39 40.8097C191.148 39.9682 192.098 39.3231 193.16 38.9297L192.97 38.4797L190.85 39.6097L191.19 39.9497C191.517 39.3829 192.034 38.9505 192.65 38.7297L192.4 38.2997C191.591 38.8424 190.679 39.2134 189.72 39.3897L189.96 39.8097C190.454 39.3842 190.998 39.0215 191.58 38.7297C191.87 38.5697 191.58 38.1397 191.32 38.2897C190.631 38.6389 189.912 38.9235 189.17 39.1397L189.43 39.5797C189.641 39.2243 189.965 38.9496 190.35 38.7997C190.62 38.6597 190.43 38.1897 190.14 38.2997C189.14 38.6997 188.14 39.0497 187.04 39.2997C186.969 39.3196 186.908 39.3671 186.871 39.4318C186.835 39.4965 186.825 39.5731 186.845 39.6447C186.865 39.7163 186.913 39.7771 186.977 39.8137C187.042 39.8502 187.119 39.8596 187.19 39.8397C188.24 39.5397 189.27 39.1797 190.29 38.7797L190.08 38.2797C189.654 38.4998 189.287 38.8187 189.01 39.2097C188.87 39.3997 189.1 39.6597 189.31 39.5997C190.094 39.3643 190.854 39.0563 191.58 38.6797L191.32 38.2397C190.717 38.5786 190.145 38.9701 189.61 39.4097C189.39 39.5797 189.61 39.8697 189.85 39.8297C190.853 39.6429 191.806 39.2514 192.65 38.6797C192.7 38.6433 192.735 38.5897 192.748 38.5291C192.761 38.4685 192.75 38.4054 192.719 38.3519C192.688 38.2984 192.638 38.2583 192.579 38.2394C192.52 38.2206 192.457 38.2242 192.4 38.2497C191.725 38.5411 191.154 39.029 190.76 39.6497C190.62 39.8697 190.9 40.0997 191.1 39.9897L193.22 38.8497C193.46 38.7197 193.3 38.2997 193.03 38.3997C191.888 38.8226 190.86 39.5076 190.03 40.3997C189.995 40.4392 189.974 40.4886 189.969 40.5411C189.964 40.5935 189.975 40.6462 190.002 40.6916C190.028 40.7371 190.069 40.773 190.117 40.7942C190.165 40.8154 190.219 40.8208 190.27 40.8097C191.588 40.4652 192.86 39.965 194.06 39.3197L193.82 38.9097C193.15 39.3236 192.544 39.8322 192.02 40.4197C191.87 40.5897 192.02 40.9097 192.26 40.8297C193.259 40.5145 194.17 39.97 194.92 39.2397C195.09 39.0697 194.92 38.6997 194.66 38.7997C193.794 39.1603 192.99 39.6565 192.28 40.2697C192.05 40.4697 192.28 40.7797 192.55 40.7297C193.721 40.4707 194.835 40.0032 195.84 39.3497L195.54 38.8497C194.695 39.3497 193.93 39.9733 193.27 40.6997C193.217 40.7526 193.185 40.8228 193.18 40.8974C193.175 40.972 193.197 41.0459 193.242 41.1056C193.287 41.1653 193.352 41.2067 193.425 41.2221C193.499 41.2376 193.575 41.2261 193.64 41.1897L195.28 40.1897L194.96 39.6497C194.313 40.075 193.713 40.5678 193.17 41.1197C193.119 41.1681 193.085 41.2326 193.076 41.3025C193.066 41.3724 193.08 41.4436 193.116 41.5042C193.153 41.5648 193.208 41.6113 193.274 41.636C193.341 41.6606 193.413 41.6619 193.48 41.6397C194.167 41.4075 194.795 41.0287 195.32 40.5297C195.59 40.2797 195.25 39.8797 194.94 40.0397C194.245 40.3731 193.633 40.8583 193.15 41.4597C192.98 41.6697 193.15 42.1097 193.45 41.9797L195.66 41.0697L195.37 40.5597C194.876 41.0848 194.419 41.6427 194 42.2297C193.973 42.2811 193.962 42.3392 193.967 42.3969C193.973 42.4547 193.995 42.5096 194.031 42.5551C194.067 42.6007 194.115 42.6347 194.17 42.6533C194.225 42.6719 194.284 42.6741 194.34 42.6597C195.214 42.3625 196.06 41.9911 196.87 41.5497L196.48 41.1597C196.212 41.4983 196.052 41.9093 196.02 42.3397C196.007 42.3879 196.009 42.4389 196.025 42.4861C196.041 42.5333 196.071 42.5747 196.111 42.6048C196.15 42.6349 196.198 42.6524 196.248 42.6551C196.298 42.6578 196.347 42.6454 196.39 42.6197C196.8 42.3897 196.79 42.4197 196.87 41.9497C196.87 41.7497 196.66 41.5497 196.5 41.7297C196.19 41.9862 195.972 42.3375 195.88 42.7297C195.88 42.8297 195.95 42.8997 196.02 42.8097L196.05 42.7797Z" fill="white"/>
<path d="M172.36 34.46C168.94 47.85 165.97 61.39 163.31 74.94C163.25 75.25 163.71 75.38 163.79 75.07C167.13 61.67 170.18 48.15 172.79 34.57C172.84 34.31 172.45 34.2 172.39 34.46H172.36Z" fill="white"/>
<path d="M172.7 34.6906C177.12 41.5706 182.7 47.8806 187.7 54.3006C193.167 61.274 198.687 68.2006 204.26 75.0806C204.57 75.4806 205.11 74.9206 204.81 74.5306C199.604 67.7906 194.334 61.0773 189 54.3906C183.73 47.7806 178.7 40.6806 172.83 34.6006C172.816 34.5918 172.8 34.5874 172.784 34.5879C172.768 34.5885 172.752 34.5941 172.739 34.6039C172.726 34.6137 172.716 34.6273 172.711 34.6428C172.706 34.6583 172.706 34.675 172.71 34.6906H172.7Z" fill="white"/>
<path d="M172.51 34.1705C166.99 40.1705 162.32 47.1705 157.41 53.7005C152.077 60.7805 146.8 67.8938 141.58 75.0405C141.29 75.4505 141.96 75.8305 142.26 75.4405C147.43 68.6405 152.58 61.8405 157.66 54.9805C162.74 48.1205 168.25 41.5005 172.66 34.2605C172.66 34.1905 172.6 34.1105 172.55 34.1705H172.51Z" fill="white"/>
<path d="M172.671 34.4799C176.501 47.8899 180.881 61.4199 185.721 74.4799C185.901 74.9799 186.671 74.7799 186.521 74.2599C182.521 60.8899 177.871 47.4399 172.871 34.4099C172.821 34.2799 172.631 34.3299 172.671 34.4099V34.4799Z" fill="white"/>
<path d="M173 35C172.9 34.59 172.65 34.21 172.52 33.8C172.379 33.3554 172.292 32.8954 172.26 32.43C172.247 32.3292 172.194 32.2378 172.114 32.1759C172.033 32.114 171.931 32.0867 171.83 32.1C171.73 32.1132 171.638 32.166 171.576 32.2466C171.514 32.3273 171.487 32.4292 171.5 32.53C171.566 33.5452 172 34.5016 172.72 35.22C172.86 35.32 173.04 35.15 173 35V35Z" fill="white"/>
<path d="M172.77 34.3506C173.133 33.8842 173.546 33.4584 174 33.0806C174.45 32.7106 175 32.4506 175.44 32.0806C175.88 31.7106 175.59 31.2006 175.14 31.3706C173.92 31.9218 172.912 32.8556 172.27 34.0306C172.07 34.3606 172.55 34.6106 172.77 34.3306V34.3506Z" fill="white"/>
<path d="M171.74 35.2402C171.722 34.4115 171.501 33.5999 171.097 32.8764C170.693 32.1529 170.117 31.5396 169.42 31.0902C169.32 31.0353 169.204 31.018 169.092 31.0414C168.98 31.0648 168.88 31.1272 168.81 31.2176C168.74 31.308 168.705 31.4203 168.711 31.5344C168.716 31.6486 168.762 31.757 168.84 31.8402C169.418 32.3148 169.936 32.8589 170.38 33.4602C170.725 34.0732 171.023 34.7117 171.27 35.3702C171.39 35.6102 171.72 35.4602 171.74 35.2402V35.2402Z" fill="white"/>
<path d="M162.86 75.0005C155.97 74.1405 148.64 74.5305 141.71 74.8605C141.636 74.8737 141.569 74.9125 141.521 74.9701C141.473 75.0277 141.446 75.1004 141.446 75.1755C141.446 75.2506 141.473 75.3233 141.521 75.3809C141.569 75.4385 141.636 75.4773 141.71 75.4905C148.63 75.8105 155.97 76.2005 162.86 75.3505C162.899 75.341 162.934 75.3186 162.959 75.2869C162.984 75.2551 162.998 75.2159 162.998 75.1755C162.998 75.1351 162.984 75.0958 162.959 75.0641C162.934 75.0324 162.899 75.0099 162.86 75.0005Z" fill="white"/>
<path d="M163.12 75.1504C170.91 75.9304 179.02 75.6304 186.85 75.4404C186.946 75.4404 187.037 75.4025 187.105 75.335C187.172 75.2675 187.21 75.1759 187.21 75.0804C187.21 74.985 187.172 74.8934 187.105 74.8259C187.037 74.7584 186.946 74.7204 186.85 74.7204C179.02 74.5304 170.91 74.2304 163.12 75.0204C163.107 75.0256 163.096 75.0346 163.088 75.0462C163.08 75.0578 163.076 75.0714 163.076 75.0854C163.076 75.0994 163.08 75.1131 163.088 75.1247C163.096 75.1363 163.107 75.1452 163.12 75.1504V75.1504Z" fill="white"/>
<path d="M186.461 75.8406C192.231 76.6106 198.461 76.2606 204.251 76.0806C204.335 76.0665 204.411 76.0231 204.466 75.9581C204.521 75.8931 204.551 75.8107 204.551 75.7256C204.551 75.6405 204.521 75.5581 204.466 75.4932C204.411 75.4282 204.335 75.3848 204.251 75.3706C198.441 75.2006 192.251 74.8406 186.461 75.6106C186.436 75.618 186.414 75.6332 186.399 75.6539C186.383 75.6746 186.375 75.6998 186.375 75.7256C186.375 75.7515 186.383 75.7766 186.399 75.7973C186.414 75.818 186.436 75.8332 186.461 75.8406Z" fill="white"/>
</g>
<defs>
<clipPath id="clip0">
<rect width="268.33" height="76.32" fill="white"/>
</clipPath>
</defs>
</svg>
