<svg width="414" height="896" viewBox="0 0 414 896" fill="none" xmlns="http://www.w3.org/2000/svg">
<path d="M886.142 1197.75C893.771 1205.13 900.69 1200.01 907.135 1196.4C932.93 1182.96 984.282 1156.84 1010.34 1144.14C999.372 1071.52 1059.36 1083.28 1057.64 1009.76C1056.86 977.997 981.187 881.187 986.364 861.586C995.989 823.648 1004.82 798.232 965.97 748.843C954.723 734.52 903.374 625.796 917.493 617.305C922.445 614.22 927.676 612.882 932.679 612.798C922.169 597.712 911.652 582.126 900.618 565.548C823.928 452.493 760.403 498.835 527.954 392.131C532.581 399.559 535.971 407.758 538.376 416.975C544.287 441.394 535.905 463.801 537.806 487.787C538.127 492.034 540.202 496.503 543.05 502.21C547.447 510.893 542.779 530.985 547.177 539.669C556.761 559.273 569.663 567.815 566.461 585.881C568.75 588.095 570.792 590.562 572.097 593.793C586.662 627.075 604.738 660.798 617.581 695.86C619.386 699.082 620.174 701.321 619.937 702.075C630.967 733.414 637.258 765.583 632.56 798.936C627.2 837.554 641.32 919.129 615.512 946.829C589.696 974.029 650.979 1033.3 711.632 1039.8C729.928 1041.74 636.636 1088.33 620.307 1084.35C601.469 1079.91 565.611 1059.99 568.066 1042.19C568.516 1039.18 499.48 965.026 510.26 981.358C507.234 979.907 501.068 895.198 498.025 892.747C451.795 850.987 438.13 841.708 447.046 791.272C451.377 765.931 447.208 725.971 444.936 694.736C443.339 673.997 442.497 703.996 442.655 683.479C439.137 682.537 435.61 681.094 432.575 679.144C419.44 686.618 432.18 680.321 421 670C413.5 652 404 624.5 398 610.5C389.319 603.5 373 599 358.5 594.484C341.5 594.484 326.458 596.104 318.5 614C318.5 653.304 328.744 669.401 323.5 685C322.862 691.766 365 690 377 690C389 690 380.293 688.648 404 685C412.275 716.135 392.621 738.14 389.319 750.204C379.177 787.15 328.654 757.97 319.513 794.9C319.513 794.9 250.991 886.609 229.748 902.975C241.853 848.733 104.789 730.931 96.6392 677.277C93.8378 659.311 11.954 594.878 31.1252 589.305C31.6254 589.296 36.2645 581.516 31.1252 562C33.9597 551.945 50.5 535 63 535C67.5899 515.597 145 444 88.5 430C65.1641 424.218 82.9187 376.887 81.4544 366.802C71.6118 301.669 49.7881 178.191 89.6015 120.235C95.2165 111.886 103.129 106.25 111.845 103.853C36.639 19.7944 8.41715 -22.2664 -92.4834 -56.8604C-201.684 -94.0681 -335.099 -128.12 -453.841 -182.431C-455.929 -142.617 -434.727 -101.44 -436.069 -61.8884C-429.316 -46.99 -429.22 -26.2265 -432.642 -6.40488C-435.623 9.90677 -439.137 24.2257 -440.608 41.0126C-442.054 59.3001 -424.141 128.302 -392.931 154.551C-377.453 167.553 -312.143 228.259 -327.308 249.027C-344.925 272.838 -369.577 354.809 -377.259 359.191C-351.277 372.017 -348.863 381.734 -333.573 398.491C-311.925 421.398 -333.155 423.503 -328.582 442.691C-326.16 452.908 -328.265 461.699 -332.651 468.778C-292.932 510.146 -382.86 503.39 -343.117 546.259C-316.621 574.839 -283.302 607.557 -257.052 636.391C-213.715 684.704 -164.084 720.403 -120.501 768.463C-73.3497 820.465 -22.5259 867.653 26.8471 917.867C73.1687 965.13 124.672 1008.05 169.764 1056.59C193.963 1082.45 204.08 1104.05 230.492 1127.63C267.83 1161.28 307.161 1194.4 343.703 1225.31C369.836 1247.14 391.45 1268.05 415.124 1292.42L181.494 1534.99C192.041 1537.32 202.129 1542.15 210.012 1549.78C216.115 1555.68 220.479 1562.36 223.351 1569.57L283.363 1627.61C287.177 1631.3 290.245 1635.25 292.821 1639.71L616.566 1310.08C580.441 1274.15 713.953 1389.01 713.953 1389.01C718.134 1384.69 722.561 1380.11 726.742 1375.79C728.447 1373.01 730.406 1370.48 732.619 1368.19C733.111 1367.68 742.449 1357.51 747.401 1354.43C764.863 1336.38 782.325 1318.32 799.787 1300.27C826.595 1272.55 853.402 1244.83 880.21 1217.12C884.145 1213.05 890.344 1209.69 882.486 1203.57C880.969 1202.59 880.927 1200.09 882.403 1198.57C882.624 1196.81 884.616 1196.28 886.142 1197.75Z" fill="#1D7874" stroke="#1D7874" stroke-width="3" stroke-miterlimit="10"/>
</svg>
