<svg width="44" height="62" viewBox="0 0 44 62" fill="none" xmlns="http://www.w3.org/2000/svg">
<path fill-rule="evenodd" clip-rule="evenodd" d="M11.6737 10.2361L11.6737 10.2361C13.7628 10.2804 15.8664 10.325 17.9259 10.4579C19.2036 10.5403 20.4813 10.7077 21.766 10.876L21.766 10.876C22.8067 11.0123 23.852 11.1492 24.9055 11.2421C23.549 14.701 22.7025 18.273 22.0256 21.9581C21.8851 22.7132 21.72 23.4993 21.5507 24.3047C20.9546 27.1416 20.3077 30.2199 20.5093 33.0428C17.6562 25.843 14.8532 18.6132 12.4259 11.158C11.7259 9.55798 9.1259 10.158 9.6259 11.958C10.7393 16.203 11.9496 20.3995 13.1557 24.5814L13.1557 24.5815C13.6827 26.4089 14.2089 28.2334 14.7259 30.058C14.8523 30.5213 14.9688 30.9964 15.0859 31.4743C15.8033 34.3999 16.5454 37.4265 19.7259 38.458C20.6713 38.8018 21.9123 37.8897 21.9249 36.8647C22.9779 37.5942 24.5476 37.6308 25.1256 36.2581C26.3968 33.4332 26.471 30.4088 26.5458 27.361C26.5769 26.0932 26.6081 24.8213 26.7256 23.5581C26.9203 21.5725 27.1907 19.6173 27.4603 17.6687C27.7606 15.497 28.0599 13.3337 28.2518 11.146C29.8368 10.3533 29.9783 7.58548 27.9259 7.1579C21.9259 5.8579 14.6259 6.3579 8.62589 7.0579C6.52589 7.1579 6.42589 10.0579 8.52589 10.1579C9.56642 10.1915 10.6182 10.2138 11.6737 10.2361Z" fill="#FFE500"/>
<path d="M21.0259 48.3581C20.8259 47.0581 20.6259 45.1581 21.5259 44.0581C22.2259 43.1581 24.9259 43.1581 25.6259 44.1581C26.4259 45.3581 24.1259 45.2581 23.5259 45.0581C21.7259 44.5581 20.5259 43.0581 18.4259 43.6581C17.5259 43.8581 16.7259 44.8581 16.8259 45.7581C17.1259 49.7581 22.9259 51.4581 26.1259 50.1581C29.2259 48.9581 31.1259 44.8581 28.8259 42.0581C26.9259 39.7581 22.5259 39.1581 20.0259 40.9581C17.3259 42.8581 17.9259 46.3581 18.5259 49.0581C19.0259 50.6581 21.2259 49.9581 21.0259 48.3581Z" fill="#FFE500"/>
<path d="M21.0442 34.6517L11.1819 9.93873L26.3183 8.57146L21.0442 34.6517Z" fill="#FFE500"/>
<path d="M2.60892 24.3083C2.63563 21.7191 4.99815 19.3258 7.46856 19.3804C16.1858 19.5732 31.6135 19.9611 38.9012 20.4266C40.4526 20.5257 41.5774 21.7513 41.5949 23.4307C41.6671 30.3933 41.8722 45.2379 42.3694 54.3891C42.4878 56.5681 40.8671 58.4486 38.7584 58.597C30.2629 59.1952 13.4428 60.3408 4.82482 60.6638C2.88957 60.7363 1.38369 59.1838 1.47593 57.1515C1.83793 49.175 2.51627 33.2887 2.60892 24.3083Z" stroke="#FFE500" stroke-width="2.5"/>
</svg>
