<svg width="87" height="157" viewBox="0 0 87 157" fill="none" xmlns="http://www.w3.org/2000/svg">
<path d="M17.5025 105.657C18.1025 77.8574 18.0025 50.0574 17.9025 22.1574C17.9025 20.7574 15.7025 20.7574 15.7025 22.1574C15.6025 49.9574 15.5025 77.7574 16.1025 105.657C16.2025 106.457 17.5025 106.457 17.5025 105.657Z" fill="white"/>
<path d="M15.203 20.7569C22.203 16.1569 31.503 17.0569 39.503 17.0569C48.203 17.0569 57.0029 17.3569 65.7029 17.9569C67.5029 18.0569 67.5029 15.2569 65.7029 15.1569C55.403 14.4569 45.003 14.2569 34.603 14.5569C27.803 14.7569 19.303 14.1569 14.403 19.7569C14.003 20.2569 14.603 21.1569 15.203 20.7569Z" fill="white"/>
<path d="M16.2025 104.457C13.9025 108.157 27.5025 109.757 29.4025 109.757C30.8025 109.757 30.8025 107.657 29.4025 107.557C28.1025 107.557 16.4025 106.757 16.9025 104.757C17.1025 104.257 16.4025 104.057 16.2025 104.457Z" fill="white"/>
<path d="M24.7027 109.457C38.2027 109.757 51.8027 110.657 65.3027 109.857C66.4027 109.757 66.4027 108.157 65.3027 108.157C51.8027 107.357 38.2027 108.257 24.7027 108.557C24.0027 108.557 24.0027 109.457 24.7027 109.457Z" fill="white"/>
<path d="M65.3025 108.557C64.7025 108.357 64.1025 108.257 63.6025 108.057C62.8025 107.857 62.5025 109.157 63.3025 109.257C66.5025 109.757 69.7025 109.657 73.0025 109.657C74.4025 109.657 74.3025 107.657 73.0025 107.557C62.5025 107.157 51.6025 106.257 41.1025 107.457C39.6025 107.657 39.6025 109.657 41.1025 109.857C51.6025 110.957 62.5025 110.157 73.0025 109.757C73.0025 109.057 73.0025 108.357 73.0025 107.657C69.8025 107.757 66.5025 107.657 63.3025 108.057C63.4025 108.457 63.5025 108.857 63.6025 109.257C64.2025 109.057 64.8025 108.957 65.3025 108.757C65.4025 108.757 65.4025 108.557 65.3025 108.557Z" fill="white"/>
<path d="M59.9029 17.5568C63.1029 16.3568 68.4029 17.5568 69.0029 21.5568C69.4029 24.2568 68.7029 27.4568 68.5029 30.1568C68.4029 32.8568 67.2029 37.3568 70.9029 37.7568C72.4029 37.9568 72.5029 35.8568 71.6029 35.1568C71.1029 34.7568 71.7029 30.8568 71.7029 30.1568C71.7029 27.9568 71.8029 25.6568 71.8029 23.4568C71.8029 20.8568 71.6029 18.3568 69.4029 16.6568C67.4029 15.1568 60.0029 13.6568 59.5029 17.1568C59.5029 17.3568 59.7029 17.5568 59.9029 17.5568Z" fill="white"/>
<path d="M71.7025 107.657L71.6025 107.557C71.5025 107.457 71.4025 107.357 71.3025 107.457C71.2025 107.457 71.1025 107.557 71.1025 107.757C71.1025 107.857 71.2025 107.957 71.3025 108.057C71.4025 108.157 71.6025 108.057 71.6025 107.957C71.6025 107.757 71.7025 107.657 71.7025 107.657Z" fill="#FFE500"/>
<path d="M68.7027 32.2572C66.8027 57.0572 68.9027 81.7572 68.5027 106.557C68.5027 107.557 70.1027 107.557 70.1027 106.557C69.7027 81.7572 71.9027 57.0572 69.9027 32.2572C69.9027 31.4572 68.8027 31.4572 68.7027 32.2572Z" fill="white"/>
<path d="M10.5025 115.557C11.1025 80.2568 11.0025 44.8568 10.9025 9.55684C10.9025 8.15684 8.70255 8.15684 8.70255 9.55684C8.60255 44.9568 8.50255 80.2568 9.10255 115.557C9.20255 116.457 10.5025 116.457 10.5025 115.557Z" fill="white"/>
<path d="M7.70295 7.55692C16.103 1.45692 27.903 2.65692 37.803 2.65692C49.2029 2.65692 60.603 2.95692 72.003 3.75692C73.803 3.85692 73.803 1.05692 72.003 0.956922C59.003 0.156922 46.003 -0.243078 33.003 0.156922C24.303 0.456922 13.203 -0.343078 6.90295 6.55692C6.50295 7.05692 7.10295 7.95692 7.70295 7.55692Z" fill="white"/>
<path d="M9.1031 114.157C6.5031 118.757 23.4031 120.457 25.8031 120.457C27.2031 120.457 27.2031 118.357 25.8031 118.257C24.2031 118.257 9.1031 117.157 9.8031 114.457C10.0031 113.957 9.3031 113.757 9.1031 114.157Z" fill="white"/>
<path d="M19.8033 120.357C37.0033 120.657 54.2033 121.557 71.4033 120.757C72.5033 120.657 72.5033 119.057 71.4033 119.057C54.3033 118.257 37.0033 119.157 19.8033 119.457C19.1033 119.357 19.1033 120.257 19.8033 120.357Z" fill="white"/>
<path d="M71.3025 119.257C70.5025 119.157 69.8025 118.957 69.1025 118.757C68.3025 118.557 68.0025 119.857 68.8025 119.957C72.8025 120.657 77.0025 120.357 81.1025 120.357C82.5025 120.357 82.4025 118.257 81.1025 118.257C67.7025 117.857 54.0025 116.957 40.6025 118.157C39.1025 118.257 39.1025 120.457 40.6025 120.557C54.0025 121.657 67.7025 120.857 81.1025 120.457C81.1025 119.757 81.1025 119.057 81.1025 118.357C77.0025 118.457 72.9025 118.157 68.8025 118.757C68.9025 119.157 69.0025 119.557 69.1025 119.957C69.8025 119.757 70.6025 119.557 71.3025 119.457C71.4025 119.457 71.4025 119.357 71.3025 119.257Z" fill="white"/>
<path d="M64.6025 3.4573C69.3025 1.0573 76.0025 4.3573 76.5025 9.4573C76.8025 12.7573 76.2025 16.3573 76.0025 19.6573C75.9025 22.2573 74.4025 28.1573 78.3025 28.8573C79.8025 29.1573 80.7025 27.2573 79.4025 26.3573C78.4025 25.6573 79.2025 20.7573 79.2025 19.6573C79.3025 16.8573 79.4025 13.9573 79.4025 11.1573C79.4025 7.8573 79.3025 4.8573 76.5025 2.7573C74.0025 0.857296 65.3025 -0.942704 64.2025 3.1573C64.1025 3.4573 64.4025 3.6573 64.6025 3.4573Z" fill="white"/>
<path d="M79.5027 118.057C79.4027 117.957 79.3027 117.957 79.3027 117.857C79.2027 117.757 79.1027 117.757 79.0027 117.757C78.9027 117.757 78.8027 117.857 78.8027 118.057C78.8027 118.157 78.9027 118.257 78.9027 118.257C79.0027 118.357 79.1027 118.257 79.2027 118.257C79.4027 118.257 79.5027 118.157 79.5027 118.057C79.5027 118.157 79.5027 118.057 79.5027 118.057Z" fill="#FFE500"/>
<path d="M75.9029 22.3568C74.0029 53.8568 76.1029 85.2568 75.7029 116.757C75.7029 117.757 77.3029 117.757 77.3029 116.757C76.9029 85.2568 79.1029 53.8568 77.1029 22.3568C77.1029 21.5568 75.9029 21.5568 75.9029 22.3568Z" fill="white"/>
<path d="M42.8033 116.257C42.7033 115.957 42.8033 115.957 42.8033 115.657C42.9033 115.557 42.8033 115.557 42.6033 115.557C42.4033 115.757 42.6033 115.557 43.1033 114.957C43.5033 115.257 43.9033 115.557 44.2033 115.857C44.1033 115.557 43.9033 115.157 43.8033 114.857C43.3033 115.457 42.9033 116.057 42.4033 116.657C42.5033 116.657 42.5033 116.657 42.6033 116.657C42.4033 116.557 42.1033 116.557 41.9033 116.457C42.0033 116.457 42.0033 116.557 42.1033 116.557C41.9033 116.357 41.7033 116.157 41.6033 116.057C41.6033 116.057 41.6033 116.057 41.6033 115.957C41.6033 115.657 41.6033 115.357 41.6033 115.157V115.057C41.8033 114.857 42.0033 114.657 42.2033 114.457C42.3033 114.457 42.5033 114.357 42.6033 114.357C42.9033 114.457 43.1033 114.457 43.4033 114.557C43.4033 114.557 43.3033 114.557 43.3033 114.457C43.5033 114.657 43.7033 114.857 43.9033 115.057L43.8033 114.957C43.8033 115.457 43.8033 116.057 43.8033 116.557C43.7033 116.857 42.8033 116.357 42.9033 115.957C43.1033 115.657 43.4033 115.357 43.6033 115.057C44.5033 114.657 44.5033 115.257 44.5033 115.757C44.5033 116.457 44.3033 115.857 44.3033 115.857C44.2033 115.757 44.6033 115.957 44.6033 115.957C44.8033 116.057 44.9033 116.357 45.1033 116.557C45.1033 115.957 45.1033 115.357 45.1033 114.757C45.2033 114.657 45.4033 114.557 45.5033 114.457C45.8033 114.357 45.4033 114.457 45.6033 114.457C45.8033 114.457 45.4033 114.357 45.6033 114.457C45.7033 114.557 46.1033 115.057 46.0033 114.657C45.9033 115.457 45.8033 116.257 45.7033 117.057C45.0033 116.857 44.3033 116.757 43.7033 116.557C44.2033 115.757 44.6033 114.957 45.1033 114.157C44.7033 114.357 44.4033 114.357 44.0033 114.457C43.6033 114.557 43.3033 114.757 43.0033 114.857C41.7033 115.357 41.6033 116.857 42.6033 117.557C43.7033 118.357 44.9033 118.357 46.1033 117.857C47.0033 117.457 47.8033 116.557 47.5033 115.457C46.8033 113.457 44.6033 112.957 43.0033 114.257C42.3033 114.857 42.4033 115.857 42.7033 116.657C43.8033 119.157 48.4033 118.657 48.4033 115.657C48.4033 114.357 46.7033 113.057 45.6033 112.657C44.4033 112.257 42.9033 112.557 42.0033 113.457C41.0033 114.457 41.0033 116.057 41.9033 117.157C42.8033 118.157 44.5033 118.457 45.5033 117.457C46.6033 116.357 45.7033 114.557 44.6033 113.957C43.3033 113.157 41.7033 113.757 41.0033 114.957C40.7033 115.457 40.7033 116.057 41.0033 116.557C41.8033 117.857 43.9033 117.957 44.6033 116.357C44.9033 115.557 44.6033 114.657 44.0033 114.157C43.3033 113.657 42.6033 113.657 41.9033 113.957C41.1033 114.357 41.0033 115.557 41.6033 116.157C41.9033 116.457 42.1033 116.657 42.4033 116.957C42.7033 117.257 43.4033 117.457 43.8033 117.157C44.9033 116.357 44.7033 114.357 43.3033 114.057C41.8033 113.757 41.1033 115.657 41.8033 116.757C41.9033 117.357 43.0033 116.957 42.8033 116.257Z" fill="white"/>
<path d="M2.00268 71.7568C3.40268 72.2568 4.80268 72.6568 6.30268 73.0568C7.60268 73.3568 9.00267 73.8568 10.4027 73.8568C11.4027 73.8568 12.0027 72.3568 10.9027 71.8568C9.50267 71.2568 8.00268 71.1568 6.50268 70.9568C5.00268 70.7568 3.60267 70.5568 2.10267 70.5568C1.40267 70.4568 1.40268 71.4568 2.00268 71.7568Z" fill="#FFE500"/>
<path d="M2.30245 69.4566C2.70245 61.2566 2.80245 53.0566 2.90245 44.8566C2.90245 42.9566 -0.0975544 42.9566 0.00244558 44.8566C0.102446 53.0566 0.202446 61.2566 0.702446 69.4566C0.702446 70.4566 2.20245 70.4566 2.30245 69.4566Z" fill="#FFE500"/>
<path d="M2.60316 43.7573C2.60316 43.6573 2.60316 43.6573 2.60316 43.7573C2.50316 43.3573 2.20316 43.1573 1.90316 43.1573C1.50316 43.1573 1.30316 43.3573 1.10316 43.6573C0.903158 43.9573 1.00316 44.3573 1.20316 44.6573C1.90316 45.4573 3.20316 44.8573 4.10316 44.7573C5.60316 44.4573 7.10316 44.1573 8.60316 43.8573C10.3032 43.5573 9.50316 40.6573 7.90316 41.2573C6.80316 41.6573 5.80316 41.9573 4.70316 42.3573C3.90316 42.6573 2.60316 43.3573 1.80316 43.2573C2.10316 43.3573 2.30316 43.5573 2.60316 43.7573C2.50316 43.9573 2.50316 44.0573 2.50316 44.1573C2.20316 44.2573 2.00316 44.3573 1.70316 44.4573H1.80316C2.30316 44.6573 2.80316 44.1573 2.60316 43.7573Z" fill="#FFE500"/>
<path d="M77.203 38.7575C79.603 41.1575 82.303 42.8575 85.003 44.6575C86.503 45.6575 87.903 42.9575 86.003 42.2575C83.103 41.1575 80.403 39.4575 77.803 37.9575C77.303 37.6575 76.803 38.3575 77.203 38.7575Z" fill="#FFE500"/>
<path d="M76.203 82.457C76.303 82.257 76.403 82.057 76.403 81.857C76.503 81.657 76.303 81.457 76.103 81.457C75.903 81.457 75.703 81.657 75.803 81.857C75.903 82.057 76.003 82.257 76.003 82.457C76.103 82.457 76.203 82.457 76.203 82.457Z" fill="#FFE500"/>
<path d="M79.0027 78.2567C79.9027 77.6567 80.9027 77.0567 81.9027 76.4567C82.9027 75.9567 84.1027 75.6567 84.6027 74.5567C84.9027 73.8567 84.7027 72.7567 83.8027 72.5567C82.5027 72.2567 81.5027 73.0567 80.4027 73.8567C79.4027 74.5567 78.4027 75.3567 77.5027 76.1567C76.3027 77.2567 77.8027 79.1567 79.0027 78.2567Z" fill="#FFE500"/>
<path d="M85.9028 72.0568C86.0028 72.0568 85.8028 57.4568 85.8028 55.9568C85.9028 51.3568 86.3028 46.5568 84.6028 42.1568C84.1028 40.9568 82.3028 41.3568 82.6028 42.6568C84.0028 47.4568 83.4028 52.8568 83.5028 57.7568C83.6028 62.8568 83.5028 67.9568 84.0028 73.0568C84.0028 73.5568 84.6028 74.0568 85.1028 73.6568C85.5028 73.3568 85.9028 73.0568 86.3028 72.7568C86.6028 72.5568 86.4028 71.9568 85.9028 72.0568Z" fill="#FFE500"/>
<path d="M33.0027 121.957C32.9027 125.357 32.8027 128.857 32.7027 132.257C32.6027 134.357 32.4027 136.657 34.5027 137.757C35.3027 138.157 36.6027 137.657 36.5027 136.557C36.2027 134.357 35.6027 132.357 35.5027 130.057C35.3027 127.357 35.1027 124.657 34.9027 121.857C34.9027 120.657 33.1027 120.657 33.0027 121.957Z" fill="#FFE500"/>
<path d="M51.0027 122.657C50.7027 126.057 50.6027 131.057 52.6027 134.057C53.5027 135.457 55.8027 134.557 55.3027 132.857C54.9027 131.257 54.0027 129.757 53.5027 128.057C53.0027 126.257 52.9027 124.457 52.9027 122.657C52.9027 121.357 51.1027 121.357 51.0027 122.657Z" fill="#FFE500"/>
<path d="M22.1034 151.757C25.7034 147.557 29.1034 143.057 32.6034 138.657C33.4034 137.657 32.1034 136.157 31.1034 137.157C27.3034 141.257 23.6034 145.857 20.9034 150.757C20.5034 151.557 21.5034 152.457 22.1034 151.757Z" fill="#FFE500"/>
<path d="M33.1028 141.057C41.7028 139.757 50.1028 140.057 58.7028 141.057C60.1028 141.257 60.5028 138.857 59.0028 138.557C50.2028 136.957 41.3028 137.257 32.4028 138.857C31.0028 139.057 31.7028 141.257 33.1028 141.057Z" fill="#FFE500"/>
<path d="M56.1034 138.357C60.8034 144.557 67.5034 151.357 75.2034 153.457C76.6034 153.857 77.4034 151.857 76.2034 151.157C73.0034 149.257 69.5034 147.857 66.3034 145.657C62.9034 143.357 60.0034 140.557 57.4034 137.357C56.8034 136.657 55.6034 137.657 56.1034 138.357Z" fill="#FFE500"/>
<path d="M25.8031 154.757C33.6031 156.357 42.3031 156.057 50.3031 156.257C59.0031 156.457 67.8031 156.657 76.5031 156.757C79.3031 156.757 79.3031 152.357 76.5031 152.457C67.8031 152.557 59.0031 152.657 50.3031 152.657C42.3031 152.657 33.7031 151.957 25.8031 153.257C25.0031 153.357 25.0031 154.657 25.8031 154.757Z" fill="#FFE500"/>
<path d="M22.003 154.957C27.203 155.857 32.703 155.557 37.903 155.657C40.003 155.757 40.003 152.257 37.903 152.357C32.603 152.457 27.103 152.157 22.003 153.057C21.103 153.157 21.003 154.757 22.003 154.957Z" fill="#FFE500"/>
<path d="M31.1025 9.25723C38.0025 9.35723 44.8025 9.35723 51.6025 9.45723C53.4025 9.45723 53.4025 6.65723 51.6025 6.65723C44.8025 6.75723 38.0025 6.75723 31.1025 6.85723C29.6025 6.85723 29.6025 9.25723 31.1025 9.25723Z" fill="white"/>
<path d="M30.203 37.7573C31.803 43.8573 33.603 49.8573 35.303 55.8573C36.203 59.1573 36.603 63.0573 40.303 64.2573C41.403 64.6573 42.9031 63.3573 42.4031 62.1573C39.1031 53.8573 35.803 45.5573 33.003 36.9573C32.303 35.3573 29.703 35.9573 30.203 37.7573Z" fill="#FFE500"/>
<path d="M29.103 35.9567C32.203 36.0567 35.403 36.0567 38.503 36.2567C41.603 36.4567 44.703 37.1567 47.903 37.1567C50.303 37.1567 50.903 33.4567 48.503 32.9567C42.503 31.6567 35.203 32.1567 29.203 32.8567C27.103 32.9567 27.003 35.8567 29.103 35.9567Z" fill="#FFE500"/>
<path d="M47.0028 33.6569C44.7028 38.1569 43.5028 42.8569 42.6028 47.7569C41.8028 52.0569 40.2028 57.3569 41.6028 61.5569C42.2028 63.1569 44.9028 63.9569 45.7028 62.0569C47.5028 58.0569 46.9028 53.6569 47.3028 49.3569C47.8028 44.2569 48.8028 39.3569 49.0028 34.2569C49.1028 33.1569 47.5028 32.7569 47.0028 33.6569Z" fill="#FFE500"/>
<path d="M41.603 74.1569C41.403 72.8569 41.203 70.9569 42.103 69.8569C42.803 68.9569 45.503 68.9569 46.203 69.9569C47.003 71.1569 44.703 71.0569 44.103 70.8569C42.303 70.3569 41.103 68.8569 39.003 69.4569C38.103 69.6569 37.303 70.6569 37.403 71.5569C37.703 75.5569 43.503 77.2569 46.703 75.9569C49.803 74.7569 51.703 70.6569 49.403 67.8569C47.503 65.5569 43.103 64.9569 40.603 66.7569C37.903 68.6569 38.503 72.1569 39.103 74.8569C39.603 76.4569 41.803 75.7569 41.603 74.1569Z" fill="#FFE500"/>
</svg>
