<svg width="61" height="30" viewBox="0 0 61 30" fill="none" xmlns="http://www.w3.org/2000/svg">
<path d="M1.03229 15.7365C3.55048 18.3925 6.42841 20.8874 9.48621 23.141C12.6339 25.314 16.2314 26.8432 19.3791 28.8553C20.0086 29.1772 19.6489 30.143 18.8395 29.982C11.5547 27.809 4.80957 21.6923 0.132941 16.4609C-0.316735 15.8975 0.492682 15.1731 1.03229 15.7365Z" fill="white"/>
<path d="M0.20965 14.5891C9.47298 13.0599 19.5457 13.5428 28.899 13.1404C39.0617 12.738 49.2244 11.9331 59.3871 12.0136C61.0958 12.0136 61.0958 14.2672 59.3871 14.3476C49.5841 14.911 39.6912 14.7501 29.7983 14.911C20.0853 15.072 9.83272 16.1183 0.20965 15.072C0.0297792 15.072 -0.150091 14.6696 0.20965 14.5891Z" fill="white"/>
<path d="M0.00195313 11.9321C0.181824 11.9321 0.361695 12.0117 0.541565 12.0117C0.361695 12.0117 0.181824 12.0117 0.00195313 11.9321C0.00195313 12.0117 0.00195313 11.9321 0.00195313 11.9321Z" fill="white"/>
<path d="M0.16319 11.7024C-1.0959 8.80504 5.37943 7.67828 7.0882 6.95393C12.3944 4.86136 17.4308 1.88348 22.8269 0.0323659C23.6363 -0.209083 24.3558 0.917683 23.7262 1.40058C20.6684 3.57363 16.8911 4.94185 13.3837 6.39055C11.8548 7.03441 10.2359 7.67828 8.6171 8.24166C6.63853 8.96601 1.60215 10.0928 0.702801 11.7829C0.522931 12.0244 0.253125 11.9439 0.16319 11.7024Z" fill="white"/>
</svg>
