<svg width="22" height="23" viewBox="0 0 22 23" fill="none" xmlns="http://www.w3.org/2000/svg">
<path d="M7.36958 9.2001C6.08792 9.2001 4.85875 8.71546 3.95248 7.8528C3.04621 6.99014 2.53707 5.82012 2.53707 4.60013C2.53707 3.38015 3.04621 2.21013 3.95248 1.34747C4.85875 0.484807 6.08792 0.000169071 7.36958 0.000169071C8.65124 0.000169071 9.88041 0.484807 10.7867 1.34747C11.6929 2.21013 12.2021 3.38015 12.2021 4.60013C12.2021 5.82012 11.6929 6.99014 10.7867 7.8528C9.88041 8.71546 8.65124 9.2001 7.36958 9.2001ZM7.36958 10.3501C9.96705 10.3501 12.4437 10.8101 14.7392 11.6036L13.4102 18.4H11.9001L10.994 23H3.74519L2.8391 18.4H1.32894L0 11.6036C2.36148 10.7818 4.85524 10.3576 7.36958 10.3501ZM17.4091 10.5456C19.0038 10.7526 20.5382 11.0976 22 11.6036L20.659 18.4H19.1488L18.2427 23H13.4585L13.9055 20.7H15.4157L17.4091 10.5456ZM14.6183 0.000169071C15.3255 -0.00560215 16.0254 0.136441 16.6686 0.416274C17.3118 0.696107 17.8827 1.10691 18.3409 1.61969C18.799 2.13246 19.1334 2.73472 19.3204 3.38394C19.5073 4.03316 19.5423 4.71353 19.4228 5.37703C19.3034 6.04053 19.0324 6.67098 18.629 7.22389C18.2256 7.7768 17.6996 8.23869 17.0881 8.57697C16.4767 8.91524 15.7947 9.12166 15.0904 9.18164C14.386 9.24162 13.6763 9.1537 13.0115 8.9241C14.0554 7.70208 14.6252 6.17514 14.6252 4.60013C14.6252 3.02513 14.0554 1.49819 13.0115 0.276167C13.531 0.115168 14.0505 0.000169071 14.6183 0.000169071Z" fill="#1D7874"/>
</svg>
