<svg width="370" height="84" viewBox="0 0 370 84" fill="none" xmlns="http://www.w3.org/2000/svg">
<g clip-path="url(#clip0)">
<path d="M43.5989 32.7913C43.4395 32.7776 43.2965 32.5734 42.9778 32.546C42.8184 32.5323 42.659 32.5186 42.6426 32.7091C42.3075 32.8723 41.956 33.226 41.9233 33.607C41.8906 33.9881 42.0173 34.3828 42.479 34.6144C42.6384 34.6281 42.7814 34.8323 42.7814 34.8323C42.9408 34.846 43.1002 34.8597 43.4353 34.6965C43.7704 34.5334 44.1219 34.1797 44.1546 33.7986C44.2037 33.2271 44.0771 32.8323 43.5989 32.7913Z" fill="white"/>
<path d="M16.5501 31.8127C77.2943 34.9179 138.366 34.2125 199.147 35.0177C229.307 35.3045 259.609 35.7955 289.736 36.4633C304.64 36.7835 319.385 37.0901 334.273 37.6008C338.752 37.7935 352.626 35.1464 355.213 40.5506C357.117 44.5527 354.975 54.5411 355.522 59.3863C357.872 56.3253 360.046 53.4412 362.396 50.3802C332.494 48.9639 302.543 48.1192 272.543 47.8461C243.021 47.6141 213.874 50.4852 184.397 51.6005C154.266 52.8516 124.274 48.7406 94.1631 47.8823C79.5941 47.3989 65.0088 47.106 50.5501 47.2079C40.4274 47.2983 12.8093 51.0683 15.0054 31.1043C13.1989 33.4442 11.5681 35.6073 9.76163 37.9473C21.7521 36.6738 33.5667 35.5772 45.5572 34.3037C53.657 33.4638 51.5535 18.6965 43.4536 19.5363C31.4632 20.8098 19.6485 21.9065 7.65811 23.18C4.89957 23.5189 2.83553 26.9883 2.41437 30.023C-1.89596 68.9985 45.2567 62.1077 64.8319 62.2533C98.0362 62.6096 131.171 65.647 164.31 66.7654C196.811 67.829 229.358 62.7548 261.941 62.8659C295.002 63.018 327.998 63.9322 360.945 65.418C365.105 65.5833 368.35 61.4476 367.819 56.4118C366.537 45.1697 370.44 31.4941 360.061 25.2287C353.947 21.6328 345.48 23.0169 338.594 22.8094C331.229 22.5609 323.69 22.4892 316.325 22.2406C282.994 21.4896 249.663 20.7385 216.14 20.3549C150.067 19.4791 83.7076 18.1949 17.4009 21.9054C12.2353 22.2295 10.9554 31.5242 16.5501 31.8127Z" fill="white"/>
<path d="M11.5298 45.3927C23.3566 46.0244 35.964 46.9151 46.6951 52.8269C47.8399 46.9753 49.0009 40.9333 50.305 35.0954C42.6712 34.2479 35.2131 33.2236 27.5956 32.1856C27.0229 38.854 26.4503 45.5224 25.8776 52.1907C29.7518 51.9476 33.6097 51.8951 37.5002 51.4615C47.7047 50.4185 46.006 32.807 36.9868 31.2647C31.76 30.432 26.5332 29.5993 21.3228 28.5761C20.7665 35.0539 20.2266 41.3412 19.6703 47.8191C27.6066 48.8845 35.5919 49.3783 43.6263 49.3005C53.2545 49.3596 54.9028 32.0355 45.1643 31.3912C42.6142 31.1722 39.8884 31.13 37.3383 30.911C36.8311 36.8173 36.3239 42.7236 35.8167 48.6299C52.6007 49.4954 69.5603 50.1841 86.3443 51.0496C95.621 51.4624 97.0281 35.0772 87.8168 33.9023C77.6656 32.4548 67.4653 31.5789 57.2486 30.8935C48.1476 30.3038 46.7078 47.0701 55.8088 47.6597C73.5327 48.7978 91.2893 49.5549 109.095 49.7405C117.91 49.9217 118.994 35.4281 110.486 33.5459C105.435 32.5363 100.241 31.3226 95.1894 30.313C94.7313 35.6477 94.2732 40.9824 93.8151 46.3171C112.054 45.1964 130.162 45.5998 148.172 47.1464C148.63 41.8117 149.088 36.477 149.53 31.3328C140.286 30.539 131.042 29.7452 121.655 28.7471C112.444 27.5722 111.18 44.1616 120.199 45.7038C134.285 48.0651 148.47 49.2832 162.814 50.515C172.855 51.3773 174.234 33.4542 164.401 32.0341C148.545 29.7128 132.575 28.7252 116.489 29.0712C106.031 29.3248 104.383 46.6489 114.82 48.5048C128.731 51.0429 142.74 52.4378 156.974 53.0844C157.547 46.416 158.12 39.7476 158.692 33.0793C146.514 32.8012 134.336 32.5231 122.157 32.245C111.43 31.8996 109.618 51.1289 120.456 52.0596C147.55 54.3863 174.792 54.9983 202.038 53.6914C212.512 53.2474 214.545 35.1885 203.74 33.8768C193.891 32.6472 184.246 32.7786 174.377 33.6584C164.826 34.5657 165.855 52.5035 174.939 53.2836C195.18 55.0218 215.344 55.7937 235.716 56.0077C247.114 56.0268 249.151 36.0491 237.549 34.6689C226.265 33.3161 214.933 32.5349 203.503 32.8968C202.881 40.1368 202.259 47.3767 201.637 54.6167C222.921 53.5654 244.155 53.0858 265.374 52.7966C276.947 52.6389 279.159 32.4843 267.239 31.0768C257.692 30.065 248.24 29.8291 238.738 30.1647C227.132 30.7035 224.805 52.1918 236.857 52.0751C263.669 52.0745 290.339 51.8697 317.152 51.869C328.39 51.8745 330.427 31.8967 318.968 30.7207C313.23 30.228 307.333 29.7216 301.596 29.2289C300.99 36.2783 300.401 43.1372 299.796 50.1867C317.712 50.9575 335.82 51.3609 353.752 51.9412C364.32 52.2729 366.149 32.8531 355.437 32.3171C337.538 31.3558 319.495 30.1902 301.579 29.4194C290.231 28.8287 288.48 49.2149 299.78 50.3772C305.517 50.8699 311.398 51.5668 317.135 52.0595C317.741 45.0101 318.346 37.9607 318.952 30.9113C292.155 30.7214 265.518 30.5452 238.722 30.3553C238.1 37.5952 237.462 45.0257 236.84 52.2656C246.342 51.93 255.794 52.1659 265.181 53.164C265.803 45.924 266.425 38.6841 267.047 31.4441C245.779 32.3048 224.512 33.1656 203.311 33.2642C191.578 33.4082 189.569 54.9238 201.445 54.984C212.843 55.0031 224.225 55.2128 235.524 56.3751C236.129 49.3257 236.751 42.0857 237.357 35.0363C217.078 35.5981 196.723 35.1935 176.432 34.0269C176.673 40.5732 176.754 47.1058 176.995 53.6521C185.413 52.8396 193.734 53.1702 201.989 54.263C202.562 47.5946 203.118 41.1168 203.691 34.4484C176.461 35.5648 149.203 35.1433 122.125 32.6261C121.552 39.2944 120.979 45.9628 120.423 52.4407C132.601 52.7187 144.763 53.1874 156.942 53.4654C167.669 53.8109 169.53 34.0099 158.659 33.4603C144.585 32.8275 130.417 31.4188 116.473 29.2618C115.917 35.7396 115.36 42.2175 114.804 48.6953C130.922 47.9682 146.925 48.5748 162.974 50.5287C163.497 44.4319 164.021 38.3351 164.561 32.0478C150.343 31.2107 136.175 29.8021 121.814 28.7608C121.323 34.4766 120.849 40.0018 120.358 45.7175C129.651 45.9398 138.912 46.5431 148.315 47.3506C156.922 48.0897 158.279 32.2761 149.673 31.537C131.504 29.9767 113.539 29.7775 95.3161 30.7077C86.6114 31.1118 85.4498 44.6391 93.9418 46.7118C98.9765 47.9119 104.171 49.1257 109.222 50.1352C109.68 44.8005 110.138 39.4658 110.612 33.9406C92.823 33.5645 75.0828 32.6169 57.3753 31.2882C56.9008 36.8134 56.41 42.5292 55.9355 48.0544C66.1522 48.7398 76.3361 49.8063 86.4709 51.4443C86.9618 45.7286 87.4526 40.0128 87.9434 34.2971C71.1759 33.241 54.2325 32.3618 37.465 31.3058C27.8858 30.6751 26.3642 48.3939 35.9434 49.0246C38.4935 49.2436 41.2029 49.4763 43.753 49.6952C44.2602 43.789 44.7837 37.6922 45.2909 31.7859C37.2729 31.6731 29.3366 30.6078 21.4494 28.9708C11.2043 26.7475 9.88694 45.8274 19.797 48.2138C24.991 49.4276 30.1688 50.8319 35.3628 52.0456C35.9518 45.1867 36.5245 38.5184 37.1135 31.6595C33.2393 31.9026 29.3487 32.3362 25.6176 32.7835C16.2099 33.8949 16.7276 52.1727 26.1637 52.5992C33.8466 52.8751 41.3702 53.1373 49.0368 53.6037C60.0667 54.1671 59.9048 33.6166 48.5028 35.5165C36.2875 37.5384 23.9826 36.8655 11.5916 39.0643C8.03616 39.3347 8.32586 45.3095 11.5298 45.3927Z" fill="white"/>
<path d="M150.608 43.9189C150.774 46.3506 152.825 47.9326 155.901 47.9326C159.056 47.9326 161.106 46.3018 161.106 43.6943C161.106 41.7021 159.944 40.5303 157.005 39.8857L155.442 39.5439C153.519 39.124 152.767 38.3623 152.767 37.249C152.767 35.8135 154.124 34.9541 155.882 34.9541C157.718 34.9541 158.938 35.9014 159.095 37.4443L160.853 37.4443C160.774 35.0518 158.743 33.3721 155.931 33.3721C153.011 33.3721 150.96 35.0029 150.96 37.3271C150.96 39.3291 152.181 40.6084 155.003 41.2236L156.565 41.5654C158.519 41.9951 159.3 42.7764 159.3 43.958C159.3 45.3447 157.913 46.3506 155.999 46.3506C153.978 46.3506 152.571 45.4326 152.366 43.9189L150.608 43.9189ZM163.45 35.0908L163.45 37.542L161.937 37.542L161.937 38.9385L163.45 38.9385L163.45 45.0615C163.45 47.0146 164.173 47.7764 166.038 47.7764C166.438 47.7764 166.907 47.7471 167.112 47.6982L167.112 46.2725C166.995 46.292 166.604 46.3213 166.409 46.3213C165.54 46.3213 165.149 45.9014 165.149 44.9736L165.149 38.9385L167.122 38.9385L167.122 37.542L165.149 37.542L165.149 35.0908L163.45 35.0908ZM172.854 47.874C175.657 47.874 177.552 45.8525 177.552 42.6201C177.552 39.3779 175.657 37.3662 172.854 37.3662C170.042 37.3662 168.147 39.3779 168.147 42.6201C168.147 45.8525 170.042 47.874 172.854 47.874ZM172.854 46.3799C171.058 46.3799 169.876 45.0127 169.876 42.6201C169.876 40.2275 171.058 38.8604 172.854 38.8604C174.651 38.8604 175.823 40.2275 175.823 42.6201C175.823 45.0127 174.651 46.3799 172.854 46.3799ZM184.202 37.3662C182.728 37.3662 181.546 38.1182 180.921 39.2607L180.882 39.2607L180.882 37.542L179.27 37.542L179.27 51.0869L180.97 51.0869L180.97 46.0479L181.009 46.0479C181.614 47.1611 182.786 47.874 184.241 47.874C186.8 47.874 188.548 45.8037 188.548 42.6201C188.548 39.4365 186.79 37.3662 184.202 37.3662ZM183.87 46.3799C182.132 46.3799 180.96 44.8857 180.96 42.6201C180.96 40.3643 182.132 38.8604 183.87 38.8604C185.677 38.8604 186.81 40.3252 186.81 42.6201C186.81 44.9248 185.677 46.3799 183.87 46.3799ZM194.915 35.0908L194.915 37.542L193.401 37.542L193.401 38.9385L194.915 38.9385L194.915 45.0615C194.915 47.0146 195.638 47.7764 197.503 47.7764C197.903 47.7764 198.372 47.7471 198.577 47.6982L198.577 46.2725C198.46 46.292 198.069 46.3213 197.874 46.3213C197.005 46.3213 196.614 45.9014 196.614 44.9736L196.614 38.9385L198.587 38.9385L198.587 37.542L196.614 37.542L196.614 35.0908L194.915 35.0908ZM200.403 47.6982L202.103 47.6982L202.103 41.3701C202.103 39.9346 202.962 38.9873 204.28 38.9873C204.69 38.9873 205.052 39.0361 205.188 39.085L205.188 37.4346C205.052 37.415 204.798 37.3662 204.505 37.3662C203.313 37.3662 202.376 38.0791 202.044 39.2021L202.005 39.2021L202.005 37.542L200.403 37.542L200.403 47.6982ZM207.513 35.7353C208.108 35.7353 208.577 35.2568 208.577 34.6709C208.577 34.0752 208.108 33.6064 207.513 33.6064C206.927 33.6064 206.448 34.0752 206.448 34.6709C206.448 35.2568 206.927 35.7354 207.513 35.7353ZM206.663 47.6982L208.362 47.6982L208.362 37.542L206.663 37.542L206.663 47.6982ZM215.589 37.3662C214.114 37.3662 212.933 38.1182 212.308 39.2607L212.269 39.2607L212.269 37.542L210.657 37.542L210.657 51.0869L212.356 51.0869L212.356 46.0478L212.395 46.0478C213.001 47.1611 214.173 47.874 215.628 47.874C218.187 47.874 219.935 45.8037 219.935 42.6201C219.935 39.4365 218.177 37.3662 215.589 37.3662ZM215.257 46.3799C213.519 46.3799 212.347 44.8857 212.347 42.6201C212.347 40.3643 213.519 38.8603 215.257 38.8603C217.063 38.8603 218.196 40.3252 218.196 42.6201C218.196 44.9248 217.063 46.3799 215.257 46.3799Z" fill="white"/>
<path d="M184.239 55.8642L183.5 45.7578H186.944C186.78 48.673 186.403 53.6693 186.207 55.8642C185.419 57.5104 185.05 57.462 184.239 55.8642Z" fill="#679289"/>
<path d="M189.848 32H180.378L181.583 40.7821C180.378 41.2413 179 42.9862 179 46.2924H185.199H191.915C191.915 42.5729 190.537 41.0691 189.16 40.7821L189.848 32Z" fill="#679289"/>
</g>
<defs>
<clipPath id="clip0">
<rect width="366.642" height="66.3555" fill="white" transform="translate(3.71289 0.581055) rotate(2.52367)"/>
</clipPath>
</defs>
</svg>
