<svg width="414" height="226" viewBox="0 0 414 226" fill="none" xmlns="http://www.w3.org/2000/svg">
<path fill-rule="evenodd" clip-rule="evenodd" d="M468.072 59.4106C466.233 68.6867 465.332 73.2334 458.373 75.6042C457.468 75.9126 448.414 79.8711 444.95 82.4578C444.383 83.1711 442.514 83.879 440.16 84.7711C435.791 86.4265 429.747 88.7162 427.242 92.8508C426.137 93.9237 424.829 95.1333 423.427 96.4297C417.372 102.03 409.565 109.25 408.731 114.067C406.994 114.256 403.977 117.648 400.979 121.019C398.054 124.307 395.148 127.574 393.464 127.83C391.253 128.166 388.935 128.418 386.54 128.679C378.725 129.53 370.095 130.469 361.72 134.69C359.614 135.751 330.576 145.57 328.503 144.551C321.619 143.672 303.962 141.874 296.394 142.579C285.055 143.709 276.761 139.632 269.501 133.174C262.773 127.185 256.131 126.478 249.507 125.773C242.825 125.062 236.162 124.353 229.45 118.226C220.325 109.827 209.15 105.15 194.494 108.563C191.129 109.371 187.704 109.793 184.28 110.214C182.568 110.425 180.856 110.635 179.151 110.895C166.877 112.76 156.669 109.863 147.616 103.084C137.15 95.038 113.83 83.9038 109.398 84.5773C106.681 84.9901 100.323 90.4728 92.0251 97.6291C75.8491 111.579 52.299 131.888 33.969 133.399C27.6779 133.939 18.4132 134.051 9.84223 134.155C0.116723 134.274 -8.71559 134.381 -11.2967 135.088C-19.7465 137.341 -24.3847 135.171 -28.5109 133.241C-33.225 131.035 -37.271 129.142 -45.5694 134.514C-49.7156 137.071 -54.489 137.797 -59.2844 138.377C-64.0798 138.957 -69.0458 139.564 -73.9897 140.315C-73.9897 140.315 -227.503 88.4745 -224.424 85.7828C-221.897 83.508 -209.621 83.8125 -193.626 84.2092C-179.52 84.559 -162.521 84.9806 -146.767 83.7679C-129.761 82.481 -113.629 76.1686 -105.552 73.0084C-103.474 72.1953 -101.93 71.5909 -101.041 71.3344C-99.7522 70.9422 -98.4666 70.5469 -97.182 70.1518C-91.307 68.3451 -85.4557 66.5457 -79.4865 65.0947L-81.628 51.0014L-25.7116 42.505C-15.8931 37.0901 -5.74621 33.7641 5.64716 37.7402L14.0801 36.4588C16.9901 35.5539 19.7833 34.4919 22.334 32.7215C31.9405 25.9246 42.8782 21.001 54.1185 16.9209C66.1891 12.5664 77.0167 6.91827 86.5956 -1.20879C89.2555 -3.45085 91.8879 -5.72671 94.5231 -8.00492C102.304 -14.7317 110.108 -21.4791 118.714 -27.4382C119.796 -28.1754 120.893 -28.8919 121.985 -29.6058C127.114 -32.9573 132.155 -36.2518 135.26 -41.3681C135.958 -42.5119 137.085 -43.128 138.367 -42.7297C139.585 -42.3914 140.834 -42.0835 142.089 -41.7743C147.586 -40.4196 153.18 -39.0412 156.637 -34.9796C163.243 -27.0879 171.713 -21.8516 183.13 -20.1764C186.864 -19.706 190.093 -17.9727 192.832 -16.0168C200.279 -10.625 209.353 -8.29744 218.845 -7.81241C229.639 -7.26292 238.28 -4.23645 245.83 1.24497L310.057 -8.51409C311.172 -9.98326 312.319 -11.5264 313.474 -13.0798C318.997 -20.5086 324.697 -28.175 327.929 -29.1317C332.266 -30.4331 337.144 -38.9502 341.827 -47.126C345.789 -54.0445 349.612 -60.7186 352.848 -62.5694C357.007 -65.0585 358.772 -73.4466 360.551 -81.8993C362.464 -90.9917 364.393 -100.159 369.335 -102.139C373.075 -103.64 371.511 -85.7111 369.844 -66.6027C368.067 -46.2408 366.173 -24.54 370.457 -23.5849C376.628 -22.2486 382.812 -21.2239 389.044 -20.516L403.192 -22.6658L403.681 -19.4437C407.895 -19.2809 412.093 -19.0254 416.142 -17.9247C430.32 -14.1487 444.812 -11.7547 459.6 -9.70228C461.03 -9.47478 462.031 -9.77513 462.965 -10.5102C463.707 -11.0358 464.466 -11.5572 465.229 -12.081C468.025 -14.0026 470.871 -15.9577 473.122 -18.2802C479.445 -24.8748 488.244 -26.6566 496.07 -22.212C500.1 -19.9285 504.184 -17.6944 508.27 -15.4585C519.666 -9.2236 531.087 -2.97468 541.45 4.39878C543.966 6.23447 548.134 8.79236 552.186 11.2786C555.718 13.4459 559.161 15.5587 561.344 17.0913C548.998 21.9323 538.631 21.4319 529.578 14.6534C523.072 9.71172 509.124 0.563501 500.775 -1.57788C492.086 -3.66746 489.98 -2.60612 488.205 5.22473C487.196 9.58332 488.038 13.4627 488.741 16.6992C489.872 21.9064 490.642 25.4497 482.757 26.6478C482.033 26.7578 481.323 26.8573 480.631 26.9543C473.902 27.8974 468.908 28.5974 470.075 36.2772C469.861 39.433 469.942 41.628 470.015 43.6084C470.126 46.6103 470.219 49.1193 469.239 53.7345C468.788 55.8007 468.414 57.6873 468.072 59.4106Z" fill="#154945"/>
<rect y="-60" width="368" height="129" fill="#154945"/>
</svg>
