<svg width="38" height="19" viewBox="0 0 38 19" fill="none" xmlns="http://www.w3.org/2000/svg">
<path d="M36.4318 8.83626C34.9332 10.5955 33.2205 12.2482 31.4008 13.7409C29.5275 15.1803 27.3867 16.1932 25.5134 17.5259C25.1388 17.7392 25.3528 18.3789 25.8345 18.2723C30.1698 16.8329 34.1839 12.7813 36.967 9.31606C37.2346 8.94288 36.7529 8.46308 36.4318 8.83626Z" fill="#1D7874" stroke="#1D7874"/>
<path d="M36.4314 8.73001C37.1807 6.81081 33.3272 6.06446 32.3103 5.58466C29.1525 4.19858 26.1553 2.22608 22.944 0.999925C22.4623 0.839993 22.0342 1.58635 22.4088 1.90621C24.2285 3.34561 26.4764 4.25189 28.5638 5.21149C29.4736 5.63797 30.437 6.06446 31.4004 6.43764C32.5779 6.91743 35.575 7.66379 36.1103 8.78332C36.2173 8.94325 36.3779 8.88994 36.4314 8.73001Z" fill="#1D7874" stroke="#1D7874"/>
<path d="M36.9662 9.10248C31.4535 8.08958 25.4592 8.40944 19.8929 8.14289C13.845 7.87634 7.79712 7.34323 1.74922 7.39654C0.732311 7.39654 0.732311 8.88924 1.74922 8.94256C7.58304 9.31573 13.4704 9.20911 19.3577 9.31573C25.138 9.42235 31.2395 10.1154 36.9662 9.42235C37.0733 9.42235 37.1803 9.1558 36.9662 9.10248Z" fill="#1D7874" stroke="#1D7874"/>
</svg>
