<svg width="34" height="15" viewBox="0 0 34 15" fill="none" xmlns="http://www.w3.org/2000/svg">
<g clip-path="url(#clip0)">
<path d="M30.9181 6.80597C29.6104 8.33375 28.1159 9.76893 26.528 11.0652C24.8933 12.3152 23.0252 13.1949 21.3906 14.3523C21.0637 14.5375 21.2505 15.093 21.6708 15.0004C25.4538 13.7504 28.9565 10.2319 31.3851 7.22264C31.6186 6.89856 31.1983 6.48189 30.9181 6.80597Z" fill="#1D7874"/>
<path d="M34 5.04648C33.9066 5.04648 33.8132 5.09277 33.7198 5.09277C33.8132 5.09277 33.9066 5.09277 34 5.04648C34 5.09277 34 5.04648 34 5.04648Z" fill="#1D7874"/>
<path d="M30.9172 6.71262C31.5711 5.04595 28.2085 4.3978 27.3211 3.98113C24.5656 2.77743 21.9502 1.06447 19.148 -0.000348485C18.7277 -0.139237 18.3541 0.508911 18.681 0.786689C20.2689 2.03669 22.2304 2.82373 24.0519 3.65706C24.8458 4.02743 25.6865 4.3978 26.5271 4.72188C27.5546 5.13854 30.17 5.78669 30.637 6.75891C30.7304 6.8978 30.8705 6.85151 30.9172 6.71262Z" fill="#1D7874"/>
<path d="M31.3843 7.03714C26.5739 6.15751 21.3431 6.43529 16.486 6.20381C11.2085 5.97233 5.93103 5.50937 0.653555 5.55566C-0.233807 5.55566 -0.233807 6.85196 0.653555 6.89825C5.74421 7.22233 10.8816 7.12973 16.0189 7.22233C21.0629 7.31492 26.3871 7.91677 31.3843 7.31492C31.4777 7.31492 31.5711 7.08344 31.3843 7.03714Z" fill="#1D7874"/>
</g>
<defs>
<clipPath id="clip0">
<rect width="34" height="15" fill="white" transform="translate(34 15) rotate(180)"/>
</clipPath>
</defs>
</svg>
