<svg width="61" height="38" viewBox="0 0 61 38" fill="none" xmlns="http://www.w3.org/2000/svg">
<path d="M1.03034 19.9329C3.54853 23.2971 6.42646 26.4574 9.48426 29.3119C12.632 32.0644 16.2294 34.0014 19.3771 36.55C20.0067 36.9578 19.6469 38.1812 18.8375 37.9773C11.5528 35.2247 4.80762 27.4769 0.130988 20.8504C-0.318688 20.1368 0.490729 19.2193 1.03034 19.9329Z" fill="white"/>
<path d="M0.207697 18.4814C9.47103 16.5444 19.5438 17.1561 28.897 16.6464C39.0597 16.1366 49.2224 15.1172 59.3851 15.2191C61.0939 15.2191 61.0939 18.0736 59.3851 18.1756C49.5822 18.8892 39.6893 18.6853 29.7964 18.8892C20.0834 19.0931 9.83077 20.4184 0.207697 19.0931C0.0278261 19.0931 -0.152044 18.5833 0.207697 18.4814Z" fill="white"/>
<path d="M8.81585e-09 15.1111C0.179871 15.1111 0.359741 15.2119 0.539612 15.2119C0.359741 15.2119 0.179871 15.2119 8.81585e-09 15.1111C8.81585e-09 15.1111 0 15.2119 8.81585e-09 15.1111Z" fill="white"/>
<path d="M0.161237 14.8247C-1.09786 11.1547 5.37748 9.72745 7.08625 8.80994C12.3924 6.15936 17.4288 2.38737 22.8249 0.0426241C23.6343 -0.263212 24.3538 1.16403 23.7243 1.7757C20.6665 4.52823 16.8892 6.2613 13.3817 8.09632C11.8528 8.91188 10.234 9.72745 8.61515 10.4411C6.63657 11.3586 1.6002 12.7858 0.700848 14.9267C0.520978 15.2325 0.251172 15.1306 0.161237 14.8247Z" fill="white"/>
</svg>
