<svg width="646" height="721" viewBox="0 0 646 721" fill="none" xmlns="http://www.w3.org/2000/svg">
<path fill-rule="evenodd" clip-rule="evenodd" d="M44 236.216V721H606V235H587.458C587.621 233.763 587.838 232.507 588.126 231.238C590.532 220.497 592.371 219.443 599.163 224.288C605.672 229.132 615.86 245.14 620.53 253.565C627.039 265.149 635.387 268.098 646 263.885C644.418 261.237 641.886 257.492 639.287 253.651C636.307 249.244 633.24 244.71 631.425 241.559C623.927 228.847 615.431 217.503 606.955 206.186C603.915 202.127 600.878 198.072 597.89 193.958C592.088 185.954 584.73 186.586 578.787 194.59C576.675 197.403 574.125 199.567 571.62 201.693C570.936 202.272 570.257 202.849 569.59 203.436C568.741 204.278 567.892 204.489 566.76 203.857C555.015 197.749 543.554 191.22 532.517 182.795C528.979 180.057 525.159 178.793 521.338 177.529C512.706 174.58 504.358 170.368 496.151 164.892C492.793 162.61 497.004 132.189 500.956 103.645C504.664 76.8583 508.144 51.7246 504.924 53.0502C500.671 54.7966 497.976 67.4036 495.303 79.9077C492.818 91.5323 490.352 103.068 486.67 105.706C483.817 107.637 479.893 116.294 475.825 125.267C471.019 135.871 466.011 146.918 462.332 147.831C459.592 148.493 454.023 158.154 448.626 167.515C443.711 176.041 438.94 184.318 436.579 185.322C426.674 189.535 401.063 193.115 396.393 182.163C390.167 167.63 382.385 158.573 371.206 154.571C363.565 151.833 356.49 146.567 351.113 137.3C349.132 133.93 346.726 130.771 343.755 129.296C334.699 124.452 328.473 115.184 324.086 102.547C321.782 96.0303 317.414 92.8647 313.121 89.7534C312.141 89.0433 311.166 88.3361 310.219 87.5926C309.229 86.7501 308.238 87.382 307.531 88.8563C304.381 95.4546 299.885 99.0468 295.311 102.701C294.337 103.48 293.359 104.261 292.39 105.074C284.674 111.683 277.51 119.584 270.369 127.461C267.95 130.128 265.534 132.793 263.1 135.404C254.327 144.882 244.846 150.569 234.516 154.15C224.894 157.52 215.414 162.154 206.782 169.736C203.751 172.339 200.528 173.083 197.192 173.854C196.479 174.019 195.76 174.184 195.038 174.37C194.472 174.58 193.764 174.37 193.34 173.949C183.576 164.26 173.954 168.051 164.332 174.791C163.433 175.417 162.536 176.045 161.639 176.672C153.785 182.17 145.985 187.628 137.73 191.22C137.29 191.407 136.85 191.615 136.409 191.823C134.869 192.551 133.328 193.279 131.787 193.115C122.724 192.553 113.996 194.825 105.206 197.113C104.116 197.396 103.024 197.681 101.93 197.96C101.178 198.132 99.8498 198.657 98.0637 199.364C91.1219 202.11 77.2561 207.596 63.3008 205.753C50.37 204.075 36.6312 199.806 25.2301 196.264C12.3028 192.248 2.38089 189.166 0.0500387 191.852C-1.15866 193.201 19.7016 213.453 44 236.216Z" fill="#679289"/>
<path d="M200.971 132.515C207.057 130.198 213.265 128.734 219.717 128.612C231.159 128.49 223.734 123.658 231.037 114.996C245.4 97.9162 260.372 81.3245 274.857 64.1229C282.891 54.6071 292.872 48.8732 306.262 50.9472C314.296 52.1671 322.329 52.8991 330.606 52.6551C342.292 52.2891 351.543 47.1652 359.942 39.4794C371.505 28.8656 382.095 17.0318 396.459 10.078C398.65 8.98001 400.719 7.27203 401.571 4.95408C403.275 0.196175 406.562 -0.413805 411.065 0.196183C417.638 1.17216 424.212 2.75813 429.689 6.54005C438.697 12.8839 449.043 14.7139 459.511 15.8119C463.285 16.1779 467.058 16.5439 470.832 17.0318C479.717 18.2518 487.264 22.3997 492.255 29.7196C497.489 37.4054 504.427 41.0653 513.191 42.7733C530.841 46.3112 548.004 51.4351 563.463 61.3169C568.453 64.4889 574.296 65.8308 580.261 65.9528C585.373 66.0748 590.485 66.3188 595.598 66.3188L589.025 125.61C572.592 123.658 576.609 220.158 563.463 229.917C554.212 236.749 522.077 247.058 513.191 254.5C498.828 266.456 468.126 252.904 450.598 249C440.616 246.804 420.925 251.318 411.065 249C395.363 245.34 393.757 243.764 381.098 254.5C367.343 266.334 371.505 240.714 359.942 254.5C342.414 275.484 350.472 260.292 322.598 262C306.774 262.976 286.786 258.76 274.857 249C269.136 265.592 179.467 244.306 174.598 241.5C157.191 231.496 233.471 181.972 219.717 167.455C209.127 156.353 213.509 146.057 200.606 137.639C199.389 136.907 197.32 136.419 197.563 134.711C197.685 133.125 199.632 133.003 200.971 132.515Z" fill="#679289"/>
<path d="M229.144 114.886C221.843 123.54 159.439 157.878 148 158L162 181.5C175.751 196.004 191.099 200.006 208.5 210C211.542 211.706 289 215 335 193.5C355.5 178 367.916 192.525 374 193.5C386.082 195.436 398.533 188.931 408.666 181.372C422.388 180.411 463.514 175.08 463.514 166C466.911 165.613 550.323 145.153 591.561 128.589C599.998 139.13 607.695 147.37 613 148L606.724 121.557C616.578 115.927 617.803 111.363 603.782 109.164L603.514 108.033C665.984 103.643 646.505 94.9214 598.226 85.7536L593.598 66.2555C588.487 66.2555 583.376 66.0117 578.265 65.8898C572.302 65.768 566.462 64.4273 561.472 61.2584C546.018 51.386 528.86 46.267 511.215 42.7324C502.454 41.0261 495.518 37.3697 490.285 29.6912C485.296 22.3783 477.751 18.2344 468.868 17.0156C465.096 16.528 461.324 16.1624 457.551 15.7968C447.086 14.6998 436.743 12.8716 427.738 6.5338C422.262 2.75549 415.691 1.17104 409.12 0.195995C404.617 -0.41341 401.332 0.195988 399.628 4.94935C398.776 7.26508 396.708 8.97143 394.517 10.0684C380.158 17.0156 369.572 28.838 358.011 39.4417C349.615 47.1202 340.367 52.2392 328.685 52.6048C320.41 52.8486 312.378 52.1173 304.347 50.8985C290.961 48.8265 280.983 54.5549 272.952 64.0616C258.471 81.2468 243.503 97.8227 229.144 114.886Z" fill="#91B7AC"/>
</svg>
