<svg width="414" height="800" viewBox="0 0 414 800" fill="none" xmlns="http://www.w3.org/2000/svg">
<path d="M417.357 677.922C412.995 677.376 407.761 677.049 402.745 676.176C396.857 675.085 391.841 678.685 391.514 684.795C391.405 687.304 391.514 689.813 391.514 692.541C386.171 692.759 381.591 693.086 382.136 685.995C382.245 685.013 379.628 683.377 378.102 683.158C377.229 683.049 375.703 685.122 375.157 686.431C374.721 687.413 374.83 689.268 375.485 690.141C378.756 694.504 382.027 698.977 385.734 703.014C390.205 707.923 395.221 712.287 399.474 717.305C400.782 718.833 400.891 721.887 400.455 723.96C400.128 725.597 397.402 728.433 397.184 728.324C390.641 724.615 381.591 732.579 376.357 723.851C376.139 723.415 375.485 722.76 375.157 722.869C360.873 724.506 359.019 710.978 352.041 703.887C349.86 701.596 348.551 698.432 346.152 694.613C341.027 708.469 348.006 717.742 354.985 727.015C354.33 727.451 353.676 727.997 353.022 728.433C350.405 726.579 347.788 724.615 344.299 722.215C344.299 748.616 344.299 774.144 344.299 800C338.519 800 333.067 800 326.961 800C326.852 798.473 326.634 796.618 326.634 794.763C326.743 768.471 326.961 742.07 327.07 715.778C327.07 713.814 326.198 711.742 325.761 709.778C323.799 710.541 321.4 710.76 319.873 711.96C313.222 716.869 306.679 721.996 300.355 727.342C299.155 728.324 298.937 730.942 298.937 732.797C298.828 746.543 298.828 760.289 298.828 774.908C294.903 774.253 290.65 773.817 286.724 772.617C285.416 772.181 284.107 769.453 283.998 767.708C283.78 758.544 283.889 749.27 283.889 739.888C278.328 739.888 274.076 740.216 269.823 739.779C267.751 739.561 265.897 737.597 264.044 736.288C262.408 734.979 260.99 732.361 259.355 732.252C251.177 731.488 247.905 725.597 244.525 719.487C243.762 718.069 242.562 716.76 241.145 714.687C237.219 724.833 242.671 731.706 247.687 738.688C247.142 739.015 246.597 739.343 246.052 739.67C244.198 738.252 242.344 736.943 239.618 734.979C239.618 741.961 239.073 748.18 239.727 754.289C240.382 760.398 240.054 764.98 232.421 765.417C230.568 765.526 228.823 766.835 226.424 767.817C226.424 753.525 226.424 739.67 226.424 724.288C223.262 726.36 220.863 727.669 218.682 729.306C214.975 732.142 211.594 735.743 207.56 737.815C201.563 740.761 195.02 742.943 188.478 737.597C188.478 751.561 188.478 764.98 188.478 778.399C183.789 778.835 179.1 779.381 173.43 779.926C172.666 756.144 172.012 732.361 171.249 707.814C164.597 711.414 161.653 706.832 157.728 702.796C157.728 709.887 157.728 716.869 157.728 723.851C149.55 724.942 148.786 724.178 148.677 717.087C148.568 711.851 149.113 706.287 147.696 701.377C145.951 695.595 142.353 690.359 138.972 685.231C136.028 693.959 139.191 701.159 144.752 707.705C144.316 708.032 143.77 708.359 143.334 708.578C141.808 707.705 140.172 706.941 138.318 705.85C138.318 733.997 138.318 761.926 138.318 789.963C133.738 789.963 129.486 789.963 124.797 789.963C124.579 786.909 124.252 784.29 124.143 781.672C123.925 763.017 123.707 744.252 123.598 725.597C123.598 722.542 123.707 720.142 119.781 718.396C116.401 716.869 114.111 712.723 111.058 709.45C107.786 715.56 111.93 719.269 115.637 724.178C113.13 723.197 111.821 722.651 109.531 721.778C110.185 747.307 110.84 772.181 111.494 797.054C103.425 798.145 102.443 797.273 102.334 789.854C102.007 766.617 101.571 743.379 101.244 720.142C101.244 718.942 100.917 717.742 100.699 715.778C99.0631 716.324 97.6456 716.651 96.4461 717.196C91.3211 719.815 86.1962 722.215 81.2893 725.16C80.0898 725.924 79.2175 728.215 79.2175 729.851C79.4355 748.834 79.7627 767.817 80.0898 786.799C80.0898 787.127 79.7627 787.454 79.5446 788.109C75.7281 787.781 72.784 788.436 70.7122 782.545C68.9675 777.744 61.9888 774.799 57.0819 771.417C53.8107 769.126 50.1033 767.489 47.1591 765.962C44.4331 767.38 41.598 768.908 38.6538 770.326C34.6193 772.29 30.6938 774.362 26.6592 775.999C21.9704 777.963 17.2816 780.035 12.4838 780.908C10.521 781.236 7.90399 778.399 5.72315 776.872C3.76039 775.453 2.01573 772.944 -0.165115 772.617C-9.32464 770.981 -16.8485 774.253 -23.5001 781.017C-28.7341 786.254 -38.9841 787.345 -43.5638 779.49C-38.3298 777.854 -33.2048 776.108 -27.0985 774.253C-29.0612 772.617 -30.1517 771.744 -31.6783 770.435C-26.1171 766.071 -20.665 761.816 -15.1039 757.453C-15.322 757.234 -15.54 757.016 -15.7581 756.798C-20.2288 759.089 -24.6996 762.907 -29.2793 763.126C-33.8591 763.344 -40.4016 764.326 -43.891 757.234C-31.8963 754.398 -21.1012 750.252 -14.4496 739.997C-14.7767 739.452 -15.2129 738.906 -15.54 738.252C-16.6305 739.015 -18.157 739.452 -18.8113 740.543C-23.173 746.761 -30.2607 747.198 -36.4761 747.743C-38.766 747.961 -41.492 743.052 -44 740.434C-42.1463 738.797 -40.4016 735.852 -38.5479 735.743C-28.407 735.197 -22.1916 728.542 -15.8672 722.106C-15.6491 721.887 -15.431 721.56 -15.322 721.124C-15.2129 720.796 -15.322 720.469 -15.431 718.724C-20.665 726.578 -27.5347 728.651 -35.4947 727.124C-37.4575 726.797 -39.2022 724.942 -41.1649 722.869C-28.298 720.906 -20.8831 712.178 -13.2502 703.778C-13.4682 703.45 -13.7954 703.014 -14.0134 702.687C-17.0666 704.868 -20.4469 706.723 -23.0639 709.45C-28.298 714.905 -32.5506 711.851 -37.0213 708.687C-38.1117 707.814 -38.9841 706.614 -40.5107 704.978C-28.9522 701.05 -18.048 697.014 -12.4869 686.104C-12.814 685.558 -13.2502 685.122 -13.5773 684.577C-17.5028 687.086 -21.3193 689.922 -25.4629 692.213C-27.8618 693.522 -30.915 695.05 -33.3139 694.613C-35.7128 694.177 -37.6756 691.341 -39.7474 689.595C-38.1117 688.286 -36.4761 686.759 -34.7314 685.558C-31.8963 683.595 -26.1171 684.904 -27.2075 678.576C-27.3166 678.249 -25.3538 677.594 -24.5905 676.94C-21.2102 674.103 -17.939 671.158 -14.5587 668.321C-14.8858 667.776 -15.322 667.339 -15.6491 666.794C-18.5932 668.321 -21.4283 669.74 -24.3724 671.267C-30.6969 674.431 -32.9868 673.449 -35.9309 665.703C-24.8086 667.339 -20.556 659.485 -15.54 652.502C-15.8672 652.066 -16.1943 651.63 -16.5214 651.302C-19.1384 653.593 -21.4283 656.212 -24.2634 658.066C-27.8618 660.357 -30.5878 658.284 -33.0958 654.903C-26.2262 650.32 -18.048 647.484 -14.3406 638.32C-20.4469 637.12 -27.0985 646.611 -31.6783 636.574C-28.407 635.265 -25.0267 633.956 -21.8645 632.647C-25.1357 630.356 -27.8618 628.392 -30.5878 626.429C-30.4788 625.665 -30.4788 625.01 -30.3697 624.247C-22.3006 625.883 -20.0108 620.865 -18.5932 615.192C-20.8831 614.101 -23.3911 613.01 -26.8804 611.373C-22.9549 608.864 -20.2288 607.009 -16.7395 604.718C-19.9017 603.191 -22.0826 602.209 -23.8272 601.336C-20.556 598.173 -17.5028 595.118 -13.9044 591.627C-16.8485 590.1 -18.4842 589.227 -20.2288 588.354C-17.7209 585.518 -15.54 582.899 -13.2502 580.281C-13.4682 579.954 -13.6863 579.626 -14.0134 579.299C-15.1039 579.517 -16.3033 579.736 -16.9576 579.954C-15.6491 571.772 -14.3406 563.371 -13.1411 555.08C-12.7049 554.971 -12.2688 554.862 -11.9417 554.862C-10.306 560.644 -8.77944 566.317 -7.03476 572.535C-7.57997 572.753 -8.56135 573.19 -10.8512 574.172C-7.47093 577.772 -4.63584 581.045 -1.36458 584.645C-3.87255 584.645 -6.05338 584.645 -8.23422 584.645C-8.67039 585.19 -9.10656 585.736 -9.54273 586.281C-6.70764 588.136 -3.87255 589.99 -1.03745 591.736C-1.36458 592.282 -1.80075 592.718 -2.12787 593.263C-3.54542 593.591 -4.96296 594.027 -7.47093 594.682C-3.7635 597.845 -0.710326 600.464 3.43327 604.064C-0.0560737 605.809 -2.23692 606.791 -5.39913 608.319C-3.10925 609.955 -0.92841 611.373 1.03435 613.01C2.66998 614.428 4.19656 616.064 5.72315 617.592C3.54231 618.574 1.47052 619.665 -0.710325 620.537C-1.47362 620.865 -2.455 620.537 -3.32733 620.537C-3.54542 621.083 -3.7635 621.628 -3.98158 622.065C-1.6917 623.047 0.598177 624.465 2.9971 625.01C5.61411 625.665 9.53962 624.247 9.53962 628.61C9.53962 633.192 5.61411 632.429 2.66998 632.756C2.01572 632.865 1.25243 632.974 0.598176 632.974C0.27105 633.411 -0.0560737 633.956 -0.3832 634.392C1.90668 636.029 4.08752 637.884 6.59549 639.302C9.32154 640.938 12.3747 642.029 14.8827 644.648C17.3906 643.775 20.0077 642.902 22.5156 642.029C23.0608 641.811 23.9332 641.702 23.9332 641.375C25.0236 633.956 33.747 633.52 36.364 627.41C36.582 626.865 36.8001 626.21 37.3453 624.683C33.4198 626.756 30.3666 628.392 27.0954 630.029C21.5342 632.756 18.4811 631.12 16.7364 624.028C27.6406 625.665 31.8932 617.81 36.582 610.064C31.0209 611.701 27.3135 622.937 19.2444 613.337C26.005 608.646 34.2922 605.7 38.1086 596.864C32.1113 595.227 25.0236 605.264 20.7709 594.791C24.1512 593.482 27.4225 592.281 30.6938 590.972C27.4225 588.681 24.5874 586.827 21.7523 584.863C22.0795 584.318 22.2975 583.881 22.6247 583.336C25.3507 582.681 28.731 582.681 30.6938 581.045C32.4384 579.517 32.7656 576.244 33.7469 573.517C31.5661 572.535 28.9491 571.335 25.4598 569.808C29.2762 567.299 32.0023 565.553 35.4916 563.262C32.4384 561.735 30.2576 560.753 28.4039 559.88C31.6752 556.607 34.7283 553.552 38.4358 549.952C35.3826 548.534 33.856 547.879 31.8932 547.007C34.4012 544.17 36.6911 541.552 40.0714 537.624C37.1273 538.17 35.9278 538.388 35.2735 538.497C36.582 530.206 37.9996 521.915 39.3081 513.732C39.6352 513.623 40.0714 513.514 40.3985 513.405C41.9251 519.078 43.5607 524.751 45.1964 530.642C41.1618 533.152 41.1618 533.261 51.3027 543.079C48.3586 543.079 46.0687 543.079 43.7788 543.079C43.4517 543.625 43.1246 544.17 42.6884 544.716C45.3054 546.789 47.8134 548.752 51.0846 551.371C48.5767 552.025 47.1591 552.352 45.6325 552.789C50.2123 562.062 54.574 563.371 62.425 557.589C66.0234 554.971 69.0766 551.589 72.4569 548.643C71.9117 547.879 71.4755 547.116 70.9303 546.352C68.3133 547.443 65.8053 549.407 63.1883 549.516C60.8984 549.625 58.4995 547.661 56.2096 546.57C56.4277 546.025 56.6458 545.588 56.7548 545.043C59.0447 544.17 61.3346 543.407 63.9516 542.534C61.6617 540.025 59.5899 537.952 56.2096 534.242C64.1697 534.897 67.8771 532.061 67.9861 525.733C66.2415 524.86 64.0606 523.769 61.0075 522.351C64.1697 520.169 66.6776 518.533 69.7308 516.569C67.1138 515.151 65.151 514.06 63.6245 513.296C66.5686 510.35 69.2946 507.623 72.5659 504.35C69.8399 502.932 68.5313 502.277 66.8957 501.405C69.0766 498.786 71.1484 496.386 73.9834 493.113C71.5845 493.332 70.4941 493.55 69.9489 493.55C71.1484 486.131 72.2388 478.604 73.4382 471.076C73.7654 470.967 74.0925 470.858 74.5287 470.858C75.9462 476.094 77.4728 481.222 78.9994 486.677C75.6191 489.077 75.6191 489.077 84.3424 498.023C81.8345 498.023 79.8717 498.023 77.909 498.023C77.4728 498.568 77.0366 499.223 76.6005 499.768C78.9994 501.405 81.2893 503.15 84.2334 505.223C82.2706 505.987 81.0712 506.532 79.1084 507.405C81.8345 510.241 84.3424 512.86 87.3956 516.133C85.3238 517.224 83.4701 518.314 81.6164 519.296C84.9967 526.278 94.9195 529.988 100.372 525.624C98.4089 524.533 96.5551 523.66 94.2653 522.46C95.6828 521.26 96.7732 520.387 96.9913 520.169C95.5738 516.242 92.6296 512.096 93.611 509.696C94.8105 506.859 99.3902 505.55 102.88 503.368C101.789 503.259 101.026 503.15 100.59 503.15C101.244 499.877 102.007 496.604 102.661 493.441C103.643 488.968 102.007 485.368 99.3902 481.876C98.4089 480.567 98.4088 478.604 97.9727 476.967C99.4993 476.749 101.026 476.64 102.552 476.313C105.388 475.767 108.332 475.549 110.84 474.349C115.419 472.167 122.18 462.567 123.161 456.348C121.199 458.53 119.236 460.603 117.273 462.785C111.494 469.549 105.933 468.894 101.68 460.603C106.478 457.221 111.276 453.839 116.074 450.348C120.872 446.966 124.579 442.82 125.015 435.511C122.616 436.711 119.999 437.474 117.927 439.002C112.911 442.929 105.715 441.184 103.861 435.183C103.643 434.311 105.169 432.238 106.26 431.692C109.64 430.165 113.239 429.074 116.837 427.219C110.076 426.238 106.369 422.747 105.169 415.873C108.441 415.437 111.385 415.219 114.329 414.455C116.619 413.801 119.018 413.364 117.927 409.328C117.382 407.364 119.999 404.418 121.09 402.018C118.909 401.146 115.965 400.491 113.566 399.073C110.076 397.109 110.076 394.818 113.893 392.854C116.946 391.218 119.781 389.145 123.052 387.072C118.8 384.672 115.528 382.817 112.366 380.963C112.366 380.417 112.366 379.763 112.366 379.217C120.544 378.454 123.598 373.108 125.451 366.235C122.834 365.144 120.326 364.053 117.709 362.853C121.526 358.271 124.906 354.016 128.286 349.87C127.959 349.543 127.523 349.107 127.196 348.78C125.451 349.761 123.707 350.634 122.507 351.289C124.47 338.306 126.324 325.324 128.286 312.341C128.723 312.123 129.05 312.014 129.486 311.796C130.794 315.287 133.738 319.105 133.193 322.16C132.103 327.942 134.502 331.979 136.792 336.452C137.337 337.543 137.555 338.743 138.1 340.488C136.137 340.27 134.829 340.052 133.084 339.834C133.629 347.689 139.3 351.616 144.861 355.543C144.752 355.98 144.643 356.525 144.643 356.962C141.262 356.962 137.882 356.962 134.502 356.962C134.175 357.507 133.847 357.944 133.411 358.489C137.01 362.089 140.499 365.689 144.861 370.053C141.699 370.599 139.409 371.035 136.355 371.581C139.518 375.508 142.462 378.999 145.297 382.49C146.278 383.69 148.35 385.763 148.132 386.09C146.933 387.727 145.297 389.145 143.443 390.236C142.353 390.891 140.717 390.563 138.645 391.981C141.48 394.382 144.206 396.782 146.06 398.309C148.35 395.691 149.659 393.509 151.512 392.091C155.329 389.254 160.781 387.836 160.018 381.29C165.143 384.672 172.885 377.581 175.065 366.453C171.685 367.762 168.741 368.199 166.669 369.835C160.454 374.635 156.201 374.417 151.403 368.526C148.241 364.708 148.895 363.289 153.584 361.871C157.51 360.78 161.217 359.144 165.688 357.507C161.544 355.762 158.164 354.998 155.874 353.034C153.693 351.071 152.821 347.798 151.185 344.852C157.182 343.434 161.871 342.343 167.651 341.034C162.635 334.379 168.632 331.979 170.268 329.033C166.778 327.506 163.289 326.524 160.236 324.669C156.964 322.706 157.51 320.524 160.781 318.56C164.379 316.487 167.869 314.087 171.903 311.578C166.996 308.85 163.289 306.887 158.927 304.487C171.685 296.304 172.012 295.868 174.411 287.686C172.776 287.14 171.031 286.813 169.504 286.158C168.087 285.613 166.778 284.631 165.688 283.977C169.831 278.958 173.757 274.485 177.573 269.903C177.137 269.467 176.81 269.03 176.374 268.594C174.411 269.576 172.557 270.558 170.922 271.321C173.212 256.484 175.502 241.866 177.791 227.138C178.228 227.029 178.664 227.029 179.209 226.919C179.972 231.938 184.879 235.211 183.025 241.647C182.262 244.593 184.661 248.411 185.751 251.793C186.515 254.084 187.605 256.157 189.023 259.212C186.297 258.666 184.77 258.448 182.916 258.012C183.68 266.958 189.677 271.649 196.656 275.576C192.839 281.14 188.369 277.649 184.116 277.649C184.879 284.958 192.73 286.158 196.001 292.268C192.73 292.813 190.113 293.359 186.951 293.904C187.605 295.104 187.932 296.304 188.696 297.068C192.294 300.668 196.001 304.05 199.6 307.65C201.563 309.505 199.273 313.869 195.565 314.96C193.93 315.396 192.076 315.396 190.331 315.614C190.004 316.051 189.677 316.596 189.35 317.033C192.512 319.542 195.565 322.16 198.837 324.56C199.818 325.324 201.563 325.215 202.217 326.088C203.743 328.16 206.142 330.779 205.815 332.742C205.488 334.597 202.326 336.67 200.036 337.434C197.419 338.306 194.366 337.979 191.531 338.088C193.275 342.888 196.765 344.743 204.398 344.743C209.959 344.743 213.012 347.579 211.594 352.707C211.049 354.889 208.323 356.853 206.142 358.271C204.943 359.035 202.98 358.707 201.345 358.707C199.927 358.816 198.618 358.707 197.092 358.707C198.946 366.999 205.27 368.744 211.703 370.49C217.701 372.017 219.118 373.872 216.501 379.217C213.775 384.563 216.61 389.363 216.938 394.273C217.156 397.654 221.19 400.6 218.682 404.746C218.464 405.073 219.882 407.037 220.863 407.364C221.735 407.582 223.48 406.928 224.025 406.055C225.77 403.218 227.296 400.164 228.823 397C225.661 395.582 223.262 394.382 220.645 393.291C224.461 388.709 227.842 384.781 231.222 380.745C230.895 380.308 230.568 379.981 230.241 379.545C228.496 380.417 226.751 381.29 225.552 381.836C227.515 368.744 229.477 355.653 231.549 342.67C233.403 347.143 237.983 350.416 236.02 356.416C235.257 358.598 237.328 361.871 238.419 364.489C239.182 366.453 240.272 368.308 241.581 370.817C239.291 370.817 237.874 370.817 236.129 370.817C237.001 378.454 242.235 382.599 248.451 385.872C248.233 386.527 247.905 387.181 247.687 387.945C244.416 388.163 241.145 388.381 236.674 388.6C238.419 390.781 239.727 392.854 241.472 394.6C243.326 396.454 245.397 397.982 248.669 400.709C244.743 401.364 242.344 401.8 238.746 402.346C242.344 405.073 245.397 407.255 249.214 410.2C253.794 408.346 260.118 405.837 266.77 403C264.371 398.745 264.044 396.018 268.841 393.618C270.804 392.636 271.131 388.381 272.44 384.781C271.022 385.108 270.15 385.108 269.496 385.436C261.645 389.363 254.993 386.418 252.594 377.908C251.722 374.744 253.358 373.653 255.975 374.199C265.243 376.272 270.695 370.926 275.384 364.271C278.219 360.235 280.836 356.089 283.671 351.943C283.126 351.507 282.581 351.18 282.145 350.743C279.528 353.689 276.911 356.744 274.185 359.689C267.642 366.889 261.536 365.798 256.956 356.416C267.533 348.998 280.291 343.434 284.871 329.906C284.544 329.251 284.107 328.597 283.78 327.942C281.054 329.142 278.001 329.906 275.711 331.761C269.714 336.561 262.299 334.924 259.355 327.724C258.046 324.56 260.227 324.124 262.408 323.469C266.443 322.269 270.368 320.633 275.275 318.887C270.913 317.033 267.642 316.378 265.461 314.523C263.28 312.56 262.19 309.287 260.118 305.796C264.916 305.032 268.514 304.814 271.895 303.832C274.403 303.177 276.692 302.414 275.602 298.159C274.948 295.759 278.001 292.377 279.528 289.213C274.403 289.65 270.041 287.904 267.097 282.34C271.786 279.067 276.256 275.903 281.163 272.631C276.474 270.012 272.876 268.049 269.278 266.085C269.169 265.539 269.06 264.885 269.06 264.339C278.11 262.921 282.145 257.03 283.998 249.066C280.836 247.757 277.892 246.448 275.166 245.248C279.637 239.902 283.562 235.211 287.379 230.52C286.942 230.083 286.506 229.647 286.07 229.21C283.998 230.301 282.036 231.501 279.964 232.592C279.528 232.374 278.982 232.156 278.546 231.938C287.161 217.864 282.799 201.391 288.251 186.445C288.796 192.445 295.448 196.591 292.286 203.9C291.413 205.755 294.03 209.246 295.121 211.864C296.102 214.264 297.192 216.664 298.61 219.828C296.102 219.61 294.575 219.392 292.395 219.283C293.703 225.828 296.538 230.629 301.881 234.011C303.408 234.993 304.28 236.738 305.48 238.047C303.517 238.702 301.663 239.684 299.591 239.793C297.956 239.902 296.102 239.138 293.812 238.702C294.684 246.12 301.881 247.757 306.025 253.43C302.535 254.084 299.918 254.521 296.32 255.175C297.301 256.703 297.956 258.012 298.937 258.994C302.208 262.376 305.698 265.539 309.078 268.812C311.15 270.885 308.533 275.467 304.607 276.34C302.972 276.667 301.227 276.667 298.719 278.085C301.118 280.267 303.408 282.558 306.025 284.522C308.751 286.486 311.695 288.995 314.748 289.54C317.365 289.977 321.291 288.668 323.035 286.704C325.87 283.431 327.397 278.958 329.796 274.485C326.416 273.503 323.799 272.958 321.4 271.867C318.237 270.449 317.583 268.594 320.964 266.521C326.525 263.248 329.251 257.794 332.195 252.666C331.868 252.339 331.541 251.902 331.213 251.575C328.815 252.993 326.525 254.412 324.126 255.83C323.472 255.503 322.926 255.175 322.272 254.957C332.631 238.811 327.179 219.719 333.503 202.591C335.03 208.591 341.027 212.955 338.628 220.701C337.756 223.647 340.264 227.792 341.572 231.283C342.663 234.338 344.299 237.174 346.261 241.429C342.663 240.665 340.809 240.229 338.955 239.793C338.955 246.884 345.171 255.83 351.059 257.794C352.041 258.121 353.349 258.448 354.221 258.121C360.982 255.83 367.743 253.43 374.612 250.921C370.251 243.72 370.36 243.72 377.338 240.884C386.607 237.065 392.386 229.538 397.838 220.919C390.205 224.956 383.445 228.774 376.466 232.374C368.179 236.629 356.838 230.52 355.966 221.356C355.857 220.374 358.474 217.864 359.346 218.083C373.631 221.028 381.809 212.737 389.006 202.482C391.405 198.991 394.022 195.718 396.53 192.227C395.984 191.791 395.439 191.354 395.003 190.809C391.405 194.627 387.806 198.664 384.099 202.373C377.338 209.028 370.796 208.919 364.144 202.264C360.655 198.773 360.982 197.464 365.344 195.282C376.575 189.718 387.479 183.608 395.003 173.026C395.875 171.826 396.639 170.626 397.293 169.317C397.62 168.662 397.62 167.899 398.056 165.28C393.586 166.917 389.66 167.462 386.825 169.535C379.192 175.208 370.578 174.117 365.344 165.935C363.272 162.662 363.817 160.807 367.961 159.825C373.958 158.407 379.846 156.334 385.844 153.607C377.447 154.807 371.995 151.316 368.397 144.443C366.107 140.188 367.197 138.988 371.995 138.443C377.011 137.897 382.027 136.697 388.242 135.606C381.046 126.66 390.205 125.024 392.822 119.896C384.644 122.842 379.628 118.914 374.503 113.023C380.937 109.096 386.825 105.496 393.367 101.459C388.024 99.1681 384.099 97.6408 380.391 95.7862C379.41 95.3498 378.32 93.4952 378.538 92.8406C378.974 91.7496 380.5 90.4405 381.591 90.3314C391.841 89.7859 393.476 81.2764 397.184 74.7307C392.604 72.9851 388.679 71.4578 384.753 70.0395C384.753 69.385 384.753 68.8395 384.753 68.1849C392.277 64.8029 397.075 59.13 400.891 51.0569C396.966 53.1297 394.131 54.657 391.405 56.1844C390.969 55.748 390.532 55.3116 390.096 54.8752C390.75 53.0206 391.296 50.9478 392.277 49.3113C395.439 43.6383 397.947 38.6199 396.53 31.0923C395.33 24.5466 398.383 17.2371 399.692 10.255C400.237 7.30942 400.891 4.36383 401.873 0C404.708 6.10937 406.889 10.6914 408.96 15.2734C409.288 15.928 409.615 16.9099 409.397 17.3462C405.58 24.1102 410.596 28.8013 413.104 34.147C414.085 36.1107 414.413 38.4017 415.176 40.5837C412.995 40.5837 410.814 40.5837 408.415 40.5837C410.051 50.5114 417.575 55.748 426.189 59.7845C423.354 64.6939 423.245 64.8029 409.724 62.7301C412.014 71.0214 420.628 72.7669 426.734 79.5309C421.5 80.2946 417.793 80.84 413.213 81.4946C414.631 83.1311 415.939 84.5493 417.248 86.0766C419.647 88.804 421.936 91.5314 424.444 94.1497C424.881 94.6952 425.644 94.9134 426.189 95.3498C427.934 96.768 429.569 98.2954 431.314 99.7136C428.806 101.786 426.407 104.296 423.572 105.823C421.936 106.696 419.428 105.932 416.375 105.932C420.192 112.041 425.317 114.442 430.442 116.951C432.623 118.042 434.803 119.351 436.439 121.096C440.037 125.024 439.274 128.951 434.149 130.588C429.242 132.115 424.008 132.115 418.665 132.879C423.354 138.552 429.897 140.079 437.42 139.643C443.636 139.315 446.58 142.697 446.144 148.479C445.817 152.516 443.854 154.916 439.819 155.462C435.349 156.007 430.987 156.116 426.843 156.443C429.787 166.48 438.511 167.462 446.689 169.426C453.995 171.171 454.976 173.244 452.25 180.226C448.107 190.372 435.567 192.881 426.298 185.681C423.027 183.063 419.101 181.317 414.849 178.699C417.248 186.772 426.407 194.191 436.33 197.027C441.346 198.445 446.58 199.645 451.487 201.391C456.721 203.246 457.484 206.3 453.341 209.682C447.67 214.373 441.346 217.646 433.386 215.573C428.588 214.264 423.463 214.046 418.229 213.392C419.428 218.519 423.79 221.465 428.697 223.21C439.274 226.919 449.96 230.301 460.755 233.574C466.753 235.429 467.407 236.629 463.7 241.647C461.737 244.266 459.774 246.993 457.157 248.739C448.107 254.739 442.982 253.975 433.168 246.338C431.205 244.811 429.024 243.502 426.516 242.738C435.131 253.648 444.944 262.266 460.319 259.212C461.955 258.884 464.463 259.103 465.226 260.085C465.989 261.066 465.335 263.467 464.681 264.994C463.7 267.503 462.282 269.903 461.083 272.303C457.048 280.595 446.798 283.322 438.838 278.413C431.314 273.722 423.463 269.467 415.067 265.648C419.21 270.994 423.245 276.34 427.389 281.576C427.934 282.231 429.024 282.777 429.787 282.667C435.894 281.795 440.256 285.395 445.271 287.904C449.415 289.977 454.649 290.195 459.447 290.413C464.136 290.631 465.553 292.813 465.008 296.959C464.136 304.268 460.319 307.759 451.923 308.087C444.29 308.305 436.548 307.759 428.806 307.541C431.096 309.614 433.713 312.014 437.638 315.505C432.732 315.505 429.569 315.505 426.407 315.505C426.298 315.833 426.189 316.16 426.08 316.487C427.825 317.142 429.46 318.124 431.314 318.451C441.673 320.306 452.032 322.051 462.391 323.797C466.644 324.451 471.442 324.56 472.859 329.906C474.277 335.033 472.096 338.852 468.17 342.234C463.59 346.161 459.447 348.452 453.559 344.852C452.141 343.979 449.306 344.634 447.343 345.288C441.891 347.252 437.42 345.725 433.059 342.561C427.28 338.306 421.609 333.942 415.939 329.688C415.394 330.015 414.958 330.233 414.413 330.56C415.394 332.524 415.939 334.815 417.466 336.233C426.407 345.507 436.657 353.034 448.543 357.725C453.341 359.58 458.684 360.344 463.809 360.889C471.114 361.653 473.513 363.726 472.75 370.053C471.551 379.326 468.715 382.054 461.41 380.526C455.849 379.326 450.396 376.817 444.726 380.636C443.745 381.29 441.237 380.963 440.146 380.09C433.277 374.963 424.008 372.999 419.756 364.489C419.428 363.835 418.447 363.398 417.575 362.744C417.793 370.926 425.099 378.454 434.585 381.508C445.599 384.999 456.939 388.163 465.88 396.127C467.407 397.436 468.825 398.855 470.024 400.491C474.059 406.164 470.787 413.91 463.809 414.128C457.157 414.346 450.287 414.346 444.617 409.655C443.963 409.11 442.982 408.237 442.327 408.346C433.713 409.328 430.224 402.236 425.208 397.654C421.718 394.6 418.229 391.545 414.74 388.49C414.085 388.818 413.431 389.145 412.777 389.472C413.758 392.636 413.867 396.673 415.83 398.964C419.538 403.218 423.899 407.8 428.915 409.982C442.654 416.092 456.612 421.765 471.769 423.51C475.258 423.947 478.638 425.038 482.128 425.801C482.455 426.456 482.782 427.11 483 427.765C477.875 432.565 473.077 437.911 467.298 441.947C465.226 443.366 460.864 441.402 457.484 441.075C454.322 440.747 451.051 439.765 447.997 440.202C440.146 441.293 434.04 439.002 428.37 433.547C425.317 430.601 420.519 429.401 416.375 427.438C416.048 427.983 415.721 428.42 415.394 428.965C416.266 430.274 417.03 431.583 418.12 432.674C432.186 447.402 448.325 457.875 469.152 460.057C471.332 460.275 474.931 461.585 475.258 463.112C475.803 465.294 474.713 468.785 472.968 470.203C469.915 472.822 466.208 475.44 462.391 476.203C454.213 477.731 445.817 477.404 437.857 473.803C433.822 471.949 429.46 470.967 424.881 470.094C431.423 476.858 438.838 481.876 447.561 485.04C451.705 486.568 456.612 487.004 456.83 493.332C456.83 494.313 459.338 495.186 460.537 496.168C465.662 500.423 471.005 504.35 475.694 509.15C478.638 512.205 479.074 516.46 476.239 520.169C473.513 523.66 470.133 522.024 466.862 520.715C465.771 520.278 464.354 520.06 463.263 520.387C456.176 522.787 453.886 521.915 449.415 516.351C447.67 514.169 444.726 511.551 442.327 511.551C432.077 511.332 427.716 504.023 422.7 497.15C420.846 494.641 419.21 491.913 417.03 488.531C411.032 502.605 419.865 511.223 427.061 520.169C426.407 520.715 425.753 521.369 424.99 521.915C421.827 519.951 418.556 517.987 415.394 516.023C414.849 516.133 414.413 516.242 413.867 516.351C414.74 519.842 415.721 523.442 416.375 526.933C416.702 528.897 417.139 531.297 416.375 532.824C414.413 536.752 414.085 540.352 416.484 544.061C416.921 544.825 417.466 545.698 417.357 546.57C417.03 553.662 416.157 560.753 416.266 567.735C416.266 570.135 418.447 572.644 420.301 576.353C417.684 579.845 410.814 584.863 419.101 591.954C414.194 599.155 415.721 606.464 419.319 613.664C419.756 614.428 420.301 615.628 419.974 616.173C414.74 625.01 418.447 634.502 418.011 643.666C416.921 655.339 417.357 666.139 417.357 677.922ZM11.6114 662.43C23.497 662.103 40.2895 649.993 38.1086 643.557C34.8374 645.52 31.348 647.266 28.1858 649.448C20.0077 655.23 18.8082 655.23 11.1753 648.575C4.63273 653.375 -0.492243 647.048 -6.81668 646.284C-4.09063 649.557 -1.03745 652.284 2.45189 654.03C6.05028 655.884 10.0848 656.648 14.4465 658.066C13.247 660.03 12.4838 661.23 11.7205 662.43C6.15932 662.757 0.707219 663.194 -6.05338 663.63C-3.65446 665.485 -1.90979 667.339 0.16201 668.212C4.63273 670.067 9.53962 671.158 14.0103 673.012C16.1912 673.885 18.0449 675.958 20.88 678.14C26.005 676.504 37.5634 665.376 37.3453 660.794C36.473 661.776 35.9278 662.757 35.0555 663.412C31.239 666.139 27.6406 669.085 23.606 671.376C21.0981 672.903 13.6832 667.121 11.6114 662.43ZM343.535 282.449C344.08 286.813 351.713 293.359 355.748 291.831C367.197 287.468 379.192 284.086 388.024 274.703C390.423 272.085 393.367 269.794 396.312 267.721C400.564 264.667 401.328 260.739 399.91 254.739C397.511 257.466 395.875 259.539 394.022 261.285C392.168 262.921 390.205 264.557 388.133 265.758C384.971 267.612 381.155 268.485 378.538 270.776C367.743 280.158 357.493 279.176 348.769 267.721C346.916 265.321 343.317 264.121 340.591 262.376C339.937 263.139 339.392 263.794 338.737 264.557C341.354 267.503 343.971 270.449 346.697 273.394C348.66 275.576 350.623 277.649 352.586 279.722C349.751 280.595 346.916 281.467 343.535 282.449ZM210.068 683.377C197.419 687.74 192.076 680.54 188.369 669.849C187.387 671.703 186.951 672.14 186.951 672.576C187.278 688.831 187.605 705.196 188.041 721.451C188.15 724.724 190.113 724.397 192.512 724.397C205.161 724.724 212.031 715.778 220.536 706.832C207.233 710.214 196.001 710.323 189.132 696.032C192.512 695.268 195.565 695.05 198.291 693.959C201.017 692.868 203.307 690.359 206.033 689.377C209.196 688.177 212.14 687.631 210.068 683.377ZM346.043 307.978C346.261 308.741 346.261 309.723 346.697 310.05C352.695 314.523 358.692 318.996 364.908 323.251C365.671 323.797 367.852 323.033 368.833 322.269C378.211 314.087 387.697 305.796 396.748 297.177C398.383 295.65 398.711 292.704 399.801 289.977C395.003 294.559 391.187 298.704 386.825 302.196C383.117 305.25 378.538 307.323 374.612 310.05C369.814 313.432 367.197 312.996 362.945 308.632C361.2 306.887 358.365 305.578 355.966 305.578C352.804 305.578 349.751 306.996 346.043 307.978ZM297.301 704.105C304.389 701.159 328.16 678.249 328.924 673.994C328.16 674.431 327.288 674.54 327.07 675.085C322.054 683.704 314.748 687.849 304.607 687.195C303.081 687.086 301.336 687.74 300.028 688.613C298.937 689.268 297.629 690.577 297.52 691.668C297.192 695.486 297.301 699.414 297.301 704.105ZM188.805 646.72C185.315 657.739 188.914 665.158 195.02 671.921C195.674 672.685 197.419 673.34 198.291 673.012C201.999 671.703 205.597 669.958 208.541 668.649C204.507 665.485 200.472 663.085 197.419 659.703C194.366 656.212 192.185 651.848 188.805 646.72ZM299.591 369.508C300.682 375.944 313.222 384.345 318.674 383.363C322.599 382.708 328.924 372.453 327.833 367.326C318.892 371.69 310.059 380.308 299.591 369.508ZM38.1086 697.232C36.364 697.232 35.9278 697.123 35.7097 697.232C30.5847 700.177 27.4225 706.723 20.1167 705.741C19.6805 705.741 18.9172 706.614 18.8082 707.269C17.4997 711.196 14.3375 711.632 10.9572 711.632C7.79495 711.632 4.52369 711.632 0.816261 711.632C1.57955 712.942 2.34285 714.032 2.9971 715.123C1.79764 715.669 0.925303 716.105 -0.819369 716.869C3.65135 718.396 7.1407 720.578 9.75771 715.56C10.1939 714.796 12.0476 714.469 13.2471 714.36C21.9704 713.596 28.0768 708.141 34.5102 703.123C36.0368 701.814 36.6911 699.523 38.1086 697.232ZM262.626 678.14C262.081 678.467 261.427 678.795 260.881 679.122C256.847 676.503 252.812 673.776 248.669 671.376C246.27 669.958 243.544 668.867 241.036 667.667C240.709 668.212 240.382 668.758 240.054 669.303C246.052 676.94 252.594 683.922 262.626 688.177C262.626 684.14 262.626 681.086 262.626 678.14ZM44.9783 732.47C52.066 741.416 59.5899 746.652 69.7308 748.834C70.3851 744.579 71.8026 739.234 66.7867 739.125C59.917 738.906 54.3559 736.615 48.9038 733.124C48.2495 732.688 47.2682 732.797 44.9783 732.47ZM30.8028 759.525C25.8959 759.198 22.6247 758.762 21.7523 763.889C21.5342 764.98 18.263 766.508 16.5183 766.398C9.97579 765.853 4.08752 763.562 -0.710325 758.762C-2.56404 756.907 -4.74488 755.38 -6.70763 753.634C-7.1438 754.18 -7.57997 754.725 -8.01614 755.271C-6.16243 764.653 2.34285 765.962 9.64867 768.908C19.4624 772.835 24.0422 765.198 30.8028 759.525ZM211.267 386.745C201.235 390.454 195.129 382.054 187.169 379.326C190.44 386.745 195.674 391.654 202.98 394.273C210.504 397 211.703 396.018 211.267 386.745ZM242.235 420.019C241.799 421.001 241.363 421.874 240.818 422.856C246.27 426.892 251.722 431.038 256.411 434.529C259.246 433.002 261.754 431.583 265.025 429.838C263.28 429.838 262.299 429.838 261.318 429.838C261.645 428.201 261.972 426.674 262.299 425.692C258.592 424.819 255.32 424.056 252.158 423.183C248.778 422.31 245.507 421.11 242.235 420.019ZM351.822 337.761C351.713 338.197 351.495 338.634 351.386 339.07C354.33 339.834 357.384 341.361 360.328 341.361C365.671 341.361 370.578 341.252 372.431 347.47C379.628 344.307 396.094 328.051 396.966 322.597C386.062 340.706 370.032 342.452 351.822 337.761ZM324.671 299.25C315.511 299.25 307.551 299.25 298.501 299.25C306.461 308.85 320.2 309.287 324.671 299.25ZM208.214 411.291C201.563 410.2 195.674 409.328 189.895 408.346C191.422 414.019 195.892 417.51 204.834 420.456C208.214 421.546 209.959 420.674 210.613 416.964C209.086 416.201 207.56 415.546 205.815 414.673C206.688 413.473 207.342 412.491 208.214 411.291ZM-6.05338 723.087C-1.90979 736.07 14.1194 740.215 25.5688 730.724C13.4651 731.379 2.34285 732.47 -6.05338 723.087ZM326.089 644.429C323.144 646.284 321.073 647.593 319.001 648.793C315.948 650.43 312.567 653.593 309.623 653.157C305.48 652.612 302.535 653.593 299.918 656.103C298.828 657.194 298.174 658.83 297.301 660.139C298.828 660.466 300.9 661.666 301.99 661.121C310.059 656.866 317.801 652.175 325.761 647.593C325.979 647.484 325.87 646.72 326.089 644.429ZM397.62 359.253C382.027 369.726 378.429 373.872 379.628 380.199C385.844 373.544 397.62 372.235 397.62 359.253ZM346.37 415.764C348.224 421.11 351.931 424.274 356.62 426.347C358.038 427.001 360.873 427.329 361.418 426.565C362.509 425.038 363.054 422.528 362.727 420.674C362.509 419.365 360.546 417.837 359.019 417.51C355.312 416.637 351.277 416.31 346.37 415.764ZM46.6139 566.317C49.449 571.335 53.9197 572.535 58.2814 571.662C64.4968 570.353 67.1138 564.898 69.8399 559.771C67.55 560.753 66.1324 562.498 64.2787 563.807C62.8612 564.789 60.3532 566.208 59.5899 565.662C55.2282 562.389 51.4118 564.898 46.6139 566.317ZM305.807 320.415C308.751 324.778 309.623 331.761 315.73 330.015C319.219 329.033 321.618 324.669 324.889 321.506C317.692 321.178 311.804 320.742 305.807 320.415ZM44.8692 714.36C45.1964 716.214 45.0873 716.869 45.4144 717.196C50.7575 725.16 59.6989 726.36 67.7681 729.088C68.3133 729.306 69.2946 727.997 69.9489 727.451C68.9675 726.578 68.0952 725.488 67.0048 724.942C61.8798 722.324 56.6458 719.705 51.4118 717.196C49.6671 716.324 47.7043 715.56 44.8692 714.36ZM69.8399 767.599C70.3851 767.489 70.9303 767.38 71.4755 767.271C70.6031 764.107 70.4941 758.871 68.6404 758.107C63.2973 755.925 57.3 755.598 51.6298 754.616C54.0288 757.562 57.0819 759.525 60.1351 761.489C63.4064 763.562 66.5686 765.526 69.8399 767.599ZM397.184 666.03C396.966 660.357 396.639 655.121 396.421 649.666C393.695 650.102 392.168 650.43 390.641 650.648C389.006 662.321 390.314 665.703 397.184 666.03ZM380.5 662.321C382.681 650.321 381.373 645.411 376.248 645.411C375.594 648.575 374.721 651.739 374.394 654.903C373.849 659.048 375.266 662.103 380.5 662.321ZM188.369 453.184C188.041 453.512 187.605 453.839 187.278 454.275C189.568 457.657 191.858 461.039 194.148 464.53C197.637 469.876 199.709 470.421 206.36 467.039C200.145 462.239 194.257 457.766 188.369 453.184ZM70.4941 574.172C63.1883 576.244 55.7734 578.317 48.5767 580.39C53.5926 587.372 65.3691 584.099 70.4941 574.172ZM124.252 481.331C123.816 480.786 123.27 480.349 122.834 479.804C118.364 482.313 113.784 484.604 109.422 487.44C108.332 488.095 108.223 490.386 107.677 491.913C109.313 492.241 111.712 493.441 112.584 492.786C116.728 489.295 120.435 485.258 124.252 481.331ZM172.448 691.995C172.448 685.995 172.557 681.086 172.339 676.067C172.339 675.303 171.14 674.213 170.486 674.103C169.613 673.994 168.305 674.54 167.76 675.303C165.47 678.14 167.869 688.94 172.448 691.995ZM314.53 575.808C319.764 579.626 323.908 578.099 327.397 571.99C327.942 571.008 327.833 569.699 328.051 568.499C326.743 568.28 324.998 567.517 324.126 568.062C320.964 570.353 318.019 572.972 314.53 575.808ZM247.142 699.632C246.815 700.286 246.488 700.832 246.161 701.486C251.504 705.087 256.956 708.796 262.299 712.396C262.953 711.851 263.498 711.305 264.153 710.76C263.498 708.905 263.389 706.069 262.19 705.414C257.283 703.014 252.158 701.486 247.142 699.632ZM261.318 659.812C261.972 659.375 262.626 658.83 263.28 658.394C261.972 656.648 260.772 653.593 259.355 653.484C255.102 653.157 251.395 647.811 245.507 652.721C251.395 655.23 256.411 657.521 261.318 659.812ZM18.0449 693.195C27.5315 691.777 31.5661 684.577 37.0182 679.231C32.9837 681.413 29.1672 685.122 25.0236 685.668C20.1167 686.322 18.372 688.068 18.0449 693.195ZM344.735 380.963C346.261 390.563 351.495 393.836 358.038 390.127C353.458 386.963 349.096 384.017 344.735 380.963ZM15.755 748.943C7.35878 749.707 0.489135 746.979 -5.50817 739.015C-3.43638 749.707 5.83219 753.525 15.755 748.943ZM253.903 487.113C249.323 483.622 244.961 480.349 239.291 476.094C242.562 485.695 248.014 489.513 253.903 487.113ZM280.945 692.759C281.49 686.431 280.836 685.886 272.767 685.995C271.895 692.213 272.222 692.541 280.945 692.759ZM80.526 703.232C79.7627 703.778 78.9994 704.432 78.3451 704.978C80.3079 707.814 82.1616 710.869 84.5605 713.16C85.2148 713.705 87.9408 712.178 90.885 711.196C86.6323 707.923 83.5791 705.632 80.526 703.232ZM8.34016 698.432C3.7604 695.486 -0.819368 692.541 -5.50817 689.595C-5.8353 690.031 -6.05338 690.468 -6.38051 690.795C-3.10925 695.595 -0.274158 701.05 8.34016 698.432ZM273.203 709.014C282.036 708.578 282.908 707.269 280.618 699.195C278.437 702.687 272.767 703.014 273.203 709.014ZM246.815 458.639C248.669 461.912 249.214 463.985 250.631 465.076C251.94 466.167 253.903 466.712 255.756 466.93C256.629 467.039 258.482 465.185 258.373 464.967C257.719 463.657 256.847 462.021 255.647 461.476C253.248 460.275 250.631 459.73 246.815 458.639ZM72.6749 589.009C68.4223 591.954 64.4968 594.682 60.5713 597.3C60.7894 597.954 61.1165 598.609 61.3346 599.373C63.4064 598.936 66.0234 599.155 67.4409 597.845C69.9489 595.773 74.4196 594.245 72.6749 589.009ZM353.458 645.957C357.384 649.011 359.783 650.866 362.072 652.83C362.727 652.502 363.381 652.066 363.926 651.739C362.945 649.011 362.181 646.066 360.764 643.557C360.655 643.12 356.947 644.757 353.458 645.957ZM-0.0560745 677.813C3.7604 685.449 10.0848 688.504 16.0821 685.777C12.8109 684.468 10.1939 683.595 7.68591 682.286C5.0689 680.976 2.56093 679.34 -0.0560745 677.813ZM194.584 630.138C199.491 638.32 203.852 639.956 207.996 635.156C203.634 633.52 199.6 631.992 194.584 630.138ZM352.586 677.267C355.639 679.667 358.692 682.067 361.963 684.686C363.817 678.576 361.091 676.176 352.586 677.267ZM325.107 464.53C325.434 465.185 325.761 465.839 326.198 466.385C327.942 466.058 330.668 466.385 331.323 465.403C332.413 463.548 332.304 460.93 332.631 458.639C331.977 458.312 331.323 458.094 330.668 457.766C328.815 459.948 326.961 462.239 325.107 464.53ZM304.825 352.489C305.262 352.161 305.698 351.834 306.134 351.507C303.517 347.689 301.881 342.888 297.41 340.816C296.865 341.361 296.32 341.797 295.775 342.343C298.828 345.725 301.772 349.107 304.825 352.489ZM164.924 402.782C167.978 398.309 170.595 394.382 173.321 390.345C167.432 392.418 163.507 398.418 164.924 402.782ZM69.5127 714.142C70.0579 713.705 70.6031 713.269 71.1484 712.942C70.167 711.196 69.6218 708.36 68.2042 707.923C66.7867 707.487 64.6058 709.341 62.7521 710.105C62.8612 710.541 63.0792 711.087 63.1883 711.523C65.2601 712.396 67.4409 713.269 69.5127 714.142ZM316.166 430.601C315.948 431.256 315.839 431.911 315.621 432.565C317.147 433.438 319.219 435.511 320.2 435.074C322.054 434.311 323.253 432.129 324.78 430.492C324.562 430.056 324.235 429.62 324.017 429.074C321.4 429.62 318.783 430.056 316.166 430.601ZM94.5924 604.609C94.8105 605.264 95.0286 605.809 95.2466 606.464C97.6456 605.7 100.263 605.264 102.225 603.955C103.425 603.191 103.643 600.9 104.297 599.264C103.861 599.155 103.425 599.045 102.989 598.936C100.263 600.682 97.4275 602.646 94.5924 604.609ZM349.969 600.9C350.078 600.136 350.187 599.373 350.296 598.609C348.006 597.627 345.716 596.536 343.426 595.554C342.99 595.991 342.663 596.427 342.227 596.864C342.881 598.5 343.208 601.227 344.299 601.664C345.825 602.318 348.115 601.227 349.969 600.9ZM203.852 443.911C204.398 443.693 204.943 443.475 205.488 443.366C205.27 442.166 205.597 440.529 204.834 439.875C202.108 437.584 199.164 435.511 196.329 433.438C196.001 433.874 195.565 434.42 195.238 434.856C198.073 437.802 201.017 440.856 203.852 443.911ZM78.6723 671.921C82.7068 675.194 85.9781 677.922 89.2493 680.649C89.5765 680.213 89.9036 679.776 90.2307 679.34C86.3052 677.594 87.1775 669.521 78.6723 671.921ZM78.018 654.357C81.9435 661.666 84.0153 662.867 88.8132 660.03C85.2148 658.175 82.1616 656.539 78.018 654.357ZM24.0422 724.178C24.3693 724.724 24.8055 725.269 25.1326 725.815C29.0581 722.542 32.9837 719.16 36.9092 715.887C36.582 715.451 36.2549 715.014 35.8187 714.578C31.8932 717.851 27.9677 721.015 24.0422 724.178ZM152.276 409.764C152.93 410.31 153.584 410.855 154.347 411.401C155.983 409.11 157.619 406.928 159.254 404.637C156.964 403.982 155.002 403.437 153.039 402.891C152.712 404.964 152.494 407.364 152.276 409.764ZM63.0792 644.429C63.5154 644.866 63.8425 645.302 64.2787 645.848C68.3133 645.302 71.2574 643.666 71.8026 637.447C68.2042 640.393 65.5872 642.357 63.0792 644.429ZM72.1297 605.809C68.7494 608.428 65.3691 611.155 61.9888 613.773C62.316 614.21 62.6431 614.646 62.9702 614.973C67.659 614.101 70.4941 610.61 72.1297 605.809Z" fill="#90B7AC"/>
</svg>
