<svg width="375" height="358" viewBox="0 0 375 358" fill="none" xmlns="http://www.w3.org/2000/svg">
<path d="M627.074 245.747C622.43 241.853 617.137 239.133 611.516 237.101C602.938 233.946 594.369 230.591 585.679 227.732C579.558 225.679 574.282 222.559 569.658 218.166C563.877 212.724 557.023 209.039 549.515 206.629C537.165 202.718 524.603 199.099 513.476 192.236C503.519 186.122 492.822 183.381 481.207 183.504C461.882 183.71 443.45 179.249 425.4 172.803C421.157 171.327 416.881 170.651 412.348 171.365C402.178 172.849 392.005 174.432 381.847 175.616C372.897 176.649 364.41 178.603 357.261 184.514C355.813 185.655 354.078 186.485 352.259 186.91C344.383 188.588 338.899 192.967 335.002 200.113C332.294 205.106 327.559 208.314 322.018 209.187C313.955 210.557 306.626 213.559 299.284 216.86C296.533 218.048 293.873 219.44 290.764 219.612C283.841 220.028 277.022 220.349 270.132 219.965C258.354 219.181 246.389 218.089 235.13 214.423C220.411 209.715 156.759 234.021 148.876 238.301C136.591 245.002 112.248 221.182 98.5259 219.016C94.1501 218.336 90.0152 216.665 85.764 215.389C77.5573 212.95 69.6434 213.125 61.9444 217.813C52.7055 223.438 42.3745 226.417 31.7013 227.98C23.3426 229.237 14.9963 230.195 6.63345 231.553C3.30748 232.117 -0.489333 231.961 -2.44389 235.684C-2.98043 236.562 -3.96728 236.222 -4.13836 235.514C-4.73509 232.987 -6.27898 234.025 -7.69422 234.367C-10.5247 235.051 -13.0801 236.347 -15.7272 237.44C-27.7391 242.35 -39.9302 246.753 -53.3066 245.903C-62.4906 245.326 -69.5367 248.739 -72.8244 258.112C-73.9632 261.468 -76.4721 264.067 -78.7811 266.675C-86.9729 276.046 -96.5977 283.757 -107.552 289.712C-112.875 292.596 -118.202 295.58 -122.866 299.492C-128.875 304.449 -135.442 308.383 -142.388 311.8C-143.512 312.355 -150.294 319.082 -152.034 320.011C-141.337 322.753 -134.017 324.855 -123.805 324.774C-118.502 324.792 -104.103 322.682 -98.9441 323.795C-90.313 325.651 -82.484 322.67 -73.8091 321.025C-61.7084 318.82 -50.1633 320.395 -38.862 325.464C-31.7872 328.657 -24.3962 331.463 -16.8806 333.673C-11.0472 335.414 -5.36023 335.848 0.633359 333.693C8.56232 330.716 16.8334 329.154 25.1169 327.293C33.8041 325.348 41.6728 326.272 48.9693 331.376C50.0396 332.121 51.214 332.769 52.3883 333.418C61.1918 338.384 69.883 343.645 79.9047 345.759C90.9173 348.113 101.469 351.95 111.8 356.277C114.261 357.279 116.613 358.477 119.299 358.888C128.746 360.377 138.076 362.262 147.386 364.646C162.833 368.684 177.399 374.687 191.728 381.582C193.493 382.455 194.597 382.4 195.765 380.747C197.787 377.827 200.579 375.64 203.272 373.449C235.837 348.165 272.225 329.744 309.637 313.166C340.32 299.615 372.703 290.938 404.366 280.329C424.053 273.732 444.713 270.278 464.83 265.4C485.047 260.526 505.474 257.863 526.214 257.314C530.722 257.199 535.223 257.284 539.731 257.169C544.643 256.971 549.576 256.273 554.48 256.274C569.792 256.303 585.112 256.132 600.479 257.264C614.946 258.36 629.276 260.35 643.574 263.139C647.246 263.891 650.926 264.442 654.499 265.19C650.85 261.437 647.072 258.379 642.662 256.096C637.174 253.268 631.91 249.849 627.074 245.747Z" fill="#91B7AC" stroke="#91B7AC" stroke-width="3" stroke-miterlimit="10"/>
<path d="M64.1613 251.532C64.6828 246.149 63.3388 247.195 59.7022 243.142C56.3448 239.601 42.6714 228.93 37.8878 228.433C29.9151 227.605 13.522 229.534 6.83315 231.561C4.29829 232.357 0.296216 229.891 -0.238981 233.172C-0.371753 233.967 8.27298 237.925 11.1349 241.346C14.5676 245.49 21.6438 243.779 26.7819 245.392C31.92 247.004 35.1104 257.043 40.1281 259.151C50.3674 263.275 40.05 268.356 47.9515 275.787C48.3347 276.203 63.8053 269.933 66.2936 267.833C76.9751 258.764 86.9009 268.08 94.8517 267.006C96.9622 266.792 76.303 255.634 73.0004 253.196C69.1187 250.235 63.9546 254.126 64.1613 251.532Z" fill="#679289" stroke="#679289" stroke-width="3" stroke-miterlimit="10"/>
<path d="M317.678 295.282C316.371 295.429 317.71 277.469 316.323 277.111C292.628 271.634 273.754 280.366 252.158 270.07C240.869 264.702 221.33 253.09 210.032 247.921C198.931 242.861 206.705 231.471 194.1 231.353C187.597 231.286 170.459 234.284 170.968 229.201C159.993 233.254 151.686 238.117 148.78 238.197C121.817 239.191 113.803 217.443 102.723 221.592C106.82 236.372 145.379 267.382 159.504 281.674C180.319 289.036 213.508 314.32 224.853 323.193C246.478 340.096 239.552 306.483 260.224 324.647C283.737 310.201 284.257 324.334 309.641 313.067C318.814 309.041 328.175 305.322 337.619 302.007C331.223 299.342 324.519 296.865 317.678 295.282Z" fill="#679289" stroke="#679289" stroke-width="3" stroke-miterlimit="10"/>
<g clip-path="url(#clip0)">
<path d="M377.962 154.722C374.559 154.843 371.192 154.863 367.789 154.983C366.987 155.031 366.139 155.515 366.144 156.423C366.087 157.196 366.722 158.22 367.56 158.072C370.963 157.952 374.33 157.931 377.734 157.811C378.535 157.763 379.383 157.279 379.378 156.371C379.498 155.735 378.863 154.71 377.962 154.722Z" fill="white"/>
<path d="M350.756 161.469C349.658 163.562 348.56 165.655 347.499 167.647C347.254 168.011 347.108 168.411 347.259 168.919C347.348 169.292 347.535 169.7 347.894 169.944C348.514 170.396 349.648 170.356 350.038 169.592C351.136 167.499 352.234 165.406 353.296 163.414C353.54 163.05 353.686 162.65 353.535 162.141C353.446 161.769 353.259 161.361 352.9 161.117C352.281 160.665 351.183 160.605 350.756 161.469Z" fill="white"/>
<path d="M341.255 192.79C341.713 195.222 342.073 197.619 342.531 200.052C342.671 200.896 343.551 201.556 344.425 201.308C345.263 201.16 345.887 200.368 345.684 199.387C345.226 196.955 344.867 194.558 344.409 192.126C344.268 191.281 343.389 190.621 342.515 190.869C341.739 191.153 341.115 191.946 341.255 192.79Z" fill="white"/>
<path d="M339.191 219.681C338.983 219.946 338.775 220.21 338.468 220.438C338.296 220.602 338.639 220.274 338.468 220.438C338.431 220.538 338.332 220.502 338.296 220.602C338.124 220.766 338.088 220.866 337.916 221.03C337.401 221.522 336.886 222.014 336.272 222.47C335.965 222.698 335.658 222.926 335.387 223.054C335.252 223.119 335.08 223.283 334.945 223.347C335.215 223.219 334.809 223.411 334.773 223.511C334.195 223.867 333.483 224.287 332.842 224.507C332.067 224.791 331.666 225.891 332.078 226.608C332.452 227.424 333.342 227.748 334.154 227.364C337.094 226.055 339.759 223.966 341.804 221.426C342.355 220.834 342.126 219.617 341.47 219.265C340.617 218.841 339.779 218.989 339.191 219.681Z" fill="white"/>
<path d="M319.853 230.653C318.833 231.301 317.886 231.749 316.741 232.126C316.876 232.062 317.012 231.998 317.111 232.034C316.606 232.19 316.101 232.346 315.633 232.402C315.263 232.494 314.857 232.686 314.613 233.05C314.368 233.414 314.223 233.814 314.373 234.322C314.462 234.694 314.649 235.102 315.008 235.347C315.368 235.591 315.763 235.735 316.268 235.579C317.98 235.182 319.666 234.55 321.227 233.646C321.362 233.582 321.534 233.418 321.706 233.254C321.878 233.09 321.95 232.89 322.023 232.69C322.169 232.289 322.117 231.817 322.028 231.445C321.841 231.037 321.518 230.693 321.086 230.649C320.691 230.505 320.259 230.461 319.853 230.653Z" fill="white"/>
<path d="M296.872 240.864C295.061 241.224 293.115 241.648 291.304 242.009C290.466 242.157 289.806 243.049 290.045 243.929C290.186 244.773 290.966 245.397 291.939 245.185C293.75 244.825 295.697 244.401 297.508 244.041C298.345 243.893 299.006 243 298.767 242.12C298.59 241.376 297.809 240.752 296.872 240.864Z" fill="white"/>
<path d="M274.397 246.615C271.644 246.179 268.735 246.479 266.039 247.424C265.67 247.516 265.389 247.98 265.243 248.38C265.097 248.78 265.149 249.252 265.238 249.624C265.425 250.032 265.748 250.376 266.18 250.42C266.575 250.564 266.945 250.472 267.413 250.416C267.044 250.508 267.549 250.352 267.549 250.352C267.684 250.288 267.819 250.224 268.053 250.196C268.324 250.068 268.657 250.076 269.026 249.984C269.63 249.864 270.234 249.744 270.801 249.724C270.936 249.66 271.035 249.696 271.269 249.668C270.837 249.624 271.368 249.704 271.504 249.64C271.837 249.648 272.17 249.656 272.404 249.628C273.07 249.644 273.601 249.724 274.23 249.84C275.094 249.928 275.916 249.208 275.875 248.399C275.906 247.391 275.261 246.703 274.397 246.615Z" fill="white"/>
<path d="M254.107 252.822C252.192 252.238 249.923 252.318 248.154 253.486C247.748 253.678 247.54 253.942 247.358 254.442C247.212 254.843 247.264 255.315 247.353 255.687C247.54 256.095 247.863 256.439 248.295 256.483C248.69 256.627 249.122 256.671 249.528 256.479C249.934 256.287 250.376 255.995 250.746 255.903C250.61 255.967 250.475 256.031 250.376 255.995C250.881 255.839 251.349 255.783 251.818 255.727C251.682 255.791 251.584 255.755 251.349 255.783C251.818 255.727 252.349 255.807 252.879 255.886C252.78 255.85 252.583 255.778 252.447 255.843C252.645 255.915 252.744 255.951 252.942 256.023C253.337 256.167 253.806 256.111 254.175 256.018C254.581 255.826 254.925 255.498 254.971 255.062C255.237 254.026 254.898 253.11 254.107 252.822Z" fill="white"/>
<path d="M237.605 257.236C236.731 257.484 235.956 257.768 235.081 258.016C234.847 258.044 234.712 258.108 234.54 258.272C234.405 258.336 234.233 258.5 234.061 258.664C233.89 258.828 233.817 259.028 233.843 259.264C233.77 259.464 233.796 259.7 233.822 259.936C233.91 260.309 234.098 260.717 234.457 260.961C234.556 260.997 234.754 261.069 234.816 261.205C235.113 261.313 235.347 261.285 235.68 261.293C236.554 261.045 237.33 260.76 238.204 260.512C238.438 260.484 238.573 260.42 238.745 260.256C238.88 260.192 239.052 260.028 239.224 259.864C239.395 259.7 239.468 259.5 239.442 259.264C239.515 259.064 239.489 258.828 239.463 258.592C239.375 258.22 239.187 257.812 238.828 257.568C238.729 257.532 238.531 257.46 238.469 257.324C238.074 257.18 237.839 257.208 237.605 257.236Z" fill="white"/>
<path d="M220.183 275.249C215.125 274.993 210.155 275.109 205.039 275.625C204.238 275.674 203.639 276.702 203.78 277.546C203.884 278.49 204.738 278.914 205.674 278.802C210.42 278.378 215.192 278.19 220.017 278.473C221.916 278.485 222.28 275.333 220.183 275.249Z" fill="#EE2E30"/>
<path d="M210.088 271.913C210.166 274.774 210.343 277.67 210.421 280.531C210.473 281.003 210.463 281.339 210.785 281.683C211.009 281.991 211.467 282.271 211.899 282.315C212.664 282.367 213.684 281.719 213.544 280.875C213.465 278.014 213.288 275.117 213.21 272.257C213.158 271.785 213.168 271.449 212.846 271.104C212.622 270.796 212.164 270.516 211.732 270.472C210.967 270.42 210.082 271.005 210.088 271.913Z" fill="#EE2E30"/>
</g>
<defs>
<clipPath id="clip0">
<rect width="297" height="165" fill="white" transform="translate(459.659 56.4541) rotate(110.008)"/>
</clipPath>
</defs>
</svg>
