<svg width="329" height="74" viewBox="0 0 329 74" fill="none" xmlns="http://www.w3.org/2000/svg">
<path d="M38.0627 28.6397C37.921 28.6276 37.7939 28.446 37.5104 28.4216C37.3687 28.4095 37.227 28.3973 37.2125 28.5667C36.9145 28.7118 36.602 29.0263 36.5729 29.3651C36.5438 29.7039 36.6564 30.0549 37.067 30.2608C37.2087 30.2729 37.3359 30.4545 37.3359 30.4545C37.4776 30.4667 37.6193 30.4789 37.9173 30.3338C38.2152 30.1887 38.5277 29.8742 38.5568 29.5354C38.6005 29.0272 38.4879 28.6762 38.0627 28.6397Z" fill="#679289"/>
<path d="M14.0112 27.7697C68.022 30.5307 122.324 29.9035 176.367 30.6194C203.184 30.8744 230.127 31.311 256.915 31.9048C270.167 32.1895 283.277 32.4621 296.514 32.9162C300.497 33.0876 312.833 30.7339 315.133 35.539C316.826 39.0975 314.921 47.9786 315.408 52.2868C317.498 49.5651 319.431 47.0006 321.52 44.279C294.933 43.0197 268.302 42.2687 241.627 42.0258C215.377 41.8195 189.462 44.3723 163.252 45.364C136.461 46.4764 109.794 42.8212 83.0209 42.058C70.0669 41.6282 57.0983 41.3678 44.2424 41.4583C35.2417 41.5387 10.6851 44.8908 12.6378 27.1398C11.0315 29.2204 9.58154 31.1437 7.9753 33.2243C18.6366 32.092 29.1416 31.1169 39.8029 29.9846C47.0049 29.2378 45.1345 16.1074 37.9325 16.8542C27.2713 17.9865 16.7662 18.9616 6.10496 20.0939C3.6522 20.3953 1.81696 23.4801 1.44249 26.1784C-2.39004 60.8335 39.5357 54.7065 56.941 54.836C86.4646 55.1528 115.926 57.8534 145.392 58.8479C174.29 59.7936 203.229 55.2819 232.2 55.3806C261.597 55.5159 290.935 56.3287 320.23 57.6498C323.929 57.7968 326.814 54.1195 326.342 49.642C325.202 39.6461 328.673 27.4864 319.444 21.9155C314.008 18.7183 306.479 19.9489 300.356 19.7644C293.808 19.5434 287.104 19.4797 280.556 19.2587C250.92 18.5909 221.284 17.9231 191.477 17.582C132.728 16.8033 73.7243 15.6614 14.7677 18.9606C10.1747 19.2488 9.03676 27.5132 14.0112 27.7697Z" fill="#679289"/>
<path d="M9.54809 39.8441C20.0639 40.4058 31.2737 41.1978 40.8153 46.4542C41.8332 41.2513 42.8655 35.879 44.0251 30.6883C37.2374 29.9348 30.606 29.024 23.8329 28.101C23.3238 34.0302 22.8146 39.9594 22.3055 45.8886C25.7502 45.6724 29.1804 45.6257 32.6397 45.2401C41.713 44.3128 40.2026 28.6535 32.1832 27.2822C27.5358 26.5418 22.8884 25.8014 18.2555 24.8916C17.7609 30.6514 17.2808 36.2418 16.7862 42.0015C23.8427 42.9488 30.9429 43.3879 38.0867 43.3187C46.6476 43.3713 48.1132 27.9676 39.4542 27.3946C37.1868 27.1999 34.7631 27.1625 32.4957 26.9677C32.0447 32.2193 31.5938 37.4709 31.1428 42.7224C46.0662 43.492 61.1459 44.1044 76.0693 44.8739C84.3178 45.241 85.5689 30.6721 77.3786 29.6275C68.3527 28.3404 59.2831 27.5615 50.199 26.9521C42.1068 26.4279 40.8266 41.3355 48.9188 41.8598C64.6779 42.8718 80.4662 43.545 96.2981 43.7099C104.136 43.871 105.1 30.9841 97.5346 29.3105C93.0435 28.4129 88.4252 27.3336 83.934 26.436C83.5267 31.1793 83.1194 35.9227 82.712 40.666C98.9292 39.6695 115.03 40.0282 131.043 41.4034C131.451 36.66 131.858 31.9167 132.251 27.3428C124.032 26.6369 115.812 25.9311 107.466 25.0437C99.2756 23.999 98.1516 38.7495 106.171 40.1208C118.696 42.2203 131.309 43.3034 144.063 44.3986C152.991 45.1653 154.216 29.229 145.474 27.9663C131.375 25.9023 117.175 25.0242 102.873 25.3319C93.5742 25.5573 92.1087 40.961 101.389 42.6112C113.758 44.868 126.214 46.1083 138.87 46.6832C139.379 40.754 139.888 34.8248 140.397 28.8956C129.569 28.6483 118.741 28.4011 107.912 28.1538C98.3741 27.8467 96.7631 44.9445 106.4 45.772C130.491 47.8408 154.713 48.385 178.938 47.2229C188.252 46.8281 190.059 30.7711 180.451 29.6047C171.694 28.5114 163.119 28.6283 154.343 29.4106C145.852 30.2172 146.766 46.1666 154.844 46.8603C172.841 48.4058 190.77 49.0922 208.883 49.2824C219.018 49.2994 220.829 31.5362 210.513 30.3091C200.48 29.1062 190.404 28.4116 180.241 28.7334C179.688 35.1708 179.135 41.6082 178.582 48.0456C197.507 47.1109 216.387 46.6844 235.253 46.4273C245.544 46.2871 247.511 28.3666 236.912 27.1151C228.423 26.2155 220.019 26.0057 211.57 26.3042C201.251 26.7832 199.182 45.8895 209.897 45.7858C233.738 45.7852 257.451 45.6031 281.292 45.6025C291.284 45.6074 293.095 27.8441 282.907 26.7985C277.805 26.3604 272.562 25.9102 267.46 25.4721C266.922 31.7401 266.398 37.8387 265.86 44.1066C281.79 44.792 297.891 45.1507 313.835 45.6667C323.232 45.9617 324.857 28.6945 315.333 28.2179C299.418 27.3632 283.375 26.3268 267.445 25.6415C257.355 25.1162 255.798 43.2426 265.845 44.2761C270.947 44.7142 276.176 45.3338 281.277 45.7719C281.816 39.5039 282.354 33.2359 282.892 26.9679C259.066 26.7991 235.382 26.6424 211.556 26.4736C211.003 32.911 210.436 39.5178 209.883 45.9552C218.331 45.6568 226.736 45.8665 235.082 46.7539C235.635 40.3165 236.188 33.8791 236.741 27.4417C217.831 28.207 198.921 28.9723 180.07 29.06C169.638 29.1881 167.852 48.3187 178.411 48.3722C188.546 48.3892 198.666 48.5756 208.713 49.6091C209.251 43.3411 209.804 36.9037 210.342 30.6357C192.312 31.1352 174.212 30.7755 156.171 29.7382C156.385 35.5588 156.457 41.3673 156.671 47.1879C164.157 46.4655 171.555 46.7595 178.895 47.7311C179.404 41.8019 179.899 36.0421 180.408 30.113C156.197 31.1056 131.96 30.7309 107.883 28.4926C107.374 34.4218 106.865 40.351 106.37 46.1108C117.199 46.358 128.013 46.7747 138.841 47.022C148.379 47.3291 150.034 29.7231 140.368 29.2344C127.854 28.6717 115.256 27.4192 102.858 25.5013C102.364 31.2611 101.869 37.0209 101.374 42.7806C115.706 42.1341 129.935 42.6734 144.204 44.4108C144.67 38.9898 145.135 33.5688 145.615 27.9785C132.974 27.2342 120.376 25.9817 107.608 25.0559C107.171 30.138 106.749 35.0508 106.313 40.1329C114.576 40.3305 122.81 40.867 131.171 41.585C138.823 42.2421 140.031 28.1815 132.378 27.5243C116.223 26.137 100.249 25.9599 84.0466 26.787C76.3069 27.1463 75.274 39.174 82.8246 41.017C87.3012 42.0841 91.9196 43.1633 96.4107 44.0609C96.818 39.3176 97.2254 34.5742 97.6472 29.6615C81.8299 29.3271 66.0562 28.4845 50.3116 27.3031C49.8897 32.2158 49.4533 37.298 49.0314 42.2108C58.1155 42.8202 67.1706 43.7684 76.182 45.2249C76.6184 40.1428 77.0548 35.0606 77.4912 29.9784C62.5824 29.0395 47.5172 28.2577 32.6083 27.3187C24.091 26.758 22.7381 42.5126 31.2554 43.0734C33.5228 43.2681 35.9319 43.475 38.1993 43.6697C38.6503 38.4182 39.1158 32.9972 39.5668 27.7456C32.4375 27.6454 25.381 26.6981 18.3681 25.2426C9.25866 23.2657 8.08732 40.2306 16.8988 42.3525C21.5171 43.4317 26.1209 44.6803 30.7392 45.7596C31.2629 39.661 31.7721 33.7318 32.2958 27.6332C28.8511 27.8493 25.3918 28.2349 22.0742 28.6326C13.7094 29.6208 14.1697 45.8725 22.5598 46.2517C29.3911 46.4971 36.0806 46.7302 42.8974 47.1449C52.7046 47.6458 52.5607 29.3734 42.4226 31.0626C31.5614 32.8604 20.6205 32.2622 9.60302 34.2172C6.44171 34.4577 6.69929 39.7701 9.54809 39.8441Z" fill="#679289"/>
</svg>
