<svg width="261" height="96" viewBox="0 0 261 96" fill="none" xmlns="http://www.w3.org/2000/svg">
<path d="M197.411 73.711C186.842 67.1643 176.272 60.6176 165.702 54.0709C160.492 50.872 155.356 47.5987 150.146 44.3997C147.689 42.8374 145.159 41.3496 142.702 39.7129C141.363 38.8202 140.32 38.3738 140.395 36.7371C140.395 35.77 141.884 35.5468 142.107 36.5139C142.33 37.4067 145.456 38.9689 146.275 39.4897C147.541 40.2336 148.731 41.052 149.997 41.7959C152.081 43.0606 154.091 44.3997 156.175 45.6644C160.939 48.6402 165.702 51.6159 170.392 54.6661C179.696 60.5432 188.926 66.4203 198.23 72.2975C199.123 72.8926 198.305 74.2317 197.411 73.711Z" fill="white"/>
<path d="M143.298 38.8198C139.13 42.0187 134.887 44.6969 131.165 48.5654C127.965 51.9131 124.987 55.484 122.084 59.0549C119.107 62.6258 116.13 66.2712 112.929 69.5445C110.398 72.0739 106.751 76.3887 103.029 76.6863C102.434 76.7607 102.062 76.0168 102.359 75.496C103.402 73.6362 105.56 72.5946 107.272 71.2556C109.207 69.6933 111.068 68.0566 112.78 66.2712C116.204 62.849 119.33 59.2037 122.531 55.5584C127.965 49.3093 134.887 40.754 143.224 38.2246C143.373 38.2246 143.522 38.5966 143.298 38.8198Z" fill="white"/>
<path d="M141.737 37.4071C131.688 40.8292 120.746 42.3171 110.325 43.6561C104.966 44.3257 99.5325 44.8465 94.0988 45.144C88.8884 45.4416 83.4547 45.9624 78.2443 45.2928C77.0533 45.144 77.4999 43.5074 78.4676 43.433C83.6035 42.8378 88.8884 43.2098 94.0243 42.9866C99.2347 42.7634 104.371 42.3915 109.581 41.8707C120.374 40.7548 130.795 38.2998 141.513 36.6631C142.034 36.5143 142.258 37.2583 141.737 37.4071Z" fill="white"/>
<path d="M106.677 75.3477C98.5641 76.1661 90.2275 76.0173 82.1141 76.3148C78.2436 76.4636 74.373 76.6124 70.5768 76.8356C66.7063 76.9844 62.6868 77.5795 58.8162 76.9844C58.0719 76.91 58.1463 75.7197 58.8162 75.5709C62.3891 74.7526 66.1852 74.9013 69.8325 74.827C73.9264 74.6782 78.0203 74.6038 82.1141 74.5294C90.3019 74.3806 98.5641 73.8598 106.677 74.3806C107.347 74.3806 107.273 75.2733 106.677 75.3477Z" fill="white"/>
<path d="M78.0194 44.1012C76.6052 49.8295 72.8834 55.5579 69.3106 60.1703C65.44 65.2291 60.7506 70.2135 55.2425 73.6356C54.4237 74.1564 53.3816 72.8917 54.2004 72.2221C58.8898 68.3536 63.5047 64.7083 67.4497 59.9471C71.618 54.9627 74.2977 49.3832 77.7216 43.9524C77.7961 43.8036 78.0938 43.878 78.0194 44.1012Z" fill="white"/>
<path d="M108.166 72.5947C107.943 77.7279 107.868 82.861 107.496 87.9942C107.422 88.8126 106.156 88.8126 106.156 87.9942C106.454 82.861 106.975 77.7279 107.422 72.5947C107.422 72.0739 108.166 72.0739 108.166 72.5947Z" fill="white"/>
<path d="M190.119 70.3621C190.566 73.933 190.566 77.5784 191.087 81.1493C191.31 82.7859 192.278 85.0921 191.831 86.7288C191.384 88.5143 188.854 89.1838 188.333 87.1008C188.184 86.3568 189.077 85.9849 189.523 86.58C190.342 85.9105 190.491 85.0178 189.896 83.9762C189.821 83.5299 189.747 83.0091 189.747 82.5628C189.598 81.1493 189.449 79.7358 189.375 78.3223C189.3 75.6441 189.151 72.9659 189.523 70.2877C189.672 69.9902 190.119 70.1389 190.119 70.3621Z" fill="white"/>
<path d="M111.814 78.5468C111.293 78.5468 110.847 78.5468 110.326 78.5468C110.177 78.5468 110.177 78.398 110.326 78.398C110.847 78.398 111.293 78.398 111.814 78.398C111.889 78.3236 111.889 78.5468 111.814 78.5468Z" fill="white"/>
<path d="M102.956 77.2831C100.276 80.7796 98.1921 84.5737 96.5546 88.5909C95.5869 90.8972 94.7682 92.9802 92.6096 94.3937C91.9397 94.84 91.3442 93.7985 92.0141 93.3522C94.8426 91.4179 95.7358 87.5494 97.2989 84.6481C98.7876 81.8955 100.648 79.3661 102.658 76.9855C102.733 76.9111 103.03 77.1343 102.956 77.2831Z" fill="white"/>
<path d="M56.2104 75.5713C53.6796 77.1335 51.1489 78.7702 48.6925 80.4813C46.4595 82.0435 41.6213 84.201 40.5792 86.8047C40.3559 86.4328 40.1326 86.0608 39.9837 85.7632C40.4303 85.7632 40.8769 85.6888 41.3235 85.6888C41.9934 85.6144 42.2168 86.8048 41.4724 86.9535C41.0258 87.0279 40.5792 87.1023 40.1326 87.1767C39.6115 87.2511 39.0905 86.8791 39.2394 86.284C39.9837 83.7546 43.4077 82.3411 45.4919 81.002C48.8414 78.8446 52.2654 76.836 55.6894 74.9017C56.2104 74.5297 56.657 75.2737 56.2104 75.5713Z" fill="white"/>
<path d="M216.542 82.0425C209.471 78.8435 202.176 76.3885 194.882 73.8591C194.137 73.6359 194.435 72.52 195.179 72.7432C202.772 74.6775 209.992 77.802 216.989 81.2985C217.584 81.5217 217.063 82.34 216.542 82.0425Z" fill="white"/>
<path d="M164.649 91.6917C159.05 85.8715 154.122 78.7082 150.315 71.6195C146.955 65.4262 143.446 57.442 144.193 50.2041C144.267 49.234 145.835 48.8609 146.059 49.9802C146.806 53.5619 147.03 57.1435 148.075 60.7252C149.195 64.6054 150.837 68.2616 152.704 71.7687C156.362 78.6336 161.439 84.4538 165.545 91.0948C165.694 91.6171 165.023 92.1394 164.649 91.6917Z" fill="white"/>
<path d="M143.968 50.6492C143.894 50.6492 143.82 50.5748 143.745 50.5748C143.522 50.5004 143.522 50.2028 143.596 50.054C143.671 49.9797 143.671 49.9053 143.745 49.7565C143.82 49.5333 144.192 49.4589 144.415 49.6077C145.978 50.7236 144.638 54.2945 144.415 55.708C143.745 60.3948 142.852 65.0816 141.14 69.4709C139.8 72.9674 138.163 76.2407 136.004 79.2909C134.962 80.8532 133.771 82.4154 132.506 83.8289C131.538 84.9448 127.965 87.623 128.486 89.2597C128.858 90.2268 127.518 90.822 126.849 90.2268C125.285 88.8133 125.807 87.1023 126.997 85.54C129.528 82.1923 132.878 79.5885 135.185 76.0176C137.493 72.4466 139.279 68.5782 140.544 64.4865C141.214 62.3291 141.81 60.0972 142.256 57.8654C142.48 56.7495 142.703 55.6336 142.926 54.5177C143.075 53.8481 144.266 50.054 144.341 50.1284C144.564 50.5748 144.266 50.798 143.968 50.6492Z" fill="white"/>
<path d="M55.0193 76.7614C55.0937 79.4396 55.3915 82.0434 55.5403 84.6472C55.6148 86.0607 56.4335 88.5157 55.317 89.706C54.9449 90.0779 54.3494 89.9291 54.1261 89.5572L54.0517 89.4828C53.8284 89.1108 53.9772 88.7388 54.2749 88.5157L54.3494 88.4413C54.8704 88.0693 55.4659 88.6645 55.3915 89.1852V89.2596C55.2426 88.962 55.0193 88.6645 54.8704 88.3669C54.9449 88.3669 54.9449 88.3669 55.0193 88.4413C54.7216 88.6645 54.3494 88.962 54.0517 89.1852C54.2005 85.0191 54.4983 80.9275 54.5727 76.7614C54.4983 76.3894 54.9449 76.3894 55.0193 76.7614Z" fill="white"/>
<path d="M254.054 91.335C251.029 91.5675 248.004 90.4821 245.056 89.8619C241.643 89.0866 238.23 88.3889 234.894 87.2259C233.964 86.9158 234.351 85.5978 235.282 85.7529C238.773 86.218 242.108 87.1484 245.522 88.0012C248.392 88.699 251.572 89.1641 254.132 90.7147C254.597 90.8698 254.442 91.335 254.054 91.335Z" fill="#FFE600"/>
<path d="M243.97 87.4585C236.833 88.4664 229.697 89.6293 222.483 90.4046C221.629 90.4821 221.474 89.0866 222.25 88.9316C229.386 87.8462 236.6 87.2259 243.737 86.3731C244.435 86.2956 244.59 87.381 243.97 87.4585Z" fill="#FFE600"/>
<path d="M238.151 87.3811C238.228 88.6216 238.306 89.862 238.306 91.025C238.306 91.4901 238.151 93.8935 238.694 93.8935C239.237 93.8935 239.78 94.5138 239.547 95.0565C239.547 95.134 239.47 95.2115 239.47 95.2115C239.237 95.6767 239.004 95.9093 238.461 95.9868C237.065 96.1419 236.522 94.9014 236.6 93.7385C236.677 91.5677 236.832 89.4744 236.987 87.3036C236.987 86.6833 238.073 86.6833 238.151 87.3811Z" fill="#FFE600"/>
<path d="M244.746 87.7681C238.23 89.8613 230.938 93.04 224.112 93.5827C223.259 93.6602 223.259 92.4973 223.957 92.2647C227.215 91.0243 230.86 90.5591 234.274 89.7063C237.687 88.8535 241.1 87.9231 244.513 86.9152C245.056 86.7602 245.289 87.613 244.746 87.7681Z" fill="#FFE600"/>
<path d="M240.557 87.3803C240.479 89.241 241.487 91.0242 242.884 92.1871C243.582 92.8074 244.435 93.195 245.288 93.4276C245.987 93.5826 246.53 93.5826 247.073 94.1253C247.305 94.3579 247.305 94.7456 247.073 94.9782C245.521 96.2186 243.039 94.4355 241.875 93.2725C240.324 91.6444 239.703 89.6287 239.936 87.4579C239.936 86.9927 240.557 86.9927 240.557 87.3803Z" fill="#FFE600"/>
<path d="M247.925 88.6202C250.872 86.9921 253.51 85.0539 256.07 82.8831C256.225 83.1932 256.458 83.5808 256.613 83.891C252.967 84.6663 249.399 85.4415 245.753 86.3719C245.21 86.5269 244.9 85.7517 245.365 85.4415C248.08 83.6584 250.717 81.7977 253.355 80.0145C253.355 80.3246 253.277 80.5572 253.277 80.8673C252.812 80.3246 252.269 80.0145 251.571 79.937C251.26 79.8595 251.26 79.3168 251.571 79.3168C252.579 79.0842 253.277 79.3943 254.053 80.1696C254.286 80.4022 254.208 80.7898 253.975 81.0224C251.26 82.8056 248.623 84.5887 245.908 86.3719C245.753 86.0618 245.675 85.7517 245.52 85.4415C249.088 84.5112 252.734 83.5808 256.302 82.8056C256.845 82.6505 257.388 83.4258 256.845 83.8134C254.208 85.9842 251.26 87.8449 248.313 89.473C247.925 89.6281 247.459 88.8528 247.925 88.6202Z" fill="#FFE600"/>
<path d="M245.444 80.3253C247.461 77.8443 248.702 75.2084 249.323 72.1072C249.633 72.4173 249.943 72.7274 250.176 72.96C245.599 73.8904 241.333 75.5185 237.377 77.9219C236.911 78.232 236.291 77.8443 236.291 77.3016C235.903 72.6499 239.083 68.5409 238.23 63.8891C238.152 63.3464 238.928 63.1138 239.083 63.6565C240.402 68.3858 237.221 72.5724 237.764 77.3016C237.377 77.069 237.066 76.914 236.678 76.6814C240.79 74.2005 245.134 72.4948 249.865 71.5645C250.408 71.487 250.874 71.8746 250.719 72.4173C249.865 75.6735 248.392 78.4646 246.065 80.868C245.677 81.3331 245.134 80.7129 245.444 80.3253Z" fill="#FFE600"/>
<path d="M236.135 64.3543C240.246 60.3228 244.745 56.6014 249.012 52.6475C249.632 52.1048 250.486 52.8025 250.175 53.5003C249.167 55.516 247.693 57.0666 245.676 58.0745C245.133 58.3071 244.28 57.9194 244.513 57.1441C245.211 55.361 245.831 53.5778 246.53 51.8722C246.762 52.1048 246.995 52.3374 247.305 52.6475C243.737 53.5778 240.712 55.1284 237.531 56.7565C236.756 57.1441 236.213 56.1363 236.911 55.6711C239.781 53.5003 243.582 52.2598 247.073 51.4845C247.538 51.407 247.926 51.7947 247.848 52.2598C247.305 54.043 246.762 55.8262 246.142 57.6093C245.754 57.2992 245.366 56.9891 244.978 56.679C246.762 55.6711 248.003 54.5082 249.089 52.725C249.4 53.0351 249.71 53.3452 250.098 53.7329C245.366 56.9116 241.022 60.788 236.756 64.6645C236.29 64.9746 235.902 64.5869 236.135 64.3543Z" fill="#FFE600"/>
<path d="M232.255 61.7958C232.255 64.1992 231.324 66.2924 229.54 67.843C229.074 68.2307 228.531 67.9981 228.454 67.3778C228.454 66.4475 228.221 65.5947 227.756 64.8194C228.144 64.8194 228.531 64.8194 228.919 64.8194C227.601 67.688 227.368 70.4015 227.213 73.5026C227.213 74.0453 226.592 74.433 226.127 74.1229C225.429 73.7352 224.963 73.3476 224.575 72.6498C224.343 72.2622 224.808 71.797 225.196 72.0296C225.661 72.4172 226.127 72.6498 226.747 72.7273C226.437 73.0375 226.127 73.3476 225.894 73.5802C225.429 70.3239 226.359 66.9127 227.833 64.0441C228.066 63.5789 228.764 63.5789 228.997 64.0441C229.462 65.1295 229.695 66.1374 229.773 67.3003C229.462 67.1453 229.152 66.9127 228.842 66.7576C230.626 65.5947 231.712 63.889 231.867 61.7182C231.789 61.4857 232.255 61.4081 232.255 61.7958Z" fill="#FFE600"/>
<path d="M225.662 79.0853C225.662 78.4651 225.739 78.31 225.817 77.6898C225.894 77.3022 226.36 77.3022 226.593 77.4572C229.618 79.8606 232.643 82.264 235.824 84.4348C236.444 84.8225 236.367 85.8304 235.591 86.0629C233.884 86.5281 232.1 86.9933 230.316 87.1483C229.463 87.2259 229.385 85.9854 230.083 85.6753C231.712 85.0551 233.419 84.7449 235.125 84.3573C235.048 84.9 234.97 85.4427 234.893 85.9854C231.712 83.582 228.609 81.1011 225.895 78.155C226.127 78.0775 226.437 77.9999 226.67 77.9224C226.437 78.5426 226.437 78.6202 226.127 79.2404C226.127 79.5505 225.662 79.3955 225.662 79.0853Z" fill="#FFE600"/>
<path d="M228.689 75.0532C230.241 73.1925 232.102 71.4868 233.654 69.6261C233.886 70.0138 234.119 70.4014 234.274 70.7115C233.266 71.0217 232.413 71.4093 231.482 71.8745C230.784 72.2621 229.93 71.4868 230.396 70.7891C231.171 69.6261 231.87 68.5407 232.645 67.4553C232.723 67.843 232.878 68.2306 232.956 68.5407C232.335 68.1531 231.637 67.998 230.939 67.843C230.318 67.6879 230.396 66.8351 230.939 66.68C231.947 66.2924 232.878 66.6025 233.731 67.1452C234.119 67.3778 234.274 67.9205 234.042 68.2306C233.266 69.316 232.568 70.479 231.792 71.5644C231.404 71.1767 231.094 70.8666 230.706 70.479C231.792 69.9362 232.8 69.6261 233.964 69.3936C234.585 69.316 235.128 70.0138 234.585 70.479C232.8 72.1846 231.016 74.0453 228.999 75.4408C228.767 75.6734 228.534 75.2857 228.689 75.0532Z" fill="#FFE600"/>
<path d="M247.227 73.1148C249.011 69.781 251.338 66.6799 254.208 64.1214C254.751 63.6562 255.915 64.1214 255.604 64.8967C255.604 64.9742 255.527 65.0518 255.527 65.1293C255.372 65.5169 255.139 65.672 254.751 65.7495C253.898 65.827 253.355 65.3619 253.355 64.5091C253.355 62.8809 255.992 61.1753 257.001 60.0899C257.156 60.5551 257.233 61.0203 257.388 61.4854C254.518 61.0203 251.803 61.2528 249.011 62.1057C247.925 62.4158 247.459 60.7877 248.545 60.4C249.476 60.0899 250.097 60.0124 251.105 60.1674C252.114 60.3225 252.191 61.718 251.105 61.718C250.407 61.718 249.709 61.7955 249.088 62.1057C248.933 61.563 248.778 60.9427 248.623 60.4C251.726 59.5472 254.751 59.3921 257.854 59.8573C258.474 59.9348 258.63 60.8652 258.242 61.2528C257.621 61.8731 257.078 62.4933 256.458 63.1135C256.225 63.3461 256.07 63.5012 255.837 63.7338C255.604 64.4315 255.216 64.5091 254.829 64.1214C254.596 64.354 254.286 64.5091 254.053 64.7416C254.053 64.6641 254.13 64.5866 254.13 64.5091C254.518 64.8192 254.906 65.1293 255.372 65.4394C252.191 67.5327 249.709 70.0136 247.692 73.2698C247.304 73.4249 247.071 73.2698 247.227 73.1148Z" fill="#FFE600"/>
<path d="M251.106 46.9105C250.873 45.3599 250.641 43.8094 250.485 42.3363C250.796 42.5689 251.106 42.8015 251.416 43.0341C249.71 43.4992 247.926 44.0419 246.219 44.5071C245.443 44.7397 244.823 43.7318 245.443 43.1116C247.072 41.4835 248.934 39.7779 250.951 38.6149C251.649 38.2273 252.58 39.2352 251.882 39.7779C250.098 41.2509 248.236 42.5689 246.607 44.2745C246.374 43.8094 246.064 43.3442 245.831 42.879C247.538 42.4138 249.322 41.9487 251.028 41.561C251.494 41.406 251.959 41.7936 251.959 42.2588C251.959 43.7318 251.959 45.2049 251.959 46.7555C251.959 47.2982 251.184 47.4532 251.106 46.9105Z" fill="#FFE600"/>
<path d="M258.708 25.3575C258.941 25.1249 259.251 24.8148 259.484 24.5822C259.794 24.2721 260.26 24.2721 260.57 24.5822C260.88 24.8923 260.88 25.3575 260.57 25.6676C260.337 25.9002 260.027 26.2103 259.794 26.4429C259.484 26.753 259.019 26.753 258.708 26.4429C258.398 26.0552 258.398 25.5901 258.708 25.3575Z" fill="#FFE600"/>
<path d="M227.68 20.7056C227.448 20.7056 227.137 20.7056 226.905 20.6281C226.517 20.6281 226.129 20.318 226.129 19.8528C226.129 19.4652 226.439 19.1551 226.905 19.0775C227.137 19.0775 227.448 19.0775 227.68 19C228.068 19 228.456 19.3876 228.456 19.7753C228.456 20.318 228.068 20.7832 227.68 20.7056Z" fill="#FFE600"/>
<g clip-path="url(#clip0)">
<path d="M16.1 0.399994C6.89999 2.79999 -1.50001 11.5 0.199989 21.6C1.69999 30.9 17.9 32.2 25.1 30.2C27.2 29.6 26.8 26.1 24.6 26.4C17.8 27.2 4.29999 29 2.69999 19.8C1.09999 10.9 9.39999 4.29999 16.5 1.19999C17 0.999994 16.6 0.199994 16.1 0.399994Z" fill="white"/>
<path d="M25.9 27.4996C23.4 26.0996 23.7 18.7996 24.3 16.5996C25.3 12.9996 28.9 9.99958 32.6 12.0996C37.4 14.6996 39 23.3996 40.6 28.1996C41.5 30.9996 45.8 29.3996 44.4 26.5996C41.6 20.3996 37 4.19958 27 9.19958C23.5 10.8996 21.8 14.6996 21.6 18.3996C21.5 21.2996 21.9 27.9996 25.4 28.7996C26.1 28.8996 26.6 27.8996 25.9 27.4996Z" fill="white"/>
<path d="M20.2 20.1005C28.1 20.6005 35.9 20.7005 43.8 21.4005C43.4 20.0005 43 18.6005 42.7 17.2005C42.3 17.4005 41.9 17.5005 41.5 17.7005C39.2 18.7005 41 21.9005 43.1 21.5005C43.5 21.4005 44 21.4005 44.4 21.3005C46.9 20.9005 46.3 16.7005 43.8 16.9005C36 17.7005 28.1 17.7005 20.2 18.3005C19.1 18.3005 19.1 20.0005 20.2 20.1005Z" fill="white"/>
<path d="M49.9001 26.9002C48.4001 26.1002 48.7001 19.4002 48.6001 17.8002C48.4001 15.2002 48.1001 12.6002 48.0001 10.0002C47.1001 10.2002 46.2001 10.5002 45.3001 10.7002C47.8001 14.2002 50.3001 17.6002 52.6001 21.2002C53.4001 22.3002 55.6001 22.4002 55.9001 20.8002C56.4001 17.6002 57.2001 14.6002 58.4001 11.6002C57.2001 11.6002 56.0001 11.6002 54.8001 11.6002C56.4001 16.9002 57.3001 22.1002 57.9001 27.6002C58.2001 30.2002 61.9001 30.3002 62.0001 27.6002C62.1001 26.7002 62.1001 25.8002 61.9001 24.9002C61.7001 23.1002 59.3001 22.7002 58.7001 24.5002C58.3001 25.3002 58.1001 26.2002 58.0001 27.1002C59.3001 27.3002 60.7001 27.5002 62.0001 27.6002C61.6001 21.9002 60.1001 16.1002 58.4001 10.6002C57.8001 8.70017 55.5001 8.90017 54.8001 10.6002C53.6001 13.8002 52.8001 17.0002 52.3001 20.3002C53.3001 19.9002 54.3001 19.5002 55.4001 19.0002C52.7001 15.7002 50.1001 12.3002 47.5001 8.90017C46.5001 7.60017 44.9001 9.10017 45.1001 10.3002C45.9001 14.6002 46.4001 18.9002 47.0001 23.2002C47.3001 25.1002 47.3001 27.6002 49.6001 27.8002C50.2001 27.9002 50.4001 27.1002 49.9001 26.9002Z" fill="white"/>
<path d="M67.5005 8.90013C67.3005 8.40013 67.0005 8.00014 66.8005 7.50014C66.3005 6.50014 64.9005 7.20013 65.1005 8.20013C66.6005 16.1001 70.1005 23.8001 72.5005 31.5001C73.1005 33.3001 76.0005 33.1001 75.9005 31.0001C75.9005 28.9001 75.5005 27.0001 74.6005 25.1001C73.8005 23.4001 71.4005 24.7001 71.7005 26.3001C72.0005 27.9001 72.3005 29.4001 72.4005 31.0001C73.5005 30.8001 74.7005 30.7001 75.8005 30.5001C72.8005 22.9001 70.6005 14.6001 66.7005 7.40014C66.2005 7.80014 65.7005 8.10014 65.3005 8.50014C65.7005 8.80014 66.1005 9.20013 66.5005 9.50013C67.2005 10.0001 67.8005 9.50013 67.5005 8.90013Z" fill="white"/>
<path d="M66 7.00036C65.3 5.50036 64.9 4.10036 64.9 2.50036C64.7 2.80036 64.4 3.10036 64.2 3.40036C67.6 2.60036 71.4 3.50036 73.8 6.10036C77.1 9.70036 72.1 12.3004 69.1 13.3004C66.8 14.0004 67.8 17.2004 70.1 16.8004C74.3 16.2004 79.2 10.8004 77 6.40036C74.6 1.80036 68.5 0.300361 63.8 1.60036C63.3 1.70036 63 2.10036 63 2.50036C63.2 4.40036 63.7 6.20036 64.6 7.90036C65.1 8.80036 66.4 8.00036 66 7.00036Z" fill="white"/>
<path d="M80.1998 11.1001C79.2998 15.8001 79.3998 20.7001 80.0998 25.3001C81.0998 24.9001 82.0998 24.5001 82.9998 24.1001C82.7998 23.8001 82.5998 23.6001 82.3998 23.3001C81.4998 22.1001 79.1998 22.7001 79.6998 24.4001C79.7998 24.7001 79.8998 25.0001 79.9998 25.3001C80.6998 27.3001 83.5998 26.5001 83.0998 24.4001C82.0998 20.0001 81.5998 15.7001 81.2998 11.2001C81.3998 10.6001 80.2998 10.4001 80.1998 11.1001Z" fill="white"/>
<path d="M77.7 0C77.4 0 77 0 76.7 0.1C76.1 0.2 75.5 0.8 75.5 1.5C75.5 2.2 76 2.7 76.7 2.9C77.1 3 77.4 3 77.8 3C78.6 3 79.3 2.3 79.2 1.6C79.1 0.7 78.5 0 77.7 0Z" fill="white"/>
<path d="M91.6004 24.5998C91.5004 24.8998 91.5004 25.0998 91.4004 25.3998C91.1004 27.0998 93.6004 27.4998 93.8004 25.6998C94.3004 20.9998 94.2004 16.1998 94.2004 11.4998C93.2004 11.7998 92.1004 12.0998 91.1004 12.2998C94.2004 16.9998 96.9004 22.6998 102.1 25.2998C103.2 25.7998 104.2 25.4998 104.9 24.5998C107.1 21.4998 106.7 17.1998 106.8 13.5998C106.8 10.4998 107.8 5.59975 105.7 3.09975C104.9 2.09975 103.2 2.49975 102.6 3.49975C102.6 3.59975 102.5 3.59975 102.5 3.69975C102 4.59975 102.3 5.79975 103.2 6.29975L103.3 6.39975C104.8 7.29975 106.9 5.39975 105.9 3.79975L105.8 3.69975C105.6 4.59975 105.3 5.39975 105.1 6.29975C105.2 6.29975 105.2 6.19975 105.3 6.19975C104.3 5.79975 103.4 5.39975 102.4 4.99975C103 7.59975 102.5 10.9998 102.5 13.5998C102.5 16.3998 103 20.1998 101.4 22.5998C102.3 22.3998 103.3 22.0998 104.2 21.8998C99.2004 19.5998 97.4004 14.1998 93.8004 10.3998C92.8004 9.39975 90.9004 10.0998 90.9004 11.5998C91.0004 16.2998 90.9004 21.0998 91.4004 25.7998C92.0004 25.4998 92.6004 25.0998 93.2004 24.7998C93.0004 24.5998 92.8004 24.4998 92.6004 24.2998C92.2004 23.9998 91.6004 24.1998 91.6004 24.5998Z" fill="white"/>
<path d="M122.5 6.19974C122.9 5.79974 122.9 5.89974 123 5.29974C123 5.09974 122.9 4.89974 122.7 4.89974C117.4 3.19974 113.1 8.09974 112.1 12.9997C110.8 19.3997 119.1 22.4997 124 23.7997C125.2 24.0997 126.5 23.1997 126.4 21.8997C126.3 18.6997 124.9 16.3997 122.3 14.5997C122.1 15.8997 122 17.1997 121.8 18.5997C125.5 17.7997 129.6 17.9997 133 16.4997C134.5 15.7997 133.9 13.5997 132.6 13.0997C129 11.8997 124.2 13.3997 120.6 14.3997C118.8 14.8997 118.5 17.3997 120.1 18.3997C121.5 19.0997 122.3 20.1997 122.5 21.8997C123.3 21.2997 124.1 20.6997 124.9 19.9997C122 19.3997 117.5 18.3997 115.5 15.8997C114 13.9997 114.9 10.9997 116 9.19974C116.6 7.99974 117.5 7.09974 118.7 6.39974C119.7 5.69974 120.8 5.49974 122 5.79974C121.9 6.09974 122.3 6.39974 122.5 6.19974Z" fill="white"/>
</g>
<defs>
<clipPath id="clip0">
<rect width="134.1" height="32.7" fill="white"/>
</clipPath>
</defs>
</svg>
