<svg width="375" height="85" viewBox="0 0 375 85" fill="none" xmlns="http://www.w3.org/2000/svg">
<g clip-path="url(#clip0)">
<path d="M43.5766 33.5287C43.4152 33.5149 43.2704 33.3081 42.9477 33.2804C42.7863 33.2666 42.625 33.2527 42.6084 33.4456C42.2691 33.6108 41.9132 33.9689 41.8801 34.3547C41.847 34.7405 41.9752 35.1401 42.4427 35.3746C42.6041 35.3885 42.7489 35.5952 42.7489 35.5952C42.9103 35.6091 43.0716 35.6229 43.4109 35.4577C43.7502 35.2926 44.1061 34.9345 44.1392 34.5487C44.1889 33.97 44.0607 33.5703 43.5766 33.5287Z" fill="#FFE500"/>
<path d="M16.1899 32.5379C77.6914 35.6818 139.524 34.9676 201.063 35.7828C231.599 36.0732 262.279 36.5703 292.782 37.2465C307.872 37.5707 322.8 37.8811 337.874 38.3982C342.408 38.5933 356.456 35.9132 359.075 41.3847C361.002 45.4368 358.833 55.5496 359.388 60.4553C361.767 57.3561 363.968 54.436 366.348 51.3368C336.073 49.9029 305.748 49.0477 275.374 48.7712C245.484 48.5363 215.974 51.4432 186.129 52.5724C155.622 53.8391 125.257 49.6768 94.7705 48.8078C80.0199 48.3184 65.2527 48.0219 50.6138 48.125C40.3649 48.2165 12.4025 52.0336 14.626 31.8206C12.7969 34.1897 11.1459 36.3798 9.31685 38.749C21.4568 37.4596 33.4187 36.3493 45.5586 35.0599C53.7595 34.2096 51.6297 19.2582 43.4289 20.1085C31.289 21.3979 19.327 22.5082 7.18712 23.7975C4.39419 24.1407 2.30442 27.6533 1.87801 30.7259C-2.48606 70.1873 45.2544 63.2106 65.0737 63.358C98.6919 63.7187 132.24 66.7939 165.791 67.9263C198.698 69.0032 231.65 63.8658 264.64 63.9782C298.113 64.1322 331.52 65.0578 364.878 66.5621C369.09 66.7295 372.375 62.5422 371.838 57.4436C370.54 46.0614 374.492 32.2153 363.983 25.8718C357.793 22.2311 349.22 23.6324 342.248 23.4224C334.792 23.1707 327.158 23.0981 319.702 22.8465C285.956 22.0861 252.209 21.3257 218.268 20.9372C151.371 20.0505 84.1846 18.7503 17.0513 22.5071C11.8213 22.8352 10.5255 32.2458 16.1899 32.5379Z" fill="#FFE500"/>
<path d="M11.108 46.2872C23.0822 46.9269 35.8467 47.8287 46.7117 53.8141C47.8706 47.8896 49.0462 41.7723 50.3666 35.8616C42.6375 35.0036 35.0864 33.9665 27.374 32.9155C26.7942 39.6671 26.2144 46.4186 25.6346 53.1701C29.5571 52.9239 33.4631 52.8707 37.4021 52.4317C47.7338 51.3757 46.0139 33.5446 36.8823 31.9832C31.5904 31.1401 26.2984 30.297 21.023 29.261C20.4598 35.8196 19.9131 42.1853 19.3499 48.7439C27.3851 49.8226 35.47 50.3225 43.6046 50.2438C53.3528 50.3036 55.0216 32.7636 45.1617 32.1112C42.5798 31.8895 39.82 31.8468 37.2382 31.6251C36.7247 37.605 36.2111 43.5849 35.6976 49.5648C52.6908 50.4411 69.8619 51.1384 86.8551 52.0147C96.2474 52.4326 97.6721 35.8432 88.3459 34.6537C78.0682 33.1881 67.7407 32.3012 57.3967 31.6073C48.1823 31.0103 46.7245 47.9855 55.939 48.5825C73.8838 49.7349 91.8617 50.5014 109.889 50.6893C118.814 50.8727 119.912 36.1984 111.297 34.2928C106.183 33.2706 100.925 32.0417 95.8105 31.0196C95.3467 36.4208 94.8828 41.822 94.419 47.2232C112.885 46.0885 131.219 46.4969 149.454 48.0628C149.917 42.6616 150.381 37.2604 150.828 32.0521C141.469 31.2484 132.11 30.4447 122.606 29.4342C113.28 28.2447 112 45.0408 121.132 46.6023C135.394 48.993 149.755 50.2263 164.278 51.4734C174.444 52.3465 175.84 34.2 165.885 32.7621C149.831 30.4119 133.662 29.412 117.376 29.7624C106.788 30.019 105.119 47.5591 115.686 49.4382C129.771 52.0079 143.954 53.4203 158.366 54.0748C158.945 47.3233 159.525 40.5718 160.105 33.8203C147.775 33.5388 135.445 33.2572 123.115 32.9757C112.253 32.6259 110.419 52.095 121.392 53.0373C148.824 55.393 176.405 56.0127 203.991 54.6894C214.596 54.2399 216.654 35.9559 205.714 34.6278C195.742 33.3829 185.977 33.5159 175.985 34.4067C166.315 35.3253 167.357 53.4867 176.555 54.2766C197.048 56.0364 217.463 56.8179 238.089 57.0346C249.629 57.054 251.691 36.8272 239.944 35.4298C228.521 34.0601 217.047 33.2692 205.474 33.6356C204.844 40.9658 204.215 48.296 203.586 55.6262C225.134 54.5619 246.634 54.0762 268.116 53.7835C279.834 53.6238 282.074 33.218 270.005 31.7929C260.339 30.7685 250.769 30.5297 241.149 30.8695C229.398 31.415 227.042 53.1711 239.244 53.053C266.391 53.0524 293.393 52.845 320.54 52.8443C331.918 52.8498 333.98 32.623 322.379 31.4324C316.569 30.9335 310.599 30.4208 304.79 29.922C304.177 37.0593 303.58 44.0037 302.968 51.141C321.107 51.9214 339.441 52.3299 357.597 52.9174C368.296 53.2533 370.147 33.5913 359.303 33.0487C341.18 32.0754 322.912 30.8953 304.773 30.1149C293.283 29.5168 291.511 50.1571 302.951 51.3339C308.76 51.8328 314.714 52.5384 320.523 53.0372C321.136 45.8999 321.749 38.7626 322.362 31.6253C295.232 31.433 268.263 31.2546 241.132 31.0624C240.503 38.3926 239.857 45.9157 239.227 53.2459C248.847 52.9061 258.418 53.145 267.922 54.1554C268.551 46.8252 269.181 39.495 269.81 32.1648C248.278 33.0363 226.745 33.9077 205.279 34.0075C193.4 34.1534 191.367 55.9372 203.391 55.9982C214.931 56.0175 226.454 56.2298 237.895 57.4066C238.508 50.2693 239.137 42.9391 239.75 35.8017C219.219 36.3705 198.609 35.961 178.066 34.7798C178.31 41.4077 178.392 48.0217 178.636 54.6496C187.159 53.827 195.583 54.1618 203.941 55.2681C204.521 48.5166 205.084 41.958 205.664 35.2065C178.095 36.3368 150.497 35.9101 123.081 33.3615C122.502 40.113 121.922 46.8645 121.359 53.4231C133.689 53.7046 146.002 54.1791 158.332 54.4606C169.194 54.8104 171.078 34.7626 160.072 34.2061C145.822 33.5654 131.477 32.1392 117.359 29.9553C116.796 36.5139 116.233 43.0725 115.67 49.6311C131.989 48.8949 148.191 49.509 164.44 51.4873C164.97 45.3145 165.5 39.1417 166.047 32.776C151.652 31.9285 137.307 30.5023 122.767 29.448C122.27 35.235 121.79 40.8291 121.293 46.6162C130.702 46.8412 140.078 47.452 149.598 48.2696C158.312 49.0179 159.687 33.0072 150.973 32.2589C132.577 30.6791 114.388 30.4774 95.9387 31.4193C87.1256 31.8284 85.9494 45.5243 94.5473 47.6229C99.6447 48.8379 104.904 50.0668 110.018 51.0889C110.481 45.6877 110.945 40.2865 111.426 34.6924C93.4145 34.3117 75.4532 33.3522 57.5249 32.0069C57.0446 37.601 56.5476 43.388 56.0672 48.9822C66.4112 49.6761 76.7221 50.7559 86.9833 52.4144C87.4803 46.6273 87.9772 40.8403 88.4742 35.0533C71.4976 33.9841 54.343 33.094 37.3664 32.0247C27.6679 31.3862 26.1273 49.3259 35.8259 49.9645C38.4077 50.1862 41.1509 50.4217 43.7328 50.6435C44.2463 44.6636 44.7764 38.4908 45.2899 32.5108C37.1719 32.3967 29.1367 31.318 21.1512 29.6607C10.7784 27.4096 9.44459 46.7274 19.4782 49.1436C24.737 50.3725 29.9793 51.7943 35.2381 53.0231C35.8344 46.0787 36.4142 39.3272 37.0106 32.3828C33.0881 32.629 29.149 33.068 25.3713 33.5209C15.8464 34.6461 16.3705 53.1518 25.9242 53.5836C33.703 53.8629 41.3203 54.1284 49.0825 54.6007C60.2499 55.171 60.086 34.3644 48.5418 36.2879C36.1743 38.335 23.716 37.6538 11.1705 39.88C7.57075 40.1538 7.86406 46.203 11.108 46.2872Z" fill="#FFE500"/>
<path d="M130.243 42.5537L130.243 41.2158L124.51 41.2158L124.51 42.7588L128.485 42.7588L128.485 43.0127C128.485 45.376 126.766 46.9971 124.266 46.9971C121.395 46.9971 119.618 44.7998 119.618 41.2549C119.618 37.7686 121.366 35.6787 124.266 35.6787C126.248 35.6787 127.723 36.7627 128.309 38.667L130.155 38.667C129.627 35.8643 127.313 34.0576 124.266 34.0576C120.321 34.0576 117.811 36.8604 117.811 41.2646C117.811 45.7471 120.33 48.6182 124.266 48.6182C128.026 48.6182 130.243 46.3623 130.243 42.5537ZM136.444 48.5596C139.246 48.5596 141.141 46.5381 141.141 43.3057C141.141 40.0635 139.246 38.0518 136.444 38.0518C133.631 38.0518 131.737 40.0635 131.737 43.3057C131.737 46.5381 133.631 48.5596 136.444 48.5596ZM136.444 47.0654C134.647 47.0654 133.465 45.6982 133.465 43.3057C133.465 40.9131 134.647 39.5459 136.444 39.5459C138.241 39.5459 139.412 40.9131 139.412 43.3057C139.412 45.6982 138.241 47.0654 136.444 47.0654ZM147.508 35.7764L147.508 38.2275L145.995 38.2275L145.995 39.624L147.508 39.624L147.508 45.7471C147.508 47.7002 148.231 48.4619 150.096 48.4619C150.496 48.4619 150.965 48.4326 151.17 48.3838L151.17 46.958C151.053 46.9775 150.662 47.0068 150.467 47.0068C149.598 47.0068 149.207 46.5869 149.207 45.6592L149.207 39.624L151.18 39.624L151.18 38.2275L149.207 38.2275L149.207 35.7764L147.508 35.7764ZM156.912 48.5596C159.715 48.5596 161.61 46.5381 161.61 43.3057C161.61 40.0635 159.715 38.0518 156.912 38.0518C154.1 38.0518 152.205 40.0635 152.205 43.3057C152.205 46.5381 154.1 48.5596 156.912 48.5596ZM156.912 47.0654C155.116 47.0654 153.934 45.6982 153.934 43.3057C153.934 40.9131 155.116 39.5459 156.912 39.5459C158.709 39.5459 159.881 40.9131 159.881 43.3057C159.881 45.6982 158.709 47.0654 156.912 47.0654ZM175.868 41.5576C175.653 39.7314 174.139 38.0518 171.6 38.0518C168.797 38.0518 166.932 40.1025 166.932 43.3057C166.932 46.5771 168.807 48.5596 171.62 48.5596C173.924 48.5596 175.623 47.1338 175.887 45.1123L174.217 45.1123C173.924 46.333 173.016 47.0654 171.629 47.0654C169.871 47.0654 168.661 45.6689 168.661 43.3057C168.661 41.001 169.852 39.5459 171.61 39.5459C173.104 39.5459 173.963 40.4541 174.207 41.5576L175.868 41.5576ZM185.789 38.2275L184.09 38.2275L184.09 44.1943C184.09 45.9229 183.094 47.0557 181.444 47.0557C179.871 47.0557 179.1 46.167 179.1 44.5166L179.1 38.2275L177.401 38.2275L177.401 44.8193C177.401 47.124 178.7 48.5596 180.916 48.5596C182.479 48.5596 183.534 47.9053 184.139 46.7334L184.178 46.7334L184.178 48.3838L185.789 48.3838L185.789 38.2275ZM187.996 48.3838L189.696 48.3838L189.696 42.0557C189.696 40.6201 190.555 39.6729 191.873 39.6729C192.284 39.6729 192.645 39.7217 192.782 39.7705L192.782 38.1201C192.645 38.1006 192.391 38.0518 192.098 38.0518C190.907 38.0518 189.969 38.7646 189.637 39.8877L189.598 39.8877L189.598 38.2275L187.996 38.2275L187.996 48.3838ZM194.168 48.3838L195.868 48.3838L195.868 42.0557C195.868 40.6201 196.727 39.6729 198.045 39.6729C198.455 39.6729 198.817 39.7217 198.954 39.7705L198.954 38.1201C198.817 38.1006 198.563 38.0518 198.27 38.0518C197.079 38.0518 196.141 38.7646 195.809 39.8877L195.77 39.8877L195.77 38.2275L194.168 38.2275L194.168 48.3838ZM206.59 45.4736C206.307 46.4307 205.36 47.085 204.071 47.085C202.245 47.085 201.102 45.8057 201.102 43.8623L201.102 43.7646L208.387 43.7646L208.387 43.1201C208.387 40.0439 206.698 38.0518 203.954 38.0518C201.151 38.0518 199.354 40.1904 199.354 43.3447C199.354 46.5381 201.121 48.5596 204.032 48.5596C206.248 48.5596 207.967 47.251 208.26 45.4736L206.59 45.4736ZM203.924 39.5264C205.526 39.5264 206.59 40.7373 206.629 42.4365L201.112 42.4365C201.219 40.7471 202.332 39.5264 203.924 39.5264ZM210.106 48.3838L211.805 48.3838L211.805 42.4072C211.805 40.6885 212.85 39.5557 214.452 39.5557C216.014 39.5557 216.786 40.4541 216.786 42.0947L216.786 48.3838L218.485 48.3838L218.485 41.792C218.485 39.4873 217.196 38.0518 214.969 38.0518C213.397 38.0518 212.313 38.7549 211.746 39.8486L211.707 39.8486L211.707 38.2275L210.106 38.2275L210.106 48.3838ZM221.2 35.7764L221.2 38.2275L219.686 38.2275L219.686 39.624L221.2 39.624L221.2 45.7471C221.2 47.7002 221.922 48.4619 223.787 48.4619C224.188 48.4619 224.657 48.4326 224.862 48.3838L224.862 46.958C224.745 46.9775 224.354 47.0068 224.159 47.0068C223.289 47.0068 222.899 46.5869 222.899 45.6592L222.899 39.624L224.871 39.624L224.871 38.2275L222.899 38.2275L222.899 35.7764L221.2 35.7764ZM231.336 35.7764L231.336 38.2275L229.823 38.2275L229.823 39.624L231.336 39.624L231.336 45.7471C231.336 47.7002 232.059 48.4619 233.924 48.4619C234.325 48.4619 234.793 48.4326 234.998 48.3838L234.998 46.958C234.881 46.9775 234.491 47.0068 234.295 47.0068C233.426 47.0068 233.036 46.5869 233.036 45.6592L233.036 39.624L235.008 39.624L235.008 38.2275L233.036 38.2275L233.036 35.7764L231.336 35.7764ZM236.825 48.3838L238.524 48.3838L238.524 42.0557C238.524 40.6201 239.383 39.6729 240.702 39.6729C241.112 39.6729 241.473 39.7217 241.61 39.7705L241.61 38.1201C241.473 38.1006 241.219 38.0518 240.926 38.0518C239.735 38.0518 238.797 38.7646 238.465 39.8877L238.426 39.8877L238.426 38.2275L236.825 38.2275L236.825 48.3838ZM243.934 36.4209C244.53 36.4209 244.998 35.9424 244.998 35.3564C244.998 34.7607 244.53 34.292 243.934 34.292C243.348 34.292 242.87 34.7607 242.87 35.3564C242.87 35.9424 243.348 36.4209 243.934 36.4209ZM243.084 48.3838L244.784 48.3838L244.784 38.2275L243.084 38.2275L243.084 48.3838ZM252.01 38.0518C250.536 38.0518 249.354 38.8037 248.729 39.9463L248.69 39.9463L248.69 38.2275L247.079 38.2275L247.079 51.7725L248.778 51.7725L248.778 46.7334L248.817 46.7334C249.422 47.8467 250.594 48.5596 252.049 48.5596C254.608 48.5596 256.356 46.4893 256.356 43.3057C256.356 40.1221 254.598 38.0518 252.01 38.0518ZM251.678 47.0654C249.94 47.0654 248.768 45.5713 248.768 43.3057C248.768 41.0498 249.94 39.5459 251.678 39.5459C253.485 39.5459 254.618 41.0107 254.618 43.3057C254.618 45.6104 253.485 47.0654 251.678 47.0654Z" fill="black"/>
</g>
<defs>
<clipPath id="clip0">
<rect width="371.213" height="67.1827" fill="white" transform="translate(3.19336 0.916992) rotate(2.52367)"/>
</clipPath>
</defs>
</svg>
