<svg width="29" height="29" viewBox="0 0 29 29" fill="none" xmlns="http://www.w3.org/2000/svg">
<path d="M15.5568 14.1421L18.3852 11.3137L16.971 9.89949L14.1426 12.7279L11.3142 9.89949L9.89994 11.3137L12.7284 14.1421L9.89994 16.9706L11.3142 18.3848L14.1426 15.5563L16.971 18.3848L18.3852 16.9706L15.5568 14.1421ZM7.07151 21.2132C5.19615 19.3378 4.14258 16.7943 4.14258 14.1421C4.14258 11.49 5.19615 8.94643 7.07151 7.07107C8.94687 5.1957 11.4904 4.14214 14.1426 4.14214C16.7947 4.14214 19.3383 5.1957 21.2136 7.07107C23.089 8.94643 24.1426 11.49 24.1426 14.1421C24.1426 16.7943 23.089 19.3378 21.2136 21.2132C19.3383 23.0886 16.7947 24.1421 14.1426 24.1421C11.4904 24.1421 8.94687 23.0886 7.07151 21.2132Z" fill="#FF0000"/>
</svg>
