<svg width="324" height="330" viewBox="0 0 324 330" fill="none" xmlns="http://www.w3.org/2000/svg">
<path d="M156.253 152.642C161.607 146.613 164.361 150.016 174.125 146.57C174.125 146.57 188.483 147.719 196.086 132.212C200.156 123.908 206.862 122.448 206.862 122.448L196.086 144.051C192.205 153.676 203.057 191.1 198.246 200.271C188.262 219.359 188.319 242.004 173.53 257.716L98.8855 252.824C104.628 248.596 98.6459 248.025 103.078 242.468C103.966 241.376 101.183 239.786 97.7368 237.317C96.0138 236.082 83.6654 237.317 87.3986 229.85C90.2703 224.107 95.4257 217.474 96.5881 209.174C97.3096 202.962 122.526 203.233 122.83 196.933C122.996 190.681 123.254 184.474 126.202 178.656C126.474 178.097 126.374 177.357 126.228 176.711C124.271 166.777 129.928 163.199 138.33 160.841C139.16 160.555 140.086 160.545 140.919 160.49C147.073 160.147 152.136 157.316 156.253 152.642Z" fill="#91B7AC"/>
<path d="M277.295 121.041C267.847 127.497 233.492 134.762 228.374 144.847C225.038 151.937 219.592 159.139 221.204 168.655C221.899 173.77 222.969 178.904 223.664 184.02C224.057 186.954 224.059 189.645 223.751 192.164L225.569 198.34C226.837 201.181 228.254 204.323 228.418 208.025C228.562 211.281 219.519 227.394 217.774 235.593C214.881 249.182 232.133 257.992 236.728 257.418C230.984 267.182 221.564 264.661 217.774 264.884C213.843 265.115 211.547 252.249 208.011 252.249C203.506 252.249 208.184 260.111 205.139 260.29C154.596 272.351 125.306 256.27 86.8242 254.547C99.5001 254.547 116.116 242.747 124.157 242.486C135.49 242.118 146.547 237.316 155.746 238.465C160.34 239.04 166.084 239.614 172.976 239.04C174.81 238.887 179.868 235.594 182.165 233.296C182.165 233.296 188.483 230.424 187.876 223.96C187.876 221.809 186.581 218.633 186.047 216.066C185.436 213.132 192.732 210.59 193.319 208.079C194.129 204.853 191.418 200.726 189.906 197.021C187.638 191.463 185.221 186.08 183.327 180.541C181.735 175.562 180.665 170.428 181.623 167.029C183.173 162.026 183.673 156.427 186.047 151.828C188.868 146.708 190.864 141.184 194.284 136.275C197.407 131.714 197.099 102.345 199.396 94.3046C202.977 91.9443 217.18 123.022 223.115 114.407C231.82 101.771 244.743 109.775 252.897 109.822C253.271 109.841 259.048 103.76 261.693 107.16C266.604 113.475 262.539 115.905 279.166 119.471C279.614 119.567 278.289 120.361 277.295 121.041Z" fill="#91B7AC"/>
<path d="M33.0979 94.9402C41.7134 97.8692 56.6459 93.6887 71.5795 93.6887C83.4278 93.6887 78.9393 95.9214 87.399 96.6025C88.5923 96.6986 92.9204 96.1947 96.5885 97.7512C99.6917 99.068 102.882 97.5237 105.778 96.6025C116.872 93.0731 117.265 99.4742 144.259 81.0952C156.32 76.5005 169.754 85.024 180.774 85.6589C183.349 85.7608 187.535 85.2652 187.626 87.9804C187.963 91.1683 183.565 90.3328 181.095 90.8964C177.155 91.8647 172.636 92.4132 169.626 94.9395C156.833 105.676 139.566 110.812 125.019 119.099C111.002 127.262 110.842 127.146 100.87 123.554C100.531 123.432 100.702 121.056 99.1474 120.108C97.6099 119.171 94.3474 119.661 93.9783 119.534C92.1272 118.894 91.7724 119.767 89.3836 119.099C88.2613 118.785 86.0571 117.623 81.3428 117.236C77.8491 116.95 72.7179 117.424 66.9841 117.236C53.4429 116.794 43.7359 112.045 38.8412 108.047C36.6973 106.296 33.3762 105.362 31.1121 104.069C29.1682 102.959 28.2702 101.433 26.5173 100.623C23.5082 99.232 20.6098 99.0369 17.9024 98.3257C15.4243 97.6747 11.9575 95.2101 9.86134 94.941C2.56754 94.0043 -0.317271 96.1166 0.360485 94.9403C2.08342 90.2423 17.5909 89.6684 33.0979 94.9402Z" fill="#91B7AC"/>
</svg>
