<svg width="370" height="84" viewBox="0 0 370 84" fill="none" xmlns="http://www.w3.org/2000/svg">
<g clip-path="url(#clip0)">
<path d="M43.3489 32.8977C43.1895 32.884 43.0465 32.6798 42.7278 32.6524C42.5684 32.6387 42.409 32.6251 42.3926 32.8156C42.0575 32.9787 41.706 33.3324 41.6733 33.7135C41.6406 34.0945 41.7673 34.4893 42.229 34.7208C42.3884 34.7345 42.5314 34.9387 42.5314 34.9387C42.6908 34.9524 42.8502 34.9661 43.1853 34.803C43.5204 34.6398 43.8719 34.2861 43.9046 33.9051C43.9537 33.3335 43.8271 32.9388 43.3489 32.8977Z" fill="#679289"/>
<path d="M16.3001 31.9191C77.0443 35.0243 138.116 34.3189 198.897 35.1241C229.057 35.4109 259.359 35.9019 289.486 36.5697C304.39 36.89 319.135 37.1965 334.023 37.7073C338.502 37.9 352.376 35.2528 354.963 40.6571C356.867 44.6592 354.725 54.6475 355.272 59.4928C357.622 56.4318 359.796 53.5476 362.146 50.4866C332.244 49.0704 302.293 48.2257 272.293 47.9526C242.771 47.7205 213.624 50.5916 184.147 51.707C154.016 52.958 124.024 48.8471 93.9131 47.9887C79.3441 47.5053 64.7588 47.2125 50.3001 47.3143C40.1774 47.4047 12.5593 51.1748 14.7554 31.2107C12.9489 33.5507 11.3181 35.7138 9.51163 38.0537C21.502 36.7803 33.3167 35.6836 45.3072 34.4101C53.407 33.5703 51.3035 18.8029 43.2036 19.6428C31.2132 20.9163 19.3985 22.0129 7.40811 23.2864C4.64957 23.6253 2.58553 27.0947 2.16437 30.1295C-2.14596 69.105 45.0067 62.2142 64.5819 62.3597C97.7862 62.7161 130.921 65.7534 164.06 66.8718C196.561 67.9355 229.108 62.8613 261.691 62.9723C294.752 63.1244 327.748 64.0386 360.695 65.5244C364.855 65.6897 368.1 61.554 367.569 56.5182C366.287 45.2762 370.19 31.6005 359.811 25.3351C353.697 21.7393 345.23 23.1233 338.344 22.9158C330.979 22.6673 323.44 22.5956 316.075 22.3471C282.744 21.596 249.413 20.845 215.89 20.4613C149.817 19.5855 83.4576 18.3013 17.1509 22.0118C11.9853 22.336 10.7054 31.6306 16.3001 31.9191Z" fill="#679289"/>
<path d="M11.2798 45.4991C23.1066 46.1309 35.714 47.0216 46.4451 52.9333C47.5899 47.0818 48.7509 41.0397 50.055 35.2019C42.4212 34.3544 34.9631 33.3301 27.3456 32.2921C26.7729 38.9604 26.2003 45.6288 25.6276 52.2972C29.5018 52.0541 33.3597 52.0015 37.2502 51.5679C47.4547 50.5249 45.756 32.9134 36.7368 31.3712C31.51 30.5385 26.2832 29.7057 21.0728 28.6825C20.5165 35.1604 19.9766 41.4477 19.4203 47.9255C27.3566 48.9909 35.3419 49.4847 43.3763 49.407C53.0045 49.4661 54.6528 32.142 44.9143 31.4976C42.3642 31.2786 39.6384 31.2365 37.0883 31.0175C36.5811 36.9238 36.0739 42.83 35.5667 48.7363C52.3507 49.6018 69.3103 50.2905 86.0943 51.156C95.371 51.5688 96.7781 35.1837 87.5668 34.0088C77.4156 32.5613 67.2153 31.6853 56.9986 30.9999C47.8976 30.4103 46.4578 47.1765 55.5588 47.7661C73.2827 48.9043 91.0393 49.6614 108.845 49.8469C117.66 50.0281 118.744 35.5345 110.236 33.6523C105.185 32.6428 99.9905 31.429 94.9394 30.4195C94.4813 35.7542 94.0232 41.0889 93.5651 46.4236C111.804 45.3028 129.912 45.7062 147.922 47.2528C148.38 41.9181 148.838 36.5834 149.28 31.4393C140.036 30.6454 130.792 29.8516 121.405 28.8536C112.194 27.6787 110.93 44.268 119.949 45.8103C134.035 48.1716 148.22 49.3897 162.564 50.6215C172.605 51.4837 173.984 33.5607 164.151 32.1405C148.295 29.8192 132.325 28.8316 116.239 29.1777C105.781 29.4312 104.133 46.7553 114.57 48.6112C128.481 51.1493 142.49 52.5443 156.724 53.1908C157.297 46.5225 157.87 39.8541 158.442 33.1857C146.264 32.9076 134.086 32.6295 121.907 32.3514C111.18 32.006 109.368 51.2354 120.206 52.1661C147.3 54.4928 174.542 55.1048 201.788 53.7979C212.262 53.3538 214.295 35.295 203.49 33.9832C193.641 32.7536 183.996 32.8851 174.127 33.7649C164.576 34.6721 165.605 52.6099 174.689 53.3901C194.93 55.1283 215.094 55.9002 235.466 56.1142C246.864 56.1333 248.901 36.1555 237.299 34.7754C226.015 33.4226 214.683 32.6413 203.253 33.0032C202.631 40.2432 202.009 47.4832 201.387 54.7231C222.671 53.6719 243.905 53.1922 265.124 52.9031C276.697 52.7454 278.909 32.5908 266.989 31.1832C257.442 30.1715 247.99 29.9355 238.488 30.2712C226.882 30.8099 224.555 52.2982 236.607 52.1816C263.419 52.1809 290.089 51.9761 316.902 51.9755C328.14 51.9809 330.177 32.0031 318.718 30.8272C312.98 30.3345 307.083 29.8281 301.346 29.3353C300.74 36.3848 300.151 43.2437 299.546 50.2931C317.462 51.0639 335.57 51.4673 353.502 52.0476C364.07 52.3794 365.899 32.9595 355.187 32.4235C337.288 31.4622 319.245 30.2967 301.329 29.5259C289.981 28.9352 288.23 49.3213 299.529 50.4836C305.267 50.9763 311.148 51.6733 316.885 52.166C317.491 45.1166 318.096 38.0671 318.702 31.0177C291.905 30.8278 265.268 30.6516 238.472 30.4617C237.85 37.7017 237.212 45.1321 236.59 52.3721C246.092 52.0365 255.544 52.2724 264.931 53.2704C265.553 46.0305 266.175 38.7905 266.797 31.5506C245.529 32.4113 224.262 33.272 203.061 33.3706C191.328 33.5146 189.319 55.0303 201.195 55.0905C212.593 55.1096 223.975 55.3192 235.274 56.4815C235.88 49.4321 236.501 42.1921 237.107 35.1427C216.828 35.7045 196.473 35.3 176.182 34.1333C176.423 40.6796 176.504 47.2122 176.745 53.7585C185.163 52.946 193.484 53.2767 201.739 54.3694C202.312 47.7011 202.868 41.2232 203.441 34.5548C176.211 35.6712 148.953 35.2498 121.875 32.7325C121.302 39.4009 120.729 46.0692 120.173 52.5471C132.351 52.8252 144.513 53.2938 156.692 53.5719C167.419 53.9173 169.28 34.1164 158.409 33.5668C144.335 32.9339 130.167 31.5253 116.223 29.3682C115.667 35.8461 115.11 42.3239 114.554 48.8018C130.672 48.0747 146.675 48.6812 162.724 50.6351C163.247 44.5383 163.771 38.4415 164.311 32.1542C150.093 31.3172 135.925 29.9085 121.564 28.8672C121.073 34.583 120.599 40.1082 120.108 45.824C129.401 46.0462 138.662 46.6495 148.065 47.457C156.672 48.1961 158.029 32.3825 149.423 31.6435C131.254 30.0832 113.289 29.884 95.0661 30.8142C86.3614 31.2183 85.1998 44.7455 93.6918 46.8183C98.7265 48.0184 103.921 49.2321 108.972 50.2417C109.43 44.907 109.888 39.5723 110.362 34.047C92.573 33.671 74.8328 32.7233 57.1253 31.3946C56.6508 36.9199 56.16 42.6356 55.6855 48.1608C65.9022 48.8463 76.0861 49.9127 86.2209 51.5508C86.7118 45.835 87.2026 40.1193 87.6934 34.4035C70.9259 33.3475 53.9826 32.4683 37.215 31.4122C27.6358 30.7815 26.1142 48.5004 35.6934 49.1311C38.2435 49.35 40.9529 49.5827 43.503 49.8017C44.0102 43.8954 44.5337 37.7986 45.0409 31.8923C37.0229 31.7796 29.0866 30.7142 21.1994 29.0772C10.9543 26.8539 9.63694 45.9338 19.547 48.3203C24.741 49.534 29.9188 50.9383 35.1128 52.1521C35.7018 45.2932 36.2745 38.6248 36.8635 31.7659C32.9893 32.009 29.0987 32.4426 25.3676 32.8899C15.9599 34.0013 16.4776 52.2792 25.9137 52.7056C33.5966 52.9815 41.1202 53.2437 48.7868 53.7102C59.8167 54.2735 59.6548 33.7231 48.2528 35.6229C36.0375 37.6448 23.7326 36.972 11.3416 39.1707C7.78616 39.4412 8.07586 45.4159 11.2798 45.4991Z" fill="#679289"/>
</g>
<path d="M109.071 55.7961C105.641 55.7961 102.351 54.4335 99.9259 52.0079C97.5003 49.5824 96.1377 46.2926 96.1377 42.8624C96.1377 39.4322 97.5003 36.1424 99.9259 33.7169C102.351 31.2914 105.641 29.9287 109.071 29.9287C112.502 29.9287 115.791 31.2914 118.217 33.7169C120.642 36.1424 122.005 39.4322 122.005 42.8624C122.005 46.2926 120.642 49.5824 118.217 52.0079C115.791 54.4335 112.502 55.7961 109.071 55.7961ZM111.658 38.9823C111.658 39.3444 111.387 40.017 111.115 40.2757L109.071 42.3192C108.334 43.0694 107.778 44.3886 107.778 45.4492V46.7425H110.365V45.4492C110.365 45.0741 110.636 44.4145 110.908 44.1558L112.952 42.1123C113.689 41.3621 114.245 40.0429 114.245 38.9823C114.245 37.6102 113.7 36.2943 112.73 35.3241C111.759 34.3539 110.443 33.8088 109.071 33.8088C107.699 33.8088 106.383 34.3539 105.413 35.3241C104.443 36.2943 103.898 37.6102 103.898 38.9823H106.485C106.485 38.2963 106.757 37.6383 107.242 37.1532C107.727 36.6681 108.385 36.3956 109.071 36.3956C109.757 36.3956 110.415 36.6681 110.901 37.1532C111.386 37.6383 111.658 38.2963 111.658 38.9823ZM107.778 49.3293V51.916H110.365V49.3293H107.778Z" fill="white"/>
<path d="M152.937 46.6797H151.179V34.1699H146.735V32.5879H157.38V34.1699H152.937V46.6797ZM158.571 46.6797V36.5234H160.27V46.6797H158.571ZM159.421 34.8145C159.134 34.8145 158.887 34.7103 158.679 34.502C158.47 34.2936 158.366 34.0462 158.366 33.7598C158.366 33.4668 158.47 33.2194 158.679 33.0176C158.887 32.8092 159.134 32.7051 159.421 32.7051C159.714 32.7051 159.965 32.8092 160.173 33.0176C160.381 33.2194 160.485 33.4668 160.485 33.7598C160.485 34.0462 160.381 34.2936 160.173 34.502C159.965 34.7103 159.714 34.8145 159.421 34.8145ZM167.497 36.3477C168.799 36.3477 169.847 36.8262 170.642 37.7832C171.442 38.7402 171.843 40.013 171.843 41.6016C171.843 43.1836 171.446 44.4564 170.651 45.4199C169.857 46.377 168.819 46.8555 167.536 46.8555C166.82 46.8555 166.179 46.6927 165.612 46.3672C165.046 46.0417 164.61 45.5957 164.304 45.0293H164.265V50.0684H162.565V36.5234H164.177V38.2422H164.216C164.535 37.6562 164.981 37.194 165.554 36.8555C166.127 36.5169 166.774 36.3477 167.497 36.3477ZM167.165 45.3613C168.07 45.3613 168.786 45.0228 169.313 44.3457C169.841 43.6686 170.104 42.7539 170.104 41.6016C170.104 40.4492 169.841 39.5345 169.313 38.8574C168.786 38.1803 168.07 37.8418 167.165 37.8418C166.293 37.8418 165.59 38.1868 165.056 38.877C164.522 39.5671 164.255 40.4753 164.255 41.6016C164.255 42.7344 164.522 43.6458 165.056 44.3359C165.59 45.0195 166.293 45.3613 167.165 45.3613ZM173.386 39.3262C173.386 38.4538 173.737 37.7409 174.44 37.1875C175.15 36.6276 176.062 36.3477 177.175 36.3477C178.223 36.3477 179.095 36.6276 179.792 37.1875C180.489 37.7474 180.856 38.457 180.895 39.3164H179.274C179.216 38.8216 178.994 38.4342 178.61 38.1543C178.233 37.8743 177.735 37.7344 177.116 37.7344C176.498 37.7344 176 37.8743 175.622 38.1543C175.244 38.4277 175.056 38.7891 175.056 39.2383C175.056 39.9284 175.619 40.4167 176.745 40.7031L178.317 41.084C179.34 41.3444 180.059 41.6829 180.476 42.0996C180.899 42.5098 181.11 43.0892 181.11 43.8379C181.11 44.7233 180.733 45.4492 179.978 46.0156C179.222 46.5755 178.252 46.8555 177.067 46.8555C175.961 46.8555 175.046 46.582 174.323 46.0352C173.607 45.4818 173.203 44.7526 173.112 43.8477H174.812C175 44.9284 175.788 45.4688 177.175 45.4688C177.858 45.4688 178.399 45.3353 178.796 45.0684C179.2 44.7949 179.401 44.4271 179.401 43.9648C179.401 43.6003 179.281 43.3105 179.04 43.0957C178.806 42.8809 178.405 42.6986 177.839 42.5488L176.052 42.0898C174.274 41.6341 173.386 40.7129 173.386 39.3262ZM188.464 32.5879H189.88L188.933 37.5586H187.126L188.464 32.5879ZM192.233 46.6797V36.5234H193.835V38.1445H193.874C194.167 37.5781 194.587 37.1387 195.134 36.8262C195.681 36.5072 196.335 36.3477 197.097 36.3477C198.203 36.3477 199.066 36.6829 199.685 37.3535C200.303 38.0176 200.612 38.929 200.612 40.0879V46.6797H198.913V40.3906C198.913 39.5638 198.718 38.9355 198.327 38.5059C197.937 38.0697 197.354 37.8516 196.579 37.8516C195.778 37.8516 195.137 38.112 194.655 38.6328C194.173 39.1536 193.933 39.8438 193.933 40.7031V46.6797H192.233ZM207.429 34.0723H209.128V36.5234H211.101V37.9199H209.128V43.9551C209.128 44.4173 209.229 44.7591 209.431 44.9805C209.632 45.1953 209.951 45.3027 210.388 45.3027C210.661 45.3027 210.895 45.2865 211.091 45.2539V46.6797C210.869 46.7318 210.511 46.7578 210.017 46.7578C209.086 46.7578 208.422 46.5495 208.024 46.1328C207.627 45.7161 207.429 45.0195 207.429 44.043V37.9199H205.915V36.5234H207.429V34.0723ZM212.917 46.6797V36.5234H214.519V38.1836H214.558C214.727 37.6172 215.03 37.1712 215.466 36.8457C215.909 36.5137 216.426 36.3477 217.019 36.3477C217.155 36.3477 217.383 36.3704 217.702 36.416V38.0664C217.52 38.0013 217.217 37.9688 216.794 37.9688C216.136 37.9688 215.609 38.1868 215.212 38.623C214.815 39.0592 214.616 39.6354 214.616 40.3516V46.6797H212.917ZM219.177 46.6797V36.5234H220.876V46.6797H219.177ZM220.026 34.8145C219.74 34.8145 219.492 34.7103 219.284 34.502C219.076 34.2936 218.972 34.0462 218.972 33.7598C218.972 33.4668 219.076 33.2194 219.284 33.0176C219.492 32.8092 219.74 32.7051 220.026 32.7051C220.319 32.7051 220.57 32.8092 220.778 33.0176C220.987 33.2194 221.091 33.4668 221.091 33.7598C221.091 34.0462 220.987 34.2936 220.778 34.502C220.57 34.7103 220.319 34.8145 220.026 34.8145ZM231.608 39.8535H229.948C229.818 39.2676 229.528 38.7858 229.079 38.4082C228.636 38.0306 228.06 37.8418 227.351 37.8418C226.465 37.8418 225.752 38.1836 225.212 38.8672C224.672 39.5443 224.401 40.4557 224.401 41.6016C224.401 42.7669 224.672 43.6849 225.212 44.3555C225.759 45.026 226.478 45.3613 227.37 45.3613C228.054 45.3613 228.617 45.1921 229.06 44.8535C229.509 44.5085 229.808 44.0267 229.958 43.4082H231.628C231.498 44.4238 231.039 45.2539 230.251 45.8984C229.47 46.5365 228.506 46.8555 227.36 46.8555C225.941 46.8555 224.805 46.3867 223.952 45.4492C223.099 44.5052 222.673 43.2227 222.673 41.6016C222.673 40.0065 223.099 38.7337 223.952 37.7832C224.805 36.8262 225.935 36.3477 227.341 36.3477C228.552 36.3477 229.535 36.6895 230.29 37.373C231.052 38.0566 231.491 38.8835 231.608 39.8535ZM234.978 41.0352L239.47 36.5234H241.53L237.126 40.9082L241.667 46.6797H239.694L235.925 41.9531L234.978 42.8516V46.6797H233.278V32.5879H234.978V41.0352ZM242.331 39.3262C242.331 38.4538 242.683 37.7409 243.386 37.1875C244.095 36.6276 245.007 36.3477 246.12 36.3477C247.168 36.3477 248.041 36.6276 248.737 37.1875C249.434 37.7474 249.802 38.457 249.841 39.3164H248.22C248.161 38.8216 247.94 38.4342 247.556 38.1543C247.178 37.8743 246.68 37.7344 246.062 37.7344C245.443 37.7344 244.945 37.8743 244.567 38.1543C244.19 38.4277 244.001 38.7891 244.001 39.2383C244.001 39.9284 244.564 40.4167 245.69 40.7031L247.263 41.084C248.285 41.3444 249.004 41.6829 249.421 42.0996C249.844 42.5098 250.056 43.0892 250.056 43.8379C250.056 44.7233 249.678 45.4492 248.923 46.0156C248.168 46.5755 247.198 46.8555 246.013 46.8555C244.906 46.8555 243.991 46.582 243.269 46.0352C242.552 45.4818 242.149 44.7526 242.058 43.8477H243.757C243.946 44.9284 244.733 45.4688 246.12 45.4688C246.804 45.4688 247.344 45.3353 247.741 45.0684C248.145 44.7949 248.347 44.4271 248.347 43.9648C248.347 43.6003 248.226 43.3105 247.985 43.0957C247.751 42.8809 247.351 42.6986 246.784 42.5488L244.997 42.0898C243.22 41.6341 242.331 40.7129 242.331 39.3262Z" fill="white"/>
<defs>
<clipPath id="clip0">
<rect width="366.642" height="66.3555" fill="white" transform="translate(3.46289 0.6875) rotate(2.52367)"/>
</clipPath>
</defs>
</svg>
