<svg width="329" height="74" viewBox="0 0 329 74" fill="none" xmlns="http://www.w3.org/2000/svg">
<g clip-path="url(#clip0)">
<path d="M38.0618 28.6397C37.92 28.6276 37.7929 28.446 37.5095 28.4216C37.3677 28.4095 37.226 28.3973 37.2115 28.5667C36.9135 28.7118 36.601 29.0263 36.5719 29.3651C36.5428 29.7039 36.6554 30.0549 37.066 30.2608C37.2077 30.2729 37.3349 30.4545 37.3349 30.4545C37.4766 30.4667 37.6183 30.4789 37.9163 30.3338C38.2143 30.1887 38.5268 29.8742 38.5559 29.5354C38.5995 29.0272 38.4869 28.6762 38.0618 28.6397Z" fill="#679289"/>
<path d="M14.0112 27.7697C68.022 30.5307 122.324 29.9035 176.367 30.6194C203.184 30.8744 230.127 31.311 256.915 31.9048C270.167 32.1895 283.277 32.4621 296.514 32.9162C300.497 33.0876 312.833 30.7339 315.133 35.539C316.826 39.0975 314.921 47.9786 315.408 52.2868C317.498 49.5651 319.431 47.0006 321.52 44.279C294.933 43.0197 268.302 42.2687 241.627 42.0258C215.377 41.8195 189.462 44.3723 163.252 45.364C136.461 46.4764 109.794 42.8212 83.0209 42.058C70.0669 41.6282 57.0983 41.3678 44.2424 41.4583C35.2417 41.5387 10.6851 44.8908 12.6378 27.1398C11.0315 29.2204 9.58154 31.1437 7.9753 33.2243C18.6366 32.092 29.1416 31.1169 39.8029 29.9846C47.0049 29.2378 45.1345 16.1074 37.9325 16.8542C27.2713 17.9865 16.7662 18.9616 6.10496 20.0939C3.6522 20.3953 1.81696 23.4801 1.44249 26.1784C-2.39004 60.8335 39.5357 54.7065 56.941 54.836C86.4646 55.1528 115.926 57.8534 145.392 58.8479C174.29 59.7936 203.229 55.2819 232.2 55.3806C261.597 55.5159 290.935 56.3287 320.23 57.6498C323.929 57.7968 326.814 54.1195 326.342 49.642C325.202 39.6461 328.673 27.4864 319.444 21.9155C314.008 18.7183 306.479 19.9489 300.356 19.7644C293.808 19.5434 287.104 19.4797 280.556 19.2587C250.92 18.5909 221.284 17.9231 191.477 17.582C132.728 16.8033 73.7243 15.6614 14.7677 18.9606C10.1747 19.2488 9.03676 27.5132 14.0112 27.7697Z" fill="#679289"/>
<path d="M9.54809 39.8441C20.0639 40.4058 31.2737 41.1978 40.8153 46.4542C41.8332 41.2513 42.8655 35.879 44.0251 30.6883C37.2374 29.9348 30.606 29.024 23.8329 28.101C23.3238 34.0302 22.8146 39.9594 22.3055 45.8886C25.7502 45.6724 29.1804 45.6257 32.6397 45.2401C41.713 44.3128 40.2026 28.6535 32.1832 27.2822C27.5358 26.5418 22.8884 25.8014 18.2555 24.8916C17.7609 30.6514 17.2808 36.2418 16.7862 42.0015C23.8427 42.9488 30.9429 43.3879 38.0867 43.3187C46.6476 43.3713 48.1132 27.9676 39.4542 27.3946C37.1868 27.1999 34.7631 27.1625 32.4957 26.9677C32.0447 32.2193 31.5938 37.4709 31.1428 42.7224C46.0662 43.492 61.1459 44.1044 76.0693 44.8739C84.3178 45.241 85.5689 30.6721 77.3786 29.6275C68.3527 28.3404 59.2831 27.5615 50.199 26.9521C42.1068 26.4279 40.8266 41.3355 48.9188 41.8598C64.6779 42.8718 80.4662 43.545 96.2981 43.7099C104.136 43.871 105.1 30.9841 97.5346 29.3105C93.0435 28.4129 88.4252 27.3336 83.934 26.436C83.5267 31.1793 83.1194 35.9227 82.712 40.666C98.9292 39.6695 115.03 40.0282 131.043 41.4034C131.451 36.66 131.858 31.9167 132.251 27.3428C124.032 26.6369 115.812 25.9311 107.466 25.0437C99.2756 23.999 98.1516 38.7495 106.171 40.1208C118.696 42.2203 131.309 43.3034 144.063 44.3986C152.991 45.1653 154.216 29.229 145.474 27.9663C131.375 25.9023 117.175 25.0242 102.873 25.3319C93.5742 25.5573 92.1087 40.961 101.389 42.6112C113.758 44.868 126.214 46.1083 138.87 46.6832C139.379 40.754 139.888 34.8248 140.397 28.8956C129.569 28.6483 118.741 28.4011 107.912 28.1538C98.3741 27.8467 96.7631 44.9445 106.4 45.772C130.491 47.8408 154.713 48.385 178.938 47.2229C188.252 46.8281 190.059 30.7711 180.451 29.6047C171.694 28.5114 163.119 28.6283 154.343 29.4106C145.852 30.2172 146.766 46.1666 154.844 46.8603C172.841 48.4058 190.77 49.0922 208.883 49.2824C219.018 49.2994 220.829 31.5362 210.513 30.3091C200.48 29.1062 190.404 28.4116 180.241 28.7334C179.688 35.1708 179.135 41.6082 178.582 48.0456C197.507 47.1109 216.387 46.6844 235.253 46.4273C245.544 46.2871 247.511 28.3666 236.912 27.1151C228.423 26.2155 220.019 26.0057 211.57 26.3042C201.251 26.7832 199.182 45.8895 209.897 45.7858C233.738 45.7852 257.451 45.6031 281.292 45.6025C291.284 45.6074 293.095 27.8441 282.907 26.7985C277.805 26.3604 272.562 25.9102 267.46 25.4721C266.922 31.7401 266.398 37.8387 265.86 44.1066C281.79 44.792 297.891 45.1507 313.835 45.6667C323.232 45.9617 324.857 28.6945 315.333 28.2179C299.418 27.3632 283.375 26.3268 267.445 25.6415C257.355 25.1162 255.798 43.2426 265.845 44.2761C270.947 44.7142 276.176 45.3338 281.277 45.7719C281.816 39.5039 282.354 33.2359 282.892 26.9679C259.066 26.7991 235.382 26.6424 211.556 26.4736C211.003 32.911 210.436 39.5178 209.883 45.9552C218.331 45.6568 226.736 45.8665 235.082 46.7539C235.635 40.3165 236.188 33.8791 236.741 27.4417C217.831 28.207 198.921 28.9723 180.07 29.06C169.638 29.1881 167.852 48.3187 178.411 48.3722C188.546 48.3892 198.666 48.5756 208.713 49.6091C209.251 43.3411 209.804 36.9037 210.342 30.6357C192.312 31.1352 174.212 30.7755 156.171 29.7382C156.385 35.5588 156.457 41.3673 156.671 47.1879C164.157 46.4655 171.555 46.7595 178.895 47.7311C179.404 41.8019 179.899 36.0421 180.408 30.113C156.197 31.1056 131.96 30.7309 107.883 28.4926C107.374 34.4218 106.865 40.351 106.37 46.1108C117.199 46.358 128.013 46.7747 138.841 47.022C148.379 47.3291 150.034 29.7231 140.368 29.2344C127.854 28.6717 115.256 27.4192 102.858 25.5013C102.364 31.2611 101.869 37.0209 101.374 42.7806C115.706 42.1341 129.935 42.6734 144.204 44.4108C144.67 38.9898 145.135 33.5688 145.615 27.9785C132.974 27.2342 120.376 25.9817 107.608 25.0559C107.171 30.138 106.749 35.0508 106.313 40.1329C114.576 40.3305 122.81 40.867 131.171 41.585C138.823 42.2421 140.031 28.1815 132.378 27.5243C116.223 26.137 100.249 25.9599 84.0466 26.787C76.3069 27.1463 75.274 39.174 82.8246 41.017C87.3012 42.0841 91.9196 43.1633 96.4107 44.0609C96.818 39.3176 97.2254 34.5742 97.6472 29.6615C81.8299 29.3271 66.0562 28.4845 50.3116 27.3031C49.8897 32.2158 49.4533 37.298 49.0314 42.2108C58.1155 42.8202 67.1706 43.7684 76.182 45.2249C76.6184 40.1428 77.0548 35.0606 77.4912 29.9784C62.5824 29.0395 47.5172 28.2577 32.6083 27.3187C24.091 26.758 22.7381 42.5126 31.2554 43.0734C33.5228 43.2681 35.9319 43.475 38.1993 43.6697C38.6503 38.4182 39.1158 32.9972 39.5668 27.7456C32.4375 27.6454 25.381 26.6981 18.3681 25.2426C9.25866 23.2657 8.08732 40.2306 16.8988 42.3525C21.5171 43.4317 26.1209 44.6803 30.7392 45.7596C31.2629 39.661 31.7721 33.7318 32.2958 27.6332C28.8511 27.8493 25.3918 28.2349 22.0742 28.6326C13.7094 29.6208 14.1697 45.8725 22.5598 46.2517C29.3911 46.4971 36.0806 46.7302 42.8974 47.1449C52.7046 47.6458 52.5607 29.3734 42.4226 31.0626C31.5614 32.8604 20.6205 32.2622 9.60302 34.2172C6.44171 34.4577 6.69929 39.7701 9.54809 39.8441Z" fill="#679289"/>
</g>
<path d="M96.5 49C93.45 49 90.5249 47.7884 88.3683 45.6317C86.2116 43.4751 85 40.55 85 37.5C85 34.45 86.2116 31.5249 88.3683 29.3683C90.5249 27.2116 93.45 26 96.5 26C99.55 26 102.475 27.2116 104.632 29.3683C106.788 31.5249 108 34.45 108 37.5C108 40.55 106.788 43.4751 104.632 45.6317C102.475 47.7884 99.55 49 96.5 49ZM98.8 34.05C98.8 34.372 98.5585 34.97 98.317 35.2L96.5 37.017C95.8445 37.684 95.35 38.857 95.35 39.8V40.95H97.65V39.8C97.65 39.4665 97.8915 38.88 98.133 38.65L99.95 36.833C100.606 36.166 101.1 34.993 101.1 34.05C101.1 32.83 100.615 31.66 99.7527 30.7973C98.89 29.9346 97.72 29.45 96.5 29.45C95.28 29.45 94.11 29.9346 93.2473 30.7973C92.3846 31.66 91.9 32.83 91.9 34.05H94.2C94.2 33.44 94.4423 32.855 94.8737 32.4237C95.305 31.9923 95.89 31.75 96.5 31.75C97.11 31.75 97.695 31.9923 98.1263 32.4237C98.5577 32.855 98.8 33.44 98.8 34.05ZM95.35 43.25V45.55H97.65V43.25H95.35Z" fill="white"/>
<path d="M130.453 43H128.695V30.4902H124.252V28.9082H134.896V30.4902H130.453V43ZM136.088 43V32.8438H137.787V43H136.088ZM136.938 31.1348C136.651 31.1348 136.404 31.0306 136.195 30.8223C135.987 30.6139 135.883 30.3665 135.883 30.0801C135.883 29.7871 135.987 29.5397 136.195 29.3379C136.404 29.1296 136.651 29.0254 136.938 29.0254C137.23 29.0254 137.481 29.1296 137.689 29.3379C137.898 29.5397 138.002 29.7871 138.002 30.0801C138.002 30.3665 137.898 30.6139 137.689 30.8223C137.481 31.0306 137.23 31.1348 136.938 31.1348ZM145.014 32.668C146.316 32.668 147.364 33.1465 148.158 34.1035C148.959 35.0605 149.359 36.3333 149.359 37.9219C149.359 39.5039 148.962 40.7767 148.168 41.7402C147.374 42.6973 146.335 43.1758 145.053 43.1758C144.337 43.1758 143.695 43.013 143.129 42.6875C142.562 42.362 142.126 41.916 141.82 41.3496H141.781V46.3887H140.082V32.8438H141.693V34.5625H141.732C142.051 33.9766 142.497 33.5143 143.07 33.1758C143.643 32.8372 144.291 32.668 145.014 32.668ZM144.682 41.6816C145.587 41.6816 146.303 41.3431 146.83 40.666C147.357 39.9889 147.621 39.0742 147.621 37.9219C147.621 36.7695 147.357 35.8548 146.83 35.1777C146.303 34.5007 145.587 34.1621 144.682 34.1621C143.809 34.1621 143.106 34.5072 142.572 35.1973C142.038 35.8874 141.771 36.7956 141.771 37.9219C141.771 39.0547 142.038 39.9661 142.572 40.6562C143.106 41.3398 143.809 41.6816 144.682 41.6816ZM150.902 35.6465C150.902 34.7741 151.254 34.0612 151.957 33.5078C152.667 32.9479 153.578 32.668 154.691 32.668C155.74 32.668 156.612 32.9479 157.309 33.5078C158.005 34.0677 158.373 34.7773 158.412 35.6367H156.791C156.732 35.1419 156.511 34.7546 156.127 34.4746C155.749 34.1947 155.251 34.0547 154.633 34.0547C154.014 34.0547 153.516 34.1947 153.139 34.4746C152.761 34.748 152.572 35.1094 152.572 35.5586C152.572 36.2487 153.135 36.737 154.262 37.0234L155.834 37.4043C156.856 37.6647 157.576 38.0033 157.992 38.4199C158.415 38.8301 158.627 39.4095 158.627 40.1582C158.627 41.0436 158.249 41.7695 157.494 42.3359C156.739 42.8958 155.769 43.1758 154.584 43.1758C153.477 43.1758 152.562 42.9023 151.84 42.3555C151.124 41.8021 150.72 41.0729 150.629 40.168H152.328C152.517 41.2487 153.305 41.7891 154.691 41.7891C155.375 41.7891 155.915 41.6556 156.312 41.3887C156.716 41.1152 156.918 40.7474 156.918 40.2852C156.918 39.9206 156.798 39.6309 156.557 39.416C156.322 39.2012 155.922 39.0189 155.355 38.8691L153.568 38.4102C151.791 37.9544 150.902 37.0332 150.902 35.6465ZM165.98 28.9082H167.396L166.449 33.8789H164.643L165.98 28.9082ZM169.75 43V32.8438H171.352V34.4648H171.391C171.684 33.8984 172.104 33.459 172.65 33.1465C173.197 32.8275 173.852 32.668 174.613 32.668C175.72 32.668 176.583 33.0033 177.201 33.6738C177.82 34.3379 178.129 35.2493 178.129 36.4082V43H176.43V36.7109C176.43 35.8841 176.234 35.2559 175.844 34.8262C175.453 34.39 174.87 34.1719 174.096 34.1719C173.295 34.1719 172.654 34.4323 172.172 34.9531C171.69 35.474 171.449 36.1641 171.449 37.0234V43H169.75ZM184.945 30.3926H186.645V32.8438H188.617V34.2402H186.645V40.2754C186.645 40.7376 186.745 41.0794 186.947 41.3008C187.149 41.5156 187.468 41.623 187.904 41.623C188.178 41.623 188.412 41.6068 188.607 41.5742V43C188.386 43.0521 188.028 43.0781 187.533 43.0781C186.602 43.0781 185.938 42.8698 185.541 42.4531C185.144 42.0365 184.945 41.3398 184.945 40.3633V34.2402H183.432V32.8438H184.945V30.3926ZM190.434 43V32.8438H192.035V34.5039H192.074C192.243 33.9375 192.546 33.4915 192.982 33.166C193.425 32.834 193.943 32.668 194.535 32.668C194.672 32.668 194.9 32.6908 195.219 32.7363V34.3867C195.036 34.3216 194.734 34.2891 194.311 34.2891C193.653 34.2891 193.126 34.5072 192.729 34.9434C192.331 35.3796 192.133 35.9557 192.133 36.6719V43H190.434ZM196.693 43V32.8438H198.393V43H196.693ZM197.543 31.1348C197.257 31.1348 197.009 31.0306 196.801 30.8223C196.592 30.6139 196.488 30.3665 196.488 30.0801C196.488 29.7871 196.592 29.5397 196.801 29.3379C197.009 29.1296 197.257 29.0254 197.543 29.0254C197.836 29.0254 198.087 29.1296 198.295 29.3379C198.503 29.5397 198.607 29.7871 198.607 30.0801C198.607 30.3665 198.503 30.6139 198.295 30.8223C198.087 31.0306 197.836 31.1348 197.543 31.1348ZM209.125 36.1738H207.465C207.335 35.5879 207.045 35.1061 206.596 34.7285C206.153 34.3509 205.577 34.1621 204.867 34.1621C203.982 34.1621 203.269 34.5039 202.729 35.1875C202.188 35.8646 201.918 36.776 201.918 37.9219C201.918 39.0872 202.188 40.0052 202.729 40.6758C203.275 41.3464 203.995 41.6816 204.887 41.6816C205.57 41.6816 206.133 41.5124 206.576 41.1738C207.025 40.8288 207.325 40.347 207.475 39.7285H209.145C209.014 40.7441 208.555 41.5742 207.768 42.2188C206.986 42.8568 206.023 43.1758 204.877 43.1758C203.458 43.1758 202.322 42.707 201.469 41.7695C200.616 40.8255 200.189 39.543 200.189 37.9219C200.189 36.3268 200.616 35.054 201.469 34.1035C202.322 33.1465 203.451 32.668 204.857 32.668C206.068 32.668 207.051 33.0098 207.807 33.6934C208.568 34.377 209.008 35.2038 209.125 36.1738ZM212.494 37.3555L216.986 32.8438H219.047L214.643 37.2285L219.184 43H217.211L213.441 38.2734L212.494 39.1719V43H210.795V28.9082H212.494V37.3555ZM219.848 35.6465C219.848 34.7741 220.199 34.0612 220.902 33.5078C221.612 32.9479 222.523 32.668 223.637 32.668C224.685 32.668 225.557 32.9479 226.254 33.5078C226.951 34.0677 227.318 34.7773 227.357 35.6367H225.736C225.678 35.1419 225.456 34.7546 225.072 34.4746C224.695 34.1947 224.197 34.0547 223.578 34.0547C222.96 34.0547 222.462 34.1947 222.084 34.4746C221.706 34.748 221.518 35.1094 221.518 35.5586C221.518 36.2487 222.081 36.737 223.207 37.0234L224.779 37.4043C225.801 37.6647 226.521 38.0033 226.938 38.4199C227.361 38.8301 227.572 39.4095 227.572 40.1582C227.572 41.0436 227.195 41.7695 226.439 42.3359C225.684 42.8958 224.714 43.1758 223.529 43.1758C222.423 43.1758 221.508 42.9023 220.785 42.3555C220.069 41.8021 219.665 41.0729 219.574 40.168H221.273C221.462 41.2487 222.25 41.7891 223.637 41.7891C224.32 41.7891 224.861 41.6556 225.258 41.3887C225.661 41.1152 225.863 40.7474 225.863 40.2852C225.863 39.9206 225.743 39.6309 225.502 39.416C225.268 39.2012 224.867 39.0189 224.301 38.8691L222.514 38.4102C220.736 37.9544 219.848 37.0332 219.848 35.6465Z" fill="white"/>
<defs>
<clipPath id="clip0">
<rect width="326" height="59" fill="white" transform="translate(2.59766) rotate(2.52367)"/>
</clipPath>
</defs>
</svg>
