<svg width="414" height="359" viewBox="0 0 414 359" fill="none" xmlns="http://www.w3.org/2000/svg">
<path d="M363.252 240.946C366.162 234.197 367.867 227.364 369.372 220.359C369.473 219.932 369.573 219.163 369.673 218.907C369.774 218.053 369.874 217.284 369.974 216.429C370.175 214.55 370.376 212.756 370.476 210.877C370.677 208.058 370.777 205.154 370.877 202.335C370.576 202.335 370.376 202.249 370.075 202.079C361.747 197.124 353.62 191.742 345.794 184.909C343.285 182.688 340.576 181.748 337.867 180.638C335.459 179.698 335.459 179.698 317.299 176.281C316.396 173.035 318.302 170.899 301.646 163.382C293.318 159.624 285.693 159.367 278.77 153.9C276.061 151.765 270.442 151.765 263.218 147.75C260.409 146.127 257.298 140.233 254.088 138.866C250.275 137.243 243.051 124.088 238.837 123.234C237.031 122.123 229.907 131.947 224.087 134.253C221.178 136.987 216.161 136.132 213.653 139.806C206.93 133.826 198.803 119.817 198.101 118.963C198.101 118.963 195.392 119.133 191.78 115.802C191.077 115.119 184.756 116.058 184.255 117.254C181.345 118.279 180.141 119.646 176.228 123.405C168.903 130.58 161.679 137.499 154.856 145.956C148.636 153.644 141.913 158.342 134.589 161.332C127.766 164.151 119.037 156.719 116.227 157.403C116.127 157.403 98.7692 168.337 93.6521 172.437C84.321 179.783 72.3812 178.758 67.9664 182.175C61.7457 187.13 47.7991 194.988 40.6754 197.124C34.0533 199.089 20.6084 202.676 15.391 209.339C13.3843 211.902 -23.2379 222.922 -25.4453 224.886L50.1068 282.205C53.0165 282.205 55.9263 282.376 58.7356 282.546C61.545 282.717 64.3544 282.717 66.9631 280.411C76.7959 271.527 75.7925 289.636 86.6287 287.159C89.5384 286.476 104.99 292.114 112.816 293.224C128.97 295.531 155.759 249.83 160.475 249.83C163.084 249.83 175.525 267 180.843 278.19C185.459 287.672 191.077 292.797 198.301 292.797C201.311 292.797 204.321 293.31 207.332 292.797C216.061 291.345 222.081 298.777 226.596 310.138C233.218 326.624 272.048 276.311 278.77 292.797C282.382 301.596 316.094 273.191 322.717 273.874C327.131 274.387 300.518 329.397 304.03 334.096C305.134 335.633 292.024 334.95 293.329 334.096C303.964 326.835 285.562 319.716 296.899 319.716C296.899 286.486 314.651 308.094 314.651 326.373C318.363 326.714 335.359 326.122 335.86 319.716C336.463 310.746 322.115 349.005 322.717 340.036C323.62 326.026 327.432 316.545 335.86 313.469C344.891 310.138 350.309 299.973 353.118 285.109C354.723 276.481 358.034 269.221 359.038 260.08C359.941 251.453 360.944 246.584 362.951 243.936C362.65 242.654 362.851 241.8 363.252 240.946Z" fill="#CDCDCD"/>
<path d="M368.669 201.652C360.341 196.697 352.214 191.315 344.388 184.482C341.879 182.261 339.17 181.321 336.461 180.211C335.157 179.698 325.324 176.11 314.087 175.341C305.057 174.744 299.94 178.16 287.799 174.06C286.896 172.352 280.876 167.568 279.672 165.603C278.669 163.895 279.17 160.393 277.464 158.684C269.438 150.911 265.826 149.544 261.812 147.323C259.003 145.7 255.893 139.806 252.682 138.439C248.869 136.816 241.645 123.661 237.431 122.807C236.829 122.38 237.732 124.771 236.628 126.565C235.324 126.736 232.514 126.138 231.712 126.907C229.003 129.555 225.692 132.63 222.682 133.826C219.772 136.56 214.755 135.705 212.247 139.379C205.524 133.399 198.2 119.732 197.598 118.963C197.598 118.963 191.177 118.536 190.274 117.852C188.668 116.742 183.752 116.485 182.849 116.742C179.939 117.767 178.735 119.134 174.822 122.892C167.498 130.068 160.273 136.987 153.451 145.444C147.23 153.132 140.507 157.83 133.183 160.82C126.36 163.639 117.631 156.207 114.822 156.89C114.721 156.89 97.3634 167.824 92.2464 171.925C82.9152 179.271 70.9754 178.246 66.5606 181.663C60.3399 186.617 46.3933 194.476 39.2696 196.612C36.8615 197.38 44.2863 200.541 48.099 204.043C51.0087 204.129 54.4201 206.521 58.7345 204.898C62.0456 203.616 66.2596 198.064 68.9687 197.978C79.0022 197.722 87.2296 197.039 91.4437 196.099C92.2464 195.928 100.775 199.943 113.317 197.978C116.427 197.466 116.628 200.114 119.939 199.516C120.942 199.345 121.343 199.431 121.343 200.883C121.343 201.481 118.333 202.933 119.036 203.531C119.437 203.873 120.741 206.094 120.842 206.35C121.343 207.802 121.745 207.973 122.648 207.802C122.848 207.802 124.655 207.033 124.755 206.094C124.855 205.068 125.859 203.018 126.461 202.762C127.364 202.25 126.862 200.626 127.464 199.772C127.765 199.601 129.27 200.626 130.374 200.626C131.477 200.712 133.183 201.395 133.183 201.395C134.086 203.018 133.384 203.873 132.882 206.521C132.782 207.375 130.675 207.631 129.37 208.827C129.772 209.425 129.671 213.44 130.574 213.782C131.076 213.952 132.079 217.455 133.484 217.113C133.885 217.028 136.093 212.756 136.093 212.842C137.798 213.525 140.206 203.36 140.608 202.933C141.009 201.395 141.009 198.747 143.618 196.27C144.22 195.672 147.531 196.014 148.133 195.33C148.635 194.732 149.036 193.878 149.437 193.024C150.24 191.145 150.641 189.18 150.942 189.094C152.949 188.667 154.554 187.301 156.36 186.703C157.966 186.19 159.671 186.361 161.377 186.105C166.394 185.25 163.885 183.457 168.099 183.371C179.638 183.115 180.842 181.15 183.15 181.15C184.354 181.15 184.153 183.115 187.966 185.507C188.568 185.934 186.26 187.13 184.956 191.999C184.354 194.305 180.039 195.074 179.136 197.808C178.334 200.37 181.243 207.887 180.441 210.45C179.638 212.927 176.728 214.55 176.026 216.857C175.223 219.761 177.832 220.53 178.233 222.751C178.434 223.947 179.638 225.399 179.538 226.509C179.337 228.816 177.631 230.61 178.033 230.781C178.936 231.208 189.069 246.157 191.879 243.423C192.08 243.167 192.28 240.775 192.28 238.298C192.682 236.077 194.187 234.625 193.986 234.795C193.484 235.65 195.19 233.343 195.692 233.343C196.193 233.343 194.387 230.951 194.187 230.951C193.585 230.781 193.284 230.012 192.882 229.67C192.08 228.987 190.675 227.535 190.274 226.766C188.668 223.349 188.668 219.932 189.069 219.249C190.073 217.284 196.996 207.289 198.501 204.983C203.016 204.043 205.625 205.666 207.531 203.787C210.942 200.456 214.555 194.732 215.257 194.732C222.08 190.888 230.006 200.883 230.006 200.883C230.006 200.37 239.337 199.943 245.859 195.672C247.464 194.134 249.07 190.547 250.575 189.009C254.086 189.009 255.792 188.497 257.197 188.411C257.598 188.667 259.404 190.376 259.705 192.341C259.204 194.732 260.709 197.124 258.1 199.516C258.1 200.797 258.501 201.737 259.806 202.25C261.511 202.847 270.842 202.079 272.849 202.847C274.956 203.616 287.398 204.043 289.806 204.898C322.114 216.088 367.264 225.143 368.268 220.017C368.368 219.59 368.468 218.821 368.569 218.565C368.669 217.711 368.769 216.942 368.87 216.088C369.07 214.209 369.271 212.415 369.371 210.535C369.572 207.717 369.672 204.812 369.773 201.993C369.271 201.908 368.97 201.822 368.669 201.652Z" fill="#F0F4F3"/>
<path d="M364.254 242.142C364.154 235.308 365.558 228.73 367.063 222.067C367.063 221.469 367.063 220.957 367.063 220.359C367.364 216.088 368.97 212.073 372.08 208.485C375.391 204.727 383.418 208.741 388.134 207.46C391.144 206.777 391.445 206.777 391.445 206.777C391.946 206.691 395.96 206.093 400.274 206.691C406.997 207.631 414.923 209.937 416.027 209.852C415.324 208.058 394.254 193.793 394.354 193.28C391.043 186.532 367.264 180.723 365.358 173.718C363.953 173.206 362.448 172.522 360.843 171.839C359.839 171.412 358.836 170.899 357.833 170.472C346.294 165.176 341.879 165.859 333.652 174.487C324.321 184.225 311.177 189.949 299.939 197.722C291.11 203.702 280.474 204.812 269.438 203.104C265.825 202.591 262.314 202.079 258.702 201.31C249.772 199.43 242.748 201.737 236.628 207.46C227.799 215.661 221.176 225.143 213.25 233.941C211.544 235.82 212.146 237.102 214.354 238.383C218.166 240.604 221.979 242.74 225.491 245.217C236.728 252.819 247.765 260.593 260.207 266.743C268.434 270.758 277.163 273.577 286.695 274.004C302.749 274.602 318.802 275.115 334.856 275.798C338.368 275.969 340.475 274.944 342.18 272.296C346.093 266.145 349.705 259.739 354.622 254.186C357.833 250.513 361.244 246.925 364.555 243.423C364.254 242.996 364.254 242.569 364.254 242.142Z" fill="#679289"/>
<path d="M352.517 188.155C350.71 186.788 350.309 185.421 350.209 185.25C349.908 184.567 346.296 178.588 346.296 178.246C345.995 177.99 344.891 172.095 347.901 173.633C348.202 173.804 347.5 170.985 345.192 170.216C342.483 169.362 341.781 168.251 341.48 168.166C341.279 168.337 340.978 168.422 340.677 168.508C340.376 168.679 340.175 168.849 339.774 169.02C339.674 169.106 339.573 169.106 339.473 169.191C339.373 169.362 310.476 190.376 299.841 197.637C291.011 203.616 280.376 204.727 269.339 203.018C265.727 202.506 262.215 201.993 258.603 201.224C249.673 199.345 242.65 201.652 236.529 207.375C227.7 215.575 221.078 225.057 213.151 233.856C211.446 235.735 212.048 237.016 214.255 238.298C218.068 240.519 233.72 233.087 237.332 235.564C248.57 243.167 262.115 250.172 274.556 256.322C279.071 258.543 294.021 248.89 299.339 229.328C309.373 221.384 313.687 224.118 317.5 222.751C319.406 222.068 324.021 223.52 326.73 223.007C329.841 222.409 331.045 219.676 332.45 218.224C335.259 215.063 334.456 214.636 336.363 212.244C336.664 212.329 339.172 208.912 341.58 207.546C341.981 207.289 344.289 204.641 344.69 204.471C345.092 203.702 349.607 199.26 350.61 198.149C350.911 197.808 351.613 194.647 352.617 193.366C352.918 193.024 354.624 189.778 352.517 188.155Z" fill="#91B7AC"/>
<path d="M394.253 193.281C390.942 186.533 362.247 172.523 360.742 171.84C359.738 171.413 358.735 170.9 357.732 170.473C354.019 168.765 351.009 167.74 348.4 167.312C349.203 168.338 351.41 167.91 352.012 169.021C352.514 169.106 357.631 171.157 359.237 173.975C359.638 174.146 363.451 178.161 363.752 178.332C367.966 179.272 378.2 192.683 382.213 194.989C384.12 196.1 388.635 203.532 390.441 204.386C392.949 205.582 391.444 205.838 393.752 206.607C395.257 207.034 398.066 208.23 399.571 208.401C401.177 208.657 402.682 206.094 404.387 207.461C406.896 207.974 409.304 208.486 411.31 208.999C412.314 208.742 413.317 208.486 414.32 208.315C409.404 204.044 394.253 193.708 394.253 193.281Z" fill="#91B7AC"/>
<path d="M228 272.125C224.789 270.758 221.478 269.819 217.966 269.477C211.746 268.879 207.431 266.231 203.919 261.96C196.996 253.418 189.672 245.132 182.648 236.589C178.735 231.806 173.618 228.816 166.194 229.158C161.779 229.414 157.364 229.414 152.849 228.901C146.528 228.218 141.712 225.484 137.598 221.555C131.879 216.173 126.762 210.279 119.237 206.435C118.033 205.837 117.029 204.983 116.728 203.873C116.026 201.566 114.32 201.139 111.812 201.31C108.2 201.481 104.488 201.908 101.377 203.445C96.1598 206.008 90.4407 206.35 84.7216 206.435C82.6146 206.435 80.6079 206.435 78.5008 206.521C73.5844 206.692 69.27 208.315 66.26 211.475C63.0493 214.807 59.0359 216.173 54.2198 216.601C44.387 217.455 34.8552 219.163 25.9254 223.007C23.0157 224.289 19.8049 224.63 16.5942 224.459C13.7848 224.289 -22.8374 224.886 -25.6468 224.716L-33.1719 251.538C-24.1417 251.282 25.6244 254.016 32.3468 259.055C37.0625 262.643 41.8786 266.145 46.2933 269.904C53.5175 276.054 62.1462 277.763 71.8787 276.738C77.3971 276.14 82.9156 275.286 88.434 274.602C97.1631 273.577 104.688 275.542 111.009 281.009C117.932 287.074 123.551 293.822 129.17 300.742C137.698 311.163 133.886 309.284 148.936 311.249C157.464 312.359 165.19 309.369 172.113 305.354C174.722 303.902 177.531 302.792 180.24 301.767C190.174 297.923 199.304 292.968 207.531 286.818C213.853 282.119 220.675 278.019 228.1 274.602C228.802 274.261 229.906 274.175 229.906 273.406C229.806 272.638 228.702 272.467 228 272.125Z" fill="#679289" stroke="#679289" stroke-width="3" stroke-miterlimit="10"/>
<path d="M401.744 318.607C406.737 317.71 407.097 314.304 409.907 306.957C411.512 302.686 410.91 301.499 411.914 296.972C411.914 291.979 415.482 292.534 420.051 292.534C427.576 292.534 422.549 286.989 425.057 280.668C426.763 276.311 428.067 275.884 432.884 277.849C437.499 279.813 444.723 286.305 448.034 289.722C452.649 294.421 458.569 295.617 466.094 293.908C463.686 291.602 458.168 287.245 455.76 284.853C448.536 277.849 440.007 271.869 431.981 265.548C427.867 262.302 422.649 262.558 418.435 265.804C416.529 267.256 414.121 268.281 411.914 269.392C411.312 269.734 410.71 269.819 409.907 269.563C401.579 267.085 393.452 264.437 385.626 261.02C383.117 259.91 380.408 259.397 377.699 258.885C371.579 257.689 365.659 255.981 359.84 253.76C355.224 251.966 370.776 207.29 366.061 208.4C360.241 209.767 358.535 227.535 353.117 229.756C348.703 231.464 340.676 246.157 335.86 246.84C332.147 247.353 321.11 261.191 317.599 262.045C310.575 263.754 292.415 265.206 289.104 260.764C284.689 254.87 279.171 251.197 271.244 249.574C265.826 248.463 260.809 246.328 256.997 242.569C255.592 241.202 253.886 239.921 251.779 239.323C245.358 237.358 240.943 233.6 237.833 228.475C235.826 225.228 231.612 224.033 228 222.41C227.297 222.068 226.595 222.324 226.093 222.922C223.384 226.168 219.271 227.62 215.358 229.5C208.033 233.087 201.411 237.615 194.588 241.8C188.367 245.644 181.645 247.951 174.321 249.403C167.498 250.77 160.775 252.649 154.655 255.724C152.046 257.006 149.237 257.176 146.327 257.604C145.926 257.689 145.424 257.604 145.123 257.433C138.2 253.503 131.377 255.041 124.555 257.774C118.334 260.252 112.213 262.814 105.692 264.437C104.287 264.779 102.882 265.292 101.477 265.206C94.2534 264.95 87.3303 266.146 80.3068 267.171C77.6981 267.513 65.3569 271.271 52.9154 270.331C33.3501 268.879 11.1761 262.643 8.06575 264.694C6.05906 265.975 89.8387 309.284 89.8387 309.284C92.7484 309.284 95.6581 309.37 98.4675 309.455C101.277 309.54 104.086 309.54 106.695 308.43C116.528 303.988 115.524 312.957 126.361 311.761C129.27 311.42 144.722 314.239 152.548 314.751C168.702 315.862 195.491 293.225 200.207 293.225C202.816 293.225 215.257 301.682 220.575 307.234C225.19 311.932 230.809 314.495 238.033 314.495C241.043 314.495 244.053 314.751 247.063 314.495C255.793 313.811 261.813 317.485 266.328 323.123C272.95 331.323 281.338 327.127 288.061 335.242C291.673 339.599 296.087 342.674 302.71 343.015C307.124 343.272 317.125 345.853 321.008 346.963C322.112 347.731 339.674 344.616 340.979 344.189C347.755 341.97 354.292 343.015 359.84 343.015C361.846 343.015 367.818 336.337 369.825 336.422C370.935 333.094 378.445 328.592 382.329 325.819C385.102 322.49 392.314 322.412 393.423 321.381C395.642 320.193 401.197 318.705 401.744 318.607Z" fill="#1D7874"/>
<path d="M105.792 299.191C108.501 296.885 145.826 281.351 148.936 279.216C151.846 277.251 151.344 274.774 153.15 272.211C154.053 270.844 157.565 269.477 158.368 268.025C159.471 266.061 161.378 262.9 162.682 260.935C166.997 254.101 195.993 244.192 201.712 238.213C199.104 239.067 180.742 247.78 179.839 247.951C178.334 248.378 175.926 249.062 174.421 249.318C167.599 250.685 160.876 252.564 154.756 255.639C152.147 256.92 149.338 257.091 146.428 257.518C146.027 257.604 145.525 257.518 145.224 257.347C138.301 253.418 131.478 254.956 124.655 257.689C118.435 260.166 112.314 262.729 105.792 264.352C104.388 264.694 102.983 265.206 101.578 265.121C94.3542 264.865 87.431 266.061 80.4076 267.086C77.7989 267.427 56.9337 258.629 44.4922 257.689C24.9269 256.237 -8.42621 247.268 -11.5366 249.318C-12.9413 250.257 -24.6225 300.972 -0.44178 313.614C35.9798 316.946 15.6247 327.097 105.792 299.191Z" fill="#3E8C86"/>
<path d="M374.589 206.436C370.575 203.959 368.267 205.667 366.06 208.4C364.555 210.365 363.652 212.672 363.05 214.978C361.244 222.41 359.338 229.927 357.532 237.359C356.328 242.569 355.726 265.036 356.027 270.332C356.027 271.1 355.625 272.126 356.629 272.467C357.632 272.809 358.234 271.955 359.037 271.528C360.742 270.588 362.348 270.161 364.354 269.734C368.167 268.965 366.562 267.086 366.461 265.548C365.96 258.031 366.762 233.258 367.264 225.741C367.665 218.907 368.769 212.074 374.589 206.436Z" fill="#F0F4F3"/>
<path d="M238.534 133.826C240.841 135.876 242.045 137.585 242.447 139.635C242.948 141.685 244.353 143.052 246.761 142.966C253.182 142.881 257.798 146.127 261.51 150.825C264.119 154.157 267.43 156.89 269.938 160.222C270.54 160.991 271.744 162.101 270.841 162.699C269.838 163.468 269.035 162.016 268.233 161.418C266.928 160.478 265.624 159.282 264.019 158.94C257.196 157.488 251.176 153.559 244.754 151.082C237.028 148.177 232.513 141.514 233.617 135.022C233.818 133.826 233.517 132.032 235.423 131.862C237.229 131.691 237.931 133.399 238.534 133.826Z" fill="#84B7AB"/>
<path d="M189.973 122.122C190.274 120.499 189.973 122.122 187.665 118.62C184.956 119.901 183.251 120.329 182.95 121.61C181.545 127.333 179.237 131.092 173.719 134.252C168.802 137.157 165.291 140.147 164.087 145.357C162.883 150.739 154.154 159.452 144.12 163.723C144.822 164.748 156.762 160.392 161.177 158.085C162.18 157.573 178.334 142.624 164.889 158.769C163.986 159.794 174.923 154.925 175.926 154.498C182.749 150.995 185.458 146.895 187.465 138.78C188.267 133.227 188.368 127.589 189.973 122.122Z" fill="#84B7AB"/>
<path d="M189.972 242.228C189.872 242.057 189.671 241.972 189.471 241.887C189.27 241.801 189.17 241.63 188.969 241.545L188.869 241.459C188.668 241.374 188.568 241.203 188.367 241.118L188.267 241.032C188.166 240.947 188.166 240.861 188.066 240.776C187.966 240.605 187.765 240.434 187.564 240.349C187.464 240.093 187.263 239.922 187.163 239.666C186.661 238.726 185.959 237.872 185.257 237.103C184.454 236.334 183.651 235.651 183.049 234.711C182.849 234.369 182.447 234.199 182.046 234.113C180.039 231.636 177.33 229.415 173.818 228.561C169.805 227.536 165.19 227.877 160.976 227.792C156.762 227.706 152.447 227.45 148.333 226.34C144.621 225.315 141.41 223.35 138.601 221.043C135.491 218.395 132.882 215.32 130.373 212.245C129.972 211.818 129.47 211.647 128.969 211.647C128.868 211.476 128.668 211.305 128.567 211.22C127.865 210.451 126.962 209.853 126.159 209.255C124.454 207.974 122.648 206.693 120.641 205.753C120.541 205.753 120.44 205.667 120.44 205.667C120.34 205.582 120.139 205.411 119.939 205.411C119.838 205.326 119.738 205.24 119.638 205.155C119.638 205.155 119.537 205.069 119.437 205.069C119.236 204.984 119.136 204.813 118.935 204.728C118.935 204.728 118.835 204.642 118.835 204.557C118.835 204.557 118.835 204.472 118.735 204.386C118.634 203.874 118.534 203.361 118.233 202.849C117.731 201.909 116.828 201.055 115.725 200.628C115.524 200.542 115.323 200.542 115.123 200.457C115.022 200.371 114.922 200.286 114.922 200.2C111.812 199.859 108.601 200.2 106.995 200.457C100.674 201.311 99.069 204.557 88.8349 205.155C88.5339 205.155 88.2329 205.24 88.0322 205.24C87.8315 205.155 87.6309 205.069 87.3299 205.069C81.1091 204.899 74.487 204.813 68.7679 207.29C65.7579 208.572 63.8515 210.964 60.9418 212.416C58.0321 213.868 54.721 214.551 51.41 215.235C51.0086 215.32 50.7076 215.491 50.507 215.747H50.4066C42.8815 216.431 35.6574 217.968 28.5336 220.189C25.1222 221.3 21.7109 222.496 17.9985 222.752C14.0854 223.008 10.373 223.008 6.45996 222.581C6.45996 222.837 12.4801 224.119 16.1924 223.948C20.0052 223.777 24.6206 224.119 28.1323 223.008C32.9484 221.471 36.0587 221.641 39.9718 221.727C40.8748 221.727 41.9785 220.873 42.8815 220.873C43.4835 220.873 40.9751 222.154 36.9618 224.802C35.5571 225.742 34.1524 228.219 32.848 229.073C29.6373 231.209 25.8246 232.746 26.4266 232.746C26.5269 232.746 37.0621 230.013 40.9751 228.475C41.5772 228.219 43.1825 226.852 45.2895 226.425C45.3899 226.425 49.2026 223.777 50.0053 223.35C50.808 222.923 55.925 222.41 56.8281 221.983C57.6307 221.556 58.5337 218.822 61.3431 217.541C61.8448 217.285 63.6508 216.26 64.1525 215.576C64.8548 214.551 66.5605 213.441 67.9652 212.758C70.8749 211.476 71.5773 210.537 74.3866 209.084C79.2027 206.607 80.1057 207.29 85.6241 207.461C85.6241 207.547 85.6242 207.632 85.5238 207.718C85.4235 208.145 84.9218 209.084 85.3232 209.511C85.8248 210.109 87.1292 208.999 87.1292 211.134C87.1292 212.074 88.2329 213.185 86.6275 213.953C84.9218 214.808 81.6108 216.687 81.1091 217.541C80.5071 218.481 78.2997 220.018 77.196 221.129C76.0923 222.325 73.1826 222.581 71.6776 223.692C69.7712 225.144 67.9652 225.485 66.3599 226.938C64.3532 228.646 59.8381 230.013 56.1257 230.44C56.4267 231.636 69.3699 230.782 74.3866 229.842C75.4903 229.671 91.7446 222.154 82.6141 231.38C81.6108 232.405 97.0623 225.998 98.166 225.827C105.992 224.46 99.972 222.923 104.888 215.747C107.597 210.622 112.414 210.109 112.815 209.255C112.915 208.913 114.22 207.29 114.22 207.205C114.32 207.29 115.022 205.924 115.022 206.095L115.323 206.18L115.624 205.838C115.624 205.924 115.725 206.778 115.725 206.863C115.825 207.12 115.223 208.657 115.524 209.682C115.825 210.793 116.828 211.391 116.929 211.647C117.029 211.818 117.731 213.099 118.032 215.32C118.233 216.772 117.832 218.225 117.932 219.677C118.032 221.641 118.634 223.435 118.735 223.606C120.741 224.973 120.842 230.44 122.848 231.892C122.848 231.892 125.557 235.48 128.969 237.957C131.176 239.58 134.387 240.264 135.19 240.861C136.594 241.801 139.604 240.605 142.614 240.605C146.327 240.605 149.939 241.716 150.039 240.776C150.139 238.64 153.651 240.947 157.665 242.399C165.19 245.047 175.424 249.233 176.126 248.977C178.334 248.122 189.972 243.168 190.273 243.082C190.474 242.399 190.474 242.741 189.972 242.228Z" fill="#91B7AC"/>
<path d="M114.622 173.719C116.327 169.79 115.926 159.881 114.12 159.881C113.217 167.911 111.01 166.117 110.207 168.081C109.003 171.157 106.595 172.865 102.582 173.207C96.7622 173.719 91.3441 180.553 92.5481 185.422C92.9494 187.045 93.9528 188.754 96.1601 187.643C103.685 184.141 111.11 180.382 114.622 173.719Z" fill="#84B7AB"/>
<path d="M389.841 252.393C389.741 252.051 389.64 251.624 389.54 251.282C389.54 249.403 389.44 247.609 389.44 245.73C389.44 245.388 389.44 244.961 389.339 244.619C389.941 239.323 386.329 233.6 378.303 233.6C371.68 233.6 367.968 237.529 367.266 241.886C366.664 243.081 366.363 244.363 366.363 245.73C366.363 247.609 366.262 249.488 366.363 251.453C365.961 253.076 365.961 254.699 366.463 256.322C366.463 256.664 366.563 257.005 366.664 257.347C366.864 261.02 369.172 264.608 373.587 266.06C375.493 266.914 377.701 267.341 380.309 267C386.329 266.316 389.741 262.302 390.343 257.347C390.543 255.639 390.242 254.016 389.841 252.393Z" fill="#1D7874"/>
<path d="M418.034 223.349C412.616 220.444 410.007 213.012 403.485 213.012C397.164 213.012 394.154 208.741 394.255 204.556C392.248 205.068 390.141 205.41 388.034 205.837C385.425 206.35 382.816 206.606 380.007 206.179C375.492 205.41 372.783 206.606 370.877 210.364C368.97 214.208 367.666 218.309 367.566 222.409C367.265 229.926 366.362 237.529 366.562 245.046C366.562 245.131 366.562 245.217 366.462 245.388C366.663 246.242 366.763 247.181 366.663 248.121C366.763 248.634 366.863 249.061 366.863 249.573C366.863 253.417 367.064 264.608 366.663 268.366C368.268 268.281 376.897 271.783 393.853 268.281C396.462 267.768 407.298 281.692 408.302 279.557C410.609 274.431 428.168 286.732 432.282 282.034C437.8 275.713 430.576 239.323 430.877 237.187C431.68 233.087 423.753 226.338 418.034 223.349Z" fill="#3E8C86"/>
<g clip-path="url(#clip0)">
<path d="M101.355 33.6646C101.771 33.4577 102.188 33.0441 102.604 32.8372C103.229 32.4235 103.437 30.9757 102.396 30.7688C93.2342 29.1141 75.1186 34.9056 80.7407 47.5227C81.7818 49.798 83.8641 51.6595 85.7381 53.1074C86.9875 54.1416 90.5273 55.3826 91.152 56.6236C93.2342 60.3467 89.6944 63.2425 86.9875 64.2767C82.6147 65.9314 75.7433 65.104 71.1623 64.8972C68.6636 64.8972 54.5043 65.104 57.2112 60.9672C58.4606 59.1057 57.6277 55.7963 55.5454 54.9689C55.1289 54.7621 54.5043 54.5553 54.0878 54.3484C51.5891 53.1074 49.5069 53.5211 47.2164 55.1758C40.1367 60.7604 42.4272 70.4818 49.7151 74.8254C58.877 80.2032 75.5351 79.169 85.5299 77.1007C93.4425 75.4459 104.27 70.275 102.396 60.5536C101.771 57.2442 99.6892 54.5553 96.9823 52.4869C95.1083 50.8322 92.1931 50.2116 90.3191 48.7638C85.7381 46.9022 85.9463 42.5586 90.7355 35.9398C93.6507 34.2851 96.9823 33.2509 100.522 33.2509C100.522 33.4577 100.939 33.8714 101.355 33.6646Z" fill="#154945"/>
<path d="M105.935 41.9378C104.269 47.3156 103.228 52.9002 101.979 58.4848C101.146 62.4148 99.2716 67.3789 100.313 71.3088C102.811 79.3755 119.47 76.4798 125.508 74.8251C130.089 73.584 129.464 65.7242 124.259 66.3447C123.426 66.3447 122.593 66.5515 121.76 66.7584C118.22 67.7926 118.637 72.343 121.76 73.584C121.968 73.584 122.176 73.7909 122.593 73.7909C121.76 72.9635 120.719 71.9293 119.886 71.102C119.886 71.3088 119.886 71.5157 120.094 71.7225C121.552 69.861 122.801 67.9994 124.259 66.1379C118.428 66.5515 111.973 67.7926 106.143 66.1379C106.976 66.7584 108.017 67.5857 108.85 68.2062C107.392 65.931 108.85 58.6917 109.058 56.0028C109.266 51.4523 109.475 46.695 109.058 42.1446C109.058 40.6967 106.56 40.2831 105.935 41.9378Z" fill="#154945"/>
<path d="M104.477 51.0385C108.85 51.8659 114.472 52.0727 118.845 51.6591C122.801 51.2454 123.01 45.4539 118.845 45.2471C116.555 45.2471 114.056 45.6607 111.557 46.0744C109.058 46.4881 106.56 46.6949 104.269 47.3155C102.812 47.936 102.603 50.8317 104.477 51.0385Z" fill="#154945"/>
<path d="M128.839 71.1017C131.546 65.9308 130.505 48.3495 137.793 47.9358C146.539 47.5221 144.04 65.9308 145.914 71.3086C146.955 74.618 152.994 75.4453 153.618 71.3086C154.659 64.4829 152.369 56.0025 149.87 49.5905C147.996 44.8332 143.623 41.7307 138.418 41.5238C133.42 41.317 129.256 44.6264 127.59 49.1769C125.716 55.1752 124.258 64.6897 126.341 70.688C126.965 71.7222 128.423 72.1359 128.839 71.1017Z" fill="#154945"/>
<path d="M124.05 60.5529C134.878 62.2076 145.706 62.8281 156.534 63.6555C161.948 64.0691 161.948 55.7956 156.534 55.3819C154.451 55.1751 153.619 55.3819 151.328 55.7956C148.621 56.4161 147.788 60.9666 150.495 62.0008C152.577 63.0349 154.035 63.2418 156.534 63.6555C156.534 60.9666 156.534 58.0708 156.534 55.3819C145.498 55.3819 134.878 55.7956 124.05 57.6571C122.593 57.864 122.385 60.346 124.05 60.5529Z" fill="#154945"/>
<path d="M158.407 46.9011C158.616 46.4875 159.032 46.0738 159.24 45.6601C158.199 45.4533 157.158 45.0396 156.117 44.8327C155.7 48.9695 157.574 52.8994 158.824 56.6225C160.49 60.9661 161.739 65.1029 161.947 69.8602C164.446 68.826 166.736 67.7918 169.235 66.7576C168.819 66.1371 168.402 65.7234 167.777 65.3098C164.862 62.8277 160.906 65.1029 161.531 68.826C161.531 69.4465 161.739 70.067 162.155 70.6876C164.029 75.8585 171.734 73.7901 170.484 68.4123C168.194 59.7251 162.78 52.2789 159.24 44.0054C158.199 41.5233 154.659 43.5917 156.533 45.6601C157.158 46.2806 157.366 46.6943 157.783 46.9011C157.991 47.3148 158.407 47.108 158.407 46.9011Z" fill="#154945"/>
<path d="M154.661 52.9C152.787 46.9017 161.532 47.9359 164.031 48.1427C165.489 48.3496 166.946 48.5564 168.404 48.7632C171.319 48.7632 171.527 50.418 169.028 53.5205C164.447 54.141 162.782 60.7599 167.779 62.0009C175.275 63.8625 185.062 68.6197 192.35 65.5172C194.432 64.6898 194.224 62.0009 192.974 60.553C188.185 54.9684 176.941 54.9684 170.069 53.7274C170.069 56.4163 170.069 59.312 170.069 62.0009C181.73 59.1052 183.396 46.488 170.694 43.5923C162.782 41.9376 144.249 41.5239 152.162 53.9342C153.203 54.9684 155.077 54.141 154.661 52.9Z" fill="#154945"/>
<path d="M190.475 38.4213C188.601 47.1085 197.138 55.382 194.848 63.8624C196.306 62.8282 197.763 61.5872 199.221 60.553C197.347 60.553 196.306 61.1735 195.264 62.8282C191.1 69.6539 205.259 72.7565 203.593 63.8624C202.76 59.312 200.886 55.1752 198.596 51.0384C196.306 46.9016 194.848 42.3512 192.557 38.0076C191.933 37.1802 190.683 37.3871 190.475 38.4213Z" fill="#154945"/>
<path d="M158.824 36.7665C168.403 39.869 179.439 39.4554 189.433 40.0759C199.636 40.4896 211.089 42.7648 220.875 40.2827C225.248 39.2485 225.04 32.8365 220.875 31.5955C211.089 28.9066 199.428 30.975 189.433 31.1818C179.439 31.5955 168.403 30.7681 158.824 33.8707C157.367 34.4912 157.575 36.3528 158.824 36.7665Z" fill="#154945"/>
<path d="M160.907 85.3734C158.2 86.8213 158.616 90.958 158.616 93.4401C158.408 98.611 158.408 103.782 158.408 108.953C158.408 113.297 165.488 113.09 165.071 108.953C164.239 101.507 163.614 94.0606 163.614 86.8213C163.406 85.3734 161.948 84.7529 160.907 85.3734Z" fill="#154945"/>
<path d="M160.907 110.194C162.989 111.022 165.279 111.022 167.57 111.022C169.86 111.022 172.567 111.022 174.858 110.194C177.773 109.16 177.356 104.816 174.025 104.816C171.734 104.816 169.444 105.437 167.153 105.851C165.071 106.057 162.989 106.057 161.115 107.092C159.657 107.505 159.657 109.781 160.907 110.194Z" fill="#154945"/>
<path d="M161.948 98.1979C162.989 98.6116 164.447 98.4048 165.488 98.4048C166.737 98.4048 167.986 98.6116 169.236 98.6116C169.027 96.5432 168.611 94.6817 168.403 92.6133C167.57 93.027 166.737 93.2338 165.904 93.6475C164.655 94.0611 163.822 95.0953 164.03 96.5432C164.238 97.7842 165.279 98.8184 166.529 98.8184C167.362 98.8184 168.195 98.8184 169.027 98.8184C170.902 98.8184 172.359 97.1637 172.151 95.3022C171.943 93.6475 170.069 92.1996 168.403 92.8201C167.153 93.2338 165.904 93.8543 164.655 94.268C163.405 94.6817 162.156 95.0953 161.323 95.9227C160.282 96.3364 160.907 97.7842 161.948 98.1979Z" fill="#154945"/>
<path d="M147.58 89.5101C155.285 89.9237 162.781 89.3032 170.277 88.8895C175.066 88.6827 175.066 81.4434 170.277 81.4434C168.611 81.4434 167.57 81.6502 166.112 82.4776C164.655 83.5117 163.822 85.787 165.488 87.028C167.153 88.269 167.986 88.6827 170.069 88.8895C169.652 86.4075 169.444 83.9254 169.027 81.4434C161.531 82.8912 154.243 84.1323 146.956 86.4075C145.498 87.028 145.914 89.5101 147.58 89.5101Z" fill="#154945"/>
<path d="M181.729 88.2694V88.0626C181.729 87.6489 181.313 87.0284 180.896 87.0284H180.688C180.063 86.8216 179.23 87.2353 179.022 87.8558C178.189 90.5447 182.354 94.0609 183.811 95.9225C187.143 99.6456 190.266 103.575 194.014 107.092C195.68 108.746 198.179 107.919 199.012 105.851C199.428 104.61 199.22 103.782 198.595 102.748C197.554 101.093 195.472 101.3 194.431 102.748L194.639 102.541C195.888 102.748 196.93 102.748 198.179 102.955C195.264 100.059 192.14 97.3703 189.225 94.4746C187.768 93.2336 186.518 91.7857 185.061 90.3378C184.436 89.7173 183.811 89.3036 182.978 88.6831C182.77 88.4763 182.354 88.2694 182.146 88.0626C181.521 87.4421 181.313 87.6489 181.729 88.6831C181.313 88.89 180.896 89.0968 180.48 89.0968H180.688C181.104 89.3036 181.729 88.6831 181.729 88.2694Z" fill="#154945"/>
<path d="M183.812 104.403C189.226 99.4389 194.639 95.7158 201.094 92.1996C204.218 90.5449 203.385 85.5807 200.053 84.7534C197.763 84.1329 196.305 84.3397 194.431 85.9944C193.182 87.2355 193.182 89.5107 194.431 90.5449C195.264 91.3722 195.889 91.7859 196.93 92.1996C196.93 89.9244 196.93 87.4423 196.93 85.1671C189.85 88.6833 183.187 94.0611 178.398 100.473C176.107 103.369 181.105 106.678 183.812 104.403Z" fill="#154945"/>
<path d="M204.843 87.8555C206.509 95.5085 212.547 102.334 215.879 109.367C217.544 108.126 219.21 106.885 220.876 105.437C216.503 100.679 212.755 95.7154 210.881 89.5102C210.673 88.6829 209.84 87.0282 210.048 86.2008C209.424 85.1666 209.84 84.7529 211.089 84.7529C211.922 84.3393 212.755 84.1324 213.588 83.9256C215.254 83.5119 217.961 84.3393 219.419 83.9256C220.043 83.3051 220.668 82.4777 221.084 81.8572C220.043 82.4777 219.002 82.8914 217.961 83.3051C214.213 84.5461 215.67 90.1307 219.627 89.0965C223.375 88.2692 229.622 84.9598 225.873 80.2025C222.334 75.8589 213.38 77.0999 209.007 78.7546C202.552 81.0298 202.969 85.3735 204.843 91.3718C206.925 98.4043 210.881 105.23 216.295 110.194C219.419 112.883 223.375 108.746 220.876 105.644C215.879 99.6453 212.339 91.5786 206.092 87.0282C205.467 86.2008 204.634 87.0282 204.843 87.8555Z" fill="#154945"/>
<path d="M229.83 100.886C232.12 93.4401 239.616 84.5461 231.496 77.7204C230.038 76.6862 228.372 76.6862 227.331 78.3409C220.876 88.2692 228.581 115.365 243.989 108.539C246.28 107.505 245.239 104.609 243.365 103.782C240.866 102.955 238.367 103.162 236.285 101.093C234.827 99.6453 233.994 97.1632 233.37 95.3017C231.496 90.7512 229.83 85.5803 232.12 81.0298C230.871 81.4435 229.622 81.6503 228.372 82.064C234.203 84.7529 227.539 95.9222 227.123 100.473C226.706 102.127 229.413 102.334 229.83 100.886Z" fill="#154945"/>
<path d="M250.444 91.5789C250.86 91.5789 251.069 91.372 251.485 91.372C253.151 90.9583 252.526 88.4763 250.86 88.6831C246.696 89.5105 241.907 91.5789 239.408 95.0951C236.701 98.8182 240.866 102.955 244.405 103.989C248.154 105.23 255.025 104.61 257.107 100.887C259.606 96.543 256.066 92.613 252.11 91.1652C249.195 90.131 247.112 94.6814 250.028 96.3361C251.902 97.3703 252.734 97.784 250.236 98.4045C248.362 98.8182 246.279 98.8182 244.405 97.9909C243.156 97.3703 243.156 97.784 243.989 96.543C244.614 95.9225 245.03 95.302 245.655 94.6814C247.321 93.2336 249.195 91.9925 251.277 91.1652C250.86 90.5447 250.236 89.9241 249.819 89.0968C249.611 89.5105 249.403 89.9241 249.195 90.3378C249.195 91.372 250.028 91.7857 250.444 91.5789Z" fill="#154945"/>
<path d="M262.313 84.9601H262.105C261.48 85.1669 260.855 85.5806 260.855 86.2011C260.231 89.3037 260.231 92.4063 260.022 95.5089C259.814 98.1978 259.398 100.68 261.896 102.335C262.521 102.748 263.146 102.748 263.77 102.335C266.269 100.887 265.853 97.9909 265.644 95.5089C265.436 92.4063 265.228 89.0969 264.603 86.2011C264.395 85.5806 263.979 84.9601 263.354 84.9601C262.937 84.9601 262.521 84.7533 262.313 84.9601Z" fill="#154945"/>
<path d="M262.52 85.1664C265.019 84.5458 267.726 84.1322 270.433 84.339C271.266 84.339 273.765 84.339 274.389 84.9595C275.222 86.2005 274.181 85.7869 272.723 86.2005C269.6 87.2347 265.019 87.8553 264.603 91.7852C263.77 99.4382 277.096 102.127 282.302 100.059C285.009 98.8177 284.176 94.2672 281.469 93.8536C279.387 93.4399 277.304 93.6467 275.222 93.2331C274.181 93.0262 273.348 92.4057 272.307 92.1989C271.474 91.3715 271.058 91.3715 271.266 92.4057C271.058 93.4399 271.266 93.4399 272.307 92.6125C275.014 91.992 279.387 89.7168 279.595 86.4074C280.22 78.5475 265.436 81.8569 261.687 83.098C260.438 83.3048 261.063 85.58 262.52 85.1664Z" fill="#154945"/>
<path d="M290.006 83.5125C290.422 88.8903 291.255 95.0954 294.379 99.439C296.044 101.714 300.625 100.473 299.376 97.3706C298.335 94.6817 296.877 92.1997 295.628 89.7176C294.795 87.4424 294.379 84.7535 293.129 82.6851C292.505 81.2372 290.006 81.6509 290.006 83.5125Z" fill="#154945"/>
<path d="M288.966 75.4452C291.673 75.4452 291.673 71.1016 288.966 71.1016C286.259 71.1016 286.259 75.4452 288.966 75.4452Z" fill="#154945"/>
<path d="M307.914 99.6454C307.706 93.2334 305.207 87.4419 302.708 81.4436C301.459 82.271 300.001 82.8915 298.752 83.7188C303.333 89.7171 309.372 94.4744 316.035 97.9907C317.492 98.818 318.95 98.1975 319.783 96.9565C322.698 92.8197 321.865 87.2351 318.95 83.3052C317.284 81.0299 313.953 82.271 314.577 85.1667C314.994 88.2693 317.076 91.165 315.202 94.2676C316.451 93.8539 317.701 93.6471 318.95 93.2334C312.495 90.1308 307.289 85.9941 302.5 80.8231C300.834 78.9616 297.295 81.4436 298.96 83.512C302.708 88.2693 304.374 94.0607 306.248 99.6454C306.456 100.886 308.122 100.886 307.914 99.6454Z" fill="#154945"/>
<path d="M334.983 70.4815C324.155 75.2388 319.783 90.5448 331.86 96.9568C336.024 99.232 342.479 99.4389 345.811 95.509C349.559 90.7517 345.811 85.3739 341.23 83.3055C340.814 85.9944 340.605 88.6833 340.189 91.3722C343.937 90.1312 348.518 90.5448 351.849 88.2696C354.14 86.8217 354.14 83.7192 351.849 82.2713C347.685 79.5824 342.271 81.2371 337.898 82.4781C333.734 83.7192 333.526 89.9243 337.898 91.1653C338.731 91.3722 340.189 90.9585 339.356 89.9243C339.356 89.9243 336.857 89.5106 336.441 89.3038C334.567 88.6833 333.109 87.4423 332.485 85.5807C331.235 81.0303 335.816 76.8935 337.69 73.1704C338.523 71.3089 336.649 69.6541 334.983 70.4815Z" fill="#154945"/>
</g>
<g opacity="0.25" clip-path="url(#clip1)">
<path d="M4.94071 30.7106C8.38569 28.8759 11.702 26.9209 15.147 25.0862C16.04 24.5971 16.417 23.3849 15.7723 22.5416C15.2555 21.6976 14.1017 21.3412 13.0813 21.9521C9.63634 23.7868 6.32003 25.7418 2.87505 27.5765C1.98198 28.0656 1.60498 29.2777 2.24972 30.121C2.76649 30.9651 3.91967 31.2004 4.94071 30.7106Z" fill="#1B5650"/>
<path d="M34.0408 16.8711C34.0408 16.8711 34.6779 16.3834 34.296 16.7486C34.4233 16.6269 34.6786 16.5044 34.8058 16.3827C35.1884 16.1385 35.4429 15.895 35.8255 15.6509C36.4626 15.1632 37.2284 14.7958 37.9935 14.3074C38.7593 13.9401 39.3971 13.5734 40.1628 13.206C40.5461 13.0828 40.9286 12.8386 41.3119 12.7154C41.4398 12.7147 41.9504 12.4698 41.5671 12.593C41.6944 12.4713 41.9504 12.4698 42.2056 12.3473C43.0994 11.9792 43.8624 11.1278 43.4729 10.1621C43.2121 9.31659 42.0555 8.47623 41.1624 8.96535C37.5867 10.3168 34.3976 12.1501 31.3394 14.4666C30.575 15.076 30.5826 16.4069 31.3539 17.0075C32.1253 17.608 33.2764 17.4804 34.0408 16.8711Z" fill="#1B5650"/>
<path d="M68.4176 8.08384C74.1711 7.08288 79.9245 6.08192 85.6772 4.95996C86.7003 4.8331 87.2053 3.62022 86.9445 2.77472C86.683 1.80824 85.6564 1.33013 84.634 1.57798C78.8806 2.57895 73.1271 3.57991 67.3744 4.70187C66.3513 4.82873 65.8463 6.04161 66.1071 6.8871C66.3686 7.85359 67.3945 8.21071 68.4176 8.08384Z" fill="#1B5650"/>
<path d="M101.198 11.0411C103.382 12.6015 105.44 14.2837 107.624 15.8442C108.01 16.205 108.395 16.3237 109.035 16.3201C109.547 16.3171 110.057 16.0722 110.44 15.828C111.076 15.2194 111.325 13.887 110.425 13.2872C108.241 11.7267 106.183 10.0445 103.999 8.48405C103.613 8.12327 103.228 8.00447 102.588 8.00814C102.076 8.01107 101.566 8.256 101.183 8.50019C100.547 9.22982 100.298 10.4412 101.198 11.0411Z" fill="#1B5650"/>
<path d="M117.822 31.1524C119.755 33.5613 121.562 36.0919 123.495 38.5008C123.753 38.8623 124.139 39.2231 124.652 39.3412C125.164 39.4592 125.676 39.4563 126.186 39.0904C126.951 38.602 127.456 37.3891 126.811 36.5458C124.878 34.1369 123.072 31.6063 121.138 29.1974C120.88 28.8359 120.494 28.4751 119.981 28.3571C119.469 28.239 118.957 28.2419 118.447 28.6079C117.683 29.2172 117.177 30.3091 117.822 31.1524Z" fill="#1B5650"/>
<path d="M126.51 50.8259C128.067 54.447 129.495 58.0687 131.052 61.6898C131.441 62.5345 132.341 63.2554 133.362 62.8865C134.257 62.6394 135.146 61.5453 134.63 60.7013C133.073 57.0802 131.644 53.4585 130.088 49.8374C129.699 48.9927 128.799 48.2718 127.777 48.6407C127.01 48.7661 126.121 49.8602 126.51 50.8259Z" fill="#1B5650"/>
<path d="M145.476 77.4582C148.293 77.805 151.111 78.1519 153.8 78.4995C154.313 78.6175 154.825 78.6146 155.335 78.2487C155.717 78.0045 156.099 77.6393 156.224 77.1546C156.475 76.3062 155.957 75.0992 154.932 74.984C152.115 74.6372 149.297 74.2903 146.607 73.9428C146.095 73.8247 145.583 73.8276 145.073 74.1935C144.691 74.4377 144.309 74.8029 144.183 75.2876C143.932 76.1361 144.323 77.3438 145.476 77.4582Z" fill="#1B5650"/>
<path d="M184.753 75.1756C187.305 73.709 189.857 72.3634 192.408 70.8968C193.301 70.4076 193.678 69.1955 193.033 68.3522C192.516 67.5082 191.362 67.1518 190.342 67.7626C187.791 69.2292 185.239 70.5748 182.688 72.0414C181.795 72.5306 181.418 73.7427 182.062 74.586C182.706 75.3083 183.86 75.6647 184.753 75.1756Z" fill="#1B5650"/>
<path d="M215.931 66.6482C216.316 66.767 216.7 66.8858 217.086 67.1256C217.342 67.2451 216.829 67.0061 217.086 67.1256C217.214 67.1249 217.214 67.2459 217.342 67.2451C217.599 67.3647 217.727 67.3639 217.984 67.4835C218.754 67.842 219.523 68.2006 220.294 68.6802C220.679 68.92 221.065 69.1598 221.322 69.4003C221.451 69.5206 221.707 69.6401 221.836 69.7603C221.579 69.5198 221.965 69.8806 222.093 69.8799C222.735 70.3602 223.507 70.9607 224.022 71.5628C224.666 72.2851 226.074 72.277 226.71 71.5474C227.473 70.817 227.467 69.7281 226.695 69.0065C223.992 66.36 220.525 64.3229 216.807 63.1343C215.909 62.7764 214.633 63.5097 214.51 64.3574C214.388 65.4471 214.905 66.2911 215.931 66.6482Z" fill="#1B5650"/>
<path d="M236.375 83.1076C237.531 83.9479 238.432 84.7897 239.334 85.8736C239.206 85.7533 239.077 85.633 239.076 85.512C239.463 85.9938 239.85 86.4756 240.108 86.9581C240.366 87.3196 240.752 87.6804 241.265 87.7985C241.778 87.9165 242.289 87.9136 242.799 87.5477C243.182 87.3035 243.564 86.9383 243.689 86.4536C243.814 85.9689 243.811 85.4849 243.425 85.0031C242.263 83.3158 240.846 81.751 239.175 80.4296C239.046 80.3093 238.79 80.1898 238.533 80.0702C238.276 79.9507 238.02 79.9522 237.764 79.9537C237.253 79.9566 236.742 80.2015 236.359 80.4457C235.978 80.8109 235.724 81.2963 235.855 81.7796C235.858 82.2635 235.989 82.7468 236.375 83.1076Z" fill="#1B5650"/>
<path d="M257.482 103.799C258.644 105.607 259.935 107.536 261.097 109.344C261.614 110.188 262.896 110.544 263.788 109.934C264.681 109.445 265.059 108.353 264.413 107.389C263.251 105.581 261.96 103.652 260.798 101.844C260.281 101 258.999 100.644 258.107 101.254C257.342 101.743 256.964 102.834 257.482 103.799Z" fill="#1B5650"/>
<path d="M273.35 125.729C274.008 128.871 275.561 131.887 277.751 134.416C278.009 134.777 278.65 134.895 279.162 134.892C279.674 134.889 280.184 134.644 280.567 134.4C280.948 134.035 281.202 133.549 281.071 133.066C281.068 132.582 280.81 132.22 280.551 131.738C280.809 132.099 280.423 131.618 280.423 131.618C280.294 131.497 280.165 131.377 280.036 131.136C279.779 130.895 279.649 130.533 279.391 130.172C279.003 129.569 278.616 128.966 278.356 128.362C278.228 128.242 278.227 128.121 278.098 127.88C278.228 128.363 278.097 127.759 277.968 127.639C277.838 127.276 277.708 126.914 277.579 126.673C277.319 125.948 277.187 125.344 277.055 124.619C276.794 123.653 275.638 123.054 274.744 123.422C273.595 123.792 273.088 124.763 273.35 125.729Z" fill="#1B5650"/>
<path d="M288.818 145.121C288.959 147.419 289.997 149.833 292.053 151.273C292.439 151.634 292.824 151.753 293.464 151.749C293.975 151.746 294.486 151.501 294.869 151.257C295.25 150.892 295.504 150.406 295.373 149.923C295.37 149.439 295.239 148.956 294.853 148.595C294.467 148.234 293.953 147.874 293.695 147.513C293.824 147.633 293.953 147.753 293.953 147.874C293.567 147.393 293.308 146.91 293.049 146.428C293.178 146.548 293.178 146.669 293.308 146.91C293.049 146.428 292.918 145.823 292.786 145.219C292.787 145.34 292.788 145.582 292.917 145.702C292.916 145.46 292.915 145.339 292.913 145.097C292.911 144.613 292.652 144.131 292.394 143.769C292.008 143.409 291.495 143.169 290.983 143.293C289.704 143.422 288.813 144.153 288.818 145.121Z" fill="#1B5650"/>
<path d="M300.685 161.146C301.329 161.989 301.973 162.711 302.618 163.555C302.747 163.796 302.876 163.916 303.133 164.036C303.261 164.156 303.518 164.275 303.775 164.395C304.031 164.514 304.287 164.513 304.543 164.39C304.799 164.389 305.054 164.267 305.309 164.144C305.692 163.9 306.073 163.535 306.199 163.05C306.198 162.929 306.197 162.687 306.324 162.565C306.322 162.202 306.192 161.961 306.062 161.599C305.418 160.755 304.774 160.033 304.129 159.19C303.999 158.949 303.871 158.828 303.614 158.709C303.485 158.589 303.229 158.469 302.972 158.35C302.716 158.23 302.46 158.231 302.204 158.354C301.948 158.355 301.693 158.478 301.438 158.6C301.055 158.844 300.673 159.21 300.548 159.694C300.549 159.815 300.55 160.057 300.423 160.179C300.426 160.663 300.555 160.904 300.685 161.146Z" fill="#1B5650"/>
<path d="M328.267 172.725C330.091 178.28 332.297 183.592 335.015 188.9C335.404 189.745 336.813 189.979 337.706 189.49C338.727 189 338.849 187.91 338.331 186.945C335.871 181.998 333.667 176.929 331.972 171.615C331.193 169.562 327.486 170.43 328.267 172.725Z" fill="#FFE500"/>
<path d="M328.72 184.943C331.913 183.715 335.105 182.366 338.297 181.137C338.808 180.892 339.191 180.769 339.444 180.284C339.698 179.919 339.823 179.314 339.692 178.83C339.431 177.985 338.274 177.145 337.381 177.634C334.189 178.862 330.997 180.211 327.804 181.439C327.294 181.684 326.911 181.808 326.658 182.293C326.404 182.657 326.279 183.263 326.41 183.746C326.671 184.592 327.699 185.312 328.72 184.943Z" fill="#FFE500"/>
</g>
<defs>
<clipPath id="clip0">
<rect width="310.465" height="81.7012" fill="white" transform="translate(42.8428 30.3545)"/>
</clipPath>
<clipPath id="clip1">
<rect width="357.062" height="189.722" fill="white" transform="translate(-18.3887 2.04688) rotate(-0.328386)"/>
</clipPath>
</defs>
</svg>
