<svg width="375" height="312" viewBox="0 0 375 312" fill="none" xmlns="http://www.w3.org/2000/svg">
<path d="M323.846 208.877C326.368 203.027 327.847 197.103 329.152 191.03C329.239 190.66 329.326 189.993 329.413 189.771C329.5 189.031 329.587 188.364 329.674 187.624C329.848 185.995 330.022 184.44 330.109 182.81C330.282 180.367 330.369 177.849 330.456 175.405C330.195 175.405 330.022 175.331 329.761 175.183C322.541 170.888 315.496 166.222 308.711 160.298C306.537 158.373 304.188 157.558 301.84 156.596C299.752 155.781 299.752 155.781 284.009 152.819C283.226 150.005 284.879 148.154 270.44 141.637C263.22 138.379 256.61 138.156 250.608 133.417C248.26 131.566 243.389 131.566 237.126 128.085C234.691 126.678 231.994 121.569 229.211 120.384C225.906 118.977 219.643 107.573 215.99 106.832C214.424 105.869 208.249 114.385 203.204 116.385C200.681 118.755 196.332 118.014 194.158 121.198C188.33 116.015 181.285 103.87 180.676 103.129C180.676 103.129 178.327 103.277 175.196 100.389C174.587 99.797 169.107 100.612 168.672 101.648C166.15 102.537 165.106 103.722 161.714 106.98C155.364 113.201 149.102 119.199 143.187 126.53C137.794 133.195 131.967 137.268 125.617 139.86C119.702 142.303 112.135 135.861 109.7 136.453C109.613 136.453 94.5649 145.932 90.1289 149.487C82.0396 155.855 71.689 154.966 67.8618 157.929C62.469 162.224 50.3787 169.037 44.2031 170.888C38.4623 172.591 26.8069 175.701 22.2839 181.477C20.5443 183.699 -11.2036 193.252 -13.1172 194.955L52.3793 244.645C54.9017 244.645 57.4241 244.793 59.8596 244.941C62.2951 245.089 64.7305 245.089 66.992 243.089C75.5161 235.388 74.6463 251.087 84.0402 248.94C86.5627 248.347 99.9577 253.235 106.742 254.197C120.746 256.197 143.97 216.579 148.058 216.579C150.319 216.579 161.105 231.463 165.715 241.164C169.716 249.384 174.587 253.827 180.85 253.827C183.459 253.827 186.069 254.271 188.678 253.827C196.245 252.568 201.464 259.011 205.378 268.86C211.119 283.152 244.78 239.535 250.608 253.827C253.74 261.455 282.965 236.83 288.706 237.423C292.533 237.867 269.462 285.556 272.506 289.629C273.463 290.962 262.099 290.37 263.229 289.629C272.449 283.335 256.496 277.163 266.325 277.163C266.325 248.356 281.714 267.088 281.714 282.934C284.932 283.23 299.665 282.717 300.1 277.163C300.622 269.387 288.184 302.554 288.706 294.778C289.489 282.634 292.794 274.414 300.1 271.748C307.928 268.86 312.625 260.048 315.061 247.162C316.453 239.683 319.323 233.389 320.193 225.465C320.976 217.986 321.845 213.765 323.585 211.469C323.324 210.358 323.498 209.618 323.846 208.877Z" fill="#CDCDCD"/>
<path d="M328.542 174.812C321.322 170.517 314.277 165.852 307.492 159.928C305.318 158.002 302.969 157.188 300.621 156.225C299.49 155.781 290.966 152.671 281.224 152.004C273.396 151.486 268.96 154.448 258.435 150.893C257.653 149.412 252.434 145.265 251.39 143.562C250.52 142.081 250.955 139.045 249.476 137.564C242.518 130.825 239.387 129.64 235.907 127.715C233.472 126.308 230.775 121.198 227.992 120.013C224.687 118.606 218.424 107.202 214.771 106.461C214.249 106.091 215.032 108.165 214.075 109.72C212.944 109.868 210.509 109.35 209.813 110.016C207.465 112.312 204.594 114.978 201.985 116.014C199.462 118.384 195.113 117.643 192.939 120.828C187.111 115.644 180.762 103.796 180.24 103.129C180.24 103.129 174.673 102.759 173.89 102.166C172.498 101.204 168.236 100.982 167.454 101.204C164.931 102.092 163.887 103.277 160.495 106.536C154.146 112.756 147.883 118.754 141.968 126.085C136.575 132.75 130.748 136.823 124.398 139.415C118.483 141.859 110.916 135.416 108.481 136.009C108.394 136.009 93.3461 145.487 88.91 149.042C80.8208 155.41 70.4701 154.522 66.643 157.484C61.2502 161.779 49.1599 168.592 42.9842 170.443C40.8967 171.11 47.3333 173.85 50.6385 176.886C53.161 176.96 56.1183 179.033 59.8585 177.626C62.7289 176.516 66.382 171.702 68.7305 171.628C77.4286 171.406 84.561 170.813 88.2142 169.999C88.91 169.851 96.3034 173.331 107.176 171.628C109.872 171.184 110.046 173.479 112.917 172.961C113.786 172.813 114.134 172.887 114.134 174.146C114.134 174.664 111.525 175.923 112.134 176.442C112.482 176.738 113.613 178.663 113.7 178.885C114.134 180.144 114.482 180.292 115.265 180.144C115.439 180.144 117.005 179.478 117.092 178.663C117.179 177.774 118.049 175.997 118.57 175.775C119.353 175.331 118.918 173.924 119.44 173.183C119.701 173.035 121.006 173.924 121.963 173.924C122.919 173.998 124.398 174.59 124.398 174.59C125.181 175.997 124.572 176.738 124.137 179.033C124.05 179.774 122.224 179.996 121.093 181.033C121.441 181.551 121.354 185.032 122.137 185.328C122.572 185.476 123.441 188.512 124.659 188.216C125.007 188.142 126.921 184.439 126.921 184.513C128.399 185.106 130.487 176.293 130.835 175.923C131.183 174.59 131.183 172.295 133.444 170.147C133.966 169.629 136.836 169.925 137.358 169.332C137.793 168.814 138.141 168.074 138.489 167.333C139.185 165.704 139.533 164.001 139.794 163.927C141.533 163.556 142.925 162.371 144.491 161.853C145.882 161.409 147.361 161.557 148.84 161.335C153.189 160.594 151.014 159.039 154.667 158.965C164.67 158.743 165.714 157.04 167.715 157.04C168.758 157.04 168.584 158.743 171.89 160.816C172.411 161.187 170.411 162.223 169.28 166.444C168.758 168.444 165.018 169.11 164.235 171.48C163.539 173.702 166.062 180.218 165.366 182.44C164.67 184.587 162.148 185.994 161.539 187.994C160.843 190.512 163.105 191.178 163.452 193.103C163.626 194.14 164.67 195.399 164.583 196.362C164.409 198.361 162.931 199.916 163.279 200.064C164.061 200.435 172.846 213.394 175.282 211.024C175.456 210.802 175.63 208.729 175.63 206.581C175.978 204.656 177.282 203.397 177.108 203.545C176.674 204.285 178.152 202.286 178.587 202.286C179.022 202.286 177.456 200.213 177.282 200.213C176.76 200.064 176.5 199.398 176.152 199.102C175.456 198.509 174.238 197.25 173.89 196.584C172.498 193.622 172.498 190.66 172.846 190.067C173.716 188.364 179.718 179.7 181.023 177.7C184.937 176.886 187.198 178.293 188.851 176.664C191.808 173.776 194.939 168.814 195.548 168.814C201.463 165.482 208.334 174.146 208.334 174.146C208.334 173.702 216.424 173.331 222.077 169.629C223.469 168.296 224.861 165.185 226.166 163.853C229.21 163.853 230.689 163.408 231.906 163.334C232.254 163.556 233.82 165.037 234.081 166.741C233.646 168.814 234.951 170.888 232.689 172.961C232.689 174.072 233.037 174.886 234.168 175.331C235.646 175.849 243.736 175.183 245.475 175.849C247.302 176.516 258.087 176.886 260.175 177.626C288.183 187.327 327.324 195.177 328.194 190.734C328.281 190.363 328.368 189.697 328.455 189.475C328.542 188.734 328.629 188.068 328.716 187.327C328.89 185.698 329.064 184.143 329.151 182.514C329.325 180.07 329.412 177.552 329.499 175.109C329.064 175.035 328.803 174.96 328.542 174.812Z" fill="#F0F4F3"/>
<path d="M324.715 209.914C324.628 203.99 325.846 198.287 327.151 192.511C327.151 191.993 327.151 191.549 327.151 191.03C327.412 187.328 328.803 183.847 331.5 180.737C334.37 177.479 341.329 180.959 345.417 179.848C348.026 179.256 348.287 179.256 348.287 179.256C348.722 179.182 352.201 178.663 355.941 179.182C361.769 179.996 368.641 181.996 369.597 181.922C368.989 180.367 350.723 168 350.81 167.555C347.939 161.705 327.325 156.67 325.672 150.597C324.454 150.153 323.15 149.561 321.758 148.968C320.888 148.598 320.018 148.154 319.149 147.783C309.146 143.192 305.319 143.784 298.186 151.264C290.097 159.706 278.703 164.667 268.961 171.406C261.306 176.59 252.086 177.553 242.519 176.072C239.387 175.627 236.343 175.183 233.212 174.516C225.47 172.887 219.382 174.887 214.076 179.848C206.422 186.957 200.681 195.177 193.809 202.805C192.331 204.434 192.853 205.545 194.766 206.655C198.071 208.581 201.377 210.432 204.421 212.58C214.163 219.17 223.731 225.909 234.516 231.241C241.649 234.721 249.216 237.165 257.479 237.536C271.396 238.054 285.313 238.498 299.23 239.091C302.274 239.239 304.101 238.35 305.58 236.054C308.972 230.723 312.103 225.169 316.365 220.355C319.149 217.171 322.106 214.061 324.976 211.025C324.715 210.654 324.715 210.284 324.715 209.914Z" fill="#679289"/>
<path d="M314.539 163.113C312.973 161.928 312.625 160.743 312.538 160.595C312.277 160.002 309.146 154.819 309.146 154.522C308.885 154.3 307.928 149.191 310.538 150.524C310.798 150.672 310.19 148.228 308.189 147.561C305.841 146.821 305.232 145.858 304.971 145.784C304.797 145.932 304.536 146.006 304.275 146.08C304.014 146.229 303.84 146.377 303.492 146.525C303.405 146.599 303.318 146.599 303.231 146.673C303.144 146.821 278.094 165.038 268.874 171.332C261.22 176.516 252 177.479 242.432 175.998C239.3 175.553 236.256 175.109 233.125 174.443C225.383 172.814 219.295 174.813 213.989 179.775C206.335 186.884 200.594 195.103 193.723 202.731C192.244 204.36 192.766 205.471 194.679 206.582C197.985 208.507 211.554 202.064 214.685 204.212C224.427 210.803 236.169 216.875 246.955 222.207C250.869 224.132 263.829 215.764 268.439 198.806C277.137 191.919 280.877 194.289 284.182 193.104C285.835 192.512 289.836 193.771 292.185 193.326C294.881 192.808 295.925 190.438 297.143 189.179C299.578 186.439 298.882 186.069 300.535 183.996C300.796 184.07 302.97 181.107 305.058 179.923C305.406 179.7 307.406 177.405 307.754 177.257C308.102 176.59 312.016 172.739 312.886 171.777C313.147 171.481 313.756 168.741 314.626 167.63C314.887 167.334 316.365 164.52 314.539 163.113Z" fill="#91B7AC"/>
<path d="M350.722 167.556C347.851 161.706 322.975 149.561 321.67 148.969C320.8 148.598 319.931 148.154 319.061 147.784C315.843 146.303 313.233 145.414 310.972 145.044C311.668 145.933 313.581 145.562 314.103 146.525C314.538 146.599 318.974 148.376 320.366 150.82C320.714 150.968 324.019 154.449 324.28 154.597C327.933 155.411 336.805 167.038 340.284 169.037C341.937 170 345.851 176.442 347.417 177.183C349.591 178.22 348.286 178.442 350.287 179.108C351.592 179.479 354.027 180.515 355.332 180.663C356.724 180.886 358.028 178.664 359.507 179.849C361.681 180.293 363.769 180.737 365.509 181.182C366.378 180.96 367.248 180.737 368.118 180.589C363.856 176.887 350.722 167.926 350.722 167.556Z" fill="#91B7AC"/>
<path d="M206.595 235.906C203.812 234.721 200.942 233.907 197.897 233.611C192.504 233.092 188.764 230.797 185.72 227.094C179.718 219.689 173.369 212.506 167.28 205.1C163.888 200.953 159.452 198.361 153.015 198.658C149.188 198.88 145.361 198.88 141.447 198.435C135.967 197.843 131.792 195.473 128.226 192.067C123.268 187.402 118.832 182.292 112.308 178.96C111.264 178.441 110.395 177.701 110.134 176.738C109.525 174.739 108.046 174.368 105.872 174.516C102.74 174.664 99.522 175.035 96.8256 176.368C92.3027 178.589 87.3448 178.886 82.3869 178.96C80.5603 178.96 78.8206 178.96 76.994 179.034C72.732 179.182 68.9918 180.589 66.3824 183.329C63.599 186.217 60.1198 187.402 55.9447 187.772C47.4206 188.512 39.1575 189.993 31.4162 193.326C28.8937 194.437 26.1104 194.733 23.327 194.585C20.8915 194.437 -10.8564 194.955 -13.2919 194.807L-19.8154 218.06C-11.9872 217.837 31.1552 220.207 36.9829 224.576C41.071 227.686 45.2461 230.723 49.0733 233.981C55.3359 239.313 62.8162 240.794 71.2533 239.905C76.0373 239.387 80.8212 238.646 85.6051 238.054C93.1725 237.165 99.696 238.868 105.176 243.608C111.177 248.866 116.048 254.716 120.919 260.714C128.313 269.749 125.007 268.119 138.054 269.823C145.448 270.785 152.145 268.193 158.147 264.713C160.409 263.454 162.844 262.491 165.192 261.603C173.804 258.27 181.719 253.975 188.851 248.643C194.331 244.57 200.246 241.016 206.682 238.054C207.291 237.758 208.248 237.684 208.248 237.017C208.161 236.351 207.204 236.203 206.595 235.906Z" fill="#679289" stroke="#679289" stroke-width="3" stroke-miterlimit="10"/>
<path d="M357.216 276.202C361.544 275.424 361.856 272.471 364.292 266.103C365.683 262.4 365.161 261.371 366.031 257.446C366.031 253.118 369.125 253.599 373.086 253.599C379.609 253.599 375.251 248.792 377.426 243.312C378.904 239.535 380.035 239.165 384.21 240.868C388.211 242.571 394.474 248.199 397.344 251.162C401.345 255.235 406.477 256.271 413.001 254.79C410.913 252.791 406.129 249.014 404.042 246.941C397.779 240.868 390.386 235.685 383.427 230.205C379.861 227.391 375.338 227.613 371.685 230.427C370.032 231.686 367.945 232.574 366.031 233.537C365.509 233.833 364.987 233.907 364.292 233.685C357.072 231.538 350.027 229.242 343.242 226.28C341.068 225.317 338.719 224.873 336.371 224.428C331.065 223.392 325.933 221.911 320.888 219.985C316.887 218.43 330.369 179.7 326.281 180.663C321.236 181.848 319.758 197.251 315.061 199.176C311.233 200.657 304.275 213.395 300.1 213.987C296.882 214.431 287.314 226.428 284.269 227.168C278.181 228.649 262.437 229.908 259.567 226.058C255.74 220.948 250.956 217.764 244.084 216.357C239.387 215.394 235.038 213.543 231.733 210.284C230.515 209.1 229.037 207.989 227.21 207.47C221.643 205.767 217.816 202.509 215.12 198.066C213.38 195.252 209.727 194.215 206.596 192.808C205.987 192.512 205.378 192.734 204.943 193.252C202.595 196.066 199.028 197.325 195.636 198.954C189.287 202.064 183.546 205.989 177.631 209.618C172.238 212.95 166.411 214.95 160.061 216.209C154.146 217.393 148.319 219.023 143.013 221.689C140.751 222.799 138.316 222.947 135.793 223.318C135.446 223.392 135.011 223.318 134.75 223.17C128.748 219.763 122.833 221.096 116.919 223.466C111.526 225.613 106.22 227.835 100.566 229.242C99.3485 229.538 98.1308 229.982 96.9131 229.908C90.6505 229.686 84.6488 230.723 78.5602 231.612C76.2987 231.908 65.6 235.166 54.8144 234.352C37.8532 233.093 18.6305 227.687 15.9341 229.464C14.1945 230.575 86.8233 268.12 86.8233 268.12C89.3458 268.12 91.8682 268.194 94.3037 268.268C96.7391 268.342 99.1746 268.342 101.436 267.379C109.96 263.528 109.09 271.304 118.484 270.267C121.007 269.971 134.402 272.415 141.186 272.859C155.19 273.822 178.414 254.198 182.502 254.198C184.764 254.198 195.549 261.529 200.159 266.342C204.16 270.415 209.031 272.637 215.294 272.637C217.903 272.637 220.513 272.859 223.122 272.637C230.689 272.045 235.908 275.229 239.822 280.116C245.563 287.225 252.835 283.588 258.663 290.623C261.794 294.4 265.621 297.065 271.362 297.362C275.189 297.584 283.858 299.822 287.225 300.783C288.182 301.45 303.407 298.749 304.537 298.379C310.412 296.455 316.079 297.362 320.888 297.362C322.628 297.362 327.805 291.572 329.545 291.646C330.506 288.761 337.018 284.858 340.384 282.454C342.788 279.568 349.04 279.501 350.002 278.606C351.926 277.577 356.741 276.287 357.216 276.202Z" fill="#1D7874"/>
<path d="M100.653 259.37C103.002 257.371 135.358 243.905 138.055 242.053C140.577 240.35 140.142 238.202 141.708 235.981C142.491 234.796 145.535 233.611 146.231 232.352C147.188 230.649 148.84 227.909 149.971 226.206C153.711 220.282 178.849 211.692 183.807 206.508C181.545 207.248 165.628 214.802 164.845 214.95C163.54 215.32 161.453 215.913 160.148 216.135C154.233 217.32 148.405 218.949 143.1 221.615C140.838 222.725 138.403 222.874 135.88 223.244C135.532 223.318 135.097 223.244 134.836 223.096C128.835 219.689 122.92 221.022 117.005 223.392C111.613 225.539 106.307 227.761 100.653 229.168C99.4354 229.464 98.2176 229.909 96.9999 229.834C90.7373 229.612 84.7356 230.649 78.647 231.538C76.3855 231.834 58.2974 224.206 47.5118 223.392C30.5505 222.133 1.63661 214.357 -1.05979 216.135C-2.27752 216.949 -12.404 260.914 8.55834 271.874C40.1323 274.762 22.4864 283.562 100.653 259.37Z" fill="#3E8C86"/>
<path d="M333.674 178.96C330.195 176.812 328.194 178.293 326.28 180.663C324.976 182.366 324.193 184.366 323.671 186.365C322.105 192.808 320.453 199.324 318.887 205.767C317.843 210.284 317.321 229.76 317.582 234.351C317.582 235.018 317.234 235.906 318.104 236.203C318.974 236.499 319.496 235.758 320.192 235.388C321.67 234.573 323.062 234.203 324.802 233.833C328.107 233.166 326.715 231.537 326.628 230.204C326.193 223.688 326.889 202.212 327.324 195.696C327.672 189.771 328.629 183.847 333.674 178.96Z" fill="#F0F4F3"/>
<path d="M215.727 116.014C217.728 117.792 218.772 119.273 219.12 121.05C219.554 122.827 220.772 124.012 222.86 123.938C228.426 123.864 232.428 126.678 235.646 130.751C237.907 133.639 240.778 136.009 242.952 138.897C243.474 139.563 244.518 140.526 243.735 141.044C242.865 141.711 242.169 140.452 241.474 139.933C240.343 139.119 239.212 138.082 237.82 137.786C231.906 136.527 226.687 133.121 221.12 130.973C214.423 128.455 210.508 122.679 211.465 117.051C211.639 116.014 211.378 114.459 213.031 114.311C214.597 114.163 215.205 115.644 215.727 116.014Z" fill="#84B7AB"/>
<path d="M173.63 105.87C173.891 104.463 173.63 105.87 171.629 102.833C169.281 103.944 167.802 104.315 167.541 105.425C166.324 110.387 164.323 113.645 159.539 116.385C155.277 118.903 152.233 121.495 151.189 126.012C150.145 130.677 142.578 138.231 133.88 141.933C134.489 142.822 144.839 139.045 148.667 137.046C149.536 136.602 163.54 123.642 151.885 137.638C151.102 138.527 160.583 134.306 161.453 133.936C167.367 130.9 169.716 127.345 171.456 120.31C172.151 115.497 172.238 110.609 173.63 105.87Z" fill="#84B7AB"/>
<path d="M173.63 209.988C173.543 209.84 173.369 209.766 173.195 209.692C173.021 209.618 172.934 209.47 172.76 209.396L172.673 209.322C172.499 209.248 172.412 209.1 172.238 209.026L172.151 208.952C172.064 208.878 172.064 208.804 171.977 208.729C171.89 208.581 171.716 208.433 171.542 208.359C171.455 208.137 171.281 207.989 171.194 207.767C170.759 206.952 170.15 206.212 169.542 205.545C168.846 204.879 168.15 204.286 167.628 203.472C167.454 203.176 167.106 203.027 166.758 202.953C165.019 200.806 162.67 198.88 159.626 198.14C156.147 197.251 152.145 197.547 148.492 197.473C144.839 197.399 141.099 197.177 137.533 196.215C134.314 195.326 131.531 193.623 129.096 191.623C126.399 189.328 124.138 186.662 121.963 183.996C121.615 183.626 121.18 183.477 120.745 183.477C120.658 183.329 120.484 183.181 120.397 183.107C119.789 182.441 119.006 181.922 118.31 181.404C116.831 180.293 115.266 179.182 113.526 178.368C113.439 178.368 113.352 178.294 113.352 178.294C113.265 178.22 113.091 178.072 112.917 178.072C112.83 177.998 112.743 177.923 112.656 177.849C112.656 177.849 112.569 177.775 112.482 177.775C112.308 177.701 112.221 177.553 112.047 177.479C112.047 177.479 111.96 177.405 111.96 177.331C111.96 177.331 111.96 177.257 111.873 177.183C111.786 176.739 111.699 176.294 111.438 175.85C111.004 175.035 110.221 174.295 109.264 173.925C109.09 173.851 108.916 173.851 108.742 173.776C108.655 173.702 108.568 173.628 108.568 173.554C105.872 173.258 103.088 173.554 101.697 173.776C96.2168 174.517 94.8251 177.331 85.9531 177.849C85.6922 177.849 85.4312 177.923 85.2573 177.923C85.0833 177.849 84.9093 177.775 84.6484 177.775C79.2556 177.627 73.5149 177.553 68.557 179.701C65.9476 180.812 64.2949 182.885 61.7725 184.144C59.25 185.403 56.3797 185.995 53.5093 186.588C53.1614 186.662 52.9005 186.81 52.7265 187.032H52.6395C46.116 187.624 39.8534 188.957 33.6777 190.883C30.7204 191.845 27.7631 192.882 24.5448 193.104C21.1525 193.326 17.9342 193.326 14.542 192.956C14.542 193.178 19.7608 194.289 22.9791 194.141C26.2844 193.993 30.2855 194.289 33.3298 193.326C37.5049 191.994 40.2013 192.142 43.5935 192.216C44.3764 192.216 45.3331 191.475 46.116 191.475C46.6379 191.475 44.4633 192.586 40.9841 194.882C39.7664 195.696 38.5487 197.844 37.4179 198.584C34.6345 200.436 31.3293 201.769 31.8511 201.769C31.9381 201.769 41.0711 199.399 44.4633 198.066C44.9852 197.844 46.3769 196.659 48.2035 196.289C48.2905 196.289 51.5958 193.993 52.2916 193.623C52.9874 193.252 57.4235 192.808 58.2063 192.438C58.9021 192.068 59.685 189.698 62.1204 188.587C62.5553 188.365 64.121 187.476 64.5559 186.884C65.1647 185.995 66.6434 185.033 67.8611 184.44C70.3836 183.329 70.9924 182.515 73.4279 181.256C77.603 179.108 78.3858 179.701 83.1697 179.849C83.1697 179.923 83.1697 179.997 83.0828 180.071C82.9958 180.441 82.5609 181.256 82.9088 181.626C83.3437 182.144 84.4744 181.182 84.4744 183.033C84.4744 183.848 85.4312 184.81 84.0395 185.477C82.5609 186.217 79.6905 187.847 79.2556 188.587C78.7337 189.402 76.8201 190.735 75.8634 191.697C74.9066 192.734 72.3841 192.956 71.0794 193.919C69.4268 195.178 67.8611 195.474 66.4694 196.733C64.7298 198.214 60.8157 199.399 57.5974 199.769C57.8584 200.806 69.0789 200.065 73.4279 199.251C74.3847 199.103 88.4755 192.586 80.5603 200.584C79.6905 201.472 93.0855 195.918 94.0423 195.77C100.827 194.585 95.608 193.252 99.87 187.032C102.218 182.589 106.394 182.144 106.741 181.404C106.828 181.108 107.959 179.701 107.959 179.627C108.046 179.701 108.655 178.516 108.655 178.664L108.916 178.738L109.177 178.442C109.177 178.516 109.264 179.256 109.264 179.33C109.351 179.553 108.829 180.886 109.09 181.774C109.351 182.737 110.221 183.255 110.308 183.477C110.395 183.626 111.004 184.736 111.264 186.662C111.438 187.921 111.091 189.179 111.177 190.438C111.264 192.142 111.786 193.697 111.873 193.845C113.613 195.03 113.7 199.769 115.44 201.028C115.44 201.028 117.788 204.138 120.745 206.286C122.659 207.693 125.442 208.285 126.138 208.804C127.356 209.618 129.965 208.581 132.575 208.581C135.793 208.581 138.924 209.544 139.011 208.729C139.098 206.878 142.143 208.878 145.622 210.136C152.145 212.432 161.017 216.061 161.626 215.839C163.54 215.098 173.63 210.803 173.891 210.729C174.065 210.136 174.065 210.433 173.63 209.988Z" fill="#91B7AC"/>
<path d="M108.307 150.598C109.785 147.192 109.438 138.602 107.872 138.602C107.089 145.563 105.176 144.007 104.48 145.711C103.436 148.377 101.348 149.858 97.8691 150.154C92.8243 150.598 88.1273 156.522 89.1711 160.743C89.519 162.15 90.3888 163.631 92.3024 162.669C98.8259 159.633 105.263 156.374 108.307 150.598Z" fill="#84B7AB"/>
<path d="M346.895 218.8C346.808 218.504 346.722 218.134 346.635 217.838C346.635 216.209 346.548 214.653 346.548 213.024C346.548 212.728 346.548 212.358 346.461 212.062C346.982 207.47 343.851 202.509 336.893 202.509C331.152 202.509 327.934 205.915 327.325 209.692C326.803 210.729 326.542 211.839 326.542 213.024C326.542 214.653 326.455 216.283 326.542 217.986C326.194 219.393 326.194 220.8 326.629 222.207C326.629 222.503 326.716 222.799 326.803 223.096C326.977 226.28 328.977 229.39 332.805 230.649C334.457 231.389 336.371 231.76 338.632 231.464C343.851 230.871 346.808 227.391 347.33 223.096C347.504 221.614 347.243 220.207 346.895 218.8Z" fill="#1D7874"/>
<path d="M371.337 193.622C366.64 191.104 364.379 184.661 358.725 184.661C353.245 184.661 350.636 180.959 350.723 177.33C348.983 177.774 347.156 178.071 345.33 178.441C343.068 178.885 340.807 179.107 338.371 178.737C334.457 178.071 332.109 179.107 330.456 182.366C328.803 185.698 327.673 189.253 327.586 192.807C327.325 199.324 326.542 205.915 326.716 212.431C326.716 212.505 326.716 212.579 326.629 212.727C326.803 213.468 326.89 214.283 326.803 215.097C326.89 215.541 326.977 215.912 326.977 216.356C326.977 219.688 327.151 229.389 326.803 232.648C328.195 232.574 335.675 235.61 350.375 232.574C352.636 232.129 362.03 244.2 362.9 242.349C364.9 237.905 380.122 248.569 383.688 244.496C388.472 239.016 382.21 207.47 382.47 205.618C383.166 202.064 376.295 196.214 371.337 193.622Z" fill="#3E8C86"/>
<g clip-path="url(#clip0)">
<path d="M96.8075 29.1857C97.1685 29.0064 97.5295 28.6478 97.8906 28.4685C98.4321 28.1098 98.6126 26.8547 97.71 26.6754C89.7675 25.2409 74.063 30.2615 78.9368 41.1994C79.8394 43.1718 81.6445 44.7856 83.2691 46.0407C84.3522 46.9373 87.4209 48.0131 87.9624 49.089C89.7675 52.3166 86.6988 54.8269 84.3522 55.7234C80.5615 57.1579 74.6046 56.4407 70.6333 56.2614C68.4672 56.2614 56.1924 56.4407 58.539 52.8545C59.6221 51.2407 58.9001 48.3718 57.0949 47.6545C56.7339 47.4752 56.1924 47.2959 55.8314 47.1166C53.6652 46.0407 51.8601 46.3994 49.8745 47.8338C43.7371 52.6752 45.7227 61.1027 52.0406 64.8682C59.9831 69.5302 74.4241 68.6337 83.0886 66.8406C89.9481 65.4061 99.3347 60.9234 97.71 52.4959C97.1685 49.6269 95.3634 47.2959 93.0167 45.5028C91.3921 44.0683 88.865 43.5304 87.2404 42.2753C83.2691 40.6615 83.4496 36.896 87.6014 31.1581C90.1286 29.7236 93.0168 28.8271 96.0854 28.8271C96.0854 29.0064 96.4465 29.365 96.8075 29.1857Z" fill="#154945"/>
<path d="M100.777 36.3567C99.3325 41.0187 98.4299 45.86 97.3469 50.7014C96.6248 54.1083 95.0002 58.4117 95.9028 61.8185C98.0689 68.8116 112.51 66.3013 117.745 64.8668C121.716 63.7909 121.174 56.9772 116.662 57.5151C115.94 57.5151 115.218 57.6944 114.495 57.8738C111.427 58.7703 111.788 62.7151 114.495 63.7909C114.676 63.7909 114.856 63.9703 115.218 63.9703C114.495 63.253 113.593 62.3565 112.871 61.6392C112.871 61.8186 112.871 61.9979 113.051 62.1772C114.315 60.5634 115.398 58.9496 116.662 57.3358C111.607 57.6944 106.011 58.7703 100.957 57.3358C101.679 57.8738 102.582 58.591 103.304 59.1289C102.04 57.1565 103.304 50.8807 103.484 48.5497C103.665 44.6049 103.845 40.4808 103.484 36.536C103.484 35.2808 101.318 34.9222 100.777 36.3567Z" fill="#154945"/>
<path d="M99.5132 44.2462C103.304 44.9635 108.178 45.1428 111.968 44.7842C115.398 44.4255 115.579 39.4049 111.968 39.2256C109.983 39.2256 107.817 39.5842 105.651 39.9428C103.484 40.3014 101.318 40.4807 99.3327 41.0187C98.0691 41.5566 97.8886 44.0669 99.5132 44.2462Z" fill="#154945"/>
<path d="M120.633 61.6394C122.98 57.1567 122.077 41.9154 128.395 41.5568C135.976 41.1982 133.81 57.1567 135.435 61.8187C136.337 64.6876 141.572 65.4049 142.114 61.8187C143.016 55.9015 141.031 48.5498 138.865 42.9912C137.24 38.8671 133.449 36.1775 128.936 35.9982C124.604 35.8189 120.994 38.6878 119.55 42.6326C117.925 47.8326 116.662 56.0808 118.467 61.2808C119.008 62.1773 120.272 62.5359 120.633 61.6394Z" fill="#154945"/>
<path d="M116.481 52.4945C125.868 53.9289 135.255 54.4669 144.641 55.1841C149.334 55.5427 149.334 48.3704 144.641 48.0118C142.836 47.8324 142.114 48.0117 140.128 48.3704C137.782 48.9083 137.06 52.8531 139.406 53.7496C141.211 54.6462 142.475 54.8255 144.641 55.1841C144.641 52.8531 144.641 50.3428 144.641 48.0118C135.074 48.0118 125.868 48.3704 116.481 49.9841C115.218 50.1635 115.037 52.3152 116.481 52.4945Z" fill="#154945"/>
<path d="M146.266 40.6602C146.446 40.3015 146.807 39.9429 146.988 39.5843C146.085 39.405 145.183 39.0464 144.28 38.8671C143.919 42.4532 145.544 45.8601 146.627 49.0877C148.071 52.8532 149.154 56.4394 149.335 60.5635C151.501 59.6669 153.486 58.7704 155.653 57.8738C155.292 57.3359 154.931 56.9773 154.389 56.6187C151.862 54.467 148.432 56.4394 148.974 59.6669C148.974 60.2048 149.154 60.7428 149.515 61.2807C151.14 65.7634 157.819 63.9703 156.736 59.3083C154.75 51.7773 150.057 45.3222 146.988 38.1498C146.085 35.9981 143.017 37.7912 144.641 39.5843C145.183 40.1222 145.363 40.4809 145.724 40.6602C145.905 41.0188 146.266 40.8395 146.266 40.6602Z" fill="#154945"/>
<path d="M143.017 45.8599C141.393 40.6599 148.974 41.5564 151.14 41.7358C152.404 41.9151 153.668 42.0944 154.931 42.2737C157.458 42.2737 157.639 43.7082 155.473 46.3978C151.501 46.9357 150.057 52.6736 154.39 53.7495C160.888 55.3632 169.372 59.4873 175.69 56.7977C177.495 56.0805 177.315 53.7495 176.232 52.4943C172.08 47.653 162.332 47.653 156.375 46.5771C156.375 48.9081 156.375 51.4184 156.375 53.7495C166.484 51.2391 167.928 40.3013 156.917 37.791C150.057 36.3565 133.992 35.9979 140.851 46.7564C141.754 47.653 143.378 46.9357 143.017 45.8599Z" fill="#154945"/>
<path d="M174.065 33.3085C172.441 40.8395 179.841 48.0119 177.856 55.3635C179.119 54.467 180.383 53.3911 181.647 52.4946C180.022 52.4946 179.119 53.0325 178.217 54.467C174.607 60.3842 186.881 63.0738 185.437 55.3635C184.715 51.4187 183.091 47.8325 181.105 44.2464C179.119 40.6602 177.856 36.7154 175.87 32.9499C175.329 32.2327 174.246 32.412 174.065 33.3085Z" fill="#154945"/>
<path d="M146.627 31.8742C154.931 34.5638 164.498 34.2052 173.163 34.7431C182.008 35.1017 191.936 37.0741 200.42 34.9224C204.211 34.0259 204.03 28.4673 200.42 27.3915C191.936 25.0604 181.827 26.8535 173.163 27.0328C164.498 27.3915 154.931 26.6742 146.627 29.3639C145.364 29.9018 145.544 31.5156 146.627 31.8742Z" fill="#154945"/>
<path d="M148.432 74.0114C146.085 75.2666 146.446 78.8528 146.446 81.0045C146.266 85.4872 146.266 89.9699 146.266 94.4526C146.266 98.2181 152.403 98.0388 152.042 94.4526C151.32 87.9975 150.778 81.5424 150.778 75.2666C150.598 74.0114 149.334 73.4735 148.432 74.0114Z" fill="#154945"/>
<path d="M148.433 95.5287C150.238 96.246 152.223 96.246 154.209 96.246C156.195 96.246 158.541 96.246 160.527 95.5287C163.054 94.6322 162.693 90.8667 159.805 90.8667C157.819 90.8667 155.834 91.4046 153.848 91.7632C152.043 91.9426 150.238 91.9425 148.613 92.8391C147.35 93.1977 147.35 95.1701 148.433 95.5287Z" fill="#154945"/>
<path d="M149.334 85.1289C150.237 85.4876 151.501 85.3082 152.403 85.3082C153.486 85.3082 154.569 85.4876 155.652 85.4876C155.472 83.6945 155.111 82.0807 154.93 80.2876C154.208 80.6462 153.486 80.8255 152.764 81.1841C151.681 81.5428 150.959 82.4393 151.14 83.6945C151.32 84.7703 152.223 85.6669 153.306 85.6669C154.028 85.6669 154.75 85.6669 155.472 85.6669C157.096 85.6669 158.36 84.2324 158.18 82.6186C157.999 81.1841 156.374 79.929 154.93 80.4669C153.847 80.8255 152.764 81.3634 151.681 81.7221C150.598 82.0807 149.515 82.4393 148.793 83.1565C147.89 83.5152 148.432 84.7703 149.334 85.1289Z" fill="#154945"/>
<path d="M136.879 77.598C143.558 77.9566 150.057 77.4187 156.555 77.0601C160.707 76.8808 160.707 70.605 156.555 70.605C155.111 70.605 154.209 70.7843 152.945 71.5015C151.681 72.3981 150.959 74.3705 152.403 75.4463C153.848 76.5222 154.57 76.8808 156.375 77.0601C156.014 74.9084 155.833 72.7567 155.472 70.605C148.974 71.8601 142.656 72.936 136.338 74.9084C135.074 75.4463 135.435 77.598 136.879 77.598Z" fill="#154945"/>
<path d="M166.483 76.5219V76.3426C166.483 75.984 166.122 75.4461 165.761 75.4461H165.581C165.039 75.2667 164.317 75.6254 164.137 76.1633C163.414 78.4943 167.025 81.5426 168.288 83.1563C171.177 86.3839 173.884 89.7908 177.133 92.839C178.577 94.2735 180.744 93.5563 181.466 91.7632C181.827 90.6873 181.646 89.9701 181.105 89.0735C180.202 87.6391 178.397 87.8184 177.494 89.0735L177.675 88.8942C178.758 89.0735 179.661 89.0735 180.744 89.2528C178.216 86.7425 175.509 84.4115 172.982 81.9012C171.718 80.8253 170.635 79.5702 169.371 78.315C168.83 77.7771 168.288 77.4185 167.566 76.8805C167.386 76.7012 167.025 76.5219 166.844 76.3426C166.303 75.8047 166.122 75.984 166.483 76.8805C166.122 77.0598 165.761 77.2391 165.4 77.2391H165.581C165.942 77.4185 166.483 76.8805 166.483 76.5219Z" fill="#154945"/>
<path d="M168.289 90.5081C172.982 86.2047 177.675 82.9771 183.271 79.9289C185.979 78.4944 185.257 74.191 182.369 73.4737C180.383 72.9358 179.119 73.1151 177.495 74.5496C176.412 75.6255 176.412 77.5979 177.495 78.4944C178.217 79.2116 178.758 79.5703 179.661 79.9289C179.661 77.9565 179.661 75.8048 179.661 73.8324C173.524 76.8806 167.747 81.5427 163.595 87.1012C161.61 89.6116 165.942 92.4805 168.289 90.5081Z" fill="#154945"/>
<path d="M186.52 76.1633C187.964 82.7977 193.199 88.7149 196.087 94.8114C197.531 93.7356 198.975 92.6597 200.419 91.4045C196.628 87.2804 193.379 82.977 191.755 77.5977C191.574 76.8805 190.852 75.446 191.033 74.7288C190.491 73.8323 190.852 73.4736 191.935 73.4736C192.657 73.115 193.379 72.9357 194.101 72.7564C195.545 72.3978 197.892 73.115 199.156 72.7564C199.697 72.2185 200.239 71.5012 200.6 70.9633C199.697 71.5012 198.795 71.8599 197.892 72.2185C194.643 73.2943 195.906 78.1357 199.336 77.2391C202.585 76.5219 208.001 73.6529 204.751 69.5288C201.683 65.7633 193.921 66.8392 190.13 68.2737C184.534 70.2461 184.895 74.0116 186.52 79.2115C188.325 85.308 191.755 91.2252 196.448 95.5286C199.156 97.8597 202.585 94.2735 200.419 91.5838C196.087 86.3839 193.018 79.3908 187.603 75.446C187.061 74.7288 186.339 75.446 186.52 76.1633Z" fill="#154945"/>
<path d="M208.182 87.4598C210.167 81.0047 216.666 73.2944 209.626 67.3772C208.362 66.4806 206.918 66.4806 206.016 67.9151C200.42 76.5219 207.099 100.011 220.457 94.0942C222.442 93.1977 221.54 90.6873 219.915 89.9701C217.749 89.2529 215.583 89.4322 213.778 87.6391C212.514 86.3839 211.792 84.2322 211.25 82.6184C209.626 78.6736 208.182 74.1909 210.167 70.2461C209.084 70.6047 208.001 70.784 206.918 71.1427C211.972 73.4737 206.196 83.1564 205.835 87.1012C205.474 88.5356 207.821 88.7149 208.182 87.4598Z" fill="#154945"/>
<path d="M226.052 79.391C226.413 79.391 226.593 79.2117 226.954 79.2117C228.399 78.8531 227.857 76.7014 226.413 76.8807C222.803 77.5979 218.651 79.391 216.485 82.4393C214.138 85.6669 217.748 89.253 220.817 90.1496C224.066 91.2254 230.023 90.6875 231.828 87.4599C233.994 83.6945 230.926 80.2876 227.496 79.0324C224.969 78.1359 223.164 82.0807 225.691 83.5151C227.315 84.4117 228.037 84.7703 225.871 85.3082C224.247 85.6669 222.442 85.6669 220.817 84.9496C219.734 84.4117 219.734 84.7703 220.456 83.6945C220.998 83.1565 221.359 82.6186 221.9 82.0807C223.344 80.8255 224.969 79.7497 226.774 79.0324C226.413 78.4945 225.871 77.9566 225.51 77.2393C225.33 77.5979 225.149 77.9566 224.969 78.3152C224.969 79.2117 225.691 79.5703 226.052 79.391Z" fill="#154945"/>
<path d="M236.341 73.6529H236.16C235.619 73.8322 235.077 74.1909 235.077 74.7288C234.536 77.4184 234.536 80.1081 234.355 82.7977C234.175 85.1287 233.814 87.2804 235.98 88.7149C236.521 89.0735 237.063 89.0735 237.604 88.7149C239.771 87.4597 239.41 84.9494 239.229 82.7977C239.049 80.1081 238.868 77.2391 238.327 74.7288C238.146 74.1909 237.785 73.6529 237.243 73.6529C236.882 73.6529 236.521 73.4736 236.341 73.6529Z" fill="#154945"/>
<path d="M236.522 73.8324C238.688 73.2944 241.034 72.9358 243.381 73.1151C244.103 73.1151 246.269 73.1151 246.811 73.653C247.533 74.7289 246.63 74.3703 245.367 74.7289C242.659 75.6254 238.688 76.1634 238.327 79.5702C237.605 86.2047 249.157 88.5357 253.67 86.7426C256.017 85.6667 255.295 81.722 252.948 81.3633C251.143 81.0047 249.338 81.184 247.533 80.8254C246.63 80.6461 245.908 80.1082 245.006 79.9289C244.284 79.2116 243.922 79.2116 244.103 80.1082C243.922 81.0047 244.103 81.0047 245.006 80.2875C247.352 79.7496 251.143 77.7772 251.323 74.9082C251.865 68.0945 239.049 70.9634 235.799 72.0393C234.716 72.2186 235.258 74.191 236.522 73.8324Z" fill="#154945"/>
<path d="M260.349 72.3978C260.71 77.0598 261.432 82.4391 264.139 86.2046C265.583 88.177 269.555 87.1011 268.472 84.4115C267.569 82.0805 266.305 79.9288 265.222 77.7771C264.5 75.8047 264.139 73.4736 263.056 71.6805C262.515 70.4254 260.349 70.784 260.349 72.3978Z" fill="#154945"/>
<path d="M259.447 65.4047C261.793 65.4047 261.793 61.6392 259.447 61.6392C257.1 61.6392 257.1 65.4047 259.447 65.4047Z" fill="#154945"/>
<path d="M275.873 86.3839C275.693 80.8254 273.527 75.8047 271.361 70.6048C270.278 71.322 269.014 71.8599 267.931 72.5772C271.902 77.7771 277.137 81.9012 282.913 84.9495C284.177 85.6667 285.44 85.1288 286.163 84.0529C288.69 80.4667 287.968 75.6254 285.441 72.2185C283.996 70.2461 281.108 71.322 281.65 73.8323C282.011 76.5219 283.816 79.0323 282.191 81.7219C283.274 81.3633 284.357 81.184 285.441 80.8254C279.845 78.1357 275.332 74.5495 271.18 70.0668C269.736 68.453 266.667 70.6048 268.111 72.3978C271.361 76.5219 272.805 81.5426 274.429 86.3839C274.61 87.4598 276.054 87.4598 275.873 86.3839Z" fill="#154945"/>
<path d="M299.34 61.1013C289.953 65.2254 286.162 78.4943 296.632 84.0529C300.242 86.0253 305.838 86.2046 308.726 82.7977C311.975 78.6736 308.726 74.0116 304.755 72.2185C304.394 74.5495 304.213 76.8805 303.852 79.2115C307.102 78.1357 311.073 78.4943 313.961 76.5219C315.947 75.2667 315.947 72.5771 313.961 71.3219C310.351 68.9909 305.657 70.4254 301.867 71.5012C298.256 72.5771 298.076 77.9564 301.867 79.0322C302.589 79.2115 303.852 78.8529 303.13 77.9564C303.13 77.9564 300.964 77.5977 300.603 77.4184C298.979 76.8805 297.715 75.8046 297.173 74.1909C296.09 70.2461 300.062 66.6599 301.686 63.4323C302.408 61.8185 300.784 60.3841 299.34 61.1013Z" fill="#154945"/>
</g>
<g opacity="0.25" clip-path="url(#clip1)">
<path d="M-3.90681 38.0496C-1.47687 36.1476 1.06462 34.3498 3.49456 32.4478C4.15722 31.9195 4.03966 30.7664 3.48194 30.2451C2.70172 29.6202 1.81477 29.7302 1.15212 30.2584C-1.27783 32.1605 -3.81931 33.9582 -6.24926 35.8603C-6.91191 36.3885 -6.79436 37.5417 -6.23663 38.063C-5.56736 38.6885 -4.68041 38.5785 -3.90681 38.0496Z" fill="#1B5650"/>
<path d="M13.2243 26.6228C16.2107 25.0323 19.0857 23.3375 22.0721 21.747C22.8463 21.323 23.1732 20.2722 22.6142 19.5411C22.1662 18.8094 21.1659 18.5005 20.2814 19.03C17.2949 20.6205 14.42 22.3153 11.4335 23.9058C10.6593 24.3298 10.3325 25.3807 10.8914 26.1117C11.3394 26.8434 12.3391 27.0475 13.2243 26.6228Z" fill="#1B5650"/>
<path d="M38.4509 14.6254C38.4509 14.6254 39.0032 14.2026 38.6722 14.5192C38.7825 14.4137 39.0038 14.3075 39.1141 14.202C39.4458 13.9903 39.6664 13.7793 39.9981 13.5676C40.5504 13.1448 41.2143 12.8263 41.8775 12.403C42.5414 12.0845 43.0943 11.7666 43.7581 11.4481C44.0904 11.3413 44.422 11.1296 44.7542 11.0228C44.8652 11.0222 45.3077 10.8099 44.9755 10.9167C45.0859 10.8112 45.3077 10.8099 45.529 10.7037C46.3038 10.3846 46.9653 9.64655 46.6277 8.80933C46.4016 8.07637 45.3989 7.34786 44.6247 7.77187C41.5248 8.94348 38.7603 10.5327 36.109 12.5409C35.4464 13.0692 35.453 14.223 36.1217 14.7436C36.7903 15.2643 37.7882 15.1536 38.4509 14.6254Z" fill="#1B5650"/>
<path d="M68.2527 7.00714C73.2404 6.1394 78.228 5.27166 83.2151 4.29903C84.102 4.18905 84.5398 3.13761 84.3137 2.40464C84.087 1.56679 83.1971 1.15232 82.3107 1.36718C77.323 2.23492 72.3354 3.10266 67.3483 4.07529C66.4614 4.18527 66.0236 5.23672 66.2497 5.96968C66.4764 6.80753 67.3657 7.11712 68.2527 7.00714Z" fill="#1B5650"/>
<path d="M96.67 9.57104C98.5639 10.9238 100.347 12.3821 102.241 13.7349C102.576 14.0476 102.909 14.1506 103.464 14.1474C103.908 14.1449 104.35 13.9326 104.682 13.7209C105.234 13.1933 105.449 12.0382 104.669 11.5182C102.776 10.1654 100.992 8.70712 99.0982 7.35435C98.7635 7.04159 98.4301 6.93861 97.8754 6.94178C97.4316 6.94433 96.989 7.15665 96.6574 7.36834C96.1063 8.00086 95.8904 9.05104 96.67 9.57104Z" fill="#1B5650"/>
<path d="M111.082 27.006C112.758 29.0943 114.324 31.2881 116 33.3763C116.224 33.6898 116.558 34.0025 117.003 34.1049C117.447 34.2072 117.891 34.2047 118.333 33.8874C118.996 33.4641 119.434 32.4126 118.875 31.6816C117.199 29.5933 115.633 27.3995 113.957 25.3112C113.733 24.9978 113.398 24.6851 112.954 24.5827C112.51 24.4804 112.066 24.4829 111.624 24.8001C110.961 25.3284 110.523 26.2749 111.082 27.006Z" fill="#1B5650"/>
<path d="M118.613 44.0605C119.963 47.1996 121.201 50.3393 122.551 53.4784C122.888 54.2107 123.668 54.8356 124.554 54.5158C125.329 54.3016 126.1 53.3531 125.652 52.6215C124.303 49.4824 123.064 46.3426 121.715 43.2036C121.378 42.4712 120.598 41.8463 119.712 42.1661C119.047 42.2748 118.276 43.2233 118.613 44.0605Z" fill="#1B5650"/>
<path d="M135.054 67.1481C137.497 67.4488 139.939 67.7495 142.271 68.0508C142.715 68.1531 143.159 68.1506 143.601 67.8334C143.933 67.6217 144.264 67.3051 144.372 66.8849C144.59 66.1494 144.14 65.1031 143.252 65.0032C140.81 64.7026 138.367 64.4019 136.035 64.1006C135.591 63.9982 135.147 64.0008 134.705 64.318C134.374 64.5297 134.043 64.8462 133.934 65.2664C133.716 66.0019 134.055 67.0489 135.054 67.1481Z" fill="#1B5650"/>
<path d="M169.104 65.1697C171.316 63.8983 173.528 62.7318 175.74 61.4604C176.514 61.0364 176.841 59.9856 176.282 59.2545C175.834 58.5228 174.834 58.2139 173.949 58.7434C171.738 60.0148 169.525 61.1813 167.314 62.4527C166.539 62.8767 166.213 63.9275 166.772 64.6586C167.33 65.2848 168.33 65.5937 169.104 65.1697Z" fill="#1B5650"/>
<path d="M196.133 57.777C196.466 57.88 196.8 57.9829 197.134 58.1908C197.356 58.2944 196.911 58.0872 197.134 58.1908C197.245 58.1902 197.245 58.2951 197.356 58.2944C197.579 58.398 197.69 58.3974 197.912 58.501C198.58 58.8119 199.247 59.1227 199.915 59.5385C200.249 59.7464 200.583 59.9542 200.806 60.1627C200.918 60.267 201.14 60.3706 201.252 60.4749C201.029 60.2664 201.364 60.5791 201.475 60.5785C202.032 60.9949 202.7 61.5155 203.147 62.0374C203.705 62.6636 204.926 62.6566 205.477 62.0241C206.139 61.3909 206.134 60.4469 205.464 59.8214C203.121 57.5271 200.116 55.7612 196.892 54.7307C196.114 54.4205 195.008 55.0562 194.901 55.791C194.796 56.7357 195.244 57.4674 196.133 57.777Z" fill="#1B5650"/>
<path d="M213.855 72.0457C214.858 72.7742 215.639 73.504 216.421 74.4436C216.309 74.3393 216.198 74.2351 216.197 74.1302C216.533 74.5478 216.868 74.9655 217.092 75.3838C217.316 75.6972 217.65 76.0099 218.095 76.1123C218.539 76.2146 218.983 76.2121 219.425 75.8949C219.757 75.6832 220.088 75.3666 220.196 74.9464C220.305 74.5262 220.302 74.1067 219.967 73.689C218.96 72.2263 217.732 70.8697 216.283 69.7242C216.171 69.6199 215.949 69.5163 215.726 69.4127C215.504 69.309 215.282 69.3103 215.06 69.3116C214.616 69.3141 214.174 69.5265 213.842 69.7381C213.511 70.0547 213.292 70.4756 213.405 70.8945C213.407 71.314 213.521 71.733 213.855 72.0457Z" fill="#1B5650"/>
<path d="M232.154 89.9825C233.161 91.5501 234.28 93.222 235.288 94.7897C235.736 95.5214 236.847 95.8297 237.621 95.3008C238.395 94.8767 238.722 93.9308 238.163 93.0949C237.155 91.5272 236.036 89.8553 235.029 88.2877C234.581 87.556 233.469 87.2477 232.696 87.7766C232.033 88.2 231.705 89.1459 232.154 89.9825Z" fill="#1B5650"/>
<path d="M245.909 108.995C246.479 111.719 247.826 114.333 249.724 116.525C249.948 116.838 250.503 116.94 250.947 116.938C251.391 116.935 251.833 116.723 252.165 116.511C252.496 116.194 252.715 115.774 252.602 115.355C252.6 114.935 252.376 114.622 252.152 114.203C252.375 114.517 252.04 114.099 252.04 114.099C251.929 113.995 251.817 113.891 251.705 113.682C251.482 113.473 251.369 113.159 251.145 112.846C250.81 112.323 250.474 111.801 250.249 111.277C250.137 111.173 250.137 111.068 250.025 110.859C250.138 111.278 250.024 110.754 249.912 110.65C249.8 110.336 249.687 110.022 249.575 109.813C249.349 109.185 249.235 108.661 249.121 108.032C248.894 107.194 247.893 106.676 247.118 106.995C246.121 107.315 245.682 108.157 245.909 108.995Z" fill="#1B5650"/>
<path d="M259.319 125.806C259.441 127.798 260.341 129.891 262.123 131.139C262.458 131.452 262.791 131.555 263.346 131.552C263.79 131.549 264.232 131.337 264.564 131.125C264.895 130.809 265.114 130.388 265.001 129.969C264.999 129.549 264.885 129.13 264.551 128.818C264.216 128.505 263.77 128.193 263.547 127.879C263.658 127.984 263.77 128.088 263.77 128.193C263.435 127.775 263.211 127.357 262.987 126.939C263.098 127.043 263.099 127.148 263.211 127.357C262.987 126.939 262.873 126.415 262.759 125.891C262.759 125.996 262.76 126.206 262.872 126.31C262.871 126.1 262.87 125.995 262.869 125.785C262.867 125.366 262.642 124.948 262.419 124.634C262.084 124.321 261.639 124.114 261.196 124.222C260.087 124.333 259.314 124.967 259.319 125.806Z" fill="#1B5650"/>
<path d="M269.606 139.698C270.165 140.429 270.724 141.055 271.282 141.786C271.395 141.995 271.506 142.1 271.729 142.203C271.84 142.307 272.063 142.411 272.285 142.515C272.508 142.618 272.73 142.617 272.951 142.511C273.173 142.51 273.394 142.403 273.615 142.297C273.947 142.086 274.278 141.769 274.386 141.349C274.386 141.244 274.385 141.034 274.495 140.929C274.493 140.614 274.381 140.405 274.268 140.091C273.709 139.36 273.151 138.734 272.592 138.002C272.48 137.793 272.368 137.689 272.146 137.585C272.034 137.481 271.812 137.378 271.589 137.274C271.367 137.17 271.145 137.172 270.924 137.278C270.702 137.279 270.481 137.385 270.259 137.491C269.928 137.703 269.597 138.02 269.488 138.44C269.489 138.545 269.49 138.755 269.38 138.86C269.382 139.28 269.494 139.489 269.606 139.698Z" fill="#1B5650"/>
<path d="M293.517 149.735C295.098 154.551 297.011 159.156 299.367 163.757C299.704 164.49 300.926 164.692 301.7 164.268C302.585 163.844 302.69 162.899 302.242 162.063C300.109 157.774 298.198 153.38 296.729 148.773C296.053 146.993 292.84 147.746 293.517 149.735Z" fill="#FFE500"/>
<path d="M293.91 160.327C296.678 159.262 299.445 158.093 302.212 157.028C302.655 156.815 302.987 156.709 303.207 156.288C303.427 155.972 303.535 155.447 303.421 155.028C303.195 154.295 302.193 153.566 301.418 153.99C298.651 155.055 295.884 156.225 293.116 157.29C292.674 157.502 292.341 157.609 292.122 158.03C291.902 158.346 291.794 158.871 291.907 159.29C292.133 160.023 293.025 160.647 293.91 160.327Z" fill="#FFE500"/>
</g>
<defs>
<clipPath id="clip0">
<rect width="269.143" height="70.8271" fill="white" transform="translate(46.082 26.3154)"/>
</clipPath>
<clipPath id="clip1">
<rect width="309.538" height="164.471" fill="white" transform="translate(-7 1.77393) rotate(-0.328386)"/>
</clipPath>
</defs>
</svg>
