<svg width="38" height="45" viewBox="0 0 38 45" fill="none" xmlns="http://www.w3.org/2000/svg">
<mask id="mask0" mask-type="alpha" maskUnits="userSpaceOnUse" x="0" y="0" width="38" height="42">
<rect width="38" height="42" fill="#FFE500"/>
</mask>
<g mask="url(#mask0)">
<path d="M10.245 0.911713C4.01063 1.01128 -1.30255 6.85399 -1.15534 13.0874C-0.995952 19.836 -0.893442 28.0816 -0.832612 34.2836C-0.781532 39.4915 3.24033 43.6396 8.44842 43.6563C14.5551 43.6758 22.4387 43.6358 28.7629 43.5913C34.6495 43.5498 39.3261 38.4364 39.1366 32.5528C38.8861 24.7764 38.7629 15.2645 38.7039 8.7587C38.6631 4.25541 35.5491 0.822744 31.0459 0.775145C25.1495 0.712821 16.9612 0.804454 10.245 0.911713Z" fill="#FFE500"/>
</g>
<g clip-path="url(#clip0)" filter="url(#filter0_d)">
<path d="M4.70526 11.6023C4.5486 17.9091 3.452 24.983 4.47028 31.2045C4.5486 31.8864 5.64521 31.8864 5.72354 31.2045C6.74182 24.983 5.64521 17.9091 5.48855 11.6023C5.41022 11.0909 4.70526 11.0909 4.70526 11.6023Z" fill="#154945"/>
<path d="M32.59 11.6023C32.4334 17.9091 31.3368 24.983 32.355 31.2045C32.4334 31.8864 33.53 31.8864 33.6083 31.2045C34.6266 24.983 33.53 17.9091 33.3733 11.6023C33.295 11.0909 32.59 11.0909 32.59 11.6023Z" fill="#154945"/>
<path d="M5.33153 14.5849C5.80151 12.2837 5.56652 9.64169 7.83806 8.78942C9.79628 8.1076 13.3994 8.78942 15.436 8.78942C20.2924 8.78942 25.0704 8.95987 29.9268 8.78942C30.8668 8.78942 30.8668 7.25532 29.9268 7.1701C22.6422 6.82919 15.1227 6.91442 7.83806 7.51101C4.23493 7.76669 4.54824 11.1758 5.33153 14.5849C5.2532 14.6701 5.2532 14.6701 5.33153 14.5849Z" fill="#154945"/>
<path d="M33.1386 14.5848C33.8435 11.1757 34.0785 7.76663 30.5537 7.42572C23.1908 6.91436 15.6712 6.82913 8.3866 7.25527C7.44665 7.34049 7.44665 8.78936 8.3866 8.87459C13.243 9.04504 18.0211 8.78936 22.8775 8.87459C24.9923 8.87459 27.6555 8.36322 29.7704 8.87459C31.2587 9.2155 31.8853 8.95981 32.5119 10.92C31.9636 9.13027 33.0602 14.8405 33.1386 14.5848C33.1386 14.67 33.0602 14.67 33.1386 14.5848Z" fill="#154945"/>
<path d="M4.15698 29.3296C3.68701 34.2728 4.39197 35.8069 8.93505 36.4035C15.6713 37.2558 23.0343 36.8296 29.8489 36.5739C31.1805 36.4887 31.1805 34.358 29.8489 34.2728C24.9925 34.1023 20.1361 34.358 15.2014 34.358C13.1648 34.358 10.9716 34.5285 8.93505 34.2728C5.5669 33.8467 5.72356 32.1421 4.94027 29.0739C4.86194 28.733 4.15698 28.9035 4.15698 29.3296Z" fill="#154945"/>
<path d="M32.5116 29.2443C31.885 31.7159 32.1983 33.4204 29.7701 34.1875C27.5769 34.9545 24.6004 34.5284 22.3288 34.4432C17.4724 34.3579 12.616 34.1875 7.68131 34.3579C6.34972 34.3579 6.34972 36.5739 7.68131 36.6591C14.4959 36.9148 21.7805 37.3409 28.5952 36.4886C33.1382 35.892 33.8432 34.3579 33.3732 29.4148C33.2949 28.9034 32.6683 28.7329 32.5116 29.2443Z" fill="#154945"/>
<path d="M29.2215 13.4773C29.0648 13.3068 28.9082 13.2216 28.7515 13.1364C28.5949 12.8807 28.4382 12.5398 28.2816 12.3693C27.7332 11.6023 26.5583 12.2841 27.0283 13.1364C27.0283 13.2216 27.1066 13.2216 27.1066 13.3068C27.1066 13.1364 27.0283 12.8807 27.0283 12.7103C27.4983 12.7103 27.6549 12.625 27.4199 12.3693C27.3416 12.7103 27.3416 13.0512 27.2633 13.3921C27.3416 13.3068 27.1066 13.5625 27.1066 13.4773C27.4199 13.2216 27.8116 12.8807 28.1249 12.625C28.2816 12.7103 28.2816 12.7955 28.2816 12.9659C27.8116 13.1364 27.2633 13.2216 26.7933 13.3921C26.95 13.4773 26.95 13.5625 26.95 13.6478C27.4199 13.3921 27.8899 13.0512 28.3599 12.7955C28.2816 12.7955 28.3599 12.7955 28.3599 12.7955C28.2032 13.0512 28.0466 13.3921 27.8899 13.6478C27.2633 13.9887 27.7332 13.4773 27.5766 13.3068C27.6549 13.3921 27.3416 13.3068 27.3416 13.3921C26.95 13.1364 26.715 12.9659 26.48 12.5398C26.4017 12.9659 26.4017 13.3921 26.3233 13.8182C26.5583 13.6478 26.715 13.6478 26.7933 13.8182C27.1849 13.3068 27.5766 12.7955 27.8899 12.1989C27.5766 11.9432 27.2633 11.858 26.8716 11.858C26.4017 11.858 26.0883 12.3693 26.1667 12.7955C26.245 13.1364 26.4017 13.4773 26.715 13.733C27.6549 14.5 28.9082 13.3068 28.0466 12.2841C27.1849 11.2614 25.8534 11.3466 24.9134 12.1137C24.6001 12.3693 24.5218 13.0512 24.7567 13.3921C25.3834 14.4148 26.245 15.2671 27.4199 15.2671C28.5165 15.2671 29.5348 14.2443 29.3782 13.0512C29.2998 12.1137 28.2032 11.2614 27.2633 11.6875C26.0883 12.1989 26.48 13.9887 27.4983 14.4148C28.1249 14.6705 28.9082 14.4148 28.9082 13.5625C28.8299 12.7955 28.5949 12.1989 27.9682 11.7728C27.3416 11.2614 26.715 11.9432 26.6366 12.625C26.5583 13.3921 27.0283 14.0739 27.7332 14.2443C28.2816 14.3296 28.7515 13.9887 28.7515 13.3921C28.7515 11.9432 27.1849 11.2614 26.1667 12.1137C25.9317 12.2841 25.9317 12.7955 26.0883 13.0512C26.48 13.6478 27.0283 14.2443 27.7332 13.9034C28.2816 13.6478 28.5949 12.7955 28.2032 12.2841C27.8116 12.625 27.4983 12.8807 27.1066 13.2216C27.4983 13.6478 27.8116 13.9034 28.3599 13.8182C28.6732 13.733 28.9865 13.733 29.2215 13.4773Z" fill="#154945"/>
<path d="M31.7285 8.87482C31.7285 8.96005 31.7285 9.1305 31.7285 9.21573C31.7285 9.38619 31.8068 9.47141 31.9635 9.47141C32.1202 9.47141 32.1985 9.38619 32.1985 9.21573C32.1985 9.1305 32.1985 8.96005 32.1985 8.87482C32.1985 8.70437 32.1202 8.61914 31.9635 8.61914C31.8852 8.61914 31.7285 8.70437 31.7285 8.87482Z" fill="#154945"/>
<path d="M19.8227 14.5849C15.0446 13.7326 11.1282 15.1815 9.56161 20.5508C8.77832 23.1929 8.15169 26.6872 9.95325 28.9031C11.8331 31.2042 15.4363 32.2269 18.0995 32.5679C23.8175 33.3349 29.7705 28.9031 28.1256 22.1701C26.6373 15.7781 19.666 11.0906 13.948 13.7326C12.7731 14.244 13.1647 16.119 14.4963 15.8633C18.8044 14.9258 23.1909 16.3747 25.3841 20.8065C29.2222 28.3917 21.311 31.7156 15.8279 30.2667C14.183 29.8406 12.1465 29.244 10.9715 27.7951C9.24829 25.7497 10.1099 20.977 11.1282 18.6758C12.7731 15.0963 16.3762 14.244 19.8227 14.5849Z" fill="#154945"/>
</g>
<defs>
<filter id="filter0_d" x="0" y="7" width="38" height="38" filterUnits="userSpaceOnUse" color-interpolation-filters="sRGB">
<feFlood flood-opacity="0" result="BackgroundImageFix"/>
<feColorMatrix in="SourceAlpha" type="matrix" values="0 0 0 0 0 0 0 0 0 0 0 0 0 0 0 0 0 0 127 0"/>
<feOffset dy="4"/>
<feGaussianBlur stdDeviation="2"/>
<feColorMatrix type="matrix" values="0 0 0 0 0 0 0 0 0 0 0 0 0 0 0 0 0 0 0.25 0"/>
<feBlend mode="normal" in2="BackgroundImageFix" result="effect1_dropShadow"/>
<feBlend mode="normal" in="SourceGraphic" in2="effect1_dropShadow" result="shape"/>
</filter>
<clipPath id="clip0">
<rect width="30" height="30" fill="white" transform="translate(4 7)"/>
</clipPath>
</defs>
</svg>
