<svg width="117" height="28" viewBox="0 0 117 28" fill="none" xmlns="http://www.w3.org/2000/svg">
<path fill-rule="evenodd" clip-rule="evenodd" d="M4.64455 2.99417C5.22658 2.91117 5.80861 2.83109 6.39162 2.75296L7.0967 2.59085C8.86525 2.18363 10.6348 1.77542 12.4131 1.34183C12.8701 1.23246 13.3203 1.45609 13.7324 1.89457C29.3428 0.315464 45.2149 0.204135 61.0391 0.0937839L65.6319 0.0596042C75.9863 -0.0575833 86.3203 0.0430026 96.6533 0.142612C97.7998 0.177768 98.9541 0.186557 100.109 0.195346C101.264 0.204135 102.419 0.212924 103.564 0.248081C103.792 0.25394 104.022 0.249057 104.256 0.238315C104.551 0.223667 104.851 0.200229 105.153 0.175815C106.874 0.0390964 108.707 -0.107388 110.423 1.44632C113.245 4.06058 114.119 9.08792 115.004 14.1748C115.325 16.0225 115.648 17.878 116.066 19.6289C116.755 22.5723 116.188 25.0274 114.892 24.9727C104.599 24.4385 94.3516 24.2403 84.1631 24.4883C79.5645 24.6104 75.0811 25.3702 70.6016 26.1299C65.3037 27.0274 60.0088 27.9248 54.5303 27.7676C50.2315 27.6348 45.8985 27.3077 41.5635 26.9805L41.5401 26.9776C35.4834 26.5205 29.4229 26.0635 23.4512 26.1397C22.7119 26.1534 21.8565 26.2334 20.919 26.3213C14.2022 26.9493 3.28908 27.9698 0.880875 7.9014C0.693375 6.12015 0.965836 4.06644 1.77931 3.83988C2.58595 3.64359 3.39162 3.45218 4.19533 3.26371C4.31838 3.11722 4.46779 3.02249 4.64455 2.99417ZM15.1377 9.63578C15.2324 9.5264 15.3125 9.39554 15.3789 9.24613C15.9639 9.26175 16.5488 9.2764 17.1338 9.2891C17.0215 9.41019 16.9238 9.55765 16.8399 9.72757C16.2744 9.69828 15.709 9.66996 15.1445 9.63968C15.1426 9.63968 15.1397 9.63578 15.1377 9.63578ZM36.9365 17.7559C37.1016 17.7696 37.2656 17.7832 37.4307 17.7969C37.4121 17.7627 37.3936 17.7285 37.376 17.6944C37.2588 17.6602 37.1445 17.6162 37.0332 17.5625C37.0029 17.6299 36.9707 17.6944 36.9365 17.7559ZM104.675 15.7471C107.021 15.8243 109.37 15.9229 111.722 16.042C111.7 15.8926 111.679 15.7442 111.657 15.5957C111.468 15.7002 111.255 15.7549 111.018 15.7549C108.907 15.7432 106.792 15.7471 104.675 15.7471ZM53.5762 8.9346C53.2246 8.94144 52.8721 8.9473 52.5205 8.95414C52.6153 9.08597 52.708 9.2266 52.7959 9.37503C52.96 9.36917 53.1231 9.36429 53.2871 9.35746C53.3701 9.19535 53.4658 9.05374 53.5762 8.9346ZM28.4512 9.36917C26.666 9.37894 24.8789 9.37992 23.0908 9.36917C23.5528 9.42386 24.0156 9.48343 24.4785 9.54789C25.7695 9.61136 27.0586 9.66117 28.3457 9.69535C28.377 9.58207 28.4121 9.47269 28.4512 9.36917Z" fill="#FFE500"/>
<path d="M19.7422 19H18.3516L14.1953 7.72656H15.6719L19.0234 17.2891H19.0703L22.4219 7.72656H23.8984L19.7422 19ZM24.8125 19V10.875H26.1719V19H24.8125ZM25.4922 9.50781C25.263 9.50781 25.0651 9.42448 24.8984 9.25781C24.7318 9.09115 24.6484 8.89323 24.6484 8.66406C24.6484 8.42969 24.7318 8.23177 24.8984 8.07031C25.0651 7.90365 25.263 7.82031 25.4922 7.82031C25.7266 7.82031 25.9271 7.90365 26.0938 8.07031C26.2604 8.23177 26.3438 8.42969 26.3438 8.66406C26.3438 8.89323 26.2604 9.09115 26.0938 9.25781C25.9271 9.42448 25.7266 9.50781 25.4922 9.50781ZM31.2656 11.9141C30.6354 11.9141 30.112 12.1328 29.6953 12.5703C29.2839 13.0026 29.0573 13.5599 29.0156 14.2422H33.4297C33.4141 13.5547 33.2083 12.9948 32.8125 12.5625C32.4167 12.1302 31.901 11.9141 31.2656 11.9141ZM33.3984 16.6719H34.7344C34.6146 17.3906 34.2396 17.9818 33.6094 18.4453C32.9844 18.9089 32.2318 19.1406 31.3516 19.1406C30.1901 19.1406 29.276 18.7656 28.6094 18.0156C27.9427 17.2656 27.6094 16.25 27.6094 14.9688C27.6094 13.6979 27.9427 12.6745 28.6094 11.8984C29.2812 11.1224 30.1745 10.7344 31.2891 10.7344C32.3828 10.7344 33.2474 11.1016 33.8828 11.8359C34.5182 12.5703 34.8359 13.5547 34.8359 14.7891V15.3047H29.0078V15.3828C29.0078 16.1641 29.2214 16.7891 29.6484 17.2578C30.0755 17.7266 30.6536 17.9609 31.3828 17.9609C31.8932 17.9609 32.3281 17.8438 32.6875 17.6094C33.0469 17.375 33.2839 17.0625 33.3984 16.6719ZM46.5469 10.875L44.2812 19H42.8984L41.0625 12.7109H41.0312L39.2031 19H37.8203L35.5469 10.875H36.8984L38.5234 17.4844H38.5547L40.3906 10.875H41.7031L43.5469 17.4844H43.5781L45.2031 10.875H46.5469ZM51.0156 19V10.875H52.375V19H51.0156ZM51.6953 9.50781C51.4661 9.50781 51.2682 9.42448 51.1016 9.25781C50.9349 9.09115 50.8516 8.89323 50.8516 8.66406C50.8516 8.42969 50.9349 8.23177 51.1016 8.07031C51.2682 7.90365 51.4661 7.82031 51.6953 7.82031C51.9297 7.82031 52.1302 7.90365 52.2969 8.07031C52.4635 8.23177 52.5469 8.42969 52.5469 8.66406C52.5469 8.89323 52.4635 9.09115 52.2969 9.25781C52.1302 9.42448 51.9297 9.50781 51.6953 9.50781ZM54.2109 19V10.875H55.4922V12.1719H55.5234C55.7578 11.7188 56.0938 11.3672 56.5312 11.1172C56.9688 10.862 57.4922 10.7344 58.1016 10.7344C58.987 10.7344 59.6771 11.0026 60.1719 11.5391C60.6667 12.0703 60.9141 12.7995 60.9141 13.7266V19H59.5547V13.9688C59.5547 13.3073 59.3984 12.8047 59.0859 12.4609C58.7734 12.112 58.3073 11.9375 57.6875 11.9375C57.0469 11.9375 56.5339 12.1458 56.1484 12.5625C55.763 12.9792 55.5703 13.5312 55.5703 14.2188V19H54.2109ZM65.9297 19V10.875H67.2109V12.1719H67.2422C67.4401 11.7292 67.7396 11.3802 68.1406 11.125C68.5417 10.8646 69.0104 10.7344 69.5469 10.7344C70.099 10.7344 70.5729 10.8698 70.9688 11.1406C71.3646 11.4062 71.651 11.7865 71.8281 12.2812H71.8594C72.0833 11.7969 72.4193 11.4193 72.8672 11.1484C73.3203 10.8724 73.8333 10.7344 74.4062 10.7344C75.2083 10.7344 75.849 10.9766 76.3281 11.4609C76.8125 11.9401 77.0547 12.5833 77.0547 13.3906V19H75.6953V13.7031C75.6953 13.1458 75.5469 12.7135 75.25 12.4062C74.9583 12.0938 74.5443 11.9375 74.0078 11.9375C73.4714 11.9375 73.0312 12.1172 72.6875 12.4766C72.3438 12.8307 72.1719 13.2839 72.1719 13.8359V19H70.8125V13.5547C70.8125 13.0651 70.6615 12.6745 70.3594 12.3828C70.0573 12.0859 69.6536 11.9375 69.1484 11.9375C68.612 11.9375 68.1667 12.125 67.8125 12.5C67.4635 12.875 67.2891 13.3438 67.2891 13.9062V19H65.9297ZM81.4688 17.9844C82.1094 17.9844 82.6458 17.7865 83.0781 17.3906C83.5156 16.9896 83.7344 16.4974 83.7344 15.9141V15.25L81.5625 15.3828C81.0156 15.4193 80.5911 15.5521 80.2891 15.7812C79.9922 16.0104 79.8438 16.3177 79.8438 16.7031C79.8438 17.0885 79.9922 17.3984 80.2891 17.6328C80.5859 17.8672 80.9792 17.9844 81.4688 17.9844ZM81.1641 19.1406C80.3568 19.1406 79.7031 18.9167 79.2031 18.4688C78.7083 18.0208 78.4609 17.4323 78.4609 16.7031C78.4609 16.0052 78.7161 15.4479 79.2266 15.0312C79.7422 14.6146 80.4688 14.3802 81.4062 14.3281L83.7344 14.1953V13.5156C83.7344 13.0208 83.5781 12.6328 83.2656 12.3516C82.9531 12.0703 82.5156 11.9297 81.9531 11.9297C81.4375 11.9297 81.0182 12.0443 80.6953 12.2734C80.3724 12.4974 80.1667 12.8125 80.0781 13.2188H78.7656C78.8125 12.4948 79.125 11.901 79.7031 11.4375C80.2865 10.9688 81.0469 10.7344 81.9844 10.7344C82.9375 10.7344 83.6927 10.974 84.25 11.4531C84.8125 11.9323 85.0938 12.5755 85.0938 13.3828V19H83.8047V17.6016H83.7734C83.5286 18.0651 83.1693 18.4375 82.6953 18.7188C82.2214 19 81.7109 19.1406 81.1641 19.1406ZM90.7656 10.7344C91.8073 10.7344 92.6458 11.1172 93.2812 11.8828C93.9219 12.6484 94.2422 13.6667 94.2422 14.9375C94.2422 16.2031 93.9245 17.2214 93.2891 17.9922C92.6536 18.7578 91.8229 19.1406 90.7969 19.1406C90.224 19.1406 89.7109 19.0104 89.2578 18.75C88.8047 18.4896 88.4557 18.1328 88.2109 17.6797H88.1797V21.7109H86.8203V10.875H88.1094V12.25H88.1406C88.3958 11.7812 88.7526 11.4115 89.2109 11.1406C89.6693 10.8698 90.1875 10.7344 90.7656 10.7344ZM90.5 17.9453C91.224 17.9453 91.7969 17.6745 92.2188 17.1328C92.6406 16.5911 92.8516 15.8594 92.8516 14.9375C92.8516 14.0156 92.6406 13.2839 92.2188 12.7422C91.7969 12.2005 91.224 11.9297 90.5 11.9297C89.8021 11.9297 89.2396 12.2057 88.8125 12.7578C88.3854 13.3099 88.1719 14.0365 88.1719 14.9375C88.1719 15.8438 88.3854 16.5729 88.8125 17.125C89.2396 17.6719 89.8021 17.9453 90.5 17.9453ZM95.4766 13.1172C95.4766 12.4193 95.7578 11.849 96.3203 11.4062C96.888 10.9583 97.6172 10.7344 98.5078 10.7344C99.3464 10.7344 100.044 10.9583 100.602 11.4062C101.159 11.8542 101.453 12.4219 101.484 13.1094H100.188C100.141 12.7135 99.9635 12.4036 99.6562 12.1797C99.3542 11.9557 98.9557 11.8438 98.4609 11.8438C97.9661 11.8438 97.5677 11.9557 97.2656 12.1797C96.9635 12.3984 96.8125 12.6875 96.8125 13.0469C96.8125 13.599 97.263 13.9896 98.1641 14.2188L99.4219 14.5234C100.24 14.7318 100.815 15.0026 101.148 15.3359C101.487 15.6641 101.656 16.1276 101.656 16.7266C101.656 17.4349 101.354 18.0156 100.75 18.4688C100.146 18.9167 99.3698 19.1406 98.4219 19.1406C97.5365 19.1406 96.8047 18.9219 96.2266 18.4844C95.6536 18.0417 95.3307 17.4583 95.2578 16.7344H96.6172C96.7682 17.599 97.3984 18.0312 98.5078 18.0312C99.0547 18.0312 99.487 17.9245 99.8047 17.7109C100.128 17.4922 100.289 17.1979 100.289 16.8281C100.289 16.5365 100.193 16.3047 100 16.1328C99.8125 15.9609 99.4922 15.8151 99.0391 15.6953L97.6094 15.3281C96.1875 14.9635 95.4766 14.2266 95.4766 13.1172Z" fill="black"/>
</svg>
