<svg width="14" height="14" viewBox="0 0 14 14" fill="none" xmlns="http://www.w3.org/2000/svg">
<g clip-path="url(#clip0)">
<path d="M6.99961 14C6.99961 14 2.09961 7.609 2.09961 4.9C2.09961 4.25652 2.22635 3.61935 2.4726 3.02485C2.71885 2.43036 3.07978 1.89018 3.53479 1.43518C3.98979 0.98017 4.52996 0.619238 5.12446 0.37299C5.71896 0.126742 6.35613 0 6.99961 0C7.64309 0 8.28026 0.126742 8.87476 0.37299C9.46925 0.619238 10.0094 0.98017 10.4644 1.43518C10.9194 1.89018 11.2804 2.43036 11.5266 3.02485C11.7729 3.61935 11.8996 4.25652 11.8996 4.9C11.8996 7.609 6.99961 14 6.99961 14ZM6.99961 6.3C7.37091 6.3 7.72701 6.1525 7.98956 5.88995C8.25211 5.6274 8.39961 5.2713 8.39961 4.9C8.39961 4.5287 8.25211 4.1726 7.98956 3.91005C7.72701 3.6475 7.37091 3.5 6.99961 3.5C6.62831 3.5 6.27221 3.6475 6.00966 3.91005C5.74711 4.1726 5.59961 4.5287 5.59961 4.9C5.59961 5.2713 5.74711 5.6274 6.00966 5.88995C6.27221 6.1525 6.62831 6.3 6.99961 6.3Z" fill="#F2DA00"/>
</g>
<defs>
<clipPath id="clip0">
<rect width="14" height="14" fill="white"/>
</clipPath>
</defs>
</svg>
