<svg width="24" height="32" viewBox="0 0 24 32" fill="none" xmlns="http://www.w3.org/2000/svg">
<path d="M11.9998 32C11.9998 32 0.799805 17.392 0.799805 11.2C0.799805 9.7292 1.0895 8.27279 1.65235 6.91395C2.21521 5.5551 3.04019 4.32042 4.08021 3.2804C5.12023 2.24039 6.3549 1.4154 7.71375 0.852549C9.0726 0.289697 10.529 0 11.9998 0C13.4706 0 14.927 0.289697 16.2859 0.852549C17.6447 1.4154 18.8794 2.24039 19.9194 3.2804C20.9594 4.32042 21.7844 5.5551 22.3473 6.91395C22.9101 8.27279 23.1998 9.7292 23.1998 11.2C23.1998 17.392 11.9998 32 11.9998 32ZM11.9998 14.4C12.8485 14.4 13.6624 14.0629 14.2625 13.4627C14.8627 12.8626 15.1998 12.0487 15.1998 11.2C15.1998 10.3513 14.8627 9.53737 14.2625 8.93726C13.6624 8.33714 12.8485 8 11.9998 8C11.1511 8 10.3372 8.33714 9.73706 8.93726C9.13695 9.53737 8.79981 10.3513 8.79981 11.2C8.79981 12.0487 9.13695 12.8626 9.73706 13.4627C10.3372 14.0629 11.1511 14.4 11.9998 14.4Z" fill="#F5DC00"/>
</svg>
