<svg width="167" height="61" viewBox="0 0 167 61" fill="none" xmlns="http://www.w3.org/2000/svg">
<g clip-path="url(#clip0)">
<path d="M55.5004 39.2004C63.9004 36.6004 69.6004 28.2004 62.6004 20.8004C61.9004 20.0004 60.7004 20.0004 59.8004 20.4004C55.8004 22.6004 56.4004 29.8004 55.9004 33.6004C54.9004 41.4004 53.8004 49.3004 52.4004 57.0004C51.9004 60.0004 55.2004 62.3004 57.6004 60.0004C59.2004 58.5004 59.6004 57.8004 59.5004 55.6004C59.4004 54.3004 58.3004 53.3004 57.0004 53.7004C55.7004 54.1004 55.0004 54.4004 53.8004 55.1004C55.4004 56.0004 56.9004 56.9004 58.5004 57.8004C59.1004 50.0004 59.9004 42.3004 60.8004 34.5004C61.0004 32.6004 61.3004 30.6004 61.5004 28.7004C61.6004 27.7004 61.6004 23.3004 62.5004 27.5004C63.5004 32.5004 59.0004 35.7004 54.9004 37.2004C53.7004 37.7004 54.2004 39.6004 55.5004 39.2004Z" fill="white"/>
<path d="M70.1002 44.2998C69.9002 43.5998 69.7002 43.6998 69.4002 42.8998C69.2002 42.3998 68.6002 42.2998 68.2002 42.3998C66.2002 42.7998 64.5002 44.6998 63.2002 46.2998C61.9002 47.8998 60.3002 49.8998 60.7002 52.0998C61.5002 56.1998 67.5002 57.6998 71.0002 56.7998C75.4002 55.5998 78.1002 49.7998 76.8002 45.4998C75.1002 40.0998 68.4002 39.2998 64.1002 41.8998C62.3002 42.9998 62.9002 46.4998 65.3002 46.1998C67.1002 45.9998 70.6002 44.9998 71.8002 46.8998C73.1002 48.8998 71.2002 52.3998 69.0002 52.6998C68.0002 52.8998 66.9002 52.6998 65.9002 52.2998C64.2002 51.6998 64.1002 50.5998 65.0002 48.9998C65.4002 48.2998 69.0002 43.1998 69.5002 44.4998C69.6002 44.9998 70.2002 44.6998 70.1002 44.2998Z" fill="white"/>
<path d="M81.4997 41.4005C81.4997 41.4005 81.4997 41.5005 81.5997 41.5005C81.6997 41.8005 82.0997 41.9005 82.2997 41.8005C82.7997 41.7005 82.8997 41.5005 83.0997 41.0005C83.2997 40.5005 82.8997 40.0005 82.4997 39.9005C80.6997 39.4005 78.7997 41.8005 77.7997 43.1005C76.2997 44.9005 74.4997 47.2005 74.5997 49.7005C74.6997 55.0005 84.0997 56.6005 87.6997 54.4005C88.8997 53.6005 88.9997 51.2005 87.1997 50.9005C85.2997 50.6005 78.5997 52.1005 78.0997 49.0005C77.8997 47.8005 79.0997 46.1005 79.7997 45.2005C80.1997 44.6005 80.6997 44.0005 81.0997 43.4005C81.2997 43.1005 83.0997 40.5005 81.8997 40.7005C81.4997 40.6005 81.3997 41.1005 81.4997 41.4005Z" fill="white"/>
<path d="M88.9002 54.4999C88.5002 50.8999 90.2002 41.9999 95.6002 42.9999C97.8002 43.3999 97.5002 46.0999 97.5002 47.8999C97.5002 49.8999 97.5002 51.7999 98.3002 53.6999C99.9002 57.7999 105.9 55.0999 103.7 51.3999C102.1 48.6999 103.2 45.0999 101.7 42.2999C100.1 39.2999 96.7002 37.8999 93.4002 38.7999C90.0002 39.6999 88.0002 42.5999 87.0002 45.8999C86.2002 48.7999 85.5002 52.5999 87.9002 54.9999C88.2002 55.2999 89.0002 55.0999 88.9002 54.4999Z" fill="white"/>
<path d="M85.8 49.3002C92 50.5002 99 50.4002 105.3 50.7002C108.3 50.8002 108.3 46.0002 105.3 46.1002C99 46.3002 92 46.2002 85.8 47.4002C84.9 47.6002 84.9 49.1002 85.8 49.3002Z" fill="white"/>
<path d="M106.6 34.2003C104.1 40.4003 105 50.8003 108.9 56.3003C110.3 58.2003 113.5 56.4004 112.1 54.4004C109.7 51.0004 108.2 47.8004 107.8 43.7003C107.5 40.5003 108 37.3003 107.3 34.2003C107.3 33.8003 106.8 33.9003 106.6 34.2003Z" fill="white"/>
<path d="M106.2 39.1005C107.8 39.4005 109.5 39.6005 111.1 39.7005C112.8 39.8005 114.5 40.2005 115.7 38.8005C116.4 38.0005 116.4 36.5005 115.3 36.0005C113.7 35.2005 112.8 35.9005 111.2 36.3005C109.6 36.7005 108.1 36.8005 106.4 36.8005C105.2 36.7005 104.8 38.8005 106.2 39.1005Z" fill="white"/>
<path d="M115.1 44.4995C114.8 46.1995 115 47.8995 114.5 49.4995C113.8 52.2995 118.5 52.5995 118 49.4995C117.8 47.7995 117.8 46.0995 117.3 44.4995C117 43.4995 115.3 43.2995 115.1 44.4995Z" fill="white"/>
<path d="M124.5 42.7996C122.7 42.7996 121 44.4996 119.9 45.7996C118.8 47.0996 118 48.6996 118.7 50.2996C120 53.2996 125.7 53.8996 128.3 52.7996C131.9 51.3996 133.2 46.3996 132.2 42.8996C131.7 40.8996 129.9 39.3996 127.9 39.1996C125.5 38.8996 123.4 40.0996 121.6 41.5996C119.5 43.2996 122.2 46.2996 124.3 45.1996C125.1 44.7996 126.1 43.9996 127 44.0996C127.9 44.1996 127.9 44.8996 128 45.7996C128.1 47.5996 127.7 49.4996 125.6 49.7996C124.2 49.9996 120.3 49.8996 121.5 47.5996C122.4 45.9996 124.3 45.0996 124.8 43.3996C125 42.9996 124.8 42.7996 124.5 42.7996Z" fill="white"/>
<path d="M133.4 52.4002C135.8 50.7002 136.2 46.6002 137.2 44.0002C136.2 44.1002 135.2 44.3002 134.2 44.4002C136.6 48.1002 140.7 54.2002 146 52.5002C151.2 50.8002 152 43.2002 152.4 38.7002C152.6 36.2002 148.8 36.2002 148.5 38.7002C148.2 41.2002 148.1 46.5002 145.9 48.3002C142.6 51.1002 138.5 44.7002 137.1 42.8002C136.3 41.8002 134.5 41.7002 134.1 43.2002C133.5 45.9002 131.8 49.6002 132.9 52.3002C132.9 52.4002 133.2 52.6002 133.4 52.4002Z" fill="white"/>
<path d="M165.9 33.6004C162.2 32.1004 157.8 34.1004 157.1 38.2004C156.7 40.5004 157.6 42.8004 158.7 44.8004C159.1 45.5004 159.5 46.2004 160 46.8004C159.8 48.6004 158.9 49.6004 157.3 49.8004C155.5 50.7004 153.1 50.7004 151.1 50.7004C152 51.4004 152.9 52.0004 153.8 52.7004C153.7 52.4004 153.7 52.0004 153.6 51.7004C153.2 49.6004 150.4 49.6004 149.4 51.1004C149.2 51.4004 149 51.7004 148.8 52.0004C147.7 53.6004 149.1 56.4004 151.2 56.1004C155.4 55.6004 162.5 54.4004 164.2 49.7004C164.8 47.8004 164.1 46.3004 163.1 44.7004C162.1 43.2004 160.6 42.2004 160 40.3004C158.9 36.5004 162.1 33.8004 165.6 34.8004C166.5 35.2004 166.7 33.9004 165.9 33.6004Z" fill="white"/>
<path d="M125 32.7003C125.2 32.3003 125.4 32.0003 125.5 31.6003C125.6 31.0003 125.4 30.5003 124.8 30.3003C124.3 30.1003 123.6 30.3003 123.4 30.8003C123.3 31.0003 123.2 31.2003 123.1 31.5003C123.1 31.7003 123 31.8003 123 32.0003C123 32.3003 122.9 32.6003 123.1 32.8003C123.2 33.0003 123.4 33.1003 123.6 33.2003C124.2 33.3003 124.8 33.1003 125 32.7003Z" fill="white"/>
<path d="M0.799954 20.3002C2.89995 15.2002 3.59995 9.70022 4.69995 4.30022C4.09995 4.60022 3.49995 4.80022 2.89995 5.10022C7.19995 7.20022 7.49995 14.3002 13 14.6002C14.8 14.7002 16 14.1002 17.2 12.7002C18.7 11.0002 20.2 5.50022 22.4 4.70022C21.8 4.40022 21.1 4.20022 20.5 3.90022C22.8 7.80022 25 11.7002 27 15.7002C28.1 17.9002 31.7 15.9002 30.4 13.7002C28 9.90022 25.8 6.00022 23.4 2.20022C23 1.60022 22.2 1.10022 21.5 1.40022C20.4 1.80022 20 2.10022 19.3 3.00022C18.4 4.00022 17.9 5.40022 17.2 6.50022C15.7 9.10022 16.2 9.60022 12.6 9.20022C8.79995 8.80022 9.69995 7.90022 7.49995 5.30022C6.49995 4.10022 5.39995 3.40022 3.89995 2.90022C3.09995 2.60022 2.39995 3.30022 2.29995 4.00022C1.99995 9.50022 0.599954 14.7002 -4.62756e-05 20.2002C-0.100046 20.6002 0.599954 20.6002 0.799954 20.3002Z" fill="white"/>
<path d="M36.1005 1.40041C35.7005 0.500407 35.8005 0.600408 34.9005 0.100408C34.4005 -0.199593 33.9005 0.200408 33.8005 0.700408C33.4005 5.20041 38.3005 10.9004 42.7005 11.9004C48.1005 13.2004 51.4005 8.10041 53.1005 3.70041C53.9005 1.80041 50.8005 0.500407 49.8005 2.30041C46.1005 9.10041 42.0005 15.6004 37.4005 21.7004C35.1005 24.8004 32.5005 27.8004 30.0005 30.7004C28.6005 32.3004 27.5005 33.2004 27.9005 35.5004C28.2005 36.8004 29.9005 37.8004 31.2005 37.4004C31.3005 37.4004 31.4005 37.3004 31.5005 37.3004C33.3005 36.7004 33.8005 35.1004 33.1005 33.4004C33.1005 33.3004 33.0005 33.3004 33.0005 33.2004C31.8005 30.3004 27.6005 32.5004 28.2005 35.2004C28.2005 35.3004 28.2005 35.3004 28.2005 35.4004C28.8005 34.3004 29.4005 33.2004 30.0005 32.1004C29.9005 32.1004 29.8005 32.1004 29.7005 32.2004C30.8005 33.1004 32.0005 33.9004 33.1005 34.8004C33.1005 36.0004 34.7005 33.1004 35.1005 32.6004C36.0005 31.4004 36.9005 30.3004 37.7005 29.1004C39.6005 26.5004 41.4005 23.8004 43.2005 21.1004C46.8005 15.7004 49.8005 10.0004 52.7005 4.20041C51.6005 3.70041 50.5005 3.30041 49.4005 2.80041C48.0005 7.00041 45.4005 10.4004 40.4005 7.40041C37.9005 5.90041 35.8005 3.30041 35.2005 0.500408C34.9005 0.800408 34.6005 1.10041 34.3005 1.40041C34.7005 1.60041 35.1005 1.70041 35.5005 1.90041C35.8005 2.20041 36.3005 1.80041 36.1005 1.40041Z" fill="white"/>
</g>
<defs>
<clipPath id="clip0">
<rect width="166.4" height="60.9" fill="white"/>
</clipPath>
</defs>
</svg>
