<svg width="329" height="74" viewBox="0 0 329 74" fill="none" xmlns="http://www.w3.org/2000/svg">
<g clip-path="url(#clip0)">
<path d="M38.0618 28.6397C37.92 28.6276 37.7929 28.446 37.5095 28.4216C37.3677 28.4095 37.226 28.3973 37.2115 28.5667C36.9135 28.7118 36.601 29.0263 36.5719 29.3651C36.5428 29.7039 36.6554 30.0549 37.066 30.2608C37.2077 30.2729 37.3349 30.4545 37.3349 30.4545C37.4766 30.4667 37.6183 30.4789 37.9163 30.3338C38.2143 30.1887 38.5268 29.8742 38.5559 29.5354C38.5995 29.0272 38.4869 28.6762 38.0618 28.6397Z" fill="#FFE500"/>
<path d="M14.0112 27.7697C68.022 30.5307 122.324 29.9035 176.367 30.6194C203.184 30.8744 230.127 31.311 256.915 31.9048C270.167 32.1895 283.277 32.4621 296.514 32.9162C300.497 33.0876 312.833 30.7339 315.133 35.539C316.826 39.0975 314.921 47.9786 315.408 52.2868C317.498 49.5651 319.431 47.0006 321.521 44.279C294.933 43.0197 268.302 42.2687 241.627 42.0258C215.377 41.8195 189.462 44.3723 163.252 45.364C136.461 46.4764 109.794 42.8212 83.0209 42.058C70.0669 41.6282 57.0983 41.3678 44.2424 41.4583C35.2417 41.5387 10.6851 44.8908 12.6378 27.1398C11.0315 29.2204 9.58154 31.1437 7.9753 33.2243C18.6366 32.092 29.1416 31.1169 39.8029 29.9846C47.0049 29.2378 45.1345 16.1074 37.9325 16.8542C27.2713 17.9865 16.7662 18.9616 6.10496 20.0939C3.6522 20.3953 1.81696 23.4801 1.44249 26.1784C-2.39004 60.8335 39.5357 54.7065 56.941 54.836C86.4646 55.1528 115.926 57.8534 145.392 58.8479C174.29 59.7936 203.229 55.2819 232.2 55.3806C261.597 55.5159 290.935 56.3287 320.23 57.6498C323.929 57.7968 326.814 54.1195 326.342 49.642C325.202 39.6461 328.673 27.4864 319.444 21.9155C314.008 18.7183 306.479 19.9489 300.356 19.7644C293.808 19.5434 287.104 19.4797 280.556 19.2587C250.92 18.5909 221.284 17.9231 191.477 17.582C132.728 16.8033 73.7243 15.6614 14.7677 18.9606C10.1747 19.2488 9.03676 27.5132 14.0112 27.7697Z" fill="#FFE500"/>
<path d="M9.54809 39.8441C20.0639 40.4058 31.2737 41.1978 40.8153 46.4542C41.8332 41.2513 42.8655 35.879 44.0251 30.6883C37.2374 29.9348 30.606 29.024 23.833 28.101C23.3238 34.0302 22.8146 39.9594 22.3055 45.8886C25.7502 45.6724 29.1804 45.6257 32.6397 45.2401C41.713 44.3128 40.2026 28.6535 32.1832 27.2822C27.5358 26.5418 22.8884 25.8014 18.2555 24.8916C17.7609 30.6514 17.2808 36.2417 16.7862 42.0015C23.8427 42.9488 30.9429 43.3879 38.0867 43.3187C46.6476 43.3713 48.1132 27.9676 39.4542 27.3946C37.1868 27.1999 34.7631 27.1625 32.4957 26.9677C32.0447 32.2193 31.5938 37.4709 31.1428 42.7224C46.0662 43.492 61.1459 44.1044 76.0694 44.8739C84.3178 45.241 85.5689 30.6721 77.3786 29.6275C68.3527 28.3404 59.2831 27.5615 50.199 26.9521C42.1068 26.4279 40.8266 41.3355 48.9188 41.8598C64.6779 42.8718 80.4662 43.545 96.2981 43.7099C104.136 43.871 105.1 30.9841 97.5346 29.3105C93.0435 28.4129 88.4252 27.3336 83.934 26.436C83.5267 31.1793 83.1194 35.9227 82.712 40.666C98.9292 39.6695 115.03 40.0282 131.043 41.4034C131.451 36.66 131.858 31.9167 132.251 27.3428C124.032 26.6369 115.812 25.9311 107.466 25.0437C99.2756 23.999 98.1516 38.7495 106.171 40.1208C118.696 42.2203 131.309 43.3034 144.063 44.3986C152.991 45.1653 154.216 29.229 145.474 27.9663C131.375 25.9023 117.175 25.0242 102.873 25.3319C93.5742 25.5573 92.1087 40.961 101.389 42.6112C113.758 44.868 126.214 46.1083 138.87 46.6832C139.379 40.754 139.888 34.8248 140.397 28.8956C129.569 28.6483 118.741 28.4011 107.912 28.1538C98.3741 27.8467 96.7631 44.9445 106.4 45.772C130.491 47.8408 154.713 48.385 178.938 47.2229C188.252 46.8281 190.059 30.7711 180.451 29.6047C171.694 28.5114 163.119 28.6283 154.343 29.4106C145.852 30.2172 146.766 46.1666 154.844 46.8603C172.841 48.4058 190.77 49.0922 208.883 49.2824C219.018 49.2994 220.829 31.5362 210.513 30.3091C200.48 29.1062 190.404 28.4116 180.241 28.7334C179.688 35.1708 179.135 41.6082 178.582 48.0456C197.507 47.1109 216.387 46.6844 235.253 46.4273C245.544 46.2871 247.511 28.3666 236.912 27.1151C228.423 26.2155 220.019 26.0057 211.57 26.3042C201.251 26.7832 199.182 45.8895 209.897 45.7858C233.738 45.7852 257.451 45.6031 281.292 45.6025C291.284 45.6074 293.095 27.8441 282.907 26.7985C277.805 26.3604 272.562 25.9102 267.46 25.4721C266.922 31.7401 266.398 37.8387 265.86 44.1066C281.79 44.792 297.891 45.1507 313.835 45.6667C323.232 45.9617 324.857 28.6945 315.333 28.2179C299.418 27.3632 283.375 26.3268 267.445 25.6415C257.355 25.1162 255.798 43.2426 265.845 44.2761C270.947 44.7142 276.176 45.3338 281.277 45.7719C281.816 39.5039 282.354 33.2359 282.892 26.9679C259.066 26.7991 235.382 26.6424 211.556 26.4736C211.003 32.911 210.436 39.5178 209.883 45.9552C218.331 45.6568 226.736 45.8665 235.082 46.7539C235.635 40.3165 236.188 33.8791 236.741 27.4417C217.831 28.207 198.921 28.9723 180.07 29.06C169.638 29.1881 167.852 48.3187 178.411 48.3722C188.546 48.3892 198.666 48.5756 208.713 49.6091C209.251 43.3411 209.804 36.9037 210.342 30.6357C192.312 31.1352 174.212 30.7755 156.171 29.7382C156.385 35.5588 156.457 41.3673 156.671 47.1879C164.157 46.4655 171.555 46.7595 178.895 47.7311C179.404 41.8019 179.899 36.0421 180.408 30.113C156.197 31.1056 131.96 30.7309 107.883 28.4926C107.374 34.4218 106.865 40.351 106.37 46.1108C117.199 46.358 128.013 46.7747 138.841 47.022C148.379 47.3291 150.034 29.7231 140.368 29.2344C127.854 28.6717 115.256 27.4192 102.858 25.5013C102.364 31.2611 101.869 37.0209 101.374 42.7806C115.706 42.1341 129.935 42.6734 144.204 44.4108C144.67 38.9898 145.135 33.5688 145.615 27.9785C132.974 27.2342 120.376 25.9817 107.608 25.0559C107.171 30.138 106.749 35.0508 106.313 40.1329C114.576 40.3305 122.81 40.867 131.171 41.585C138.823 42.2421 140.031 28.1815 132.378 27.5243C116.223 26.137 100.249 25.9599 84.0466 26.787C76.3069 27.1463 75.274 39.174 82.8246 41.017C87.3012 42.0841 91.9196 43.1633 96.4107 44.0609C96.818 39.3176 97.2254 34.5742 97.6473 29.6615C81.8299 29.3271 66.0562 28.4845 50.3116 27.3031C49.8897 32.2158 49.4533 37.298 49.0314 42.2108C58.1155 42.8202 67.1706 43.7684 76.182 45.2249C76.6184 40.1428 77.0548 35.0606 77.4912 29.9784C62.5824 29.0395 47.5172 28.2577 32.6083 27.3187C24.091 26.758 22.7381 42.5126 31.2554 43.0734C33.5228 43.2681 35.9319 43.475 38.1993 43.6697C38.6503 38.4182 39.1158 32.9972 39.5668 27.7456C32.4375 27.6454 25.381 26.6981 18.3681 25.2426C9.25866 23.2657 8.08732 40.2306 16.8988 42.3525C21.5171 43.4317 26.1209 44.6803 30.7392 45.7596C31.2629 39.661 31.7721 33.7318 32.2958 27.6332C28.8511 27.8493 25.3918 28.2349 22.0742 28.6326C13.7094 29.6208 14.1697 45.8725 22.5598 46.2517C29.3911 46.4971 36.0806 46.7302 42.8974 47.1449C52.7046 47.6458 52.5607 29.3734 42.4226 31.0626C31.5614 32.8604 20.6205 32.2622 9.60302 34.2172C6.44171 34.4577 6.69929 39.7701 9.54809 39.8441Z" fill="#FFE500"/>
<path d="M74.1777 44H72.4395L67.2441 29.9082H69.0898L73.2793 41.8613H73.3379L77.5273 29.9082H79.373L74.1777 44ZM80.5156 44V33.8438H82.2148V44H80.5156ZM81.3652 32.1348C81.0788 32.1348 80.8314 32.0306 80.623 31.8223C80.4147 31.6139 80.3105 31.3665 80.3105 31.0801C80.3105 30.7871 80.4147 30.5397 80.623 30.3379C80.8314 30.1296 81.0788 30.0254 81.3652 30.0254C81.6582 30.0254 81.9089 30.1296 82.1172 30.3379C82.3255 30.5397 82.4297 30.7871 82.4297 31.0801C82.4297 31.3665 82.3255 31.6139 82.1172 31.8223C81.9089 32.0306 81.6582 32.1348 81.3652 32.1348ZM88.582 35.1426C87.7943 35.1426 87.14 35.416 86.6191 35.9629C86.1048 36.5033 85.8216 37.1999 85.7695 38.0527H91.2871C91.2676 37.1934 91.0104 36.4935 90.5156 35.9531C90.0208 35.4128 89.3763 35.1426 88.582 35.1426ZM91.248 41.0898H92.918C92.7682 41.9883 92.2995 42.7272 91.5117 43.3066C90.7305 43.8861 89.7897 44.1758 88.6895 44.1758C87.2376 44.1758 86.0951 43.707 85.2617 42.7695C84.4284 41.832 84.0117 40.5625 84.0117 38.9609C84.0117 37.3724 84.4284 36.0931 85.2617 35.123C86.1016 34.153 87.2181 33.668 88.6113 33.668C89.9785 33.668 91.0592 34.127 91.8535 35.0449C92.6478 35.9629 93.0449 37.1934 93.0449 38.7363V39.3809H85.7598V39.4785C85.7598 40.4551 86.0267 41.2363 86.5605 41.8223C87.0944 42.4082 87.8171 42.7012 88.7285 42.7012C89.3665 42.7012 89.9102 42.5547 90.3594 42.2617C90.8086 41.9688 91.1048 41.5781 91.248 41.0898ZM107.684 33.8438L104.852 44H103.123L100.828 36.1387H100.789L98.5039 44H96.7754L93.9336 33.8438H95.623L97.6543 42.1055H97.6934L99.9883 33.8438H101.629L103.934 42.1055H103.973L106.004 33.8438H107.684ZM118.113 33.668C119.415 33.668 120.464 34.1465 121.258 35.1035C122.059 36.0605 122.459 37.3333 122.459 38.9219C122.459 40.5039 122.062 41.7767 121.268 42.7402C120.473 43.6973 119.435 44.1758 118.152 44.1758C117.436 44.1758 116.795 44.013 116.229 43.6875C115.662 43.362 115.226 42.916 114.92 42.3496H114.881V47.3887H113.182V33.8438H114.793V35.5625H114.832C115.151 34.9766 115.597 34.5143 116.17 34.1758C116.743 33.8372 117.391 33.668 118.113 33.668ZM117.781 42.6816C118.686 42.6816 119.402 42.3431 119.93 41.666C120.457 40.9889 120.721 40.0742 120.721 38.9219C120.721 37.7695 120.457 36.8548 119.93 36.1777C119.402 35.5007 118.686 35.1621 117.781 35.1621C116.909 35.1621 116.206 35.5072 115.672 36.1973C115.138 36.8874 114.871 37.7956 114.871 38.9219C114.871 40.0547 115.138 40.9661 115.672 41.6562C116.206 42.3398 116.909 42.6816 117.781 42.6816ZM124.266 44V33.8438H125.965V44H124.266ZM125.115 32.1348C124.829 32.1348 124.581 32.0306 124.373 31.8223C124.165 31.6139 124.061 31.3665 124.061 31.0801C124.061 30.7871 124.165 30.5397 124.373 30.3379C124.581 30.1296 124.829 30.0254 125.115 30.0254C125.408 30.0254 125.659 30.1296 125.867 30.3379C126.076 30.5397 126.18 30.7871 126.18 31.0801C126.18 31.3665 126.076 31.6139 125.867 31.8223C125.659 32.0306 125.408 32.1348 125.115 32.1348ZM128.26 44V33.8438H129.861V35.4648H129.9C130.193 34.8984 130.613 34.459 131.16 34.1465C131.707 33.8275 132.361 33.668 133.123 33.668C134.23 33.668 135.092 34.0033 135.711 34.6738C136.329 35.3379 136.639 36.2493 136.639 37.4082V44H134.939V37.7109C134.939 36.8841 134.744 36.2559 134.354 35.8262C133.963 35.39 133.38 35.1719 132.605 35.1719C131.805 35.1719 131.163 35.4323 130.682 35.9531C130.2 36.474 129.959 37.1641 129.959 38.0234V44H128.26ZM138.807 44V33.8438H140.408V35.4648H140.447C140.74 34.8984 141.16 34.459 141.707 34.1465C142.254 33.8275 142.908 33.668 143.67 33.668C144.777 33.668 145.639 34.0033 146.258 34.6738C146.876 35.3379 147.186 36.2493 147.186 37.4082V44H145.486V37.7109C145.486 36.8841 145.291 36.2559 144.9 35.8262C144.51 35.39 143.927 35.1719 143.152 35.1719C142.352 35.1719 141.71 35.4323 141.229 35.9531C140.747 36.474 140.506 37.1641 140.506 38.0234V44H138.807ZM153.426 35.1426C152.638 35.1426 151.984 35.416 151.463 35.9629C150.949 36.5033 150.665 37.1999 150.613 38.0527H156.131C156.111 37.1934 155.854 36.4935 155.359 35.9531C154.865 35.4128 154.22 35.1426 153.426 35.1426ZM156.092 41.0898H157.762C157.612 41.9883 157.143 42.7272 156.355 43.3066C155.574 43.8861 154.633 44.1758 153.533 44.1758C152.081 44.1758 150.939 43.707 150.105 42.7695C149.272 41.832 148.855 40.5625 148.855 38.9609C148.855 37.3724 149.272 36.0931 150.105 35.123C150.945 34.153 152.062 33.668 153.455 33.668C154.822 33.668 155.903 34.127 156.697 35.0449C157.492 35.9629 157.889 37.1934 157.889 38.7363V39.3809H150.604V39.4785C150.604 40.4551 150.87 41.2363 151.404 41.8223C151.938 42.4082 152.661 42.7012 153.572 42.7012C154.21 42.7012 154.754 42.5547 155.203 42.2617C155.652 41.9688 155.949 41.5781 156.092 41.0898ZM163.455 44.1758C162.153 44.1758 161.102 43.6973 160.301 42.7402C159.507 41.7832 159.109 40.5104 159.109 38.9219C159.109 37.3398 159.507 36.0703 160.301 35.1133C161.095 34.1497 162.133 33.668 163.416 33.668C164.132 33.668 164.773 33.8307 165.34 34.1562C165.906 34.4818 166.342 34.9277 166.648 35.4941H166.688V29.9082H168.387V44H166.766V42.2812H166.736C166.404 42.8737 165.955 43.3392 165.389 43.6777C164.822 44.0098 164.178 44.1758 163.455 44.1758ZM163.777 35.1621C162.879 35.1621 162.166 35.5039 161.639 36.1875C161.111 36.8646 160.848 37.776 160.848 38.9219C160.848 40.0742 161.111 40.9889 161.639 41.666C162.166 42.3431 162.879 42.6816 163.777 42.6816C164.656 42.6816 165.363 42.3398 165.896 41.6562C166.43 40.9661 166.697 40.0547 166.697 38.9219C166.697 37.7891 166.427 36.8809 165.887 36.1973C165.353 35.5072 164.65 35.1621 163.777 35.1621ZM174.871 44V29.9082H176.57V44H174.871ZM183.074 44.1758C181.655 44.1758 180.516 43.7038 179.656 42.7598C178.797 41.8092 178.367 40.5299 178.367 38.9219C178.367 37.3138 178.797 36.0378 179.656 35.0938C180.516 34.1432 181.655 33.668 183.074 33.668C184.487 33.668 185.623 34.1432 186.482 35.0938C187.342 36.0378 187.771 37.3138 187.771 38.9219C187.771 40.5234 187.342 41.7995 186.482 42.75C185.623 43.7005 184.487 44.1758 183.074 44.1758ZM180.896 41.6855C181.437 42.3496 182.163 42.6816 183.074 42.6816C183.986 42.6816 184.708 42.3529 185.242 41.6953C185.776 41.0312 186.043 40.1068 186.043 38.9219C186.043 37.737 185.776 36.8158 185.242 36.1582C184.708 35.4941 183.986 35.1621 183.074 35.1621C182.163 35.1621 181.437 35.4941 180.896 36.1582C180.363 36.8223 180.096 37.7435 180.096 38.9219C180.096 40.1003 180.363 41.0215 180.896 41.6855ZM197.928 37.1738H196.268C196.137 36.5879 195.848 36.1061 195.398 35.7285C194.956 35.3509 194.38 35.1621 193.67 35.1621C192.785 35.1621 192.072 35.5039 191.531 36.1875C190.991 36.8646 190.721 37.776 190.721 38.9219C190.721 40.0872 190.991 41.0052 191.531 41.6758C192.078 42.3464 192.798 42.6816 193.689 42.6816C194.373 42.6816 194.936 42.5124 195.379 42.1738C195.828 41.8288 196.128 41.347 196.277 40.7285H197.947C197.817 41.7441 197.358 42.5742 196.57 43.2188C195.789 43.8568 194.826 44.1758 193.68 44.1758C192.26 44.1758 191.124 43.707 190.271 42.7695C189.419 41.8255 188.992 40.543 188.992 38.9219C188.992 37.3268 189.419 36.054 190.271 35.1035C191.124 34.1465 192.254 33.668 193.66 33.668C194.871 33.668 195.854 34.0098 196.609 34.6934C197.371 35.377 197.811 36.2038 197.928 37.1738ZM202.859 42.7305C203.66 42.7305 204.331 42.4831 204.871 41.9883C205.418 41.487 205.691 40.8717 205.691 40.1426V39.3125L202.977 39.4785C202.293 39.5241 201.762 39.6901 201.385 39.9766C201.014 40.263 200.828 40.6471 200.828 41.1289C200.828 41.6107 201.014 41.998 201.385 42.291C201.756 42.584 202.247 42.7305 202.859 42.7305ZM202.479 44.1758C201.469 44.1758 200.652 43.8958 200.027 43.3359C199.409 42.776 199.1 42.0404 199.1 41.1289C199.1 40.2565 199.419 39.5599 200.057 39.0391C200.701 38.5182 201.609 38.2253 202.781 38.1602L205.691 37.9941V37.1445C205.691 36.526 205.496 36.041 205.105 35.6895C204.715 35.3379 204.168 35.1621 203.465 35.1621C202.82 35.1621 202.296 35.3053 201.893 35.5918C201.489 35.8717 201.232 36.2656 201.121 36.7734H199.48C199.539 35.8685 199.93 35.1263 200.652 34.5469C201.382 33.9609 202.332 33.668 203.504 33.668C204.695 33.668 205.639 33.9674 206.336 34.5664C207.039 35.1654 207.391 35.9694 207.391 36.9785V44H205.779V42.252H205.74C205.434 42.8314 204.985 43.2969 204.393 43.6484C203.8 44 203.162 44.1758 202.479 44.1758ZM210.096 31.3926H211.795V33.8438H213.768V35.2402H211.795V41.2754C211.795 41.7376 211.896 42.0794 212.098 42.3008C212.299 42.5156 212.618 42.623 213.055 42.623C213.328 42.623 213.562 42.6068 213.758 42.5742V44C213.536 44.0521 213.178 44.0781 212.684 44.0781C211.753 44.0781 211.089 43.8698 210.691 43.4531C210.294 43.0365 210.096 42.3398 210.096 41.3633V35.2402H208.582V33.8438H210.096V31.3926ZM215.672 44V33.8438H217.371V44H215.672ZM216.521 32.1348C216.235 32.1348 215.988 32.0306 215.779 31.8223C215.571 31.6139 215.467 31.3665 215.467 31.0801C215.467 30.7871 215.571 30.5397 215.779 30.3379C215.988 30.1296 216.235 30.0254 216.521 30.0254C216.814 30.0254 217.065 30.1296 217.273 30.3379C217.482 30.5397 217.586 30.7871 217.586 31.0801C217.586 31.3665 217.482 31.6139 217.273 31.8223C217.065 32.0306 216.814 32.1348 216.521 32.1348ZM223.875 44.1758C222.456 44.1758 221.316 43.7038 220.457 42.7598C219.598 41.8092 219.168 40.5299 219.168 38.9219C219.168 37.3138 219.598 36.0378 220.457 35.0938C221.316 34.1432 222.456 33.668 223.875 33.668C225.288 33.668 226.424 34.1432 227.283 35.0938C228.143 36.0378 228.572 37.3138 228.572 38.9219C228.572 40.5234 228.143 41.7995 227.283 42.75C226.424 43.7005 225.288 44.1758 223.875 44.1758ZM221.697 41.6855C222.238 42.3496 222.964 42.6816 223.875 42.6816C224.786 42.6816 225.509 42.3529 226.043 41.6953C226.577 41.0312 226.844 40.1068 226.844 38.9219C226.844 37.737 226.577 36.8158 226.043 36.1582C225.509 35.4941 224.786 35.1621 223.875 35.1621C222.964 35.1621 222.238 35.4941 221.697 36.1582C221.163 36.8223 220.896 37.7435 220.896 38.9219C220.896 40.1003 221.163 41.0215 221.697 41.6855ZM230.291 44V33.8438H231.893V35.4648H231.932C232.225 34.8984 232.645 34.459 233.191 34.1465C233.738 33.8275 234.393 33.668 235.154 33.668C236.261 33.668 237.124 34.0033 237.742 34.6738C238.361 35.3379 238.67 36.2493 238.67 37.4082V44H236.971V37.7109C236.971 36.8841 236.775 36.2559 236.385 35.8262C235.994 35.39 235.411 35.1719 234.637 35.1719C233.836 35.1719 233.195 35.4323 232.713 35.9531C232.231 36.474 231.99 37.1641 231.99 38.0234V44H230.291ZM240.662 36.6465C240.662 35.7741 241.014 35.0612 241.717 34.5078C242.426 33.9479 243.338 33.668 244.451 33.668C245.499 33.668 246.372 33.9479 247.068 34.5078C247.765 35.0677 248.133 35.7773 248.172 36.6367H246.551C246.492 36.1419 246.271 35.7546 245.887 35.4746C245.509 35.1947 245.011 35.0547 244.393 35.0547C243.774 35.0547 243.276 35.1947 242.898 35.4746C242.521 35.748 242.332 36.1094 242.332 36.5586C242.332 37.2487 242.895 37.737 244.021 38.0234L245.594 38.4043C246.616 38.6647 247.335 39.0033 247.752 39.4199C248.175 39.8301 248.387 40.4095 248.387 41.1582C248.387 42.0436 248.009 42.7695 247.254 43.3359C246.499 43.8958 245.529 44.1758 244.344 44.1758C243.237 44.1758 242.322 43.9023 241.6 43.3555C240.883 42.8021 240.48 42.0729 240.389 41.168H242.088C242.277 42.2487 243.064 42.7891 244.451 42.7891C245.135 42.7891 245.675 42.6556 246.072 42.3887C246.476 42.1152 246.678 41.7474 246.678 41.2852C246.678 40.9206 246.557 40.6309 246.316 40.416C246.082 40.2012 245.682 40.0189 245.115 39.8691L243.328 39.4102C241.551 38.9544 240.662 38.0332 240.662 36.6465Z" fill="#071E23"/>
</g>
<defs>
<clipPath id="clip0">
<rect width="326" height="59" fill="white" transform="translate(2.59766) rotate(2.52367)"/>
</clipPath>
</defs>
</svg>
