<svg width="116" height="61" viewBox="0 0 116 61" fill="none" xmlns="http://www.w3.org/2000/svg">
<g clip-path="url(#clip0)">
<path d="M8.61239 11.2188C10.0185 25.943 11.2488 40.4918 10.7215 55.3912C10.5457 60.2993 18.6306 59.9487 18.1033 55.3912C17.9275 54.6901 17.9275 53.9889 17.7518 53.4631C17.4003 51.3596 14.5881 49.2562 12.8306 51.5349C12.4791 52.0608 12.1275 52.4114 11.6003 52.9372C13.7094 53.8137 15.8185 54.6901 17.9275 55.5665C16.873 40.4918 15.1154 25.4171 11.6003 10.8682C11.2488 9.11537 8.43663 9.46595 8.61239 11.2188Z" fill="white"/>
<path d="M11.7758 9.29064C8.78788 4.2073 18.2788 4.55788 20.5636 4.90845C24.0788 5.43431 25.8364 6.83661 27.0667 9.99178C28.1212 12.6211 29.1758 15.9516 27.2424 18.4056C22.1455 24.5406 10.5455 24.0148 3.69091 23.4889C-0.70303 23.1383 -1.40606 29.9745 2.63636 31.0263C11.2485 33.305 21.0909 31.5521 28.4727 26.8194C36.0303 21.9113 35.503 14.7245 31.8121 7.18719C28.6485 0.526268 21.2667 -0.700743 14.4121 0.526268C9.49091 1.4027 5.44849 6.66133 9.49091 11.0435C10.5455 12.0952 12.4788 10.6929 11.7758 9.29064Z" fill="white"/>
<path d="M33.0426 46.8012C36.7335 45.7495 46.9275 43.2955 45.5214 37.6863C44.4668 33.1288 36.2062 32.4277 33.2184 35.2323C31.285 37.1604 30.9335 40.6662 30.582 43.1202C30.0547 46.4507 30.2305 49.9564 31.6365 53.1116C34.0971 58.5455 40.7759 61.3501 45.6971 57.3185C47.4547 56.0915 45.6971 53.2869 43.9396 53.988C35.1517 57.4938 34.0971 46.2754 35.1517 40.3156C35.5032 38.5627 36.0305 37.6863 37.7881 37.1604C39.8971 36.6346 43.4123 38.2121 41.6547 40.4909C39.8971 42.5943 34.9759 43.9966 32.5153 44.6978C31.1093 45.2236 31.6365 47.3271 33.0426 46.8012Z" fill="white"/>
<path d="M55.5394 34.1815C50.6182 36.6356 47.1031 45.2246 49.0364 50.308C51.3212 56.0925 60.8121 57.8453 66.0849 55.9172C72.7637 53.4631 69.0728 45.5752 65.7334 41.8942C61.5152 37.1614 53.9576 32.9545 47.4546 34.3568C46.0485 34.7074 46.2243 36.6356 47.4546 36.9861C51.1455 37.8626 54.4849 38.2131 57.8243 40.1413C60.2849 41.5436 66.0849 45.7505 65.9091 49.081C65.3818 50.308 64.6788 51.3597 64.1515 52.5867C63.6243 52.5867 63.097 52.5867 62.5697 52.762C61.8667 52.9373 60.9879 52.762 60.1091 52.762C57.297 52.5867 54.4849 52.4114 52.5515 50.1327C49.3879 46.6269 52.3758 37.6873 56.0667 35.2333C56.7697 34.7074 56.2425 33.831 55.5394 34.1815Z" fill="white"/>
<path d="M75.7514 32.0775C74.5211 40.8419 74.3454 50.8333 76.4544 59.4224C77.1575 62.227 81.9029 60.8247 80.8484 58.1953C80.6726 57.8448 80.4969 57.4942 80.4969 57.1436C79.9696 55.9166 78.212 55.3907 77.3332 56.793C77.1575 57.1436 76.9817 57.4942 76.806 57.6695C78.212 58.0201 79.6181 58.3706 81.0241 58.7212C79.9696 49.9568 78.3878 41.0172 77.3332 32.2528C77.1575 31.5517 75.9272 31.2011 75.7514 32.0775Z" fill="white"/>
<path d="M76.1032 33.1289C75.5759 28.0455 82.4305 30.8501 83.8365 31.7266C84.8911 32.2524 86.6487 33.4794 86.8244 34.8817C87.0002 36.284 85.7699 37.511 84.5396 38.0369C81.2002 39.6145 76.982 38.5628 73.4668 38.5628C71.3577 38.5628 71.182 41.3674 72.9396 41.8932C77.1577 43.4708 82.2547 43.6461 86.2971 41.3674C89.285 39.6145 91.2183 36.1087 88.9335 32.9536C87.1759 30.149 81.9032 28.2208 78.7396 28.5714C76.8062 28.922 74.8729 30.8501 76.1032 33.1289Z" fill="white"/>
<path d="M101.587 47.6781C105.102 48.204 109.145 48.9051 112.484 46.9769C115.296 45.2241 116.527 42.5948 115.999 39.4396C115.999 38.7384 115.296 38.3879 114.769 38.2126C111.781 37.1609 108.969 38.7384 106.684 40.4913C104.224 42.4195 100.709 44.6982 99.1267 47.5028C97.7207 49.7816 98.0722 52.5861 100.006 54.6896C102.466 57.1436 106.157 57.3189 109.321 56.4425C111.781 55.9166 111.078 52.5861 108.793 52.4109C107.387 52.2356 104.399 52.5861 103.521 51.1838C102.466 49.6063 104.927 47.8534 105.981 46.9769C108.266 44.8735 111.078 41.3678 114.418 41.7183C113.89 41.3678 113.363 41.1925 112.836 40.8419C114.066 43.6465 110.727 45.9252 108.442 46.4511C106.333 46.977 104.048 46.6264 101.763 46.2758C100.884 46.1005 100.709 47.5028 101.587 47.6781Z" fill="white"/>
<path d="M93.8545 56.0921C95.7878 46.1007 98.0726 35.9341 99.1272 25.9427C99.3029 23.8392 96.1393 23.6639 95.612 25.4168C92.6242 34.7071 91.9211 46.276 92.4484 55.9168C92.4484 56.7933 93.6787 56.9685 93.8545 56.0921Z" fill="white"/>
</g>
<defs>
<clipPath id="clip0">
<rect width="116" height="61" fill="white"/>
</clipPath>
</defs>
</svg>
