<svg width="265" height="121" viewBox="0 0 265 121" fill="none" xmlns="http://www.w3.org/2000/svg">
<g clip-path="url(#clip0)">
<path d="M2.88591 42.2331C0.66573 50.8185 0.998758 60.0729 -0.000324679 68.7697C-0.333352 71.6687 4.88408 71.6687 4.55105 68.7697C4.44004 67.7662 4.32903 66.7628 4.21802 65.6478C3.99601 63.8638 1.22078 63.0833 0.776739 65.2018C0.554721 66.2053 0.332703 67.2087 0.110684 68.1007C1.5538 68.3237 3.10793 68.5467 4.55105 68.6582C3.55197 59.9614 4.55105 51.153 3.77399 42.3446C3.66298 41.8986 2.99692 41.7871 2.88591 42.2331Z" fill="white"/>
<path d="M4.43988 44.1289C2.21969 40.6724 9.32428 41.3414 10.7674 41.6759C12.9876 42.2334 15.0968 43.2369 16.7619 44.7979C21.5353 49.1463 9.43529 51.1533 6.88208 51.5993C3.88483 52.1568 5.32795 57.2857 8.10318 56.1707C12.5435 54.3867 18.205 53.4947 20.7582 48.9233C22.9784 45.0209 18.9821 42.6794 15.8738 41.0069C12.7656 39.3345 8.3252 38.108 4.7729 39.446C2.55272 40.338 1.22061 43.1254 3.5518 44.6864C4.10685 45.1324 4.6619 44.5749 4.43988 44.1289Z" fill="white"/>
<path d="M3.55265 51.1536C7.99301 58.5124 14.2095 65.5368 21.6471 69.9968C21.6471 68.7703 21.6471 67.5438 21.6471 66.3173C21.3141 66.4288 20.9811 66.4288 20.5371 66.5403C18.4279 66.5403 17.7618 70.1083 19.982 70.4428C21.3141 70.6658 21.8692 70.6658 23.2013 70.3313C24.9774 69.8853 25.4215 67.3208 23.7563 66.4288C16.2077 62.4149 9.76916 57.732 4.55173 50.7076C4.10769 49.9271 3.10861 50.4846 3.55265 51.1536Z" fill="white"/>
<path d="M32.7479 46.2471C26.7534 46.8046 24.3112 58.0659 25.5323 62.7488C27.3084 69.2157 38.0763 70.5537 43.4048 68.4352C45.958 67.4317 48.4002 65.3133 48.8442 62.5258C49.3993 59.0694 46.513 55.8359 44.1818 53.606C38.7424 48.5885 31.1937 44.6861 24.6442 49.9265C22.646 51.4875 25.3103 54.8324 27.3084 53.383C30.9717 50.707 35.0791 52.3795 38.4093 54.7209C41.6286 56.9509 47.9561 62.3028 41.2956 64.6443C37.9653 65.7593 30.1947 64.9788 28.8626 60.9648C27.7525 57.8429 29.5286 48.7 33.0809 47.3621C33.5249 47.2506 33.5249 46.2471 32.7479 46.2471Z" fill="white"/>
<path d="M53.6174 66.0945C54.1725 66.652 54.6165 67.098 55.2826 67.544C55.8376 67.99 56.8367 67.767 56.8367 66.875C56.7257 63.753 54.7275 49.7042 60.611 51.0422C63.3862 51.7112 64.0523 56.6171 64.7184 58.8471C65.4954 61.5231 66.2725 64.199 67.0495 66.875C67.6046 68.6589 69.7138 69.1049 71.0459 67.99C71.7119 67.321 72.045 66.875 72.267 65.983C72.6 64.7565 71.7119 63.753 70.4908 63.6415C69.4917 63.53 68.9367 63.753 68.0486 64.199C69.2697 64.645 70.3798 65.2025 71.6009 65.6485C69.8248 61.0771 68.4927 55.8367 65.9395 51.7112C64.4963 49.2583 61.8321 47.3628 58.9459 47.9203C50.6202 49.5927 54.1725 61.8576 54.9495 67.321C55.2826 66.9865 55.7266 66.5405 56.0596 66.206C55.3936 65.8715 54.7275 65.6485 53.9505 65.4255C53.6174 65.2025 53.2844 65.76 53.6174 66.0945Z" fill="white"/>
<path d="M50.8423 61.0762C56.1708 61.1877 61.2772 61.6337 66.6056 62.0797C69.0478 62.3027 69.0478 58.0658 66.6056 58.2888C61.3882 58.7348 56.1708 59.1808 50.8423 59.2923C49.7322 59.2923 49.7322 61.0762 50.8423 61.0762Z" fill="white"/>
<path d="M77.1512 47.4741C76.8182 47.0281 76.5962 46.6936 76.2631 46.2477C75.7081 45.4672 74.487 45.6902 74.376 46.6936C74.376 53.8295 76.4852 60.8539 79.2604 67.3208C79.7044 68.4358 81.4806 68.5473 82.2576 67.6553C83.2567 66.5403 83.4787 66.3173 83.7008 64.7564C83.9228 62.9724 81.9246 61.9689 80.8145 63.5299C80.3705 63.9759 79.9264 64.5334 79.5934 64.9794C80.5925 65.0909 81.5916 65.2024 82.5907 65.3139C79.3714 59.1814 77.8173 53.049 76.3741 46.3591C75.8191 46.6936 75.2641 47.0281 74.709 47.3626C75.042 47.6971 75.4861 48.0316 75.8191 48.3661C76.4852 49.1466 77.7063 48.2546 77.1512 47.4741Z" fill="white"/>
<path d="M73.1547 45.2434C72.4887 44.463 71.9336 43.571 71.2676 42.7905C70.9346 43.348 70.6015 43.9055 70.2685 44.463C75.4859 44.24 80.4813 45.6894 84.9217 48.5884C89.0291 51.2643 96.5777 58.6232 88.03 61.2992C85.9208 61.9682 86.1428 64.6441 88.03 65.3131C91.2492 66.5396 94.2465 64.5326 95.5786 61.4107C96.9107 58.1772 95.8006 54.7208 93.8025 52.0448C88.585 45.1319 78.7052 41.564 70.2685 42.233C69.3804 42.3445 68.7144 43.4595 69.4914 44.1285C70.3795 44.7974 71.1566 45.5779 71.9336 46.4699C72.7107 47.3619 73.8208 46.1354 73.1547 45.2434Z" fill="white"/>
<path d="M108.345 43.7941C105.015 37.2157 92.5817 44.7976 96.578 50.93C99.2422 55.0555 104.904 56.282 109.233 57.8429C110.565 58.2889 112.674 58.7349 113.673 59.7384C115.117 60.0729 115.228 60.6304 113.895 61.0764C113.229 61.7454 112.452 62.1914 111.453 62.1914C107.679 63.1948 103.683 62.4144 99.9083 61.9684C97.0221 61.6339 95.6899 66.4283 98.3542 67.6548C104.127 70.1077 124.108 70.3307 120.556 59.1809C119.224 55.2785 114.006 54.275 110.565 53.2715C107.79 52.491 104.793 51.7105 102.239 50.3725C100.241 49.3691 99.3532 49.3691 100.241 46.8046C101.018 44.5746 105.015 40.4492 107.679 44.2401C108.012 44.5746 108.678 44.2401 108.345 43.7941Z" fill="white"/>
</g>
<g clip-path="url(#clip1)">
<path d="M132.329 81.1487C148.548 80.2625 164.846 77.7771 180.937 75.757C188.265 74.8175 195.592 73.878 202.74 72.3388C209.212 70.9821 216.439 69.5152 222.216 66.2147C226.362 63.8237 229.882 59.3337 228.739 54.2191C227.592 49.0287 222.144 47.8319 217.55 47.0522C201.783 44.499 185.879 42.256 170.16 39.0929C155.824 36.247 131.625 30.3529 134.837 10.6817C135.068 9.07575 132.611 8.50321 132.38 10.1092C130.607 21.2819 138.404 30.7297 148.036 35.384C160.152 41.2175 174.73 42.6848 187.894 44.8239C195.473 46.0763 203.047 47.2529 210.619 48.3536C213.91 48.8884 217.343 49.1889 220.644 49.9511C225.868 51.2341 228.735 55.8148 225.388 60.7528C221.399 66.6315 211.518 68.2185 205.053 69.7269C197.836 71.4212 190.512 72.4365 183.113 73.4553C166.194 75.6648 149.093 77.1987 132.374 80.4629C131.847 80.5627 131.95 81.1658 132.329 81.1487Z" fill="white"/>
<path d="M142.993 6.2103C150.252 18.8735 163.695 23.8111 177.515 25.3127C194.463 27.1286 211.24 28.4964 227.964 32.0698C235.098 33.5703 242.762 35.0467 248.945 39.0214C256.377 43.7753 258.02 51.5264 258.777 59.8495C259.213 64.4642 258.058 67.4796 254.705 70.5944C251.788 73.3096 248.631 75.7318 245.467 78.0024C239.432 82.3024 232.993 86.0887 226.465 89.5753C211.851 97.3786 196.669 104.372 183.213 114.25C180.786 116.031 183.318 119.944 185.745 118.162C198.543 108.846 212.743 101.973 226.526 94.283C233.344 90.4794 240.151 86.4485 246.555 81.9039C251.632 78.2551 259.319 73.5005 261.705 67.4664C262.932 64.3718 262.474 60.9737 262.027 57.8029C261.555 54.1015 261.005 50.3276 259.554 46.8224C256.998 40.7082 251.954 36.6819 245.988 34.1409C239.096 31.2619 231.59 29.9303 224.308 28.5125C215.19 26.798 205.937 25.4695 196.625 24.5235C187.237 23.581 177.591 23.6378 168.303 21.5511C158.096 19.2781 150.032 14.021 143.803 5.64179C143.475 5.12478 142.662 5.61746 142.993 6.2103Z" fill="white"/>
<path d="M156.567 101.325C161.965 99.7129 167.541 98.7007 172.942 97.1646C173.617 96.9821 173.414 95.8517 172.735 95.9584C167.152 96.819 161.692 98.7376 156.302 100.501C155.702 100.68 155.968 101.504 156.567 101.325Z" fill="#FFE500"/>
<path d="M191.533 89.941C194.938 89.6349 198.302 88.4189 201.607 87.5855C205.364 86.6557 209.193 85.6466 212.946 84.641C212.763 83.9654 212.509 83.3692 212.326 82.6937C212.102 82.7798 211.806 82.9451 211.582 83.0313C210.389 83.5411 211.006 85.4126 212.202 84.9786C212.501 84.889 212.725 84.8029 213.025 84.7133C214.221 84.2793 213.68 82.4044 212.405 82.766C205.581 84.7465 197.823 86.2373 191.43 89.3379C190.982 89.5101 191.157 90.034 191.533 89.941Z" fill="#FFE500"/>
<path d="M228.349 74.143C231.003 72.3514 233.489 70.1875 235.422 67.5928C235.926 66.9622 234.975 66.0936 234.471 66.7241C232.534 69.2431 230.435 71.5414 227.939 73.4778C227.574 73.7982 227.905 74.3911 228.349 74.143Z" fill="#FFE500"/>
<path d="M242.352 54.515C243.076 52.051 240.915 49.6416 238.958 48.3627C238.41 48.0076 237.841 48.8691 238.317 49.3034C239.826 50.7546 241.859 52.0301 241.738 54.3908C241.683 54.8492 242.289 54.8217 242.352 54.515Z" fill="#FFE500"/>
<path d="M212.14 40.0035C215.631 39.9214 219.067 40.2977 222.441 40.9807C223.13 41.1014 223.386 40.0262 222.696 39.9055C219.174 39.3052 215.669 39.084 212.106 39.2453C211.651 39.2659 211.685 40.0241 212.14 40.0035Z" fill="#FFE500"/>
<path d="M182.358 34.9703C184.863 34.9328 187.314 35.3537 189.822 35.3921C190.508 35.437 190.536 34.3721 189.923 34.2479C187.538 33.5961 184.739 33.8748 182.323 34.2121C181.796 34.3119 181.827 34.9943 182.358 34.9703Z" fill="#FFE500"/>
<path d="M162.715 29.0217C165.734 30.2526 168.842 31.7833 171.919 32.6317C172.612 32.8282 173.019 31.7461 172.323 31.4738C169.3 30.167 165.996 29.329 162.915 28.4048C162.605 28.2669 162.405 28.8838 162.715 29.0217Z" fill="#FFE500"/>
<path d="M147.542 21.1236C148.028 21.7854 148.665 22.4403 149.299 23.0194C149.858 23.6019 150.423 24.3361 151.195 24.605C151.501 24.6671 151.791 24.3501 151.701 24.0503C151.439 23.3024 150.581 22.8094 149.951 22.3061C149.317 21.727 148.61 21.2272 147.904 20.7273C147.673 20.6618 147.38 20.903 147.542 21.1236Z" fill="#FFE500"/>
<path d="M140.951 11.4687C140.879 11.5479 140.807 11.6272 140.734 11.7064C140.662 11.7857 140.665 11.8615 140.672 12.0132C140.679 12.1648 140.689 12.3923 140.775 12.6163C140.868 12.992 141.113 13.3608 141.354 13.6537C141.668 13.8675 142.192 13.6918 142.099 13.3161C142.088 13.0887 142.078 12.8612 142.068 12.6338C142.044 12.103 141.286 12.1373 141.234 12.6715C141.244 12.899 141.179 13.1299 141.189 13.3573C141.413 13.2712 141.709 13.1058 141.933 13.0197C141.771 12.7991 141.609 12.5785 141.523 12.3545C141.441 12.2063 141.51 12.0512 141.43 11.9788C141.423 11.8272 141.268 11.7582 141.186 11.61C141.172 11.3067 141.02 11.3136 140.951 11.4687Z" fill="#FFE500"/>
<path d="M196.909 37.5019C199.194 37.6264 201.416 38.0576 203.577 38.7955C204.118 38.999 204.377 37.9996 203.763 37.8754C201.534 37.2926 199.242 37.0164 196.888 37.047C196.581 36.9849 196.602 37.4399 196.909 37.5019Z" fill="#FFE500"/>
</g>
<defs>
<clipPath id="clip0">
<rect width="121" height="32" fill="white" transform="translate(0 39)"/>
</clipPath>
<clipPath id="clip1">
<rect width="131.152" height="114.909" fill="white" transform="translate(128.628 6.10059) rotate(-2.5922)"/>
</clipPath>
</defs>
</svg>
