<svg width="329" height="74" viewBox="0 0 329 74" fill="none" xmlns="http://www.w3.org/2000/svg">
<g clip-path="url(#clip0)">
<path d="M38.0618 28.6397C37.92 28.6276 37.7929 28.446 37.5095 28.4216C37.3677 28.4095 37.226 28.3973 37.2115 28.5667C36.9135 28.7118 36.601 29.0263 36.5719 29.3651C36.5428 29.7039 36.6554 30.0549 37.066 30.2608C37.2077 30.2729 37.3349 30.4545 37.3349 30.4545C37.4766 30.4667 37.6183 30.4789 37.9163 30.3338C38.2143 30.1887 38.5268 29.8742 38.5559 29.5354C38.5995 29.0272 38.4869 28.6762 38.0618 28.6397Z" fill="#EE2E30"/>
<path d="M14.0112 27.7697C68.022 30.5307 122.324 29.9035 176.367 30.6194C203.184 30.8744 230.127 31.311 256.915 31.9048C270.167 32.1895 283.277 32.4621 296.514 32.9162C300.497 33.0876 312.833 30.7339 315.133 35.539C316.826 39.0975 314.921 47.9786 315.408 52.2868C317.498 49.5651 319.431 47.0006 321.52 44.279C294.933 43.0197 268.302 42.2687 241.627 42.0258C215.377 41.8195 189.462 44.3723 163.252 45.364C136.461 46.4764 109.794 42.8212 83.0209 42.058C70.0669 41.6282 57.0983 41.3678 44.2424 41.4583C35.2417 41.5387 10.6851 44.8908 12.6378 27.1398C11.0315 29.2204 9.58154 31.1437 7.9753 33.2243C18.6366 32.092 29.1416 31.1169 39.8029 29.9846C47.0049 29.2378 45.1345 16.1074 37.9325 16.8542C27.2713 17.9865 16.7662 18.9616 6.10496 20.0939C3.6522 20.3953 1.81696 23.4801 1.44249 26.1784C-2.39004 60.8335 39.5357 54.7065 56.941 54.836C86.4646 55.1528 115.926 57.8534 145.392 58.8479C174.29 59.7936 203.229 55.2819 232.2 55.3806C261.597 55.5159 290.935 56.3287 320.23 57.6498C323.929 57.7968 326.814 54.1195 326.342 49.642C325.202 39.6461 328.673 27.4864 319.444 21.9155C314.008 18.7183 306.479 19.9489 300.356 19.7644C293.808 19.5434 287.104 19.4797 280.556 19.2587C250.92 18.5909 221.284 17.9231 191.477 17.582C132.728 16.8033 73.7243 15.6614 14.7677 18.9606C10.1747 19.2488 9.03676 27.5132 14.0112 27.7697Z" fill="#EE2E30"/>
<path d="M9.54809 39.8441C20.0639 40.4058 31.2737 41.1978 40.8153 46.4542C41.8332 41.2513 42.8655 35.879 44.0251 30.6883C37.2374 29.9348 30.606 29.024 23.8329 28.101C23.3238 34.0302 22.8146 39.9594 22.3055 45.8886C25.7502 45.6724 29.1804 45.6257 32.6397 45.2401C41.713 44.3128 40.2026 28.6535 32.1832 27.2822C27.5358 26.5418 22.8884 25.8014 18.2555 24.8916C17.7609 30.6514 17.2808 36.2418 16.7862 42.0015C23.8427 42.9488 30.9429 43.3879 38.0867 43.3187C46.6476 43.3713 48.1132 27.9676 39.4542 27.3946C37.1868 27.1999 34.7631 27.1625 32.4957 26.9677C32.0447 32.2193 31.5938 37.4709 31.1428 42.7224C46.0662 43.492 61.1459 44.1044 76.0693 44.8739C84.3178 45.241 85.5689 30.6721 77.3786 29.6275C68.3527 28.3404 59.2831 27.5615 50.199 26.9521C42.1068 26.4279 40.8266 41.3355 48.9188 41.8598C64.6779 42.8718 80.4662 43.545 96.2981 43.7099C104.136 43.871 105.1 30.9841 97.5346 29.3105C93.0435 28.4129 88.4252 27.3336 83.934 26.436C83.5267 31.1793 83.1194 35.9227 82.712 40.666C98.9292 39.6695 115.03 40.0282 131.043 41.4034C131.451 36.66 131.858 31.9167 132.251 27.3428C124.032 26.6369 115.812 25.9311 107.466 25.0437C99.2756 23.999 98.1516 38.7495 106.171 40.1208C118.696 42.2203 131.309 43.3034 144.063 44.3986C152.991 45.1653 154.216 29.229 145.474 27.9663C131.375 25.9023 117.175 25.0242 102.873 25.3319C93.5742 25.5573 92.1087 40.961 101.389 42.6112C113.758 44.868 126.214 46.1083 138.87 46.6832C139.379 40.754 139.888 34.8248 140.397 28.8956C129.569 28.6483 118.741 28.4011 107.912 28.1538C98.3741 27.8467 96.7631 44.9445 106.4 45.772C130.491 47.8408 154.713 48.385 178.938 47.2229C188.252 46.8281 190.059 30.7711 180.451 29.6047C171.694 28.5114 163.119 28.6283 154.343 29.4106C145.852 30.2172 146.766 46.1666 154.844 46.8603C172.841 48.4058 190.77 49.0922 208.883 49.2824C219.018 49.2994 220.829 31.5362 210.513 30.3091C200.48 29.1062 190.404 28.4116 180.241 28.7334C179.688 35.1708 179.135 41.6082 178.582 48.0456C197.507 47.1109 216.387 46.6844 235.253 46.4273C245.544 46.2871 247.511 28.3666 236.912 27.1151C228.423 26.2155 220.019 26.0057 211.57 26.3042C201.251 26.7832 199.182 45.8895 209.897 45.7858C233.738 45.7852 257.451 45.6031 281.292 45.6025C291.284 45.6074 293.095 27.8441 282.907 26.7985C277.805 26.3604 272.562 25.9102 267.46 25.4721C266.922 31.7401 266.398 37.8387 265.86 44.1066C281.79 44.792 297.891 45.1507 313.835 45.6667C323.232 45.9617 324.857 28.6945 315.333 28.2179C299.418 27.3632 283.375 26.3268 267.445 25.6415C257.355 25.1162 255.798 43.2426 265.845 44.2761C270.947 44.7142 276.176 45.3338 281.277 45.7719C281.816 39.5039 282.354 33.2359 282.892 26.9679C259.066 26.7991 235.382 26.6424 211.556 26.4736C211.003 32.911 210.436 39.5178 209.883 45.9552C218.331 45.6568 226.736 45.8665 235.082 46.7539C235.635 40.3165 236.188 33.8791 236.741 27.4417C217.831 28.207 198.921 28.9723 180.07 29.06C169.638 29.1881 167.852 48.3187 178.411 48.3722C188.546 48.3892 198.666 48.5756 208.713 49.6091C209.251 43.3411 209.804 36.9037 210.342 30.6357C192.312 31.1352 174.212 30.7755 156.171 29.7382C156.385 35.5588 156.457 41.3673 156.671 47.1879C164.157 46.4655 171.555 46.7595 178.895 47.7311C179.404 41.8019 179.899 36.0421 180.408 30.113C156.197 31.1056 131.96 30.7309 107.883 28.4926C107.374 34.4218 106.865 40.351 106.37 46.1108C117.199 46.358 128.013 46.7747 138.841 47.022C148.379 47.3291 150.034 29.7231 140.368 29.2344C127.854 28.6717 115.256 27.4192 102.858 25.5013C102.364 31.2611 101.869 37.0209 101.374 42.7806C115.706 42.1341 129.935 42.6734 144.204 44.4108C144.67 38.9898 145.135 33.5688 145.615 27.9785C132.974 27.2342 120.376 25.9817 107.608 25.0559C107.171 30.138 106.749 35.0508 106.313 40.1329C114.576 40.3305 122.81 40.867 131.171 41.585C138.823 42.2421 140.031 28.1815 132.378 27.5243C116.223 26.137 100.249 25.9599 84.0466 26.787C76.3069 27.1463 75.274 39.174 82.8246 41.017C87.3012 42.0841 91.9196 43.1633 96.4107 44.0609C96.818 39.3176 97.2254 34.5742 97.6472 29.6615C81.8299 29.3271 66.0562 28.4845 50.3116 27.3031C49.8897 32.2158 49.4533 37.298 49.0314 42.2108C58.1155 42.8202 67.1706 43.7684 76.182 45.2249C76.6184 40.1428 77.0548 35.0606 77.4912 29.9784C62.5824 29.0395 47.5172 28.2577 32.6083 27.3187C24.091 26.758 22.7381 42.5126 31.2554 43.0734C33.5228 43.2681 35.9319 43.475 38.1993 43.6697C38.6503 38.4182 39.1158 32.9972 39.5668 27.7456C32.4375 27.6454 25.381 26.6981 18.3681 25.2426C9.25866 23.2657 8.08732 40.2306 16.8988 42.3525C21.5171 43.4317 26.1209 44.6803 30.7392 45.7596C31.2629 39.661 31.7721 33.7318 32.2958 27.6332C28.8511 27.8493 25.3918 28.2349 22.0742 28.6326C13.7094 29.6208 14.1697 45.8725 22.5598 46.2517C29.3911 46.4971 36.0806 46.7302 42.8974 47.1449C52.7046 47.6458 52.5607 29.3734 42.4226 31.0626C31.5614 32.8604 20.6205 32.2622 9.60302 34.2172C6.44171 34.4577 6.69929 39.7701 9.54809 39.8441Z" fill="#EE2E30"/>
<path d="M102.34 40.123H104.107C104.192 40.8848 104.563 41.4967 105.221 41.959C105.885 42.4212 106.721 42.6523 107.73 42.6523C108.681 42.6523 109.465 42.4277 110.084 41.9785C110.709 41.5228 111.021 40.9499 111.021 40.2598C111.021 39.6673 110.803 39.179 110.367 38.7949C109.938 38.4108 109.247 38.0951 108.297 37.8477L106.49 37.3789C105.188 37.0469 104.238 36.5846 103.639 35.9922C103.04 35.3932 102.74 34.6152 102.74 33.6582C102.74 32.4863 103.202 31.5293 104.127 30.7871C105.058 30.0449 106.256 29.6738 107.721 29.6738C109.12 29.6738 110.279 30.0514 111.197 30.8066C112.115 31.5553 112.594 32.5189 112.633 33.6973H110.875C110.797 32.9421 110.471 32.3464 109.898 31.9102C109.326 31.474 108.58 31.2559 107.662 31.2559C106.751 31.2559 106.005 31.4707 105.426 31.9004C104.853 32.3301 104.566 32.89 104.566 33.5801C104.566 34.1139 104.775 34.5534 105.191 34.8984C105.615 35.237 106.305 35.5299 107.262 35.7773L108.736 36.168C110.195 36.5326 111.243 37.0176 111.881 37.623C112.519 38.2285 112.838 39.0358 112.838 40.0449C112.838 41.334 112.363 42.3561 111.412 43.1113C110.468 43.86 109.186 44.2344 107.564 44.2344C106.067 44.2344 104.843 43.86 103.893 43.1113C102.942 42.3626 102.424 41.3665 102.34 40.123ZM115.172 31.3926H116.871V33.8438H118.844V35.2402H116.871V41.2754C116.871 41.7376 116.972 42.0794 117.174 42.3008C117.376 42.5156 117.695 42.623 118.131 42.623C118.404 42.623 118.639 42.6068 118.834 42.5742V44C118.613 44.0521 118.255 44.0781 117.76 44.0781C116.829 44.0781 116.165 43.8698 115.768 43.4531C115.37 43.0365 115.172 42.3398 115.172 41.3633V35.2402H113.658V33.8438H115.172V31.3926ZM123.814 42.7305C124.615 42.7305 125.286 42.4831 125.826 41.9883C126.373 41.487 126.646 40.8717 126.646 40.1426V39.3125L123.932 39.4785C123.248 39.5241 122.717 39.6901 122.34 39.9766C121.969 40.263 121.783 40.6471 121.783 41.1289C121.783 41.6107 121.969 41.998 122.34 42.291C122.711 42.584 123.202 42.7305 123.814 42.7305ZM123.434 44.1758C122.424 44.1758 121.607 43.8958 120.982 43.3359C120.364 42.776 120.055 42.0404 120.055 41.1289C120.055 40.2565 120.374 39.5599 121.012 39.0391C121.656 38.5182 122.564 38.2253 123.736 38.1602L126.646 37.9941V37.1445C126.646 36.526 126.451 36.041 126.061 35.6895C125.67 35.3379 125.123 35.1621 124.42 35.1621C123.775 35.1621 123.251 35.3053 122.848 35.5918C122.444 35.8717 122.187 36.2656 122.076 36.7734H120.436C120.494 35.8685 120.885 35.1263 121.607 34.5469C122.337 33.9609 123.287 33.668 124.459 33.668C125.65 33.668 126.594 33.9674 127.291 34.5664C127.994 35.1654 128.346 35.9694 128.346 36.9785V44H126.734V42.252H126.695C126.389 42.8314 125.94 43.2969 125.348 43.6484C124.755 44 124.117 44.1758 123.434 44.1758ZM130.504 44V33.8438H132.105V35.5039H132.145C132.314 34.9375 132.617 34.4915 133.053 34.166C133.495 33.834 134.013 33.668 134.605 33.668C134.742 33.668 134.97 33.6908 135.289 33.7363V35.3867C135.107 35.3216 134.804 35.2891 134.381 35.2891C133.723 35.2891 133.196 35.5072 132.799 35.9434C132.402 36.3796 132.203 36.9557 132.203 37.6719V44H130.504ZM137.223 31.3926H138.922V33.8438H140.895V35.2402H138.922V41.2754C138.922 41.7376 139.023 42.0794 139.225 42.3008C139.426 42.5156 139.745 42.623 140.182 42.623C140.455 42.623 140.689 42.6068 140.885 42.5742V44C140.663 44.0521 140.305 44.0781 139.811 44.0781C138.88 44.0781 138.215 43.8698 137.818 43.4531C137.421 43.0365 137.223 42.3398 137.223 41.3633V35.2402H135.709V33.8438H137.223V31.3926ZM150.162 42.7305C150.963 42.7305 151.633 42.4831 152.174 41.9883C152.721 41.487 152.994 40.8717 152.994 40.1426V39.3125L150.279 39.4785C149.596 39.5241 149.065 39.6901 148.688 39.9766C148.316 40.263 148.131 40.6471 148.131 41.1289C148.131 41.6107 148.316 41.998 148.688 42.291C149.059 42.584 149.55 42.7305 150.162 42.7305ZM149.781 44.1758C148.772 44.1758 147.955 43.8958 147.33 43.3359C146.712 42.776 146.402 42.0404 146.402 41.1289C146.402 40.2565 146.721 39.5599 147.359 39.0391C148.004 38.5182 148.912 38.2253 150.084 38.1602L152.994 37.9941V37.1445C152.994 36.526 152.799 36.041 152.408 35.6895C152.018 35.3379 151.471 35.1621 150.768 35.1621C150.123 35.1621 149.599 35.3053 149.195 35.5918C148.792 35.8717 148.535 36.2656 148.424 36.7734H146.783C146.842 35.8685 147.232 35.1263 147.955 34.5469C148.684 33.9609 149.635 33.668 150.807 33.668C151.998 33.668 152.942 33.9674 153.639 34.5664C154.342 35.1654 154.693 35.9694 154.693 36.9785V44H153.082V42.252H153.043C152.737 42.8314 152.288 43.2969 151.695 43.6484C151.103 44 150.465 44.1758 149.781 44.1758ZM160.953 44V33.8438H162.555V35.4648H162.594C162.887 34.8984 163.307 34.459 163.854 34.1465C164.4 33.8275 165.055 33.668 165.816 33.668C166.923 33.668 167.786 34.0033 168.404 34.6738C169.023 35.3379 169.332 36.2493 169.332 37.4082V44H167.633V37.7109C167.633 36.8841 167.438 36.2559 167.047 35.8262C166.656 35.39 166.074 35.1719 165.299 35.1719C164.498 35.1719 163.857 35.4323 163.375 35.9531C162.893 36.474 162.652 37.1641 162.652 38.0234V44H160.953ZM175.572 35.1426C174.785 35.1426 174.13 35.416 173.609 35.9629C173.095 36.5033 172.812 37.1999 172.76 38.0527H178.277C178.258 37.1934 178.001 36.4935 177.506 35.9531C177.011 35.4128 176.367 35.1426 175.572 35.1426ZM178.238 41.0898H179.908C179.758 41.9883 179.29 42.7272 178.502 43.3066C177.721 43.8861 176.78 44.1758 175.68 44.1758C174.228 44.1758 173.085 43.707 172.252 42.7695C171.419 41.832 171.002 40.5625 171.002 38.9609C171.002 37.3724 171.419 36.0931 172.252 35.123C173.092 34.153 174.208 33.668 175.602 33.668C176.969 33.668 178.049 34.127 178.844 35.0449C179.638 35.9629 180.035 37.1934 180.035 38.7363V39.3809H172.75V39.4785C172.75 40.4551 173.017 41.2363 173.551 41.8223C174.085 42.4082 174.807 42.7012 175.719 42.7012C176.357 42.7012 176.9 42.5547 177.35 42.2617C177.799 41.9688 178.095 41.5781 178.238 41.0898ZM194.674 33.8438L191.842 44H190.113L187.818 36.1387H187.779L185.494 44H183.766L180.924 33.8438H182.613L184.645 42.1055H184.684L186.979 33.8438H188.619L190.924 42.1055H190.963L192.994 33.8438H194.674ZM200.719 31.3926H202.418V33.8438H204.391V35.2402H202.418V41.2754C202.418 41.7376 202.519 42.0794 202.721 42.3008C202.923 42.5156 203.242 42.623 203.678 42.623C203.951 42.623 204.186 42.6068 204.381 42.5742V44C204.16 44.0521 203.801 44.0781 203.307 44.0781C202.376 44.0781 201.712 43.8698 201.314 43.4531C200.917 43.0365 200.719 42.3398 200.719 41.3633V35.2402H199.205V33.8438H200.719V31.3926ZM206.207 44V33.8438H207.809V35.5039H207.848C208.017 34.9375 208.32 34.4915 208.756 34.166C209.199 33.834 209.716 33.668 210.309 33.668C210.445 33.668 210.673 33.6908 210.992 33.7363V35.3867C210.81 35.3216 210.507 35.2891 210.084 35.2891C209.426 35.2891 208.899 35.5072 208.502 35.9434C208.105 36.3796 207.906 36.9557 207.906 37.6719V44H206.207ZM212.467 44V33.8438H214.166V44H212.467ZM213.316 32.1348C213.03 32.1348 212.783 32.0306 212.574 31.8223C212.366 31.6139 212.262 31.3665 212.262 31.0801C212.262 30.7871 212.366 30.5397 212.574 30.3379C212.783 30.1296 213.03 30.0254 213.316 30.0254C213.609 30.0254 213.86 30.1296 214.068 30.3379C214.277 30.5397 214.381 30.7871 214.381 31.0801C214.381 31.3665 214.277 31.6139 214.068 31.8223C213.86 32.0306 213.609 32.1348 213.316 32.1348ZM221.393 33.668C222.695 33.668 223.743 34.1465 224.537 35.1035C225.338 36.0605 225.738 37.3333 225.738 38.9219C225.738 40.5039 225.341 41.7767 224.547 42.7402C223.753 43.6973 222.714 44.1758 221.432 44.1758C220.715 44.1758 220.074 44.013 219.508 43.6875C218.941 43.362 218.505 42.916 218.199 42.3496H218.16V47.3887H216.461V33.8438H218.072V35.5625H218.111C218.43 34.9766 218.876 34.5143 219.449 34.1758C220.022 33.8372 220.67 33.668 221.393 33.668ZM221.061 42.6816C221.965 42.6816 222.682 42.3431 223.209 41.666C223.736 40.9889 224 40.0742 224 38.9219C224 37.7695 223.736 36.8548 223.209 36.1777C222.682 35.5007 221.965 35.1621 221.061 35.1621C220.188 35.1621 219.485 35.5072 218.951 36.1973C218.417 36.8874 218.15 37.7956 218.15 38.9219C218.15 40.0547 218.417 40.9661 218.951 41.6562C219.485 42.3398 220.188 42.6816 221.061 42.6816Z" fill="white"/>
</g>
<defs>
<clipPath id="clip0">
<rect width="326" height="59" fill="white" transform="translate(2.59766) rotate(2.52367)"/>
</clipPath>
</defs>
</svg>
