<svg width="370" height="84" viewBox="0 0 370 84" fill="none" xmlns="http://www.w3.org/2000/svg">
<g clip-path="url(#clip0)">
<path d="M43.5989 32.7913C43.4395 32.7776 43.2965 32.5734 42.9778 32.546C42.8184 32.5323 42.659 32.5186 42.6426 32.7091C42.3075 32.8723 41.956 33.226 41.9233 33.607C41.8906 33.9881 42.0173 34.3828 42.479 34.6144C42.6384 34.6281 42.7814 34.8323 42.7814 34.8323C42.9408 34.846 43.1002 34.8597 43.4353 34.6965C43.7704 34.5334 44.1219 34.1797 44.1546 33.7986C44.2037 33.2271 44.0771 32.8323 43.5989 32.7913Z" fill="#FFE500"/>
<path d="M16.5501 31.8127C77.2943 34.9179 138.366 34.2125 199.147 35.0177C229.307 35.3045 259.609 35.7955 289.736 36.4633C304.64 36.7835 319.385 37.0901 334.273 37.6008C338.752 37.7935 352.626 35.1464 355.213 40.5506C357.117 44.5527 354.975 54.5411 355.522 59.3863C357.872 56.3253 360.046 53.4412 362.396 50.3802C332.494 48.9639 302.543 48.1192 272.543 47.8461C243.021 47.6141 213.874 50.4852 184.397 51.6005C154.266 52.8516 124.274 48.7406 94.1631 47.8823C79.5941 47.3989 65.0088 47.106 50.5501 47.2079C40.4274 47.2983 12.8093 51.0683 15.0054 31.1043C13.1989 33.4442 11.5681 35.6073 9.76163 37.9473C21.752 36.6738 33.5667 35.5772 45.5572 34.3037C53.657 33.4638 51.5535 18.6965 43.4536 19.5363C31.4632 20.8098 19.6485 21.9065 7.65811 23.18C4.89957 23.5189 2.83553 26.9883 2.41437 30.023C-1.89596 68.9985 45.2567 62.1077 64.8319 62.2533C98.0362 62.6096 131.171 65.647 164.31 66.7654C196.811 67.829 229.358 62.7548 261.941 62.8659C295.002 63.018 327.998 63.9322 360.945 65.418C365.105 65.5833 368.35 61.4476 367.819 56.4118C366.537 45.1697 370.44 31.4941 360.061 25.2287C353.947 21.6328 345.48 23.0169 338.594 22.8094C331.229 22.5609 323.69 22.4892 316.325 22.2406C282.994 21.4896 249.663 20.7385 216.14 20.3549C150.067 19.4791 83.7076 18.1949 17.4009 21.9054C12.2353 22.2295 10.9554 31.5242 16.5501 31.8127Z" fill="#FFE500"/>
<path d="M11.5298 45.3927C23.3566 46.0244 35.964 46.9151 46.6951 52.8269C47.8399 46.9753 49.0009 40.9333 50.305 35.0954C42.6712 34.2479 35.2131 33.2236 27.5956 32.1856C27.0229 38.854 26.4503 45.5224 25.8776 52.1907C29.7518 51.9477 33.6097 51.8951 37.5002 51.4615C47.7047 50.4185 46.006 32.807 36.9868 31.2647C31.76 30.432 26.5332 29.5993 21.3228 28.5761C20.7665 35.0539 20.2266 41.3412 19.6703 47.8191C27.6066 48.8845 35.5919 49.3783 43.6263 49.3005C53.2545 49.3596 54.9028 32.0355 45.1643 31.3912C42.6142 31.1722 39.8884 31.13 37.3383 30.911C36.8311 36.8173 36.3239 42.7236 35.8167 48.6299C52.6007 49.4954 69.5603 50.1841 86.3443 51.0496C95.621 51.4624 97.0281 35.0772 87.8168 33.9023C77.6656 32.4548 67.4653 31.5789 57.2486 30.8935C48.1476 30.3038 46.7078 47.0701 55.8088 47.6597C73.5327 48.7978 91.2893 49.5549 109.095 49.7405C117.91 49.9217 118.994 35.4281 110.486 33.5459C105.435 32.5363 100.24 31.3226 95.1894 30.313C94.7313 35.6477 94.2732 40.9824 93.8151 46.3171C112.054 45.1963 130.162 45.5998 148.172 47.1464C148.63 41.8117 149.088 36.477 149.53 31.3328C140.286 30.539 131.042 29.7452 121.655 28.7471C112.444 27.5722 111.18 44.1616 120.199 45.7038C134.285 48.0651 148.47 49.2832 162.814 50.515C172.855 51.3773 174.234 33.4542 164.401 32.0341C148.545 29.7128 132.575 28.7252 116.489 29.0712C106.031 29.3248 104.383 46.6489 114.82 48.5048C128.731 51.0429 142.74 52.4378 156.974 53.0844C157.547 46.416 158.12 39.7476 158.692 33.0793C146.514 32.8012 134.336 32.5231 122.157 32.245C111.43 31.8996 109.618 51.1289 120.456 52.0596C147.55 54.3863 174.792 54.9983 202.038 53.6914C212.512 53.2474 214.545 35.1885 203.74 33.8768C193.891 32.6472 184.246 32.7786 174.377 33.6584C164.826 34.5657 165.855 52.5035 174.939 53.2836C195.18 55.0218 215.344 55.7937 235.716 56.0077C247.114 56.0268 249.151 36.0491 237.549 34.6689C226.265 33.3161 214.933 32.5349 203.503 32.8968C202.881 40.1368 202.259 47.3767 201.637 54.6167C222.921 53.5654 244.155 53.0858 265.374 52.7966C276.947 52.6389 279.159 32.4843 267.239 31.0768C257.692 30.065 248.24 29.8291 238.738 30.1647C227.132 30.7035 224.805 52.1918 236.857 52.0751C263.669 52.0745 290.339 51.8697 317.152 51.869C328.39 51.8745 330.427 31.8967 318.968 30.7207C313.23 30.228 307.333 29.7216 301.596 29.2289C300.99 36.2783 300.401 43.1372 299.796 50.1867C317.712 50.9575 335.82 51.3609 353.752 51.9412C364.32 52.2729 366.149 32.8531 355.437 32.3171C337.538 31.3558 319.495 30.1902 301.579 29.4194C290.231 28.8287 288.48 49.2149 299.779 50.3772C305.517 50.8699 311.398 51.5668 317.135 52.0595C317.741 45.0101 318.346 37.9607 318.952 30.9113C292.155 30.7214 265.518 30.5452 238.722 30.3553C238.1 37.5952 237.462 45.0257 236.84 52.2656C246.342 51.93 255.794 52.1659 265.181 53.164C265.803 45.924 266.425 38.6841 267.047 31.4441C245.779 32.3048 224.512 33.1656 203.311 33.2642C191.578 33.4082 189.569 54.9238 201.445 54.984C212.843 55.0031 224.225 55.2128 235.524 56.3751C236.13 49.3257 236.751 42.0857 237.357 35.0363C217.078 35.5981 196.723 35.1935 176.432 34.0269C176.673 40.5732 176.754 47.1058 176.995 53.6521C185.413 52.8396 193.734 53.1702 201.989 54.263C202.562 47.5946 203.118 41.1168 203.691 34.4484C176.461 35.5648 149.203 35.1433 122.125 32.6261C121.552 39.2944 120.979 45.9628 120.423 52.4407C132.601 52.7187 144.763 53.1874 156.942 53.4654C167.669 53.8109 169.53 34.0099 158.659 33.4603C144.585 32.8275 130.417 31.4188 116.473 29.2618C115.917 35.7396 115.36 42.2175 114.804 48.6953C130.922 47.9682 146.925 48.5748 162.974 50.5287C163.497 44.4319 164.021 38.3351 164.561 32.0478C150.343 31.2107 136.175 29.8021 121.814 28.7608C121.323 34.4766 120.849 40.0018 120.358 45.7175C129.651 45.9398 138.912 46.5431 148.315 47.3506C156.922 48.0897 158.279 32.2761 149.673 31.537C131.504 29.9767 113.539 29.7775 95.3161 30.7077C86.6114 31.1118 85.4498 44.6391 93.9418 46.7118C98.9765 47.9119 104.171 49.1257 109.222 50.1352C109.68 44.8005 110.138 39.4658 110.612 33.9406C92.823 33.5645 75.0828 32.6169 57.3753 31.2882C56.9008 36.8134 56.41 42.5292 55.9355 48.0544C66.1522 48.7398 76.3361 49.8063 86.4709 51.4443C86.9618 45.7286 87.4526 40.0128 87.9434 34.2971C71.1759 33.241 54.2326 32.3618 37.465 31.3058C27.8858 30.6751 26.3642 48.3939 35.9434 49.0246C38.4935 49.2436 41.2029 49.4763 43.753 49.6953C44.2602 43.789 44.7837 37.6922 45.2909 31.7859C37.2729 31.6731 29.3366 30.6078 21.4494 28.9708C11.2043 26.7475 9.88694 45.8274 19.797 48.2138C24.991 49.4276 30.1688 50.8319 35.3628 52.0456C35.9518 45.1867 36.5245 38.5184 37.1135 31.6595C33.2393 31.9026 29.3487 32.3362 25.6176 32.7835C16.2099 33.8949 16.7276 52.1727 26.1637 52.5992C33.8466 52.8751 41.3702 53.1373 49.0368 53.6037C60.0667 54.1671 59.9048 33.6166 48.5028 35.5165C36.2875 37.5384 23.9826 36.8655 11.5916 39.0643C8.03616 39.3347 8.32586 45.3095 11.5298 45.3927Z" fill="#FFE500"/>
<path d="M123.577 43.8213L125.345 43.8213C125.429 44.583 125.8 45.195 126.458 45.6572C127.122 46.1195 127.959 46.3506 128.968 46.3506C129.918 46.3506 130.703 46.126 131.321 45.6768C131.946 45.221 132.259 44.6481 132.259 43.958C132.259 43.3656 132.041 42.8773 131.604 42.4932C131.175 42.109 130.485 41.7933 129.534 41.5459L127.728 41.0771C126.425 40.7451 125.475 40.2829 124.876 39.6904C124.277 39.0915 123.978 38.3135 123.978 37.3564C123.978 36.1846 124.44 35.2275 125.364 34.4854C126.295 33.7432 127.493 33.3721 128.958 33.3721C130.358 33.3721 131.517 33.7497 132.435 34.5049C133.353 35.2536 133.831 36.2171 133.87 37.3955L132.112 37.3955C132.034 36.6403 131.709 36.0446 131.136 35.6084C130.563 35.1722 129.817 34.9541 128.899 34.9541C127.988 34.9541 127.242 35.1689 126.663 35.5986C126.09 36.0283 125.804 36.5882 125.804 37.2783C125.804 37.8122 126.012 38.2516 126.429 38.5967C126.852 38.9352 127.542 39.2282 128.499 39.4756L129.974 39.8662C131.432 40.2308 132.48 40.7158 133.118 41.3213C133.756 41.9268 134.075 42.734 134.075 43.7432C134.075 45.0322 133.6 46.0544 132.649 46.8096C131.705 47.5583 130.423 47.9326 128.802 47.9326C127.304 47.9326 126.08 47.5583 125.13 46.8096C124.179 46.0609 123.662 45.0648 123.577 43.8213ZM136.409 35.0908L138.108 35.0908L138.108 37.542L140.081 37.542L140.081 38.9385L138.108 38.9385L138.108 44.9736C138.108 45.4359 138.209 45.7777 138.411 45.999C138.613 46.2139 138.932 46.3213 139.368 46.3213C139.642 46.3213 139.876 46.305 140.071 46.2725L140.071 47.6982C139.85 47.7503 139.492 47.7764 138.997 47.7764C138.066 47.7764 137.402 47.568 137.005 47.1514C136.608 46.7347 136.409 46.0381 136.409 45.0615L136.409 38.9385L134.895 38.9385L134.895 37.542L136.409 37.542L136.409 35.0908ZM145.052 46.4287C145.853 46.4287 146.523 46.1813 147.063 45.6865C147.61 45.1852 147.884 44.57 147.884 43.8408L147.884 43.0107L145.169 43.1768C144.485 43.2223 143.955 43.3883 143.577 43.6748C143.206 43.9613 143.02 44.3454 143.02 44.8271C143.02 45.3089 143.206 45.6963 143.577 45.9893C143.948 46.2822 144.44 46.4287 145.052 46.4287ZM144.671 47.874C143.662 47.874 142.845 47.5941 142.22 47.0342C141.601 46.4743 141.292 45.7386 141.292 44.8271C141.292 43.9548 141.611 43.2581 142.249 42.7373C142.894 42.2165 143.802 41.9235 144.974 41.8584L147.884 41.6924L147.884 40.8428C147.884 40.2243 147.688 39.7393 147.298 39.3877C146.907 39.0361 146.36 38.8604 145.657 38.8604C145.013 38.8604 144.489 39.0036 144.085 39.29C143.681 39.57 143.424 39.9639 143.313 40.4717L141.673 40.4717C141.731 39.5667 142.122 38.8245 142.845 38.2451C143.574 37.6592 144.524 37.3662 145.696 37.3662C146.888 37.3662 147.832 37.6657 148.528 38.2646C149.231 38.8636 149.583 39.6676 149.583 40.6768L149.583 47.6982L147.972 47.6982L147.972 45.9502L147.933 45.9502C147.627 46.5296 147.177 46.9951 146.585 47.3467C145.992 47.6982 145.354 47.874 144.671 47.874ZM151.741 47.6982L151.741 37.542L153.343 37.542L153.343 39.2021L153.382 39.2021C153.551 38.6357 153.854 38.1898 154.29 37.8643C154.733 37.5322 155.25 37.3662 155.843 37.3662C155.979 37.3662 156.207 37.389 156.526 37.4346L156.526 39.085C156.344 39.0199 156.041 38.9873 155.618 38.9873C154.961 38.9873 154.433 39.2054 154.036 39.6416C153.639 40.0778 153.44 40.654 153.44 41.3701L153.44 47.6982L151.741 47.6982ZM158.46 35.0908L160.159 35.0908L160.159 37.542L162.132 37.542L162.132 38.9385L160.159 38.9385L160.159 44.9736C160.159 45.4359 160.26 45.7777 160.462 45.999C160.664 46.2139 160.983 46.3213 161.419 46.3213C161.692 46.3213 161.927 46.305 162.122 46.2725L162.122 47.6982C161.901 47.7503 161.543 47.7764 161.048 47.7764C160.117 47.7764 159.453 47.568 159.056 47.1514C158.659 46.7347 158.46 46.0381 158.46 45.0615L158.46 38.9385L156.946 38.9385L156.946 37.542L158.46 37.542L158.46 35.0908ZM171.399 46.4287C172.2 46.4287 172.871 46.1813 173.411 45.6865C173.958 45.1852 174.231 44.57 174.231 43.8408L174.231 43.0107L171.517 43.1768C170.833 43.2223 170.302 43.3883 169.925 43.6748C169.554 43.9613 169.368 44.3454 169.368 44.8271C169.368 45.3089 169.554 45.6963 169.925 45.9893C170.296 46.2822 170.787 46.4287 171.399 46.4287ZM171.019 47.874C170.009 47.874 169.192 47.5941 168.567 47.0342C167.949 46.4743 167.64 45.7386 167.64 44.8271C167.64 43.9548 167.959 43.2581 168.597 42.7373C169.241 42.2165 170.149 41.9235 171.321 41.8584L174.231 41.6924L174.231 40.8428C174.231 40.2243 174.036 39.7393 173.645 39.3877C173.255 39.0361 172.708 38.8604 172.005 38.8604C171.36 38.8604 170.836 39.0036 170.433 39.29C170.029 39.57 169.772 39.9639 169.661 40.4717L168.02 40.4717C168.079 39.5667 168.47 38.8245 169.192 38.2451C169.922 37.6592 170.872 37.3662 172.044 37.3662C173.235 37.3662 174.179 37.6657 174.876 38.2646C175.579 38.8636 175.931 39.6676 175.931 40.6768L175.931 47.6982L174.319 47.6982L174.319 45.9502L174.28 45.9502C173.974 46.5296 173.525 46.9951 172.933 47.3467C172.34 47.6982 171.702 47.874 171.019 47.874ZM182.19 47.6982L182.19 37.542L183.792 37.542L183.792 39.1631L183.831 39.1631C184.124 38.5967 184.544 38.1572 185.091 37.8447C185.638 37.5257 186.292 37.3662 187.054 37.3662C188.16 37.3662 189.023 37.7015 189.642 38.3721C190.26 39.0361 190.569 39.9476 190.569 41.1064L190.569 47.6982L188.87 47.6982L188.87 41.4092C188.87 40.5824 188.675 39.9541 188.284 39.5244C187.894 39.0882 187.311 38.8701 186.536 38.8701C185.735 38.8701 185.094 39.1305 184.612 39.6514C184.131 40.1722 183.89 40.8623 183.89 41.7217L183.89 47.6982L182.19 47.6982ZM196.81 38.8408C196.022 38.8408 195.367 39.1143 194.847 39.6611C194.332 40.2015 194.049 40.8981 193.997 41.751L199.515 41.751C199.495 40.8916 199.238 40.1917 198.743 39.6514C198.248 39.111 197.604 38.8408 196.81 38.8408ZM199.476 44.7881L201.145 44.7881C200.996 45.6865 200.527 46.4255 199.739 47.0049C198.958 47.5843 198.017 47.874 196.917 47.874C195.465 47.874 194.323 47.4053 193.489 46.4678C192.656 45.5303 192.239 44.2607 192.239 42.6592C192.239 41.0706 192.656 39.7913 193.489 38.8213C194.329 37.8512 195.446 37.3662 196.839 37.3662C198.206 37.3662 199.287 37.8252 200.081 38.7432C200.875 39.6611 201.272 40.8916 201.272 42.4346L201.272 43.0791L193.987 43.0791L193.987 43.1768C193.987 44.1533 194.254 44.9346 194.788 45.5205C195.322 46.1064 196.045 46.3994 196.956 46.3994C197.594 46.3994 198.138 46.2529 198.587 45.96C199.036 45.667 199.332 45.2764 199.476 44.7881ZM215.911 37.542L213.079 47.6982L211.351 47.6982L209.056 39.8369L209.017 39.8369L206.731 47.6982L205.003 47.6982L202.161 37.542L203.851 37.542L205.882 45.8037L205.921 45.8037L208.216 37.542L209.856 37.542L212.161 45.8037L212.2 45.8037L214.231 37.542L215.911 37.542ZM221.956 35.0908L223.655 35.0908L223.655 37.542L225.628 37.542L225.628 38.9385L223.655 38.9385L223.655 44.9736C223.655 45.4359 223.756 45.7777 223.958 45.999C224.16 46.2139 224.479 46.3213 224.915 46.3213C225.188 46.3213 225.423 46.305 225.618 46.2725L225.618 47.6982C225.397 47.7503 225.039 47.7764 224.544 47.7764C223.613 47.7764 222.949 47.568 222.552 47.1514C222.155 46.7347 221.956 46.0381 221.956 45.0615L221.956 38.9385L220.442 38.9385L220.442 37.542L221.956 37.542L221.956 35.0908ZM227.444 47.6982L227.444 37.542L229.046 37.542L229.046 39.2021L229.085 39.2021C229.254 38.6357 229.557 38.1898 229.993 37.8643C230.436 37.5322 230.953 37.3662 231.546 37.3662C231.683 37.3662 231.91 37.389 232.229 37.4346L232.229 39.085C232.047 39.0199 231.744 38.9873 231.321 38.9873C230.664 38.9873 230.136 39.2054 229.739 39.6416C229.342 40.0778 229.144 40.654 229.144 41.3701L229.144 47.6982L227.444 47.6982ZM233.704 47.6982L233.704 37.542L235.403 37.542L235.403 47.6982L233.704 47.6982ZM234.554 35.833C234.267 35.833 234.02 35.7288 233.811 35.5205C233.603 35.3122 233.499 35.0648 233.499 34.7783C233.499 34.4853 233.603 34.238 233.811 34.0361C234.02 33.8278 234.267 33.7236 234.554 33.7236C234.847 33.7236 235.097 33.8278 235.306 34.0361C235.514 34.238 235.618 34.4853 235.618 34.7783C235.618 35.0648 235.514 35.3122 235.306 35.5205C235.097 35.7288 234.847 35.833 234.554 35.833ZM242.63 37.3662C243.932 37.3662 244.98 37.8447 245.774 38.8018C246.575 39.7588 246.976 41.0316 246.976 42.6201C246.976 44.2021 246.578 45.4749 245.784 46.4385C244.99 47.3955 243.951 47.874 242.669 47.874C241.953 47.874 241.311 47.7113 240.745 47.3857C240.179 47.0602 239.742 46.6143 239.436 46.0478L239.397 46.0478L239.397 51.0869L237.698 51.0869L237.698 37.542L239.31 37.542L239.31 39.2607L239.349 39.2607C239.668 38.6748 240.114 38.2126 240.686 37.874C241.259 37.5355 241.907 37.3662 242.63 37.3662ZM242.298 46.3799C243.203 46.3799 243.919 46.0413 244.446 45.3643C244.974 44.6872 245.237 43.7725 245.237 42.6201C245.237 41.4678 244.974 40.5531 244.446 39.876C243.919 39.1989 243.203 38.8603 242.298 38.8603C241.425 38.8603 240.722 39.2054 240.188 39.8955C239.655 40.5856 239.388 41.4938 239.388 42.6201C239.388 43.7529 239.655 44.6644 240.188 45.3545C240.722 46.0381 241.425 46.3799 242.298 46.3799Z" fill="black"/>
</g>
<defs>
<clipPath id="clip0">
<rect width="366.642" height="66.3555" fill="white" transform="translate(3.71289 0.581055) rotate(2.52367)"/>
</clipPath>
</defs>
</svg>
