<svg width="370" height="84" viewBox="0 0 370 84" fill="none" xmlns="http://www.w3.org/2000/svg">
<g clip-path="url(#clip0)">
<path d="M43.3489 32.8977C43.1895 32.884 43.0465 32.6798 42.7278 32.6524C42.5684 32.6387 42.409 32.6251 42.3926 32.8156C42.0575 32.9787 41.706 33.3324 41.6733 33.7135C41.6406 34.0945 41.7673 34.4893 42.229 34.7208C42.3884 34.7345 42.5314 34.9387 42.5314 34.9387C42.6908 34.9524 42.8502 34.9661 43.1853 34.803C43.5204 34.6398 43.8719 34.2861 43.9046 33.9051C43.9537 33.3335 43.8271 32.9388 43.3489 32.8977Z" fill="#1D7874"/>
<path d="M16.3001 31.9191C77.0443 35.0243 138.116 34.3189 198.897 35.1241C229.057 35.4109 259.359 35.9019 289.486 36.5697C304.39 36.89 319.135 37.1965 334.023 37.7073C338.502 37.9 352.376 35.2528 354.963 40.6571C356.867 44.6592 354.725 54.6475 355.272 59.4928C357.622 56.4318 359.796 53.5476 362.146 50.4866C332.244 49.0704 302.293 48.2257 272.293 47.9526C242.771 47.7205 213.624 50.5916 184.147 51.707C154.016 52.958 124.024 48.8471 93.9131 47.9887C79.3441 47.5053 64.7588 47.2125 50.3001 47.3143C40.1774 47.4047 12.5593 51.1748 14.7554 31.2107C12.9489 33.5507 11.3181 35.7138 9.51163 38.0537C21.5021 36.7803 33.3167 35.6836 45.3072 34.4101C53.407 33.5703 51.3035 18.8029 43.2036 19.6428C31.2132 20.9163 19.3985 22.0129 7.40811 23.2864C4.64957 23.6253 2.58553 27.0947 2.16437 30.1295C-2.14596 69.105 45.0067 62.2142 64.5819 62.3598C97.7862 62.7161 130.921 65.7534 164.06 66.8718C196.561 67.9355 229.108 62.8613 261.691 62.9723C294.752 63.1244 327.748 64.0386 360.695 65.5244C364.855 65.6897 368.1 61.554 367.569 56.5182C366.287 45.2762 370.19 31.6005 359.811 25.3351C353.697 21.7393 345.23 23.1233 338.344 22.9158C330.979 22.6673 323.44 22.5956 316.075 22.3471C282.744 21.596 249.413 20.845 215.89 20.4613C149.817 19.5855 83.4576 18.3013 17.1509 22.0118C11.9853 22.336 10.7054 31.6306 16.3001 31.9191Z" fill="#1D7874"/>
<path d="M11.2798 45.4991C23.1066 46.1309 35.714 47.0216 46.4451 52.9333C47.5899 47.0818 48.7509 41.0397 50.055 35.2019C42.4212 34.3544 34.9631 33.3301 27.3456 32.2921C26.7729 38.9604 26.2003 45.6288 25.6276 52.2972C29.5018 52.0541 33.3597 52.0015 37.2502 51.5679C47.4547 50.5249 45.756 32.9134 36.7368 31.3712C31.51 30.5385 26.2832 29.7057 21.0728 28.6825C20.5165 35.1604 19.9766 41.4477 19.4203 47.9255C27.3566 48.9909 35.3419 49.4847 43.3763 49.407C53.0045 49.4661 54.6528 32.142 44.9143 31.4976C42.3642 31.2786 39.6384 31.2365 37.0883 31.0175C36.5811 36.9238 36.0739 42.83 35.5667 48.7363C52.3507 49.6018 69.3103 50.2905 86.0943 51.156C95.371 51.5688 96.7781 35.1837 87.5668 34.0088C77.4156 32.5613 67.2153 31.6853 56.9986 30.9999C47.8976 30.4103 46.4578 47.1765 55.5588 47.7661C73.2827 48.9043 91.0393 49.6614 108.845 49.8469C117.66 50.0281 118.744 35.5345 110.236 33.6523C105.185 32.6428 99.9905 31.429 94.9394 30.4195C94.4813 35.7542 94.0232 41.0889 93.5651 46.4236C111.804 45.3028 129.912 45.7062 147.922 47.2528C148.38 41.9181 148.838 36.5834 149.28 31.4392C140.036 30.6454 130.792 29.8516 121.405 28.8536C112.194 27.6787 110.93 44.2681 119.949 45.8103C134.035 48.1716 148.22 49.3897 162.564 50.6215C172.605 51.4837 173.984 33.5607 164.151 32.1405C148.295 29.8192 132.325 28.8316 116.239 29.1777C105.781 29.4312 104.133 46.7553 114.57 48.6112C128.481 51.1493 142.49 52.5443 156.724 53.1908C157.297 46.5225 157.87 39.8541 158.442 33.1857C146.264 32.9076 134.086 32.6295 121.907 32.3514C111.18 32.006 109.368 51.2354 120.206 52.1661C147.3 54.4928 174.542 55.1048 201.788 53.7979C212.262 53.3538 214.295 35.295 203.49 33.9832C193.641 32.7536 183.996 32.8851 174.127 33.7649C164.576 34.6721 165.605 52.6099 174.689 53.3901C194.93 55.1283 215.094 55.9002 235.466 56.1142C246.864 56.1333 248.901 36.1555 237.299 34.7754C226.015 33.4226 214.683 32.6413 203.253 33.0032C202.631 40.2432 202.009 47.4832 201.387 54.7231C222.671 53.6719 243.905 53.1922 265.124 52.9031C276.697 52.7454 278.909 32.5908 266.989 31.1832C257.442 30.1715 247.99 29.9356 238.488 30.2712C226.882 30.8099 224.555 52.2982 236.607 52.1816C263.419 52.1809 290.089 51.9761 316.902 51.9755C328.14 51.9809 330.177 32.0031 318.718 30.8272C312.98 30.3345 307.083 29.8281 301.346 29.3353C300.74 36.3848 300.151 43.2437 299.546 50.2931C317.462 51.0639 335.57 51.4673 353.502 52.0476C364.07 52.3794 365.899 32.9595 355.187 32.4235C337.288 31.4622 319.245 30.2967 301.329 29.5259C289.981 28.9352 288.23 49.3213 299.53 50.4836C305.267 50.9763 311.148 51.6733 316.885 52.166C317.491 45.1166 318.096 38.0671 318.702 31.0177C291.905 30.8278 265.268 30.6516 238.472 30.4617C237.85 37.7017 237.212 45.1321 236.59 52.3721C246.092 52.0365 255.544 52.2724 264.931 53.2704C265.553 46.0305 266.175 38.7905 266.797 31.5506C245.529 32.4113 224.262 33.272 203.061 33.3706C191.328 33.5146 189.319 55.0303 201.195 55.0905C212.593 55.1096 223.975 55.3192 235.274 56.4815C235.879 49.4321 236.501 42.1921 237.107 35.1427C216.828 35.7045 196.473 35.3 176.182 34.1333C176.423 40.6796 176.504 47.2122 176.745 53.7585C185.163 52.946 193.484 53.2767 201.739 54.3694C202.312 47.7011 202.868 41.2232 203.441 34.5548C176.211 35.6712 148.953 35.2498 121.875 32.7325C121.302 39.4009 120.729 46.0692 120.173 52.5471C132.351 52.8252 144.513 53.2938 156.692 53.5719C167.419 53.9173 169.28 34.1164 158.409 33.5668C144.335 32.9339 130.167 31.5253 116.223 29.3682C115.667 35.8461 115.11 42.3239 114.554 48.8018C130.672 48.0747 146.675 48.6812 162.724 50.6351C163.247 44.5383 163.771 38.4415 164.311 32.1542C150.093 31.3172 135.925 29.9085 121.564 28.8672C121.073 34.583 120.599 40.1082 120.108 45.824C129.401 46.0462 138.662 46.6495 148.065 47.457C156.672 48.1961 158.029 32.3825 149.423 31.6435C131.254 30.0832 113.289 29.884 95.0661 30.8142C86.3614 31.2183 85.1998 44.7455 93.6918 46.8183C98.7265 48.0184 103.921 49.2321 108.972 50.2417C109.43 44.907 109.888 39.5723 110.362 34.047C92.573 33.671 74.8328 32.7233 57.1253 31.3946C56.6508 36.9199 56.16 42.6356 55.6855 48.1608C65.9022 48.8463 76.0861 49.9127 86.2209 51.5508C86.7118 45.835 87.2026 40.1193 87.6934 34.4035C70.9259 33.3475 53.9825 32.4683 37.215 31.4122C27.6358 30.7815 26.1142 48.5004 35.6934 49.131C38.2435 49.35 40.9529 49.5827 43.503 49.8017C44.0102 43.8954 44.5337 37.7986 45.0409 31.8923C37.0229 31.7796 29.0866 30.7142 21.1994 29.0772C10.9543 26.8539 9.63694 45.9338 19.547 48.3203C24.741 49.534 29.9188 50.9383 35.1128 52.1521C35.7018 45.2932 36.2745 38.6248 36.8635 31.7659C32.9893 32.009 29.0987 32.4426 25.3676 32.8899C15.9599 34.0013 16.4776 52.2792 25.9137 52.7056C33.5966 52.9815 41.1202 53.2437 48.7868 53.7102C59.8167 54.2735 59.6548 33.7231 48.2528 35.6229C36.0375 37.6448 23.7326 36.972 11.3416 39.1707C7.78616 39.4412 8.07586 45.4159 11.2798 45.4991Z" fill="#1D7874"/>
</g>
<path d="M126.885 45.2207C127.051 47.6523 129.102 49.2344 132.178 49.2344C135.332 49.2344 137.383 47.6035 137.383 44.9961C137.383 43.0039 136.221 41.832 133.281 41.1875L131.719 40.8457C129.795 40.4258 129.043 39.6641 129.043 38.5508C129.043 37.1152 130.4 36.2559 132.158 36.2559C133.994 36.2559 135.215 37.2031 135.371 38.7461H137.129C137.051 36.3535 135.02 34.6738 132.207 34.6738C129.287 34.6738 127.236 36.3047 127.236 38.6289C127.236 40.6309 128.457 41.9102 131.279 42.5254L132.842 42.8672C134.795 43.2969 135.576 44.0781 135.576 45.2598C135.576 46.6465 134.189 47.6523 132.275 47.6523C130.254 47.6523 128.848 46.7344 128.643 45.2207H126.885ZM142.148 49.1758C143.516 49.1758 144.805 48.4141 145.41 47.252H145.449V49H147.061V41.9785C147.061 39.957 145.557 38.668 143.174 38.668C140.771 38.668 139.268 40.0156 139.15 41.7734H140.791C141.006 40.7773 141.826 40.1621 143.135 40.1621C144.541 40.1621 145.361 40.9043 145.361 42.1445V42.9941L142.451 43.1602C140.107 43.2969 138.77 44.3906 138.77 46.1289C138.77 47.9551 140.127 49.1758 142.148 49.1758ZM142.529 47.7305C141.309 47.7305 140.498 47.0957 140.498 46.1289C140.498 45.1719 141.279 44.5664 142.646 44.4785L145.361 44.3125V45.1426C145.361 46.6074 144.131 47.7305 142.529 47.7305ZM157.549 38.8438H155.781L152.969 47.1934H152.93L150.127 38.8438H148.34L152.08 49H153.818L157.549 38.8438ZM165.332 46.0898C165.049 47.0469 164.102 47.7012 162.812 47.7012C160.986 47.7012 159.844 46.4219 159.844 44.4785V44.3809H167.129V43.7363C167.129 40.6602 165.439 38.668 162.695 38.668C159.893 38.668 158.096 40.8066 158.096 43.9609C158.096 47.1543 159.863 49.1758 162.773 49.1758C164.99 49.1758 166.709 47.8672 167.002 46.0898H165.332ZM162.666 40.1426C164.268 40.1426 165.332 41.3535 165.371 43.0527H159.854C159.961 41.3633 161.074 40.1426 162.666 40.1426ZM181.387 42.1738C181.172 40.3477 179.658 38.668 177.119 38.668C174.316 38.668 172.451 40.7188 172.451 43.9219C172.451 47.1934 174.326 49.1758 177.139 49.1758C179.443 49.1758 181.143 47.75 181.406 45.7285H179.736C179.443 46.9492 178.535 47.6816 177.148 47.6816C175.391 47.6816 174.18 46.2852 174.18 43.9219C174.18 41.6172 175.371 40.1621 177.129 40.1621C178.623 40.1621 179.482 41.0703 179.727 42.1738H181.387ZM183.057 49H184.756V43.082C184.756 41.3242 185.801 40.1719 187.49 40.1719C189.082 40.1719 189.893 41.1387 189.893 42.75V49H191.592V42.4375C191.592 40.1719 190.244 38.668 188.018 38.668C186.475 38.668 185.361 39.332 184.795 40.4648H184.756V34.9082H183.057V49ZM196.719 49.1758C198.086 49.1758 199.375 48.4141 199.98 47.252H200.02V49H201.631V41.9785C201.631 39.957 200.127 38.668 197.744 38.668C195.342 38.668 193.838 40.0156 193.721 41.7734H195.361C195.576 40.7773 196.396 40.1621 197.705 40.1621C199.111 40.1621 199.932 40.9043 199.932 42.1445V42.9941L197.021 43.1602C194.678 43.2969 193.34 44.3906 193.34 46.1289C193.34 47.9551 194.697 49.1758 196.719 49.1758ZM197.1 47.7305C195.879 47.7305 195.068 47.0957 195.068 46.1289C195.068 45.1719 195.85 44.5664 197.217 44.4785L199.932 44.3125V45.1426C199.932 46.6074 198.701 47.7305 197.1 47.7305ZM203.789 49H205.488V43.0234C205.488 41.3047 206.533 40.1719 208.135 40.1719C209.697 40.1719 210.469 41.0703 210.469 42.7109V49H212.168V42.4082C212.168 40.1035 210.879 38.668 208.652 38.668C207.08 38.668 205.996 39.3711 205.43 40.4648H205.391V38.8438H203.789V49ZM218.525 52.8281C221.328 52.8281 223.115 51.2168 223.115 48.7949V38.8438H221.494V40.5527H221.465C220.791 39.3711 219.6 38.668 218.164 38.668C215.537 38.668 213.838 40.6992 213.838 43.8828C213.838 47.0371 215.537 49.0781 218.125 49.0781C219.551 49.0781 220.752 48.3555 221.377 47.252H221.416V48.8535C221.416 50.3672 220.352 51.3828 218.594 51.3828C217.324 51.3828 216.318 50.7676 215.986 49.8398H214.238C214.521 51.5684 216.289 52.8281 218.525 52.8281ZM218.467 47.584C216.719 47.584 215.576 46.1582 215.576 43.8828C215.576 41.6074 216.719 40.1621 218.467 40.1621C220.234 40.1621 221.416 41.6465 221.416 43.8828C221.416 46.1191 220.234 47.584 218.467 47.584ZM232.07 46.0898C231.787 47.0469 230.84 47.7012 229.551 47.7012C227.725 47.7012 226.582 46.4219 226.582 44.4785V44.3809H233.867V43.7363C233.867 40.6602 232.178 38.668 229.434 38.668C226.631 38.668 224.834 40.8066 224.834 43.9609C224.834 47.1543 226.602 49.1758 229.512 49.1758C231.729 49.1758 233.447 47.8672 233.74 46.0898H232.07ZM229.404 40.1426C231.006 40.1426 232.07 41.3535 232.109 43.0527H226.592C226.699 41.3633 227.812 40.1426 229.404 40.1426ZM235.41 41.6465C235.41 43.1113 236.338 44 238.252 44.459L239.863 44.8496C241.025 45.1328 241.426 45.5527 241.426 46.2852C241.426 47.2031 240.576 47.7891 239.199 47.7891C237.822 47.7891 237.041 47.2324 236.836 46.0703H235.137C235.332 47.9746 236.816 49.1758 239.199 49.1758C241.465 49.1758 243.135 47.9258 243.135 46.1582C243.135 44.7031 242.393 43.9023 240.342 43.4043L238.73 43.0137C237.598 42.7402 237.08 42.2617 237.08 41.5586C237.08 40.6699 237.9 40.0547 239.141 40.0547C240.391 40.0547 241.172 40.709 241.299 41.7734H242.92C242.852 39.9766 241.367 38.668 239.141 38.668C236.943 38.668 235.41 39.9082 235.41 41.6465Z" fill="white"/>
<defs>
<clipPath id="clip0">
<rect width="366.642" height="66.3555" fill="white" transform="translate(3.46289 0.6875) rotate(2.52367)"/>
</clipPath>
</defs>
</svg>
