<svg width="329" height="74" viewBox="0 0 329 74" fill="none" xmlns="http://www.w3.org/2000/svg">
<g clip-path="url(#clip0)">
<path d="M38.0618 28.6397C37.92 28.6276 37.7929 28.446 37.5095 28.4216C37.3677 28.4095 37.226 28.3973 37.2115 28.5667C36.9135 28.7118 36.601 29.0263 36.5719 29.3651C36.5428 29.7039 36.6554 30.0549 37.066 30.2608C37.2077 30.2729 37.3349 30.4545 37.3349 30.4545C37.4766 30.4667 37.6183 30.4789 37.9163 30.3338C38.2143 30.1887 38.5268 29.8742 38.5559 29.5354C38.5995 29.0272 38.4869 28.6762 38.0618 28.6397Z" fill="#FFE500"/>
<path d="M14.0112 27.7697C68.022 30.5307 122.324 29.9035 176.367 30.6194C203.184 30.8744 230.127 31.311 256.915 31.9048C270.167 32.1895 283.277 32.4621 296.514 32.9162C300.497 33.0876 312.833 30.7339 315.133 35.539C316.826 39.0975 314.921 47.9786 315.408 52.2868C317.498 49.5651 319.431 47.0006 321.52 44.279C294.933 43.0197 268.302 42.2687 241.627 42.0258C215.377 41.8195 189.462 44.3723 163.252 45.364C136.461 46.4764 109.794 42.8212 83.0209 42.058C70.0669 41.6282 57.0983 41.3678 44.2424 41.4583C35.2417 41.5387 10.6851 44.8908 12.6378 27.1398C11.0315 29.2204 9.58154 31.1437 7.9753 33.2243C18.6366 32.092 29.1416 31.1169 39.8029 29.9846C47.0049 29.2378 45.1345 16.1074 37.9325 16.8542C27.2713 17.9865 16.7662 18.9616 6.10496 20.0939C3.6522 20.3953 1.81696 23.4801 1.44249 26.1784C-2.39004 60.8335 39.5357 54.7065 56.941 54.836C86.4646 55.1528 115.926 57.8534 145.392 58.8479C174.29 59.7936 203.229 55.2819 232.2 55.3806C261.597 55.5159 290.935 56.3287 320.23 57.6498C323.929 57.7968 326.814 54.1195 326.342 49.642C325.202 39.6461 328.673 27.4864 319.444 21.9155C314.008 18.7183 306.479 19.9489 300.356 19.7644C293.808 19.5434 287.104 19.4797 280.556 19.2587C250.92 18.5909 221.284 17.9231 191.477 17.582C132.728 16.8033 73.7243 15.6614 14.7677 18.9606C10.1747 19.2488 9.03676 27.5132 14.0112 27.7697Z" fill="#FFE500"/>
<path d="M9.54809 39.8441C20.0639 40.4058 31.2737 41.1978 40.8153 46.4542C41.8332 41.2513 42.8655 35.879 44.0251 30.6883C37.2374 29.9348 30.606 29.024 23.8329 28.101C23.3238 34.0302 22.8146 39.9594 22.3055 45.8886C25.7502 45.6724 29.1804 45.6257 32.6397 45.2401C41.713 44.3128 40.2026 28.6535 32.1832 27.2822C27.5358 26.5418 22.8884 25.8014 18.2555 24.8916C17.7609 30.6514 17.2808 36.2418 16.7862 42.0015C23.8427 42.9488 30.9429 43.3879 38.0867 43.3187C46.6476 43.3713 48.1132 27.9676 39.4542 27.3946C37.1868 27.1999 34.7631 27.1625 32.4957 26.9677C32.0447 32.2193 31.5938 37.4709 31.1428 42.7224C46.0662 43.492 61.1459 44.1044 76.0693 44.8739C84.3178 45.241 85.5689 30.6721 77.3786 29.6275C68.3527 28.3404 59.2831 27.5615 50.199 26.9521C42.1068 26.4279 40.8266 41.3355 48.9188 41.8598C64.6779 42.8718 80.4662 43.545 96.2981 43.7099C104.136 43.871 105.1 30.9841 97.5346 29.3105C93.0435 28.4129 88.4252 27.3336 83.934 26.436C83.5267 31.1793 83.1194 35.9227 82.712 40.666C98.9292 39.6695 115.03 40.0282 131.043 41.4034C131.451 36.66 131.858 31.9167 132.251 27.3428C124.032 26.6369 115.812 25.9311 107.466 25.0437C99.2756 23.999 98.1516 38.7495 106.171 40.1208C118.696 42.2203 131.309 43.3034 144.063 44.3986C152.991 45.1653 154.216 29.229 145.474 27.9663C131.375 25.9023 117.175 25.0242 102.873 25.3319C93.5742 25.5573 92.1087 40.961 101.389 42.6112C113.758 44.868 126.214 46.1083 138.87 46.6832C139.379 40.754 139.888 34.8248 140.397 28.8956C129.569 28.6483 118.741 28.4011 107.912 28.1538C98.3741 27.8467 96.7631 44.9445 106.4 45.772C130.491 47.8408 154.713 48.385 178.938 47.2229C188.252 46.8281 190.059 30.7711 180.451 29.6047C171.694 28.5114 163.119 28.6283 154.343 29.4106C145.852 30.2172 146.766 46.1666 154.844 46.8603C172.841 48.4058 190.77 49.0922 208.883 49.2824C219.018 49.2994 220.829 31.5362 210.513 30.3091C200.48 29.1062 190.404 28.4116 180.241 28.7334C179.688 35.1708 179.135 41.6082 178.582 48.0456C197.507 47.1109 216.387 46.6844 235.253 46.4273C245.544 46.2871 247.511 28.3666 236.912 27.1151C228.423 26.2155 220.019 26.0057 211.57 26.3042C201.251 26.7832 199.182 45.8895 209.897 45.7858C233.738 45.7852 257.451 45.6031 281.292 45.6025C291.284 45.6074 293.095 27.8441 282.907 26.7985C277.805 26.3604 272.562 25.9102 267.46 25.4721C266.922 31.7401 266.398 37.8387 265.86 44.1066C281.79 44.792 297.891 45.1507 313.835 45.6667C323.232 45.9617 324.857 28.6945 315.333 28.2179C299.418 27.3632 283.375 26.3268 267.445 25.6415C257.355 25.1162 255.798 43.2426 265.845 44.2761C270.947 44.7142 276.176 45.3338 281.277 45.7719C281.816 39.5039 282.354 33.2359 282.892 26.9679C259.066 26.7991 235.382 26.6424 211.556 26.4736C211.003 32.911 210.436 39.5178 209.883 45.9552C218.331 45.6568 226.736 45.8665 235.082 46.7539C235.635 40.3165 236.188 33.8791 236.741 27.4417C217.831 28.207 198.921 28.9723 180.07 29.06C169.638 29.1881 167.852 48.3187 178.411 48.3722C188.546 48.3892 198.666 48.5756 208.713 49.6091C209.251 43.3411 209.804 36.9037 210.342 30.6357C192.312 31.1352 174.212 30.7755 156.171 29.7382C156.385 35.5588 156.457 41.3673 156.671 47.1879C164.157 46.4655 171.555 46.7595 178.895 47.7311C179.404 41.8019 179.899 36.0421 180.408 30.113C156.197 31.1056 131.96 30.7309 107.883 28.4926C107.374 34.4218 106.865 40.351 106.37 46.1108C117.199 46.358 128.013 46.7747 138.841 47.022C148.379 47.3291 150.034 29.7231 140.368 29.2344C127.854 28.6717 115.256 27.4192 102.858 25.5013C102.364 31.2611 101.869 37.0209 101.374 42.7806C115.706 42.1341 129.935 42.6734 144.204 44.4108C144.67 38.9898 145.135 33.5688 145.615 27.9785C132.974 27.2342 120.376 25.9817 107.608 25.0559C107.171 30.138 106.749 35.0508 106.313 40.1329C114.576 40.3305 122.81 40.867 131.171 41.585C138.823 42.2421 140.031 28.1815 132.378 27.5243C116.223 26.137 100.249 25.9599 84.0466 26.787C76.3069 27.1463 75.274 39.174 82.8246 41.017C87.3012 42.0841 91.9196 43.1633 96.4107 44.0609C96.818 39.3176 97.2254 34.5742 97.6472 29.6615C81.8299 29.3271 66.0562 28.4845 50.3116 27.3031C49.8897 32.2158 49.4533 37.298 49.0314 42.2108C58.1155 42.8202 67.1706 43.7684 76.182 45.2249C76.6184 40.1428 77.0548 35.0606 77.4912 29.9784C62.5824 29.0395 47.5172 28.2577 32.6083 27.3187C24.091 26.758 22.7381 42.5126 31.2554 43.0734C33.5228 43.2681 35.9319 43.475 38.1993 43.6697C38.6503 38.4182 39.1158 32.9972 39.5668 27.7456C32.4375 27.6454 25.381 26.6981 18.3681 25.2426C9.25866 23.2657 8.08732 40.2306 16.8988 42.3525C21.5171 43.4317 26.1209 44.6803 30.7392 45.7596C31.2629 39.661 31.7721 33.7318 32.2958 27.6332C28.8511 27.8493 25.3918 28.2349 22.0742 28.6326C13.7094 29.6208 14.1697 45.8725 22.5598 46.2517C29.3911 46.4971 36.0806 46.7302 42.8974 47.1449C52.7046 47.6458 52.5607 29.3734 42.4226 31.0626C31.5614 32.8604 20.6205 32.2622 9.60302 34.2172C6.44171 34.4577 6.69929 39.7701 9.54809 39.8441Z" fill="#FFE500"/>
<path d="M99.8848 40.2207C100.051 42.6523 102.102 44.2344 105.178 44.2344C108.332 44.2344 110.383 42.6035 110.383 39.9961C110.383 38.0039 109.221 36.832 106.281 36.1875L104.719 35.8457C102.795 35.4258 102.043 34.6641 102.043 33.5508C102.043 32.1152 103.4 31.2559 105.158 31.2559C106.994 31.2559 108.215 32.2031 108.371 33.7461H110.129C110.051 31.3535 108.02 29.6738 105.207 29.6738C102.287 29.6738 100.236 31.3047 100.236 33.6289C100.236 35.6309 101.457 36.9102 104.279 37.5254L105.842 37.8672C107.795 38.2969 108.576 39.0781 108.576 40.2598C108.576 41.6465 107.189 42.6523 105.275 42.6523C103.254 42.6523 101.848 41.7344 101.643 40.2207H99.8848ZM115.148 44.1758C116.516 44.1758 117.805 43.4141 118.41 42.252H118.449V44H120.061V36.9785C120.061 34.957 118.557 33.668 116.174 33.668C113.771 33.668 112.268 35.0156 112.15 36.7734H113.791C114.006 35.7773 114.826 35.1621 116.135 35.1621C117.541 35.1621 118.361 35.9043 118.361 37.1445V37.9941L115.451 38.1602C113.107 38.2969 111.77 39.3906 111.77 41.1289C111.77 42.9551 113.127 44.1758 115.148 44.1758ZM115.529 42.7305C114.309 42.7305 113.498 42.0957 113.498 41.1289C113.498 40.1719 114.279 39.5664 115.646 39.4785L118.361 39.3125V40.1426C118.361 41.6074 117.131 42.7305 115.529 42.7305ZM130.549 33.8438H128.781L125.969 42.1934H125.93L123.127 33.8438H121.34L125.08 44H126.818L130.549 33.8438ZM138.332 41.0898C138.049 42.0469 137.102 42.7012 135.812 42.7012C133.986 42.7012 132.844 41.4219 132.844 39.4785V39.3809H140.129V38.7363C140.129 35.6602 138.439 33.668 135.695 33.668C132.893 33.668 131.096 35.8066 131.096 38.9609C131.096 42.1543 132.863 44.1758 135.773 44.1758C137.99 44.1758 139.709 42.8672 140.002 41.0898H138.332ZM135.666 35.1426C137.268 35.1426 138.332 36.3535 138.371 38.0527H132.854C132.961 36.3633 134.074 35.1426 135.666 35.1426ZM154.387 37.1738C154.172 35.3477 152.658 33.668 150.119 33.668C147.316 33.668 145.451 35.7188 145.451 38.9219C145.451 42.1934 147.326 44.1758 150.139 44.1758C152.443 44.1758 154.143 42.75 154.406 40.7285H152.736C152.443 41.9492 151.535 42.6816 150.148 42.6816C148.391 42.6816 147.18 41.2852 147.18 38.9219C147.18 36.6172 148.371 35.1621 150.129 35.1621C151.623 35.1621 152.482 36.0703 152.727 37.1738H154.387ZM156.057 44H157.756V38.082C157.756 36.3242 158.801 35.1719 160.49 35.1719C162.082 35.1719 162.893 36.1387 162.893 37.75V44H164.592V37.4375C164.592 35.1719 163.244 33.668 161.018 33.668C159.475 33.668 158.361 34.332 157.795 35.4648H157.756V29.9082H156.057V44ZM169.719 44.1758C171.086 44.1758 172.375 43.4141 172.98 42.252H173.02V44H174.631V36.9785C174.631 34.957 173.127 33.668 170.744 33.668C168.342 33.668 166.838 35.0156 166.721 36.7734H168.361C168.576 35.7773 169.396 35.1621 170.705 35.1621C172.111 35.1621 172.932 35.9043 172.932 37.1445V37.9941L170.021 38.1602C167.678 38.2969 166.34 39.3906 166.34 41.1289C166.34 42.9551 167.697 44.1758 169.719 44.1758ZM170.1 42.7305C168.879 42.7305 168.068 42.0957 168.068 41.1289C168.068 40.1719 168.85 39.5664 170.217 39.4785L172.932 39.3125V40.1426C172.932 41.6074 171.701 42.7305 170.1 42.7305ZM176.789 44H178.488V38.0234C178.488 36.3047 179.533 35.1719 181.135 35.1719C182.697 35.1719 183.469 36.0703 183.469 37.7109V44H185.168V37.4082C185.168 35.1035 183.879 33.668 181.652 33.668C180.08 33.668 178.996 34.3711 178.43 35.4648H178.391V33.8438H176.789V44ZM191.525 47.8281C194.328 47.8281 196.115 46.2168 196.115 43.7949V33.8438H194.494V35.5527H194.465C193.791 34.3711 192.6 33.668 191.164 33.668C188.537 33.668 186.838 35.6992 186.838 38.8828C186.838 42.0371 188.537 44.0781 191.125 44.0781C192.551 44.0781 193.752 43.3555 194.377 42.252H194.416V43.8535C194.416 45.3672 193.352 46.3828 191.594 46.3828C190.324 46.3828 189.318 45.7676 188.986 44.8398H187.238C187.521 46.5684 189.289 47.8281 191.525 47.8281ZM191.467 42.584C189.719 42.584 188.576 41.1582 188.576 38.8828C188.576 36.6074 189.719 35.1621 191.467 35.1621C193.234 35.1621 194.416 36.6465 194.416 38.8828C194.416 41.1191 193.234 42.584 191.467 42.584ZM205.07 41.0898C204.787 42.0469 203.84 42.7012 202.551 42.7012C200.725 42.7012 199.582 41.4219 199.582 39.4785V39.3809H206.867V38.7363C206.867 35.6602 205.178 33.668 202.434 33.668C199.631 33.668 197.834 35.8066 197.834 38.9609C197.834 42.1543 199.602 44.1758 202.512 44.1758C204.729 44.1758 206.447 42.8672 206.74 41.0898H205.07ZM202.404 35.1426C204.006 35.1426 205.07 36.3535 205.109 38.0527H199.592C199.699 36.3633 200.812 35.1426 202.404 35.1426ZM208.41 36.6465C208.41 38.1113 209.338 39 211.252 39.459L212.863 39.8496C214.025 40.1328 214.426 40.5527 214.426 41.2852C214.426 42.2031 213.576 42.7891 212.199 42.7891C210.822 42.7891 210.041 42.2324 209.836 41.0703H208.137C208.332 42.9746 209.816 44.1758 212.199 44.1758C214.465 44.1758 216.135 42.9258 216.135 41.1582C216.135 39.7031 215.393 38.9023 213.342 38.4043L211.73 38.0137C210.598 37.7402 210.08 37.2617 210.08 36.5586C210.08 35.6699 210.9 35.0547 212.141 35.0547C213.391 35.0547 214.172 35.709 214.299 36.7734H215.92C215.852 34.9766 214.367 33.668 212.141 33.668C209.943 33.668 208.41 34.9082 208.41 36.6465Z" fill="#071E23"/>
</g>
<defs>
<clipPath id="clip0">
<rect width="326" height="59" fill="white" transform="translate(2.59766) rotate(2.52367)"/>
</clipPath>
</defs>
</svg>
