<svg width="143" height="51" viewBox="0 0 143 51" fill="none" xmlns="http://www.w3.org/2000/svg">
<g clip-path="url(#clip0)">
<path d="M19.0457 15.914C24.0928 11.1603 21.2538 3.02631 15.1553 0.702306C8.00524 -2.04424 0.434613 4.18831 0.644908 11.5829C0.960351 21.724 10.5288 24.6818 18.4148 27.1115C22.095 28.2735 23.6722 30.4918 24.7237 34.0835C25.3546 36.1962 26.8266 40.9498 24.5134 42.64C22.5156 44.1189 17.9943 43.9077 15.5759 43.802C10.9494 43.5908 7.2692 41.3724 6.63832 36.4075C6.32288 33.5553 2.74786 32.8158 1.80153 35.668C-0.932305 43.6964 7.68979 49.5064 14.7347 49.929C23.0413 50.4571 32.6098 48.3444 31.348 38.4146C30.2965 30.3862 27.4575 23.6254 19.0457 21.6183C13.3678 20.2451 5.37655 18.238 5.58684 10.8434C6.00743 -1.30479 24.8288 6.61796 18.0994 15.2802C17.784 15.8083 18.6251 16.3365 19.0457 15.914Z" fill="white"/>
<path d="M33.451 36.3008C39.4444 37.6741 45.1224 31.3359 40.4959 25.9484C35.0282 19.7159 28.2988 28.0612 27.8782 33.7655C27.2473 42.1108 33.451 48.1321 41.4422 49.1885C45.1224 49.611 49.3283 49.3997 52.0621 46.6532C54.5856 44.1179 55.1114 39.9981 53.1136 37.0403C52.2724 35.7726 50.59 35.1388 49.118 35.9839C47.4356 37.0403 47.8562 38.3079 48.0665 39.9981C48.1716 40.9488 48.8025 41.477 47.9613 42.4277C47.4356 43.0615 45.8584 43.3785 45.0172 43.4841C42.9143 43.801 40.4959 43.2728 38.4981 42.5334C35.0282 41.1601 32.6098 38.0966 32.6098 34.2937C32.6098 32.4979 33.0304 30.1739 34.6076 29.1175C35.3436 27.9555 36.1848 28.0612 37.026 29.6457C38.9187 30.1739 39.2341 31.019 37.8672 32.181C37.026 33.8712 35.5539 34.2937 33.7664 34.1881C32.5047 34.1881 32.2944 36.0895 33.451 36.3008Z" fill="white"/>
<path d="M48.2764 13.0611C47.225 19.0824 46.4889 25.4206 46.3838 31.5475C46.3838 36.4068 48.9073 40.6322 50.064 45.2802C50.2742 46.231 51.1154 47.0761 52.0618 47.2873C55.7419 48.1324 60.3684 47.4986 64.0486 46.6535C66.9927 45.9141 66.2567 41.583 63.3125 41.4773C60.2633 41.3717 56.5831 42.4281 53.5338 41.7942C54.1647 42.4281 54.9007 43.1675 55.5316 43.8013C54.1647 39.1533 51.3257 34.8222 50.9051 29.9629C50.3794 24.3642 50.1691 18.7655 49.2228 13.2724C49.2228 12.6385 48.3816 12.6385 48.2764 13.0611Z" fill="white"/>
<path d="M48.171 25.8422C48.6967 27.1098 50.1688 27.1098 51.4305 27.3211C52.9026 27.5324 54.3747 27.638 55.7416 27.9549C57.0034 28.1662 58.3703 27.638 58.896 26.3704C59.3166 25.2084 59.0012 23.6238 57.8446 22.99C56.5828 22.4618 55.7416 22.2505 54.3747 22.4618C52.482 22.7787 52.1666 25.4196 53.3232 26.5816C54.0592 27.3211 54.9004 27.7436 55.8467 27.9549C55.8467 26.2647 55.8467 24.4689 55.8467 22.7787C54.0592 23.3069 52.1666 23.3069 50.3791 23.6238C49.1173 23.7295 47.5401 24.3633 48.171 25.8422Z" fill="white"/>
<path d="M62.9962 13.0611C61.8395 19.0824 61.1035 25.4206 61.1035 31.5475C61.1035 36.4068 63.6271 40.6322 64.7837 45.2802C64.994 46.231 65.8352 47.0761 66.7815 47.2873C70.4616 48.1324 75.0881 47.4986 78.7683 46.6535C81.7124 45.9141 80.9764 41.583 78.0323 41.4773C74.983 41.3717 71.3028 42.4281 68.2535 41.7942C68.8844 42.4281 69.6205 43.1675 70.2513 43.8013C68.8844 39.1533 66.0454 34.8222 65.6249 29.9629C65.0991 24.3642 64.8888 18.7655 63.9425 13.2724C63.8374 12.6385 63.1013 12.6385 62.9962 13.0611Z" fill="white"/>
<path d="M62.7872 25.8422C63.3129 27.1098 64.785 27.1098 66.0468 27.3211C67.5188 27.5324 68.9909 27.638 70.3578 27.9549C71.6196 28.1662 72.9865 27.638 73.5123 26.3704C73.9329 25.2084 73.6174 23.6238 72.4608 22.99C71.199 22.4618 70.3578 22.2505 68.9909 22.4618C67.0982 22.7787 66.7828 25.4196 67.9394 26.5816C68.6755 27.3211 69.5167 27.7436 70.463 27.9549C70.463 26.2647 70.463 24.4689 70.463 22.7787C68.6755 23.3069 66.7828 23.3069 64.9953 23.6238C63.7335 23.7295 62.1563 24.3633 62.7872 25.8422Z" fill="white"/>
<path d="M79.5049 27.1106C77.1917 32.2868 77.402 41.0547 81.8182 45.0689C84.2366 47.3929 87.391 43.4843 84.6572 41.3716C84.0263 40.949 83.5005 40.8434 82.7645 40.8434C81.3976 40.949 80.6615 42.2167 81.2924 43.4843C81.2924 43.273 81.1873 43.0618 81.1873 42.8505C82.6594 42.6392 84.0263 42.428 85.4983 42.3223C83.9211 39.8927 82.6594 37.8856 81.9233 35.0334C81.2924 32.4981 81.2924 29.7516 80.4513 27.2163C80.241 26.8994 79.6101 26.6881 79.5049 27.1106Z" fill="white"/>
<path d="M75.9297 21.7241C76.3503 21.8297 76.7709 21.8297 77.1915 21.9354C77.7172 22.041 78.243 21.9354 78.6636 21.5128C78.979 21.1959 79.0842 20.879 79.0842 20.4565C79.0842 20.0339 78.8739 19.717 78.6636 19.4001C78.243 18.9775 77.7172 18.9775 77.1915 18.9775C76.7709 19.0832 76.3503 19.0832 75.9297 19.1888C75.404 19.2944 74.9834 19.9283 74.9834 20.4565C74.9834 20.6677 75.0886 20.879 75.1937 21.0903C75.2988 21.4072 75.6143 21.7241 75.9297 21.7241Z" fill="white"/>
<path d="M89.2842 44.5409C91.282 38.7309 89.5997 31.9702 87.2864 26.5827C86.4452 27.0052 85.7092 27.5334 84.868 27.956C88.7585 33.766 93.0695 38.8365 98.432 43.3789C99.4835 44.224 101.271 43.6958 101.271 42.2169C101.166 36.09 102.007 30.0687 102.743 24.0474C102.953 22.146 99.9041 21.7234 99.4835 23.6249C98.0114 29.6461 97.9063 36.09 98.0114 42.3225C98.9578 41.9 99.9041 41.5831 100.85 41.1605C95.8033 36.9351 91.0717 32.1814 87.3916 26.6883C86.5504 25.4207 84.3423 26.1601 84.868 27.7447C86.6555 33.3434 86.7607 38.8365 87.707 44.6465C87.707 45.4916 88.9688 45.2804 89.2842 44.5409Z" fill="white"/>
<path d="M110.209 22.3562C110.419 22.1449 110.524 21.828 110.734 21.6167C111.155 20.8773 110.314 19.9265 109.578 20.4547C103.795 24.5746 99.2733 37.6735 105.267 43.1666C108.106 45.8075 112.312 45.5962 114.94 42.8497C118.305 39.4693 117.674 34.61 116.833 30.3846C115.992 31.4409 115.256 32.4973 114.415 33.5537C116.728 33.3424 118.936 33.2368 121.249 32.9198C124.193 32.6029 124.298 28.1662 121.249 28.2718C118.936 28.2718 116.728 28.4831 114.415 28.5887C112.732 28.6944 111.786 30.0677 111.996 31.7578C112.312 33.7649 113.258 37.7791 111.155 39.258C106.949 42.2159 106.634 35.0326 106.739 33.2368C107.159 29.0113 108.947 25.5253 110.629 21.7224C110.104 21.6167 109.578 21.6167 109.052 21.5111C109.052 21.828 109.157 22.0393 109.157 22.3562C109.368 22.6731 109.998 22.6731 110.209 22.3562Z" fill="white"/>
<path d="M138.809 24.1524C139.019 23.7298 139.229 23.4129 139.44 22.9904C140.07 22.2509 139.65 21.0889 138.598 21.0889C133.341 20.8776 128.294 26.3707 129.451 31.7582C130.082 34.716 132.5 35.3498 134.918 36.7231C135.865 37.2513 136.811 37.3569 136.18 38.3077C135.549 39.1528 133.972 38.8358 132.92 38.8358C130.712 38.7302 127.348 38.3077 125.981 36.4062C125.876 37.5682 125.665 38.7302 125.56 39.8922C125.876 39.5753 126.191 39.2584 126.507 38.9415C127.558 37.7795 127.137 35.6668 125.56 35.3498C125.14 35.2442 124.719 35.1386 124.298 35.0329C122.301 34.6104 120.829 35.878 120.618 37.8851C119.777 46.2304 137.232 47.7093 141.437 42.7444C143.54 40.2091 142.699 36.3006 140.491 34.0822C139.019 32.6033 137.021 32.4977 135.444 31.4413C131.448 28.5891 136.075 24.4693 139.019 23.3073C138.598 23.096 138.178 22.9904 137.757 22.7791C137.757 23.096 137.862 23.5186 137.862 23.8355C137.652 24.4693 138.598 24.7862 138.809 24.1524Z" fill="white"/>
</g>
<defs>
<clipPath id="clip0">
<rect width="141.949" height="49.9661" fill="white" transform="translate(0.644531 0.0673828)"/>
</clipPath>
</defs>
</svg>
