<svg width="221" height="136" viewBox="0 0 221 136" fill="none" xmlns="http://www.w3.org/2000/svg">
<g clip-path="url(#clip0)">
<path d="M0.400391 24.9997C21.7004 25.2997 43.1004 25.7997 64.4004 25.2997C65.3004 25.2997 65.3004 23.8997 64.4004 23.7997C43.1004 23.2997 21.7004 23.8997 0.400391 24.0997C-0.0996094 24.1997 -0.0996094 24.9997 0.400391 24.9997Z" fill="white"/>
<path d="M1.10002 23.7998C4.30002 19.0998 13 18.0998 18.2 17.1998C23.8 16.2998 29.4 15.8998 35.1 16.1998C40.4 16.3998 45.8 17.1998 50.9 18.3998C56.2 19.6998 61.1 22.1998 66.4 23.2998C67.2 23.4998 67.5 22.4998 66.9 22.0998C62 18.4998 54.8 17.0998 48.9 15.9998C42.9 14.8998 36.8 14.3998 30.8 14.5998C24.8 14.7998 18.7 15.5998 12.9 17.0998C8.70002 18.1998 2.70002 19.1998 0.700016 23.4998C0.500016 23.7998 0.900016 23.9998 1.10002 23.7998Z" fill="white"/>
<path d="M26.9002 14.6998C26.8002 13.2998 26.6002 11.8998 26.5002 10.4998C26.3002 10.6998 26.0002 10.9998 25.8002 11.1998C29.9002 11.1998 33.9002 11.3998 38.0002 11.7998C39.0002 11.8998 38.9002 10.3998 38.0002 10.2998C34.0002 9.79981 29.8002 9.5998 25.8002 9.6998C25.3002 9.6998 25.0002 10.0998 25.1002 10.5998C25.3002 11.9998 25.5002 13.3998 25.9002 14.7998C26.0002 15.3998 27.0002 15.2998 26.9002 14.6998Z" fill="white"/>
<path d="M38.0004 11.6996C38.3004 12.3996 38.6004 13.1996 38.9004 13.8996C39.1004 14.4996 39.3004 15.1996 39.9004 15.5996C40.3004 15.7996 40.7004 15.4996 40.7004 15.0996C40.8004 14.3996 40.3004 13.7996 39.9004 13.2996C39.5004 12.5996 39.1004 11.9996 38.7004 11.2996C38.5004 10.9996 37.9004 11.2996 38.0004 11.6996Z" fill="white"/>
<path d="M33.1004 9.20003C33.1004 7.90003 32.9004 6.60003 32.9004 5.30003C33.0004 2.20003 33.5004 2.60003 35.7004 2.30003C38.8004 1.90003 42.3004 2.30003 45.5004 2.30003C46.9004 2.30003 48.7004 1.90003 49.8004 2.80003C51.1004 3.90003 50.9004 6.30003 51.1004 7.80003C51.4004 10.8 51.4004 13.8 51.1004 16.9C51.0004 18.3 53.2004 18.3 53.4004 16.9C53.7004 13.5 53.7004 10.2 53.3004 6.80003C53.0004 5.10003 53.0004 2.00003 51.4004 0.700029C49.8004 -0.499971 46.6004 0.200029 44.7004 0.200029C40.7004 0.200029 36.7004 0.200029 32.7004 0.300029C32.3004 0.300029 31.9004 0.600029 31.8004 1.00003C31.2004 3.80003 31.0004 6.90003 32.7004 9.30003C32.8004 9.50003 33.1004 9.50003 33.1004 9.20003Z" fill="white"/>
<path d="M38.7997 11.2002C39.1997 9.7002 39.1997 8.2002 39.1997 6.7002C38.9997 7.0002 38.6997 7.2002 38.4997 7.4002C39.5997 7.4002 40.6997 7.4002 41.7997 7.4002C42.1997 7.4002 43.3997 7.2002 43.7997 7.4002C44.4997 7.7002 44.2997 8.3002 44.2997 8.9002C44.1997 11.2002 43.6997 14.0002 44.3997 16.2002C44.6997 17.1002 45.8997 17.0002 46.0997 16.2002C46.5997 14.5002 46.2997 12.5002 46.1997 10.8002C46.1997 9.6002 46.4997 7.8002 45.8997 6.7002C45.3997 5.9002 44.6997 5.7002 43.7997 5.7002C41.9997 5.7002 40.1997 5.9002 38.4997 6.0002C38.0997 6.0002 37.6997 6.3002 37.7997 6.7002C37.7997 8.2002 37.8997 9.7002 38.1997 11.2002C38.1997 11.5002 38.6997 11.5002 38.7997 11.2002Z" fill="white"/>
<path d="M46.1996 25.2004C44.8996 33.8004 45.4996 42.6004 45.4996 51.2004C45.5996 60.5004 45.5996 69.8004 45.5996 79.1004C45.5996 97.7004 45.4996 116.3 45.6996 134.9C45.6996 135.9 47.1996 135.9 47.1996 134.9C47.4996 116.3 47.2996 97.7004 47.2996 79.1004C47.2996 69.8004 47.3996 60.5004 47.3996 51.2004C47.4996 42.5004 47.9996 33.8004 46.6996 25.2004C46.7996 24.8004 46.1996 24.8004 46.1996 25.2004Z" fill="white"/>
<path d="M52.5004 24.8C51.4004 33.8 52.1004 43.3 52.1004 52.3C52.1004 61.5 52.1004 70.7 52.1004 79.8C52.1004 98.2 51.7004 116.5 52.1004 134.9C52.1004 135.8 53.5004 135.8 53.5004 134.9C53.9004 116.6 53.5004 98.2 53.5004 79.8C53.5004 70.6 53.5004 61.4 53.5004 52.3C53.5004 43.2 54.2004 33.8 53.1004 24.8C53.0004 24.4 52.6004 24.4 52.5004 24.8Z" fill="white"/>
<path d="M5.90046 35.2004C5.80046 40.1004 5.40046 45.2004 5.70046 50.1004C5.70046 50.7004 6.60046 50.7004 6.60046 50.1004C7.00046 45.2004 6.60046 40.1004 6.40046 35.2004C6.50046 34.8004 5.90046 34.8004 5.90046 35.2004Z" fill="#FFE500"/>
<path d="M19.9002 41.6996C19.8002 46.2996 19.2002 51.0996 19.8002 55.5996C19.9002 55.9996 20.4002 55.9996 20.4002 55.5996C21.0002 51.0996 20.4002 46.1996 20.3002 41.6996C20.3002 41.3996 20.0002 41.3996 19.9002 41.6996Z" fill="#FFE500"/>
<path d="M33.5002 46.2996C33.2002 49.1996 33.2002 52.1996 33.2002 55.0996C33.2002 55.6996 34.1002 55.6996 34.1002 55.0996C34.1002 52.1996 34.0002 49.1996 33.8002 46.2996C33.8002 46.1996 33.5002 46.1996 33.5002 46.2996Z" fill="#FFE500"/>
<path d="M14.6998 91.4C14.9998 85.2 14.8998 79 14.8998 72.8C14.8998 72.4 14.1998 72.4 14.1998 72.8C14.0998 79 13.9998 85.2 14.3998 91.4C14.3998 91.7 14.6998 91.7 14.6998 91.4Z" fill="#FFE500"/>
<path d="M27.7996 97.9C27.9996 90.9 28.0996 83.9 27.9996 77C27.9996 76.5 27.2996 76.5 27.2996 77C27.0996 84 27.2996 91 27.4996 97.9C27.3996 98.2 27.7996 98.2 27.7996 97.9Z" fill="#FFE500"/>
<path d="M53.6004 55.7C53.7004 55.7 53.7004 55.5 53.6004 55.5C53.5004 55.6 53.5004 55.7 53.6004 55.7Z" fill="white"/>
<path d="M58.9996 67.7C59.2996 62 59.3996 56.2 59.1996 50.5C59.1996 50 58.4996 50 58.4996 50.5C58.1996 56.2 58.2996 62 58.6996 67.7C58.4996 68 58.8996 68 58.9996 67.7Z" fill="#FFE500"/>
<path d="M49.6998 72.7996C49.9998 67.0996 50.0998 61.2996 49.8998 55.5996C49.8998 55.0996 49.1998 55.0996 49.1998 55.5996C48.8998 61.2996 48.9998 67.0996 49.3998 72.7996C49.1998 73.0996 49.5998 73.0996 49.6998 72.7996Z" fill="#FFE500"/>
<path d="M40.0003 31.5004C39.3003 36.9004 39.5003 42.4004 39.7003 47.8004C39.7003 48.5004 40.7003 48.5004 40.7003 47.8004C40.8003 42.4004 41.1003 36.9004 40.4003 31.5004C40.3003 31.2004 40.0003 31.2004 40.0003 31.5004Z" fill="#FFE500"/>
<path d="M26.4995 30.9002C25.8995 35.3002 26.1995 40.0002 26.2995 44.4002C26.2995 44.9002 26.9995 44.9002 26.9995 44.4002C27.0995 40.0002 27.3995 35.3002 26.7995 30.9002C26.7995 30.8002 26.4995 30.8002 26.4995 30.9002Z" fill="#FFE500"/>
<path d="M39 92.8002C39.2 85.7002 39.3 78.5002 39.2 71.4002C39.2 70.8002 38.3 70.8002 38.3 71.4002C38.2 78.5002 38.3 85.7002 38.5 92.8002C38.5 93.1002 39 93.1002 39 92.8002Z" fill="#FFE500"/>
<path d="M49.7002 119.3C49.9002 112.2 50.0002 105 49.9002 97.9002C49.9002 97.3002 49.0002 97.3002 49.0002 97.9002C48.9002 105 49.0002 112.2 49.2002 119.3C49.2002 119.6 49.7002 119.6 49.7002 119.3Z" fill="#FFE500"/>
<path d="M58 88.2002C58.3 85.1002 58.5 82.0002 58.3 78.9002C58.2 78.3002 57.4 78.3002 57.3 78.9002C57 82.0002 57.3 85.1002 57.6 88.2002C57.6 88.5002 58 88.5002 58 88.2002Z" fill="#FFE500"/>
<path d="M50.2002 44.2002C50.5002 41.1002 50.7002 38.0002 50.5002 34.9002C50.4002 34.3002 49.6002 34.3002 49.5002 34.9002C49.2002 38.0002 49.5002 41.1002 49.8002 44.2002C49.7002 44.5002 50.1002 44.5002 50.2002 44.2002Z" fill="#FFE500"/>
<path d="M49.3998 111.2C49.6998 111.2 49.6998 110.7 49.3998 110.7C49.0998 110.7 49.0998 111.2 49.3998 111.2Z" fill="white"/>
<path d="M31.8996 101.2C31.5996 106.2 31.5996 111.1 31.5996 116.1C31.5996 116.8 32.6996 116.8 32.6996 116.1C32.7996 111.1 32.6996 106.2 32.3996 101.2C32.4996 100.8 31.9996 100.8 31.8996 101.2Z" fill="#FFE500"/>
<path d="M19 100.3C18.5 106.3 18.6 112.4 18.6 118.4C18.6 119.2 19.8 119.2 19.8 118.4C19.8 112.4 19.9 106.3 19.4 100.3C19.4 100 19 100 19 100.3Z" fill="#FFE500"/>
<path d="M6.40042 88.2004C6.30042 96.4004 6.10042 104.6 6.30042 112.8C6.30042 113.4 7.20042 113.4 7.20042 112.8C7.30042 104.6 7.20042 96.4004 7.10042 88.2004C7.00042 87.8004 6.40042 87.8004 6.40042 88.2004Z" fill="#FFE500"/>
<path d="M56.1002 104C55.8002 108.3 55.8002 112.7 55.7002 117C55.7002 117.8 57.0002 117.8 57.0002 117C56.9002 112.7 57.0002 108.3 56.6002 104C56.7002 103.6 56.1002 103.6 56.1002 104Z" fill="#FFE500"/>
</g>
<g clip-path="url(#clip1)">
<path d="M90.4 66.9005C86.6 66.0005 81.9 66.2005 78.8 68.9005C76.6 70.8005 76 73.4005 78.1 75.6005C82 79.7005 88.8 80.2005 91.6 85.6005C94.8 91.7005 86.8 90.8005 83.4 89.7005C79.9 88.5005 77.5 86.1005 74.7 83.7005C73.8 82.9005 72.5 83.9005 73.1 85.0005C75.4 89.5005 80.6 92.3005 85.5 93.1005C88.8 93.7005 93.7 93.9005 94.8 89.8005C95.8 86.0005 92.5 82.3005 89.8 80.2005C87.6 78.5005 85.1 77.3005 82.7 76.0005C80.7 74.9005 78.9 73.0005 80.2 70.3005C81.5 67.5005 87.8 67.5005 90.2 67.8005C90.7 67.8005 90.9 67.1005 90.4 66.9005Z" fill="white"/>
<path d="M94.2 70.5001C93.4 77.5001 93.8 84.4001 95.1 91.3001C95.4 92.9001 98 92.2001 97.6 90.6001C96.1 84.0001 95.5 77.3001 95.7 70.5001C95.8 69.5001 94.4 69.6001 94.2 70.5001Z" fill="white"/>
<path d="M97.0999 83.9001C96.6999 81.8001 94.6999 77.2001 98.7999 77.8001C100.9 78.1001 102.2 81.3001 102.8 83.0001C103.5 85.1001 103.1 89.1001 105.5 90.1001C105.9 90.3001 106.5 90.1001 106.8 89.8001C106.8 89.7001 106.9 89.7001 106.9 89.6001C107.3 89.1001 107.4 88.6001 107.1 88.0001C106.9 87.5001 106.6 87.3001 106.1 87.2001C105.4 87.0001 104.6 87.6001 104.6 88.3001V88.4001C104.6 88.8001 104.9 89.3001 105.4 89.4001H105.5C105.2 89.1001 105 88.9001 104.7 88.6001V88.7001C104.9 88.3001 105.1 87.9001 105.4 87.6001C106.4 88.0001 106.7 87.8001 106.3 87.0001C106.2 86.8001 106.2 86.5001 106.1 86.3001C105.9 85.6001 105.8 84.9001 105.6 84.2001C105.3 83.0001 104.9 81.7001 104.3 80.6001C103.3 78.5001 101.5 76.4001 99.0999 75.9001C97.1999 75.5001 95.3999 76.4001 94.6999 78.3001C93.8999 80.5001 94.9999 82.9001 96.6999 84.4001C96.7999 84.4001 97.1999 84.2001 97.0999 83.9001Z" fill="white"/>
<path d="M108.7 76.8996C106.8 81.5996 105.4 87.8996 110.8 90.7996C114.5 92.7996 121.2 91.6996 122.8 87.2996C124.4 82.7996 117.9 78.3996 114.4 76.9996C111.3 75.7996 104 74.7996 104.8 80.1996C105 81.7996 107.7 81.3996 107.6 79.7996C107.5 77.3996 115 80.6996 115.6 81.0996C118.1 82.6996 121.7 85.9996 117.6 87.9996C114 89.6996 109.6 88.0996 109.1 83.8996C108.8 81.4996 109.9 79.1996 109.5 76.7996C109.6 76.2996 108.8 76.4996 108.7 76.8996Z" fill="white"/>
<path d="M119.3 76.2996C119.1 81.1996 122.6 85.8996 125.4 89.5996C126 90.3996 127.3 89.7996 127.5 88.9996C128.3 86.4996 129.1 83.9996 130.1 81.5996C129.4 81.7996 128.6 81.9996 127.9 82.1996C129.7 84.1996 134.5 92.3996 138.3 89.3996C140 88.0996 140 85.0996 140.4 83.2996C141 80.0996 142.1 76.7996 141.7 73.5996C141.6 72.7996 140.5 72.2996 140.1 73.1996C138.5 76.1996 138.3 79.9996 137.7 83.3996C137.6 84.1996 137.4 84.9996 137.3 85.6996C136.1 87.0996 135.2 86.8996 134.5 85.3996C132.9 84.3996 131.3 81.7996 130 80.3996C129.3 79.5996 128.1 80.0996 127.8 80.9996C126.8 83.3996 125.9 85.8996 125.3 88.3996C126 88.1996 126.7 87.9996 127.4 87.7996C124 84.2996 122.5 79.9996 119.6 76.2996C119.4 76.1996 119.3 76.1996 119.3 76.2996Z" fill="white"/>
<path d="M145.3 83.6003C148 84.6003 154.8 84.7003 153 79.8003C151.7 76.0003 145.4 75.9003 142.6 77.8003C139.1 80.2003 138.8 85.6003 142 88.4003C146.4 92.3003 155.1 91.1003 160.5 90.8003C161.9 90.7003 162.9 89.3003 162.1 88.0003C161.9 87.7003 161.8 87.4003 161.6 87.2003C161.3 86.7003 160.7 86.3003 160 86.3003C159.7 86.3003 159.4 86.4003 159.1 86.4003C157.9 86.5003 157.4 87.8003 158.1 88.7003C158.3 89.1003 158.6 89.5003 158.8 89.9003C159.3 89.0003 159.9 88.0003 160.4 87.1003C156 87.4003 151 87.9003 146.7 86.9003C143.6 86.2003 141.7 83.2003 144.1 80.6003C145.2 79.4003 146.9 79.0003 148.5 79.3003C152.2 80.0003 147.7 83.1003 145.4 82.6003C144.9 82.5003 144.7 83.4003 145.3 83.6003Z" fill="white"/>
<path d="M156.5 75.2001C156.5 75.1001 156.5 75.0001 156.5 74.9001C156.5 74.8001 156.4 74.6001 156.3 74.5001C156.2 74.4001 156.1 74.4001 156 74.3001C155.8 74.2001 155.5 74.2001 155.3 74.4001C153.4 75.9001 155.1 80.7001 155.8 82.4001C157.1 85.6001 159.4 88.1001 162.4 89.9001C163.1 90.3001 163.9 90.0001 164.4 89.4001C165.1 88.5001 165.1 88.1001 164.8 87.0001C164.4 85.8001 163 86.0001 162.6 87.0001C162.5 87.2001 162.3 87.4001 162.2 87.7001C162.8 87.6001 163.4 87.6001 163.9 87.5001C161.5 86.4001 159.5 84.7001 158.1 82.4001C157.4 81.3001 156.9 80.2001 156.6 78.9001C156.4 78.3001 156.3 77.7001 156.2 77.0001C156.1 76.6001 156.1 76.3001 156.1 75.9001C156.2 75.6001 156.1 75.4001 155.7 75.3001C155.9 75.7001 156.5 75.6001 156.5 75.2001Z" fill="white"/>
<path d="M157.6 77.6004C158.3 75.1004 159.7 74.6004 162 76.1004C164 76.7004 164.6 77.6004 163.8 78.9004C163 80.4004 160.4 80.1004 158.7 80.3004C157 80.5004 156.7 82.6004 158.3 83.3004C164.8 85.9004 171.5 88.2004 178.2 90.2004C180.2 90.8004 181.1 87.6004 179.1 87.1004C172.3 85.2004 165.7 82.9004 159.1 80.4004C159 81.4004 158.8 82.4004 158.7 83.4004C161 83.1004 166.8 83.7004 167.4 80.6004C167.9 78.3004 165.2 75.7004 163.5 74.7004C161.7 73.7004 158.6 73.0004 156.8 74.5004C155.4 75.7004 155.6 77.4004 157.1 78.4004C157.5 78.6004 158 77.9004 157.6 77.6004Z" fill="white"/>
<path d="M173.7 73.1996C173 77.4996 174 82.8996 176.6 86.4996C177.6 87.8996 179.8 86.6996 178.9 85.0996C177.8 83.0996 176.5 81.2996 175.8 79.0996C175.2 77.1996 174.8 75.0996 174.5 73.0996C174.5 72.7996 173.8 72.7996 173.7 73.1996Z" fill="white"/>
<path d="M168.9 68.5C170.5 68.5 170.5 66 168.9 66C167.2 66 167.2 68.5 168.9 68.5Z" fill="white"/>
<path d="M182.5 87.4004C183.1 83.1004 182.7 78.6004 182.7 74.3004C181.8 74.5004 180.9 74.8004 180 75.0004C183.2 79.2004 186.9 82.8004 191 86.0004C192 86.8004 193.1 85.7004 193.2 84.7004C193.7 80.5004 193 76.5004 191.1 72.6004C190.3 70.9004 187.7 72.4004 188.5 74.1004C190.1 77.5004 190.7 81.0004 190.2 84.7004C190.9 84.3004 191.7 83.9004 192.4 83.4004C188.5 80.5004 185.1 77.0004 182.1 73.2004C181.4 72.2004 179.5 73.0004 179.7 74.2004C180.1 78.5004 180.2 83.1004 181.3 87.3004C181.6 87.9004 182.5 88.0004 182.5 87.4004Z" fill="white"/>
<path d="M206.4 72.7003C202.7 70.6003 199.6 75.0003 198.4 77.9003C196.6 82.1003 195.9 86.4003 200.5 88.9003C203.6 90.6003 208.7 92.0003 211.7 89.5003C215.4 86.4003 212.7 81.8003 210.2 79.0003C209.7 80.2003 209.2 81.4003 208.7 82.6003C212.3 82.3003 216.1 82.2003 219.7 81.4003C221.9 80.9003 221.4 77.5003 219.2 77.5003C215.7 77.5003 212.2 78.1003 208.8 78.4003C207 78.6003 206 80.6003 207.3 82.0003C208.9 83.8003 210.4 86.5003 207 86.9003C205.9 87.0003 203.7 86.3003 202.7 85.8003C200 84.3003 200.4 81.5003 201.1 79.1003C202.1 76.0003 203.3 74.7003 206.3 73.6003C206.6 73.4003 206.8 72.9003 206.4 72.7003Z" fill="white"/>
</g>
<defs>
<clipPath id="clip0">
<rect width="67.2" height="135.7" fill="white"/>
</clipPath>
<clipPath id="clip1">
<rect width="148" height="27.4" fill="white" transform="translate(73 66)"/>
</clipPath>
</defs>
</svg>
