<svg width="316" height="167" viewBox="0 0 316 167" fill="none" xmlns="http://www.w3.org/2000/svg">
<g clip-path="url(#clip0)">
<path d="M96.8075 29.1862C97.1685 29.0069 97.5295 28.6483 97.8906 28.4689C98.4321 28.1103 98.6126 26.8552 97.71 26.6759C89.7675 25.2414 74.063 30.262 78.9368 41.1999C79.8394 43.1723 81.6445 44.7861 83.2691 46.0412C84.3522 46.9378 87.4209 48.0136 87.9624 49.0895C89.7675 52.317 86.6988 54.8274 84.3522 55.7239C80.5615 57.1584 74.6046 56.4412 70.6333 56.2619C68.4672 56.2619 56.1924 56.4412 58.539 52.855C59.6221 51.2412 58.9001 48.3722 57.0949 47.655C56.7339 47.4757 56.1924 47.2964 55.8314 47.1171C53.6652 46.0412 51.8601 46.3998 49.8745 47.8343C43.7371 52.6757 45.7227 61.1032 52.0406 64.8687C59.9831 69.5307 74.4241 68.6342 83.0886 66.8411C89.9481 65.4066 99.3347 60.9239 97.71 52.4964C97.1685 49.6274 95.3634 47.2964 93.0167 45.5033C91.3921 44.0688 88.865 43.5309 87.2404 42.2757C83.2691 40.662 83.4496 36.8965 87.6014 31.1586C90.1286 29.7241 93.0168 28.8276 96.0854 28.8276C96.0854 29.0069 96.4465 29.3655 96.8075 29.1862Z" fill="#154945"/>
<path d="M100.777 36.3572C99.3325 41.0192 98.4299 45.8605 97.3469 50.7019C96.6248 54.1088 95.0002 58.4122 95.9028 61.819C98.0689 68.8121 112.51 66.3018 117.745 64.8673C121.716 63.7914 121.174 56.9777 116.662 57.5156C115.94 57.5156 115.218 57.6949 114.495 57.8742C111.427 58.7708 111.788 62.7156 114.495 63.7914C114.676 63.7914 114.856 63.9707 115.218 63.9707C114.495 63.2535 113.593 62.357 112.871 61.6397C112.871 61.819 112.871 61.9983 113.051 62.1777C114.315 60.5639 115.398 58.9501 116.662 57.3363C111.607 57.6949 106.011 58.7708 100.957 57.3363C101.679 57.8742 102.582 58.5915 103.304 59.1294C102.04 57.157 103.304 50.8812 103.484 48.5502C103.665 44.6054 103.845 40.4813 103.484 36.5365C103.484 35.2813 101.318 34.9227 100.777 36.3572Z" fill="#154945"/>
<path d="M99.5132 44.2467C103.304 44.964 108.178 45.1433 111.968 44.7847C115.398 44.426 115.579 39.4054 111.968 39.2261C109.983 39.2261 107.817 39.5847 105.651 39.9433C103.484 40.3019 101.318 40.4812 99.3327 41.0192C98.0691 41.5571 97.8886 44.0674 99.5132 44.2467Z" fill="#154945"/>
<path d="M120.633 61.6399C122.98 57.1571 122.077 41.9159 128.395 41.5573C135.976 41.1986 133.81 57.1571 135.435 61.8192C136.337 64.6881 141.572 65.4054 142.114 61.8192C143.016 55.902 141.031 48.5503 138.865 42.9917C137.24 38.8676 133.449 36.178 128.936 35.9987C124.604 35.8194 120.994 38.6883 119.55 42.6331C117.925 47.8331 116.662 56.0813 118.467 61.2813C119.008 62.1778 120.272 62.5364 120.633 61.6399Z" fill="#154945"/>
<path d="M116.481 52.495C125.868 53.9294 135.255 54.4674 144.641 55.1846C149.334 55.5432 149.334 48.3709 144.641 48.0122C142.836 47.8329 142.114 48.0122 140.128 48.3709C137.782 48.9088 137.06 52.8536 139.406 53.7501C141.211 54.6467 142.475 54.826 144.641 55.1846C144.641 52.8536 144.641 50.3433 144.641 48.0122C135.074 48.0122 125.868 48.3709 116.481 49.9846C115.218 50.1639 115.037 52.3157 116.481 52.495Z" fill="#154945"/>
<path d="M146.266 40.6606C146.446 40.302 146.807 39.9434 146.988 39.5848C146.085 39.4055 145.183 39.0469 144.28 38.8676C143.919 42.4537 145.544 45.8606 146.627 49.0882C148.071 52.8537 149.154 56.4398 149.335 60.5639C151.501 59.6674 153.486 58.7709 155.653 57.8743C155.292 57.3364 154.931 56.9778 154.389 56.6191C151.862 54.4674 148.432 56.4398 148.974 59.6674C148.974 60.2053 149.154 60.7433 149.515 61.2812C151.14 65.7639 157.819 63.9708 156.736 59.3088C154.75 51.7778 150.057 45.3227 146.988 38.1503C146.085 35.9986 143.017 37.7917 144.641 39.5848C145.183 40.1227 145.363 40.4813 145.724 40.6606C145.905 41.0193 146.266 40.84 146.266 40.6606Z" fill="#154945"/>
<path d="M143.017 45.8603C141.393 40.6604 148.974 41.5569 151.14 41.7362C152.404 41.9156 153.668 42.0949 154.931 42.2742C157.458 42.2742 157.639 43.7086 155.473 46.3983C151.501 46.9362 150.057 52.6741 154.39 53.7499C160.888 55.3637 169.372 59.4878 175.69 56.7982C177.495 56.081 177.315 53.7499 176.232 52.4948C172.08 47.6534 162.332 47.6534 156.375 46.5776C156.375 48.9086 156.375 51.4189 156.375 53.7499C166.484 51.2396 167.928 40.3018 156.917 37.7914C150.057 36.357 133.992 35.9984 140.851 46.7569C141.754 47.6534 143.378 46.9362 143.017 45.8603Z" fill="#154945"/>
<path d="M174.065 33.309C172.441 40.84 179.841 48.0123 177.856 55.364C179.119 54.4675 180.383 53.3916 181.647 52.4951C180.022 52.4951 179.119 53.033 178.217 54.4675C174.607 60.3847 186.881 63.0743 185.437 55.364C184.715 51.4192 183.091 47.833 181.105 44.2468C179.119 40.6607 177.856 36.7159 175.87 32.9504C175.329 32.2331 174.246 32.4125 174.065 33.309Z" fill="#154945"/>
<path d="M146.627 31.8747C154.931 34.5643 164.498 34.2057 173.163 34.7436C182.008 35.1022 191.936 37.0746 200.42 34.9229C204.211 34.0264 204.03 28.4678 200.42 27.3919C191.936 25.0609 181.827 26.854 173.163 27.0333C164.498 27.3919 154.931 26.6747 146.627 29.3643C145.364 29.9023 145.544 31.5161 146.627 31.8747Z" fill="#154945"/>
<path d="M148.432 74.0119C146.085 75.2671 146.446 78.8533 146.446 81.005C146.266 85.4877 146.266 89.9704 146.266 94.4531C146.266 98.2186 152.403 98.0393 152.042 94.4531C151.32 87.998 150.778 81.5429 150.778 75.2671C150.598 74.0119 149.334 73.474 148.432 74.0119Z" fill="#154945"/>
<path d="M148.433 95.5292C150.238 96.2464 152.223 96.2464 154.209 96.2464C156.195 96.2464 158.541 96.2464 160.527 95.5292C163.054 94.6327 162.693 90.8672 159.805 90.8672C157.819 90.8672 155.834 91.4051 153.848 91.7637C152.043 91.943 150.238 91.943 148.613 92.8396C147.35 93.1982 147.35 95.1706 148.433 95.5292Z" fill="#154945"/>
<path d="M149.334 85.1294C150.237 85.488 151.501 85.3087 152.403 85.3087C153.486 85.3087 154.569 85.488 155.652 85.488C155.472 83.695 155.111 82.0812 154.93 80.2881C154.208 80.6467 153.486 80.826 152.764 81.1846C151.681 81.5432 150.959 82.4398 151.14 83.695C151.32 84.7708 152.223 85.6674 153.306 85.6674C154.028 85.6674 154.75 85.6674 155.472 85.6674C157.096 85.6674 158.36 84.2329 158.18 82.6191C157.999 81.1846 156.374 79.9295 154.93 80.4674C153.847 80.826 152.764 81.3639 151.681 81.7226C150.598 82.0812 149.515 82.4398 148.793 83.157C147.89 83.5156 148.432 84.7708 149.334 85.1294Z" fill="#154945"/>
<path d="M136.879 77.5985C143.558 77.9571 150.057 77.4192 156.555 77.0606C160.707 76.8813 160.707 70.6055 156.555 70.6055C155.111 70.6055 154.209 70.7848 152.945 71.502C151.681 72.3986 150.959 74.371 152.403 75.4468C153.848 76.5227 154.57 76.8813 156.375 77.0606C156.014 74.9089 155.833 72.7572 155.472 70.6055C148.974 71.8606 142.656 72.9365 136.338 74.9089C135.074 75.4468 135.435 77.5985 136.879 77.5985Z" fill="#154945"/>
<path d="M166.483 76.5224V76.3431C166.483 75.9845 166.122 75.4465 165.761 75.4465H165.581C165.039 75.2672 164.317 75.6259 164.137 76.1638C163.414 78.4948 167.025 81.543 168.288 83.1568C171.177 86.3844 173.884 89.7913 177.133 92.8395C178.577 94.274 180.744 93.5567 181.466 91.7637C181.827 90.6878 181.646 89.9706 181.105 89.074C180.202 87.6395 178.397 87.8189 177.494 89.074L177.675 88.8947C178.758 89.074 179.661 89.074 180.744 89.2533C178.216 86.743 175.509 84.412 172.982 81.9017C171.718 80.8258 170.635 79.5707 169.371 78.3155C168.83 77.7776 168.288 77.4189 167.566 76.881C167.386 76.7017 167.025 76.5224 166.844 76.3431C166.303 75.8052 166.122 75.9845 166.483 76.881C166.122 77.0603 165.761 77.2396 165.4 77.2396H165.581C165.942 77.4189 166.483 76.881 166.483 76.5224Z" fill="#154945"/>
<path d="M168.289 90.5086C172.982 86.2052 177.675 82.9776 183.271 79.9294C185.979 78.4949 185.257 74.1915 182.369 73.4742C180.383 72.9363 179.119 73.1156 177.495 74.5501C176.412 75.6259 176.412 77.5983 177.495 78.4949C178.217 79.2121 178.758 79.5707 179.661 79.9294C179.661 77.957 179.661 75.8053 179.661 73.8329C173.524 76.8811 167.747 81.5431 163.595 87.1017C161.61 89.6121 165.942 92.481 168.289 90.5086Z" fill="#154945"/>
<path d="M186.52 76.1638C187.964 82.7982 193.199 88.7154 196.087 94.8119C197.531 93.736 198.975 92.6602 200.419 91.405C196.628 87.2809 193.379 82.9775 191.755 77.5982C191.574 76.881 190.852 75.4465 191.033 74.7293C190.491 73.8327 190.852 73.4741 191.935 73.4741C192.657 73.1155 193.379 72.9362 194.101 72.7569C195.545 72.3983 197.892 73.1155 199.156 72.7569C199.697 72.219 200.239 71.5017 200.6 70.9638C199.697 71.5017 198.795 71.8603 197.892 72.219C194.643 73.2948 195.906 78.1362 199.336 77.2396C202.585 76.5224 208.001 73.6534 204.751 69.5293C201.683 65.7638 193.921 66.8397 190.13 68.2742C184.534 70.2466 184.895 74.012 186.52 79.212C188.325 85.3085 191.755 91.2257 196.448 95.5291C199.156 97.8601 202.585 94.274 200.419 91.5843C196.087 86.3844 193.018 79.3913 187.603 75.4465C187.061 74.7293 186.339 75.4465 186.52 76.1638Z" fill="#154945"/>
<path d="M208.182 87.4603C210.167 81.0051 216.666 73.2949 209.626 67.3777C208.362 66.4811 206.918 66.4811 206.016 67.9156C200.42 76.5224 207.099 100.012 220.457 94.0947C222.442 93.1982 221.54 90.6878 219.915 89.9706C217.749 89.2534 215.583 89.4327 213.778 87.6396C212.514 86.3844 211.792 84.2327 211.25 82.6189C209.626 78.6741 208.182 74.1914 210.167 70.2466C209.084 70.6052 208.001 70.7845 206.918 71.1431C211.972 73.4742 206.196 83.1569 205.835 87.1017C205.474 88.5361 207.821 88.7154 208.182 87.4603Z" fill="#154945"/>
<path d="M226.052 79.3915C226.413 79.3915 226.593 79.2122 226.954 79.2122C228.399 78.8536 227.857 76.7019 226.413 76.8812C222.803 77.5984 218.651 79.3915 216.485 82.4398C214.138 85.6673 217.748 89.2535 220.817 90.1501C224.066 91.2259 230.023 90.688 231.828 87.4604C233.994 83.6949 230.926 80.2881 227.496 79.0329C224.969 78.1364 223.164 82.0812 225.691 83.5156C227.315 84.4122 228.037 84.7708 225.871 85.3087C224.247 85.6673 222.442 85.6673 220.817 84.9501C219.734 84.4122 219.734 84.7708 220.456 83.6949C220.998 83.157 221.359 82.6191 221.9 82.0812C223.344 80.826 224.969 79.7501 226.774 79.0329C226.413 78.495 225.871 77.9571 225.51 77.2398C225.33 77.5984 225.149 77.9571 224.969 78.3157C224.969 79.2122 225.691 79.5708 226.052 79.3915Z" fill="#154945"/>
<path d="M236.341 73.6534H236.16C235.619 73.8327 235.077 74.1914 235.077 74.7293C234.536 77.4189 234.536 80.1086 234.355 82.7982C234.175 85.1292 233.814 87.2809 235.98 88.7154C236.521 89.074 237.063 89.074 237.604 88.7154C239.771 87.4602 239.41 84.9499 239.229 82.7982C239.049 80.1086 238.868 77.2396 238.327 74.7293C238.146 74.1914 237.785 73.6534 237.243 73.6534C236.882 73.6534 236.521 73.4741 236.341 73.6534Z" fill="#154945"/>
<path d="M236.522 73.8328C238.688 73.2949 241.034 72.9363 243.381 73.1156C244.103 73.1156 246.269 73.1156 246.811 73.6535C247.533 74.7294 246.63 74.3708 245.367 74.7294C242.659 75.6259 238.688 76.1639 238.327 79.5707C237.605 86.2052 249.157 88.5362 253.67 86.7431C256.017 85.6672 255.295 81.7224 252.948 81.3638C251.143 81.0052 249.338 81.1845 247.533 80.8259C246.63 80.6466 245.908 80.1087 245.006 79.9293C244.284 79.2121 243.922 79.2121 244.103 80.1087C243.922 81.0052 244.103 81.0052 245.006 80.288C247.352 79.75 251.143 77.7776 251.323 74.9087C251.865 68.095 239.049 70.9639 235.799 72.0398C234.716 72.2191 235.258 74.1915 236.522 73.8328Z" fill="#154945"/>
<path d="M260.349 72.3983C260.71 77.0603 261.432 82.4396 264.139 86.2051C265.583 88.1775 269.555 87.1016 268.472 84.412C267.569 82.081 266.305 79.9292 265.222 77.7775C264.5 75.8051 264.139 73.4741 263.056 71.681C262.515 70.4259 260.349 70.7845 260.349 72.3983Z" fill="#154945"/>
<path d="M259.447 65.4051C261.793 65.4051 261.793 61.6396 259.447 61.6396C257.1 61.6396 257.1 65.4051 259.447 65.4051Z" fill="#154945"/>
<path d="M275.873 86.3844C275.693 80.8258 273.527 75.8052 271.361 70.6052C270.278 71.3225 269.014 71.8604 267.931 72.5776C271.902 77.7776 277.137 81.9017 282.913 84.95C284.177 85.6672 285.44 85.1293 286.163 84.0534C288.69 80.4672 287.968 75.6259 285.441 72.219C283.996 70.2466 281.108 71.3225 281.65 73.8328C282.011 76.5224 283.816 79.0328 282.191 81.7224C283.274 81.3638 284.357 81.1845 285.441 80.8258C279.845 78.1362 275.332 74.55 271.18 70.0673C269.736 68.4535 266.667 70.6052 268.111 72.3983C271.361 76.5224 272.805 81.5431 274.429 86.3844C274.61 87.4603 276.054 87.4603 275.873 86.3844Z" fill="#154945"/>
<path d="M299.34 61.1018C289.953 65.2259 286.162 78.4948 296.632 84.0534C300.242 86.0257 305.838 86.2051 308.726 82.7982C311.975 78.6741 308.726 74.012 304.755 72.219C304.394 74.55 304.213 76.881 303.852 79.212C307.102 78.1362 311.073 78.4948 313.961 76.5224C315.947 75.2672 315.947 72.5776 313.961 71.3224C310.351 68.9914 305.657 70.4259 301.867 71.5017C298.256 72.5776 298.076 77.9568 301.867 79.0327C302.589 79.212 303.852 78.8534 303.13 77.9568C303.13 77.9568 300.964 77.5982 300.603 77.4189C298.979 76.881 297.715 75.8051 297.173 74.1914C296.09 70.2466 300.062 66.6604 301.686 63.4328C302.408 61.819 300.784 60.3846 299.34 61.1018Z" fill="#154945"/>
</g>
<g opacity="0.25" clip-path="url(#clip1)">
<path d="M3.54495 38.007C5.91558 36.1053 8.39505 34.3079 10.7657 32.4063C11.4122 31.8781 11.2973 30.7249 10.753 30.2036C9.99171 29.5786 9.12633 29.6884 8.47985 30.2166C6.10923 32.1183 3.62975 33.9157 1.25913 35.8173C0.612652 36.3455 0.727512 37.4987 1.27176 38.02C1.92485 38.6457 2.79023 38.5358 3.54495 38.007Z" fill="#1B5650"/>
<path d="M20.2586 26.5826C23.1723 24.9925 25.9771 23.2982 28.8908 21.708C29.6461 21.2841 29.9648 20.2334 29.4194 19.5022C28.9822 18.7705 28.0061 18.4614 27.1432 18.9908C24.2295 20.5809 21.4247 22.2753 18.511 23.8654C17.7557 24.2893 17.437 25.3401 17.9824 26.0712C18.4196 26.803 19.395 27.0072 20.2586 26.5826Z" fill="#1B5650"/>
<path d="M44.8704 14.5887C44.8704 14.5887 45.4092 14.166 45.0863 14.4825C45.1939 14.377 45.4098 14.2709 45.5175 14.1654C45.841 13.9537 46.0563 13.7427 46.3799 13.5311C46.9187 13.1084 47.5664 12.79 48.2135 12.3667C48.8611 12.0483 49.4006 11.7306 50.0482 11.4122C50.3724 11.3054 50.6959 11.0938 51.0201 10.987C51.1283 10.9864 51.5601 10.7741 51.236 10.8809C51.3436 10.7754 51.5601 10.7741 51.776 10.668C52.5319 10.349 53.1772 9.61103 52.8477 8.77376C52.6269 8.04077 51.6485 7.31212 50.8932 7.73602C47.8689 8.90719 45.1717 10.4961 42.5852 12.5039C41.9387 13.032 41.9453 14.1858 42.5978 14.7066C43.2503 15.2273 44.2239 15.1168 44.8704 14.5887Z" fill="#1B5650"/>
<path d="M73.9469 6.97471C78.8133 6.10767 83.6796 5.24062 88.5453 4.26869C89.4107 4.15884 89.8377 3.10745 89.617 2.37446C89.3957 1.53657 88.5273 1.12197 87.6625 1.33672C82.7962 2.20376 77.9298 3.0708 73.0641 4.04274C72.1987 4.15259 71.7718 5.20398 71.9925 5.93697C72.2138 6.77486 73.0816 7.08456 73.9469 6.97471Z" fill="#1B5650"/>
<path d="M101.673 9.54279C103.521 10.8958 105.262 12.3544 107.11 13.7074C107.436 14.0202 107.762 14.1232 108.303 14.1201C108.736 14.1176 109.168 13.9054 109.491 13.6937C110.03 13.1662 110.239 12.0112 109.479 11.491C107.631 10.138 105.89 8.67947 104.042 7.32644C103.716 7.01363 103.39 6.9106 102.849 6.9137C102.416 6.91619 101.984 7.12845 101.661 7.34009C101.123 7.97254 100.913 9.02268 101.673 9.54279Z" fill="#1B5650"/>
<path d="M115.738 26.9792C117.374 29.0677 118.902 31.2617 120.537 33.3502C120.756 33.6636 121.082 33.9765 121.516 34.0789C121.949 34.1813 122.382 34.1788 122.814 33.8616C123.461 33.4383 123.888 32.387 123.342 31.6558C121.706 29.5673 120.178 27.3733 118.543 25.2848C118.324 24.9714 117.998 24.6586 117.564 24.5562C117.131 24.4537 116.698 24.4562 116.266 24.7734C115.62 25.3016 115.192 26.2481 115.738 26.9792Z" fill="#1B5650"/>
<path d="M123.089 44.0351C124.406 47.1744 125.615 50.3143 126.932 53.4535C127.261 54.1859 128.022 54.8109 128.886 54.4913C129.643 54.2772 130.395 53.3288 129.958 52.597C128.641 49.4578 127.432 46.3179 126.115 43.1786C125.786 42.4462 125.025 41.8212 124.161 42.1409C123.512 42.2495 122.759 43.1978 123.089 44.0351Z" fill="#1B5650"/>
<path d="M139.133 67.1248C141.516 67.4259 143.9 67.7269 146.175 68.0285C146.608 68.1309 147.041 68.1284 147.472 67.8113C147.796 67.5997 148.119 67.2831 148.225 66.8629C148.437 66.1275 147.998 65.081 147.131 64.9811C144.748 64.6801 142.365 64.3791 140.09 64.0774C139.656 63.975 139.223 63.9775 138.792 64.2947C138.469 64.5063 138.146 64.8228 138.04 65.243C137.828 65.9785 138.158 67.0255 139.133 67.1248Z" fill="#1B5650"/>
<path d="M172.356 65.151C174.513 63.8799 176.672 62.7137 178.829 61.4426C179.585 61.0187 179.903 59.968 179.358 59.2368C178.921 58.5051 177.945 58.196 177.082 58.7254C174.924 59.9965 172.766 61.1627 170.608 62.4338C169.853 62.8577 169.534 63.9085 170.079 64.6396C170.624 65.2658 171.6 65.5749 172.356 65.151Z" fill="#1B5650"/>
<path d="M198.727 57.762C199.052 57.865 199.378 57.9681 199.704 58.176C199.921 58.2796 199.486 58.0723 199.704 58.176C199.812 58.1754 199.812 58.2803 199.921 58.2796C200.138 58.3833 200.246 58.3827 200.463 58.4863C201.114 58.7973 201.766 59.1082 202.418 59.5241C202.744 59.732 203.069 59.9399 203.287 60.1484C203.396 60.2527 203.613 60.3563 203.722 60.4606C203.504 60.2521 203.831 60.5649 203.939 60.5643C204.483 60.9807 205.135 61.5015 205.571 62.0234C206.116 62.6497 207.307 62.6428 207.844 62.0104C208.49 61.3773 208.485 60.4333 207.832 59.8077C205.545 57.5131 202.612 55.7468 199.467 54.7158C198.708 54.4055 197.629 55.0411 197.525 55.7759C197.422 56.7205 197.859 57.4523 198.727 57.762Z" fill="#1B5650"/>
<path d="M216.02 72.0336C216.998 72.7622 217.76 73.4921 218.523 74.4318C218.414 74.3275 218.306 74.2233 218.305 74.1184C218.632 74.5361 218.959 74.9538 219.178 75.3721C219.396 75.6855 219.723 75.9983 220.157 76.1007C220.59 76.2031 221.023 76.2007 221.454 75.8835C221.778 75.6719 222.101 75.3553 222.207 74.9352C222.313 74.515 222.31 74.0954 221.983 73.6777C221 72.2148 219.802 70.8581 218.388 69.7124C218.279 69.6081 218.062 69.5044 217.845 69.4008C217.628 69.2971 217.411 69.2984 217.195 69.2996C216.762 69.3021 216.33 69.5144 216.007 69.726C215.684 70.0425 215.469 70.4633 215.58 70.8823C215.583 71.3018 215.693 71.7208 216.02 72.0336Z" fill="#1B5650"/>
<path d="M233.876 89.9732C234.86 91.541 235.952 93.2131 236.935 94.7808C237.372 95.5126 238.456 95.8211 239.211 95.2923C239.966 94.8684 240.286 93.9225 239.74 93.0865C238.757 91.5187 237.664 89.8466 236.681 88.2789C236.244 87.5471 235.16 87.2386 234.405 87.7674C233.758 88.1907 233.439 89.1366 233.876 89.9732Z" fill="#1B5650"/>
<path d="M247.3 108.987C247.857 111.711 249.171 114.326 251.024 116.518C251.242 116.831 251.784 116.933 252.217 116.931C252.65 116.928 253.082 116.716 253.405 116.504C253.728 116.188 253.942 115.767 253.832 115.348C253.829 114.928 253.611 114.615 253.392 114.197C253.61 114.51 253.283 114.092 253.283 114.092C253.174 113.988 253.065 113.884 252.956 113.675C252.738 113.466 252.628 113.152 252.41 112.839C252.082 112.316 251.754 111.793 251.535 111.27C251.426 111.166 251.425 111.061 251.316 110.852C251.427 111.271 251.315 110.747 251.207 110.643C251.097 110.329 250.986 110.015 250.877 109.805C250.657 109.177 250.546 108.653 250.434 108.025C250.212 107.187 249.235 106.668 248.479 106.987C247.507 107.307 247.079 108.149 247.3 108.987Z" fill="#1B5650"/>
<path d="M260.387 125.8C260.507 127.792 261.385 129.885 263.124 131.134C263.451 131.447 263.776 131.55 264.317 131.547C264.75 131.544 265.182 131.332 265.505 131.12C265.828 130.804 266.042 130.383 265.932 129.964C265.929 129.544 265.819 129.125 265.492 128.813C265.166 128.5 264.731 128.188 264.513 127.874C264.621 127.978 264.73 128.083 264.731 128.188C264.404 127.77 264.185 127.352 263.966 126.933C264.075 127.037 264.075 127.142 264.185 127.352C263.966 126.933 263.855 126.409 263.743 125.886C263.744 125.99 263.745 126.2 263.854 126.304C263.853 126.095 263.852 125.99 263.851 125.78C263.849 125.36 263.63 124.942 263.411 124.629C263.085 124.316 262.651 124.109 262.218 124.216C261.136 124.327 260.382 124.961 260.387 125.8Z" fill="#1B5650"/>
<path d="M270.425 139.693C270.971 140.424 271.515 141.05 272.061 141.782C272.17 141.991 272.279 142.095 272.496 142.199C272.605 142.303 272.822 142.407 273.039 142.51C273.256 142.614 273.473 142.613 273.689 142.507C273.905 142.505 274.121 142.399 274.337 142.293C274.661 142.081 274.984 141.765 275.089 141.345C275.089 141.24 275.088 141.03 275.195 140.924C275.193 140.61 275.084 140.401 274.974 140.087C274.428 139.355 273.884 138.729 273.338 137.998C273.229 137.789 273.12 137.685 272.903 137.581C272.794 137.477 272.577 137.373 272.36 137.269C272.143 137.166 271.926 137.167 271.71 137.273C271.494 137.274 271.278 137.38 271.062 137.487C270.738 137.698 270.415 138.015 270.31 138.435C270.31 138.54 270.311 138.75 270.204 138.855C270.206 139.275 270.316 139.484 270.425 139.693Z" fill="#1B5650"/>
<path d="M293.757 149.734C295.3 154.55 297.167 159.155 299.467 163.757C299.796 164.49 300.988 164.693 301.743 164.269C302.607 163.844 302.709 162.899 302.272 162.063C300.19 157.774 298.325 153.379 296.891 148.772C296.231 146.993 293.096 147.745 293.757 149.734Z" fill="#FFE500"/>
<path d="M294.142 160.326C296.842 159.261 299.542 158.092 302.242 157.028C302.674 156.816 302.998 156.709 303.212 156.288C303.427 155.972 303.532 155.447 303.421 155.028C303.2 154.295 302.222 153.566 301.467 153.99C298.767 155.055 296.067 156.224 293.367 157.288C292.935 157.501 292.611 157.607 292.397 158.028C292.182 158.344 292.077 158.869 292.187 159.288C292.408 160.021 293.278 160.646 294.142 160.326Z" fill="#FFE500"/>
</g>
<defs>
<clipPath id="clip0">
<rect width="269.143" height="70.8271" fill="white" transform="translate(46.082 26.3159)"/>
</clipPath>
<clipPath id="clip1">
<rect width="302.015" height="164.471" fill="white" transform="translate(0.522461 1.73096) rotate(-0.328386)"/>
</clipPath>
</defs>
</svg>
