<svg width="370" height="84" viewBox="0 0 370 84" fill="none" xmlns="http://www.w3.org/2000/svg">
<g clip-path="url(#clip0)">
<path d="M43.5989 32.7913C43.4395 32.7776 43.2965 32.5734 42.9778 32.546C42.8184 32.5323 42.659 32.5186 42.6426 32.7091C42.3075 32.8723 41.956 33.226 41.9233 33.607C41.8906 33.9881 42.0173 34.3828 42.479 34.6144C42.6384 34.6281 42.7814 34.8323 42.7814 34.8323C42.9408 34.846 43.1002 34.8597 43.4353 34.6965C43.7704 34.5334 44.1219 34.1797 44.1546 33.7986C44.2037 33.2271 44.0771 32.8323 43.5989 32.7913Z" fill="white"/>
<path d="M16.5501 31.8127C77.2943 34.9179 138.366 34.2125 199.147 35.0177C229.307 35.3045 259.609 35.7955 289.736 36.4633C304.64 36.7835 319.385 37.0901 334.273 37.6008C338.752 37.7935 352.626 35.1464 355.213 40.5506C357.117 44.5527 354.975 54.5411 355.522 59.3863C357.872 56.3253 360.046 53.4412 362.396 50.3802C332.494 48.9639 302.543 48.1192 272.543 47.8461C243.021 47.6141 213.874 50.4852 184.397 51.6005C154.266 52.8516 124.274 48.7406 94.1631 47.8823C79.5941 47.3989 65.0088 47.106 50.5501 47.2079C40.4274 47.2983 12.8093 51.0683 15.0054 31.1043C13.1989 33.4442 11.5681 35.6073 9.76163 37.9473C21.7521 36.6738 33.5667 35.5772 45.5572 34.3037C53.657 33.4638 51.5535 18.6965 43.4536 19.5363C31.4632 20.8098 19.6485 21.9065 7.65811 23.18C4.89957 23.5189 2.83553 26.9883 2.41437 30.023C-1.89596 68.9985 45.2567 62.1077 64.8319 62.2533C98.0362 62.6096 131.171 65.647 164.31 66.7654C196.811 67.829 229.358 62.7548 261.941 62.8659C295.002 63.018 327.998 63.9322 360.945 65.418C365.105 65.5833 368.35 61.4476 367.819 56.4118C366.537 45.1697 370.44 31.4941 360.061 25.2287C353.947 21.6328 345.48 23.0169 338.594 22.8094C331.229 22.5609 323.69 22.4892 316.325 22.2406C282.994 21.4896 249.663 20.7385 216.14 20.3549C150.067 19.4791 83.7076 18.1949 17.4009 21.9054C12.2353 22.2295 10.9554 31.5242 16.5501 31.8127Z" fill="white"/>
<path d="M11.5298 45.3927C23.3566 46.0244 35.964 46.9151 46.6951 52.8269C47.8399 46.9753 49.0009 40.9333 50.305 35.0954C42.6712 34.2479 35.2131 33.2236 27.5956 32.1856C27.0229 38.854 26.4503 45.5224 25.8776 52.1907C29.7518 51.9476 33.6097 51.8951 37.5002 51.4615C47.7047 50.4185 46.006 32.807 36.9868 31.2647C31.76 30.432 26.5332 29.5993 21.3228 28.5761C20.7665 35.0539 20.2266 41.3412 19.6703 47.8191C27.6066 48.8845 35.5919 49.3783 43.6263 49.3005C53.2545 49.3596 54.9028 32.0355 45.1643 31.3912C42.6142 31.1722 39.8884 31.13 37.3383 30.911C36.8311 36.8173 36.3239 42.7236 35.8167 48.6299C52.6007 49.4954 69.5603 50.1841 86.3443 51.0496C95.621 51.4624 97.0281 35.0772 87.8168 33.9023C77.6656 32.4548 67.4653 31.5789 57.2486 30.8935C48.1476 30.3038 46.7078 47.0701 55.8088 47.6597C73.5327 48.7978 91.2893 49.5549 109.095 49.7405C117.91 49.9217 118.994 35.4281 110.486 33.5459C105.435 32.5363 100.241 31.3226 95.1894 30.313C94.7313 35.6477 94.2732 40.9824 93.8151 46.3171C112.054 45.1964 130.162 45.5998 148.172 47.1464C148.63 41.8117 149.088 36.477 149.53 31.3328C140.286 30.539 131.042 29.7452 121.655 28.7471C112.444 27.5722 111.18 44.1616 120.199 45.7038C134.285 48.0651 148.47 49.2832 162.814 50.515C172.855 51.3773 174.234 33.4542 164.401 32.0341C148.545 29.7128 132.575 28.7252 116.489 29.0712C106.031 29.3248 104.383 46.6489 114.82 48.5048C128.731 51.0429 142.74 52.4378 156.974 53.0844C157.547 46.416 158.12 39.7476 158.692 33.0793C146.514 32.8012 134.336 32.5231 122.157 32.245C111.43 31.8996 109.618 51.1289 120.456 52.0596C147.55 54.3863 174.792 54.9983 202.038 53.6914C212.512 53.2474 214.545 35.1885 203.74 33.8768C193.891 32.6472 184.246 32.7786 174.377 33.6584C164.826 34.5657 165.855 52.5035 174.939 53.2836C195.18 55.0218 215.344 55.7937 235.716 56.0077C247.114 56.0268 249.151 36.0491 237.549 34.6689C226.265 33.3161 214.933 32.5349 203.503 32.8968C202.881 40.1368 202.259 47.3767 201.637 54.6167C222.921 53.5654 244.155 53.0858 265.374 52.7966C276.947 52.6389 279.159 32.4843 267.239 31.0768C257.692 30.065 248.24 29.8291 238.738 30.1647C227.132 30.7035 224.805 52.1918 236.857 52.0751C263.669 52.0745 290.339 51.8697 317.152 51.869C328.39 51.8745 330.427 31.8967 318.968 30.7207C313.23 30.228 307.333 29.7216 301.596 29.2289C300.99 36.2783 300.401 43.1372 299.796 50.1867C317.712 50.9575 335.82 51.3609 353.752 51.9412C364.32 52.2729 366.149 32.8531 355.437 32.3171C337.538 31.3558 319.495 30.1902 301.579 29.4194C290.231 28.8287 288.48 49.2149 299.78 50.3772C305.517 50.8699 311.398 51.5668 317.135 52.0595C317.741 45.0101 318.346 37.9607 318.952 30.9113C292.155 30.7214 265.518 30.5452 238.722 30.3553C238.1 37.5952 237.462 45.0257 236.84 52.2656C246.342 51.93 255.794 52.1659 265.181 53.164C265.803 45.924 266.425 38.6841 267.047 31.4441C245.779 32.3048 224.512 33.1656 203.311 33.2642C191.578 33.4082 189.569 54.9238 201.445 54.984C212.843 55.0031 224.225 55.2128 235.524 56.3751C236.129 49.3257 236.751 42.0857 237.357 35.0363C217.078 35.5981 196.723 35.1935 176.432 34.0269C176.673 40.5732 176.754 47.1058 176.995 53.6521C185.413 52.8396 193.734 53.1702 201.989 54.263C202.562 47.5946 203.118 41.1168 203.691 34.4484C176.461 35.5648 149.203 35.1433 122.125 32.6261C121.552 39.2944 120.979 45.9628 120.423 52.4407C132.601 52.7187 144.763 53.1874 156.942 53.4654C167.669 53.8109 169.53 34.0099 158.659 33.4603C144.585 32.8275 130.417 31.4188 116.473 29.2618C115.917 35.7396 115.36 42.2175 114.804 48.6953C130.922 47.9682 146.925 48.5748 162.974 50.5287C163.497 44.4319 164.021 38.3351 164.561 32.0478C150.343 31.2107 136.175 29.8021 121.814 28.7608C121.323 34.4766 120.849 40.0018 120.358 45.7175C129.651 45.9398 138.912 46.5431 148.315 47.3506C156.922 48.0897 158.279 32.2761 149.673 31.537C131.504 29.9767 113.539 29.7775 95.3161 30.7077C86.6114 31.1118 85.4498 44.6391 93.9418 46.7118C98.9765 47.9119 104.171 49.1257 109.222 50.1352C109.68 44.8005 110.138 39.4658 110.612 33.9406C92.823 33.5645 75.0828 32.6169 57.3753 31.2882C56.9008 36.8134 56.41 42.5292 55.9355 48.0544C66.1522 48.7398 76.3361 49.8063 86.4709 51.4443C86.9618 45.7286 87.4526 40.0128 87.9434 34.2971C71.1759 33.241 54.2325 32.3618 37.465 31.3058C27.8858 30.6751 26.3642 48.3939 35.9434 49.0246C38.4935 49.2436 41.2029 49.4763 43.753 49.6952C44.2602 43.789 44.7837 37.6922 45.2909 31.7859C37.2729 31.6731 29.3366 30.6078 21.4494 28.9708C11.2043 26.7475 9.88694 45.8274 19.797 48.2138C24.991 49.4276 30.1688 50.8319 35.3628 52.0456C35.9518 45.1867 36.5245 38.5184 37.1135 31.6595C33.2393 31.9026 29.3487 32.3362 25.6176 32.7835C16.2099 33.8949 16.7276 52.1727 26.1637 52.5992C33.8466 52.8751 41.3702 53.1373 49.0368 53.6037C60.0667 54.1671 59.9048 33.6166 48.5028 35.5165C36.2875 37.5384 23.9826 36.8655 11.5916 39.0643C8.03616 39.3347 8.32586 45.3095 11.5298 45.3927Z" fill="white"/>
<path d="M125.218 43.9189C125.384 46.3506 127.435 47.9326 130.511 47.9326C133.665 47.9326 135.716 46.3018 135.716 43.6943C135.716 41.7021 134.554 40.5303 131.614 39.8857L130.052 39.5439C128.128 39.124 127.376 38.3623 127.376 37.249C127.376 35.8135 128.733 34.9541 130.491 34.9541C132.327 34.9541 133.548 35.9014 133.704 37.4443L135.462 37.4443C135.384 35.0518 133.353 33.3721 130.54 33.3721C127.62 33.3721 125.569 35.0029 125.569 37.3271C125.569 39.3291 126.79 40.6084 129.612 41.2236L131.175 41.5654C133.128 41.9951 133.909 42.7764 133.909 43.958C133.909 45.3447 132.522 46.3506 130.608 46.3506C128.587 46.3506 127.181 45.4326 126.976 43.9189L125.218 43.9189ZM138.06 35.0908L138.06 37.542L136.546 37.542L136.546 38.9385L138.06 38.9385L138.06 45.0615C138.06 47.0146 138.782 47.7764 140.647 47.7764C141.048 47.7764 141.517 47.7471 141.722 47.6982L141.722 46.2725C141.604 46.292 141.214 46.3213 141.019 46.3213C140.149 46.3213 139.759 45.9014 139.759 44.9736L139.759 38.9385L141.731 38.9385L141.731 37.542L139.759 37.542L139.759 35.0908L138.06 35.0908ZM146.321 47.874C147.688 47.874 148.978 47.1123 149.583 45.9502L149.622 45.9502L149.622 47.6982L151.233 47.6982L151.233 40.6768C151.233 38.6553 149.729 37.3662 147.347 37.3662C144.944 37.3662 143.44 38.7139 143.323 40.4717L144.964 40.4717C145.179 39.4756 145.999 38.8604 147.308 38.8604C148.714 38.8604 149.534 39.6025 149.534 40.8428L149.534 41.6924L146.624 41.8584C144.28 41.9951 142.942 43.0889 142.942 44.8271C142.942 46.6533 144.3 47.874 146.321 47.874ZM146.702 46.4287C145.481 46.4287 144.671 45.7939 144.671 44.8271C144.671 43.8701 145.452 43.2646 146.819 43.1768L149.534 43.0107L149.534 43.8408C149.534 45.3057 148.304 46.4287 146.702 46.4287ZM153.392 47.6982L155.091 47.6982L155.091 41.3701C155.091 39.9346 155.95 38.9873 157.269 38.9873C157.679 38.9873 158.04 39.0361 158.177 39.085L158.177 37.4346C158.04 37.415 157.786 37.3662 157.493 37.3662C156.302 37.3662 155.364 38.0791 155.032 39.2021L154.993 39.2021L154.993 37.542L153.392 37.542L153.392 47.6982ZM160.501 35.0908L160.501 37.542L158.987 37.542L158.987 38.9385L160.501 38.9385L160.501 45.0615C160.501 47.0146 161.224 47.7764 163.089 47.7764C163.489 47.7764 163.958 47.7471 164.163 47.6982L164.163 46.2725C164.046 46.292 163.655 46.3213 163.46 46.3213C162.591 46.3213 162.2 45.9014 162.2 44.9736L162.2 38.9385L164.173 38.9385L164.173 37.542L162.2 37.542L162.2 35.0908L160.501 35.0908ZM176.829 44.7881C176.546 45.7451 175.599 46.3994 174.31 46.3994C172.483 46.3994 171.341 45.1201 171.341 43.1768L171.341 43.0791L178.626 43.0791L178.626 42.4346C178.626 39.3584 176.937 37.3662 174.192 37.3662C171.39 37.3662 169.593 39.5049 169.593 42.6592C169.593 45.8525 171.36 47.874 174.27 47.874C176.487 47.874 178.206 46.5654 178.499 44.7881L176.829 44.7881ZM174.163 38.8408C175.765 38.8408 176.829 40.0518 176.868 41.751L171.351 41.751C171.458 40.0615 172.571 38.8408 174.163 38.8408ZM183.743 43.8311L186.175 47.6982L188.06 47.6982L184.681 42.5518L188.108 37.542L186.214 37.542L183.802 41.3506L183.763 41.3506L181.321 37.542L179.427 37.542L182.825 42.6201L179.368 47.6982L181.253 47.6982L183.704 43.8311L183.743 43.8311ZM194.476 37.3662C193.001 37.3662 191.819 38.1182 191.194 39.2607L191.155 39.2607L191.155 37.542L189.544 37.542L189.544 51.0869L191.243 51.0869L191.243 46.0479L191.282 46.0479C191.888 47.1611 193.06 47.874 194.515 47.874C197.073 47.874 198.821 45.8037 198.821 42.6201C198.821 39.4365 197.063 37.3662 194.476 37.3662ZM194.144 46.3799C192.405 46.3799 191.233 44.8857 191.233 42.6201C191.233 40.3643 192.405 38.8604 194.144 38.8604C195.95 38.8604 197.083 40.3252 197.083 42.6201C197.083 44.9248 195.95 46.3799 194.144 46.3799ZM200.628 47.6982L202.327 47.6982L202.327 33.6064L200.628 33.6064L200.628 47.6982ZM208.831 47.874C211.634 47.874 213.528 45.8525 213.528 42.6201C213.528 39.3779 211.634 37.3662 208.831 37.3662C206.019 37.3662 204.124 39.3779 204.124 42.6201C204.124 45.8525 206.019 47.874 208.831 47.874ZM208.831 46.3799C207.034 46.3799 205.853 45.0127 205.853 42.6201C205.853 40.2275 207.034 38.8603 208.831 38.8603C210.628 38.8603 211.8 40.2275 211.8 42.6201C211.8 45.0127 210.628 46.3799 208.831 46.3799ZM215.247 47.6982L216.946 47.6982L216.946 41.3701C216.946 39.9346 217.806 38.9873 219.124 38.9873C219.534 38.9873 219.895 39.0361 220.032 39.085L220.032 37.4346C219.895 37.415 219.642 37.3662 219.349 37.3662C218.157 37.3662 217.22 38.0791 216.888 39.2021L216.849 39.2021L216.849 37.542L215.247 37.542L215.247 47.6982ZM222.356 35.7353C222.952 35.7353 223.421 35.2568 223.421 34.6709C223.421 34.0752 222.952 33.6064 222.356 33.6064C221.77 33.6064 221.292 34.0752 221.292 34.6709C221.292 35.2568 221.77 35.7353 222.356 35.7353ZM221.507 47.6982L223.206 47.6982L223.206 37.542L221.507 37.542L221.507 47.6982ZM225.501 47.6982L227.2 47.6982L227.2 41.7217C227.2 40.0029 228.245 38.8701 229.847 38.8701C231.409 38.8701 232.181 39.7686 232.181 41.4092L232.181 47.6982L233.88 47.6982L233.88 41.1064C233.88 38.8018 232.591 37.3662 230.364 37.3662C228.792 37.3662 227.708 38.0693 227.142 39.1631L227.103 39.1631L227.103 37.542L225.501 37.542L225.501 47.6982ZM240.237 51.5264C243.04 51.5264 244.827 49.915 244.827 47.4932L244.827 37.542L243.206 37.542L243.206 39.251L243.177 39.251C242.503 38.0693 241.311 37.3662 239.876 37.3662C237.249 37.3662 235.55 39.3975 235.55 42.5811C235.55 45.7353 237.249 47.7764 239.837 47.7764C241.263 47.7764 242.464 47.0537 243.089 45.9502L243.128 45.9502L243.128 47.5518C243.128 49.0654 242.063 50.0811 240.306 50.0811C239.036 50.0811 238.03 49.4658 237.698 48.5381L235.95 48.5381C236.233 50.2666 238.001 51.5264 240.237 51.5264ZM240.179 46.2822C238.431 46.2822 237.288 44.8564 237.288 42.5811C237.288 40.3057 238.431 38.8603 240.179 38.8603C241.946 38.8603 243.128 40.3447 243.128 42.5811C243.128 44.8174 241.946 46.2822 240.179 46.2822Z" fill="#679289"/>
</g>
<defs>
<clipPath id="clip0">
<rect width="366.642" height="66.3555" fill="white" transform="translate(3.71289 0.581055) rotate(2.52367)"/>
</clipPath>
</defs>
</svg>
