<svg width="414" height="451" viewBox="0 0 414 451" fill="none" xmlns="http://www.w3.org/2000/svg">
<path fill-rule="evenodd" clip-rule="evenodd" d="M-26 117.428V451H468V105H453.054C453.111 103.3 453.363 101.487 454.068 99.6244C456.31 93.6204 458.024 93.0317 464.353 95.7394C470.419 98.4471 479.913 107.394 484.265 112.103C490.33 118.578 498.11 120.226 508 117.872C506.526 116.392 504.166 114.299 501.745 112.152C498.967 109.688 496.109 107.154 494.418 105.393C487.43 98.2876 479.513 91.9475 471.614 85.6217C468.782 83.3531 465.951 81.0864 463.167 78.7869C457.76 74.3133 450.903 74.6665 445.365 79.1401C443.396 80.7127 441.021 81.9218 438.686 83.1103C438.049 83.4343 437.416 83.7567 436.794 84.0845C436.003 84.5554 435.212 84.6732 434.157 84.32C423.212 80.9059 412.531 77.2564 402.246 72.5474C398.95 71.017 395.389 70.3106 391.829 69.6042C383.785 67.9561 376.005 65.6015 368.357 62.5407C365.228 61.2653 369.153 44.2618 372.835 28.3074C376.291 13.3353 379.533 -0.712854 376.533 0.028061C372.569 1.00421 370.058 8.05073 367.567 15.0398C365.251 21.5372 362.953 27.985 359.523 29.4596C356.863 30.5388 353.207 35.3773 349.416 40.3929C344.937 46.3201 340.271 52.4947 336.842 53.0048C334.289 53.3745 329.099 58.7745 324.07 64.007C319.49 68.7724 315.043 73.399 312.843 73.9601C303.613 76.3146 279.746 78.316 275.394 72.1942C269.592 64.0711 262.34 59.0089 251.923 56.7721C244.802 55.2416 238.209 52.2985 233.198 47.1185C231.352 45.2349 229.11 43.469 226.341 42.6449C217.902 39.9372 212.1 34.7573 208.012 27.6937C205.865 24.0513 201.795 22.282 197.794 20.5429C196.881 20.146 195.972 19.7508 195.09 19.3351C194.167 18.8642 193.244 19.2174 192.584 20.0415C189.649 23.7295 185.459 25.7373 181.197 27.7799C180.289 28.215 179.378 28.6516 178.475 29.1064C171.284 32.8 164.609 37.2162 157.953 41.619C155.699 43.1101 153.448 44.5996 151.179 46.059C143.004 51.3567 134.169 54.5353 124.543 56.5366C115.577 58.4202 106.742 61.0102 98.6981 65.2484C95.8734 66.7033 92.8696 67.1193 89.7606 67.55C89.0961 67.642 88.4268 67.7347 87.7535 67.8383C87.226 67.9561 86.5667 67.8383 86.1711 67.6029C77.0726 62.1875 68.1059 64.3065 59.1393 68.0738C58.3017 68.4235 57.4655 68.7746 56.6299 69.1253C49.3101 72.1979 42.042 75.2488 34.349 77.2564C33.9388 77.3611 33.5286 77.4774 33.1184 77.5936C31.6825 78.0006 30.2467 78.4075 28.8108 78.316C20.3648 78.0018 12.2319 79.2714 4.0407 80.5502C3.02419 80.7089 2.00679 80.8677 0.987786 81.0237C0.286171 81.12 -0.951118 81.4136 -2.61559 81.8085C-9.08453 83.3435 -22.0059 86.4095 -35.0107 85.3795C-47.0608 84.4416 -59.8638 82.0559 -70.4884 80.0761C-82.5352 77.8312 -91.7813 76.1083 -93.9534 77.6096C-95.5202 78.6588 -57.2909 100.153 -26 117.428Z" fill="#679289"/>
</svg>
