<svg width="414" height="186" viewBox="0 0 414 186" fill="none" xmlns="http://www.w3.org/2000/svg">
<path d="M448.905 144.517C456.19 143.21 456.715 138.249 460.814 127.547C463.157 121.326 462.278 119.597 463.742 113.002C463.742 105.729 468.949 106.537 475.615 106.537C486.594 106.537 479.259 98.4592 482.919 89.251C485.408 82.9048 487.311 82.2826 494.338 85.1446C501.072 88.0066 511.612 97.4637 516.443 102.441C523.176 109.285 531.813 111.027 542.793 108.538C539.279 105.179 531.228 98.8325 527.715 95.3483C517.175 85.1446 504.731 76.4342 493.02 67.226C487.018 62.4974 479.406 62.8708 473.257 67.5993C470.476 69.7147 466.963 71.2079 463.742 72.8255C462.864 73.3233 461.985 73.4477 460.814 73.0744C448.664 69.4658 436.806 65.6083 425.388 60.6309C421.728 59.0133 417.776 58.2667 413.823 57.52C404.893 55.778 396.256 53.2892 387.766 50.0539C381.032 47.4408 403.722 -17.6388 396.842 -16.0211C388.351 -14.0302 385.863 11.8523 377.958 15.0877C371.516 17.5764 359.805 38.9792 352.779 39.9747C347.362 40.7213 331.259 60.8798 326.136 62.1241C315.888 64.6128 289.392 66.7282 284.561 60.2576C278.12 51.6716 270.068 46.3209 258.503 43.9566C250.598 42.339 243.279 39.2281 237.716 33.7529C235.667 31.762 233.178 29.8954 230.104 29.0244C220.735 26.1624 214.294 20.6872 209.756 13.2211C206.828 8.4926 200.679 6.7505 195.409 4.38623C194.385 3.88849 193.36 4.2618 192.628 5.13285C188.675 9.86138 182.673 11.9768 176.964 14.7144C166.278 19.9406 156.616 26.5357 146.661 32.633C137.585 38.2326 127.777 41.5923 117.091 43.7077C107.136 45.6987 97.328 48.4363 88.3982 52.9159C84.5921 54.7825 80.4932 55.0313 76.2479 55.6535C75.6623 55.778 74.9303 55.6535 74.4912 55.4046C64.3903 49.6806 54.4357 51.9204 44.4812 55.9024C35.4051 59.511 26.4753 63.2441 16.9599 65.6083C14.9104 66.1061 12.861 66.8527 10.8115 66.7282C0.271455 66.3549 -9.82946 68.097 -20.0768 69.5902C-23.8829 70.088 -41.8889 75.5631 -60.0412 74.1943C-88.5873 72.0789 -120.939 62.9952 -125.478 65.9816C-128.405 67.8481 -6.1697 130.937 -6.1697 130.937C-1.92439 130.937 2.32092 131.061 6.41984 131.186C10.5188 131.31 14.6177 131.31 18.4238 129.692C32.77 123.222 31.3061 136.287 47.1163 134.545C51.3616 134.048 73.9056 138.154 85.324 138.901C108.893 140.518 147.979 107.543 154.859 107.543C158.665 107.543 176.818 119.862 184.576 127.95C191.31 134.794 199.508 138.527 210.048 138.527C214.44 138.527 218.832 138.901 223.223 138.527C235.959 137.532 244.743 142.883 251.33 151.095C260.992 163.041 273.231 156.929 283.039 168.75C288.309 175.096 294.75 179.576 304.412 180.073C310.853 180.447 325.444 184.207 331.11 185.823C332.72 186.943 358.344 182.405 360.247 181.783C370.134 178.55 379.672 180.073 387.766 180.073C390.694 180.073 399.407 170.345 402.334 170.469C403.953 165.621 414.912 159.063 420.577 155.023C424.624 150.174 435.146 150.061 436.765 148.558C440.002 146.828 448.106 144.661 448.905 144.517Z" fill="#679289"/>
<rect width="414" height="100" fill="#679289"/>
</svg>
