<svg width="414" height="336" viewBox="0 0 414 336" fill="none" xmlns="http://www.w3.org/2000/svg">
<path fill-rule="evenodd" clip-rule="evenodd" d="M-51.5569 121.647V346H460.192V108.805H444.707C444.765 107.034 445.025 105.145 445.759 103.204C448.081 96.984 449.857 96.3742 456.414 99.1792C462.698 101.984 472.533 111.253 477.041 116.131C483.324 122.839 491.384 124.546 501.629 122.107C500.102 120.573 497.657 118.405 495.149 116.181C492.271 113.629 489.311 111.004 487.559 109.18C480.32 101.819 472.118 95.2509 463.936 88.6978C461.001 86.3478 458.069 83.9996 455.185 81.6175C449.584 76.9832 442.481 77.3491 436.744 81.9834C434.704 83.6126 432.243 84.8652 429.824 86.0963C429.165 86.4319 428.508 86.7659 427.865 87.1055C427.045 87.5934 426.225 87.7153 425.133 87.3495C413.795 83.8127 402.73 80.0321 392.075 75.1539C388.66 73.5685 384.972 72.8367 381.284 72.105C372.951 70.3976 364.892 67.9585 356.969 64.7876C353.727 63.4664 357.793 45.8521 361.608 29.3245C365.187 13.8145 368.546 -0.738466 365.438 0.0290692C361.332 1.04028 358.731 8.33996 356.15 15.5801C353.751 22.311 351.371 28.9904 347.817 30.518C345.062 31.636 341.274 36.6483 337.347 41.8441C332.707 47.9843 327.873 54.3807 324.322 54.9092C321.676 55.2922 316.3 60.8861 311.09 66.3066C306.345 71.2433 301.739 76.036 299.46 76.6173C289.898 79.0564 265.174 81.1297 260.666 74.788C254.655 66.373 247.142 61.129 236.351 58.8118C228.975 57.2264 222.144 54.1775 216.954 48.8114C215.041 46.8601 212.719 45.0308 209.85 44.1771C201.108 41.3721 195.098 36.006 190.863 28.6887C188.639 24.9154 184.422 23.0825 180.278 21.281C179.332 20.8698 178.39 20.4604 177.476 20.0298C176.52 19.542 175.564 19.9079 174.881 20.7616C171.84 24.5821 167.5 26.662 163.084 28.778C162.144 29.2287 161.2 29.681 160.265 30.1522C152.815 33.9784 145.9 38.5533 139.006 43.1142C136.671 44.6589 134.338 46.202 131.988 47.7138C123.519 53.2018 114.367 56.4946 104.395 58.5679C95.1062 60.5192 85.954 63.2022 77.6213 67.5926C74.6951 69.0998 71.5835 69.5308 68.3627 69.9769C67.6744 70.0722 66.9811 70.1683 66.2835 70.2757C65.7371 70.3976 65.0541 70.2756 64.6443 70.0317C55.2189 64.4218 45.9301 66.6169 36.6413 70.5195C35.7735 70.8819 34.9073 71.2455 34.0417 71.6089C26.4589 74.7919 18.9297 77.9524 10.9604 80.0321C10.5354 80.1405 10.1104 80.261 9.68547 80.3814C8.19804 80.803 6.71062 81.2246 5.22318 81.1297C-3.52626 80.8042 -11.9514 82.1195 -20.4369 83.4442C-21.4899 83.6086 -22.5439 83.7731 -23.5995 83.9347C-24.3263 84.0345 -25.6081 84.3386 -27.3324 84.7478C-34.0337 86.3379 -47.4193 89.514 -60.8914 88.4471C-73.3744 87.4755 -86.6374 85.004 -97.6437 82.953C-110.123 80.6275 -119.702 78.8427 -121.952 80.398C-123.575 81.4848 -83.972 103.751 -51.5569 121.647Z" fill="#679289"/>
</svg>
