<?xml version="1.0" encoding="utf-8"?>
<!-- Generator: Adobe Illustrator 24.2.0, SVG Export Plug-In . SVG Version: 6.00 Build 0)  -->
<svg version="1.1" id="Layer_1" xmlns="http://www.w3.org/2000/svg" xmlns:xlink="http://www.w3.org/1999/xlink" x="0px" y="0px"
	 viewBox="0 0 414 186" style="enable-background:new 0 0 414 186;" xml:space="preserve">
<style type="text/css">
	.st0{fill:#154945;}
</style>
<path class="st0" d="M448.9,144.5c7.3-1.3,7.8-6.3,11.9-17c2.3-6.2,1.5-7.9,2.9-14.5c0-7.3,5.2-6.5,11.9-6.5c11,0,3.6-8.1,7.3-17.3
	c2.5-6.3,4.4-7,11.4-4.1c6.7,2.9,17.3,12.3,22.1,17.3c6.7,6.8,15.4,8.6,26.4,6.1c-3.5-3.4-11.6-9.7-15.1-13.2
	c-10.5-10.2-23-18.9-34.7-28.1c-6-4.7-13.6-4.4-19.8,0.4c-2.8,2.1-6.3,3.6-9.5,5.2c-0.9,0.5-1.8,0.6-2.9,0.2
	c-12.1-3.6-24-7.5-35.4-12.4c-3.7-1.6-7.6-2.4-11.6-3.1c-8.9-1.7-17.6-4.2-26.1-7.5c-6.7-2.6,16-67.7,9.1-66.1
	c-8.5,2-11,27.9-18.9,31.1c-6.4,2.5-18.2,23.9-25.2,24.9c-5.4,0.7-21.5,20.9-26.6,22.1c-10.2,2.5-36.7,4.6-41.6-1.9
	c-6.4-8.6-14.5-13.9-26.1-16.3c-7.9-1.6-15.2-4.7-20.8-10.2c-2-2-4.5-3.9-7.6-4.7c-9.4-2.9-15.8-8.3-20.3-15.8
	c-2.9-4.7-9.1-6.5-14.3-8.8c-1-0.5-2-0.1-2.8,0.7c-4,4.7-10,6.8-15.7,9.6c-10.7,5.2-20.3,11.8-30.3,17.9c-9.1,5.6-18.9,9-29.6,11.1
	c-10,2-19.8,4.7-28.7,9.2c-3.8,1.9-7.9,2.1-12.2,2.7c-0.6,0.1-1.3,0-1.8-0.2c-10.1-5.7-20.1-3.5-30,0.5c-9.1,3.6-18,7.3-27.5,9.7
	c-2,0.5-4.1,1.2-6.1,1.1c-10.5-0.4-20.6,1.4-30.9,2.9c-3.8,0.5-21.8,6-40,4.6c-28.5-2.1-60.9-11.2-65.4-8.2
	c-2.9,1.9,119.3,65,119.3,65c4.2,0,8.5,0.1,12.6,0.2c4.1,0.1,8.2,0.1,12-1.5c14.3-6.5,12.9,6.6,28.7,4.9c4.2-0.5,26.8,3.6,38.2,4.4
	c23.6,1.6,62.7-31.4,69.5-31.4c3.8,0,22,12.3,29.7,20.4c6.7,6.8,14.9,10.6,25.5,10.6c4.4,0,8.8,0.4,13.2,0
	c12.7-1,21.5,4.4,28.1,12.6c9.7,11.9,21.9,5.8,31.7,17.7c5.3,6.3,11.7,10.8,21.4,11.3c6.4,0.4,21,4.1,26.7,5.8
	c1.6,1.1,27.2-3.4,29.1-4c9.9-3.2,19.4-1.7,27.5-1.7c2.9,0,11.6-9.7,14.6-9.6c1.6-4.8,12.6-11.4,18.2-15.4c4-4.8,14.6-5,16.2-6.5
	C440,146.8,448.1,144.7,448.9,144.5z"/>
<rect class="st0" width="414" height="100"/>
</svg>
