<svg width="338" height="73" viewBox="0 0 338 73" fill="none" xmlns="http://www.w3.org/2000/svg">
<g clip-path="url(#clip0)">
<path d="M5.95541 3.41704C8.68794 11.1632 11.7712 19.0449 16.5786 25.6978C17.3544 26.9245 19.4459 25.4749 18.67 24.2482C14.2301 17.3744 9.89238 10.8625 7.04107 3.11073C6.8313 2.50573 5.74564 2.81204 5.95541 3.41704Z" fill="black"/>
<path d="M30.5288 2.30515C23.9078 11.5183 18.226 21.0135 13.3422 31.2602C9.64965 38.9439 6.90385 49.2907 0.855942 53.8882C0.239829 54.3355 0.314148 55.2913 0.772583 55.6699C0.885802 55.7942 0.999022 55.9185 1.11224 56.0429C1.44634 56.5346 2.15345 56.6868 2.63411 56.5902C9.36341 55.2385 12.1051 39.892 14.2445 34.8736C18.9351 23.6655 24.7914 12.9881 31.338 2.81916C31.7166 2.36072 30.9129 1.72794 30.5288 2.30515Z" fill="black"/>
<path d="M26.7697 31.7689C22.3437 34.7758 16.7584 44.7517 23.4974 48.2809C31.7471 52.5951 39.742 49.6362 43.2248 41.3475C44.6925 37.9641 45.9671 33.6194 44.1035 30.1992C42.4608 27.1464 38.6134 25.4189 35.2932 25.1445C26.5259 24.2582 19.1513 31.7696 20.4085 40.5181C20.5849 41.8357 22.6208 41.5739 22.6819 40.2673C23.305 34.5827 26.7565 29.5066 32.7454 28.7155C35.0188 28.4647 37.9882 28.6036 39.9352 30.2422C42.6858 32.5136 41.7953 36.2811 40.8249 39.2116C38.8953 44.8351 34.9166 48.4581 28.6715 47.0946C24.4288 46.1819 21.8081 43.6785 22.8507 39.2039C23.5724 36.4998 25.1089 34.191 27.1038 32.2607C27.59 32.0454 27.1427 31.4292 26.7697 31.7689Z" fill="black"/>
<path d="M48.6703 26.723C46.8427 32.7083 45.0617 40.2434 45.4854 46.4531C45.7938 50.0386 48.6389 50.2908 51.8348 50.6784C55.9808 51.1104 60.188 50.2359 62.8491 46.7893C64.1146 45.182 64.803 43.1906 65.2538 41.1881C65.558 39.7739 66.0846 33.6086 67.3001 33.0703C66.593 32.9182 65.9991 32.8904 65.292 32.7383C65.1899 32.3764 65.0823 32.1333 65.0989 31.7769C65.5907 31.4428 66.2013 31.1143 66.6986 30.6614C66.5798 30.6559 66.5798 30.6559 66.4611 30.6503C64.5717 30.3238 64.4439 33.0557 65.9658 33.603C66.0846 33.6086 66.0846 33.6086 66.1978 33.7329C66.7806 33.9983 67.6287 33.6808 68.0128 33.1036C68.5268 32.2944 68.5546 31.7005 68.1184 30.8469C67.7898 30.2363 66.9806 29.7223 66.2513 30.0453C63.9501 30.8899 63.6069 33.1356 63.1395 35.4944C62.2434 39.3807 62.1121 44.7312 58.0813 46.9234C56.0065 48.0167 53.5122 47.9 51.261 47.6756C47.5901 47.2658 48.2562 45.7495 48.4007 42.6613C48.5264 37.4295 49.2405 32.3444 49.9601 27.1404C50.1234 26.1958 48.9411 26.0214 48.6703 26.723Z" fill="black"/>
<path d="M74.4239 23.2853C73.2847 27.2792 72.5019 31.2899 71.719 35.3005C70.9584 38.836 69.7227 42.3493 69.6748 45.9182C69.6248 46.9871 71.1633 47.1782 71.4453 46.2391C72.5567 42.839 72.7345 39.0381 73.3763 35.4971C74.0404 31.4809 74.8288 27.3515 75.2553 23.3242C75.1476 23.0811 74.5593 22.9345 74.4239 23.2853Z" fill="black"/>
<path d="M78.1254 25.6017C79.2222 25.0579 80.3301 24.2764 81.4213 23.8513C84.4463 22.8025 86.1092 22.8803 85.807 26.7944C85.6736 29.645 84.8999 30.9182 82.1124 31.9782C80.6593 32.5054 79.1096 32.5519 77.5711 32.3609C76.7397 32.322 76.35 33.018 76.4354 33.7362C77.0223 39.0013 79.6618 43.6482 84.042 46.71C85.4284 47.6081 86.7162 45.5257 85.4485 44.6331C81.6567 41.7179 79.4479 38.0434 78.7144 33.3667C78.3359 33.8251 77.9573 34.2835 77.5787 34.742C82.5618 35.0942 88.5264 32.2783 87.9672 26.4193C87.356 19.1295 81.5734 23.1442 78.0233 25.2398C77.5482 25.2176 77.7635 25.7038 78.1254 25.6017Z" fill="black"/>
<path d="M115.841 48.9113C117.991 43.6552 120.142 38.3992 122.519 33.3918C123.179 31.9943 124.128 29.5389 125.139 28.2768C125.849 25.8103 126.551 26.0812 127.136 28.8464C127.426 30.2884 127.596 31.7248 127.648 33.1557C127.964 39.1223 126.891 46.8095 131.069 51.6474C131.635 52.269 132.969 51.7363 132.657 50.7694C130.797 44.7305 130.329 39.471 129.905 33.2613C129.779 30.8746 129.916 25.4053 127.109 24.3217C124.298 23.3569 123.396 27.362 122.481 29.1047C119.449 35.3909 116.644 41.9257 114.783 48.6237C114.636 49.212 115.576 49.494 115.841 48.9113Z" fill="black"/>
<path d="M113.28 37.4828C118.489 38.0837 123.829 38.4525 129.049 38.8158C130.475 38.8825 130.58 36.6257 129.155 36.559C123.918 36.5521 118.573 36.302 113.33 36.4138C112.612 36.4992 112.573 37.3307 113.28 37.4828Z" fill="black"/>
<path d="M136.446 43.5667C136.803 43.5834 136.825 43.1083 136.468 43.0916C136.112 43.0749 136.09 43.55 136.446 43.5667Z" fill="black"/>
<path d="M138.181 42.1005C142.668 37.787 144.355 32.2712 145.47 26.2525C145.807 24.1256 147.472 19.0849 144.428 17.9902C136.592 15.0048 137.482 44.3294 137.79 47.915C137.853 49.1083 140.002 48.9708 139.939 47.7775C139.868 44.203 139.673 40.7418 139.84 37.1785C140.012 33.4965 139.793 28.0105 141.374 24.7514C141.095 23.0719 141.604 22.3814 143.018 22.6857C144.471 22.1585 144.924 22.6558 144.133 24.2854C144.531 25.9705 143.458 28.5391 143.143 30.1909C142.23 34.4335 140.621 38.2864 137.615 41.4788C137.123 41.8129 137.689 42.4346 138.181 42.1005Z" fill="black"/>
<path d="M145.749 43.1689C153.035 37.558 156.987 29.4103 157.064 20.1291C157.092 19.5352 156.396 19.1455 155.91 19.3608C151.783 21.0723 151.596 27.6106 150.824 31.3837C149.54 38.4658 149.088 45.5869 149.705 52.7579C149.763 54.07 151.782 54.1645 151.724 52.8524C151.483 47.8416 151.473 42.9606 151.944 37.9831C152.376 33.837 152.412 22.8873 156.675 20.8251C156.33 20.5708 155.866 20.311 155.52 20.0568C155.584 28.8685 151.999 36.7953 145.296 42.6716C144.929 42.8925 145.382 43.3898 145.749 43.1689Z" fill="black"/>
<path d="M177.433 22.3916C175.995 27.681 174.795 32.9815 173.714 38.2876C173.088 41.4723 171.706 45.5739 172.263 48.933C173.366 55.8888 181.504 54.9601 186.523 57.0995C188.039 57.7656 189.349 55.2081 187.838 54.4232C186.446 53.6439 185.275 53.2319 183.748 52.8034C182.334 52.4991 180.303 52.6422 179.143 51.9928C176.478 50.4396 175.192 47.4035 175.444 44.5584C176.145 37.2109 177.315 30.0045 178.842 22.8146C178.643 21.9721 177.591 21.5657 177.433 22.3916Z" fill="black"/>
<path d="M176.001 35.1803C179.796 35.4769 183.71 35.779 187.511 35.9569C189.055 36.0291 189.167 33.6536 187.622 33.5813C186.197 33.5147 184.891 33.4535 183.465 33.3868C182.04 33.3202 181.934 35.5769 183.36 35.6436C184.785 35.7103 186.092 35.7714 187.517 35.8381C189.061 35.9104 189.172 33.5348 187.628 33.4626C183.827 33.2847 179.902 33.2201 176.096 33.1611C174.897 33.343 174.813 35.1247 176.001 35.1803Z" fill="black"/>
<path d="M194.139 34.2434C193.531 37.0718 193.397 39.9225 193.145 42.7676C192.893 45.6127 192.149 48.7919 192.853 51.5626C193.046 52.5239 194.471 52.5906 194.753 51.6515C195.593 48.953 195.268 45.7238 195.283 42.8676C195.298 40.0114 195.437 37.042 195.089 34.2879C194.868 33.9204 194.274 33.8927 194.139 34.2434Z" fill="black"/>
<path d="M194.856 26.5389C196.163 26.6001 196.252 24.6996 194.945 24.6385C193.763 24.4642 193.669 26.4834 194.856 26.5389Z" fill="black"/>
<path d="M202.756 51.0739C202.909 45.2483 204.121 39.7102 206.395 34.341C205.445 34.2965 204.614 34.2576 203.664 34.2131C205.013 38.4426 205.531 42.6331 205.207 47.0223C205.14 48.4476 207.245 49.2603 207.905 47.8628C210.271 43.093 212.977 38.6961 216.265 34.5647C215.445 34.2882 214.624 34.0118 213.804 33.7353C213.136 40.3701 213.77 47.1849 216.461 53.2626C217.215 54.9644 219.657 53.6502 219.022 51.954C216.682 46.0117 215.642 40.2493 216.417 33.8576C216.608 32.319 214.713 32.1113 213.956 33.0282C210.549 37.1541 207.73 41.4266 205.365 46.1964C206.304 46.4784 207.124 46.7549 208.063 47.0369C208.399 42.4102 207.897 37.8633 206.315 33.504C205.896 32.294 204.125 31.9731 203.584 33.3761C201.53 39.1129 200.669 44.7864 200.979 50.8718C201.161 52.0706 202.706 52.1429 202.756 51.0739Z" fill="black"/>
<path d="M228.39 40.0119C231.699 40.5238 234.711 37.2126 233.911 33.9612C233.014 30.2291 228.274 29.7693 225.453 31.5419C221.406 34.0904 221.846 39.9438 224.061 43.4994C226.377 47.417 231.448 50.9873 236.124 50.2538C237.323 50.0718 237.288 48.2846 236.236 47.8783C231.675 46.1174 227.206 44.956 225.426 39.7542C224.479 37.0911 225.008 33.4256 228.248 32.863C232.812 32.0052 232.614 38.7811 228.236 38.2191C227.286 38.1746 227.202 39.9563 228.39 40.0119Z" fill="black"/>
<path d="M265.287 24.8355C260.658 22.0001 255.961 25.7086 255.021 30.5451C253.297 39.3922 261.701 45.4992 262.144 53.8525C262.652 53.162 263.279 52.4772 263.782 51.9055C258.84 53.2217 255.208 51.9805 250.529 50.2141C248.775 49.5369 247.233 51.9645 248.597 53.3377C252.922 57.5873 259.206 58.1194 264.77 56.237C265.98 55.8175 266.618 54.8951 266.436 53.6962C265.805 49.3813 263.822 45.9555 261.608 42.3999C258.737 37.6231 253.868 24.6583 265.112 26.0177C265.474 25.9156 265.632 25.0897 265.287 24.8355Z" fill="black"/>
<path d="M276.226 32.7277C275.731 35.6804 275.467 38.7631 275.204 41.8457C274.958 44.572 274.349 47.4004 274.939 50.0469C275.235 51.3701 277.135 51.459 277.552 50.1691C278.269 47.5838 278.046 44.7165 278.055 41.9791C278.08 38.8853 278.101 35.9104 277.889 32.8055C277.701 31.7254 276.395 31.6642 276.226 32.7277Z" fill="black"/>
<path d="M264.746 33.8562C266.265 31.9037 275.571 34.0056 277.585 34.2188C281.849 34.6565 286.12 34.9753 290.385 35.4129C292.636 35.6373 292.932 31.842 290.551 31.8496C283.651 31.7648 276.768 31.3237 269.879 31.0014C267.384 30.8847 263.962 30.2484 263.693 33.4499C263.422 34.1514 264.367 34.3146 264.746 33.8562Z" fill="black"/>
<path d="M283.911 51.657C284.293 48.5799 285.974 43.1829 289.911 43.01C291.579 42.969 291.269 44.502 291.565 45.8252C291.758 46.7865 291.951 47.7478 292.138 48.828C292.513 50.9882 292.391 53.6013 294.101 55.2287C294.78 55.9747 295.865 55.6684 296.266 54.7349C297.068 52.8678 296.207 50.9229 295.82 49.0002C295.434 47.0776 295.054 45.0361 294.549 43.1079C293.732 40.2128 291.876 39.1737 288.981 39.9905C284.276 41.3179 280.311 47.2032 282.588 51.9522C282.917 52.5628 283.765 52.2454 283.911 51.657Z" fill="black"/>
<path d="M281.812 50.7252C285.483 51.135 289.375 51.9123 293.063 51.9658C294.969 51.9359 295.091 49.3228 293.202 48.9963C289.536 48.4677 285.595 48.7595 281.912 48.5872C280.6 48.6448 280.511 50.5453 281.812 50.7252Z" fill="black"/>
<path d="M308.426 33.996C307.104 36.791 306.943 40.2356 306.68 43.3182C306.411 46.5196 305.662 49.8176 306.23 52.9391C306.514 54.4999 309.121 54.7409 309.437 53.0892C310.062 49.9044 309.618 46.6697 309.649 43.4571C309.675 40.3634 310.187 37.0543 309.495 34.046C309.404 33.4465 308.685 33.532 308.426 33.996Z" fill="black"/>
<path d="M301.219 32.8256C304.36 34.401 308.031 34.8108 311.453 35.4471C315.82 36.2466 320.527 37.4191 324.944 37.1496C326.612 37.1086 327.323 34.6421 325.444 34.0781C321.801 33.0744 318 32.8965 314.329 32.4867C310.189 31.9359 305.957 30.7856 301.772 31.185C300.935 31.2649 300.286 32.4248 301.219 32.8256Z" fill="black"/>
<path d="M333.9 33.9971C330.177 32.1564 325.812 33.8568 324.899 38.0994C323.807 43.643 329.69 45.1086 331.763 49.1338C332.045 48.1947 332.327 47.2556 332.609 46.3165C330.405 47.6418 328.228 48.3732 325.609 48.3698C323.347 48.3829 321.242 47.5703 318.991 47.3459C317.215 47.1438 316.024 49.7068 317.275 50.9557C322.052 55.7026 330.37 53.473 334.948 49.759C335.937 48.972 335.761 47.6544 335.087 46.7896C333.745 44.9412 331.895 43.7833 330.168 42.5122C329.133 41.7495 328.103 40.8681 327.808 39.5449C327.121 36.4178 330.4 35.0237 332.861 35.8531C334.037 36.1462 334.947 34.5222 333.9 33.9971Z" fill="black"/>
</g>
<defs>
<clipPath id="clip0">
<rect width="334.841" height="55.7673" fill="white" transform="translate(2.86523 0.772461) rotate(2.67877)"/>
</clipPath>
</defs>
</svg>
