<svg width="414" height="152" viewBox="0 0 414 152" fill="none" xmlns="http://www.w3.org/2000/svg">
<rect x="-3" width="427" height="56" fill="#679289"/>
<path d="M454.736 110.322C462.05 109.009 462.578 104.024 466.693 93.2728C469.045 87.0218 468.163 85.2848 469.633 78.6588C469.633 71.3518 474.86 72.1637 481.553 72.1637C492.576 72.1637 485.212 64.0479 488.887 54.7964C491.385 48.4204 493.296 47.7953 500.351 50.6708C507.112 53.5462 517.694 63.0478 522.544 68.0485C529.305 74.9246 537.977 76.6749 549 74.1745C545.473 70.799 537.389 64.423 533.861 60.9224C523.279 50.6708 510.786 41.9194 499.028 32.668C493.002 27.9172 485.359 28.2923 479.186 33.043C476.394 35.1684 472.866 36.6686 469.633 38.2938C468.751 38.7939 467.869 38.9189 466.693 38.5439C454.494 34.9183 442.589 31.0427 431.125 26.0419C427.45 24.4167 423.482 23.6665 419.514 22.9164C410.548 21.1662 401.876 18.6658 393.352 15.4153C386.591 12.7898 409.372 -52.5955 402.464 -50.9702C393.94 -48.9699 391.441 -22.9658 383.504 -19.7153C377.037 -17.2149 365.279 4.28849 358.224 5.28865C352.786 6.03876 336.619 26.2919 331.475 27.5421C321.186 30.0425 294.584 32.1679 289.733 25.6668C283.266 17.0405 275.183 11.6647 263.572 9.28929C255.635 7.66404 248.286 4.53853 242.701 -0.962334C240.643 -2.96265 238.145 -4.83795 235.058 -5.71309C225.652 -8.58854 219.185 -14.0894 214.628 -21.5906C211.689 -26.3413 205.516 -28.0916 200.225 -30.467C199.196 -30.9671 198.167 -30.592 197.432 -29.7169C193.464 -24.9661 187.438 -22.8408 181.706 -20.0903C170.976 -14.8395 161.276 -8.21347 151.281 -2.0875C142.169 3.53838 132.321 6.9139 121.592 9.03924C111.598 11.0396 101.75 13.79 92.7847 18.2907C88.9633 20.166 84.848 20.416 80.5857 21.0411C79.9978 21.1662 79.2629 21.0411 78.822 20.7911C68.6806 15.0402 58.6862 17.2905 48.6918 21.2911C39.5792 24.9167 30.6136 28.6673 21.0602 31.0427C19.0025 31.5428 16.9448 32.2929 14.8871 32.1679C4.30483 31.7928 -5.83655 33.5431 -16.1249 35.0433C-19.9463 35.5434 -38.0244 41.0443 -56.2495 39.6691C-84.9099 37.5437 -117.392 28.4173 -121.948 31.4178C-124.888 33.293 -2.16213 96.678 -2.16213 96.678C2.10019 96.678 6.36251 96.803 10.4779 96.9281C14.5932 97.0531 18.7085 97.0531 22.5299 95.4278C36.9336 88.9268 35.4639 102.054 51.3373 100.304C55.5997 99.8035 78.234 103.929 89.6982 104.679C113.361 106.305 152.604 73.1743 159.512 73.1743C163.333 73.1743 181.559 85.5513 189.348 93.6776C196.109 100.554 204.34 104.304 214.922 104.304C219.332 104.304 223.741 104.679 228.15 104.304C240.937 103.304 249.756 108.68 256.37 116.931C266.07 128.933 278.358 122.792 288.205 134.669C293.497 141.045 299.964 145.545 309.664 146.046C316.131 146.421 330.78 150.198 336.469 151.822C338.085 152.947 363.812 148.388 365.723 147.763C375.649 144.515 385.226 146.046 393.352 146.046C396.291 146.046 405.039 136.271 407.979 136.396C409.604 131.525 420.606 124.936 426.295 120.877C430.358 116.006 440.922 115.892 442.547 114.382C445.798 112.644 453.934 110.467 454.736 110.322Z" fill="#679289"/>
<g clip-path="url(#clip0)">
<path d="M290.682 40.4199C282.243 39.1596 270.639 39.5797 268.107 49.8719C265.153 62.2646 279.5 68.566 286.251 76.1276C286.04 74.8674 285.829 73.397 285.829 72.1368C282.665 77.808 272.326 77.808 266.63 77.808C258.824 77.808 253.549 75.2875 248.485 69.4062C246.376 66.8856 242.578 69.6162 243.211 72.5569C245.743 83.6893 257.98 86.84 268.107 86.2098C276.968 85.5797 288.572 84.1094 291.948 74.8674C292.37 73.8171 291.948 72.3468 291.104 71.7167C286.884 68.3559 281.61 65.8354 277.812 62.0546C271.483 56.1733 270.217 47.1413 279.5 43.7806C282.876 42.5203 287.095 42.9404 290.471 43.1505C291.526 42.7304 291.948 40.6299 290.682 40.4199Z" fill="white"/>
<path d="M301.442 58.2746C301.231 62.0554 301.02 65.8362 300.809 69.8271C300.598 73.1878 299.965 76.9686 301.02 80.1193C301.653 82.0097 304.396 82.0097 305.029 80.1193C305.873 76.7586 305.24 73.1878 305.24 69.8271C305.029 66.0463 304.818 62.2654 304.607 58.2746C304.396 56.1741 301.653 56.1741 301.442 58.2746Z" fill="white"/>
<path d="M286.041 53.0224C298.278 56.1731 311.57 56.3832 324.018 57.4334C330.347 58.0635 336.677 58.4836 342.795 59.1138C346.593 59.5339 359.041 59.1138 361.362 60.5841C361.151 59.1138 360.94 57.4334 360.729 55.9631L360.518 56.1731C361.784 56.1731 363.05 56.1731 364.316 56.1731C364.316 56.1731 364.316 56.1731 364.105 55.9631C363.05 54.7028 361.151 55.543 360.307 56.5932C360.307 56.5932 360.307 56.8033 360.096 56.8033C359.252 57.8535 359.885 59.954 361.151 60.5841L361.362 60.7941C363.894 62.0544 366.214 59.954 365.793 57.4334C365.371 55.543 364.316 54.9129 362.628 54.0727C356.72 51.3421 344.905 53.0224 338.787 52.6024C321.697 51.7622 303.553 49.0316 286.463 50.7119C284.986 50.922 284.564 52.6024 286.041 53.0224Z" fill="white"/>
<path d="M319.797 79.0684C319.375 75.7077 318.743 72.1369 319.797 68.7762C320.852 65.8355 323.595 63.1049 326.76 63.9451C333.089 65.4154 332.667 74.0273 332.667 78.8584C332.667 82.4291 338.153 82.4291 338.153 78.8584C338.153 71.2967 335.41 59.7442 325.494 60.3743C315.578 61.0045 316.422 73.1871 317.899 79.6986C318.321 80.7488 320.008 80.3287 319.797 79.0684Z" fill="white"/>
<path d="M315.157 72.9773C323.807 73.8175 332.457 74.8677 341.318 75.0778C345.116 75.0778 345.116 68.9864 341.318 69.4065C332.668 70.0367 323.807 70.4567 315.157 70.0367C313.047 70.0367 313.258 72.7672 315.157 72.9773Z" fill="white"/>
<path d="M350.39 56.8036C348.491 61.2145 347.436 65.8355 346.592 70.4565C345.959 74.4474 344.693 78.8584 346.803 82.4291C347.436 83.6894 349.546 83.6894 349.968 82.4291C351.655 79.0684 350.601 75.4976 350.812 71.9269C351.023 67.0958 351.866 62.4748 352.499 57.6437C352.71 56.3835 351.023 55.3332 350.39 56.8036Z" fill="white"/>
<path d="M388.367 47.3517C380.561 44.6212 370.222 47.5618 369.59 57.2239C369.379 61.6349 372.121 64.9956 375.075 67.9362C376.13 68.7764 377.396 69.8266 378.029 70.8769C379.928 74.2376 378.451 77.5983 374.653 77.5983C370.644 77.5983 366.847 75.2878 363.471 73.6075C360.939 72.3472 357.352 75.0778 359.251 77.8084C364.737 85.37 381.827 90.8312 386.046 79.0686C387.734 74.6577 385.624 70.4568 382.459 67.096C379.506 63.9454 375.286 62.265 374.864 57.644C374.231 50.2924 382.248 48.612 388.156 49.0321C389.211 49.2422 389.211 47.7718 388.367 47.3517Z" fill="white"/>
</g>
<defs>
<clipPath id="clip0">
<rect width="146" height="46" fill="white" transform="translate(243 40)"/>
</clipPath>
</defs>
</svg>
