<svg width="130" height="41" viewBox="0 0 130 41" fill="none" xmlns="http://www.w3.org/2000/svg">
<g clip-path="url(#clip0)">
<path d="M42.4563 0.373893C34.9419 -0.749395 24.6095 -0.374966 22.3552 8.79855C19.7251 19.8442 32.4997 25.4607 38.5112 32.2004C38.3234 31.0771 38.1355 29.7666 38.1355 28.6433C35.3176 33.6981 26.1124 33.6981 21.0401 33.6981C14.0893 33.6981 9.39274 31.4515 4.88406 26.2095C3.00545 23.9629 -0.376051 26.3967 0.187533 29.0177C2.44187 38.9401 13.3378 41.7483 22.3552 41.1867C30.2453 40.625 40.5777 39.3145 43.5835 31.0771C43.9592 30.141 43.5835 28.8305 42.832 28.2689C39.0748 25.2734 34.3783 23.0269 30.9968 19.657C25.3609 14.415 24.2338 6.36476 32.4997 3.36933C35.5055 2.24604 39.2627 2.62047 42.2685 2.80768C43.2078 2.43325 43.5835 0.561107 42.4563 0.373893Z" fill="white"/>
<path d="M52.037 16.2879C51.8491 19.6578 51.6612 23.0276 51.4734 26.5847C51.2855 29.5801 50.7219 32.95 51.6612 35.7582C52.2248 37.4432 54.667 37.4432 55.2306 35.7582C55.9821 32.7628 55.4185 29.5801 55.4185 26.5847C55.2306 23.2148 55.0427 19.845 54.8549 16.2879C54.667 14.4158 52.2248 14.4158 52.037 16.2879Z" fill="white"/>
<path d="M38.3241 11.6076C49.2201 14.4158 61.0554 14.603 72.1392 15.5391C77.775 16.1007 83.4108 16.4751 88.8588 17.0368C92.2403 17.4112 103.324 17.0368 105.391 18.3473C105.203 17.0368 105.015 15.5391 104.827 14.2286L104.639 14.4158C105.766 14.4158 106.894 14.4158 108.021 14.4158C108.021 14.4158 108.021 14.4158 107.833 14.2286C106.894 13.1053 105.203 13.8541 104.451 14.7902C104.451 14.7902 104.451 14.9774 104.263 14.9774C103.512 15.9135 104.076 17.7856 105.203 18.3473L105.391 18.5345C107.645 19.6578 109.711 17.7856 109.336 15.5391C108.96 13.8541 108.021 13.2925 106.518 12.5436C101.258 10.1098 90.7374 11.6076 85.2895 11.2331C70.0727 10.4843 53.9166 8.05048 38.6999 9.5482C37.3848 9.73541 37.0091 11.2331 38.3241 11.6076Z" fill="white"/>
<path d="M68.3813 34.8218C68.0055 31.8264 67.442 28.6438 68.3813 25.6483C69.3206 23.0273 71.7628 20.5935 74.5807 21.3424C80.2165 22.6529 79.8408 30.3287 79.8408 34.6346C79.8408 37.8173 84.7252 37.8173 84.7252 34.6346C84.7252 27.8949 82.283 17.5981 73.4535 18.1597C64.624 18.7214 65.3755 29.5798 66.6905 35.3835C67.0662 36.3196 68.5691 35.9451 68.3813 34.8218Z" fill="white"/>
<path d="M64.2486 29.3926C71.9509 30.1414 79.6532 31.0775 87.5434 31.2647C90.9249 31.2647 90.9249 25.8355 87.5434 26.2099C79.8411 26.7716 71.9509 27.146 64.2486 26.7716C62.37 26.7716 62.5579 29.2054 64.2486 29.3926Z" fill="white"/>
<path d="M95.6213 14.9766C93.9306 18.9082 92.9913 23.0269 92.2398 27.1456C91.6762 30.7027 90.5491 34.6342 92.4277 37.8168C92.9913 38.9401 94.8699 38.9401 95.2456 37.8168C96.7485 34.8214 95.8092 31.6387 95.9971 28.4561C96.1849 24.1502 96.9364 20.0314 97.4999 15.7255C97.6878 14.6022 96.1849 13.6661 95.6213 14.9766Z" fill="white"/>
<path d="M129.436 6.55275C122.485 4.11896 113.28 6.73996 112.716 15.3518C112.529 19.2833 114.971 22.2788 117.601 24.8998C118.54 25.6486 119.667 26.5847 120.231 27.5208C121.922 30.5162 120.607 33.5117 117.225 33.5117C113.656 33.5117 110.274 31.4523 107.268 29.9546C105.014 28.8313 101.82 31.2651 103.511 33.6989C108.396 40.4386 123.612 45.3062 127.37 34.8222C128.873 30.8906 126.994 27.1464 124.176 24.1509C121.546 21.3427 117.789 19.845 117.413 15.7263C116.849 9.17375 123.988 7.67604 129.248 8.05047C130.188 8.23768 130.188 6.92718 129.436 6.55275Z" fill="white"/>
</g>
<defs>
<clipPath id="clip0">
<rect width="130" height="41" fill="white"/>
</clipPath>
</defs>
</svg>
