<svg width="251" height="107" viewBox="0 0 251 107" fill="none" xmlns="http://www.w3.org/2000/svg">
<g clip-path="url(#clip0)">
<path d="M79.6938 8.82353C80.1037 7.17647 80.1037 5.76471 80.1037 3.88235C80.1037 2.70588 78.874 2.70588 79.0106 3.88235C79.0106 5.52941 79.0106 7.17647 79.4205 8.82353C79.4205 9.05882 79.6938 9.05882 79.6938 8.82353Z" fill="#FFE500"/>
<path d="M57.1114 58.488C55.0619 73.2467 55.7451 88.8252 56.155 103.72C56.155 105.907 59.4341 105.907 59.4341 103.72C59.7074 88.8252 60.5272 73.2467 58.4777 58.488C58.3411 57.8048 57.248 57.8048 57.1114 58.488Z" fill="white"/>
<path d="M54.7894 58.7613C54.7894 58.488 54.7894 58.3514 54.7894 58.0781C54.7894 57.9414 54.5162 57.9414 54.5162 58.0781C54.5162 58.3514 54.5162 58.488 54.5162 58.7613C54.3795 58.898 54.7894 58.898 54.7894 58.7613Z" fill="white"/>
<path d="M59.0246 58.4877C69.6818 57.9411 79.246 58.761 89.7666 60.5375C91.1329 60.8108 91.6794 58.8976 90.3131 58.4877C80.4757 55.4813 68.862 55.208 58.7513 57.3945C58.2048 57.5311 58.3414 58.6243 59.0246 58.4877Z" fill="white"/>
<path d="M87.3077 61.2206C85.1216 75.2959 85.9413 90.6011 86.2146 104.813C86.2146 106.59 89.0839 106.59 88.9472 104.813C88.9472 104.13 88.8106 103.31 88.8106 102.627C88.674 101.123 86.4879 101.123 86.3512 102.627C86.3512 103.31 86.2146 104.13 86.2146 104.813C87.171 104.813 87.9908 104.813 88.9472 104.813C89.3571 90.6011 90.0403 75.2959 87.8542 61.2206C87.8542 60.8106 87.3077 60.8106 87.3077 61.2206Z" fill="white"/>
<path d="M58.2051 105.087C65.31 106.317 72.5514 106.864 79.6562 107C83.6186 107.137 87.9908 107.41 90.3135 103.721C90.86 102.764 89.6303 101.944 88.8105 102.491C84.575 105.907 77.6068 104.677 72.5514 104.404C67.7693 104.131 63.1239 103.721 58.3418 103.447C57.522 103.447 57.2487 104.951 58.2051 105.087Z" fill="white"/>
<path d="M60.2548 88.6884C69.2725 89.5084 78.5634 89.7817 87.5811 89.3717C88.6741 89.3717 88.6741 87.5952 87.5811 87.5952C78.5634 87.1852 69.2725 87.5952 60.2548 88.2785C60.1182 88.4151 60.1182 88.6884 60.2548 88.6884Z" fill="white"/>
<path d="M60.2548 72.9736C69.6823 73.6568 79.3831 74.2034 88.8107 73.7935C90.3136 73.7935 90.3136 71.607 88.8107 71.4704C79.2465 71.1971 69.6823 71.607 60.2548 72.2903C59.9815 72.427 59.9815 72.9736 60.2548 72.9736Z" fill="white"/>
<path d="M69.7687 30.7429C69.3588 38.5252 68.2658 47.7224 69.7687 55.3633C69.9053 56.2122 71.135 56.2122 71.2717 55.3633C72.638 47.7224 71.6816 38.5252 71.2717 30.7429C71.135 29.7524 69.7687 29.7524 69.7687 30.7429Z" fill="white"/>
<path d="M73.6443 33.7532C80.3392 33.7532 87.0341 33.8899 93.5924 33.8899C100.151 33.8899 106.982 34.9831 113.541 34.1632C114.77 34.0265 114.77 32.5233 113.541 32.3867C106.982 31.7034 100.151 32.66 93.5924 32.66C86.8975 32.66 80.2026 32.7966 73.6443 32.7966C73.0977 32.9333 73.0977 33.7532 73.6443 33.7532Z" fill="white"/>
<path d="M78.0165 31.567C78.6997 27.7407 79.9294 27.6041 83.755 27.6041C87.4441 27.6041 91.2698 27.7407 94.9588 27.8774C98.238 28.014 101.654 27.8774 104.933 28.424C106.026 28.6973 107.256 29.1073 108.349 29.3806C108.075 29.7905 107.939 30.2005 107.802 30.7471C107.939 30.8838 108.212 32.387 108.212 32.2503C108.622 33.4802 110.535 33.3435 110.535 31.977C110.535 28.424 112.584 26.5108 107.666 25.6909C98.1013 24.0511 87.3075 25.0077 77.6066 25.281C76.9235 25.281 76.377 25.8276 76.377 26.5108C76.377 28.1507 76.5136 29.9272 76.7868 31.567C76.7868 31.977 77.8799 32.387 78.0165 31.567Z" fill="white"/>
<path d="M113.267 34.4364C109.988 43.8655 112.038 56.4377 112.174 66.2767C112.311 77.7557 111.901 89.2346 112.584 100.577C112.721 102.217 114.907 102.217 115.044 100.577C115.59 89.2346 115.317 77.619 115.454 66.2767C115.59 56.4377 117.64 43.8655 114.361 34.4364C113.951 34.0264 113.404 34.0264 113.267 34.4364Z" fill="white"/>
<path d="M89.4939 103.583C97.1453 103.72 104.797 103.993 112.311 104.13C113.541 104.13 113.541 102.217 112.311 102.217C104.66 102.353 97.0087 102.627 89.4939 102.763C89.084 102.9 89.084 103.583 89.4939 103.583Z" fill="white"/>
<path d="M72.4739 44.6859C84.973 44.8225 97.4721 44.9592 109.971 45.0958C111.343 45.0958 111.343 43.3193 109.971 43.3193C97.4721 43.456 84.973 43.5926 72.4739 43.7293C71.7118 43.5926 71.7118 44.6859 72.4739 44.6859Z" fill="#FFE500"/>
<path d="M90.1909 88.8255C97.2049 89.0988 104.219 89.5088 111.233 89.3721C112.256 89.3721 112.256 87.8689 111.233 87.8689C104.219 87.7323 97.2049 88.1422 90.1909 88.4155C89.8986 88.4155 89.8986 88.8255 90.1909 88.8255Z" fill="#FFE500"/>
<path d="M6.55791 24.871C4.37181 36.3499 5.60149 48.5121 5.60149 60.1277C5.46486 72.8365 5.46486 85.5453 5.73812 98.1175C5.73812 99.6207 7.92422 99.6207 8.06085 98.1175C8.33411 85.5453 8.47074 72.8365 8.33411 60.2644C8.19748 48.6488 9.42716 36.3499 7.37769 24.871C7.24106 24.5977 6.69454 24.5977 6.55791 24.871Z" fill="white"/>
<path d="M1.91256 99.6203C19.6746 99.8936 38.2565 101.67 55.8819 100.03C57.5215 99.8936 57.5215 97.7072 55.8819 97.4339C38.2565 95.9307 19.6746 97.5705 1.91256 97.8438C0.819511 97.8438 0.819511 99.6203 1.91256 99.6203Z" fill="white"/>
<path d="M0.546547 27.6041C22.9541 28.0141 45.3616 28.424 67.9058 28.0141C69.1355 28.0141 69.1355 26.1009 67.9058 26.1009C45.3616 25.5543 23.0907 25.9642 0.546547 26.5109C-0.136609 26.3742 -0.136609 27.6041 0.546547 27.6041Z" fill="white"/>
<path d="M69.2723 26.1004C68.5892 29.79 68.3159 33.8897 68.7258 37.716C68.8624 39.0825 70.6386 39.0825 70.9119 37.716C71.3218 34.0263 71.0485 29.79 70.3654 26.1004C70.3654 25.5538 69.4089 25.5538 69.2723 26.1004Z" fill="white"/>
<path d="M16.3961 48.6487C15.4397 48.7853 14.8932 50.1518 14.6199 50.9718C14.3467 51.9283 14.3467 53.1582 15.0298 53.9782C15.713 54.7981 16.6694 55.208 17.6258 55.208C18.7189 55.208 19.6753 54.3881 19.6753 53.2949C19.6753 52.7483 19.1288 52.3383 18.5823 52.475C17.8991 52.7483 16.9427 53.0216 16.3961 52.3383C16.1229 51.9283 15.9863 51.3817 16.1229 50.8351C16.2595 50.1518 16.6694 49.7419 16.806 49.0586C16.9427 48.7853 16.806 48.512 16.3961 48.6487Z" fill="#FFE500"/>
<path d="M21.9976 48.6486C20.4947 49.0586 20.3581 50.9718 21.3145 52.065C22.4075 53.4315 25.1401 53.2949 26.6431 52.7483C28.4193 52.065 29.2391 50.2885 28.2827 48.512C27.1896 46.7355 24.5936 46.1889 22.8174 47.1454C22.1343 47.4188 22.4075 48.3753 22.954 48.512C23.7738 48.7853 24.8669 48.6486 25.6867 49.0586C26.3698 49.3319 27.053 50.2885 26.0966 50.6984C25.4134 50.9718 24.457 51.1084 23.7738 50.9718C23.3639 50.9718 21.4511 50.2885 22.4075 49.6052C22.954 49.3319 22.6808 48.3753 21.9976 48.6486Z" fill="#FFE500"/>
<path d="M28.283 46.0523C28.8295 47.1455 29.6493 48.1021 30.4691 49.0587C31.1523 49.7419 32.1087 51.1085 33.2017 51.2451C33.7482 51.3818 34.1581 50.8352 33.8849 50.2885C33.6116 49.8786 33.2017 49.6053 32.7918 49.332C32.2453 48.922 31.6988 48.512 31.2889 48.1021C30.4691 47.2822 29.6493 46.4622 28.8295 45.5057C28.5563 45.369 28.1464 45.779 28.283 46.0523Z" fill="#FFE500"/>
<path d="M29.3757 45.7794C30.1955 45.3695 31.0153 44.9595 31.9717 44.9595C32.1083 44.9595 32.6549 44.9595 32.6549 44.9595C32.7915 44.8229 32.7915 44.8229 32.6549 44.9595C32.5182 44.9595 32.5182 45.0962 32.3816 45.0962C31.6984 45.6428 31.4252 46.4627 31.5618 47.2826C31.9717 49.879 35.2509 50.0157 37.1637 49.0591C38.2567 48.5125 37.7102 46.5994 36.4805 46.736C35.7974 46.8727 35.1142 47.0093 34.4311 47.0093C33.338 47.0093 33.4747 46.5994 33.7479 45.7794C33.8845 45.2328 34.1578 44.8229 33.7479 44.4129C32.5182 43.183 30.1955 44.4129 29.1024 45.2328C28.8292 45.5061 29.1024 45.9161 29.3757 45.7794Z" fill="#FFE500"/>
<path d="M39.2136 48.2384C40.3066 47.0085 39.8967 45.232 39.4868 43.8654C39.0769 44.2754 38.5304 44.5487 38.1205 44.9587C39.7601 46.0519 42.6294 47.8284 44.5422 46.1885C46.0451 44.9587 45.362 42.2256 43.3125 42.2256C41.9462 42.2256 41.8096 44.5487 43.3125 44.412C43.1759 44.412 42.9026 44.5487 42.6294 44.5487C42.0828 44.5487 41.5363 44.2754 40.9898 44.0021C40.3066 43.7288 39.6235 43.3188 38.8037 43.0455C37.9839 42.7722 37.1641 44.0021 37.8473 44.5487C39.0769 45.6419 39.0769 47.1451 39.2136 48.2384Z" fill="#FFE500"/>
<path d="M21.3145 61.3579C21.3145 62.5878 21.861 63.8177 22.8174 64.501C23.0907 64.6376 23.5006 64.6376 23.6372 64.501C23.9104 64.3643 23.9104 64.2277 24.0471 63.9544C24.1837 63.6811 24.0471 63.2711 23.7738 63.1344C23.0907 62.4512 22.5441 61.9046 22.1342 61.0846C22.1342 60.6747 21.3145 60.948 21.3145 61.3579Z" fill="#FFE500"/>
<path d="M21.9976 61.4941C22.5441 60.9475 23.2273 60.5376 24.0471 60.4009C25.0035 60.2642 24.5936 58.6244 23.6372 59.0344C22.5441 59.4443 21.7243 60.1276 21.3145 61.2208C21.3145 61.4941 21.7243 61.7674 21.9976 61.4941Z" fill="#FFE500"/>
<path d="M22.8171 62.9971C23.3636 62.8604 24.0468 62.5871 24.5933 62.4504C25.2765 62.3138 24.8666 61.2206 24.1834 61.6305C23.6369 61.9038 23.0904 62.1771 22.5438 62.5871C22.4072 62.7238 22.5438 63.1337 22.8171 62.9971Z" fill="#FFE500"/>
<path d="M28.0092 62.587C28.1459 61.7671 27.736 60.8105 27.3261 60.1273C26.9162 59.3074 26.3697 58.3508 25.5499 57.8042C25.0034 57.3942 24.3202 58.2141 24.5935 58.7607C25.0034 59.444 25.8231 59.9906 26.233 60.8105C26.6429 61.4938 26.9162 62.3137 27.4627 62.8604C27.5994 62.8604 27.8726 62.8604 28.0092 62.587Z" fill="#FFE500"/>
<path d="M27.4628 60.9472C28.0094 59.5807 28.4193 57.6675 26.7797 56.8476C26.5064 56.7109 26.2332 56.7109 26.0965 56.9842C26.0965 56.9842 26.0965 56.9842 25.9599 57.1209C25.8233 57.2575 25.8233 57.3942 25.9599 57.6675C26.2332 58.2141 26.7797 58.0775 27.0529 58.6241C27.4628 59.3073 27.1896 60.2639 27.0529 61.0838C26.9163 61.0838 27.3262 61.2205 27.4628 60.9472Z" fill="#FFE500"/>
<path d="M25.9601 58.0774C25.9601 58.2141 25.9601 58.2141 25.9601 58.0774C25.9601 58.2141 25.9601 58.2141 25.9601 58.0774C25.9601 58.2141 25.9601 58.3507 25.9601 58.2141C25.9601 58.3507 25.9601 58.3507 25.9601 58.3507C25.9601 58.2141 25.9601 58.0774 25.9601 58.0774C25.9601 57.9408 25.9601 57.8041 25.9601 57.8041C25.9601 57.8041 25.9601 57.8041 25.9601 57.9408C25.9601 57.8041 25.9601 57.9408 25.9601 58.0774V57.9408C25.9601 58.0774 25.9601 58.0774 25.9601 58.0774C25.8234 57.9408 25.8234 58.0774 25.9601 58.0774C25.8234 58.0774 25.8234 58.0774 25.9601 58.0774C25.6868 58.0774 25.6868 58.0774 25.8234 58.0774C26.0967 57.9408 26.2333 57.3942 26.0967 57.1209C25.9601 56.8476 25.5502 56.7109 25.1403 56.8476C24.5937 57.1209 24.4571 57.6675 24.7304 58.2141C24.867 58.6241 25.2769 58.7607 25.5502 58.7607C25.6868 58.7607 25.8234 58.6241 25.9601 58.4874C26.0967 58.3507 26.0967 58.2141 25.9601 58.0774Z" fill="#FFE500"/>
<path d="M29.5128 61.7677C29.786 61.3577 29.786 60.9477 29.6494 60.5378C29.5128 60.1278 28.5563 58.3513 29.9226 58.8979C30.6058 59.1712 31.1523 60.1278 31.5622 60.6744C32.1087 61.221 32.5186 61.7677 33.0652 62.1776C33.4751 62.4509 34.0216 61.9043 33.7483 61.4943C33.2018 60.5378 32.2454 59.8545 31.4256 59.0346C30.8791 58.488 30.3325 57.8047 29.5128 57.8047C28.9662 57.8047 28.2831 58.2147 28.2831 58.7613C28.1464 59.8545 29.5128 60.5378 29.2395 61.4943C28.9662 61.7677 29.3761 61.9043 29.5128 61.7677Z" fill="#FFE500"/>
<path d="M29.1025 61.2211C29.9223 60.6745 30.6054 60.2645 31.4252 59.9912C31.8351 59.8546 31.5618 59.3079 31.2886 59.4446C30.4688 59.8546 29.5124 60.2645 28.6926 60.8111C28.556 60.8111 28.8292 61.3577 29.1025 61.2211Z" fill="#FFE500"/>
<path d="M31.1523 56.4381C31.289 57.2581 31.8355 58.078 32.382 58.7613C32.9286 59.3079 33.7483 60.4011 34.5681 60.2644C35.1147 60.2644 35.3879 59.7178 35.1147 59.3079C34.978 58.8979 34.5681 58.7613 34.1582 58.6246C33.885 58.4879 33.4751 58.2146 33.2018 57.9413C32.6553 57.3947 32.2454 56.7114 31.6989 56.1648C31.6989 55.6182 31.1523 56.0282 31.1523 56.4381Z" fill="#FFE500"/>
<path d="M34.0209 58.3515C34.0209 57.9415 34.0209 57.6682 34.0209 57.2582C34.0209 56.8483 34.0209 56.575 33.8842 56.3017C33.7476 56.0284 33.3377 56.0284 33.2011 56.3017C33.0645 56.575 33.0645 56.9849 33.0645 57.2582C33.0645 57.6682 33.0645 57.9415 33.0645 58.3515C33.2011 58.7614 34.0209 58.7614 34.0209 58.3515Z" fill="white"/>
<path d="M34.0208 58.4875C34.1574 57.9409 34.294 57.2576 34.294 56.711C34.294 56.0277 34.4307 55.6177 34.0208 54.9345C33.8842 54.6612 33.3376 54.6612 33.201 54.9345C32.9277 55.4811 32.9277 56.0277 32.9277 56.711C32.9277 57.3942 32.9277 57.9409 33.201 58.4875C33.3376 58.7608 33.8842 58.7608 34.0208 58.4875Z" fill="#FFE500"/>
<path d="M33.6117 58.2144C34.2949 58.3511 34.9781 58.4878 35.6612 58.6244C36.3444 58.7611 36.8909 58.8977 37.4374 58.6244C37.7107 58.4878 37.8473 57.9411 37.5741 57.6678C37.0275 57.3945 36.6176 57.3945 35.9345 57.3945C35.2513 57.3945 34.5682 57.3945 33.7484 57.3945C33.3385 57.3945 33.2019 58.2144 33.6117 58.2144Z" fill="#FFE500"/>
<path d="M37.5735 56.4385C37.9834 55.7552 38.5299 54.662 37.7102 53.9787C37.027 53.4321 36.2072 53.7054 35.9339 54.5253C35.6607 55.3453 35.6607 56.5751 36.4805 56.9851C37.027 57.2584 37.7101 57.3951 38.2567 57.3951C38.9398 57.5317 39.623 57.5317 40.1695 57.3951C40.5794 57.2584 40.5794 56.5751 40.1695 56.4385C39.2131 56.1652 38.2567 56.4385 37.3003 56.1652C36.7537 56.0285 36.4805 55.4819 36.7537 54.9353C36.8904 54.3887 37.4369 54.662 37.4369 55.0719C37.4369 55.4819 37.3003 55.7552 37.027 56.1652C37.027 56.4385 37.4369 56.7118 37.5735 56.4385Z" fill="#FFE500"/>
<path d="M39.6237 52.3381C39.0772 53.158 38.394 54.5246 39.6237 55.2079C40.1702 55.4812 40.99 55.6178 41.6732 55.7545C42.0831 55.8911 43.586 56.1644 43.7226 56.5744C44.1325 56.1644 44.4058 55.6178 44.8157 55.2079C43.8593 55.2079 42.7662 55.0712 41.9464 55.4812C41.1267 55.7545 40.8534 56.9844 41.6732 57.3943C42.7662 57.9409 43.9959 57.8043 45.089 57.3943C45.9087 57.121 46.0454 56.1644 45.6355 55.6178C44.9523 54.7979 44.1325 54.5246 43.1761 54.2513C42.6296 54.1146 41.9464 53.978 41.3999 53.8413C41.2633 53.8413 40.7168 53.8413 40.5801 53.7047V53.8413C40.5801 53.568 40.5801 53.1581 40.5801 52.8847C40.4435 52.2015 39.897 51.9282 39.6237 52.3381Z" fill="#FFE500"/>
<path d="M5.87554 78.7128C26.9168 72.2901 47.4115 63.8176 67.9062 56.0283C69.5458 55.345 68.8626 52.7486 67.223 53.4319C46.5917 61.2211 25.5505 68.6005 5.60228 77.8929C5.05576 78.0296 5.46565 78.8495 5.87554 78.7128Z" fill="white"/>
<path d="M5.87501 50.2888C20.4946 43.866 35.2507 38.1266 50.1436 32.2505C51.9198 31.5672 51.2366 28.6975 49.3238 29.3807C34.1577 34.4369 19.2649 41.4063 5.46511 49.6055C4.91859 49.8788 5.32848 50.5621 5.87501 50.2888Z" fill="white"/>
<path d="M59.2984 26.5104C55.0628 27.6037 50.6906 28.5603 46.5916 30.0634C45.6352 30.4734 45.6352 32.1133 46.8649 32.1133C51.2371 31.7033 56.0192 30.0634 59.9815 28.2869C60.9379 27.7403 60.2548 26.2371 59.2984 26.5104Z" fill="white"/>
<path d="M71.5946 51.9282C70.3649 52.6115 69.1352 53.1581 67.6323 53.568C66.4026 53.8413 65.1729 53.978 64.0798 54.5246C63.1234 54.9346 63.6699 56.3011 64.6264 56.3011C67.2224 56.4378 70.2282 54.2513 72.1411 52.8848C72.6876 52.3381 72.1411 51.5182 71.5946 51.9282Z" fill="white"/>
<path d="M44.5419 24.5976C44.8152 24.5976 45.0885 24.5976 45.3617 24.5976C45.4983 24.5976 45.4983 24.4609 45.3617 24.4609C44.9518 24.5976 44.8152 24.5976 44.5419 24.5976C44.4053 24.5976 44.4053 24.5976 44.5419 24.5976Z" fill="white"/>
<path d="M67.7694 13.8016C68.3159 12.7084 68.3159 11.3419 68.4525 10.112C68.4525 8.74545 68.5892 7.1056 68.1793 5.73906C68.0427 5.19245 67.3595 5.19245 67.2229 5.73906C66.813 7.1056 66.9496 8.6088 66.9496 10.112C66.9496 11.3419 67.0862 12.7084 67.6328 13.8016H67.7694Z" fill="white"/>
<path d="M78.8359 13.1189C78.8359 13.2555 78.8359 13.2555 78.8359 13.3922C79.3824 13.3922 79.7923 13.3922 80.3389 13.3922C80.3389 11.3424 80.4755 9.1559 80.2022 6.96943C80.0656 6.14951 79.1092 6.14951 78.9725 6.96943C78.6993 9.01924 78.8359 11.2057 78.8359 13.3922C78.8359 14.3487 80.3389 14.3487 80.3389 13.3922C80.3389 13.2555 80.3389 13.2555 80.3389 13.1189C80.3389 12.1623 78.8359 12.1623 78.8359 13.1189Z" fill="white"/>
<path d="M68.042 6.69648C68.1786 6.69648 68.1786 6.55982 68.042 6.69648C68.042 6.55982 68.042 6.69648 68.042 6.69648Z" fill="white"/>
<path d="M67.8198 6.91315C71.3722 6.91315 74.9246 6.91315 78.6137 6.91315C79.8433 6.91315 79.8433 5 78.6137 5C75.0613 5.13665 71.5088 5.27331 67.8198 5.27331C66.7267 5.27331 66.7267 6.91315 67.8198 6.91315Z" fill="#FFE500"/>
<path d="M67.2227 0.956233C68.8622 1.6395 70.6384 1.6395 72.278 1.6395C74.1909 1.6395 76.2403 1.77616 78.1532 1.50285C78.9729 1.36619 78.9729 0.272964 78.1532 0.13631C76.2403 -0.136998 74.3275 -0.000343939 72.4146 0.13631C70.7751 0.13631 68.9989 0.13631 67.3593 0.819579C67.2227 0.819579 67.2227 0.819579 67.2227 0.956233Z" fill="#FFE500"/>
<path d="M67.769 6.96951C68.4522 6.42289 68.4522 5.60297 68.4522 4.78305C68.4522 3.55316 68.3155 2.18662 68.3155 0.956739C68.3155 0.136816 67.0858 0.136816 67.0858 0.956739C67.0858 2.18662 66.9492 3.55316 66.9492 4.78305C66.9492 5.60297 66.9492 6.42289 67.6324 6.96951C67.6324 7.10616 67.769 7.10616 67.769 6.96951Z" fill="#FFE500"/>
<path d="M79.3827 6.69635C79.9293 5.0565 80.0659 3.14335 79.9293 1.36685C79.9293 0.41027 78.563 0.41027 78.563 1.36685C78.4263 3.14335 78.563 5.0565 79.1095 6.69635C79.1095 6.833 79.2461 6.833 79.3827 6.69635Z" fill="#FFE500"/>
<path d="M69.6891 5.46621C71.3341 5.60286 73.5275 5.1929 75.0354 6.01282C76.6804 6.83275 78.0512 4.50963 76.4062 3.55305C75.4466 3.00644 74.4871 2.59648 73.6646 2.04986C73.5275 3.4164 73.2533 4.78294 73.1162 6.14948C73.6646 6.01282 74.2129 5.87617 74.7612 5.87617C77.3658 5.73952 77.0916 2.32317 74.7612 2.04986C72.9791 1.77655 71.1971 1.6399 69.5521 2.32317C70.1004 2.32317 70.5116 2.45982 71.06 2.45982C70.6487 3.68971 70.7858 4.23632 71.4712 4.09967C71.7454 4.09967 72.0196 4.09967 72.4308 4.09967C72.9791 4.09967 73.5275 4.09967 74.0758 4.09967C75.3095 4.09967 76.6804 4.23632 77.9141 4.37298C77.64 3.4164 77.3658 2.32317 77.0916 1.36659C76.2691 2.32317 75.8579 3.4164 75.8579 4.64629C76.4062 4.09967 77.0916 3.4164 77.64 2.86979C75.0354 2.86979 72.5679 2.86979 69.9633 3.00644C67.4958 3.14309 67.4958 6.9694 69.9633 6.83275C72.5679 6.83275 75.0354 6.69609 77.64 6.42279C78.5995 6.42279 79.5591 5.60286 79.422 4.64629C79.285 4.37298 79.422 4.09967 79.5591 3.82636C80.2445 2.86979 80.2445 0.956631 78.7366 0.819977C76.5433 0.546669 74.4871 0.410015 72.2937 0.410015C70.6487 0.410015 68.8666 0.273361 67.9071 1.91321C67.2217 3.14309 67.4958 4.91959 68.8666 5.73952C69.8262 6.28613 70.3746 6.01282 71.3341 5.73952C72.2937 5.46621 73.3904 5.60286 74.35 5.73952C74.6241 4.50963 75.0354 3.27975 75.3095 2.04986C74.35 1.77655 73.3904 1.6399 72.4308 1.6399C69.5521 1.6399 69.5521 6.28613 72.4308 6.14948C73.5275 6.01282 74.6241 6.14948 75.5837 6.01282C75.3095 5.1929 75.1725 4.23632 74.8983 3.4164C73.5275 4.50963 71.1971 4.09967 69.5521 4.23632C69.0037 4.37298 69.0037 5.32956 69.6891 5.46621Z" fill="#FFE500"/>
<path d="M62.1677 19.1316C62.1677 18.4484 63.1241 17.9017 63.534 17.4918C64.0805 16.9452 64.7637 16.3985 65.4469 15.8519C66.5399 15.032 67.7696 14.3487 68.9993 13.5288C69.6824 13.1189 69.2725 11.889 68.4527 12.1623C66.6765 12.8455 65.037 14.0754 63.8073 15.442C62.9875 16.2619 61.3479 17.6284 61.6212 18.995C61.6212 19.1316 61.7578 19.2683 61.8944 19.2683H62.0311C62.0311 19.2683 62.1677 19.2683 62.1677 19.1316Z" fill="white"/>
<path d="M60.1179 19.1316C59.9813 20.2248 59.9813 21.4547 59.8447 22.5479C59.708 23.6412 59.8447 24.5977 59.9813 25.691C60.1179 26.3742 61.211 26.3742 61.3476 25.691C61.6209 24.5977 61.6209 23.6412 61.4843 22.5479C61.3476 21.4547 61.211 20.2248 61.211 19.1316C61.211 18.4483 60.1179 18.4483 60.1179 19.1316Z" fill="white"/>
<path d="M79.7924 14.0754C81.0221 15.7153 82.9349 17.2185 84.7111 18.3117C85.9408 18.995 87.0338 17.2185 85.8042 16.3986C84.1646 15.3053 82.3884 14.2121 80.6122 13.1189C80.2023 12.8456 79.3825 13.5288 79.7924 14.0754Z" fill="white"/>
<path d="M85.531 17.3554C84.9845 18.1753 85.1211 19.4052 84.9845 20.3618C84.8479 21.5916 85.1211 22.9582 85.2578 24.1881C85.3944 25.008 86.4874 25.008 86.6241 24.1881C86.7607 22.9582 86.8973 21.5916 86.8973 20.3618C86.8973 19.4052 86.8973 18.1753 86.3508 17.3554C86.0776 17.0821 85.6677 17.0821 85.531 17.3554Z" fill="white"/>
</g>
<g clip-path="url(#clip1)">
<path d="M151.418 48.695C145.673 46.6108 136.794 48.8687 138.535 56.8582C141.146 67.6266 158.034 63.9792 160.993 75.095C161.515 74.2266 161.864 73.5319 162.386 72.6634C150.199 76.6582 139.405 77.0056 129.134 68.495C127.567 67.2792 125.13 68.8424 126.348 70.5792C134.357 82.9108 151.592 80.6529 163.43 76.3108C164.301 75.9634 165.171 75.095 164.823 73.8792C163.605 70.0582 161.515 67.2792 158.034 65.195C155.77 63.8056 153.159 62.9371 150.722 62.0687C148.981 61.5477 147.24 60.8529 145.673 59.9845C140.45 57.2056 142.191 54.0792 151.244 50.2582C151.94 50.2582 152.288 49.0424 151.418 48.695Z" fill="white"/>
<path d="M165.345 60.8521C165.694 60.1574 165.52 59.6363 164.997 59.1153C164.649 58.5942 163.953 58.7679 163.604 59.1153C160.819 61.3732 160.819 67.9732 162.212 71.0995C163.953 74.9205 167.783 76.4837 171.787 75.4416C175.617 74.3995 178.577 71.2732 178.751 67.2784C179.099 63.11 176.662 57.5521 172.135 56.51C170.046 55.989 169.176 58.2469 170.22 59.81C171.787 61.7205 173.528 63.11 174.05 65.7153C174.398 68.1469 173.18 70.4048 170.742 71.2732C168.479 72.1416 166.216 71.2732 165.171 69.0153C164.649 67.7995 164.475 66.41 164.475 65.1942C164.475 64.6732 164.475 64.1521 164.475 63.6311C164.475 62.9363 164.127 61.1995 164.127 60.6784C164.301 60.8521 164.997 61.3732 165.345 60.8521Z" fill="white"/>
<path d="M182.407 55.8162C182.581 55.4688 182.581 55.4688 182.581 55.1215C182.581 54.7741 182.407 54.6004 182.059 54.6004C181.362 54.4267 181.188 54.4267 180.492 54.7741C180.144 54.9478 179.969 55.4688 179.969 55.8162C179.273 63.2846 181.014 72.6636 183.103 79.7846C183.8 81.8688 186.759 81.0004 186.411 78.9162C184.844 71.2741 183.277 63.1109 182.233 55.9899C182.233 55.9899 182.407 55.9899 182.407 55.8162Z" fill="white"/>
<path d="M180.492 55.6422C182.407 53.3843 187.978 54.7738 189.371 56.858C190.241 58.0738 190.415 59.8106 189.022 60.679C187.978 61.3738 187.107 60.8527 186.063 60.5053C184.67 59.9843 183.451 61.7211 184.148 62.9369C185.54 65.1948 188.674 65.1948 190.763 63.6317C193.027 62.0685 193.375 59.2896 192.33 56.858C191.111 54.2527 188.5 52.8632 185.715 52.5159C183.451 52.3422 180.492 52.5159 179.621 54.9475C179.447 55.4685 180.144 55.9896 180.492 55.6422Z" fill="white"/>
<path d="M191.633 54.4261C190.937 61.3735 190.937 73.0103 195.812 78.5682C196.334 79.2629 197.727 78.7419 197.727 77.8735C197.378 74.3998 195.289 71.2735 194.419 67.7998C193.2 63.4577 192.852 59.1156 192.678 54.5998C192.504 53.905 191.807 53.905 191.633 54.4261Z" fill="white"/>
<path d="M192.33 55.9896C192.156 54.4264 194.767 54.7738 195.638 54.9474C196.682 55.2948 197.901 55.9896 198.597 56.858C200.164 58.5948 199.468 60.8527 197.553 61.8948C195.812 62.9369 196.857 65.8896 198.946 65.1948C203.994 63.458 203.124 56.858 199.468 54.2527C197.727 53.0369 195.116 52.1685 193.026 52.8632C191.634 53.3843 190.241 54.7738 191.46 56.1632C191.808 56.5106 192.504 56.5106 192.33 55.9896Z" fill="white"/>
<path d="M206.084 57.0311C204.517 62.9363 203.995 71.6206 206.432 77.3521C206.78 78.2206 208.173 78.2205 208.173 77.1784C208.173 73.8784 207.129 70.5784 206.955 67.2784C206.606 63.9784 206.78 60.6784 206.606 57.2048C206.432 56.8574 206.084 56.8574 206.084 57.0311Z" fill="white"/>
<path d="M213.222 63.632C212.351 65.1952 212.351 67.2794 212.177 69.0162C212.003 70.753 211.481 73.0109 212.351 74.5741C212.699 75.0952 213.57 75.0952 213.918 74.5741C214.788 73.0109 214.266 71.1004 214.266 69.3636C214.266 67.6267 214.788 65.5425 214.266 63.8057C214.092 63.2846 213.396 63.1109 213.222 63.632Z" fill="white"/>
<path d="M213.395 58.4213C213.221 58.2476 213.047 58.0739 212.699 57.9002C212.525 57.9002 212.35 57.7266 212.176 57.7266C212.002 57.7266 211.654 57.7266 211.48 57.9002C211.306 57.9002 211.306 58.0739 211.132 58.2476C210.958 58.7687 211.132 59.116 211.48 59.4634C211.654 59.4634 211.654 59.6371 211.828 59.6371C212.002 59.8108 212.176 59.8108 212.35 59.8108C212.699 59.9845 213.221 59.8108 213.395 59.4634C213.395 59.2897 213.569 59.116 213.569 58.9424C213.743 58.7687 213.569 58.595 213.395 58.4213Z" fill="white"/>
<path d="M221.752 66.2373C224.015 66.0637 230.457 65.1952 230.457 62.0689C230.631 58.7689 225.582 59.29 223.667 60.3321C220.707 62.0689 219.141 65.7163 220.185 69.0163C221.404 72.49 224.712 74.5742 228.368 73.7058C229.412 73.3584 229.586 71.6216 228.368 71.4479C224.886 70.9268 221.404 67.8005 223.493 64.1531C224.015 63.4584 224.538 62.9373 225.234 62.4163C225.93 62.0689 228.89 60.6794 227.671 63.111C227.497 63.6321 225.234 64.3268 224.886 64.5005C223.841 64.8479 222.797 65.1952 221.578 65.3689C221.23 65.3689 221.23 66.2373 221.752 66.2373Z" fill="white"/>
<path d="M242.817 56.5105C240.032 54.079 235.853 56.8579 235.331 60.1579C234.635 65.3684 245.429 66.4105 247.17 70.7526C247.344 70.0579 247.518 69.5369 247.692 68.8421C245.254 71.1 241.947 71.7947 238.639 71.6211C236.376 71.4474 235.853 75.0947 238.117 75.6158C242.817 76.6579 247.17 75.0947 250.303 71.4474C250.826 70.7526 251 69.8842 250.651 69.1895C249.085 66.4105 246.647 64.6737 243.862 63.2842C242.469 62.5895 240.206 62.0684 239.335 60.8526C237.594 58.7684 240.902 57.9 242.469 57.5526C242.991 57.5526 243.165 56.8579 242.817 56.5105Z" fill="white"/>
</g>
<defs>
<clipPath id="clip0">
<rect width="116" height="107" fill="white"/>
</clipPath>
<clipPath id="clip1">
<rect width="125" height="33" fill="white" transform="translate(126 48)"/>
</clipPath>
</defs>
</svg>
