<svg width="14" height="14" viewBox="0 0 14 14" fill="none" xmlns="http://www.w3.org/2000/svg">
<path d="M11.4243 4.97C12.1806 5.94672 12.5927 7.1461 12.5965 8.3814C12.6003 9.61669 12.1955 10.8186 11.4452 11.7999C10.6949 12.7812 9.64114 13.4869 8.44806 13.8071C7.25498 14.1274 5.9895 14.0441 4.84867 13.5703C3.70784 13.0965 2.75568 12.2588 2.14044 11.1876C1.52521 10.1164 1.28143 8.87184 1.44706 7.64769C1.61269 6.42354 2.17844 5.28851 3.05622 4.41933C3.93399 3.55014 5.07453 2.99558 6.30025 2.842V1.4H7.70025V2.842C8.72225 2.968 9.66025 3.374 10.4303 3.976L11.4523 2.954L12.4463 3.948L11.4243 4.963V4.97ZM7.00025 12.6C8.11416 12.6 9.18245 12.1575 9.9701 11.3698C10.7578 10.5822 11.2003 9.51391 11.2003 8.4C11.2003 7.28609 10.7578 6.2178 9.9701 5.43015C9.18245 4.6425 8.11416 4.2 7.00025 4.2C5.88634 4.2 4.81806 4.6425 4.0304 5.43015C3.24275 6.2178 2.80025 7.28609 2.80025 8.4C2.80025 9.51391 3.24275 10.5822 4.0304 11.3698C4.81806 12.1575 5.88634 12.6 7.00025 12.6ZM4.90025 0H9.10025V1.4H4.90025V0ZM8.48425 5.922L9.47825 6.916L7.00025 9.38L6.01325 8.4L8.48425 5.922Z" fill="#F2DA00"/>
</svg>
