<svg width="26" height="32" viewBox="0 0 26 32" fill="none" xmlns="http://www.w3.org/2000/svg">
<path d="M23.112 11.36C24.8407 13.5925 25.7827 16.3339 25.7914 19.1575C25.8 21.981 24.8748 24.7282 23.1598 26.9712C21.4449 29.2143 19.0363 30.8273 16.3093 31.5592C13.5822 32.2911 10.6897 32.1007 8.08211 31.0178C5.4745 29.9348 3.29813 28.0201 1.89188 25.5716C0.485628 23.1232 -0.071582 20.2785 0.307006 17.4804C0.685595 14.6824 1.97874 12.088 3.98508 10.1013C5.99143 8.11461 8.59837 6.84705 11.4 6.496V3.2H14.6V6.496C16.936 6.784 19.08 7.712 20.84 9.088L23.176 6.752L25.448 9.024L23.112 11.344V11.36ZM13 28.8C15.5461 28.8 17.9879 27.7886 19.7882 25.9882C21.5886 24.1879 22.6 21.7461 22.6 19.2C22.6 16.6539 21.5886 14.2121 19.7882 12.4118C17.9879 10.6114 15.5461 9.6 13 9.6C10.4539 9.6 8.01214 10.6114 6.21179 12.4118C4.41144 14.2121 3.40002 16.6539 3.40002 19.2C3.40002 21.7461 4.41144 24.1879 6.21179 25.9882C8.01214 27.7886 10.4539 28.8 13 28.8V28.8ZM8.20002 0H17.8V3.2H8.20002V0ZM16.392 13.536L18.664 15.808L13 21.44L10.744 19.2L16.392 13.536V13.536Z" fill="#F5DC00"/>
</svg>
