<?xml version="1.0" encoding="utf-8"?>
<!-- Generator: Adobe Illustrator 24.1.3, SVG Export Plug-In . SVG Version: 6.00 Build 0)  -->
<svg version="1.1" id="Layer_1" xmlns="http://www.w3.org/2000/svg" xmlns:xlink="http://www.w3.org/1999/xlink" x="0px" y="0px"
	 viewBox="0 0 414 123" style="enable-background:new 0 0 414 123;" xml:space="preserve">
<style type="text/css">
	.st0{fill-rule:evenodd;clip-rule:evenodd;fill:#154945;}
</style>
<path class="st0" d="M414,67.9V0H0v94.3c5.7,3.9,13,8.9,14.3,12.7c1.5-0.1,4.4,2.4,7.3,4.8h0c2.9,2.4,5.7,4.7,7.1,4.7
	c1.9,0,3.8-0.1,5.9-0.2h0c6.6-0.3,13.9-0.6,21.4,1.9c1.9,0.6,27.3,5.1,28.9,4c5.6-1.6,20.1-5.3,26.5-5.7c9.6-0.5,16-4.9,21.2-11.2
	c4.8-5.8,10.3-7.3,15.7-8.7c5.5-1.4,10.9-2.9,15.7-8.8c6.5-8.1,15.2-13.5,27.9-12.5c2.9,0.2,5.8,0.2,8.7,0.1c1.5,0,2.9-0.1,4.4-0.1
	c10.5,0,18.6-3.7,25.3-10.5c2.8-2.9,6.9-6.4,11.3-9.6h37.5c15,9.4,35.3,21.4,49.7,20.5c5.3-0.3,13-1.4,20.2-2.4v0
	c8.1-1.1,15.5-2.2,17.7-1.9c7.3,0.8,10.9-1.6,14.1-3.7c3.6-2.4,6.8-4.5,14.4-1.1c3.8,1.6,7.8,1.6,11.9,1.5
	C409.4,68,411.7,67.9,414,67.9z"/>
</svg>
