<svg width="414" height="123" viewBox="0 0 414 123" fill="none" xmlns="http://www.w3.org/2000/svg">
<path fill-rule="evenodd" clip-rule="evenodd" d="M414 67.8791V0H0V94.295C5.73181 98.1795 13.0455 103.158 14.3398 107.035C15.8101 106.972 18.7513 109.415 21.6742 111.842L21.6744 111.842C24.5251 114.21 27.3584 116.562 28.7925 116.562C30.676 116.562 32.6383 116.479 34.6655 116.393H34.6656C41.2801 116.113 48.5847 115.804 56.0921 118.258C57.98 118.875 83.4 123.377 84.9975 122.266C90.618 120.663 105.093 116.933 111.482 116.562C121.067 116.069 127.457 111.625 132.685 105.329C137.529 99.491 142.97 98.062 148.396 96.637C153.87 95.1996 159.328 93.7662 164.141 87.815C170.677 79.6677 179.39 74.3596 192.025 75.3472C194.929 75.594 197.833 75.5117 200.738 75.4295C202.19 75.3883 203.642 75.3472 205.095 75.3472C215.551 75.3472 223.683 71.6438 230.364 64.8544C233.152 61.9472 237.295 58.489 241.623 55.2608H279.121C294.144 64.6518 314.411 76.7069 328.826 75.7175C334.132 75.3705 341.861 74.2921 349.01 73.2945L349.01 73.2944C357.123 72.1625 364.491 71.1344 366.729 71.3969C374.05 72.2036 377.637 69.8099 380.829 67.6805C384.475 65.2477 387.604 63.1596 395.193 66.5826C398.969 68.1874 403.035 68.1874 407.102 68.0639C409.364 67.9952 411.672 67.9265 414 67.8791Z" fill="#679289"/>
</svg>
