<svg width="31" height="31" viewBox="0 0 31 31" fill="none" xmlns="http://www.w3.org/2000/svg">
<path d="M15.5 31C11.3891 31 7.44666 29.367 4.53984 26.4602C1.63303 23.5533 0 19.6109 0 15.5C0 11.3891 1.63303 7.44666 4.53984 4.53984C7.44666 1.63303 11.3891 0 15.5 0C19.6109 0 23.5533 1.63303 26.4602 4.53984C29.367 7.44666 31 11.3891 31 15.5C31 19.6109 29.367 23.5533 26.4602 26.4602C23.5533 29.367 19.6109 31 15.5 31ZM18.6 10.85C18.6 11.284 18.2745 12.09 17.949 12.4L15.5 14.849C14.6165 15.748 13.95 17.329 13.95 18.6V20.15H17.05V18.6C17.05 18.1505 17.3755 17.36 17.701 17.05L20.15 14.601C21.0335 13.702 21.7 12.121 21.7 10.85C21.7 9.20566 21.0468 7.62866 19.8841 6.46594C18.7213 5.30321 17.1443 4.65 15.5 4.65C13.8557 4.65 12.2787 5.30321 11.1159 6.46594C9.95321 7.62866 9.3 9.20566 9.3 10.85H12.4C12.4 10.0278 12.7266 9.23933 13.308 8.65797C13.8893 8.07661 14.6778 7.75 15.5 7.75C16.3222 7.75 17.1107 8.07661 17.692 8.65797C18.2734 9.23933 18.6 10.0278 18.6 10.85ZM13.95 23.25V26.35H17.05V23.25H13.95Z" fill="#679289"/>
</svg>
