<svg width="181" height="66" viewBox="0 0 181 66" fill="none" xmlns="http://www.w3.org/2000/svg">
<path d="M2.22521 2.24267L10.1144 1.38544C10.4171 1.35254 10.6435 1.36623 10.7936 1.42649C10.9427 1.47728 11.0491 1.57579 11.1129 1.722C11.1766 1.86821 11.2219 2.06429 11.2486 2.31024C11.2753 2.55619 11.2733 2.75741 11.2424 2.9139C11.2105 3.06093 11.1409 3.16899 11.0336 3.23808C10.8725 3.34172 10.636 3.4105 10.3238 3.44442L7.61365 3.7389L8.38917 10.8761C8.41281 11.0936 8.42082 11.2555 8.41321 11.3616C8.41506 11.4667 8.38585 11.5943 8.32559 11.7444C8.27377 11.884 8.16107 11.992 7.98751 12.0683C7.81395 12.1446 7.58054 12.1986 7.2873 12.2305C6.99406 12.2624 6.75448 12.2597 6.56859 12.2224C6.39215 12.1842 6.2589 12.103 6.16883 11.9787C6.0872 11.844 6.03127 11.7257 6.00104 11.6237C5.97925 11.5112 5.95653 11.3462 5.93289 11.1286L5.15891 4.00563L2.43458 4.30165C2.13187 4.33454 1.90598 4.32559 1.75689 4.27479C1.60678 4.21454 1.49985 4.1113 1.4361 3.96509C1.37236 3.81888 1.32713 3.6228 1.3004 3.37685C1.27368 3.1309 1.27625 2.93441 1.30813 2.78738C1.33899 2.63089 1.40808 2.5181 1.51543 2.44901C1.67645 2.34537 1.91304 2.27659 2.22521 2.24267Z" fill="black" fill-opacity="0.25"/>
<path d="M19.6029 3.22817C19.6891 3.09128 19.8244 3.00087 20.0088 2.95692C20.1932 2.91298 20.423 2.90093 20.6983 2.92077C20.9735 2.94061 21.1901 2.98007 21.348 3.03916C21.5059 3.09824 21.6252 3.16408 21.7058 3.23667C21.7864 3.30926 21.846 3.40895 21.8846 3.53575C21.9204 3.70051 21.9263 3.94898 21.9024 4.28114L21.3328 12.182C21.3171 12.4003 21.2956 12.5657 21.2684 12.6782C21.2514 12.7819 21.1998 12.9022 21.1136 13.0391C20.9623 13.2858 20.5829 13.3872 19.9755 13.3434C19.3112 13.2955 18.9347 13.0919 18.8462 12.7326C18.8008 12.5671 18.7902 12.3183 18.8141 11.9861L19.0224 9.09626L15.2499 8.82431L15.0406 11.7284C15.0249 11.9467 15.0034 12.1121 14.9762 12.2246C14.9592 12.3283 14.9076 12.4486 14.8214 12.5855C14.6701 12.8322 14.2907 12.9336 13.6833 12.8898C13.019 12.8419 12.6425 12.6383 12.5539 12.2789C12.5086 12.1135 12.4979 11.8647 12.5219 11.5325L13.0915 3.63166C13.1072 3.41337 13.1236 3.25238 13.1406 3.14867C13.1678 3.03615 13.2245 2.91145 13.3106 2.77456C13.462 2.5279 13.8414 2.42646 14.4487 2.47024C15.1131 2.51813 15.4943 2.7221 15.5923 3.08215C15.6282 3.24691 15.6341 3.49537 15.6102 3.82754L15.4008 6.73164L19.1733 7.0036L19.3837 4.08526C19.3994 3.86698 19.4158 3.70598 19.4328 3.60227C19.46 3.48975 19.5167 3.36505 19.6029 3.22817Z" fill="black" fill-opacity="0.25"/>
<path d="M26.0705 9.40821L30.4605 9.17968C30.6791 9.1683 30.8411 9.1694 30.9466 9.18296C31.0612 9.18652 31.1917 9.22261 31.3382 9.29121C31.6016 9.41088 31.7492 9.77479 31.7809 10.3829C31.8155 11.0481 31.66 11.4468 31.3143 11.5792C31.1558 11.6446 30.9102 11.686 30.5776 11.7033L24.9332 11.9971C24.2681 12.0317 23.8691 11.8715 23.7363 11.5163C23.6713 11.3672 23.6302 11.1264 23.6129 10.7938L23.2004 2.86893C23.1751 2.38431 23.2483 2.05178 23.42 1.87134C23.5911 1.6814 23.9285 1.57332 24.4321 1.5471L30.048 1.25476C30.2665 1.24339 30.4286 1.24448 30.5341 1.25804C30.6486 1.26161 30.7791 1.29769 30.9256 1.36629C31.1891 1.48597 31.3367 1.84988 31.3683 2.45802C31.403 3.12319 31.2474 3.52193 30.9018 3.65426C30.7432 3.71968 30.4977 3.76105 30.1651 3.77836L25.7893 4.00615L25.8642 5.44575L28.6864 5.29884C28.9049 5.28746 29.067 5.28856 29.1725 5.30212C29.287 5.30569 29.4175 5.34177 29.564 5.41037C29.8275 5.53004 29.9751 5.89395 30.0067 6.5021C30.0414 7.16726 29.8811 7.56626 29.5259 7.69908C29.3674 7.7645 29.1218 7.80587 28.7892 7.82318L25.9955 7.96861L26.0705 9.40821Z" fill="black" fill-opacity="0.25"/>
<path d="M1.03581 1.05322L8.92503 0.195983C9.22773 0.163091 9.45414 0.176774 9.60425 0.237032C9.75334 0.287831 9.85976 0.386336 9.9235 0.532549C9.98724 0.678761 10.0325 0.874841 10.0592 1.12079C10.0859 1.36673 10.0839 1.56795 10.053 1.72444C10.0211 1.87148 9.95152 1.97954 9.84417 2.04863C9.68315 2.15226 9.44656 2.22104 9.1344 2.25496L6.42425 2.54944L7.19978 9.68663C7.22342 9.9042 7.23143 10.066 7.22382 10.1721C7.22567 10.2772 7.19646 10.4048 7.1362 10.5549C7.08438 10.6946 6.97168 10.8025 6.79812 10.8788C6.62456 10.9551 6.39115 11.0092 6.09791 11.041C5.80466 11.0729 5.56509 11.0702 5.3792 11.033C5.20276 10.9947 5.06951 10.9135 4.97944 10.7893C4.8978 10.6546 4.84187 10.5362 4.81165 10.4343C4.78986 10.3218 4.76714 10.1567 4.7435 9.93917L3.96952 2.81618L1.24518 3.1122C0.942481 3.14509 0.716586 3.13614 0.567498 3.08534C0.417383 3.02508 0.310454 2.92185 0.246711 2.77563C0.182967 2.62942 0.137734 2.43334 0.111009 2.1874C0.0842847 1.94145 0.0868623 1.74496 0.118742 1.59793C0.149593 1.44144 0.218693 1.32865 0.326039 1.25956C0.487059 1.15592 0.723651 1.08714 1.03581 1.05322Z" fill="#1D7874"/>
<path d="M18.4135 2.03871C18.4997 1.90183 18.635 1.81141 18.8194 1.76747C19.0038 1.72353 19.2336 1.71147 19.5089 1.73132C19.7841 1.75116 20.0007 1.79062 20.1586 1.8497C20.3165 1.90879 20.4358 1.97462 20.5164 2.04721C20.597 2.11981 20.6566 2.2195 20.6952 2.3463C20.731 2.51106 20.7369 2.75952 20.713 3.09169L20.1434 10.9926C20.1277 11.2108 20.1062 11.3762 20.079 11.4888C20.062 11.5925 20.0104 11.7128 19.9242 11.8497C19.7729 12.0963 19.3935 12.1978 18.7861 12.154C18.1218 12.1061 17.7453 11.9025 17.6568 11.5431C17.6115 11.3777 17.6008 11.1288 17.6247 10.7967L17.833 7.90681L14.0606 7.63485L13.8512 10.539C13.8355 10.7572 13.814 10.9226 13.7868 11.0352C13.7698 11.1389 13.7182 11.2592 13.632 11.3961C13.4807 11.6427 13.1013 11.7442 12.4939 11.7004C11.8296 11.6525 11.4531 11.4489 11.3645 11.0895C11.3192 10.9241 11.3085 10.6752 11.3325 10.3431L11.9021 2.4422C11.9178 2.22392 11.9342 2.06292 11.9512 1.95921C11.9784 1.84669 12.0351 1.72199 12.1213 1.58511C12.2726 1.33844 12.652 1.237 13.2594 1.28079C13.9237 1.32868 14.3049 1.53265 14.403 1.89269C14.4388 2.05745 14.4447 2.30592 14.4208 2.63809L14.2114 5.54219L17.9839 5.81415L18.1943 2.89581C18.21 2.67753 18.2264 2.51653 18.2434 2.41282C18.2706 2.3003 18.3273 2.1756 18.4135 2.03871Z" fill="#1D7874"/>
<path d="M24.8811 8.21876L29.2711 7.99023C29.4897 7.97885 29.6517 7.97994 29.7572 7.99351C29.8718 7.99707 30.0023 8.03315 30.1488 8.10175C30.4123 8.22143 30.5598 8.58534 30.5915 9.19349C30.6261 9.85865 30.4706 10.2574 30.1249 10.3897C29.9664 10.4551 29.7208 10.4965 29.3882 10.5138L23.7439 10.8077C23.0787 10.8423 22.6797 10.682 22.5469 10.3269C22.4819 10.1778 22.4408 9.93697 22.4235 9.60439L22.011 1.67947C21.9857 1.19486 22.059 0.862329 22.2306 0.681889C22.4017 0.491947 22.7391 0.383867 23.2427 0.35765L28.8586 0.0653092C29.0772 0.0539321 29.2392 0.0550254 29.3447 0.0685891C29.4592 0.0721554 29.5897 0.108238 29.7362 0.176836C29.9997 0.296513 30.1473 0.660425 30.1789 1.26857C30.2136 1.93373 30.0581 2.33248 29.7124 2.46481C29.5538 2.53023 29.3083 2.5716 28.9757 2.58891L24.5999 2.8167L24.6748 4.2563L27.497 4.10939C27.7155 4.09801 27.8776 4.0991 27.9831 4.11267C28.0976 4.11623 28.2281 4.15231 28.3746 4.22091C28.6381 4.34059 28.7857 4.7045 28.8173 5.31265C28.852 5.97781 28.6917 6.3768 28.3365 6.50963C28.178 6.57505 27.9324 6.61642 27.5998 6.63373L24.8061 6.77916L24.8811 8.21876Z" fill="#1D7874"/>
<path d="M14.8858 20.0208C15.0562 19.7048 15.3181 19.4782 15.6716 19.341C16.0251 19.2038 16.4677 19.1181 16.9995 19.0839C17.5502 19.0485 17.99 19.0679 18.319 19.1421C18.648 19.2162 18.9022 19.3143 19.0816 19.4363C19.2611 19.5582 19.3974 19.7497 19.4905 20.0106C19.6252 20.3262 19.7139 20.8163 19.7567 21.481L20.3101 30.0839C20.4714 32.5907 19.8394 34.9198 18.4141 37.071C17.7168 38.0884 16.7894 38.9394 15.6321 39.6241C14.4735 40.2898 13.1631 40.6697 11.7008 40.7638C10.2575 40.8566 8.91802 40.6377 7.68249 40.107C6.46595 39.575 5.45558 38.8391 4.6514 37.8992C2.98361 35.9851 2.06786 33.7557 1.90414 31.2109L1.3525 22.6364C1.32318 22.1806 1.31129 21.8476 1.31684 21.6375C1.34016 21.4072 1.41863 21.1447 1.55223 20.8501C1.68583 20.5554 1.92938 20.3395 2.28288 20.2024C2.63638 20.0652 3.11699 19.9771 3.7247 19.938C4.33241 19.8989 4.82035 19.9247 5.18851 20.0154C5.55667 20.1061 5.81639 20.2897 5.96765 20.566C6.22364 20.9881 6.37608 21.579 6.42495 22.3387L6.97475 30.8846C7.04928 32.0431 7.40501 33.1262 8.04194 34.1341C8.36102 34.6475 8.81581 35.0473 9.40631 35.3335C9.99681 35.6197 10.6814 35.7378 11.46 35.6877C12.8464 35.5985 13.8484 35.0191 14.4661 33.9496C15.0838 32.8801 15.3493 31.6712 15.2625 30.3228L14.7017 21.6059C14.6541 20.8653 14.7154 20.3369 14.8858 20.0208Z" fill="black" fill-opacity="0.25"/>
<path d="M37.2827 25.5035C37.4848 25.1954 37.7599 25.0001 38.108 24.9174C38.4561 24.8347 38.881 24.8113 39.3827 24.8472C39.9024 24.8843 40.3114 24.9583 40.6096 25.0692C40.9258 25.1813 41.1511 25.305 41.2855 25.44C41.4379 25.5763 41.541 25.7718 41.5949 26.0265C41.682 26.3194 41.7033 26.7779 41.6587 27.4019L40.5988 42.2437C40.5683 42.6716 40.5281 42.9823 40.4782 43.1759C40.4463 43.3707 40.3491 43.5967 40.1866 43.8539C39.9014 44.3173 39.1854 44.5081 38.0385 44.4262C37.3397 44.3763 36.8597 44.2882 36.5985 44.1621C36.3374 44.0359 36.1255 43.8505 35.9629 43.606C32.313 37.9696 29.9105 34.286 28.7554 32.5549L28.1271 41.3531C28.0965 41.7809 28.0563 42.0916 28.0065 42.2852C27.9745 42.48 27.8773 42.706 27.7149 42.9632C27.4296 43.4266 26.7136 43.6174 25.5668 43.5355C24.4558 43.4562 23.7921 43.1669 23.5756 42.6676C23.4513 42.3899 23.3789 42.1429 23.3583 41.9264C23.3557 41.7111 23.369 41.3985 23.3983 40.9885L24.464 26.0664C24.5123 25.3889 24.628 24.9044 24.8109 24.6129C25.013 24.3048 25.2881 24.1094 25.6362 24.0267C25.9843 23.9441 26.4272 23.9219 26.9647 23.9603C27.5023 23.9987 27.9196 24.0823 28.2166 24.211C28.5328 24.3232 28.7491 24.4461 28.8656 24.5799C28.9335 24.6385 29.123 24.885 29.4342 25.3193C32.8497 30.706 35.1351 34.2648 36.2902 35.9959L36.9357 26.9571C36.9841 26.2796 37.0997 25.7951 37.2827 25.5035Z" fill="black" fill-opacity="0.25"/>
<path d="M59.554 21.943C60.1335 22.9054 60.4764 24.0028 60.5826 25.2352C60.6888 26.4676 60.5387 27.6075 60.1323 28.6548C59.7243 29.6832 59.1569 30.5248 58.4302 31.1795C56.961 32.5286 55.3827 33.2758 53.6953 33.4212L50.1403 33.7275L50.4172 36.9412C50.4547 37.3773 50.4644 37.7107 50.446 37.9415C50.445 38.1517 50.381 38.4055 50.2538 38.703C50.0325 39.2378 49.3151 39.5574 48.1016 39.662C46.7744 39.7763 45.9668 39.4926 45.6789 38.8106C45.5373 38.4981 45.438 38.0101 45.3808 37.3465L44.0209 21.5622C43.9833 21.1261 43.965 20.803 43.966 20.5928C43.9843 20.362 44.0571 20.0978 44.1842 19.8004C44.4056 19.2656 45.123 18.9459 46.3364 18.8414L52.4226 18.317C54.0911 18.1732 55.7644 18.6403 57.4427 19.7182C58.2707 20.2389 58.9745 20.9805 59.554 21.943ZM53.29 28.3848C53.8588 28.3358 54.4002 28.079 54.9141 27.6146C55.428 27.1501 55.649 26.5007 55.5771 25.6664C55.5052 24.8322 55.1764 24.2302 54.5906 23.8605C54.0032 23.4717 53.4156 23.3027 52.8279 23.3533L49.2729 23.6596L49.7066 28.6935L53.29 28.3848Z" fill="black" fill-opacity="0.25"/>
<path d="M66.4937 36.0097L74.2346 36.6128C74.8607 36.6616 75.3102 36.773 75.5829 36.947C75.8572 37.102 76.0299 37.3349 76.1011 37.6459C76.1723 37.9568 76.188 38.3684 76.1481 38.8807C76.1096 39.374 76.0311 39.7687 75.9126 40.0649C75.7941 40.3611 75.6166 40.5572 75.38 40.6533C75.0048 40.815 74.5041 40.8714 73.878 40.8226L63.6326 40.0243C62.3045 39.9208 61.5548 39.4997 61.3833 38.761C61.2931 38.4485 61.2739 37.9603 61.3256 37.2962L62.5586 21.4729C62.5926 21.0365 62.6272 20.7147 62.6624 20.5075C62.7181 20.2828 62.8329 20.0341 63.0069 19.7613C63.3124 19.2697 64.0723 19.0713 65.2866 19.1659C66.6147 19.2694 67.3747 19.6817 67.5667 20.4029C67.6364 20.7329 67.6454 21.2298 67.5936 21.8939L66.4937 36.0097Z" fill="black" fill-opacity="0.25"/>
<path d="M89.7048 20.6851L98.8781 35.8167C99.2612 36.4304 99.4679 36.8983 99.4984 37.2204C99.5629 37.9024 99.0717 38.5701 98.0249 39.2235C97.4112 39.6065 96.9149 39.816 96.536 39.8518C96.176 39.8859 95.8648 39.8293 95.6024 39.6821C95.3589 39.5331 95.1714 39.3692 95.0398 39.1905C94.9271 39.01 94.7581 38.7393 94.5328 38.3783L92.7647 35.4489L84.8927 36.1937L83.7053 39.4027C83.5517 39.7995 83.4262 40.0886 83.3286 40.2699C83.25 40.4493 83.0965 40.6454 82.8682 40.8582C82.6569 41.0502 82.3619 41.1642 81.983 41.2C81.623 41.2341 81.1057 41.1205 80.4311 40.8594C79.282 40.4329 78.6752 39.8786 78.6107 39.1966C78.5802 38.8745 78.6956 38.3761 78.9567 37.7015L85.1268 21.0896C85.2939 20.6341 85.5734 20.254 85.9651 19.9493C86.3757 19.6429 86.8179 19.4672 87.2915 19.4224C88.3146 19.3256 89.119 19.7465 89.7048 20.6851ZM88.0482 27.7233L86.5409 31.7941L90.3206 31.4365L88.0482 27.7233Z" fill="black" fill-opacity="0.25"/>
<path d="M115.701 22.761C115.919 22.435 116.212 22.2297 116.582 22.1451C116.951 22.0606 117.402 22.0399 117.933 22.083C118.483 22.1277 118.915 22.2106 119.23 22.3316C119.564 22.4541 119.801 22.588 119.942 22.7331C120.102 22.8797 120.209 23.0889 120.263 23.3606C120.353 23.6733 120.37 24.1616 120.316 24.8255L119.034 40.6163C118.997 41.0715 118.951 41.4019 118.896 41.6075C118.86 41.8146 118.755 42.0542 118.58 42.3264C118.273 42.817 117.512 43.013 116.298 42.9144C115.559 42.8543 115.051 42.7558 114.776 42.6189C114.5 42.482 114.278 42.2825 114.108 42.0205C110.303 35.9836 107.797 32.0379 106.592 30.1835L105.832 39.5441C105.795 39.9993 105.749 40.3297 105.694 40.5353C105.658 40.7424 105.553 40.9821 105.378 41.2543C105.071 41.7448 104.311 41.9408 103.097 41.8422C101.921 41.7467 101.221 41.4321 100.997 40.8984C100.868 40.6016 100.794 40.3378 100.775 40.1071C100.774 39.8779 100.792 39.5452 100.827 39.109L102.116 23.2329C102.175 22.5121 102.303 21.9974 102.499 21.6888C102.717 21.3628 103.01 21.1575 103.38 21.073C103.75 20.9884 104.219 20.9693 104.788 21.0155C105.357 21.0617 105.798 21.1548 106.111 21.2948C106.445 21.4174 106.673 21.5504 106.795 21.694C106.866 21.7571 107.064 22.0214 107.389 22.4869C110.949 28.2557 113.332 32.0673 114.537 33.9217L115.318 24.305C115.377 23.5842 115.504 23.0696 115.701 22.761Z" fill="black" fill-opacity="0.25"/>
<path d="M134.965 20.2071C135.132 19.8525 135.391 19.606 135.744 19.4676C136.097 19.3293 136.54 19.2421 137.071 19.206C137.622 19.1687 138.062 19.1866 138.391 19.2597C138.739 19.3314 138.994 19.4286 139.155 19.5513C139.335 19.6726 139.472 19.8636 139.566 20.1243C139.7 20.4203 139.79 20.9006 139.835 21.5652L140.906 37.3717C140.937 37.8273 140.94 38.1609 140.916 38.3723C140.912 38.5825 140.843 38.8351 140.71 39.1302C140.479 39.6608 139.756 39.9673 138.541 40.0497C137.801 40.0999 137.284 40.0776 136.991 39.983C136.699 39.8884 136.449 39.7241 136.243 39.4901C131.585 34.0836 128.523 30.5526 127.056 28.8971L127.691 38.2671C127.722 38.7228 127.726 39.0563 127.702 39.2678C127.697 39.4779 127.628 39.7305 127.496 40.0256C127.264 40.5563 126.541 40.8628 125.326 40.9451C124.149 41.0249 123.41 40.8174 123.11 40.3228C122.938 40.0483 122.826 39.7984 122.773 39.5731C122.738 39.3466 122.706 39.015 122.677 38.5783L121.6 22.6863C121.551 21.9648 121.601 21.4369 121.75 21.1025C121.917 20.7479 122.177 20.5014 122.53 20.3631C122.883 20.2247 123.344 20.1362 123.914 20.0976C124.483 20.059 124.933 20.0857 125.264 20.1778C125.612 20.2496 125.857 20.3474 125.999 20.4713C126.079 20.5231 126.314 20.7552 126.704 21.1674C131.08 26.3452 134 29.7617 135.467 31.4172L134.815 21.7909C134.766 21.0694 134.816 20.5415 134.965 20.2071Z" fill="black" fill-opacity="0.25"/>
<path d="M147.646 37.5968L156.416 38.2159C156.853 38.2467 157.174 38.2884 157.38 38.3411C157.607 38.3762 157.857 38.4797 158.131 38.6517C158.625 38.9536 158.829 39.7121 158.743 40.927C158.649 42.2558 158.243 43.0093 157.525 43.1875C157.194 43.2786 156.696 43.3008 156.032 43.2539L144.756 42.458C143.427 42.3642 142.674 41.9486 142.497 41.2111C142.405 40.8994 142.382 40.4113 142.429 39.7469L143.547 23.9149C143.615 22.9468 143.841 22.3046 144.226 21.9884C144.612 21.6532 145.308 21.5211 146.315 21.5921L157.534 22.384C157.97 22.4148 158.292 22.4565 158.498 22.5092C158.724 22.5443 158.974 22.6478 159.248 22.8198C159.742 23.1217 159.946 23.8801 159.86 25.0951C159.767 26.4239 159.361 27.1774 158.642 27.3556C158.311 27.4467 157.814 27.4689 157.149 27.422L148.408 26.8049L148.205 29.6809L153.843 30.0788C154.279 30.1096 154.601 30.1514 154.807 30.2041C155.033 30.2392 155.283 30.3427 155.557 30.5146C156.051 30.8166 156.255 31.575 156.17 32.7899C156.076 34.1188 155.66 34.8716 154.923 35.0485C154.592 35.1396 154.094 35.1617 153.43 35.1148L147.849 34.7209L147.646 37.5968Z" fill="black" fill-opacity="0.25"/>
<path d="M163.221 20.0849L168.492 19.7586C171.245 19.5733 173.733 20.4072 175.955 22.2602C178.177 24.0943 179.386 26.4639 179.581 29.369C179.775 32.255 178.917 34.8019 177.006 37.0096C175.113 39.216 172.715 40.4169 169.81 40.6125L164.597 40.9634C163.439 41.0413 162.702 40.8526 162.385 40.3971C162.13 40.0137 161.975 39.4137 161.921 38.5973L160.855 22.7618C160.824 22.3061 160.811 21.9732 160.816 21.7631C160.84 21.5517 160.918 21.2984 161.051 21.0034C161.282 20.4728 162.005 20.1667 163.221 20.0849ZM169.556 35.5656C170.923 35.4736 172.123 34.8873 173.157 33.8069C174.189 32.7074 174.653 31.3887 174.55 29.8507C174.446 28.3128 173.819 27.0675 172.667 26.1151C171.534 25.1423 170.245 24.7046 168.802 24.8017L166.068 24.9858L166.793 35.7516L169.556 35.5656Z" fill="black" fill-opacity="0.25"/>
<path d="M13.6964 18.8314C13.8668 18.5153 14.1287 18.2887 14.4822 18.1515C14.8357 18.0144 15.2783 17.9287 15.8101 17.8945C16.3608 17.8591 16.8007 17.8784 17.1296 17.9526C17.4586 18.0268 17.7128 18.1249 17.8923 18.2468C18.0717 18.3687 18.208 18.5602 18.3011 18.8212C18.4358 19.1367 18.5245 19.6268 18.5673 20.2915L19.1208 28.8945C19.282 31.4013 18.65 33.7303 17.2247 35.8815C16.5274 36.8989 15.6 37.75 14.4427 38.4347C13.2841 39.1004 11.9737 39.4803 10.5114 39.5743C9.06806 39.6672 7.72863 39.4483 6.4931 38.9175C5.27655 38.3855 4.26619 37.6496 3.46201 36.7097C1.79422 34.7956 0.878466 32.5662 0.714746 30.0214L0.163109 21.4469C0.133786 20.9911 0.1219 20.6582 0.127451 20.4481C0.150772 20.2177 0.229233 19.9552 0.362835 19.6606C0.496437 19.366 0.739987 19.1501 1.09349 19.0129C1.44699 18.8757 1.92759 18.7876 2.53531 18.7485C3.14302 18.7094 3.63096 18.7352 3.99912 18.826C4.36728 18.9167 4.62699 19.1002 4.77826 19.3765C5.03425 19.7987 5.18669 20.3896 5.23556 21.1492L5.78536 29.6952C5.85989 30.8536 6.21562 31.9368 6.85255 32.9446C7.17163 33.4581 7.62642 33.8579 8.21692 34.1441C8.80742 34.4303 9.49199 34.5483 10.2706 34.4982C11.657 34.409 12.659 33.8297 13.2767 32.7602C13.8944 31.6907 14.1599 30.4817 14.0731 29.1334L13.5123 20.4165C13.4647 19.6758 13.526 19.1475 13.6964 18.8314Z" fill="#071E22"/>
<path d="M36.0933 24.3141C36.2954 24.006 36.5705 23.8106 36.9186 23.7279C37.2667 23.6453 37.6916 23.6219 38.1933 23.6577C38.713 23.6948 39.122 23.7688 39.4202 23.8797C39.7364 23.9919 39.9617 24.1155 40.0962 24.2505C40.2485 24.3868 40.3516 24.5824 40.4055 24.8371C40.4926 25.13 40.5139 25.5884 40.4693 26.2124L39.4094 41.0543C39.3789 41.4821 39.3387 41.7928 39.2888 41.9864C39.2569 42.1812 39.1597 42.4072 38.9973 42.6644C38.712 43.1279 37.996 43.3186 36.8491 43.2367C36.1503 43.1868 35.6703 43.0988 35.4092 42.9726C35.148 42.8465 34.9361 42.6611 34.7735 42.4165C31.1236 36.7802 28.7211 33.0965 27.566 31.3655L26.9377 40.1636C26.9071 40.5915 26.8669 40.9022 26.8171 41.0957C26.7851 41.2906 26.688 41.5166 26.5255 41.7737C26.2403 42.2372 25.5242 42.428 24.3774 42.3461C23.2664 42.2667 22.6027 41.9774 22.3862 41.4781C22.2619 41.2005 22.1895 40.9534 22.1689 40.7369C22.1663 40.5217 22.1796 40.2091 22.2089 39.799L23.2746 24.877C23.3229 24.1995 23.4386 23.715 23.6215 23.4234C23.8236 23.1153 24.0987 22.9199 24.4468 22.8373C24.7949 22.7546 25.2378 22.7325 25.7753 22.7709C26.3129 22.8093 26.7302 22.8928 27.0272 23.0216C27.3434 23.1337 27.5597 23.2567 27.6762 23.3904C27.7441 23.449 27.9336 23.6955 28.2448 24.1299C31.6603 29.5165 33.9457 33.0754 35.1008 34.8064L35.7463 25.7676C35.7947 25.0902 35.9103 24.6056 36.0933 24.3141Z" fill="#071E22"/>
<path d="M58.3647 20.7536C58.9442 21.716 59.2871 22.8134 59.3933 24.0459C59.4994 25.2783 59.3493 26.4181 58.9429 27.4655C58.5349 28.4939 57.9676 29.3355 57.2408 29.9902C55.7717 31.3392 54.1934 32.0864 52.506 32.2318L48.9509 32.5381L49.2278 35.7519C49.2654 36.1879 49.275 36.5214 49.2567 36.7522C49.2557 36.9624 49.1916 37.2162 49.0645 37.5137C48.8431 38.0484 48.1257 38.3681 46.9123 38.4727C45.5851 38.587 44.7775 38.3032 44.4895 37.6213C44.348 37.3088 44.2486 36.8207 44.1915 36.1571L42.8315 20.3728C42.794 19.9368 42.7757 19.6136 42.7767 19.4034C42.795 19.1726 42.8677 18.9085 42.9949 18.611C43.2162 18.0763 43.9336 17.7566 45.1471 17.652L51.2333 17.1277C52.9018 16.9839 54.5751 17.451 56.2534 18.5288C57.0814 19.0496 57.7851 19.7912 58.3647 20.7536ZM52.1007 27.1955C52.6695 27.1465 53.2108 26.8897 53.7247 26.4252C54.2387 25.9607 54.4597 25.3114 54.3878 24.4771C54.3159 23.6429 53.9871 23.0409 53.4013 22.6711C52.8139 22.2824 52.2263 22.1134 51.6385 22.164L48.0835 22.4703L48.5172 27.5042L52.1007 27.1955Z" fill="#071E22"/>
<path d="M65.3043 34.8202L73.0452 35.4234C73.6713 35.4722 74.1208 35.5836 74.3935 35.7575C74.6678 35.9125 74.8405 36.1455 74.9117 36.4564C74.9829 36.7674 74.9986 37.179 74.9587 37.6913C74.9202 38.1846 74.8417 38.5793 74.7232 38.8755C74.6047 39.1716 74.4272 39.3678 74.1906 39.4639C73.8154 39.6255 73.3147 39.6819 72.6886 39.6331L62.4433 38.8348C61.1152 38.7313 60.3654 38.3102 60.1939 37.5715C60.1037 37.2591 60.0845 36.7708 60.1362 36.1068L61.3692 20.2835C61.4032 19.8471 61.4378 19.5253 61.473 19.3181C61.5287 19.0934 61.6435 18.8446 61.8175 18.5718C62.123 18.0803 62.8829 17.8818 64.0972 17.9764C65.4253 18.0799 66.1853 18.4923 66.3773 19.2135C66.447 19.5434 66.456 20.0404 66.4042 20.7044L65.3043 34.8202Z" fill="#071E22"/>
<path d="M88.5154 19.4956L97.6888 34.6273C98.0718 35.241 98.2785 35.7088 98.309 36.0309C98.3735 36.713 97.8823 37.3807 96.8355 38.0341C96.2218 38.4171 95.7255 38.6265 95.3466 38.6624C94.9866 38.6964 94.6754 38.6399 94.413 38.4926C94.1695 38.3436 93.982 38.1798 93.8504 38.0011C93.7377 37.8206 93.5687 37.5498 93.3434 37.1889L91.5753 34.2595L83.7033 35.0042L82.5159 38.2132C82.3623 38.6101 82.2368 38.8991 82.1392 39.0804C82.0606 39.2599 81.9071 39.456 81.6788 39.6688C81.4676 39.8608 81.1725 39.9747 80.7936 40.0106C80.4336 40.0446 79.9163 39.9311 79.2417 39.6699C78.0926 39.2434 77.4859 38.6891 77.4213 38.0071C77.3909 37.685 77.5062 37.1867 77.7673 36.512L83.9374 19.9001C84.1045 19.4446 84.384 19.0646 84.7757 18.7599C85.1864 18.4534 85.6285 18.2778 86.1021 18.233C87.1252 18.1362 87.9296 18.5571 88.5154 19.4956ZM86.8588 26.5339L85.3515 30.6047L89.1312 30.2471L86.8588 26.5339Z" fill="#071E22"/>
<path d="M114.512 21.5716C114.729 21.2456 115.023 21.0403 115.392 20.9558C115.762 20.8713 116.212 20.8506 116.743 20.8937C117.294 20.9384 117.726 21.0212 118.041 21.1422C118.374 21.2648 118.612 21.3986 118.753 21.5437C118.913 21.6904 119.02 21.8996 119.074 22.1713C119.163 22.484 119.181 22.9723 119.127 23.6362L117.844 39.4269C117.808 39.8822 117.762 40.2126 117.707 40.4181C117.671 40.6252 117.565 40.8649 117.391 41.1371C117.083 41.6277 116.323 41.8236 115.109 41.725C114.369 41.665 113.862 41.5665 113.586 41.4296C113.311 41.2926 113.089 41.0932 112.919 40.8312C109.113 34.7942 106.608 30.8485 105.403 28.9941L104.643 38.3548C104.606 38.81 104.56 39.1404 104.505 39.346C104.469 39.5531 104.364 39.7927 104.189 40.0649C103.882 40.5555 103.121 40.7515 101.907 40.6529C100.731 40.5574 100.031 40.2428 99.8073 39.7091C99.6787 39.4122 99.6047 39.1485 99.5852 38.9178C99.5847 38.6886 99.6022 38.3559 99.6376 37.9196L100.927 22.0435C100.986 21.3227 101.113 20.8081 101.31 20.4995C101.528 20.1735 101.821 19.9682 102.191 19.8836C102.56 19.7991 103.03 19.7799 103.599 19.8262C104.168 19.8724 104.609 19.9655 104.922 20.1055C105.256 20.228 105.484 20.3611 105.606 20.5047C105.677 20.5677 105.875 20.832 106.2 21.2976C109.76 27.0664 112.143 30.878 113.348 32.7324L114.129 23.1157C114.187 22.3949 114.315 21.8802 114.512 21.5716Z" fill="#071E22"/>
<path d="M133.775 19.0177C133.942 18.663 134.202 18.4165 134.555 18.2782C134.908 18.1398 135.35 18.0526 135.882 18.0166C136.433 17.9793 136.873 17.9971 137.202 18.0702C137.55 18.142 137.805 18.2392 137.965 18.3618C138.145 18.4831 138.282 18.6741 138.376 18.9348C138.511 19.2309 138.601 19.7112 138.646 20.3757L139.717 36.1822C139.747 36.6379 139.751 36.9715 139.727 37.1829C139.722 37.393 139.654 37.6456 139.521 37.9407C139.29 38.4714 138.567 38.7779 137.352 38.8602C136.611 38.9104 136.095 38.8882 135.802 38.7936C135.51 38.6989 135.26 38.5346 135.053 38.3007C130.395 32.8941 127.333 29.3631 125.867 27.7077L126.502 37.0776C126.533 37.5333 126.536 37.8669 126.512 38.0783C126.508 38.2885 126.439 38.5411 126.306 38.8362C126.075 39.3668 125.352 39.6733 124.137 39.7557C122.96 39.8354 122.221 39.628 121.92 39.1334C121.749 38.8588 121.637 38.609 121.583 38.3837C121.549 38.1571 121.517 37.8255 121.487 37.3888L120.41 21.4969C120.362 20.7754 120.412 20.2474 120.561 19.9131C120.727 19.5585 120.987 19.312 121.34 19.1736C121.693 19.0352 122.155 18.9468 122.724 18.9082C123.294 18.8696 123.744 18.8963 124.074 18.9883C124.423 19.0601 124.668 19.158 124.81 19.2819C124.889 19.3337 125.124 19.5657 125.515 19.978C129.89 25.1557 132.811 28.5723 134.278 30.2277L133.625 20.6014C133.576 19.8799 133.626 19.352 133.775 19.0177Z" fill="#071E22"/>
<path d="M146.457 36.4074L155.227 37.0264C155.663 37.0572 155.985 37.099 156.191 37.1517C156.417 37.1868 156.668 37.2903 156.942 37.4622C157.435 37.7642 157.639 38.5226 157.554 39.7375C157.46 41.0663 157.054 41.8199 156.335 41.9981C156.005 42.0892 155.507 42.1113 154.843 42.0644L143.567 41.2685C142.238 41.1747 141.485 40.7591 141.308 40.0217C141.216 39.7099 141.193 39.2218 141.24 38.5574L142.357 22.7255C142.426 21.7574 142.652 21.1152 143.037 20.7989C143.423 20.4637 144.119 20.3316 145.125 20.4026L156.344 21.1945C156.781 21.2253 157.102 21.2671 157.308 21.3198C157.535 21.3548 157.785 21.4584 158.059 21.6303C158.553 21.9323 158.757 22.6907 158.671 23.9056C158.577 25.2344 158.171 25.9879 157.453 26.1662C157.122 26.2573 156.624 26.2794 155.96 26.2325L147.218 25.6155L147.015 28.4914L152.653 28.8894C153.09 28.9202 153.411 28.962 153.617 29.0147C153.844 29.0497 154.094 29.1532 154.368 29.3252C154.862 29.6271 155.066 30.3856 154.98 31.6005C154.886 32.9293 154.471 33.6821 153.733 33.859C153.403 33.9501 152.905 33.9723 152.241 33.9254L146.66 33.5314L146.457 36.4074Z" fill="#071E22"/>
<path d="M162.031 18.8954L167.302 18.5692C170.055 18.3838 172.543 19.2177 174.766 21.0708C176.988 22.9049 178.196 25.2744 178.392 28.1795C178.586 31.0656 177.728 33.6125 175.816 35.8201C173.924 38.0265 171.525 39.2275 168.62 39.4231L163.408 39.7739C162.25 39.8519 161.512 39.6631 161.196 39.2076C160.941 38.8242 160.786 38.2243 160.731 37.4078L159.665 21.5724C159.635 21.1167 159.622 20.7838 159.627 20.5736C159.65 20.3622 159.729 20.109 159.862 19.8139C160.093 19.2834 160.816 18.9772 162.031 18.8954ZM168.366 34.3762C169.733 34.2841 170.934 33.6979 171.967 32.6174C172.999 31.518 173.464 30.1993 173.36 28.6613C173.257 27.1233 172.629 25.8781 171.478 24.9256C170.344 23.9529 169.056 23.5151 167.613 23.6122L164.879 23.7963L165.604 34.5621L168.366 34.3762Z" fill="#071E22"/>
<path d="M3.57377 49.7616L14.1178 48.8795C14.5224 48.8456 14.8237 48.8713 15.0218 48.9566C15.2188 49.0293 15.3574 49.1641 15.4376 49.3611C15.5177 49.5581 15.5715 49.8209 15.599 50.1496C15.6265 50.4783 15.6171 50.7465 15.5708 50.954C15.5235 51.149 15.4271 51.2907 15.2818 51.3793C15.0637 51.5121 14.7461 51.596 14.3289 51.6309L10.7067 51.9339L11.5048 61.4728C11.5291 61.7636 11.5345 61.9796 11.5208 62.1208C11.5198 62.2609 11.4767 62.43 11.3914 62.6281C11.3177 62.8125 11.1639 62.9527 10.9301 63.0487C10.6962 63.1446 10.3833 63.209 9.99137 63.2418C9.59945 63.2746 9.28021 63.2631 9.03365 63.2073C8.79973 63.1505 8.6248 63.0378 8.50885 62.8693C8.40449 62.687 8.33384 62.5275 8.29692 62.3905C8.27159 62.2398 8.24676 62.0191 8.22243 61.7283L7.42596 52.2084L3.78486 52.513C3.38029 52.5468 3.07949 52.5275 2.88244 52.4548C2.68434 52.3695 2.54522 52.2284 2.46508 52.0314C2.38495 51.8344 2.33113 51.5716 2.30363 51.2429C2.27613 50.9141 2.28605 50.6523 2.3334 50.4574C2.37969 50.2498 2.47551 50.1018 2.62088 50.0132C2.83893 49.8804 3.15656 49.7965 3.57377 49.7616Z" fill="black" fill-opacity="0.25"/>
<path d="M27.89 63.5115C28.0451 63.9814 28.1149 64.3176 28.0994 64.52C28.0628 65.0007 27.6398 65.3756 26.8304 65.6447C26.4121 65.7909 26.0764 65.8544 25.8234 65.8351C25.5831 65.8168 25.385 65.7444 25.2292 65.618C25.0871 65.48 24.9829 65.3448 24.9166 65.2125C24.8084 64.9625 24.4024 63.78 23.6984 61.6651L23.1073 61.6582L20.7164 61.476L20.5529 63.6202C20.5307 63.9111 20.5012 64.1315 20.4643 64.2814C20.4411 64.4196 20.3716 64.5797 20.2559 64.7617C20.0528 65.0898 19.5464 65.223 18.7368 65.1612C17.8513 65.0937 17.3505 64.8202 17.2344 64.3405C17.1748 64.1197 17.162 63.7879 17.1957 63.3451L17.9986 52.8139C18.0208 52.5229 18.0435 52.3083 18.0668 52.1702C18.1036 52.0203 18.1799 51.8543 18.2956 51.6723C18.4987 51.3442 19.0051 51.2111 19.8147 51.2728L23.9134 51.5853C25.0266 51.6701 26.0773 52.1574 27.0656 53.0471C27.5417 53.4778 27.9186 54.0409 28.1964 54.7365C28.4742 55.432 28.5817 56.1909 28.5191 57.0132C28.4101 58.4426 27.846 59.5829 26.8268 60.4341C27.054 61.1257 27.4084 62.1516 27.89 63.5115ZM20.9724 58.1173L23.4013 58.3025C23.7681 58.3305 24.1456 58.2193 24.5337 57.969C24.9217 57.7186 25.137 57.3152 25.1794 56.7585C25.2218 56.2019 25.0702 55.7705 24.7246 55.4642C24.3799 55.1453 24.0115 54.9709 23.6194 54.941L21.2285 54.7587L20.9724 58.1173Z" fill="black" fill-opacity="0.25"/>
<path d="M29.6678 50.6815C29.6465 50.3905 29.6371 50.175 29.6395 50.0349C29.6537 49.8812 29.7045 49.7057 29.7918 49.5085C29.9439 49.1539 30.4249 48.9469 31.2346 48.8876C32.1204 48.8227 32.6626 49.0183 32.8614 49.4744C32.9404 49.6849 32.9961 50.0116 33.0286 50.4544L33.8017 61.007C33.8239 61.3107 33.8275 61.533 33.8124 61.6741C33.8099 61.8142 33.765 61.9828 33.6777 62.18C33.5256 62.5347 33.0446 62.7416 32.2348 62.8009C31.3491 62.8658 30.8127 62.6634 30.6257 62.1937C30.5349 61.9969 30.4733 61.677 30.4409 61.2341L29.6678 50.6815Z" fill="black" fill-opacity="0.25"/>
<path d="M46.6646 54.2006C46.9382 54.8978 47.0412 55.6573 46.9735 56.4792C46.9059 57.3011 46.6802 58.0336 46.2963 58.6767C45.9134 59.3071 45.4467 59.797 44.896 60.1463C43.7799 60.8692 42.6593 61.1843 41.5339 61.0917L39.1632 60.8966L38.9868 63.0398C38.9629 63.3306 38.932 63.5508 38.8942 63.7005C38.8702 63.8385 38.7997 63.9982 38.683 64.1796C38.4779 64.5064 37.9707 64.6365 37.1615 64.5699C36.2764 64.4971 35.7772 64.2205 35.664 63.7402C35.6058 63.519 35.5949 63.1871 35.6313 62.7446L36.4975 52.2183C36.5214 51.9275 36.5454 51.7131 36.5695 51.5751C36.6073 51.4254 36.6846 51.2599 36.8013 51.0786C37.0064 50.7517 37.5136 50.6216 38.3228 50.6882L42.3816 51.0222C43.4943 51.1137 44.5421 51.6073 45.5249 52.5029C46.0111 52.9375 46.391 53.5034 46.6646 54.2006ZM41.8291 57.7362C42.2085 57.7674 42.5929 57.6591 42.9825 57.4111C43.372 57.1631 43.5897 56.7609 43.6355 56.2045C43.6813 55.6482 43.5323 55.2159 43.1885 54.9075C42.8457 54.5865 42.4784 54.4099 42.0864 54.3777L39.7156 54.1826L39.4394 57.5396L41.8291 57.7362Z" fill="black" fill-opacity="0.25"/>
<path d="M2.38438 48.5722L12.9284 47.69C13.333 47.6562 13.6343 47.6819 13.8324 47.7672C14.0295 47.8398 14.168 47.9746 14.2482 48.1716C14.3283 48.3686 14.3821 48.6315 14.4096 48.9602C14.4371 49.2889 14.4277 49.557 14.3815 49.7646C14.3341 49.9595 14.2378 50.1013 14.0924 50.1898C13.8743 50.3226 13.5567 50.4065 13.1395 50.4414L9.51736 50.7444L10.3154 60.2834C10.3397 60.5742 10.3451 60.7901 10.3314 60.9313C10.3304 61.0715 10.2873 61.2406 10.202 61.4387C10.1283 61.6231 9.97453 61.7632 9.74066 61.8592C9.5068 61.9552 9.1939 62.0195 8.80198 62.0523C8.41006 62.0851 8.09081 62.0736 7.84426 62.0179C7.61034 61.961 7.43541 61.8484 7.31946 61.6798C7.21509 61.4976 7.14445 61.338 7.10753 61.201C7.08219 61.0504 7.05736 60.8297 7.03304 60.5389L6.23657 51.0189L2.59547 51.3235C2.1909 51.3574 1.8901 51.338 1.69305 51.2654C1.49495 51.1801 1.35583 51.039 1.27569 50.842C1.19555 50.645 1.14173 50.3821 1.11423 50.0534C1.08673 49.7247 1.09666 49.4629 1.144 49.2679C1.19029 49.0604 1.28612 48.9123 1.43149 48.8238C1.64954 48.6909 1.96717 48.6071 2.38438 48.5722Z" fill="#1D7874"/>
<path d="M26.7006 62.3221C26.8557 62.792 26.9255 63.1281 26.9101 63.3305C26.8734 63.8112 26.4504 64.1861 25.641 64.4552C25.2227 64.6015 24.887 64.6649 24.634 64.6457C24.3937 64.6273 24.1956 64.555 24.0398 64.4286C23.8977 64.2905 23.7935 64.1553 23.7272 64.023C23.619 63.773 23.213 62.5906 22.509 60.4757L21.9179 60.4688L19.527 60.2865L19.3635 62.4307C19.3413 62.7217 19.3118 62.9421 19.2749 63.092C19.2517 63.2301 19.1822 63.3903 19.0665 63.5723C18.8634 63.9003 18.357 64.0335 17.5474 63.9718C16.6619 63.9043 16.1611 63.6307 16.045 63.1511C15.9855 62.9302 15.9726 62.5984 16.0063 62.1557L16.8092 51.6244C16.8314 51.3335 16.8541 51.1189 16.8774 50.9807C16.9143 50.8308 16.9905 50.6649 17.1062 50.4828C17.3093 50.1548 17.8157 50.0216 18.6253 50.0833L22.724 50.3958C23.8372 50.4807 24.8879 50.9679 25.8762 51.8576C26.3523 52.2883 26.7292 52.8515 27.007 53.547C27.2848 54.2425 27.3924 55.0014 27.3297 55.8237C27.2207 57.2532 26.6566 58.3935 25.6375 59.2446C25.8646 59.9363 26.219 60.9621 26.7006 62.3221ZM19.783 56.9279L22.2119 57.1131C22.5787 57.141 22.9562 57.0298 23.3443 56.7795C23.7323 56.5292 23.9476 56.1257 23.99 55.5691C24.0325 55.0125 23.8809 54.581 23.5352 54.2748C23.1905 53.9558 22.8221 53.7814 22.43 53.7515L20.0391 53.5693L19.783 56.9279Z" fill="#1D7874"/>
<path d="M28.4784 49.4921C28.4571 49.2011 28.4477 48.9855 28.4501 48.8454C28.4643 48.6917 28.5151 48.5163 28.6024 48.3191C28.7545 47.9644 29.2355 47.7575 30.0453 47.6982C30.931 47.6333 31.4732 47.8289 31.672 48.285C31.751 48.4955 31.8067 48.8221 31.8392 49.265L32.6123 59.8176C32.6345 60.1212 32.6381 60.3436 32.623 60.4846C32.6205 60.6247 32.5756 60.7934 32.4883 60.9906C32.3362 61.3452 31.8552 61.5522 31.0454 61.6115C30.1597 61.6764 29.6234 61.474 29.4363 61.0043C29.3455 60.8074 29.284 60.4875 29.2515 60.0447L28.4784 49.4921Z" fill="#1D7874"/>
<path d="M45.4753 53.0112C45.7489 53.7084 45.8518 54.4679 45.7842 55.2898C45.7166 56.1116 45.4908 56.8441 45.1069 57.4872C44.7241 58.1176 44.2573 58.6075 43.7067 58.9568C42.5906 59.6797 41.4699 59.9948 40.3446 59.9022L37.9738 59.7072L37.7975 61.8503C37.7735 62.1412 37.7427 62.3614 37.7049 62.511C37.6808 62.6491 37.6104 62.8088 37.4936 62.9901C37.2885 63.3169 36.7814 63.4471 35.9721 63.3805C35.087 63.3077 34.5879 63.0311 34.4746 62.5508C34.4165 62.3296 34.4056 61.9977 34.442 61.5551L35.3082 51.0289C35.3321 50.7381 35.3561 50.5236 35.3802 50.3856C35.418 50.236 35.4952 50.0705 35.612 49.8891C35.8171 49.5623 36.3243 49.4322 37.1335 49.4988L41.1923 49.8327C42.3049 49.9243 43.3527 50.4179 44.3356 51.3134C44.8218 51.7481 45.2016 52.314 45.4753 53.0112ZM40.6398 56.5468C41.0191 56.578 41.4036 56.4696 41.7931 56.2216C42.1827 55.9736 42.4004 55.5714 42.4462 55.0151C42.4919 54.4587 42.3429 54.0264 41.9991 53.7181C41.6564 53.3971 41.289 53.2205 40.8971 53.1882L38.5263 52.9931L38.2501 56.3501L40.6398 56.5468Z" fill="#1D7874"/>
</svg>
