<svg width="28" height="28" viewBox="0 0 28 28" fill="none" xmlns="http://www.w3.org/2000/svg">
<path d="M22.0136 19.7853C22.0656 19.7038 22.2992 18.5903 22.1694 18.373L22.0136 16.6619C22.0136 16.6619 22.0136 17.3952 21.3388 17.531C20.6639 17.6396 18.7431 17.6668 18.7431 17.6668C18.7431 17.6668 18.4576 18.373 17.5492 18.5088C16.6407 18.6446 13.474 18.9977 13.474 18.9977C13.474 18.9977 10.3074 18.6446 9.39889 18.5088C8.49042 18.373 8.2049 17.6668 8.2049 17.6668C8.2049 17.6668 6.25818 17.6396 5.60927 17.531C4.93441 17.4224 4.93441 16.6619 4.93441 16.6619L4.77867 18.373C4.64889 18.5903 4.88249 19.7038 4.93441 19.7853C4.98632 19.8668 4.88249 21.0347 4.85654 22.9359C4.98632 24.7829 5.03823 24.7014 6.49178 24.6199C7.94533 24.5384 7.53003 22.5557 7.53003 22.5557C7.58195 22.6915 13.4481 22.6915 13.4481 22.6915C13.4481 22.6915 19.3142 22.6915 19.3661 22.5557C19.3661 22.5557 18.9508 24.5384 20.4044 24.6199C21.8579 24.7014 21.9098 24.7829 22.0396 22.9359C22.0656 21.0347 21.9617 19.8668 22.0136 19.7853Z" fill="#007AFF"/>
<path d="M21.8839 16.6346C21.8839 16.9062 21.78 17.1506 21.5724 17.3951C20.9494 18.0741 19.3921 18.563 16.9522 18.8346C16.1475 18.916 15.3688 18.9704 14.7718 18.9975C14.1489 19.0247 13.7076 19.0247 13.5519 19.0247H13.4221C13.1106 19.0247 11.6311 18.9975 10.0218 18.8074C7.58195 18.5358 6.02457 18.0469 5.40162 17.3679C5.19397 17.1506 5.09015 16.879 5.09015 16.6074C5.45354 12.3704 6.33605 8.86667 7.06283 6.5037C7.08878 6.42222 7.11474 6.31358 7.14069 6.2321C7.73769 4.35802 8.23086 3.2716 8.23086 3.24444C8.28277 3.16296 8.46446 3.02716 8.69807 3.1358C9.24315 3.05432 12.877 3 13.3962 3H13.5259C14.071 3 17.6789 3.05432 18.224 3.1358C18.4576 3.02716 18.6134 3.16296 18.6912 3.24444C18.7431 3.29877 21.1571 8.67654 21.8839 16.6346Z" stroke="#007AFF" stroke-width="1.5" stroke-miterlimit="10"/>
<path d="M7.21857 6.205C7.21857 6.205 7.27048 5.87907 13.5259 5.90623C14.7718 5.90623 17.653 5.68894 19.8333 6.04203" stroke="#007AFF" stroke-width="1.5" stroke-miterlimit="10"/>
<path d="M5.89484 11.6643C5.89484 11.6643 6.41396 11.3927 13.0328 11.4199C19.6517 11.447 21.0274 11.5285 21.0274 11.5285" stroke="#007AFF" stroke-width="1.5" stroke-miterlimit="10"/>
<path d="M5.53142 10.089V10.7952C5.53142 10.7952 5.89481 10.8224 5.97268 10.7137L5.68716 12.1261C5.68716 12.1261 5.16803 12.0718 4.96038 12.1261C4.75273 12.1804 4.12978 12.1261 4.07787 11.8816C4 11.6372 4 11.094 4 11.094C4 11.094 4.15574 11.0668 4.18169 10.9039C4.18169 10.7137 4.12978 9.46435 4.54508 9.41003C4.96038 9.35571 5.21995 9.35571 5.21995 9.35571C5.21995 9.35571 5.53142 9.38287 5.53142 9.54584C5.50546 9.7088 5.53142 10.089 5.53142 10.089Z" fill="#007AFF"/>
<path d="M21.4945 10.089V10.7952C21.4945 10.7952 21.1312 10.8224 21.0533 10.7137L21.3388 12.1261C21.3388 12.1261 21.8579 12.0718 22.0656 12.1261C22.2732 12.1804 22.8962 12.1261 22.9481 11.8816C23 11.6372 23.026 11.094 23 11.094C22.974 11.094 22.8443 11.0668 22.8183 10.9039C22.8183 10.7137 22.8702 9.46435 22.4549 9.41003C22.0396 9.35571 21.7801 9.35571 21.7801 9.35571C21.7801 9.35571 21.4686 9.38287 21.4686 9.54584C21.4945 9.7088 21.4945 10.089 21.4945 10.089Z" fill="#007AFF"/>
<path d="M18.3019 14.4648C17.7049 14.4105 13.5519 14.4648 13.4741 14.4648C13.3962 14.4648 9.2432 14.4105 8.6462 14.4648C8.02325 14.5191 8.28282 15.2796 8.28282 15.2796C8.28282 15.2796 8.72407 16.529 8.90577 16.8549C9.0615 17.1809 9.4768 17.2623 9.4768 17.2623L13.4741 17.8056L17.4713 17.2623C17.4713 17.2623 17.8866 17.1809 18.0424 16.8549C18.1981 16.529 18.6653 15.2796 18.6653 15.2796C18.6653 15.2796 18.8989 14.5191 18.3019 14.4648Z" fill="#007AFF"/>
</svg>
