<svg width="20" height="23" viewBox="0 0 20 23" fill="none" xmlns="http://www.w3.org/2000/svg">
<path d="M18.0139 17.7856C18.0659 17.7041 18.2995 16.5905 18.1697 16.3732L18.0139 14.6621C18.0139 14.6621 18.0139 15.3954 17.3391 15.5312C16.6642 15.6399 14.7435 15.667 14.7435 15.667C14.7435 15.667 14.4579 16.3732 13.5495 16.509C12.641 16.6448 9.47433 16.9979 9.47433 16.9979C9.47433 16.9979 6.30766 16.6448 5.39919 16.509C4.49072 16.3732 4.2052 15.667 4.2052 15.667C4.2052 15.667 2.25848 15.6399 1.60957 15.5312C0.93471 15.4226 0.93471 14.6621 0.93471 14.6621L0.778973 16.3732C0.649191 16.5905 0.882798 17.7041 0.93471 17.7856C0.986623 17.867 0.882798 19.0349 0.856842 20.9362C0.986623 22.7831 1.03854 22.7016 2.49209 22.6201C3.94564 22.5387 3.53034 20.5559 3.53034 20.5559C3.58225 20.6917 9.44837 20.6917 9.44837 20.6917C9.44837 20.6917 15.3145 20.6917 15.3664 20.5559C15.3664 20.5559 14.9511 22.5387 16.4047 22.6201C17.8582 22.7016 17.9101 22.7831 18.0399 20.9362C18.0659 19.0349 17.962 17.867 18.0139 17.7856Z" fill="white"/>
<path d="M17.8836 14.6346C17.8836 14.9062 17.7797 15.1506 17.5721 15.3951C16.9491 16.0741 15.3918 16.563 12.9519 16.8346C12.1472 16.916 11.3685 16.9704 10.7715 16.9975C10.1486 17.0247 9.70733 17.0247 9.55159 17.0247H9.42181C9.11033 17.0247 7.63083 16.9975 6.02154 16.8074C3.58165 16.5358 2.02427 16.0469 1.40132 15.3679C1.19367 15.1506 1.08984 14.879 1.08984 14.6074C1.45323 10.3704 2.33575 6.86667 3.06252 4.5037C3.08848 4.42222 3.11443 4.31358 3.14039 4.2321C3.73738 2.35802 4.23055 1.2716 4.23055 1.24444C4.28247 1.16296 4.46416 1.02716 4.69777 1.1358C5.24285 1.05432 8.87673 1 9.39585 1H9.52563C10.0707 1 13.6786 1.05432 14.2237 1.1358C14.4573 1.02716 14.6131 1.16296 14.6909 1.24444C14.7428 1.29877 17.1568 6.67654 17.8836 14.6346Z" stroke="white" stroke-width="1.5" stroke-miterlimit="10"/>
<path d="M3.21875 4.20475C3.21875 4.20475 3.27066 3.87882 9.52613 3.90599C10.772 3.90599 13.6532 3.6887 15.8335 4.04179" stroke="white" stroke-width="1.5" stroke-miterlimit="10"/>
<path d="M1.89453 9.66432C1.89453 9.66432 2.41366 9.39272 9.03251 9.41988C15.6514 9.44704 17.027 9.52852 17.027 9.52852" stroke="white" stroke-width="1.5" stroke-miterlimit="10"/>
<path d="M1.53142 8.0888V8.79497C1.53142 8.79497 1.89481 8.82214 1.97268 8.71349L1.68716 10.1258C1.68716 10.1258 1.16803 10.0715 0.960383 10.1258C0.752732 10.1802 0.129781 10.1258 0.0778689 9.88139C0 9.63695 0 9.09374 0 9.09374C0 9.09374 0.155738 9.06658 0.181694 8.90362C0.181694 8.71349 0.129781 7.46411 0.545082 7.40979C0.960383 7.35547 1.21995 7.35547 1.21995 7.35547C1.21995 7.35547 1.53142 7.38263 1.53142 7.54559C1.50546 7.70855 1.53142 8.0888 1.53142 8.0888Z" fill="white"/>
<path d="M17.495 8.0888V8.79497C17.495 8.79497 17.1316 8.82214 17.0537 8.71349L17.3392 10.1258C17.3392 10.1258 17.8584 10.0715 18.066 10.1258C18.2737 10.1802 18.8966 10.1258 18.9485 9.88139C19.0004 9.63695 19.0264 9.09374 19.0004 9.09374C18.9745 9.09374 18.8447 9.06658 18.8187 8.90362C18.8187 8.71349 18.8707 7.46411 18.4554 7.40979C18.04 7.35547 17.7805 7.35547 17.7805 7.35547C17.7805 7.35547 17.469 7.38263 17.469 7.54559C17.495 7.70855 17.495 8.0888 17.495 8.0888Z" fill="white"/>
<path d="M14.3022 12.4646C13.7052 12.4103 9.55225 12.4646 9.47438 12.4646C9.39651 12.4646 5.2435 12.4103 4.64651 12.4646C4.02356 12.5189 4.28312 13.2794 4.28312 13.2794C4.28312 13.2794 4.72438 14.5288 4.90607 14.8547C5.06181 15.1806 5.47711 15.2621 5.47711 15.2621L9.47438 15.8053L13.4716 15.2621C13.4716 15.2621 13.8869 15.1806 14.0427 14.8547C14.1984 14.5288 14.6656 13.2794 14.6656 13.2794C14.6656 13.2794 14.8992 12.5189 14.3022 12.4646Z" fill="white"/>
</svg>
