<svg width="41" height="27" viewBox="0 0 41 27" fill="none" xmlns="http://www.w3.org/2000/svg">
<path d="M32.4565 4.6508C30.3146 5.12017 42.6661 3.97929 40.5811 3.8872C38.4932 3.82465 37.4903 5.76122 37.5048 6.4792C20.5419 6.10198 19.4432 9.06272 14.5817 9.67416C11.1352 10.1007 11.1966 15.5695 7.7531 15.9665C3.86389 16.1779 3.61722 23.3606 3.03959 23.0333C2.29221 22.659 0.62961 16.2189 0.782625 15.354C0.93564 14.489 1.18468 9.43984 1.57814 9.00208C3.25034 7.1416 2.12977 5.6716 4.82646 4.03447C7.99397 2.057 24.8628 2.08916 31.3941 3.08016C32.5974 3.26193 34.4202 3.35728 34.536 3.93627C34.6548 4.4857 32.9063 4.51731 32.4565 4.6508Z" fill="#1D7874"/>
</svg>
