<svg width="414" height="1020" viewBox="0 0 414 1020" fill="none" xmlns="http://www.w3.org/2000/svg">
<path d="M241.349 949.293C249.02 946.004 254.742 941.33 259.315 935.904C266.388 927.654 273.81 919.521 280.382 910.982C285.08 904.988 291.502 900.548 300.048 897.552C310.643 893.777 318.34 887.811 323.912 880.402C332.984 868.183 341.581 855.561 355.625 846.35C368.144 838.094 374.867 827.164 376.717 813.624C379.793 791.097 390.915 772.119 405.459 754.654C408.808 750.527 410.757 745.931 410.308 740.288C409.51 727.692 408.537 715.038 408.264 702.618C408.041 691.679 406.118 680.782 396.999 669.305C395.251 667.01 394.102 664.55 393.677 662.21C392.129 652.171 385.409 643.45 373.541 635.08C365.247 629.249 360.45 622.027 359.901 615.13C358.928 605.039 354.957 594.92 350.46 584.625C348.862 580.793 346.888 576.959 347.139 573.259C347.639 565.004 348.29 556.921 350.19 549.136C353.665 535.896 357.714 522.605 366.161 511.52C377.057 496.983 345.66 410.052 339.54 398.603C329.947 380.741 376.149 365.338 382.398 350.587C384.372 345.877 388.046 341.981 391.044 337.737C396.792 329.532 397.893 320.257 391.023 308.801C382.779 295.053 379.383 281.465 378.535 268.242C377.812 257.869 397.853 236.321 396.955 225.888C396.556 221.727 406.974 211.371 400.778 207.098C399.329 206.002 400.103 205.041 401.378 205.224C405.925 205.893 407.884 177.076 407.535 175.25C406.836 171.598 402.826 158.603 401.378 154.944C399.125 145.909 402.504 141.044 415.125 131.543C417.775 121.201 378.535 122.217 358.501 128.954C352.804 125.825 334.352 123.32 330.18 119.237C315.165 104.686 303.323 89.3664 294.805 73.4518C290.683 65.7235 286.386 57.9367 280.341 50.4184C272.696 40.7775 266.95 31.0405 262.179 21.1417C261.405 19.5396 250.787 8.04827 249.463 5.52963C242.74 16.4602 237.742 23.8185 236.067 35.7076C235.091 41.8503 236.238 59.6897 233.364 65.0741C228.566 74.086 232.412 84.7736 233.76 95.7227C235.482 110.947 230.658 123.491 219.738 133.869C212.866 140.356 206.618 147.417 201.395 154.944C197.297 160.773 195.522 167.136 198.244 175.25C202.066 186.051 203.339 196.487 205.137 207.098C207.009 218.223 203.985 226.853 193.715 232.567C192.215 233.407 190.866 234.42 189.517 235.433C179.221 242.969 168.426 250.216 162.928 260.703C156.83 272.209 148.208 282.381 138.762 292.033C136.563 294.348 134.039 296.432 132.839 299.326C128.54 309.482 123.567 319.289 117.719 328.804C107.872 344.547 94.7276 358.209 80.0589 371.116C78.2097 372.693 78.1095 374.003 80.8078 376.249C85.5797 380.167 88.9273 384.584 92.3 388.888C130.948 440.286 156.852 492.419 179.333 544.748C197.693 587.64 207.182 629.88 220.195 672.323C228.287 698.715 230.683 724.54 235.677 750.504C240.646 776.582 241.692 801.711 238.965 826.065C238.365 831.357 237.415 836.531 236.815 841.823C236.289 847.628 236.638 853.726 235.763 859.414C232.987 877.16 230.561 895.023 225.837 912.238C221.337 928.43 215.288 943.98 207.84 959.062C205.866 962.917 204.241 966.889 202.292 970.63C209.538 968.42 215.585 965.685 220.383 961.8C226.331 956.956 233.277 952.692 241.349 949.293Z" fill="#F0F4F3"/>
<path d="M37.7612 4.60236C33.3919 17.0368 28.6805 29.154 23.0162 40.8677C20.5571 46.0372 19.4176 51.6617 18.2904 57.1535C15.5096 69.8119 11.6659 81.917 6.61252 93.7169C2.5259 103.097 -14.6435 122.052 -12.217 131.947C-9.25404 144.07 13.4515 146.883 18.2112 158.318C22.0555 167.605 32.8514 167.731 34.2758 177.753C35.1643 184.202 41.5934 184.389 43.6432 190.329C46.7732 187.272 45.102 188.329 49.7446 190.329C55.0958 192.698 54.1308 196.114 51.0969 202.144C45.7507 213.096 48.605 217.535 41.5243 227.165C41.9748 230.323 43.1634 247.103 41.5243 250.101C36.0321 259.955 55.2869 261.811 48.0725 270.211C42.3865 276.809 37.4207 284.989 30.9531 290.67C25.8643 300.177 19.8841 308.617 10.0783 318.267C7.08274 321.208 1.7221 336.328 -1.16136 335.384C-4.85318 337.823 -14.4927 333.638 -18.2062 330.962C-22.7056 335.44 -25.0678 342.238 -27.9549 348.02C-28.7134 349.527 -28.1031 350.959 -26.8328 351.945C-19.5771 357.812 -16.4168 366.464 -12.2174 374.591C-4.24604 390.111 5.84024 404.18 15.1442 418.677C23.5812 431.841 39.1552 489.603 46.0037 502.543C48.8358 508.054 50.0505 521.68 49.7446 522.309C41.0118 536.416 61.3534 590.814 64.902 604.634C65.2556 606.163 66.3011 616.267 67.3581 627.583C61.427 635.492 56.07 643.885 51.9711 653.398C50.5395 656.829 48.1303 660.122 44.7935 661.4C37.9977 663.94 37.1517 669.068 38.2355 676.082C39.8797 686.405 42.1471 696.681 47.7881 705.28C56.9945 719.494 59.9675 735.52 61.7794 752.055C62.4728 757.938 62.9217 763.787 63.8595 769.704C65.795 783.566 71.8742 795.455 82.416 803.265C93.5319 811.56 98.9518 822.549 101.657 836.116C107.141 863.797 114.936 890.594 129.403 914.833C134.128 922.63 136.14 931.659 136.501 941.128C136.561 944.5 136.754 947.756 136.936 951.145C140.209 954.567 141.196 959.953 140.008 964.764L221.913 955.862C218.713 930.252 224.42 907.377 237.946 886.951C247.571 872.566 256.842 857.998 267.151 844.248C283.807 822.11 286.631 796.945 280.634 769.46C277.245 753.914 272.976 738.512 269.465 722.948C263.821 698.339 267.584 676.401 282.503 656.978C290.941 646.059 300.173 635.924 309.857 626.258C308.6 622.448 307.991 618.326 308.372 614.209C313.215 561.882 318.901 509.809 328.131 458.235C327.386 456.919 326.654 455.471 325.909 454.155C311.235 426.792 293.444 402.353 272.437 380.555C256.291 363.748 241.624 345.669 229.268 325.36C228.084 323.444 227.511 320.269 225.006 320.588C222.513 320.775 222.34 323.98 221.655 326.036C218.436 335.403 216.536 345.226 216.47 355.307C216.558 373.079 209.646 386.232 197.457 397.563C181.086 412.611 165.179 427.993 149.028 443.34C138.954 427.793 130.199 415.392 130.201 411.356C130.204 405.974 149.355 380.959 161.74 370.193C172.242 361.045 178.016 349.481 178.036 334.55C178.113 328.372 178.691 322.13 178.156 315.866C176.614 297.754 184.918 285.606 197.522 276.485C215.823 263.324 233.684 249.563 251.875 236.252C261.692 229.16 268.589 220.177 269.476 206.578C270.068 197.513 272.834 189.023 278.068 181.958C279.768 179.641 279.855 177.366 278.854 174.804C270.886 152.557 267.954 129.406 268.027 105.871C268.03 101.835 268.411 97.7183 268.657 93.7168C269.126 85.9795 268.234 84.912 261.159 83.7799C251.286 82.1186 241.303 80.3074 231.418 78.779C215.924 76.3252 205.432 67.9841 202.105 50.4282C198.535 31.4925 187.237 19.809 170.853 13.597C161.287 9.96089 153.299 2.6456 143.121 0.268633C134.03 -1.82046 128.777 -3.90685 125.675 -7.84231C116.303 -10.9127 107.777 -16.4203 99.7395 -23.2043C91.6596 -18.8274 46.2439 1.22403 37.7612 4.60236Z" fill="#F0F4F3"/>
<path d="M-167.998 385.227C-157.812 380.099 -147.239 375.435 -135.14 371.978C-131.226 370.889 -128.693 368.801 -125.961 366.819C-124.672 365.851 -115.271 358.38 -108.394 347.758C-102.891 339.21 -104.131 332.017 -92.9062 322.587C-90.4426 322.763 -81.6849 319.808 -78.7636 319.848C-76.2465 319.925 -72.4493 322.612 -69.5582 321.995C-56.262 318.927 -59.7342 311.437 -55.0192 308.861C-51.6394 307.101 -43.1427 307.715 -39.8465 305.398C-35.9323 302.646 -51.3216 339.048 -48.0858 335.419C-47.2695 335.091 -50.5262 334.487 -52.0202 332.275C-51.5237 330.879 -49.3335 328.477 -49.7982 327.203C-51.4285 322.87 -53.2338 317.675 -53.0185 313.953C-54.641 309.368 -14.06 292.827 -16.9867 288.051C-9.66648 259.896 6.08843 248.724 7.30126 248.61C7.30126 248.61 6.6908 241.684 7.96481 241.22C10.1086 240.328 17.347 235.672 23.6755 236.309C24.0356 232.793 17.1495 229.866 14.8717 223.649C10.4456 211.923 13.5144 210.371 13.7456 207.149C14.4951 196.702 9.79971 194.864 10.4949 185.773C13.2904 149.219 59.5936 130.713 83.8066 130.713C82.1339 126.238 15.757 138.334 13.724 130.713C10.1684 116.898 17.7173 105.743 16.1032 99.2433C13.6667 89.9976 11.9745 71.3019 13.2903 62.9275C13.6807 60.0673 6.05832 65.4259 -0.0367926 67.002C-1.68565 69.8234 -6.27827 71.6976 -6.69262 76.9757C-6.9691 81.0486 -2.76991 88.6857 -4.11362 91.4157C-9.16009 101.489 -12.749 110.046 -13.903 114.797C-14.1322 115.697 -23.3337 121.612 -27.7335 135.232C-28.7953 138.626 -31.9753 137.168 -33.0448 140.813C-33.381 141.911 -33.6938 142.255 -35.3791 141.346C-36.073 140.972 -36.1551 137.09 -37.2231 137.409C-37.8334 137.592 -41.1056 137.492 -41.4564 137.43C-43.4089 137.018 -43.8209 137.307 -44.1036 138.306C-44.2104 138.505 -44.2801 140.77 -43.2431 141.457C-42.107 142.197 -40.2621 144.471 -40.2854 145.226C-40.1715 146.439 -38.0208 146.959 -37.3501 148.088C-37.3122 148.492 -39.3034 149.338 -39.8912 150.428C-40.5781 151.465 -42.2797 152.723 -42.2797 152.723C-44.6441 152.6 -45.2614 151.372 -48.0673 149.219C-49.0052 148.586 -48.1804 146.344 -48.8735 144.307C-49.7812 144.329 -54.387 141.719 -55.2645 142.397C-55.73 142.786 -60.3288 141.586 -60.6804 143.188C-60.795 143.638 -57.014 148.491 -57.1132 148.437C-58.8147 149.695 -48.3004 158.433 -48.0185 159.097C-46.4479 160.455 -43.3748 162.112 -41.8893 166.239C-41.516 167.208 -43.676 170.266 -43.2036 171.288C-42.7769 172.158 -41.9993 173.089 -41.2217 174.02C-39.4683 175.988 -37.402 177.614 -37.4632 177.965C-38.0363 180.215 -37.3052 182.656 -37.5732 184.814C-37.8334 186.721 -38.9401 188.299 -39.5512 190.145C-41.2318 195.636 -37.814 194.28 -39.9593 198.497C-45.8074 210.057 -44.1686 212.476 -45.3977 214.756C-46.0389 215.946 -48.2121 214.518 -53.0185 216.789C-53.8348 217.117 -53.9935 214.089 -58.9494 209.754C-61.3054 207.716 -59.8997 202.972 -62.591 200.37C-65.1375 197.974 -75.4108 196.146 -77.9573 193.75C-80.4046 191.407 -80.7385 187.517 -83.041 185.38C-85.984 182.77 -88.2655 184.867 -91.0568 183.874C-92.5515 183.324 -94.878 183.605 -96.1133 182.811C-98.683 181.17 -99.8564 178.363 -100.268 178.652C-101.245 179.277 -123.991 179.938 -122.315 184.424C-122.124 184.782 -119.455 186.477 -116.58 188.027C-114.217 189.813 -113.333 192.208 -113.424 191.903C-114.149 190.873 -112.38 194.001 -112.648 194.497C-112.915 194.992 -109.177 194.704 -109.07 194.506C-108.551 194.018 -107.499 194.202 -106.889 194.019C-105.668 193.653 -103.235 193.174 -102.129 193.258C-97.3084 193.81 -93.343 195.947 -92.7637 196.771C-91.018 198.992 -83.1068 212.084 -81.2318 215.014C-82.5461 220.063 -85.819 221.625 -84.6534 224.684C-82.6041 230.139 -77.886 237.288 -78.2601 237.982C-77.433 247.128 -93.2532 248.707 -93.2532 248.707C-92.6584 249.027 -97.1325 258.514 -95.6494 267.629C-94.72 270.177 -91.4114 274.008 -90.4286 276.457C-92.299 279.927 -92.6127 281.932 -93.2617 283.374C-93.7728 283.61 -96.7174 284.326 -99.1577 283.394C-101.666 281.402 -105.244 281.393 -106.63 277.319C-108.117 276.517 -109.421 276.326 -110.711 277.294C-112.313 278.605 -116.391 288.306 -118.351 289.807C-120.366 291.408 -127.488 303.433 -129.762 305.278C-159.955 330.198 -194.511 369.144 -189.097 373.341C-188.655 373.708 -187.816 374.288 -187.572 374.547C-186.634 375.181 -185.796 375.761 -184.858 376.394C-182.784 377.768 -180.809 379.089 -178.681 380.363C-175.517 382.325 -172.2 384.241 -168.982 386.104C-168.616 385.662 -168.356 385.418 -167.998 385.227Z" fill="#1D7874"/>
<rect x="-10" width="430" height="120" fill="#3E8C86"/>
<path d="M453.984 112.422C461.163 110.276 461.108 105.545 463.975 94.9672C465.601 88.8224 464.513 87.3075 465.211 80.9224C464.356 74.0844 469.692 74.1884 476.401 73.3489C487.453 71.9662 479.12 65.295 481.72 56.1765C483.479 49.8963 485.321 49.0716 492.731 50.8775C499.846 52.7203 511.568 60.2846 517.016 64.356C524.599 69.9427 533.498 70.4928 544.257 66.7702C540.325 64.0538 531.474 59.101 527.528 56.2676C515.718 48.0014 502.168 41.3789 489.297 34.1961C482.699 30.5062 475.081 31.8159 469.448 37.0361C466.897 39.3753 463.536 41.2217 460.485 43.1483C459.659 43.7269 458.79 43.9545 457.567 43.751C444.912 41.8884 432.523 39.7549 420.444 36.5131C416.57 35.4531 412.503 35.2489 408.437 35.0448C399.243 34.5315 390.257 33.2793 381.33 31.3068C374.244 29.6979 389.428 -34.3484 382.693 -31.9609C374.38 -29.0196 374.92 -4.37116 367.344 -0.333701C361.153 2.81742 351.882 24.4156 344.927 26.2365C339.562 27.6206 325.725 48.6019 320.714 50.4171C310.692 54.0476 284.27 59.3736 278.646 53.8982C271.152 46.6367 262.419 42.62 250.5 41.8536C242.352 41.3282 234.619 39.3252 228.375 34.8779C226.078 33.2641 223.353 31.8226 220.156 31.3908C210.389 29.8799 203.262 25.5433 197.815 19.0951C194.312 15.018 187.918 14.1544 182.335 12.5952C181.245 12.2563 180.258 12.7363 179.623 13.6475C176.201 18.5911 170.409 21.3359 164.984 24.6289C154.842 30.8886 145.892 38.3061 136.59 45.2926C128.112 51.7005 118.635 56.0946 108.127 59.4294C98.3413 62.555 88.7907 66.3642 80.3291 71.7006C76.7175 73.9349 72.6209 74.6852 68.4208 75.8048C67.8461 75.9955 67.0947 75.9707 66.6233 75.792C55.7826 71.6824 46.0261 75.042 36.4745 80.0395C27.7631 84.5755 19.2137 89.21 9.91385 92.6313C7.90946 93.3574 5.93436 94.3175 3.85678 94.4586C-6.79657 95.435 -16.759 98.3451 -26.8981 101.04C-30.6707 101.987 -48.1511 109.402 -66.5839 110.402C-95.5666 112.008 -129.2 107.542 -133.417 110.921C-136.144 113.045 -5.68281 156.967 -5.68281 156.967C-1.40957 156.432 -1.98152 146.549 2.15901 146.15C4.28118 145.945 18.546 143.484 27.4982 142.771C41.5756 140.519 39.3232 150.047 46.0803 146.15C59.7597 138.259 45.0115 136.264 60.7207 132.635C64.9354 131.633 75.6048 130.872 87.1862 130.136C111.1 128.689 144.453 136.08 151.379 135.213C155.21 134.734 177.206 123.508 185.967 130.136C193.55 135.723 202.241 138.2 212.851 136.873C217.271 136.32 221.736 136.117 226.113 135.213C238.815 132.673 248.286 136.598 255.883 143.49C267.013 153.505 271.879 130.639 283.143 140.519C289.194 145.822 298.135 137.621 307.919 136.873C314.446 136.412 334.122 129.33 340.015 130.136C341.768 130.986 369.143 118.575 370.985 117.75C380.557 113.466 385.925 118.77 394.072 117.75C397.019 117.382 408.566 112.674 411.528 112.422C412.587 107.66 421.478 130.38 426.705 125.867C430.209 120.799 440.786 119.367 442.239 117.75C445.294 115.717 453.197 112.658 453.984 112.422Z" fill="#3E8C86"/>
<path d="M-63.4587 75.1053C-59.2587 73.9857 -55.1621 73.2355 -51.5505 71.0012C-44.7601 73.7808 -28.1386 79.34 -15.9757 79.34C-0.772206 79.34 35.8289 77.3155 40.3336 82.9465C44.8384 88.5774 97.7692 82.7058 119.73 71.0012C141.69 59.2965 159.262 45.3138 291.026 49.8185C320.307 50.8196 343.633 56.2691 353.555 66.1482L375.286 71.6312C379.926 71.9162 384.626 72.5947 389.004 75.0925C412.402 88.4411 440.089 95.9408 435.178 96.5553C435.178 96.5553 437.993 119.506 417.722 130.904C404.771 130.904 374.364 152.853 347.335 136.173C341.458 132.546 310.104 131.411 309.045 136.173C306.083 136.425 267.692 152.484 264.745 152.853C256.598 153.872 246.818 153.642 237.247 157.926C235.404 158.751 210.145 166.245 208.393 165.395C202.5 164.588 187.371 162.891 180.843 163.351C171.059 164.1 164.049 160.699 157.998 155.396C146.734 145.517 135.134 152.805 124.003 142.79C116.406 135.898 106.936 131.974 94.233 134.514C89.8563 135.418 85.3918 135.62 80.9712 136.173C70.3618 137.501 64.9776 133.579 55.0895 142.79C44.9538 152.232 25.2456 145.588 13.4206 147.84C6.49502 148.707 -20.9281 163.351 -44.5298 152.232C-56.1112 152.968 -79.2866 151.947 -83.5013 152.949C-99.2105 156.578 -99.274 144.11 -112.953 152C-116.594 154 -120.72 154.517 -124.861 154.916C-129.001 155.315 -133.289 155.733 -137.562 156.267C-137.562 156.267 -268.024 112.345 -265.296 110.222C-261.08 106.842 -227.446 111.308 -198.463 109.702C-180.031 108.703 -162.55 101.287 -158.778 100.34C-148.639 97.6456 -138.676 94.7355 -128.023 93.7591C-125.945 93.618 -123.97 92.6579 -121.966 91.9318C-112.666 88.5105 -104.116 83.876 -95.4051 79.34C-85.8535 74.3425 -76.097 70.9829 -65.2562 75.0925C-64.7849 75.2712 -64.0335 75.2961 -63.4587 75.1053Z" fill="#1D7874"/>
<path d="M479.024 318.553C479.41 307.156 480.39 295.642 483.16 283.367C484.082 279.411 483.464 276.186 483.036 272.839C482.805 271.243 480.759 259.411 474.738 248.281C469.878 239.352 462.971 236.99 460.081 222.617C461.418 220.54 463.025 211.438 464.461 208.894C465.737 206.723 469.916 204.68 470.761 201.847C474.448 188.709 473.75 184.327 473.752 178.955C473.828 175.145 478.443 167.984 477.991 163.98C477.454 159.226 487.581 142.978 485.948 138.398C486.053 137.525 483.96 140.092 481.302 140.342C480.316 139.237 479.259 136.163 477.918 135.96C473.334 135.312 467.91 134.404 464.747 132.429C459.946 131.654 457.823 126.318 452.228 126.595C454.729 115.973 465.361 99.2628 465.843 98.144C465.843 98.144 459.473 95.3576 459.676 94.0168C459.922 91.7082 459.309 83.1236 462.904 77.8761C459.991 75.8735 454.12 80.5117 447.572 79.5279C435.16 77.787 423.093 75.9565 409.572 75.6081C397.268 75.2742 387.964 72.3208 380.18 67.5738C372.891 63.1763 375.77 49.6225 373.297 47.4689C373.236 47.3745 350.534 38.8888 342.872 37.0171C329.044 33.5101 322.877 21.5353 316.4 19.8339C307.119 17.5368 289.902 10.0536 283.186 4.88195C280.863 3.1675 281.909 12.4261 280.368 18.5302C282.053 21.3304 281.494 26.2592 285.927 29.1545C289.368 31.3508 298.083 31.3297 299.834 33.8182C306.252 43.0784 290.172 67.3141 293.787 70.6058C294.467 71.2387 317.11 65.1673 326.951 75.5614C329.419 78.121 326.614 80.2117 329.3 82.8989C330.102 83.7206 330.253 84.1597 328.647 85.2026C327.986 85.6321 324.54 83.8418 324.309 84.9323C324.176 85.5555 322.518 88.3783 322.296 88.6568C320.998 90.172 321.054 90.6724 321.795 91.3997C321.918 91.5886 323.872 92.7364 324.972 92.156C326.167 91.5142 329.047 90.9862 329.699 91.3688C330.817 91.8507 332.305 90.2129 333.618 90.166C333.99 90.3266 333.777 92.4795 334.452 93.5183C335.033 94.6185 335.32 96.7148 335.32 96.7148C334.078 98.7305 332.704 98.6829 329.47 100.112C328.464 100.632 326.892 98.8323 324.772 98.4635C324.357 99.2707 319.857 102.06 320.031 103.155C320.149 103.75 316.89 107.21 318.127 108.286C318.467 108.603 324.538 107.613 324.444 107.674C324.731 109.771 337.442 104.737 338.16 104.808C340.105 104.081 343.033 102.179 347.367 102.856C348.396 102.993 350.043 106.355 351.166 106.431C352.134 106.474 353.324 106.238 354.514 106.002C357.082 105.408 359.5 104.375 359.779 104.597C361.478 106.179 363.97 106.708 365.736 107.979C367.284 109.122 368.138 110.85 369.464 112.271C373.476 116.38 373.926 112.731 376.597 116.636C383.935 127.312 386.844 127.035 388.255 129.207C388.991 130.34 386.696 131.562 386.383 136.869C386.279 137.742 383.546 136.429 377.365 138.698C374.447 139.788 370.959 136.279 367.385 137.392C364.061 138.477 357.529 146.615 354.205 147.7C350.975 148.723 347.402 147.15 344.422 148.146C340.721 149.476 341.466 152.484 339.256 154.456C338.056 155.504 337.187 157.68 335.898 158.384C333.225 159.851 330.199 159.534 330.255 160.034C330.335 161.191 320.004 181.466 324.744 182.147C325.15 182.152 327.917 180.623 330.656 178.844C333.357 177.627 335.883 178 335.571 177.934C334.32 178.075 337.913 178.024 338.22 178.497C338.526 178.969 340.066 175.551 339.944 175.362C339.765 174.673 340.431 173.837 340.563 173.214C340.828 171.968 341.574 169.603 342.179 168.673C344.975 164.708 348.753 162.254 349.753 162.141C352.539 161.674 367.822 161.013 371.292 160.773C375.092 164.348 374.892 167.969 378.136 168.414C383.905 169.232 392.441 168.522 392.87 169.183C401.292 172.844 395.089 187.483 395.089 187.483C395.656 187.115 401.833 195.591 410.543 198.662C413.225 199.069 418.173 198.003 420.793 198.316C422.94 201.621 424.55 202.859 425.503 204.12C425.465 204.681 424.681 207.608 422.693 209.303C419.742 210.548 418.017 213.683 413.778 212.945C412.361 213.865 411.568 214.918 411.799 216.514C412.181 218.549 418.736 226.779 419.113 229.22C419.551 231.756 426.687 243.773 427.215 246.653C434.597 285.1 452.194 334.102 458.474 331.366C459.007 331.153 459.919 330.696 460.263 330.606C461.269 330.087 462.18 329.629 463.186 329.11C465.387 327.949 467.493 326.85 469.632 325.595C472.871 323.759 476.143 321.768 479.321 319.838C479.109 319.304 479.019 318.959 479.024 318.553Z" fill="#1D7874"/>
</svg>
