<svg width="91" height="57" viewBox="0 0 91 57" fill="none" xmlns="http://www.w3.org/2000/svg">
<path d="M89.4545 27.1006C85.6772 22.0543 81.3603 17.3139 76.7736 13.0322C72.052 8.90337 66.6559 5.99792 61.9343 2.17497C60.99 1.56329 61.5296 -0.271726 62.7437 0.0341108C73.6709 4.1629 83.7886 15.7847 90.8035 25.7244C91.478 26.7948 90.2639 28.1711 89.4545 27.1006Z" fill="white"/>
<path d="M90.6885 29.2784C76.7935 32.1838 61.6843 31.2663 47.6544 32.0309C32.4104 32.7955 17.1664 34.3247 1.92236 34.1718C-0.640795 34.1718 -0.640795 29.8901 1.92236 29.7372C16.6268 28.6667 31.4661 28.9726 46.3054 28.6667C60.8749 28.3609 76.2538 26.373 90.6885 28.3609C90.9583 28.3609 91.2281 29.1255 90.6885 29.2784Z" fill="white"/>
<path d="M91 34.3329C90.7302 34.3329 90.4604 34.1816 90.1906 34.1816C90.4604 34.1816 90.7302 34.1816 91 34.3329C91 34.3329 91 34.1816 91 34.3329Z" fill="white"/>
<path d="M90.7581 34.7629C92.6468 40.268 82.9338 42.4088 80.3706 43.7851C72.4114 47.761 64.8568 53.4189 56.7626 56.9361C55.5485 57.3948 54.4693 55.254 55.4136 54.3365C60.0003 50.2077 65.6662 47.6081 70.9274 44.8555C73.2208 43.6322 75.649 42.4088 78.0773 41.3384C81.0451 39.9621 88.5997 37.8213 89.9487 34.61C90.2185 34.1512 90.6232 34.3042 90.7581 34.7629Z" fill="white"/>
</svg>
