<svg width="196" height="113" viewBox="0 0 196 113" fill="none" xmlns="http://www.w3.org/2000/svg">
<g clip-path="url(#clip0)">
<path d="M10.2004 9.3002C8.20036 23.8002 9.30036 39.4002 9.70036 54.1002C9.70036 55.2002 11.4004 55.2002 11.4004 54.1002C11.4004 53.3002 11.4004 52.5002 11.3004 51.7002C11.3004 50.7002 9.80036 50.7002 9.70036 51.7002C9.70036 52.5002 9.70036 53.3002 9.60036 54.1002C10.2004 54.1002 10.7004 54.1002 11.3004 54.1002C11.7004 39.5002 12.8004 23.9002 10.8004 9.3002C10.8004 9.0002 10.3004 9.0002 10.2004 9.3002Z" fill="white"/>
<path d="M7.29961 15C24.7996 16.3 42.7996 15.8 60.2996 15.5C61.4996 15.5 61.4996 13.6 60.2996 13.6C42.7996 13.3 24.7996 12.8 7.29961 14.1C6.69961 14.1 6.69961 14.9 7.29961 15Z" fill="white"/>
<path d="M58.5001 15.0998C57.8001 29.5998 57.6001 44.0998 57.8001 58.5998C57.8001 59.8998 59.8001 59.8998 59.8001 58.5998C60.0001 44.0998 59.8001 29.5998 59.1001 15.0998C59.2001 14.6998 58.6001 14.6998 58.5001 15.0998Z" fill="white"/>
<path d="M9.6 60.5998C26.7 61.3998 44.3 61.7998 61.4 60.9998C61.4 60.2998 61.4 59.5998 61.4 58.8998C60.9 58.8998 60.5 58.8998 60 58.9998C58.7 59.0998 58.7 60.9998 60 60.9998C60.5 60.9998 60.9 60.9998 61.4 61.0998C62.8 61.1998 62.8 58.9998 61.4 58.9998C44.3 58.2998 26.7 58.5998 9.6 59.3998C8.8 59.2998 8.8 60.4998 9.6 60.5998Z" fill="white"/>
<path d="M1.60005 47.1002C4.30005 51.5002 6.90005 56.3002 10.1001 60.4002C10.4001 60.8002 11.0001 60.3002 10.8001 59.9002C8.40005 55.3002 5.00005 51.0002 2.10005 46.8002C1.90005 46.4002 1.40005 46.7002 1.60005 47.1002Z" fill="white"/>
<path d="M1.7998 45.2C1.8998 35.4 3.2998 24.7 1.7998 15C1.6998 14.5 0.899802 14.5 0.799802 15C-0.700198 24.7 0.699802 35.4 0.799802 45.2C0.699802 45.9 1.6998 45.9 1.7998 45.2Z" fill="white"/>
<path d="M1.79975 16.4002C1.89975 13.8002 1.99975 11.3002 2.09975 8.7002C2.09975 8.2002 1.19975 8.2002 1.29975 8.7002C1.39975 11.3002 1.59975 13.8002 1.59975 16.4002C1.59975 16.5002 1.79975 16.5002 1.79975 16.4002Z" fill="white"/>
<path d="M10.3004 12.4001C8.6004 9.70014 6.90039 7.00014 4.90039 4.50014C4.50039 4.00014 3.70039 4.70014 4.00039 5.20014C5.70039 7.90014 7.7004 10.4001 9.8004 12.8001C10.1004 13.1001 10.5004 12.7001 10.3004 12.4001Z" fill="white"/>
<path d="M2.19961 5.49995C18.3996 6.59995 34.7996 6.59995 50.9996 6.49995C52.9996 6.49995 52.9996 3.49995 50.9996 3.49995C34.7996 3.39995 18.3996 3.39995 2.19961 4.49995C1.39961 4.39995 1.39961 5.39995 2.19961 5.49995Z" fill="white"/>
<path d="M58.7001 12.9998C52.8001 7.59981 46.2001 3.39981 38.9001 0.0998088C37.8001 -0.400191 36.8001 1.29981 37.9001 1.79981C45.1001 4.89981 51.8 9.09981 58.1 13.6998C58.6 13.9998 59.1001 13.2998 58.7001 12.9998Z" fill="white"/>
<path d="M18.9999 59.9998C14.9999 69.9998 29.6999 74.6998 36.4999 76.9998C48.6999 80.9998 62.0999 82.6998 74.9999 81.2998C100.8 78.4998 50.1999 49.7998 53.9999 65.1998C54.2999 66.4998 56.4999 66.5998 56.6999 65.1998C57.2999 61.0998 74.7999 70.7998 76.1999 72.8998C78.0999 73.9998 78.2999 75.7998 76.5999 78.0998C75.7999 78.1998 74.8999 78.2998 74.0999 78.3998C72.2999 78.5998 70.4999 78.6998 68.6999 78.7998C65.3999 78.8998 62.0999 78.8998 58.7999 78.6998C51.7999 78.1998 44.7999 76.8998 37.9999 74.8998C31.3999 72.8998 18.5999 69.6998 20.0999 60.4998C20.1999 59.4998 19.2999 59.1998 18.9999 59.9998Z" fill="white"/>
<path d="M82.8 77.7001C82.8 77.1001 82.4 76.7001 82 76.3001C81.6 75.8001 81.2 75.4001 80.7 75.1001C79.8 74.6001 78.9 75.6001 79.4 76.4001C79.7 77.0001 80 77.4001 80.6 77.8001C81.1 78.1001 81.4 78.5001 82 78.6001C82.4 78.6001 82.8 78.1001 82.8 77.7001Z" fill="white"/>
<path d="M82.0999 77.7C80.8999 78.9 81.2999 80.8 81.2999 82.4C81.1999 84.9 81.1999 87.4 80.9999 89.8C80.8999 91.3 83.4999 91.3 83.2999 89.8C83.0999 87.3 83.0999 84.8 82.9999 82.4C82.9999 80.8 83.3999 78.9 82.1999 77.7C82.1999 77.6 82.0999 77.6 82.0999 77.7Z" fill="white"/>
<path d="M8.80004 60.0998C8.30004 64.7998 7.80004 69.7998 8.20004 74.4998C8.30004 75.5998 9.80004 75.5998 10 74.4998C10.5 69.7998 9.90004 64.6998 9.40004 60.0998C9.40004 59.6998 8.90004 59.6998 8.80004 60.0998Z" fill="white"/>
<path d="M8.70035 72.3002C2.90035 82.4002 26.6004 89.0002 32.6004 90.3002C47.3004 93.4002 63.5004 93.4002 78.4004 92.0002C80.7004 91.8002 80.8004 88.1002 78.4004 88.3002C66.7004 89.3002 54.5004 89.3002 42.8004 88.2002C37.0004 87.8002 31.2004 86.8002 25.7004 85.0002C21.0004 83.5002 8.30035 79.3002 9.40035 72.6002C9.50035 72.2002 9.00035 71.9002 8.70035 72.3002Z" fill="white"/>
<path d="M16.3997 82.1002C15.9997 81.6002 15.8997 81.5002 15.2997 81.3002C14.3997 80.9002 13.4997 82.2002 13.9997 83.0002C15.8997 86.0002 18.9997 87.1002 21.8997 89.0002C28.1997 93.1002 27.2997 100.5 26.5997 107C26.3997 109.3 29.9997 109.3 30.1997 107C30.8997 101.4 31.0997 95.1002 27.5997 90.3002C26.3997 88.7002 24.9997 87.5002 23.2997 86.5002C21.2997 85.3002 17.7997 83.1002 15.9997 82.9002C16.4997 82.9002 16.5997 82.3002 16.3997 82.1002Z" fill="white"/>
<path d="M80.6995 88.5C71.4995 90.2 70.1995 103.5 69.7995 110.9C70.3995 110.3 70.9995 109.7 71.5995 109.1C71.7995 109.3 72.0995 109.4 72.2995 109.6C71.4995 108.5 69.3995 108.7 69.4995 110.4C69.5995 111.4 69.7995 112 70.6995 112.5C71.8995 113.1 73.3995 112.4 73.3995 111C73.4995 106.8 73.4995 102.5 74.8995 98.5C76.1995 94.7 78.5995 92.5 81.3995 89.8C81.8995 89.1 81.2995 88.3 80.6995 88.5Z" fill="white"/>
<path d="M28.6 109.4C31.8 110.6 35.2 110 38.6 110C42.9 109.9 47.2 109.8 51.4 109.8C59.6 109.7 67.9 109.7 76.1 109.3C77.5 109.2 77.6 107.1 76.1 107C67.9 106.9 59.6 107.3 51.4 107.5C47.4 107.6 43.5 107.7 39.5 107.8C35.9 107.9 31.9 107.4 28.5 108.8C28.2 108.9 28.2 109.3 28.6 109.4Z" fill="white"/>
<path d="M6.49997 55.4996C6.89997 61.6996 7.49997 67.9996 7.69997 74.1996C7.79997 76.9996 9.49997 90.4996 5.49997 91.1996C5.99997 91.4996 6.49997 91.7996 6.99997 91.9996C6.99997 91.8996 6.99997 91.7996 6.99997 91.6996C6.69997 90.5996 5.19997 90.6996 4.89997 91.6996C4.59997 92.4996 4.89997 92.8996 5.39997 93.4996C5.69997 93.9996 6.29997 93.9996 6.79997 93.8996C11.9 92.8996 10.7 84.0996 10.6 80.6996C10.3 72.1996 9.49997 63.5996 7.59997 55.2996C7.39997 54.7996 6.49997 54.8996 6.49997 55.4996Z" fill="white"/>
<path d="M26.1001 106.9C22.2001 98.6999 14.1001 92.5999 5.00008 91.7999C4.00008 91.6999 3.70008 93.4999 4.80008 93.5999C13.6001 94.9999 20.9001 99.3999 25.3001 107.4C25.5001 107.9 26.3001 107.5 26.1001 106.9Z" fill="white"/>
<path d="M44.4999 24.1997C45.0999 23.9997 44.5999 24.9997 45.1999 24.7997C44.8999 24.7997 44.5999 24.6997 44.2999 24.6997C44.2999 24.5997 44.2999 24.4997 44.2999 24.4997C44.5999 24.3997 44.8999 24.2997 45.1999 24.0997C44.9999 23.9997 44.7999 24.0997 44.7999 24.3997C44.3999 24.2997 43.9999 24.1997 43.5999 24.0997C43.6999 24.1997 43.6999 24.2997 43.5999 24.3997C44.3999 24.6997 45.0999 24.9997 45.8999 25.3997C46.0999 24.4997 47.5999 23.8997 48.0999 24.7997C48.2999 24.1997 48.3999 23.5997 48.5999 22.9997C47.8999 23.2997 47.2999 23.5997 46.4999 23.5997C46.4999 23.5997 46.4999 23.4997 46.3999 23.4997C46.2999 23.3997 46.2999 23.2997 46.3999 23.2997C45.8999 23.5997 45.7999 23.6997 46.1999 23.6997C45.7999 23.6997 45.4999 23.5997 45.0999 23.5997C45.4999 23.7997 45.6999 24.1997 45.6999 24.5997C46.2999 24.0997 46.9999 23.5997 47.5999 23.0997C46.8999 22.9997 47.3999 22.9997 47.3999 23.0997C46.8999 23.5997 46.3999 24.0997 45.7999 24.6997C44.6999 24.7997 45.2999 23.4997 45.6999 23.3997C43.4999 23.8997 44.6999 27.3997 46.9999 26.3997C49.1999 25.3997 48.2999 21.3997 45.7999 21.5997C44.9999 21.6997 44.1999 22.2997 44.1999 23.1997C44.2999 24.5997 45.1999 25.8997 46.6999 26.0997C47.5999 26.1997 48.7999 25.6997 48.5999 24.5997C48.3999 23.1997 47.5999 21.2997 45.9999 20.9997C44.5999 20.6997 43.4999 21.9997 43.3999 23.2997C43.2999 24.4997 43.8999 25.6997 44.9999 26.1997C46.5999 26.9997 48.2999 26.1997 49.6999 25.4997C50.2999 25.1997 50.4999 24.2997 50.1999 23.6997C48.4999 21.0997 43.8999 21.6997 43.2999 24.8997C43.0999 26.1997 44.8999 27.1997 45.5999 25.8997C46.1999 24.6997 46.0999 23.4997 45.0999 22.4997C44.7999 22.1997 44.2999 22.0997 43.8999 22.1997C42.2999 22.5997 41.7999 24.5997 42.8999 25.7997C44.0999 27.0997 46.2999 26.9997 46.4999 24.9997C46.6999 23.2997 44.9999 22.0997 43.4999 23.1997C42.2999 24.0997 42.4999 26.3997 44.2999 26.1997C44.6999 26.1997 45.0999 25.8997 45.1999 25.4997C45.2999 25.1997 45.2999 24.8997 45.0999 24.6997C45.0999 24.2997 44.7999 24.0997 44.4999 24.1997Z" fill="#ECDB11"/>
<path d="M47.7004 24.5998C49.9004 24.7998 52.1004 24.9998 54.4004 25.2998C54.7004 24.3998 54.9004 23.3998 55.2004 22.4998C54.5004 22.3998 53.9004 22.1998 53.2004 22.1998C53.2004 23.2998 53.2004 24.4998 53.2004 25.5998C53.8004 25.5998 54.4004 25.5998 55.0004 25.6998C55.0004 24.4998 55.0004 23.2998 55.0004 22.0998C53.5004 22.0998 51.9004 21.5998 50.5004 21.9998C48.9004 22.3998 48.9004 24.4998 50.1004 25.2998C51.6004 26.2998 53.8004 25.8998 55.5004 25.6998C57.5004 25.3998 57.0004 22.0998 55.0004 22.1998C54.4004 22.1998 53.8004 22.2998 53.2004 22.2998C51.0004 22.3998 51.0004 25.7998 53.2004 25.6998C53.9004 25.6998 54.5004 25.4998 55.2004 25.3998C57.1004 24.9998 56.2004 22.2998 54.4004 22.5998C52.2004 22.8998 50.0004 23.0998 47.7004 23.2998C46.8004 23.2998 46.8004 24.5998 47.7004 24.5998Z" fill="#ECDB11"/>
</g>
<g clip-path="url(#clip1)">
<path d="M77.0004 35.4002C76.9004 34.4002 76.8004 33.4002 76.8004 32.4002C76.8004 31.8002 75.9004 31.8002 75.9004 32.4002C76.4004 40.0002 76.1004 47.9002 77.1004 55.4002C77.2004 56.5002 78.8004 56.6002 78.9004 55.4002C79.2004 51.0002 78.5004 46.5002 78.0004 42.1002C77.9004 40.1002 77.7004 38.0002 77.4004 35.9002C77.2004 34.3002 76.2004 32.7002 76.6004 35.5002C76.7004 35.7002 77.1004 35.6002 77.0004 35.4002Z" fill="white"/>
<path d="M78.6997 35.8996C80.9997 33.8996 86.2997 32.0996 87.4997 35.9996C88.2997 38.4996 85.9997 40.8996 84.2997 42.6996C83.3997 43.6996 83.9997 45.2996 85.3997 45.2996C87.1997 45.2996 90.0997 45.0996 91.6997 46.0996C94.8997 48.0996 93.6997 51.6996 90.6997 52.8996C87.4997 54.1996 83.8997 52.8996 80.5997 53.5996C79.0997 53.8996 79.1997 56.0996 80.5997 56.4996C86.0997 57.9996 95.6997 57.6996 97.2997 50.6996C98.8997 43.6996 90.4997 41.8996 85.3997 42.2996C85.7997 43.0996 86.2997 43.7996 86.6997 44.5996C88.2997 41.5996 92.7997 36.6996 88.9997 33.5996C85.6997 30.8996 80.6997 32.3996 78.0997 35.2996C77.6997 35.6996 78.2997 36.2996 78.6997 35.8996Z" fill="white"/>
<path d="M97.2997 55.9004C97.3997 52.5004 97.8997 49.4004 99.1997 46.3004C99.5997 45.3004 102.3 38.6004 103.6 38.3004C106.3 37.8004 107.4 43.5004 107.7 45.2004C108 46.8004 108.2 48.5004 108.4 50.1004C108.5 51.0004 109.3 53.8004 109 54.5004C109.6 54.3004 110.1 54.2004 110.7 54.0004C110.6 54.0004 110.5 53.9004 110.4 53.9004C110.5 54.4004 110.7 55.0004 110.8 55.5004C110.8 55.4004 110.9 55.3004 110.9 55.3004C111.4 54.1004 110.1 53.1004 109.1 53.9004C109.1 53.9004 109 54.0004 109 54.1004C108.5 54.5004 108.6 55.3004 109 55.8004C109.1 55.9004 109.1 56.0004 109.2 56.1004C109.7 56.6004 110.5 56.5004 111 56.1004C112.1 55.2004 111.7 53.9004 111.5 52.6004C111.1 49.9004 110.7 47.2004 110.2 44.5004C109.6 41.4004 108.3 37.0004 104.9 35.8004C101.3 34.5004 99.4997 40.5004 98.3997 42.9004C96.4997 47.0004 95.1997 51.5004 96.2997 56.0004C96.4997 56.5004 97.2997 56.4004 97.2997 55.9004Z" fill="white"/>
<path d="M96.7002 49.5003C101.2 50.1003 106.2 49.9003 110.8 50.1003C112.3 50.2003 112.3 47.7003 110.8 47.7003C106.3 47.5003 101 47.4003 96.7002 48.6003C96.2002 48.7003 96.2002 49.5003 96.7002 49.5003Z" fill="white"/>
<path d="M117.6 37.9003C115.2 42.8003 113.5 49.4003 113.7 55.0003C113.8 56.5003 115.8 56.4003 115.9 55.0003C116.3 52.0003 116.2 49.1003 116.7 46.1003C117.2 43.5003 117.9 40.9003 118.5 38.3003C118.8 37.7003 117.9 37.3003 117.6 37.9003Z" fill="white"/>
<path d="M99.4999 37C105.3 38 111.3 38.1 117.2 38.8C123 39.5 129.1 41 135 41C136.5 41 136.7 38.9 135.3 38.5C129.9 36.9 123.9 36.9 118.3 36.5C112.2 36.1 105.7 35.4 99.5999 36C99.0999 36.1 98.8999 36.9 99.4999 37Z" fill="white"/>
<path d="M123.9 40.8997C123.4 43.4997 122.9 45.9997 122.5 48.4997C122.1 50.7997 121.4 53.0997 121.6 55.3997C121.7 56.3997 123 56.5997 123.3 55.5997C124.1 53.4997 124 50.9997 124.3 48.6997C124.6 46.0997 124.7 43.4997 124.9 40.8997C124.9 40.3997 124 40.2997 123.9 40.8997Z" fill="white"/>
<path d="M122.8 48.1997C125.8 48.4997 129 48.6997 131.9 48.0997C133.1 47.8997 132.8 45.7997 131.6 45.9997C128.6 46.2997 125.8 46.7997 122.8 46.6997C121.8 46.6997 121.9 48.0997 122.8 48.1997Z" fill="white"/>
<path d="M131.8 43.3001C131 42.5001 130.6 42.7001 130.8 44.0001C130.7 44.5001 130.7 45.0001 130.7 45.5001C130.7 46.7001 130.7 48.0001 130.7 49.2001C130.7 52.1001 130.7 54.9001 130.8 57.8001C130.8 59.0001 132.6 59.0001 132.6 57.8001C132.6 54.9001 132.7 52.1001 132.7 49.2001C132.7 46.7001 132.9 44.2001 132 41.8001C131.9 41.4001 131.3 41.6001 131.4 42.0001C131.5 42.5001 131.5 42.9001 131.6 43.4001C131.6 43.4001 131.8 43.4001 131.8 43.3001Z" fill="white"/>
<path d="M138.1 58.6999C138.5 54.3999 138.5 50.0999 138.7 45.6999C138.7 44.9999 138.5 42.6999 138.8 42.2999C139.2 41.6999 141.5 41.4999 142.1 42.0999C142.1 42.8999 142.1 43.6999 142.1 44.5999C141.6 44.7999 141 45.0999 140.5 45.2999C139.8 45.5999 139.2 45.8999 138.6 46.2999C137.2 47.3999 136.4 48.9999 137.1 50.6999C137.7 52.1999 139.3 53.3999 140.4 54.4999C141.9 55.9999 143.3 57.3999 145.1 58.4999C146.2 59.1999 147.8 57.7999 147 56.5999C146 55.2999 145 54.2999 143.8 53.0999C143 52.3999 140.9 50.9999 140.6 50.0999C140 47.4999 144 47.0999 145.1 45.3999C146.8 42.7999 144.9 40.4999 142.6 39.2999C140.1 37.9999 137.2 37.7999 136.5 40.9999C136 43.3999 136.6 46.4999 136.7 48.8999C136.8 52.0999 136.9 55.2999 137.2 58.3999C137.2 59.2999 138 59.2999 138.1 58.6999Z" fill="white"/>
<path d="M153 42.9001C149.4 43.6001 148 47.4001 147.4 50.7001C147.1 52.3001 146.7 54.1001 147.8 55.5001C148.8 56.8001 150.7 57.3001 152.3 57.3001C155.7 57.2001 158.8 54.3001 158.8 50.9001C158.8 47.4001 155.5 43.3001 151.8 44.2001C150.5 44.5001 150.8 46.1001 151.8 46.5001C153.9 47.3001 156 48.2001 156.1 50.8001C156.2 53.1001 154 55.0001 151.7 55.0001C148.6 55.0001 149.1 51.6001 149.6 49.5001C150.1 47.3001 151 45.0001 153.3 44.2001C153.9 43.7001 153.7 42.7001 153 42.9001Z" fill="white"/>
<path d="M162 45.0002C162.8 44.2002 161.9 43.1002 160.9 43.3002C159 43.5002 157.5 47.6002 157 49.1002C155.5 54.1002 159 58.9002 164.4 58.5002C169.6 58.1002 172.3 52.4002 170.8 47.8002C170 45.3002 168 43.4002 165.6 42.5002C163.4 41.6002 160.1 41.1002 158.3 43.0002C157.6 43.8002 157.9 45.0002 158.9 45.3002C161.4 46.0002 163.8 45.0002 166 47.0002C168 48.8002 168.3 52.4002 166.2 54.3002C164.3 56.0002 160.9 55.5002 159.7 53.1002C159 51.6002 159.3 49.9002 159.8 48.4002C160.1 47.5002 160.5 46.7002 160.9 45.9002C161 45.7002 161.2 45.5002 161.3 45.3002C161.8 44.9002 161.8 44.7002 161.3 44.8002C161.3 45.0002 161.7 45.2002 162 45.0002Z" fill="white"/>
<path d="M175.2 57.6996C176 52.9996 175.8 47.9996 176 43.1996C175.4 43.5996 174.7 43.8996 174.1 44.2996C177.1 46.0996 176.1 52.2996 180 52.9996C181.6 53.2996 182.8 52.0996 183.9 51.1996C186.3 49.1996 188.5 46.4996 191.8 46.1996C191.3 45.6996 190.8 45.1996 190.3 44.6996C190.2 49.8996 190.3 55.4996 191.9 60.4996C192.6 62.6996 195.7 61.7996 195.3 59.5996C194.5 54.5996 193.5 49.7996 193.4 44.6996C193.4 43.5996 192.4 43.0996 191.5 43.1996C189.6 43.4996 187.9 44.1996 186.3 45.2996C184.8 46.2996 183.4 48.3996 181.8 49.0996C179.2 50.1996 179.1 46.5996 178.2 44.9996C177.5 43.6996 176.7 42.7996 175.4 42.1996C174.6 41.7996 173.5 42.2996 173.5 43.2996C173.7 48.0996 173.5 53.0996 174.3 57.7996C174.3 58.0996 175.1 58.0996 175.2 57.6996Z" fill="white"/>
</g>
<defs>
<clipPath id="clip0">
<rect width="83.3" height="112.6" fill="white"/>
</clipPath>
<clipPath id="clip1">
<rect width="119.3" height="29.7" fill="white" transform="translate(76 32)"/>
</clipPath>
</defs>
</svg>
