<svg width="414" height="387" viewBox="0 0 414 387" fill="none" xmlns="http://www.w3.org/2000/svg">
<path d="M671.074 245.747C666.43 241.853 661.137 239.133 655.516 237.101C646.938 233.946 638.369 230.591 629.679 227.732C623.558 225.679 618.282 222.559 613.658 218.166C607.877 212.724 601.023 209.039 593.515 206.629C581.165 202.718 568.603 199.099 557.476 192.236C547.519 186.122 536.822 183.381 525.207 183.504C505.882 183.71 487.45 179.249 469.4 172.803C465.157 171.327 460.881 170.651 456.348 171.365C446.178 172.849 436.005 174.432 425.847 175.616C416.897 176.649 408.41 178.603 401.261 184.514C399.813 185.655 398.078 186.485 396.259 186.91C388.383 188.588 382.898 192.967 379.002 200.113C376.294 205.106 371.559 208.314 366.018 209.187C357.955 210.557 350.626 213.559 343.284 216.86C340.533 218.048 337.873 219.44 334.764 219.612C327.841 220.028 321.022 220.349 314.132 219.965C302.354 219.181 290.389 218.089 279.13 214.423C264.411 209.715 200.759 234.021 192.876 238.301C180.591 245.002 156.248 221.182 142.526 219.016C138.15 218.336 134.015 216.665 129.764 215.389C121.557 212.95 113.643 213.125 105.944 217.813C96.7055 223.438 86.3745 226.417 75.7013 227.98C67.3426 229.237 58.9963 230.195 50.6334 231.553C47.3075 232.117 43.5107 231.961 41.5561 235.684C41.0196 236.562 40.0327 236.222 39.8616 235.514C39.2649 232.987 37.721 234.025 36.3058 234.367C33.4753 235.051 30.9199 236.347 28.2728 237.44C16.2609 242.35 4.06981 246.753 -9.30656 245.903C-18.4906 245.326 -25.5367 248.739 -28.8244 258.112C-29.9632 261.468 -32.4721 264.067 -34.7811 266.675C-42.9729 276.046 -52.5977 283.757 -63.5516 289.712C-68.8745 292.596 -74.2016 295.58 -78.8662 299.492C-84.8748 304.449 -91.4419 308.383 -98.3882 311.8C-99.5119 312.355 -106.294 319.082 -108.034 320.011C-97.3371 322.753 -90.0172 324.855 -79.8053 324.774C-74.5016 324.792 -60.1027 322.682 -54.9441 323.795C-46.313 325.651 -38.484 322.67 -29.8091 321.025C-17.7084 318.82 -6.16335 320.395 5.13802 325.464C12.2128 328.657 19.6038 331.463 27.1194 333.673C32.9528 335.414 38.6398 335.848 44.6334 333.693C52.5623 330.716 60.8334 329.154 69.1169 327.293C77.8041 325.348 85.6728 326.272 92.9693 331.376C94.0396 332.121 95.214 332.769 96.3883 333.418C105.192 338.384 113.883 343.645 123.905 345.759C134.917 348.113 145.469 351.95 155.8 356.277C158.261 357.279 160.613 358.477 163.299 358.888C172.746 360.377 182.076 362.262 191.386 364.646C206.833 368.684 221.399 374.687 235.728 381.582C237.493 382.455 238.597 382.4 239.765 380.747C241.787 377.827 244.579 375.64 247.272 373.449C279.837 348.165 316.225 329.744 353.637 313.166C384.32 299.615 416.703 290.938 448.366 280.329C468.053 273.732 488.713 270.278 508.83 265.4C529.047 260.526 549.474 257.863 570.214 257.314C574.722 257.199 579.223 257.284 583.731 257.169C588.643 256.971 593.576 256.273 598.48 256.274C613.792 256.303 629.112 256.132 644.479 257.264C658.946 258.36 673.276 260.35 687.574 263.139C691.246 263.891 694.926 264.442 698.499 265.19C694.85 261.437 691.072 258.379 686.662 256.096C681.174 253.268 675.91 249.849 671.074 245.747Z" fill="#91B7AC" stroke="#91B7AC" stroke-width="3" stroke-miterlimit="10"/>
<path d="M108.161 251.532C108.683 246.149 107.339 247.195 103.702 243.142C100.345 239.601 86.6714 228.93 81.8878 228.433C73.9151 227.605 57.522 229.534 50.8331 231.561C48.2983 232.357 44.2962 229.891 43.761 233.172C43.6282 233.967 52.273 237.925 55.1349 241.346C58.5676 245.49 65.6438 243.779 70.7819 245.392C75.92 247.004 79.1104 257.043 84.1281 259.151C94.3674 263.275 84.05 268.356 91.9515 275.787C92.3347 276.203 107.805 269.933 110.294 267.833C120.975 258.764 130.901 268.08 138.852 267.006C140.962 266.792 120.303 255.634 117 253.196C113.119 250.235 107.955 254.126 108.161 251.532Z" fill="#679289" stroke="#679289" stroke-width="3" stroke-miterlimit="10"/>
<path d="M361.678 295.282C360.371 295.429 361.71 277.469 360.323 277.111C336.628 271.634 317.754 280.366 296.158 270.07C284.869 264.702 265.33 253.09 254.032 247.921C242.931 242.861 250.705 231.471 238.1 231.353C231.597 231.286 214.459 234.284 214.968 229.201C203.993 233.254 195.686 238.117 192.78 238.197C165.817 239.191 157.803 217.443 146.723 221.592C150.82 236.372 189.379 267.382 203.504 281.674C224.319 289.036 257.508 314.32 268.853 323.193C290.478 340.096 283.552 306.483 304.224 324.647C327.737 310.201 328.257 324.334 353.641 313.067C362.814 309.041 372.175 305.322 381.619 302.007C375.223 299.342 368.519 296.865 361.678 295.282Z" fill="#679289" stroke="#679289" stroke-width="3" stroke-miterlimit="10"/>
<g clip-path="url(#clip0)">
<path d="M421.962 154.722C418.559 154.843 415.192 154.863 411.789 154.983C410.987 155.031 410.139 155.515 410.144 156.423C410.087 157.196 410.722 158.22 411.56 158.072C414.963 157.952 418.33 157.931 421.734 157.811C422.535 157.763 423.383 157.279 423.378 156.371C423.498 155.735 422.863 154.71 421.962 154.722Z" fill="white"/>
<path d="M394.756 161.469C393.658 163.562 392.56 165.655 391.499 167.647C391.254 168.011 391.108 168.411 391.259 168.919C391.348 169.292 391.535 169.7 391.894 169.944C392.514 170.396 393.648 170.356 394.038 169.592C395.136 167.499 396.234 165.406 397.296 163.414C397.54 163.05 397.686 162.65 397.535 162.141C397.446 161.769 397.259 161.361 396.9 161.117C396.281 160.665 395.183 160.605 394.756 161.469Z" fill="white"/>
<path d="M385.255 192.79C385.713 195.222 386.073 197.619 386.531 200.052C386.671 200.896 387.551 201.556 388.425 201.308C389.263 201.16 389.887 200.368 389.684 199.387C389.226 196.955 388.867 194.558 388.409 192.126C388.268 191.281 387.389 190.621 386.515 190.869C385.739 191.153 385.115 191.946 385.255 192.79Z" fill="white"/>
<path d="M383.191 219.681C382.983 219.946 382.775 220.21 382.468 220.438C382.296 220.602 382.639 220.274 382.468 220.438C382.431 220.538 382.332 220.502 382.296 220.602C382.124 220.766 382.088 220.866 381.916 221.03C381.401 221.522 380.886 222.014 380.272 222.47C379.965 222.698 379.658 222.926 379.387 223.054C379.252 223.119 379.08 223.283 378.945 223.347C379.215 223.219 378.809 223.411 378.773 223.511C378.195 223.867 377.483 224.287 376.842 224.507C376.067 224.791 375.666 225.891 376.078 226.608C376.452 227.424 377.342 227.748 378.154 227.364C381.094 226.055 383.759 223.966 385.804 221.426C386.355 220.834 386.126 219.617 385.47 219.265C384.617 218.841 383.779 218.989 383.191 219.681Z" fill="white"/>
<path d="M363.853 230.653C362.833 231.301 361.886 231.749 360.741 232.126C360.876 232.062 361.012 231.998 361.111 232.034C360.606 232.19 360.101 232.346 359.633 232.402C359.263 232.494 358.857 232.686 358.613 233.05C358.368 233.414 358.223 233.814 358.373 234.322C358.462 234.694 358.649 235.102 359.008 235.347C359.368 235.591 359.763 235.735 360.268 235.579C361.98 235.182 363.666 234.55 365.227 233.646C365.362 233.582 365.534 233.418 365.706 233.254C365.878 233.09 365.95 232.89 366.023 232.69C366.169 232.289 366.117 231.817 366.028 231.445C365.841 231.037 365.518 230.693 365.086 230.649C364.691 230.505 364.259 230.461 363.853 230.653Z" fill="white"/>
<path d="M340.872 240.864C339.061 241.224 337.115 241.648 335.304 242.009C334.466 242.157 333.806 243.049 334.045 243.929C334.186 244.773 334.966 245.397 335.939 245.185C337.75 244.825 339.697 244.401 341.508 244.041C342.345 243.893 343.006 243 342.767 242.12C342.59 241.376 341.809 240.752 340.872 240.864Z" fill="white"/>
<path d="M318.397 246.615C315.644 246.179 312.735 246.479 310.039 247.424C309.67 247.516 309.389 247.98 309.243 248.38C309.097 248.78 309.149 249.252 309.238 249.624C309.425 250.032 309.748 250.376 310.18 250.42C310.575 250.564 310.945 250.472 311.413 250.416C311.044 250.508 311.549 250.352 311.549 250.352C311.684 250.288 311.819 250.224 312.053 250.196C312.324 250.068 312.657 250.076 313.026 249.984C313.63 249.864 314.234 249.744 314.801 249.724C314.936 249.66 315.035 249.696 315.269 249.668C314.837 249.624 315.368 249.704 315.504 249.64C315.837 249.648 316.17 249.656 316.404 249.628C317.07 249.644 317.601 249.724 318.23 249.84C319.094 249.928 319.916 249.208 319.875 248.399C319.906 247.391 319.261 246.703 318.397 246.615Z" fill="white"/>
<path d="M298.107 252.822C296.192 252.238 293.923 252.318 292.154 253.486C291.748 253.678 291.54 253.942 291.358 254.442C291.212 254.843 291.264 255.315 291.353 255.687C291.54 256.095 291.863 256.439 292.295 256.483C292.69 256.627 293.122 256.671 293.528 256.479C293.934 256.287 294.376 255.995 294.746 255.903C294.61 255.967 294.475 256.031 294.376 255.995C294.881 255.839 295.349 255.783 295.818 255.727C295.682 255.791 295.584 255.755 295.349 255.783C295.818 255.727 296.349 255.807 296.879 255.886C296.78 255.85 296.583 255.778 296.447 255.843C296.645 255.915 296.744 255.951 296.942 256.023C297.337 256.167 297.806 256.111 298.175 256.018C298.581 255.826 298.925 255.498 298.971 255.062C299.237 254.026 298.898 253.11 298.107 252.822Z" fill="white"/>
<path d="M281.605 257.236C280.731 257.484 279.956 257.768 279.081 258.016C278.847 258.044 278.712 258.108 278.54 258.272C278.405 258.336 278.233 258.5 278.061 258.664C277.89 258.828 277.817 259.028 277.843 259.264C277.77 259.464 277.796 259.7 277.822 259.936C277.91 260.309 278.098 260.717 278.457 260.961C278.556 260.997 278.754 261.069 278.816 261.205C279.113 261.313 279.347 261.285 279.68 261.293C280.554 261.045 281.33 260.76 282.204 260.512C282.438 260.484 282.573 260.42 282.745 260.256C282.88 260.192 283.052 260.028 283.224 259.864C283.395 259.7 283.468 259.5 283.442 259.264C283.515 259.064 283.489 258.828 283.463 258.592C283.375 258.22 283.187 257.812 282.828 257.568C282.729 257.532 282.531 257.46 282.469 257.324C282.074 257.18 281.839 257.208 281.605 257.236Z" fill="white"/>
<path d="M264.183 275.249C259.125 274.993 254.155 275.109 249.039 275.625C248.238 275.674 247.639 276.702 247.78 277.546C247.884 278.49 248.738 278.914 249.674 278.802C254.42 278.378 259.192 278.19 264.017 278.473C265.916 278.485 266.28 275.333 264.183 275.249Z" fill="#EE2E30"/>
<path d="M254.088 271.913C254.166 274.774 254.343 277.67 254.421 280.531C254.473 281.003 254.463 281.339 254.785 281.683C255.009 281.991 255.467 282.271 255.899 282.315C256.664 282.367 257.684 281.719 257.544 280.875C257.465 278.014 257.288 275.117 257.21 272.257C257.158 271.785 257.168 271.449 256.846 271.104C256.622 270.796 256.164 270.516 255.732 270.472C254.967 270.42 254.082 271.005 254.088 271.913Z" fill="#EE2E30"/>
</g>
<defs>
<clipPath id="clip0">
<rect width="297" height="165" fill="white" transform="translate(503.659 56.4541) rotate(110.008)"/>
</clipPath>
</defs>
</svg>
