<svg width="414" height="711" viewBox="0 0 414 711" fill="none" xmlns="http://www.w3.org/2000/svg">
<path d="M611.913 127.121C619.196 120.279 623.466 113.35 627.233 106.248C627.484 105.815 627.735 105.035 627.986 104.775C628.237 103.909 628.489 103.13 628.74 102.264C629.242 100.358 629.744 98.5393 629.995 96.6338C630.498 93.7756 630.749 90.8307 631 87.9725C630.247 87.9725 629.744 87.8859 628.991 87.7127C608.146 82.6891 587.804 77.2325 568.215 70.3035C561.937 68.0516 555.156 67.0989 548.375 65.9729C542.348 65.0201 542.348 65.0201 496.892 61.5556C494.631 58.2643 499.403 56.099 457.714 48.4771C436.869 44.6662 417.783 44.4063 400.454 38.8631C393.673 36.6978 379.61 36.6978 361.528 32.627C354.496 30.9814 346.71 25.0051 338.674 23.6193C329.131 21.9736 311.049 8.63528 300.501 7.76916C295.98 6.64319 278.149 16.6036 263.583 18.9422C256.3 21.7138 243.743 20.8477 237.465 24.572C220.638 18.5091 200.296 4.30465 198.538 3.43852C198.538 3.43852 191.757 3.61174 182.716 0.233847C180.958 -0.459054 165.137 0.49369 163.881 1.70627C156.598 2.74562 151.794 6.68904 142 10.5C135.866 12.9343 128.55 12.0557 122.5 14.5C117.964 16.3325 113.96 21.7141 109.5 23.6193C102.129 26.7677 97.3767 27.2535 90.2972 30.8081C85.1706 33.3747 79.9078 35.6126 74.5 37.5683C69.3666 39.4247 63.9026 37.4757 58.5 38.8631C52.3081 40.4532 46.1341 45.3125 39.5671 46.3984C22.4896 49.2566 0.64048 41.7213 -6.39142 42.4142C-6.64256 42.4142 -50.0896 53.5006 -62.8977 57.6581C-86.2537 65.1068 -116.139 64.0674 -127.189 67.5319C-142.76 72.5555 -177.668 80.5238 -195.499 82.6891C-212.074 84.6812 -245.727 88.319 -258.786 95.0748C-263.809 97.6731 -355.475 108.846 -361 110.838L-171.892 168.955C-164.609 168.955 -157.326 169.129 -150.294 169.302C-143.262 169.475 -136.23 169.475 -129.701 167.137C-105.089 158.129 -107.601 176.491 -80.4775 173.979C-73.1944 173.286 -34.5889 252.374 -15 253.5C25.4334 255.839 97.6965 235.5 109.5 235.5C116.03 235.5 136.687 247.785 149.998 259.131C161.55 268.745 180.456 240 198.538 240C206.072 240 213.607 240.52 221.141 240C242.99 238.528 258.561 233.258 269.862 244.778C286.437 261.494 304.017 249.277 320.843 265.993C329.884 274.915 340.934 262.237 357.509 262.93C368.559 263.45 378.856 265.962 387.646 270.725C390.409 272.284 393.171 272.284 396.436 271.418C423.057 264.056 450.682 261.285 479.061 261.285C484.084 261.285 488.855 261.544 493.878 261.804C503.17 262.151 504.426 261.371 505.682 254.875C507.188 245.781 508.946 236.686 510.453 227.592C512.713 213.388 522.257 203.774 543.352 200.656C565.955 197.278 579.516 186.971 586.548 171.9C590.567 163.152 598.854 155.79 601.366 146.523C603.626 137.775 606.137 132.838 611.16 130.153C610.407 128.854 610.909 127.988 611.913 127.121Z" fill="#F0F4F3"/>
<path fill-rule="evenodd" clip-rule="evenodd" d="M488 266.137V381H-6V254H8.91107C8.81128 252.62 8.54022 251.168 7.93188 249.682C5.69025 244.133 3.97601 243.588 -2.35339 246.091C-8.41907 248.594 -17.9133 256.863 -22.2647 261.215C-28.3304 267.2 -36.1103 268.723 -46 266.547C-44.5262 265.179 -42.1658 263.244 -39.7447 261.26C-36.9669 258.983 -34.1091 256.641 -32.4182 255.013C-25.43 248.446 -17.5132 242.586 -9.61414 236.74C-6.78143 234.643 -3.95105 232.548 -1.16663 230.423C4.23975 226.288 11.0966 226.615 16.6348 230.749C18.6035 232.203 20.9792 233.32 23.3143 234.419C23.9509 234.718 24.5845 235.016 25.2059 235.319C25.9971 235.754 26.7882 235.863 27.8431 235.537C33.3948 233.936 33.428 235.023 33.4551 235.915C33.4816 236.782 33.5023 237.464 38.5703 235.319C39.9245 234.738 42.1691 233.165 44.5908 231.469C48.0643 229.035 51.9022 226.346 54 225.962C58.2605 225.155 60.4911 222.374 62.7834 219.516C64.8188 216.979 66.9029 214.381 70.5 213.05C73.4178 211.951 74.524 206.728 75.5762 201.76C76.7114 196.4 77.7836 191.337 81 192.071C83.4058 192.619 85.6219 193.032 87.7513 193.428C92.3913 194.292 96.6193 195.08 101.5 197.019C103.473 197.759 106.107 199.002 108.973 200.354C114.539 202.98 120.98 206.019 125.158 206.594C127.711 206.936 132.901 211.926 137.93 216.763C142.51 221.167 146.957 225.443 149.157 225.962C158.387 228.138 182.254 229.988 186.606 224.33C192.408 216.822 199.66 212.143 210.077 210.076C213.13 209.469 216.948 210.606 220.71 211.726C225.724 213.219 230.637 214.681 233.5 211.946C235.346 210.205 237.588 208.573 240.357 207.811C241.107 207.811 242.642 208.845 244.178 209.878C245.714 210.912 247.25 211.946 248 211.946C250.392 208.195 256.469 205.589 261.121 203.594C261.597 203.39 262.059 203.192 262.5 203C262.835 202.842 265.694 204.255 269.655 206.212C276.606 209.647 286.949 214.758 293 216C294.942 218.255 300.079 217.338 305.182 216.427C309.434 215.667 313.663 214.912 316 216C320.644 218.205 323.957 218.094 327.149 217.987C330.573 217.872 333.859 217.762 338.5 220.521C343.594 223.572 344.621 223.581 347 223.603C348.439 223.615 350.372 223.632 354 224.33C358.536 225.21 360.007 225.317 361.395 225.714C362.75 226.102 364.026 226.767 368 228.702C370.825 230.047 373.828 230.432 376.938 230.83C377.602 230.915 378.271 231 378.945 231.096C379.472 231.205 380.131 231.096 380.527 230.879C383.492 229.247 385.945 227.209 388.214 225.323C392.907 221.423 396.817 218.174 402.861 220.521C403.698 220.845 404.534 221.169 405.37 221.493C412.69 224.333 419.958 227.153 427.651 229.008C428.061 229.105 428.471 229.212 428.882 229.32C430.317 229.696 431.753 230.072 433.189 229.988C441.635 229.697 449.768 230.871 457.959 232.052C458.976 232.199 459.993 232.346 461.012 232.49C461.714 232.579 462.951 232.851 464.616 233.216C471.085 234.634 484.006 237.468 497.011 236.516C509.061 235.649 521.864 233.444 532.488 231.614C544.535 229.54 553.781 227.947 555.953 229.335C557.52 230.304 519.291 250.17 488 266.137Z" fill="#679289"/>
<path fill-rule="evenodd" clip-rule="evenodd" d="M-26 636.863L-25.9999 307L468 307L468 649L453.089 649C453.189 650.38 453.46 651.833 454.068 653.318C456.31 658.868 458.024 659.412 464.353 656.909C470.419 654.407 479.913 646.137 484.265 641.785C490.33 635.8 498.11 634.277 508 636.453C506.526 637.821 504.166 639.756 501.745 641.74C498.967 644.017 496.109 646.359 494.418 647.987C487.43 654.554 479.513 660.414 471.614 666.26C468.781 668.357 465.951 670.452 463.167 672.577C457.76 676.712 450.903 676.386 445.365 672.251C443.397 670.797 441.021 669.68 438.686 668.581C438.049 668.282 437.416 667.984 436.794 667.681C436.003 667.246 435.212 667.137 434.157 667.463C428.605 669.064 428.572 667.977 428.545 667.085C428.518 666.219 428.498 665.536 423.43 667.681C422.076 668.262 419.831 669.835 417.409 671.531C413.936 673.965 410.098 676.654 408 677.038C403.74 677.845 401.509 680.626 399.217 683.484C397.181 686.021 395.097 688.62 391.5 689.95C388.582 691.049 387.476 696.272 386.424 701.24C385.289 706.6 384.216 711.663 381 710.929C378.594 710.381 376.378 709.969 374.249 709.572C369.609 708.708 365.381 707.92 360.5 705.981C358.527 705.241 355.893 703.999 353.027 702.646C347.461 700.02 341.02 696.981 336.842 696.406C334.289 696.065 329.099 691.074 324.07 686.238C319.49 681.833 315.043 677.557 312.843 677.038C303.613 674.862 279.746 673.013 275.394 678.671C269.592 686.178 262.34 690.857 251.923 692.924C248.87 693.531 245.052 692.394 241.29 691.274C236.276 689.781 231.363 688.319 228.5 691.054C226.654 692.795 224.412 694.427 221.643 695.189C220.893 695.189 219.358 694.155 217.822 693.122C216.286 692.088 214.75 691.054 214 691.054C211.608 694.805 205.531 697.411 200.879 699.406C200.403 699.61 199.941 699.808 199.5 700C199.165 700.158 196.306 698.745 192.345 696.788C185.394 693.353 175.051 688.242 169 687C167.058 684.745 161.921 685.662 156.818 686.573C152.566 687.333 148.337 688.088 146 687C141.356 684.795 138.043 684.906 134.851 685.013C131.427 685.128 128.141 685.238 123.5 682.479C118.406 679.428 117.379 679.419 115 679.397C113.561 679.385 111.628 679.368 108 678.67C103.464 677.79 101.993 677.683 100.605 677.286C99.25 676.898 97.9743 676.233 94 674.298C91.1753 672.953 88.1715 672.568 85.0625 672.17C84.398 672.085 83.7288 672 83.0554 671.904C82.528 671.795 81.8687 671.904 81.4731 672.122C78.5077 673.753 76.0553 675.791 73.7861 677.677C69.093 681.577 65.1835 684.826 59.1393 682.479C58.3017 682.155 57.4655 681.831 56.63 681.507C49.3101 678.667 42.042 675.847 34.3491 673.992C33.9388 673.895 33.5286 673.788 33.1184 673.68C31.6825 673.304 30.2467 672.928 28.8108 673.012C20.3649 673.303 12.232 672.129 4.04079 670.948C3.02426 670.801 2.00683 670.654 0.987792 670.51C0.286178 670.421 -0.951119 670.149 -2.6156 669.784C-9.08454 668.366 -22.0059 665.532 -35.0107 666.484C-47.0608 667.351 -59.8638 669.556 -70.4884 671.386C-82.5352 673.46 -91.7813 675.053 -93.9534 673.665C-95.5202 672.696 -57.2909 652.83 -26 636.863Z" fill="#679289"/>
</svg>
