<svg width="370" height="84" viewBox="0 0 370 84" fill="none" xmlns="http://www.w3.org/2000/svg">
<g clip-path="url(#clip0)">
<path d="M43.5989 32.7913C43.4395 32.7776 43.2965 32.5734 42.9778 32.546C42.8184 32.5323 42.659 32.5186 42.6426 32.7091C42.3075 32.8723 41.956 33.226 41.9233 33.607C41.8906 33.9881 42.0173 34.3828 42.479 34.6144C42.6384 34.6281 42.7814 34.8323 42.7814 34.8323C42.9408 34.846 43.1002 34.8597 43.4353 34.6965C43.7704 34.5334 44.1219 34.1797 44.1546 33.7986C44.2037 33.2271 44.0771 32.8323 43.5989 32.7913Z" fill="#FF0000"/>
<path d="M16.5501 31.8127C77.2943 34.9179 138.366 34.2125 199.147 35.0177C229.307 35.3045 259.609 35.7955 289.736 36.4633C304.64 36.7835 319.385 37.0901 334.273 37.6008C338.752 37.7935 352.626 35.1464 355.213 40.5506C357.117 44.5527 354.975 54.5411 355.522 59.3863C357.872 56.3253 360.046 53.4412 362.396 50.3802C332.494 48.9639 302.543 48.1192 272.543 47.8461C243.021 47.6141 213.874 50.4852 184.397 51.6005C154.266 52.8516 124.274 48.7406 94.1631 47.8823C79.5941 47.3989 65.0088 47.106 50.5501 47.2079C40.4274 47.2983 12.8093 51.0683 15.0054 31.1043C13.1989 33.4442 11.5681 35.6073 9.76163 37.9473C21.7521 36.6738 33.5667 35.5772 45.5572 34.3037C53.657 33.4638 51.5535 18.6965 43.4536 19.5363C31.4632 20.8098 19.6485 21.9065 7.65811 23.18C4.89957 23.5189 2.83553 26.9883 2.41437 30.023C-1.89596 68.9985 45.2567 62.1077 64.8319 62.2533C98.0362 62.6096 131.171 65.647 164.31 66.7654C196.811 67.829 229.358 62.7548 261.941 62.8659C295.002 63.018 327.998 63.9322 360.945 65.418C365.105 65.5833 368.35 61.4476 367.819 56.4118C366.537 45.1697 370.44 31.4941 360.061 25.2287C353.947 21.6328 345.48 23.0169 338.594 22.8094C331.229 22.5609 323.69 22.4892 316.325 22.2406C282.994 21.4896 249.663 20.7385 216.14 20.3549C150.067 19.4791 83.7076 18.1949 17.4009 21.9054C12.2353 22.2295 10.9554 31.5242 16.5501 31.8127Z" fill="#FF0000"/>
<path d="M11.5298 45.3927C23.3566 46.0244 35.964 46.9151 46.6951 52.8269C47.8399 46.9753 49.0009 40.9333 50.305 35.0954C42.6712 34.2479 35.2131 33.2236 27.5956 32.1856C27.0229 38.854 26.4503 45.5224 25.8776 52.1907C29.7518 51.9476 33.6097 51.8951 37.5002 51.4615C47.7047 50.4185 46.006 32.807 36.9868 31.2647C31.76 30.432 26.5332 29.5993 21.3228 28.5761C20.7665 35.0539 20.2266 41.3412 19.6703 47.8191C27.6066 48.8845 35.5919 49.3783 43.6263 49.3005C53.2545 49.3596 54.9028 32.0355 45.1643 31.3912C42.6142 31.1722 39.8884 31.13 37.3383 30.911C36.8311 36.8173 36.3239 42.7236 35.8167 48.6299C52.6007 49.4954 69.5603 50.1841 86.3443 51.0496C95.621 51.4624 97.0281 35.0772 87.8168 33.9023C77.6656 32.4548 67.4653 31.5789 57.2486 30.8935C48.1476 30.3038 46.7078 47.0701 55.8088 47.6597C73.5327 48.7978 91.2893 49.5549 109.095 49.7405C117.91 49.9217 118.994 35.4281 110.486 33.5459C105.435 32.5363 100.241 31.3226 95.1894 30.313C94.7313 35.6477 94.2732 40.9824 93.8151 46.3171C112.054 45.1964 130.162 45.5998 148.172 47.1464C148.63 41.8117 149.088 36.477 149.53 31.3328C140.286 30.539 131.042 29.7452 121.655 28.7471C112.444 27.5722 111.18 44.1616 120.199 45.7038C134.285 48.0651 148.47 49.2832 162.814 50.515C172.855 51.3773 174.234 33.4542 164.401 32.0341C148.545 29.7128 132.575 28.7252 116.489 29.0712C106.031 29.3248 104.383 46.6489 114.82 48.5048C128.731 51.0429 142.74 52.4378 156.974 53.0844C157.547 46.416 158.12 39.7476 158.692 33.0793C146.514 32.8012 134.336 32.5231 122.157 32.245C111.43 31.8996 109.618 51.1289 120.456 52.0596C147.55 54.3863 174.792 54.9983 202.038 53.6914C212.512 53.2474 214.545 35.1885 203.74 33.8768C193.891 32.6472 184.246 32.7786 174.377 33.6584C164.826 34.5657 165.855 52.5035 174.939 53.2836C195.18 55.0218 215.344 55.7937 235.716 56.0077C247.114 56.0268 249.151 36.0491 237.549 34.6689C226.265 33.3161 214.933 32.5349 203.503 32.8968C202.881 40.1368 202.259 47.3767 201.637 54.6167C222.921 53.5654 244.155 53.0858 265.374 52.7966C276.947 52.6389 279.159 32.4843 267.239 31.0768C257.692 30.065 248.24 29.8291 238.738 30.1647C227.132 30.7035 224.805 52.1918 236.857 52.0751C263.669 52.0745 290.339 51.8697 317.152 51.869C328.39 51.8745 330.427 31.8967 318.968 30.7207C313.23 30.228 307.333 29.7216 301.596 29.2289C300.99 36.2783 300.401 43.1372 299.796 50.1867C317.712 50.9575 335.82 51.3609 353.752 51.9412C364.32 52.2729 366.149 32.8531 355.437 32.3171C337.538 31.3558 319.495 30.1902 301.579 29.4194C290.231 28.8287 288.48 49.2149 299.78 50.3772C305.517 50.8699 311.398 51.5668 317.135 52.0595C317.741 45.0101 318.346 37.9607 318.952 30.9113C292.155 30.7214 265.518 30.5452 238.722 30.3553C238.1 37.5952 237.462 45.0257 236.84 52.2656C246.342 51.93 255.794 52.1659 265.181 53.164C265.803 45.924 266.425 38.6841 267.047 31.4441C245.779 32.3048 224.512 33.1656 203.311 33.2642C191.578 33.4082 189.569 54.9238 201.445 54.984C212.843 55.0031 224.225 55.2128 235.524 56.3751C236.129 49.3257 236.751 42.0857 237.357 35.0363C217.078 35.5981 196.723 35.1935 176.432 34.0269C176.673 40.5732 176.754 47.1058 176.995 53.6521C185.413 52.8396 193.734 53.1702 201.989 54.263C202.562 47.5946 203.118 41.1168 203.691 34.4484C176.461 35.5648 149.203 35.1433 122.125 32.6261C121.552 39.2944 120.979 45.9628 120.423 52.4407C132.601 52.7187 144.763 53.1874 156.942 53.4654C167.669 53.8109 169.53 34.0099 158.659 33.4603C144.585 32.8275 130.417 31.4188 116.473 29.2618C115.917 35.7396 115.36 42.2175 114.804 48.6953C130.922 47.9682 146.925 48.5748 162.974 50.5287C163.497 44.4319 164.021 38.3351 164.561 32.0478C150.343 31.2107 136.175 29.8021 121.814 28.7608C121.323 34.4766 120.849 40.0018 120.358 45.7175C129.651 45.9398 138.912 46.5431 148.315 47.3506C156.922 48.0897 158.279 32.2761 149.673 31.537C131.504 29.9767 113.539 29.7775 95.3161 30.7077C86.6114 31.1118 85.4498 44.6391 93.9418 46.7118C98.9765 47.9119 104.171 49.1257 109.222 50.1352C109.68 44.8005 110.138 39.4658 110.612 33.9406C92.823 33.5645 75.0828 32.6169 57.3753 31.2882C56.9008 36.8134 56.41 42.5292 55.9355 48.0544C66.1522 48.7398 76.3361 49.8063 86.4709 51.4443C86.9618 45.7286 87.4526 40.0128 87.9434 34.2971C71.1759 33.241 54.2325 32.3618 37.465 31.3058C27.8858 30.6751 26.3642 48.3939 35.9434 49.0246C38.4935 49.2436 41.2029 49.4763 43.753 49.6952C44.2602 43.789 44.7837 37.6922 45.2909 31.7859C37.2729 31.6731 29.3366 30.6078 21.4494 28.9708C11.2043 26.7475 9.88694 45.8274 19.797 48.2138C24.991 49.4276 30.1688 50.8319 35.3628 52.0456C35.9518 45.1867 36.5245 38.5184 37.1135 31.6595C33.2393 31.9026 29.3487 32.3362 25.6176 32.7835C16.2099 33.8949 16.7276 52.1727 26.1637 52.5992C33.8466 52.8751 41.3702 53.1373 49.0368 53.6037C60.0667 54.1671 59.9048 33.6166 48.5028 35.5165C36.2875 37.5384 23.9826 36.8655 11.5916 39.0643C8.03616 39.3347 8.32586 45.3095 11.5298 45.3927Z" fill="#FF0000"/>
<path d="M126.673 33.6064L126.673 47.6982L131.409 47.6982C135.599 47.6982 138.06 45.0908 138.06 40.6475C138.06 36.2139 135.589 33.6064 131.409 33.6064L126.673 33.6064ZM128.431 35.1885L131.292 35.1885C134.495 35.1885 136.263 37.1416 136.263 40.667C136.263 44.1631 134.485 46.1162 131.292 46.1162L128.431 46.1162L128.431 35.1885ZM146.722 44.7881C146.438 45.7451 145.491 46.3994 144.202 46.3994C142.376 46.3994 141.233 45.1201 141.233 43.1768L141.233 43.0791L148.519 43.0791L148.519 42.4346C148.519 39.3584 146.829 37.3662 144.085 37.3662C141.282 37.3662 139.485 39.5049 139.485 42.6592C139.485 45.8525 141.253 47.874 144.163 47.874C146.38 47.874 148.099 46.5654 148.392 44.7881L146.722 44.7881ZM144.056 38.8408C145.657 38.8408 146.722 40.0518 146.761 41.751L141.243 41.751C141.351 40.0615 142.464 38.8408 144.056 38.8408ZM150.325 47.6982L152.024 47.6982L152.024 33.6064L150.325 33.6064L150.325 47.6982ZM161.058 44.7881C160.774 45.7451 159.827 46.3994 158.538 46.3994C156.712 46.3994 155.569 45.1201 155.569 43.1768L155.569 43.0791L162.854 43.0791L162.854 42.4346C162.854 39.3584 161.165 37.3662 158.421 37.3662C155.618 37.3662 153.821 39.5049 153.821 42.6592C153.821 45.8525 155.589 47.874 158.499 47.874C160.716 47.874 162.435 46.5654 162.728 44.7881L161.058 44.7881ZM158.392 38.8408C159.993 38.8408 161.058 40.0518 161.097 41.751L155.579 41.751C155.687 40.0615 156.8 38.8408 158.392 38.8408ZM165.12 35.0908L165.12 37.542L163.606 37.542L163.606 38.9385L165.12 38.9385L165.12 45.0615C165.12 47.0146 165.843 47.7764 167.708 47.7764C168.108 47.7764 168.577 47.7471 168.782 47.6982L168.782 46.2725C168.665 46.292 168.274 46.3213 168.079 46.3213C167.21 46.3213 166.819 45.9014 166.819 44.9736L166.819 38.9385L168.792 38.9385L168.792 37.542L166.819 37.542L166.819 35.0908L165.12 35.0908ZM177.054 44.7881C176.77 45.7451 175.823 46.3994 174.534 46.3994C172.708 46.3994 171.565 45.1201 171.565 43.1768L171.565 43.0791L178.851 43.0791L178.851 42.4346C178.851 39.3584 177.161 37.3662 174.417 37.3662C171.614 37.3662 169.817 39.5049 169.817 42.6592C169.817 45.8525 171.585 47.874 174.495 47.874C176.712 47.874 178.431 46.5654 178.724 44.7881L177.054 44.7881ZM174.388 38.8408C175.989 38.8408 177.054 40.0518 177.093 41.751L171.575 41.751C171.683 40.0615 172.796 38.8408 174.388 38.8408ZM185.218 35.0908L185.218 37.542L183.704 37.542L183.704 38.9385L185.218 38.9385L185.218 45.0615C185.218 47.0146 185.94 47.7764 187.806 47.7764C188.206 47.7764 188.675 47.7471 188.88 47.6982L188.88 46.2725C188.763 46.292 188.372 46.3213 188.177 46.3213C187.308 46.3213 186.917 45.9014 186.917 44.9736L186.917 38.9385L188.89 38.9385L188.89 37.542L186.917 37.542L186.917 35.0908L185.218 35.0908ZM190.794 47.6982L192.493 47.6982L192.493 41.7803C192.493 40.0225 193.538 38.8701 195.228 38.8701C196.819 38.8701 197.63 39.8369 197.63 41.4482L197.63 47.6982L199.329 47.6982L199.329 41.1357C199.329 38.8701 197.981 37.3662 195.755 37.3662C194.212 37.3662 193.099 38.0303 192.532 39.1631L192.493 39.1631L192.493 33.6064L190.794 33.6064L190.794 47.6982ZM202.425 35.7354C203.02 35.7354 203.489 35.2568 203.489 34.6709C203.489 34.0752 203.02 33.6064 202.425 33.6064C201.839 33.6064 201.36 34.0752 201.36 34.6709C201.36 35.2568 201.839 35.7354 202.425 35.7354ZM201.575 47.6982L203.274 47.6982L203.274 37.542L201.575 37.542L201.575 47.6982ZM205.394 40.3447C205.394 41.8096 206.321 42.6982 208.235 43.1572L209.847 43.5478C211.009 43.8311 211.409 44.251 211.409 44.9834C211.409 45.9014 210.56 46.4873 209.183 46.4873C207.806 46.4873 207.024 45.9307 206.819 44.7686L205.12 44.7686C205.315 46.6729 206.8 47.874 209.183 47.874C211.448 47.874 213.118 46.624 213.118 44.8564C213.118 43.4014 212.376 42.6006 210.325 42.1025L208.714 41.7119C207.581 41.4385 207.063 40.96 207.063 40.2568C207.063 39.3682 207.884 38.7529 209.124 38.7529C210.374 38.7529 211.155 39.4072 211.282 40.4717L212.903 40.4717C212.835 38.6748 211.351 37.3662 209.124 37.3662C206.927 37.3662 205.394 38.6064 205.394 40.3447ZM219.534 35.0908L219.534 37.542L218.02 37.542L218.02 38.9385L219.534 38.9385L219.534 45.0615C219.534 47.0146 220.257 47.7764 222.122 47.7764C222.522 47.7764 222.991 47.7471 223.196 47.6982L223.196 46.2725C223.079 46.292 222.688 46.3213 222.493 46.3213C221.624 46.3213 221.233 45.9014 221.233 44.9736L221.233 38.9385L223.206 38.9385L223.206 37.542L221.233 37.542L221.233 35.0908L219.534 35.0908ZM225.022 47.6982L226.722 47.6982L226.722 41.3701C226.722 39.9346 227.581 38.9873 228.899 38.9873C229.31 38.9873 229.671 39.0361 229.808 39.085L229.808 37.4346C229.671 37.415 229.417 37.3662 229.124 37.3662C227.933 37.3662 226.995 38.0791 226.663 39.2021L226.624 39.2021L226.624 37.542L225.022 37.542L225.022 47.6982ZM232.132 35.7353C232.728 35.7353 233.196 35.2568 233.196 34.6709C233.196 34.0752 232.728 33.6064 232.132 33.6064C231.546 33.6064 231.067 34.0752 231.067 34.6709C231.067 35.2568 231.546 35.7353 232.132 35.7353ZM231.282 47.6982L232.981 47.6982L232.981 37.542L231.282 37.542L231.282 47.6982ZM240.208 37.3662C238.733 37.3662 237.552 38.1182 236.927 39.2607L236.888 39.2607L236.888 37.542L235.276 37.542L235.276 51.0869L236.976 51.0869L236.976 46.0478L237.015 46.0478C237.62 47.1611 238.792 47.874 240.247 47.874C242.806 47.874 244.554 45.8037 244.554 42.6201C244.554 39.4365 242.796 37.3662 240.208 37.3662ZM239.876 46.3799C238.138 46.3799 236.966 44.8857 236.966 42.6201C236.966 40.3643 238.138 38.8603 239.876 38.8603C241.683 38.8603 242.815 40.3252 242.815 42.6201C242.815 44.9248 241.683 46.3799 239.876 46.3799Z" fill="white"/>
</g>
<defs>
<clipPath id="clip0">
<rect width="366.642" height="66.3555" fill="white" transform="translate(3.71289 0.581055) rotate(2.52367)"/>
</clipPath>
</defs>
</svg>
