<svg width="46" height="46" viewBox="0 0 46 46" fill="none" xmlns="http://www.w3.org/2000/svg">
<g clip-path="url(#clip0)">
<path d="M22.9994 46C22.9994 46 6.89941 25.001 6.89941 16.1C6.89941 13.9857 7.31585 11.8921 8.12495 9.9388C8.93405 7.98546 10.12 6.2106 11.615 4.71558C13.11 3.22056 14.8849 2.03464 16.8382 1.22554C18.7916 0.416439 20.8851 0 22.9994 0C25.1137 0 27.2073 0.416439 29.1606 1.22554C31.114 2.03464 32.8888 3.22056 34.3838 4.71558C35.8789 6.2106 37.0648 7.98546 37.8739 9.9388C38.683 11.8921 39.0994 13.9857 39.0994 16.1C39.0994 25.001 22.9994 46 22.9994 46ZM22.9994 20.7C24.2194 20.7 25.3894 20.2154 26.2521 19.3527C27.1148 18.49 27.5994 17.32 27.5994 16.1C27.5994 14.88 27.1148 13.71 26.2521 12.8473C25.3894 11.9846 24.2194 11.5 22.9994 11.5C21.7794 11.5 20.6094 11.9846 19.7467 12.8473C18.8841 13.71 18.3994 14.88 18.3994 16.1C18.3994 17.32 18.8841 18.49 19.7467 19.3527C20.6094 20.2154 21.7794 20.7 22.9994 20.7Z" fill="#F5DC00"/>
</g>
<defs>
<clipPath id="clip0">
<rect width="46" height="46" fill="white"/>
</clipPath>
</defs>
</svg>
