<svg width="46" height="46" viewBox="0 0 46 46" fill="none" xmlns="http://www.w3.org/2000/svg">
<path d="M37.5353 16.33C40.0203 19.5392 41.3744 23.48 41.3868 27.5389C41.3993 31.5977 40.0693 35.5467 37.604 38.7711C35.1387 41.9955 31.6765 44.3143 27.7564 45.3664C23.8362 46.4184 19.6782 46.1448 15.9298 44.5881C12.1814 43.0313 9.05283 40.2789 7.03134 36.7592C5.00986 33.2396 4.20887 29.1503 4.75309 25.1281C5.29731 21.1059 7.1562 17.3765 10.0403 14.5206C12.9244 11.6647 16.6719 9.84263 20.6993 9.338V4.6H25.2993V9.338C28.6573 9.752 31.7393 11.086 34.2693 13.064L37.6273 9.706L40.8933 12.972L37.5353 16.307V16.33ZM22.9993 41.4C26.6593 41.4 30.1694 39.9461 32.7574 37.3581C35.3454 34.7701 36.7993 31.26 36.7993 27.6C36.7993 23.94 35.3454 20.4299 32.7574 17.8419C30.1694 15.2539 26.6593 13.8 22.9993 13.8C19.3393 13.8 15.8292 15.2539 13.2412 17.8419C10.6532 20.4299 9.19929 23.94 9.19929 27.6C9.19929 31.26 10.6532 34.7701 13.2412 37.3581C15.8292 39.9461 19.3393 41.4 22.9993 41.4ZM16.0993 0H29.8993V4.6H16.0993V0ZM27.8753 19.458L31.1413 22.724L22.9993 30.82L19.7563 27.6L27.8753 19.458Z" fill="#F5DC00"/>
</svg>
