<svg width="414" height="184" viewBox="0 0 414 184" fill="none" xmlns="http://www.w3.org/2000/svg">
<path fill-rule="evenodd" clip-rule="evenodd" d="M518.276 117.12C514.889 126.5 513.229 131.098 505.598 132.468C504.605 132.646 494.538 135.339 490.516 137.487C489.812 138.141 487.752 138.583 485.156 139.14C480.338 140.174 473.674 141.604 470.407 145.518C469.084 146.461 467.529 147.515 465.862 148.645C458.661 153.525 449.378 159.816 447.745 164.707C445.904 164.629 442.221 167.687 438.56 170.727C434.991 173.691 431.443 176.638 429.647 176.638C427.288 176.638 424.831 176.533 422.292 176.426C414.009 176.075 404.862 175.687 395.461 178.761C393.097 179.534 361.265 185.171 359.265 183.78C352.227 181.772 334.101 177.101 326.1 176.638C314.097 176.019 306.095 170.454 299.549 162.571C293.483 155.26 286.669 153.471 279.875 151.686C273.02 149.886 266.186 148.091 260.158 140.639C251.975 130.437 241.063 123.79 225.242 125.026C221.605 125.336 217.968 125.233 214.331 125.129C212.512 125.078 210.694 125.026 208.875 125.026C195.782 125.026 185.598 120.389 177.232 111.887C167.594 101.839 145.044 86.5357 140.316 86.5357C137.418 86.5357 129.92 91.2451 120.134 97.3919C101.058 109.374 73.2863 126.818 53.935 125.49C47.2902 125.056 37.6125 123.705 28.6594 122.456C18.5003 121.038 9.27421 119.751 6.47093 120.08C-2.6962 121.09 -7.18839 118.093 -11.1848 115.426C-15.7505 112.38 -19.6692 109.765 -29.1726 114.051C-33.9008 116.061 -38.9927 116.061 -44.0847 115.906C-49.1766 115.752 -54.4504 115.597 -59.7242 115.597C-59.7242 115.597 -211.573 37.2244 -207.936 34.9057C-204.94 32.9344 -192.189 35.1967 -175.575 38.1443C-160.922 40.7439 -143.265 43.8765 -126.647 45.1081C-108.711 46.4605 -90.8913 42.4346 -81.9699 40.4192C-79.6744 39.9006 -77.968 39.5151 -77.0004 39.3885C-75.595 39.1838 -74.192 38.9752 -72.7901 38.7668C-66.3782 37.8138 -59.9922 36.8646 -53.5385 36.2974V21.2637H6.10907C17.2042 17.1734 28.3108 15.3131 39.5602 21.2637H48.5559C51.7334 20.7813 54.814 20.1165 57.7539 18.6747C68.847 13.1098 81.0313 9.70901 93.3975 7.23571C106.673 4.60783 118.857 0.434158 130.132 -6.52198C133.261 -8.43827 136.366 -10.3941 139.474 -12.352C148.653 -18.133 157.859 -23.9318 167.776 -28.7817C169.021 -29.3788 170.278 -29.9522 171.53 -30.5234C177.408 -33.2054 183.187 -35.8418 187.234 -40.6844C188.144 -41.7665 189.417 -42.2302 190.69 -41.6119C191.906 -41.0662 193.16 -40.5471 194.419 -40.026C199.937 -37.7426 205.55 -35.4193 208.511 -30.6366C214.149 -21.3618 222.15 -14.5602 233.789 -11.0048C237.608 -9.92278 240.7 -7.60406 243.246 -5.13076C250.156 1.6708 259.249 5.53534 269.069 7.54489C280.236 9.82788 288.766 14.3524 295.77 21.2637H364.282C365.678 19.9086 367.118 18.4815 368.569 17.0447C375.504 10.1741 382.662 3.08368 386.183 2.59827C390.912 1.92844 397.347 -6.17909 403.524 -13.9618C408.752 -20.5476 413.795 -26.9009 417.462 -28.3179C422.194 -30.2542 425.363 -38.7204 428.557 -47.2519C431.992 -56.4289 435.456 -65.6814 440.922 -66.9632C445.06 -67.936 440.588 -49.4899 435.822 -29.8308C430.744 -8.88178 425.331 13.4447 429.647 15.1194C435.869 17.4902 442.154 19.5384 448.54 21.2637H463.632V24.7008C468 25.5382 472.336 26.4696 476.383 28.2587C490.568 34.442 505.298 39.234 520.392 43.7168C521.847 44.1806 522.938 44.026 524.029 43.4076C524.886 42.9771 525.76 42.5537 526.638 42.1283C529.858 40.5678 533.135 38.9802 535.85 36.9153C543.488 31.0412 552.944 30.5774 560.4 36.4515C564.24 39.4709 568.144 42.4473 572.051 45.426C582.944 53.7322 593.862 62.057 603.5 71.3868C605.832 73.6993 609.773 77.0268 613.604 80.261C616.943 83.0802 620.198 85.8287 622.231 87.7724C608.592 90.864 597.862 88.6999 589.497 80.198C583.496 74.0147 570.402 62.2665 562.037 58.7112C553.308 55.1558 550.944 55.9287 547.852 63.8123C546.11 68.197 546.374 72.3753 546.594 75.8613C546.948 81.4698 547.189 85.2861 538.778 85.2861C538.006 85.2861 537.249 85.2774 536.512 85.2689C529.347 85.1862 524.029 85.1248 524.029 93.317C523.306 96.5736 523.043 98.8751 522.806 100.952C522.446 104.099 522.145 106.73 520.392 111.387C519.594 113.469 518.906 115.377 518.276 117.12Z" fill="#154945"/>
<rect y="-41" width="414" height="100" fill="#154945"/>
</svg>
