<svg width="124" height="36" viewBox="0 0 124 36" fill="none" xmlns="http://www.w3.org/2000/svg">
<g clip-path="url(#clip0)">
<path d="M0.200161 0.699896C-0.599839 5.5999 0.800161 12.0999 6.70016 12.9999C11.4002 13.6999 14.9002 9.3999 13.5002 4.9999C12.8002 2.6999 9.70016 3.2999 9.50016 5.4999C9.10016 9.8999 8.50016 14.1999 7.50016 18.3999C7.20016 19.5999 3.70016 28.7999 4.30016 29.4999C3.20016 28.2999 0.700161 29.0999 0.900161 30.8999C1.40016 36.1999 7.10016 36.2999 9.00016 31.6999C12.3002 23.7999 13.0002 13.8999 13.6002 5.4999C12.3002 5.6999 10.9002 5.8999 9.60016 5.9999C6.40016 9.9999 4.10016 9.5999 2.70016 4.9999C2.40016 3.6999 2.20016 2.2999 2.00016 0.999896C2.00016 -0.000104129 0.400161 -0.400104 0.200161 0.699896Z" fill="white"/>
<path d="M17.0004 27.7999C15.0004 25.3999 13.7004 21.2999 15.6004 18.3999C17.0004 16.1999 20.7004 14.8999 22.9004 16.6999C25.5004 18.7999 25.8004 24.1999 22.1004 25.0999C20.5004 25.4999 18.8004 25.1999 17.3004 24.7999C16.5004 24.5999 13.3004 23.2999 14.7004 21.9999C16.3004 20.6999 14.6004 18.2999 12.8004 18.7999C10.1004 19.3999 8.90039 22.1999 9.90039 24.6999C11.1004 27.6999 14.6004 28.9999 17.5004 29.3999C20.7004 29.8999 24.4004 29.5999 26.8004 27.0999C28.9004 24.8999 28.9004 21.3999 28.1004 18.5999C26.4004 13.0999 20.3004 10.2999 15.5004 14.0999C10.7004 18.0999 12.0004 24.7999 16.0004 28.6999C16.6004 29.3999 17.5004 28.3999 17.0004 27.7999Z" fill="white"/>
<path d="M35.6998 23.6996C33.7998 23.6996 31.4998 23.6996 30.1998 21.9996C28.9998 20.2996 29.6998 17.7996 31.4998 16.6996C30.6998 15.8996 29.8998 15.0996 29.0998 14.2996C27.8998 16.7996 25.3998 18.8996 26.1998 21.9996C26.8998 24.5996 29.4998 26.0996 31.9998 26.2996C37.3998 26.7996 44.9998 20.6996 40.3998 15.1996C39.2998 13.9996 37.1998 14.9996 37.1998 16.4996C37.1998 17.9996 37.4998 19.5996 36.4998 20.8996C35.4998 22.1996 33.7998 22.7996 32.1998 22.5996C30.7998 22.3996 29.3998 21.6996 29.5998 20.1996C29.7998 18.7996 31.3998 17.2996 31.9998 16.0996C32.6998 14.5996 31.1998 12.6996 29.5998 13.6996C26.2998 15.7996 24.8998 20.3996 27.3998 23.5996C29.2998 26.0996 33.7998 27.2996 35.9998 24.3996C36.2998 24.0996 36.0998 23.6996 35.6998 23.6996Z" fill="white"/>
<path d="M45.6002 11.1995C45.7002 10.7995 45.9002 10.3995 46.0002 10.0995C45.5002 9.99953 44.9002 9.99953 44.4002 9.89953C43.7002 15.4995 43.7002 21.3995 42.3002 26.8995C43.5002 26.8995 44.6002 26.8995 45.8002 26.8995C45.6002 26.4995 45.5002 26.1995 45.3002 25.7995C44.7002 24.2995 42.2002 24.2995 42.2002 26.1995C42.2002 26.5995 42.2002 26.9995 42.2002 27.3995C42.2002 29.6995 45.9002 29.6995 45.8002 27.3995C45.6002 21.5995 46.4002 15.7995 46.0002 9.89953C45.9002 8.69953 44.1002 8.99953 44.4002 10.0995C44.5002 10.4995 44.6002 10.8995 44.7002 11.1995C44.9002 11.5995 45.4002 11.5995 45.6002 11.1995Z" fill="white"/>
<path d="M46.7002 13.1001C46.6002 12.8001 50.4002 9.40007 51.6002 11.1001C51.6002 12.1001 51.6002 13.1001 51.6002 14.2001C51.2002 14.4001 50.7002 14.7001 50.3002 14.9001C48.7002 15.7001 47.0002 16.5001 45.3002 17.3001C44.4002 17.7001 44.1002 19.1001 44.6002 19.9001C47.0002 23.5001 51.8002 28.7001 56.6002 28.1001C57.8002 27.9001 58.9002 26.4001 57.7002 25.4001C56.3002 24.2001 54.6002 23.7001 53.0002 22.8001C50.9002 21.6001 49.2002 20.0001 47.9002 18.1001C47.7002 19.0001 47.5002 19.8001 47.2002 20.7001C50.3002 18.7001 59.1002 14.4001 53.6002 9.90007C50.6002 7.50007 43.9002 8.80007 45.8002 13.6001C46.0002 13.9001 46.8002 13.7001 46.7002 13.1001Z" fill="white"/>
<path d="M72.1996 5.39995C70.8996 10.1999 69.4996 15.0999 68.3996 19.9999C67.7996 22.6999 68.1996 24.9999 70.8996 26.2999C74.4996 28.0999 85.9996 28.9999 85.5996 22.7999C85.4996 20.6999 81.8996 19.8999 81.5996 22.2999C81.3996 23.6999 76.9996 23.3999 75.8996 23.3999C75.2996 23.3999 73.3996 23.4999 72.7996 22.9999C71.4996 21.7999 71.8996 18.6999 72.0996 17.1999C72.6996 13.3999 73.1996 9.49995 73.6996 5.69995C73.8996 4.69995 72.3996 4.49995 72.1996 5.39995Z" fill="white"/>
<path d="M71.2998 14.9996C73.8998 14.8996 76.3998 14.8996 78.9998 14.7996C78.8998 13.6996 78.6998 12.6996 78.5998 11.5996C77.7998 11.7996 76.9998 11.9996 76.0998 12.2996C74.1998 12.7996 74.9998 15.4996 76.8998 15.1996C77.6998 15.0996 78.5998 14.8996 79.3998 14.7996C81.1998 14.4996 80.6998 11.5996 78.9998 11.5996C76.1998 11.5996 73.3998 12.3996 70.8998 13.7996C70.2998 13.9996 70.5998 14.9996 71.2998 14.9996Z" fill="white"/>
<path d="M88.0003 10.5005C87.8003 9.80046 87.7003 9.70046 87.2003 9.10046C86.7003 8.50046 85.9003 8.80046 85.5003 9.30046C82.4003 13.8005 81.4003 18.9005 81.3003 24.3005C82.3003 23.9005 83.4003 23.4005 84.4003 23.0005L84.3003 22.9005C84.2003 21.3005 82.1003 20.6005 81.3003 22.1005C80.5003 23.4005 80.7003 24.7005 81.9003 25.6005C83.4003 26.9005 85.3003 25.6005 85.0003 23.8005C84.6003 21.5005 84.8003 19.0005 85.3003 16.7005C85.4003 16.2005 86.9003 10.5005 87.6003 10.9005C87.7003 11.0005 88.1003 10.8005 88.0003 10.5005Z" fill="white"/>
<path d="M86.2002 12.2999C86.9002 11.2999 87.9002 10.6999 89.1002 10.3999C91.3002 9.59986 92.0002 10.7999 91.3002 13.9999C90.9002 14.2999 89.5002 14.1999 89.0002 14.3999C87.7002 14.9999 86.9002 16.1999 86.9002 17.6999C87.0002 21.6999 92.5002 25.7999 95.6002 27.3999C97.5002 28.2999 99.6002 25.8999 97.9002 24.3999C96.4002 22.9999 94.6002 21.8999 93.0002 20.4999C92.7002 19.9999 91.0002 18.7999 91.0002 18.1999C91.0002 16.6999 92.4002 16.8999 93.2002 16.4999C95.0002 15.6999 96.0002 13.6999 95.6002 11.6999C95.2002 9.59986 93.4002 8.19986 91.4002 7.99986C88.5002 7.59986 86.9002 9.49986 85.4002 11.6999C85.1002 12.0999 85.9002 12.6999 86.2002 12.2999Z" fill="white"/>
<path d="M102.3 11.9004C101.7 16.1004 101.3 20.6004 101.5 24.8004C101.6 26.9004 105 26.8004 104.8 24.8004C104.2 20.5004 103.8 16.4004 103.6 12.1004C103.6 11.4004 102.5 11.2004 102.3 11.9004Z" fill="white"/>
<path d="M104.5 5.1C104.9 5 105.3 4.8 105.5 4.5C105.7 4.3 105.8 4.1 105.9 3.8C106 3.7 106 3.5 106.1 3.4C106.2 3.2 106.2 2.9 106.1 2.7C106 2.3 105.9 1.9 105.6 1.7C105.4 1.5 105.1 1.3 104.8 1.2C104.6 1.1 104.3 1.1 104.1 1.2C103.9 1.2 103.6 1.3 103.4 1.4C103.3 1.4 103.3 1.5 103.2 1.5C103.2 1.5 103.1 1.5 103.1 1.6C102.9 1.7 102.7 1.9 102.6 2.1C102.4 2.4 102.3 2.7 102.2 3C102.2 3.1 102.2 3.3 102.2 3.4C102.1 3.9 102.5 4.5 102.9 4.8C103.4 5.1 104 5.2 104.5 5.1Z" fill="white"/>
<path d="M110.1 9.40016C108.7 12.8002 108.5 17.0002 107.9 20.6002C107.3 24.4002 106.7 28.1002 106.1 31.9002C105.8 33.5002 107.4 35.0002 109 34.1002C110.1 33.5002 110.4 33.1002 110.7 31.9002C111.1 30.0002 108.7 29.1002 107.7 30.6002L107.6 30.5002C108.4 31.1002 109.2 31.8002 110.1 32.4002C110.4 28.3002 110.7 24.2002 111 20.1002C111.2 16.6002 111.9 12.9002 111.4 9.40016C111.1 8.80016 110.3 9.00016 110.1 9.40016Z" fill="white"/>
<path d="M111 11.2999C113.3 10.0999 120.1 7.39987 120.3 12.1999C120.4 13.8999 118.9 15.4999 117.8 16.5999C116.4 17.8999 115.4 17.6999 113.8 18.1999C112.6 18.5999 112.4 19.8999 113.1 20.6999C116.8 25.3999 123.8 15.3999 123.2 11.7999C122.8 9.39987 120.9 7.79987 118.6 7.29987C115.6 6.69987 112.8 8.29987 110.4 9.89987C109.5 10.4999 110.2 11.6999 111 11.2999Z" fill="white"/>
</g>
<defs>
<clipPath id="clip0">
<rect width="123.2" height="35.1" fill="white"/>
</clipPath>
</defs>
</svg>
